<svg width="219" height="60" viewBox="0 0 219 60" fill="none" xmlns="http://www.w3.org/2000/svg">
<path fill-rule="evenodd" clip-rule="evenodd" d="M30.8242 0.000339825C47.4297 0.000339825 60.8238 13.3944 60.8238 30.0783C60.8238 46.5272 47.2731 60.078 30.5892 59.9997C14.4536 59.843 0.902832 46.5272 0.902832 30C0.902832 13.3944 14.2186 -0.0779883 30.8242 0.000339825ZM8.03069 45.6656C8.03069 45.9789 8.18734 46.1356 8.344 46.3706C9.51892 48.0155 10.8505 49.582 12.4171 50.9136C13.122 51.5402 13.827 52.1669 14.6102 52.7151C16.8034 54.1251 19.075 55.4566 21.5815 56.3182C23.618 57.0232 25.7328 57.5715 27.8477 57.8065C29.4926 57.9631 31.2158 58.0415 32.8607 57.8065C33.8006 57.6498 34.8189 57.6498 35.7588 57.2582C35.9155 57.3365 35.9938 57.1799 36.0722 57.1799C38.0304 56.8666 39.9102 56.2399 41.7901 55.4566C47.8997 52.7935 52.5211 48.4854 55.4975 42.5325C58.1607 37.2845 59.0223 31.7232 58.1607 25.9269C57.3774 20.3656 55.0276 15.5093 51.2678 11.4362C46.2548 5.71829 39.8319 2.74182 32.2341 2.27186C28.866 2.03687 25.4979 2.50684 22.2864 3.60343C17.0384 5.32665 12.7304 8.30312 9.20561 12.6112C5.21088 17.5458 3.25267 23.1855 3.01769 29.4517C2.93936 31.0183 3.09602 32.5065 3.331 34.0731C3.80097 37.5978 4.97589 40.9659 6.77744 44.0207C7.24741 44.4907 7.56072 45.1173 8.03069 45.6656Z" fill="#333333" fill-opacity="0.7"/>
<path fill-rule="evenodd" clip-rule="evenodd" d="M35.7588 57.1798C34.8188 57.6498 33.8006 57.6498 32.8606 57.7281C31.2158 57.9631 29.4925 57.8848 27.8476 57.7281C25.7328 57.4931 23.6179 56.9448 21.5814 56.2399C19.0749 55.3783 16.8034 54.0467 14.6102 52.6368C13.8269 52.0885 13.122 51.4619 12.417 50.8352C10.8505 49.5037 9.51887 47.9371 8.34395 46.2922C8.18729 46.0572 8.03064 45.8222 8.03064 45.5873C9.91051 41.3575 10.6155 36.8928 11.0071 32.3498C11.1638 30.235 11.2421 28.1201 11.6337 26.0052C12.0254 23.5771 12.9653 21.3839 14.6885 19.504C16.2551 17.8591 18.2133 16.7625 20.3282 15.9792C22.0514 15.2743 23.8529 14.6477 25.8111 14.5693C27.6127 14.491 29.3359 14.726 31.0591 15.1176C33.6439 15.7443 36.2288 16.5275 38.6569 17.7025C40.6151 18.4857 42.6517 19.269 44.6882 19.8956C46.8031 20.5223 48.9179 21.2272 50.7195 22.5588C52.991 24.282 53.6176 26.4752 52.5993 29.1384C51.9727 30.7832 50.7978 32.0365 49.6229 33.2897C47.508 35.4829 45.2365 37.5195 43.2 39.791C40.8501 42.5325 38.7353 45.3523 37.247 48.6421C35.9938 51.3835 35.2888 54.2034 35.7588 57.1798ZM50.8761 31.4099C50.7978 31.4099 50.7195 31.4099 50.6411 31.4882C50.5628 31.4882 50.4845 31.5665 50.4845 31.6449C50.4845 31.6449 50.4845 31.6449 50.4845 31.7232C50.5628 31.7232 50.6411 31.6449 50.6411 31.5665L50.8761 31.4099C50.9544 31.4099 51.0328 31.4099 50.8761 31.4099C50.9544 31.3315 50.8761 31.4099 50.8761 31.4099ZM26.9077 17.7808C23.9312 17.7808 21.5031 20.209 21.5031 23.1071C21.5031 26.0836 23.9312 28.4334 26.8294 28.5117C29.8058 28.5117 32.1557 26.0836 32.234 23.1071C32.234 20.1306 29.8842 17.7808 26.9077 17.7808ZM31.2941 34.2297C31.7641 34.9346 32.6257 35.5613 33.6439 35.8746C35.6805 36.5795 37.717 36.5795 39.7535 36.1879C43.3566 35.4829 46.7247 34.2297 49.7795 32.1931C49.9362 32.0365 50.2495 32.0365 50.3278 31.7232C50.1712 31.6449 50.0928 31.7232 50.0145 31.8015C48.9962 32.4281 47.8996 32.8981 46.803 33.3681C43.9832 34.543 41.0068 35.3263 37.8736 35.4829C35.6021 35.6396 33.3306 35.4829 31.2941 34.2297ZM46.0981 29.6083C46.7247 29.6083 47.273 29.06 47.273 28.3551C47.273 27.7285 46.7247 27.1802 46.0198 27.2585C45.3931 27.2585 44.9232 27.8068 44.9232 28.4334C44.9232 29.1384 45.3931 29.6083 46.0981 29.6083Z" fill="#333333" fill-opacity="0.7"/>
<path fill-rule="evenodd" clip-rule="evenodd" d="M30.9808 15.1177C29.2576 14.8044 27.5344 14.4911 25.7328 14.5694C23.7746 14.6477 22.0514 15.2743 20.2499 15.9793C18.135 16.7626 16.1768 17.8592 14.6102 19.5041C12.887 21.3056 11.9471 23.4988 11.5555 26.0053C11.2421 28.1202 11.1638 30.235 10.9288 32.3499C10.5372 36.8929 9.83223 41.4359 7.95236 45.5873C7.40406 45.1173 7.09075 44.4124 6.77744 43.8641C4.97589 40.8093 3.80097 37.4412 3.331 33.9164C3.09602 32.3499 2.93936 30.8616 3.01769 29.2951C3.25267 23.0288 5.21088 17.3892 9.20561 12.4545C12.652 8.14648 17.0384 5.17002 22.2864 3.4468C25.4979 2.42853 28.866 1.95857 32.2341 2.11522C39.7536 2.58519 46.1765 5.63998 51.2678 11.2013C55.0276 15.3527 57.2991 20.209 58.1607 25.692C59.0223 31.4883 58.1607 37.0495 55.4975 42.2975C52.5211 48.2505 47.8997 52.5585 41.7901 55.2217C39.9886 56.005 38.1087 56.6316 36.0722 56.9449C35.9155 56.9449 35.8372 57.1799 35.7588 57.0232C35.2889 54.0467 35.9938 51.2269 37.1687 48.4855C38.657 45.1957 40.7718 42.3759 43.1217 39.6344C45.0799 37.3629 47.3514 35.248 49.5446 33.1331C50.7978 31.8799 51.8944 30.6266 52.521 28.9818C53.6176 26.3186 52.991 24.1254 50.6412 22.4022C48.8396 21.0706 46.7248 20.3657 44.6099 19.739C42.5734 19.1124 40.5368 18.3291 38.5786 17.5459C38.187 16.2143 37.2471 15.3527 35.9938 14.8827C34.3489 14.4911 32.704 14.6477 30.9808 15.1177ZM56.5941 31.8016H56.7508C57.0641 30.705 57.0641 29.5301 57.0641 28.3551C57.0641 27.0236 56.9074 25.692 56.6724 24.3604C55.8108 20.0524 53.8526 16.2926 50.7978 13.0812C48.918 11.123 46.8031 9.47806 44.6882 7.75484C42.8084 6.18828 40.7718 5.01336 38.422 4.38673C36.1505 3.83843 33.9573 3.52512 31.6075 3.91676C31.4508 3.91676 31.2941 3.91677 31.2941 4.07342C31.2941 4.23008 31.4508 4.23008 31.6075 4.23008C35.0539 4.8567 38.3437 5.9533 41.5551 7.20655C44.6882 8.4598 47.3514 10.2613 49.3096 13.0812C50.6412 15.0394 51.8944 17.0759 52.9127 19.2691C54.2443 22.2455 55.2625 25.3003 55.8892 28.4335C56.2025 29.6867 56.4375 30.705 56.5941 31.8016Z" fill="white"/>
<path fill-rule="evenodd" clip-rule="evenodd" d="M26.9078 17.7808C29.8842 17.7808 32.2341 20.2089 32.2341 23.1071C32.2341 26.0835 29.8059 28.4334 26.8294 28.5117C23.853 28.5117 21.5031 26.0835 21.5031 23.1071C21.5031 20.1306 23.9313 17.7808 26.9078 17.7808ZM30.6675 23.1854C30.6675 21.0705 29.0226 19.4257 26.9078 19.4257C24.7929 19.4257 23.148 21.0705 23.148 23.1854C23.148 25.2219 24.7929 26.9451 26.8294 26.9451H26.9078C28.9443 26.9451 30.5892 25.3003 30.6675 23.1854Z" fill="white"/>
<path fill-rule="evenodd" clip-rule="evenodd" d="M30.9808 15.1176C32.6257 14.6477 34.3489 14.491 35.9938 15.1176C37.2471 15.5876 38.187 16.4492 38.5787 17.7808C36.2288 16.5276 33.644 15.7443 30.9808 15.1176Z" fill="#333333" fill-opacity="0.7"/>
<path fill-rule="evenodd" clip-rule="evenodd" d="M46.0981 29.6084C45.4715 29.6084 44.9232 29.0601 44.9232 28.4335C44.9232 27.8068 45.3932 27.2585 46.0198 27.2585C46.6464 27.2585 47.1947 27.7285 47.2731 28.3551C47.1947 29.0601 46.7248 29.6084 46.0981 29.6084Z" fill="white"/>
<path fill-rule="evenodd" clip-rule="evenodd" d="M50.6412 31.5666C50.6412 31.6449 50.5628 31.7232 50.4845 31.7232C50.4845 31.5666 50.5628 31.4882 50.6412 31.5666ZM50.8761 31.4099L50.6412 31.5666L50.5628 31.4882C50.7195 31.4099 50.7978 31.4099 50.8761 31.4099Z" fill="#333333" fill-opacity="0.7"/>
<path fill-rule="evenodd" clip-rule="evenodd" d="M30.6675 23.1855C30.6675 25.222 29.0226 26.9452 26.9861 26.9452H26.9078C24.8712 26.9452 23.148 25.3003 23.148 23.1855V23.1072C23.148 20.9923 24.8712 19.3474 26.9078 19.3474C28.9443 19.3474 30.6675 21.0706 30.6675 23.1855Z" fill="#333333" fill-opacity="0.7"/>
<path fill-rule="evenodd" clip-rule="evenodd" d="M149.491 38.3028C149.413 38.3812 149.335 38.3812 149.256 38.4595C146.828 41.201 143.773 41.6709 140.483 40.8093C136.41 39.7911 134.217 36.8929 133.356 32.8982C132.807 30.3134 132.964 27.7285 133.982 25.3004C135.784 20.9923 139.857 18.6425 144.478 19.2691C146.593 19.5824 148.551 20.2874 150.04 21.8539C151.136 23.0289 151.763 24.4388 151.998 26.0053C152.076 26.3186 151.919 26.397 151.684 26.397C150.744 26.397 149.726 26.397 148.786 26.397C148.551 26.397 148.473 26.3186 148.395 26.0837C147.925 23.9688 146.515 22.7939 144.478 22.4022C142.128 21.9323 140.092 22.4022 138.525 24.2821C137.115 26.0053 136.724 28.1202 136.724 30.3134C136.724 31.9583 137.037 33.5248 137.742 34.9347C139.387 38.0679 143.46 39.1644 146.515 37.3629C148.238 36.3446 148.786 34.6997 148.943 32.8199C148.943 32.4282 148.708 32.5066 148.473 32.5066C146.906 32.5066 145.418 32.5066 143.852 32.5066C143.382 32.5066 143.303 32.3499 143.303 31.9583C143.303 31.3316 143.303 30.7833 143.303 30.1567C143.303 29.7651 143.46 29.6867 143.773 29.6867C146.436 29.6867 149.178 29.6867 151.841 29.6867C152.154 29.6867 152.311 29.7651 152.311 30.0784C152.311 33.5248 152.311 36.8929 152.311 40.3394C152.311 40.6527 152.233 40.731 151.919 40.731C151.293 40.731 150.509 40.8877 150.04 40.6527C149.57 40.3394 149.726 39.5561 149.57 38.9295C149.57 38.6945 149.491 38.4595 149.491 38.3028ZM87.4554 26.397C86.9854 26.397 86.5154 26.397 85.9671 26.397C85.6538 26.397 85.5755 26.3186 85.4972 26.0053C84.8705 23.8121 83.4606 22.4806 81.1891 22.2456C78.6826 22.0106 76.5678 22.7939 75.3145 25.0654C73.4346 28.5118 73.513 32.0366 75.3928 35.4047C76.6461 37.6762 79.3876 38.6945 81.8941 37.9895C84.0873 37.3629 85.1055 35.718 85.5755 33.6032C85.7322 32.7415 85.7322 32.7415 86.5938 32.7415C87.377 32.7415 88.1603 32.7415 88.9436 32.7415C89.2569 32.7415 89.3352 32.8199 89.2569 33.1332C88.8653 37.2846 86.2021 40.496 82.1291 41.1226C76.2545 42.0626 71.3981 38.4595 70.4582 32.5849C70.0665 30.0001 70.3015 27.4936 71.3198 25.0654C73.1213 20.9923 77.1161 18.7991 81.5808 19.3474C83.6956 19.6608 85.6538 20.3657 87.2204 21.9323C88.317 23.1072 88.9436 24.5171 89.1786 26.0837C89.2569 26.397 89.1786 26.4753 88.8653 26.4753C88.4736 26.3186 87.9253 26.397 87.4554 26.397ZM202.754 40.6527C201.423 40.6527 200.248 40.6527 198.995 40.6527C198.681 40.6527 198.525 40.496 198.446 40.261C197.115 38.0679 195.705 35.953 194.373 33.7598C194.138 33.3682 194.06 33.3682 193.668 33.6815C192.337 34.6214 191.788 35.8747 192.023 37.5196C192.18 38.3812 192.023 39.3211 192.023 40.261C192.023 40.6527 191.867 40.731 191.553 40.731C190.77 40.731 189.987 40.731 189.204 40.731C188.812 40.731 188.734 40.5744 188.734 40.1827C188.734 36.9713 188.734 33.7598 188.734 30.47C188.734 27.1019 188.734 23.7338 188.734 20.2874C188.734 19.7391 188.89 19.5824 189.439 19.6607C190.143 19.7391 190.848 19.7391 191.553 19.6607C192.023 19.6607 192.102 19.8174 192.102 20.209C192.102 23.7338 192.102 27.2586 192.102 30.7833V31.41L192.258 31.4883C192.493 31.175 192.807 30.8617 193.042 30.5484C194.608 28.9035 196.175 27.3369 197.82 25.692C197.976 25.5354 198.133 25.3787 198.368 25.3787C199.621 25.3787 200.874 25.3787 202.128 25.3787C202.128 25.6137 201.893 25.692 201.814 25.8487C200.17 27.4152 198.603 28.9818 196.88 30.5484C196.488 30.8617 196.488 31.0967 196.801 31.5666C198.681 34.3864 200.561 37.2062 202.441 40.0261C202.441 40.261 202.598 40.4177 202.754 40.6527ZM164.06 33.9165C162.337 33.9165 160.692 33.9165 158.969 33.9165C158.577 33.9165 158.499 33.9948 158.499 34.3864C158.656 37.4412 161.475 39.3211 164.295 38.1462C165.079 37.8329 165.705 37.2062 166.018 36.3446C166.175 35.953 166.41 35.8747 166.723 35.8747C167.428 35.8747 168.212 35.8747 168.917 35.8747C169.308 35.8747 169.387 35.953 169.23 36.3446C168.368 39.0861 166.488 40.5744 163.669 40.966C161.162 41.3576 158.812 40.8093 157.011 38.9295C155.757 37.5979 155.209 35.8747 155.053 34.0731C154.896 31.8799 155.209 29.7651 156.619 27.8852C158.421 25.5354 160.849 24.6737 163.669 25.1437C166.645 25.692 168.447 27.5719 169.308 30.3917C169.622 31.41 169.7 32.4282 169.622 33.5248C169.622 33.9165 169.465 33.9948 169.152 33.9948C167.507 33.9165 165.783 33.9165 164.06 33.9165ZM162.415 31.7233C163.59 31.7233 164.765 31.7233 165.862 31.7233C166.253 31.7233 166.332 31.6449 166.253 31.2533C165.94 29.2168 164.452 27.7285 162.494 27.6502C160.457 27.5719 158.812 28.9818 158.499 31.0967C158.421 31.4883 158.499 31.6449 158.969 31.6449C160.144 31.7233 161.24 31.7233 162.415 31.7233ZM91.5284 33.0549C91.5284 32.1149 91.6851 31.0967 91.9201 30.1567C92.9383 26.8669 95.8365 24.8304 99.4396 25.0654C102.181 25.222 104.453 26.162 105.784 28.5902C107.351 31.5666 107.351 34.6997 105.706 37.5979C104.218 40.3394 101.633 41.201 98.6563 41.0443C94.1916 40.8093 91.5284 37.7545 91.5284 33.0549ZM94.8965 33.0549C94.8965 34.3864 95.1315 35.5614 95.9148 36.6579C97.168 38.4595 99.5962 39.0078 101.398 37.7545C101.789 37.4412 102.181 37.1279 102.494 36.7363C103.826 34.7781 103.904 31.4883 102.494 29.4518C100.849 27.1019 97.403 27.1019 95.8365 29.5301C95.1315 30.5484 94.8965 31.8016 94.8965 33.0549ZM203.616 33.1332C203.616 30.94 204.086 28.9818 205.574 27.3369C207.062 25.6137 209.099 24.9871 211.292 24.9871C213.485 24.9871 215.522 25.6137 217.088 27.3369C218.733 29.2168 219.125 31.4883 218.968 33.9165C218.89 34.7781 218.733 35.6397 218.42 36.423C217.245 39.4778 214.425 41.201 210.822 40.966C206.592 40.731 203.929 37.9895 203.694 33.7598C203.694 33.6031 203.616 33.2898 203.616 33.1332ZM215.6 33.2898C215.6 31.7233 215.208 30.3917 214.66 29.4518C213.485 27.5719 210.979 27.1019 209.177 28.2768C208.707 28.5902 208.316 28.9818 208.002 29.4518C206.671 31.41 206.749 34.6997 208.002 36.5796C209.256 38.3812 211.684 38.9295 213.485 37.6762C213.955 37.3629 214.269 37.0496 214.582 36.5796C215.365 35.5614 215.6 34.3081 215.6 33.2898ZM119.883 27.5719C120.823 26.397 121.92 25.5354 123.408 25.1437C124.74 24.8304 126.071 24.9087 127.324 25.457C129.204 26.2403 129.988 27.8852 130.066 29.8434C130.144 33.2898 130.066 36.7363 130.066 40.1827C130.066 40.5744 129.988 40.6527 129.596 40.6527C128.813 40.6527 128.029 40.6527 127.246 40.6527C126.854 40.6527 126.698 40.5744 126.698 40.1044C126.698 37.2062 126.698 34.2298 126.698 31.3316C126.698 30.705 126.619 30.0784 126.463 29.5301C125.993 27.9635 124.505 27.3369 122.703 27.8069C121.136 28.2768 120.118 29.6867 120.118 31.4883C120.118 34.3081 120.118 37.2062 120.118 40.0261C120.118 40.496 120.04 40.731 119.492 40.6527C118.787 40.5744 118.003 40.5744 117.298 40.6527C116.907 40.6527 116.75 40.5744 116.75 40.1044C116.75 37.9112 116.75 35.7963 116.75 33.6032C116.75 31.0967 116.75 28.5902 116.75 26.0837C116.75 25.5354 116.907 25.3787 117.455 25.457C118.16 25.5354 118.787 25.457 119.492 25.457C119.883 25.457 120.04 25.5354 119.962 25.927C119.883 26.4753 119.883 27.0236 119.883 27.5719ZM184.112 30.5484C184.034 30.5484 183.956 30.5484 183.877 30.5484C183.016 30.6267 182.467 30.5484 182.076 29.5301C181.136 27.1803 177.376 27.1019 175.809 29.2951C175.261 30.0001 175.026 30.8617 174.87 31.8016C174.713 33.2898 174.713 34.7781 175.339 36.188C176.123 37.9112 177.533 38.6945 179.334 38.4595C180.822 38.2245 181.841 37.2846 182.232 35.6397C182.311 35.1697 182.546 35.0131 183.016 35.0914C183.799 35.0914 184.504 35.0914 185.287 35.0914C185.679 35.0914 185.757 35.248 185.679 35.5614C184.896 39.3211 182.232 41.436 178.316 41.201C174.4 40.966 171.815 38.3812 171.501 34.3864C171.345 32.6632 171.501 30.94 172.206 29.2951C173.381 26.5536 176.044 24.9871 179.178 25.1437C181.057 25.222 182.781 25.692 184.191 27.0236C185.052 27.8852 185.522 28.9818 185.757 30.1567C185.835 30.5484 185.679 30.705 185.287 30.6267C184.974 30.5484 184.582 30.5484 184.112 30.5484ZM113.069 33.1332C113.069 35.4047 113.069 37.6762 113.069 39.9477C113.069 40.5744 112.912 40.731 112.364 40.6527C111.659 40.5744 111.032 40.5744 110.327 40.6527C109.857 40.6527 109.701 40.5744 109.701 40.0261C109.701 35.953 109.701 31.8799 109.701 27.8069C109.701 27.1802 109.701 26.5536 109.701 25.927C109.701 25.5354 109.779 25.457 110.171 25.457C110.954 25.457 111.737 25.457 112.52 25.457C112.99 25.457 113.147 25.5354 113.147 26.0837C113.069 28.4335 113.069 30.7833 113.069 33.1332ZM111.502 19.6607C111.972 19.7391 112.677 19.4258 112.99 19.7391C113.304 20.0524 113.069 20.7573 113.069 21.3056C113.069 21.7756 113.304 22.4022 112.99 22.7155C112.677 23.0289 112.05 22.7939 111.58 22.7939C110.954 22.7939 110.171 23.0289 109.779 22.7155C109.466 22.3239 109.701 21.5406 109.701 20.9923C109.701 19.6608 109.701 19.6607 111.032 19.6607H111.502Z" fill="#333333" fill-opacity="0.7"/>
</svg>
