<svg width="226" height="40" viewBox="0 0 226 40" fill="none" xmlns="http://www.w3.org/2000/svg">
<path d="M20 40C31.0457 40 40 31.0457 40 20C40 8.95431 31.0457 0 20 0C8.9543 0 0 8.95431 0 20C0 31.0457 8.9543 40 20 40Z" fill="#001845"/>
<path d="M31.5426 30.3489C21.8908 32.3389 12.4381 26.0703 10.4481 16.4185C9.45303 11.7419 10.4481 7.06527 12.8361 3.28418C5.57244 6.66726 1.29383 14.727 2.98537 22.9857C4.97542 32.6374 14.4282 38.9061 24.0799 36.916C29.055 35.921 33.0351 32.9359 35.6222 28.9558C34.3287 29.6523 33.0351 30.0504 31.5426 30.3489Z" fill="url(#paint0_linear_103_31005)"/>
<path d="M31.5423 13.8311L27.3632 19.9007L31.5423 19.2042L35.6219 19.9007L31.5423 13.8311Z" fill="#51FF00"/>
<path d="M10.7456 32.7363H20.3973L29.3526 7.26367H19.6013L10.7456 32.7363Z" fill="white"/>
<path d="M35.721 23.085H26.0692L22.6862 32.7367H32.3379L35.721 23.085Z" fill="white"/>
<path d="M17.3131 7.26367H7.6614L4.27832 16.9154H13.9301L17.3131 7.26367Z" fill="white"/>
<path d="M61.791 31.9407C55.0248 31.9407 49.3531 26.2691 49.3531 18.9059C49.3531 11.5427 55.0248 5.87109 61.791 5.87109C68.5571 5.87109 74.2288 11.5427 74.2288 18.9059C74.2288 26.2691 68.5571 31.9407 61.791 31.9407ZM61.791 27.2641C65.8706 27.2641 69.3531 23.7815 69.3531 18.9059C69.3531 14.0303 65.8706 10.5477 61.791 10.5477C57.7114 10.5477 54.2288 14.0303 54.2288 18.9059C54.2288 23.7815 57.7114 27.2641 61.791 27.2641Z" fill="white"/>
<path d="M94.428 12.9355L87.2639 31.7415H82.7862L75.6221 12.9355H80.4977L84.9753 25.8709L89.4529 12.9355C89.4529 12.9355 94.428 12.9355 94.428 12.9355Z" fill="white"/>
<path d="M113.631 26.0698C112.636 28.9553 109.552 31.9404 105.273 31.9404C100.199 31.9404 95.92 27.6618 95.92 22.3882C95.92 17.1145 100.199 12.8359 105.273 12.8359C110.149 12.8359 114.229 16.7165 114.229 22.3882C114.229 23.1842 114.03 24.1792 114.03 24.1792H100.995C101.393 25.9703 102.786 27.4628 105.273 27.4628C107.761 27.4628 108.756 26.0698 108.756 26.0698H113.631ZM100.696 20.8956H109.651C109.253 18.9056 107.661 17.214 105.174 17.214C102.786 17.214 101.194 18.9056 100.696 20.8956Z" fill="white"/>
<path d="M127.861 12.9353V17.811C127.861 17.811 127.264 17.612 126.269 17.612C123.98 17.612 122.388 19.204 122.388 21.6916V31.6418H117.712V12.9353H121.194L121.99 15.0249C121.99 15.0249 123.582 12.7363 126.468 12.7363C127.264 12.7363 127.861 12.9353 127.861 12.9353Z" fill="white"/>
<path d="M148.059 20.6965V31.7413H143.383V21.2935C143.383 18.806 141.791 17.2139 139.502 17.2139C137.214 17.2139 135.622 18.806 135.622 21.2935V31.7413H130.945V12.9353H134.428L135.224 14.7264C135.224 14.7264 137.512 12.7363 140.497 12.7363C144.975 12.7363 148.059 15.8209 148.059 20.6965Z" fill="white"/>
<path d="M174.428 14.8259L175.224 13.0348H178.706V30.5473C178.706 35.4229 175.423 38.7065 169.751 38.7065C162.786 38.7065 161.393 32.6368 161.393 32.6368H166.069C166.069 32.6368 166.865 34.4279 169.751 34.4279C172.437 34.4279 174.03 32.8358 174.03 30.5473V29.0547C174.03 29.0547 172.238 31.0448 169.154 31.0448C164.477 31.0448 160.597 27.1642 160.597 21.8906C160.597 16.6169 164.477 12.7363 169.154 12.7363C172.338 12.7363 174.428 14.8259 174.428 14.8259ZM169.651 26.6667C172.139 26.6667 174.129 24.6766 174.129 21.9901C174.129 19.3035 172.139 17.3134 169.651 17.3134C167.164 17.3134 165.174 19.3035 165.174 21.9901C165.174 24.5771 167.263 26.6667 169.651 26.6667Z" fill="white"/>
<path d="M200.298 20.6972V31.7419H195.622V21.2942C195.622 18.8066 194.03 17.2146 191.741 17.2146C189.453 17.2146 187.861 18.8066 187.861 21.2942V31.7419H183.184V6.07031H187.861V14.8265C187.861 14.8265 189.453 12.8365 193.134 12.8365C197.214 12.737 200.298 15.8216 200.298 20.6972Z" fill="white"/>
<path d="M206.567 8.45801H210.647V12.9356H214.726V17.2142H210.647V24.9754C210.647 26.5675 211.642 27.662 213.333 27.662C214.129 27.662 214.527 27.463 214.527 27.463V31.5426C214.527 31.5426 213.532 31.9406 212.239 31.9406C208.557 31.9406 205.871 29.254 205.871 25.1744V17.2142H202.985V13.3336H204.179C205.572 13.3336 206.468 12.5376 206.468 11.0451L206.567 8.45801Z" fill="white"/>
<path d="M221.691 13.035C219.402 13.035 217.611 11.2439 217.611 8.85586C217.611 6.56731 219.402 4.67676 221.691 4.67676C223.979 4.67676 225.77 6.4678 225.77 8.85586C225.77 11.2439 223.979 13.035 221.691 13.035ZM221.691 12.0399C223.382 12.0399 224.775 10.6469 224.775 8.85586C224.775 7.06482 223.382 5.67178 221.691 5.67178C219.999 5.67178 218.606 7.06482 218.606 8.85586C218.706 10.7464 219.999 12.0399 221.691 12.0399ZM222.487 9.35338L223.681 11.0449H222.586L221.591 9.65188H221.193V11.0449H220.198V6.76631H221.89C222.686 6.76631 223.382 7.36332 223.382 8.15934C223.382 9.05487 222.487 9.35338 222.487 9.35338ZM221.89 8.65686C222.188 8.65686 222.487 8.35835 222.487 8.15934C222.487 7.86084 222.188 7.66183 221.89 7.66183H221.193V8.65686H221.89Z" fill="white"/>
<path d="M157.014 12.9355H152.338V31.7415H157.014V12.9355Z" fill="white"/>
<path d="M154.825 10.547C156.309 10.547 157.512 9.34415 157.512 7.8604C157.512 6.37665 156.309 5.17383 154.825 5.17383C153.342 5.17383 152.139 6.37665 152.139 7.8604C152.139 9.34415 153.342 10.547 154.825 10.547Z" fill="white"/>
<defs>
<linearGradient id="paint0_linear_103_31005" x1="2.67452" y1="20.2845" x2="35.6056" y2="20.2845" gradientUnits="userSpaceOnUse">
<stop stop-color="#FE7F2D"/>
<stop offset="0.1349" stop-color="#FE8D32"/>
<stop offset="0.4968" stop-color="#FDAE3D"/>
<stop offset="0.7982" stop-color="#FCC344"/>
<stop offset="1" stop-color="#FCCA46"/>
</linearGradient>
</defs>
</svg>
