<svg width="230" height="40" viewBox="0 0 230 40" fill="none" xmlns="http://www.w3.org/2000/svg">
<path fill-rule="evenodd" clip-rule="evenodd" d="M33.8983 6.1017H8.81356V0H33.8983C37.2682 0 40 2.73182 40 6.1017H33.8983ZM33.8983 8.81356L33.8983 33.8983V40C37.2682 40 40 37.2682 40 33.8983V8.81356H33.8983ZM6.10169 33.8983L31.1864 33.8983V40H6.10169C2.73182 40 0 37.2682 0 33.8983H6.10169ZM6.1017 0V6.1017V31.1864H0V6.10169C0 2.73182 2.73182 0 6.1017 0Z" fill="url(#paint0_linear_1709_151608)"/>
<path fill-rule="evenodd" clip-rule="evenodd" d="M19.0051 12.2036C18.6185 12.2036 18.3051 12.517 18.3051 12.9036V17.6273H13.5813C13.1947 17.6273 12.8813 17.9407 12.8813 18.3273L12.8813 20.9951C12.8813 21.3817 13.1947 21.6951 13.5813 21.6951H18.3051V26.4189C18.3051 26.8055 18.6185 27.1189 19.0051 27.1189H21.6729C22.0595 27.1189 22.3729 26.8055 22.3729 26.4189V21.6951H27.0966C27.4832 21.6951 27.7966 21.3817 27.7966 20.9951V18.3273C27.7966 17.9407 27.4832 17.6273 27.0966 17.6273H22.3729V12.9036C22.3729 12.517 22.0595 12.2036 21.6729 12.2036H19.0051Z" fill="url(#paint1_linear_1709_151608)"/>
<path d="M59.7912 30.3617C57.9182 30.3617 56.2477 29.982 54.7797 29.2227C53.337 28.4381 52.198 27.3244 51.3627 25.8817C50.5275 24.439 50.1099 22.7305 50.1099 20.7563V20.1868C50.1099 18.2126 50.5275 16.5167 51.3627 15.0993C52.198 13.6566 53.337 12.5429 54.7797 11.7583C56.2477 10.9737 57.9182 10.5814 59.7912 10.5814C61.6642 10.5814 63.3347 10.9737 64.8027 11.7583C66.2708 12.5429 67.4224 13.6566 68.2577 15.0993C69.0929 16.5167 69.5105 18.2126 69.5105 20.1868V20.7563C69.5105 22.7305 69.0929 24.439 68.2577 25.8817C67.4224 27.3244 66.2708 28.4381 64.8027 29.2227C63.3347 29.982 61.6642 30.3617 59.7912 30.3617ZM59.7912 26.8688C61.5123 26.8688 62.9044 26.3246 63.9675 25.2363C65.0559 24.1226 65.6 22.5913 65.6 20.6424V20.3007C65.6 18.3518 65.0685 16.8331 64.0055 15.7448C62.9424 14.6311 61.5377 14.0742 59.7912 14.0742C58.0954 14.0742 56.7033 14.6311 55.6149 15.7448C54.5519 16.8331 54.0204 18.3518 54.0204 20.3007V20.6424C54.0204 22.5913 54.5519 24.1226 55.6149 25.2363C56.7033 26.3246 58.0954 26.8688 59.7912 26.8688Z" fill="white"/>
<path d="M78.7992 29.8302L72.4968 11.1129H76.6351L81.6087 26.9448H82.2161L87.1897 11.1129H91.328L85.0256 29.8302H78.7992Z" fill="white"/>
<path d="M103.795 30.3617C101.897 30.3617 100.239 29.9694 98.8213 29.1848C97.4039 28.3748 96.2902 27.2485 95.4802 25.8058C94.6956 24.3377 94.3033 22.6419 94.3033 20.7183V20.2627C94.3033 18.3138 94.6956 16.618 95.4802 15.1753C96.2649 13.7072 97.3532 12.5809 98.7453 11.7963C100.163 10.9863 101.795 10.5814 103.643 10.5814C105.44 10.5814 107.009 10.9863 108.351 11.7963C109.718 12.5809 110.781 13.6819 111.54 15.0993C112.299 16.5167 112.679 18.1746 112.679 20.0729V21.5536H98.2897C98.3404 23.1988 98.8845 24.5149 99.9223 25.502C100.985 26.4638 102.301 26.9448 103.871 26.9448C105.339 26.9448 106.44 26.6157 107.174 25.9576C107.933 25.2996 108.515 24.5402 108.92 23.6797L112.147 25.3502C111.793 26.0589 111.274 26.8055 110.591 27.5902C109.933 28.3748 109.059 29.0329 107.971 29.5644C106.883 30.0959 105.491 30.3617 103.795 30.3617ZM98.3277 18.5542H108.692C108.591 17.1368 108.085 16.0358 107.174 15.2512C106.263 14.4413 105.073 14.0363 103.605 14.0363C102.137 14.0363 100.935 14.4413 99.9982 15.2512C99.087 16.0358 98.5302 17.1368 98.3277 18.5542Z" fill="white"/>
<path d="M118.145 29.8302V11.1129H121.98V13.3149H122.587C122.891 12.5303 123.372 11.9608 124.03 11.6064C124.714 11.2268 125.549 11.037 126.536 11.037H128.776V14.5678H126.384C125.119 14.5678 124.081 14.9222 123.271 15.6309C122.461 16.3142 122.056 17.3773 122.056 18.82V29.8302H118.145Z" fill="white"/>
<path d="M133.587 29.8302V11.1129H137.422V13.9224H138.029C138.383 13.1631 139.016 12.4544 139.927 11.7963C140.838 11.1382 142.193 10.8092 143.99 10.8092C145.407 10.8092 146.66 11.1255 147.748 11.7583C148.862 12.3911 149.735 13.2896 150.368 14.4539C151.001 15.5929 151.317 16.9723 151.317 18.5922V29.8302H147.407V18.8959C147.407 17.2761 147.002 16.0864 146.192 15.3271C145.382 14.5425 144.268 14.1502 142.851 14.1502C141.231 14.1502 139.927 14.6817 138.94 15.7448C137.978 16.8078 137.497 18.3518 137.497 20.3766V29.8302H133.587Z" fill="white"/>
<path d="M157.704 29.8302V11.1129H161.615V29.8302H157.704ZM159.679 8.56916C158.919 8.56916 158.274 8.32871 157.742 7.8478C157.236 7.34159 156.983 6.69617 156.983 5.91153C156.983 5.1269 157.236 4.49413 157.742 4.01323C158.274 3.50701 158.919 3.25391 159.679 3.25391C160.463 3.25391 161.109 3.50701 161.615 4.01323C162.121 4.49413 162.374 5.1269 162.374 5.91153C162.374 6.69617 162.121 7.34159 161.615 7.8478C161.109 8.32871 160.463 8.56916 159.679 8.56916Z" fill="white"/>
<path d="M167.266 20.5664V19.997C167.266 18.0227 167.659 16.3396 168.443 14.9475C169.253 13.5554 170.316 12.4797 171.633 11.7203C172.949 10.961 174.391 10.5814 175.961 10.5814C177.783 10.5814 179.175 10.9231 180.137 11.6064C181.124 12.2898 181.845 13.0238 182.301 13.8085H182.908V11.1129H186.705V33.6648C186.705 34.8037 186.363 35.7149 185.68 36.3983C185.022 37.0817 184.111 37.4234 182.946 37.4234H173.054C171.556 37.4234 170.342 36.2093 170.342 34.7115V34.0064H181.732C182.466 34.0064 182.833 33.6268 182.833 32.8675V26.9068H182.225C181.947 27.3624 181.554 27.8306 181.048 28.3115C180.542 28.7924 179.871 29.1848 179.036 29.4885C178.226 29.7922 177.201 29.9441 175.961 29.9441C174.391 29.9441 172.936 29.5771 171.595 28.8431C170.278 28.0837 169.228 27.008 168.443 25.6159C167.659 24.1985 167.266 22.5154 167.266 20.5664ZM177.024 26.5271C178.72 26.5271 180.112 25.9956 181.2 24.9326C182.314 23.8442 182.87 22.3509 182.87 20.4526V20.1109C182.87 18.1619 182.326 16.6686 181.238 15.6309C180.15 14.5678 178.745 14.0363 177.024 14.0363C175.353 14.0363 173.961 14.5678 172.847 15.6309C171.759 16.6686 171.215 18.1619 171.215 20.1109V20.4526C171.215 22.3509 171.759 23.8442 172.847 24.9326C173.961 25.9956 175.353 26.5271 177.024 26.5271Z" fill="white"/>
<path d="M193.222 29.8302V3.25391H197.132V13.7705H197.74C197.993 13.2896 198.347 12.8214 198.803 12.3658C199.284 11.9102 199.904 11.5432 200.663 11.2648C201.448 10.961 202.435 10.8092 203.625 10.8092C205.042 10.8092 206.295 11.1255 207.383 11.7583C208.497 12.3911 209.37 13.2896 210.003 14.4539C210.636 15.5929 210.952 16.9723 210.952 18.5922V29.8302H207.042V18.8959C207.042 17.2761 206.637 16.0864 205.827 15.3271C205.017 14.5425 203.903 14.1502 202.486 14.1502C200.866 14.1502 199.562 14.6817 198.575 15.7448C197.613 16.8078 197.132 18.3518 197.132 20.3766V29.8302H193.222Z" fill="white"/>
<path d="M223.844 29.8302C222.705 29.8302 221.794 29.4885 221.11 28.8051C220.452 28.1217 220.123 27.2105 220.123 26.0715V14.4159H214.96V11.1129H220.123V4.92442H224.034V11.1129H229.615V14.4159H224.034V25.3881C224.034 26.1475 224.388 26.5271 225.097 26.5271H229.007V29.8302H223.844Z" fill="white"/>
<defs>
<linearGradient id="paint0_linear_1709_151608" x1="0" y1="0" x2="40.8582" y2="0.896751" gradientUnits="userSpaceOnUse">
<stop stop-color="#28A0F0"/>
<stop offset="1" stop-color="#0678C4" stop-opacity="0.9917"/>
</linearGradient>
<linearGradient id="paint1_linear_1709_151608" x1="12.8813" y1="12.2036" x2="28.1166" y2="12.538" gradientUnits="userSpaceOnUse">
<stop stop-color="#28A0F0"/>
<stop offset="1" stop-color="#0678C4" stop-opacity="0.9917"/>
</linearGradient>
</defs>
</svg>
