<svg width="177" height="35" viewBox="0 0 177 35" fill="none" xmlns="http://www.w3.org/2000/svg">
<path d="M12.7894 27.9403C6.0232 27.9403 0.351562 22.2686 0.351562 14.9054C0.351562 7.54225 6.0232 1.87061 12.7894 1.87061C19.5555 1.87061 25.2272 7.54225 25.2272 14.9054C25.2272 22.2686 19.5555 27.9403 12.7894 27.9403ZM12.7894 23.2636C16.869 23.2636 20.3516 19.7811 20.3516 14.9054C20.3516 10.0298 16.869 6.54722 12.7894 6.54722C8.70977 6.54722 5.22718 10.0298 5.22718 14.9054C5.22718 19.7811 8.70977 23.2636 12.7894 23.2636Z" fill="white"/>
<path d="M45.4271 8.93506L38.2629 27.741H33.7853L26.6211 8.93506H31.4967L35.9743 21.8704L40.4519 8.93506C40.4519 8.93506 45.4271 8.93506 45.4271 8.93506Z" fill="white"/>
<path d="M64.6314 22.0693C63.6363 24.9549 60.5518 27.9399 56.2732 27.9399C51.1985 27.9399 46.9199 23.6613 46.9199 18.3877C46.9199 13.1141 51.1985 8.83545 56.2732 8.83545C61.1488 8.83545 65.2284 12.716 65.2284 18.3877C65.2284 19.1837 65.0294 20.1787 65.0294 20.1787H51.9946C52.3926 21.9698 53.7856 23.4623 56.2732 23.4623C58.7607 23.4623 59.7558 22.0693 59.7558 22.0693H64.6314ZM51.696 16.8952H60.6513C60.2533 14.9051 58.6612 13.2136 56.1737 13.2136C53.7856 13.2136 52.1936 14.9051 51.696 16.8952Z" fill="white"/>
<path d="M78.8602 8.93533V13.811C78.8602 13.811 78.2632 13.612 77.2681 13.612C74.9796 13.612 73.3876 15.204 73.3876 17.6916V27.6418H68.7109V8.93533H72.1935L72.9895 11.0249C72.9895 11.0249 74.5816 8.73633 77.4672 8.73633C78.2632 8.73633 78.8602 8.93533 78.8602 8.93533Z" fill="white"/>
<path d="M99.0597 16.6965V27.7413H94.3831V17.2935C94.3831 14.806 92.7911 13.2139 90.5025 13.2139C88.214 13.2139 86.6219 14.806 86.6219 17.2935V27.7413H81.9453V8.93533H85.4279L86.2239 10.7264C86.2239 10.7264 88.5125 8.73633 91.4975 8.73633C95.9752 8.73633 99.0597 11.8209 99.0597 16.6965Z" fill="white"/>
<path d="M125.427 10.8259L126.223 9.03484H129.705V26.5473C129.705 31.4229 126.422 34.7065 120.75 34.7065C113.785 34.7065 112.392 28.6368 112.392 28.6368H117.068C117.068 28.6368 117.864 30.4279 120.75 30.4279C123.437 30.4279 125.029 28.8358 125.029 26.5473V25.0547C125.029 25.0547 123.238 27.0448 120.153 27.0448C115.476 27.0448 111.596 23.1642 111.596 17.8906C111.596 12.6169 115.476 8.73633 120.153 8.73633C123.337 8.73633 125.427 10.8259 125.427 10.8259ZM120.65 22.6667C123.138 22.6667 125.128 20.6766 125.128 17.9901C125.128 15.3035 123.138 13.3134 120.65 13.3134C118.163 13.3134 116.173 15.3035 116.173 17.9901C116.173 20.5771 118.262 22.6667 120.65 22.6667Z" fill="white"/>
<path d="M151.298 16.6962V27.741H146.621V17.2932C146.621 14.8056 145.029 13.2136 142.741 13.2136C140.452 13.2136 138.86 14.8056 138.86 17.2932V27.741H134.184V2.06934H138.86V10.8256C138.86 10.8256 140.452 8.8355 144.134 8.8355C148.213 8.736 151.298 11.8206 151.298 16.6962Z" fill="white"/>
<path d="M157.566 4.45703H161.646V8.93464H165.726V13.2132H161.646V20.9744C161.646 22.5665 162.641 23.661 164.333 23.661C165.129 23.661 165.527 23.462 165.527 23.462V27.5416C165.527 27.5416 164.532 27.9396 163.238 27.9396C159.557 27.9396 156.87 25.253 156.87 21.1734V13.2132H153.984V9.33265H155.178C156.571 9.33265 157.467 8.53664 157.467 7.0441L157.566 4.45703Z" fill="white"/>
<path d="M172.689 9.03448C170.4 9.03448 168.609 7.24343 168.609 4.85537C168.609 2.56682 170.4 0.67627 172.689 0.67627C174.978 0.67627 176.769 2.46731 176.769 4.85537C176.769 7.24343 174.978 9.03448 172.689 9.03448ZM172.689 8.03945C174.38 8.03945 175.774 6.64642 175.774 4.85537C175.774 3.06433 174.38 1.67129 172.689 1.67129C170.997 1.67129 169.604 3.06433 169.604 4.85537C169.704 6.74592 170.997 8.03945 172.689 8.03945ZM173.485 5.35289L174.679 7.04443H173.584L172.589 5.65139H172.191V7.04443H171.196V2.76582H172.888C173.684 2.76582 174.381 3.36284 174.381 4.15886C174.381 5.05438 173.485 5.35289 173.485 5.35289ZM172.888 4.65637C173.186 4.65637 173.485 4.35786 173.485 4.15886C173.485 3.86035 173.186 3.66134 172.888 3.66134H172.191V4.65637H172.888Z" fill="white"/>
<path d="M108.013 8.93506H103.336V27.741H108.013V8.93506Z" fill="white"/>
<path d="M105.823 6.54696C107.307 6.54696 108.51 5.34415 108.51 3.8604C108.51 2.37665 107.307 1.17383 105.823 1.17383C104.34 1.17383 103.137 2.37665 103.137 3.8604C103.137 5.34415 104.34 6.54696 105.823 6.54696Z" fill="white"/>
</svg>
