<svg width="266" height="52" viewBox="0 0 266 52" fill="none" xmlns="http://www.w3.org/2000/svg">
<path d="M15.1921 40.7838C12.4294 40.7838 9.96544 40.2238 7.80011 39.1038C5.67211 37.9465 3.99211 36.3038 2.76011 34.1758C1.52811 32.0478 0.912109 29.5278 0.912109 26.6158V25.7758C0.912109 22.8638 1.52811 20.3625 2.76011 18.2718C3.99211 16.1438 5.67211 14.5011 7.80011 13.3438C9.96544 12.1865 12.4294 11.6078 15.1921 11.6078C17.9548 11.6078 20.4188 12.1865 22.5841 13.3438C24.7494 14.5011 26.4481 16.1438 27.6801 18.2718C28.9121 20.3625 29.5281 22.8638 29.5281 25.7758V26.6158C29.5281 29.5278 28.9121 32.0478 27.6801 34.1758C26.4481 36.3038 24.7494 37.9465 22.5841 39.1038C20.4188 40.2238 17.9548 40.7838 15.1921 40.7838ZM15.1921 35.6318C17.7308 35.6318 19.7841 34.8291 21.3521 33.2238C22.9574 31.5811 23.7601 29.3225 23.7601 26.4478V25.9438C23.7601 23.0691 22.9761 20.8291 21.4081 19.2238C19.8401 17.5811 17.7681 16.7598 15.1921 16.7598C12.6908 16.7598 10.6374 17.5811 9.03211 19.2238C7.46411 20.8291 6.68011 23.0691 6.68011 25.9438V26.4478C6.68011 29.3225 7.46411 31.5811 9.03211 33.2238C10.6374 34.8291 12.6908 35.6318 15.1921 35.6318Z" fill="white"/>
<path d="M43.2289 39.9998L33.9329 12.3918H40.0369L47.3729 35.7438H48.2689L55.6049 12.3918H61.7089L52.4129 39.9998H43.2289Z" fill="white"/>
<path d="M80.0974 40.7838C77.2974 40.7838 74.8521 40.2051 72.7614 39.0478C70.6707 37.8531 69.0281 36.1918 67.8334 34.0638C66.6761 31.8985 66.0974 29.3971 66.0974 26.5598V25.8878C66.0974 23.0131 66.6761 20.5118 67.8334 18.3838C68.9908 16.2185 70.5961 14.5571 72.6494 13.3998C74.7401 12.2051 77.1481 11.6078 79.8734 11.6078C82.5241 11.6078 84.8388 12.2051 86.8174 13.3998C88.8334 14.5571 90.4014 16.1811 91.5214 18.2718C92.6414 20.3625 93.2014 22.8078 93.2014 25.6078V27.7918H71.9774C72.0521 30.2185 72.8547 32.1598 74.3854 33.6158C75.9534 35.0345 77.8948 35.7438 80.2094 35.7438C82.3748 35.7438 83.9988 35.2585 85.0814 34.2878C86.2014 33.3171 87.0601 32.1971 87.6574 30.9278L92.4174 33.3918C91.8948 34.4371 91.1294 35.5385 90.1214 36.6958C89.1508 37.8531 87.8627 38.8238 86.2574 39.6078C84.6521 40.3918 82.5988 40.7838 80.0974 40.7838ZM72.0334 23.3678H87.3214C87.1721 21.2771 86.4254 19.6531 85.0814 18.4958C83.7374 17.3011 81.9828 16.7038 79.8174 16.7038C77.6521 16.7038 75.8788 17.3011 74.4974 18.4958C73.1534 19.6531 72.3321 21.2771 72.0334 23.3678Z" fill="white"/>
<path d="M101.265 39.9998V12.3918H106.921V15.6398H107.817C108.265 14.4825 108.974 13.6425 109.945 13.1198C110.953 12.5598 112.185 12.2798 113.641 12.2798H116.945V17.4878H113.417C111.55 17.4878 110.019 18.0105 108.825 19.0558C107.63 20.0638 107.033 21.6318 107.033 23.7598V39.9998H101.265Z" fill="white"/>
<path d="M124.041 39.9998V12.3918H129.697V16.5358H130.593C131.115 15.4158 132.049 14.3705 133.393 13.3998C134.737 12.4291 136.734 11.9438 139.385 11.9438C141.475 11.9438 143.323 12.4105 144.929 13.3438C146.571 14.2771 147.859 15.6025 148.793 17.3198C149.726 18.9998 150.193 21.0345 150.193 23.4238V39.9998H144.425V23.8718C144.425 21.4825 143.827 19.7278 142.633 18.6078C141.438 17.4505 139.795 16.8718 137.705 16.8718C135.315 16.8718 133.393 17.6558 131.937 19.2238C130.518 20.7918 129.809 23.0691 129.809 26.0558V39.9998H124.041Z" fill="white"/>
<path d="M159.614 39.9998V12.3918H165.382V39.9998H159.614ZM162.526 8.63981C161.406 8.63981 160.454 8.28514 159.67 7.5758C158.923 6.82914 158.55 5.87714 158.55 4.7198C158.55 3.56247 158.923 2.62914 159.67 1.91981C160.454 1.17314 161.406 0.799805 162.526 0.799805C163.683 0.799805 164.635 1.17314 165.382 1.91981C166.129 2.62914 166.502 3.56247 166.502 4.7198C166.502 5.87714 166.129 6.82914 165.382 7.5758C164.635 8.28514 163.683 8.63981 162.526 8.63981Z" fill="white"/>
<path d="M173.718 26.3358V25.4958C173.718 22.5838 174.297 20.1011 175.454 18.0478C176.649 15.9945 178.217 14.4078 180.158 13.2878C182.099 12.1678 184.227 11.6078 186.542 11.6078C189.23 11.6078 191.283 12.1118 192.702 13.1198C194.158 14.1278 195.222 15.2105 195.894 16.3678H196.79V12.3918H202.39V45.6558C202.39 47.3358 201.886 48.6798 200.878 49.6878C199.907 50.6958 198.563 51.1998 196.846 51.1998H182.254C180.045 51.1998 178.254 49.4089 178.254 47.1998V46.1598H195.054C196.137 46.1598 196.678 45.5998 196.678 44.4798V35.6878H195.782C195.371 36.3598 194.793 37.0505 194.046 37.7598C193.299 38.4691 192.31 39.0478 191.078 39.4958C189.883 39.9438 188.371 40.1678 186.542 40.1678C184.227 40.1678 182.081 39.6265 180.102 38.5438C178.161 37.4238 176.611 35.8371 175.454 33.7838C174.297 31.6931 173.718 29.2105 173.718 26.3358ZM188.11 35.1278C190.611 35.1278 192.665 34.3438 194.27 32.7758C195.913 31.1705 196.734 28.9678 196.734 26.1678V25.6638C196.734 22.7891 195.931 20.5865 194.326 19.0558C192.721 17.4878 190.649 16.7038 188.11 16.7038C185.646 16.7038 183.593 17.4878 181.95 19.0558C180.345 20.5865 179.542 22.7891 179.542 25.6638V26.1678C179.542 28.9678 180.345 31.1705 181.95 32.7758C183.593 34.3438 185.646 35.1278 188.11 35.1278Z" fill="white"/>
<path d="M212.002 39.9998V0.799805H217.77V16.3118H218.666C219.04 15.6025 219.562 14.9118 220.234 14.2398C220.944 13.5678 221.858 13.0265 222.978 12.6158C224.136 12.1678 225.592 11.9438 227.346 11.9438C229.437 11.9438 231.285 12.4105 232.89 13.3438C234.533 14.2771 235.821 15.6025 236.754 17.3198C237.688 18.9998 238.154 21.0345 238.154 23.4238V39.9998H232.386V23.8718C232.386 21.4825 231.789 19.7278 230.594 18.6078C229.4 17.4505 227.757 16.8718 225.666 16.8718C223.277 16.8718 221.354 17.6558 219.898 19.2238C218.48 20.7918 217.77 23.0691 217.77 26.0558V39.9998H212.002Z" fill="white"/>
<path d="M257.17 39.9998C255.49 39.9998 254.146 39.4958 253.138 38.4878C252.167 37.4798 251.682 36.1358 251.682 34.4558V17.2638H244.066V12.3918H251.682V3.26381H257.45V12.3918H265.682V17.2638H257.45V33.4478C257.45 34.5678 257.973 35.1278 259.018 35.1278H264.786V39.9998H257.17Z" fill="white"/>
</svg>
