<svg width="40" height="40" viewBox="0 0 40 40" fill="none" xmlns="http://www.w3.org/2000/svg">
<path d="M20 40C31.0457 40 40 31.0457 40 20C40 8.95431 31.0457 0 20 0C8.9543 0 0 8.95431 0 20C0 31.0457 8.9543 40 20 40Z" fill="#001845"/>
<path d="M31.5428 30.3484C21.8911 32.3384 12.4383 26.0698 10.4483 16.418C9.45327 11.7414 10.4483 7.06479 12.8364 3.28369C5.57268 6.66678 1.29407 14.7265 2.98561 22.9852C4.97566 32.6369 14.4284 38.9056 24.0801 36.9155C29.0553 35.9205 33.0354 32.9354 35.6224 28.9553C34.3289 29.6519 33.0354 30.0499 31.5428 30.3484Z" fill="url(#paint0_linear_1326_147952)"/>
<path d="M31.5443 13.8306L27.3652 19.9002L31.5443 19.2037L35.6239 19.9002L31.5443 13.8306Z" fill="#51FF00"/>
<path d="M10.748 32.7368H20.3998L29.355 7.26416H19.6038L10.748 32.7368Z" fill="white"/>
<path d="M35.7204 23.0854H26.0686L22.6855 32.7372H32.3373L35.7204 23.0854Z" fill="white"/>
<path d="M17.3141 7.26416H7.66238L4.2793 16.9159H13.931L17.3141 7.26416Z" fill="white"/>
<defs>
<linearGradient id="paint0_linear_1326_147952" x1="2.67477" y1="20.284" x2="35.6058" y2="20.284" gradientUnits="userSpaceOnUse">
<stop stop-color="#FE7F2D"/>
<stop offset="0.1349" stop-color="#FE8D32"/>
<stop offset="0.4968" stop-color="#FDAE3D"/>
<stop offset="0.7982" stop-color="#FCC344"/>
<stop offset="1" stop-color="#FCCA46"/>
</linearGradient>
</defs>
</svg>
