<svg width="347" height="290" viewBox="0 0 347 290" fill="none" xmlns="http://www.w3.org/2000/svg">
<g clip-path="url(#clip0_7255_117640)">
<path fill-rule="evenodd" clip-rule="evenodd" d="M238.47 110.53H110.102V79.3051H238.47C255.715 79.3051 269.695 93.2848 269.695 110.53H238.47ZM238.47 124.408V252.775V284C255.715 284 269.695 270.02 269.695 252.775V120.938H269.694V124.408H238.47ZM96.2247 79.3051V110.53V238.898H65V110.53C65 93.2848 78.9798 79.3051 96.2247 79.3051ZM228.062 252.775H96.2246H65C65 270.02 78.9797 284 96.2246 284H224.592V252.776H228.062V252.775Z" fill="url(#paint0_linear_7255_117640)"/>
<path fill-rule="evenodd" clip-rule="evenodd" d="M159.375 141.755C158.988 141.755 158.675 142.068 158.675 142.455V169.51L131.62 169.51C131.233 169.51 130.92 169.823 130.92 170.21L130.92 189.626C130.92 190.013 131.233 190.326 131.62 190.326H158.675V217.382C158.675 217.768 158.988 218.082 159.375 218.082H178.791C179.178 218.082 179.491 217.768 179.491 217.382V190.326H206.547C206.933 190.326 207.247 190.013 207.247 189.626V170.21C207.247 169.823 206.933 169.51 206.547 169.51L179.491 169.51V142.455C179.491 142.068 179.178 141.755 178.791 141.755H159.375Z" fill="url(#paint1_linear_7255_117640)"/>
<path fill-rule="evenodd" clip-rule="evenodd" d="M121.876 86.0827C156.606 3.15361 266.642 -13.6367 313.962 58.1384C323.694 72.9038 334.754 104.672 334.754 104.672L326.73 111.768C326.73 111.768 308.773 95.0579 296.4 85.2427C288.687 79.0888 280.417 74.4159 275.49 71.6381C272.503 70.0027 270.586 69.1462 270.586 69.1462C272.504 80.7843 277.325 129.572 264.429 125.98L121.876 86.0827Z" fill="#B5292A"/>
<path opacity="0.2" fill-rule="evenodd" clip-rule="evenodd" d="M270.109 63.0175C261.842 58.3897 247.946 52.7633 241.754 51.0097C235.729 49.2431 266.19 70.9944 248.743 121.099L264.441 126.105C277.209 130.221 272.142 76.1228 270.109 63.0175Z" fill="#181714"/>
<path opacity="0.2" fill-rule="evenodd" clip-rule="evenodd" d="M271.175 72.3627C271.051 75.0891 270.186 85.5442 267.648 91.8151C264.684 99.0783 255.13 103.82 255.13 103.82C255.13 103.82 264.327 111.731 272.061 113.844C273.65 101.894 272.427 84.0906 271.175 72.3627Z" fill="#181714"/>
<path fill-rule="evenodd" clip-rule="evenodd" d="M276.919 104.994C287.756 114.535 275.421 148.259 259.341 146.959C219.737 143.82 148.844 129.862 115.35 112.343C97.9799 103.152 105.138 67.7547 121.837 59.7383C137.878 51.9329 258.285 88.2316 276.919 104.994Z" fill="white"/>
<path opacity="0.2" fill-rule="evenodd" clip-rule="evenodd" d="M105.837 98.2238C143.331 115.271 221.296 133.63 254.676 132.461C265.413 132.102 273.652 119.153 276.907 104.835L277.086 104.981C287.924 114.522 275.589 148.246 259.508 146.946C219.737 143.82 148.844 129.862 115.35 112.343C110.086 109.558 106.99 104.366 105.837 98.2238Z" fill="#181714"/>
<path fill-rule="evenodd" clip-rule="evenodd" d="M326.184 124.158C338.388 123.205 347.495 112.745 346.564 100.832C345.633 88.9191 335.013 80.0005 322.809 80.9539C310.605 81.9073 301.498 92.367 302.429 104.28C303.527 116.18 314.147 125.098 326.184 124.158Z" fill="white"/>
<path opacity="0.2" fill-rule="evenodd" clip-rule="evenodd" d="M341.034 88.1598C344.161 91.5911 346.013 95.921 346.398 100.845C347.329 112.758 338.222 123.218 326.018 124.171C315.319 125.007 305.875 118.234 303.087 108.384C307.509 113.312 314.122 116.151 321.311 115.59C333.515 114.636 342.622 104.176 341.691 92.2635C341.759 90.9797 341.48 89.5633 341.034 88.1598Z" fill="#181714"/>
<path opacity="0.2" fill-rule="evenodd" clip-rule="evenodd" d="M279.455 126.69C276.409 130.763 270.156 136.845 260.07 139.071C246.523 142.207 169.135 129.076 150.899 126.026C186.226 136.85 230.907 144.705 259.508 146.946C268.313 147.696 276.095 137.5 279.455 126.69Z" fill="#181714"/>
</g>
<defs>
<linearGradient id="paint0_linear_7255_117640" x1="65" y1="79.3051" x2="274.087" y2="83.8941" gradientUnits="userSpaceOnUse">
<stop stop-color="#3EB1FE"/>
<stop offset="1" stop-color="#0678C4" stop-opacity="0.9917"/>
</linearGradient>
<linearGradient id="paint1_linear_7255_117640" x1="130.92" y1="141.755" x2="208.885" y2="143.466" gradientUnits="userSpaceOnUse">
<stop stop-color="#3EB1FE"/>
<stop offset="1" stop-color="#0678C4" stop-opacity="0.9917"/>
</linearGradient>
<clipPath id="clip0_7255_117640">
<rect width="347" height="290" fill="white"/>
</clipPath>
</defs>
</svg>
