<svg width="341" height="990" viewBox="0 0 341 990" fill="none" xmlns="http://www.w3.org/2000/svg">
<path d="M187 17L187 970" stroke="#1C95E7" stroke-opacity="0.5" stroke-width="3"/>
<circle r="19.5" transform="matrix(-4.37114e-08 1 1 4.37114e-08 187 20)" fill="url(#paint0_linear_945_147742)" stroke="url(#paint1_linear_945_147742)"/>
<circle r="8" transform="matrix(-4.37114e-08 1 1 4.37114e-08 187 20)" fill="url(#paint2_linear_945_147742)"/>
<path d="M238.516 16.5391H235.477V15.3125H238.516C239.104 15.3125 239.581 15.2188 239.945 15.0312C240.31 14.8438 240.576 14.5833 240.742 14.25C240.914 13.9167 241 13.5365 241 13.1094C241 12.7188 240.914 12.3516 240.742 12.0078C240.576 11.6641 240.31 11.388 239.945 11.1797C239.581 10.9661 239.104 10.8594 238.516 10.8594H235.828V21H234.32V9.625H238.516C239.375 9.625 240.102 9.77344 240.695 10.0703C241.289 10.3672 241.74 10.7786 242.047 11.3047C242.354 11.8255 242.508 12.4219 242.508 13.0938C242.508 13.8229 242.354 14.4453 242.047 14.9609C241.74 15.4766 241.289 15.8698 240.695 16.1406C240.102 16.4062 239.375 16.5391 238.516 16.5391ZM253.492 14.9531V15.6719C253.492 16.526 253.385 17.2917 253.172 17.9688C252.958 18.6458 252.651 19.2214 252.25 19.6953C251.849 20.1693 251.367 20.5312 250.804 20.7812C250.247 21.0312 249.622 21.1562 248.929 21.1562C248.257 21.1562 247.64 21.0312 247.078 20.7812C246.521 20.5312 246.036 20.1693 245.625 19.6953C245.218 19.2214 244.903 18.6458 244.679 17.9688C244.455 17.2917 244.343 16.526 244.343 15.6719V14.9531C244.343 14.099 244.453 13.3359 244.672 12.6641C244.896 11.987 245.211 11.4115 245.617 10.9375C246.023 10.4583 246.505 10.0938 247.062 9.84375C247.625 9.59375 248.242 9.46875 248.914 9.46875C249.606 9.46875 250.231 9.59375 250.789 9.84375C251.351 10.0938 251.833 10.4583 252.234 10.9375C252.64 11.4115 252.95 11.987 253.164 12.6641C253.382 13.3359 253.492 14.099 253.492 14.9531ZM252 15.6719V14.9375C252 14.2604 251.929 13.6615 251.789 13.1406C251.653 12.6198 251.453 12.1823 251.187 11.8281C250.922 11.474 250.596 11.2057 250.211 11.0234C249.83 10.8411 249.398 10.75 248.914 10.75C248.445 10.75 248.021 10.8411 247.64 11.0234C247.265 11.2057 246.942 11.474 246.672 11.8281C246.406 12.1823 246.2 12.6198 246.054 13.1406C245.909 13.6615 245.836 14.2604 245.836 14.9375V15.6719C245.836 16.3542 245.909 16.9583 246.054 17.4844C246.2 18.0052 246.409 18.4453 246.679 18.8047C246.955 19.1589 247.281 19.4271 247.656 19.6094C248.036 19.7917 248.461 19.8828 248.929 19.8828C249.419 19.8828 249.854 19.7917 250.234 19.6094C250.614 19.4271 250.935 19.1589 251.195 18.8047C251.461 18.4453 251.661 18.0052 251.797 17.4844C251.932 16.9583 252 16.3542 252 15.6719ZM264.827 14.9531V15.6719C264.827 16.526 264.721 17.2917 264.507 17.9688C264.294 18.6458 263.986 19.2214 263.585 19.6953C263.184 20.1693 262.702 20.5312 262.14 20.7812C261.583 21.0312 260.958 21.1562 260.265 21.1562C259.593 21.1562 258.976 21.0312 258.413 20.7812C257.856 20.5312 257.372 20.1693 256.96 19.6953C256.554 19.2214 256.239 18.6458 256.015 17.9688C255.791 17.2917 255.679 16.526 255.679 15.6719V14.9531C255.679 14.099 255.788 13.3359 256.007 12.6641C256.231 11.987 256.546 11.4115 256.952 10.9375C257.359 10.4583 257.841 10.0938 258.398 9.84375C258.96 9.59375 259.577 9.46875 260.249 9.46875C260.942 9.46875 261.567 9.59375 262.124 9.84375C262.687 10.0938 263.169 10.4583 263.57 10.9375C263.976 11.4115 264.286 11.987 264.499 12.6641C264.718 13.3359 264.827 14.099 264.827 14.9531ZM263.335 15.6719V14.9375C263.335 14.2604 263.265 13.6615 263.124 13.1406C262.989 12.6198 262.788 12.1823 262.523 11.8281C262.257 11.474 261.932 11.2057 261.546 11.0234C261.166 10.8411 260.734 10.75 260.249 10.75C259.781 10.75 259.356 10.8411 258.976 11.0234C258.601 11.2057 258.278 11.474 258.007 11.8281C257.742 12.1823 257.536 12.6198 257.39 13.1406C257.244 13.6615 257.171 14.2604 257.171 14.9375V15.6719C257.171 16.3542 257.244 16.9583 257.39 17.4844C257.536 18.0052 257.744 18.4453 258.015 18.8047C258.291 19.1589 258.617 19.4271 258.992 19.6094C259.372 19.7917 259.796 19.8828 260.265 19.8828C260.755 19.8828 261.189 19.7917 261.57 19.6094C261.95 19.4271 262.27 19.1589 262.531 18.8047C262.796 18.4453 262.997 18.0052 263.132 17.4844C263.268 16.9583 263.335 16.3542 263.335 15.6719ZM274.304 19.7734V21H268.616V19.7734H274.304ZM268.913 9.625V21H267.405V9.625H268.913ZM282.413 18.125C282.413 17.8594 282.371 17.625 282.288 17.4219C282.21 17.2135 282.069 17.026 281.866 16.8594C281.668 16.6927 281.392 16.5339 281.038 16.3828C280.689 16.2318 280.246 16.0781 279.71 15.9219C279.147 15.7552 278.639 15.5703 278.186 15.3672C277.733 15.1589 277.345 14.9219 277.022 14.6562C276.699 14.3906 276.452 14.0859 276.28 13.7422C276.108 13.3984 276.022 13.0052 276.022 12.5625C276.022 12.1198 276.113 11.7109 276.296 11.3359C276.478 10.9609 276.738 10.6354 277.077 10.3594C277.421 10.0781 277.829 9.85938 278.303 9.70312C278.777 9.54688 279.306 9.46875 279.889 9.46875C280.744 9.46875 281.467 9.63281 282.061 9.96094C282.66 10.2839 283.116 10.7083 283.428 11.2344C283.741 11.7552 283.897 12.3125 283.897 12.9062H282.397C282.397 12.4792 282.306 12.1016 282.124 11.7734C281.941 11.4401 281.665 11.1797 281.296 10.9922C280.926 10.7995 280.457 10.7031 279.889 10.7031C279.353 10.7031 278.91 10.7839 278.561 10.9453C278.212 11.1068 277.952 11.3255 277.78 11.6016C277.613 11.8776 277.53 12.1927 277.53 12.5469C277.53 12.7865 277.579 13.0052 277.678 13.2031C277.783 13.3958 277.941 13.5755 278.155 13.7422C278.374 13.9089 278.65 14.0625 278.983 14.2031C279.322 14.3438 279.725 14.4792 280.194 14.6094C280.84 14.7917 281.397 14.9948 281.866 15.2188C282.335 15.4427 282.72 15.6953 283.022 15.9766C283.329 16.2526 283.556 16.5677 283.702 16.9219C283.853 17.2708 283.928 17.6667 283.928 18.1094C283.928 18.5729 283.835 18.9922 283.647 19.3672C283.46 19.7422 283.191 20.0625 282.842 20.3281C282.494 20.5938 282.074 20.7995 281.585 20.9453C281.1 21.0859 280.559 21.1562 279.96 21.1562C279.434 21.1562 278.915 21.0833 278.405 20.9375C277.9 20.7917 277.439 20.5729 277.022 20.2812C276.611 19.9896 276.28 19.6302 276.03 19.2031C275.785 18.7708 275.663 18.2708 275.663 17.7031H277.163C277.163 18.0938 277.238 18.4297 277.389 18.7109C277.54 18.987 277.746 19.2161 278.007 19.3984C278.272 19.5807 278.572 19.7161 278.905 19.8047C279.244 19.888 279.595 19.9297 279.96 19.9297C280.486 19.9297 280.931 19.8568 281.296 19.7109C281.66 19.5651 281.936 19.3568 282.124 19.0859C282.316 18.8151 282.413 18.4948 282.413 18.125ZM238.531 30.6328L234.766 41H233.227L237.562 29.625H238.555L238.531 30.6328ZM241.688 41L237.914 30.6328L237.891 29.625H238.883L243.234 41H241.688ZM241.492 36.7891V38.0234H235.102V36.7891H241.492ZM248.265 29.625V41H246.781V29.625H248.265ZM251.922 29.625V30.8594H243.132V29.625H251.922ZM260.983 41H258.608L258.624 39.7734H260.983C261.796 39.7734 262.473 39.6042 263.015 39.2656C263.556 38.9219 263.963 38.4427 264.233 37.8281C264.509 37.2083 264.647 36.4844 264.647 35.6562V34.9609C264.647 34.3099 264.569 33.7318 264.413 33.2266C264.257 32.7161 264.028 32.2865 263.726 31.9375C263.424 31.5833 263.054 31.3151 262.616 31.1328C262.184 30.9505 261.687 30.8594 261.124 30.8594H258.562V29.625H261.124C261.869 29.625 262.549 29.75 263.163 30C263.778 30.2448 264.306 30.6016 264.749 31.0703C265.197 31.5339 265.541 32.0964 265.78 32.7578C266.02 33.4141 266.14 34.1536 266.14 34.9766V35.6562C266.14 36.4792 266.02 37.2214 265.78 37.8828C265.541 38.5391 265.194 39.099 264.741 39.5625C264.293 40.026 263.752 40.3828 263.116 40.6328C262.486 40.8776 261.775 41 260.983 41ZM259.413 29.625V41H257.905V29.625H259.413ZM275.952 39.7734V41H269.928V39.7734H275.952ZM270.233 29.625V41H268.725V29.625H270.233ZM275.155 34.5156V35.7422H269.928V34.5156H275.155ZM275.874 29.625V30.8594H269.928V29.625H275.874ZM279.116 29.625L281.85 33.9844L284.584 29.625H286.342L282.748 35.2578L286.428 41H284.655L281.85 36.5547L279.045 41H277.272L280.952 35.2578L277.358 29.625H279.116ZM295.717 39.7734V41H289.693V39.7734H295.717ZM289.998 29.625V41H288.49V29.625H289.998ZM294.92 34.5156V35.7422H289.693V34.5156H294.92ZM295.639 29.625V30.8594H289.693V29.625H295.639ZM303.967 38.125C303.967 37.8594 303.925 37.625 303.842 37.4219C303.763 37.2135 303.623 37.026 303.42 36.8594C303.222 36.6927 302.946 36.5339 302.592 36.3828C302.243 36.2318 301.8 36.0781 301.263 35.9219C300.701 35.7552 300.193 35.5703 299.74 35.3672C299.287 35.1589 298.899 34.9219 298.576 34.6562C298.253 34.3906 298.006 34.0859 297.834 33.7422C297.662 33.3984 297.576 33.0052 297.576 32.5625C297.576 32.1198 297.667 31.7109 297.849 31.3359C298.032 30.9609 298.292 30.6354 298.631 30.3594C298.974 30.0781 299.383 29.8594 299.857 29.7031C300.331 29.5469 300.86 29.4688 301.443 29.4688C302.297 29.4688 303.021 29.6328 303.615 29.9609C304.214 30.2839 304.67 30.7083 304.982 31.2344C305.295 31.7552 305.451 32.3125 305.451 32.9062H303.951C303.951 32.4792 303.86 32.1016 303.678 31.7734C303.495 31.4401 303.219 31.1797 302.849 30.9922C302.48 30.7995 302.011 30.7031 301.443 30.7031C300.907 30.7031 300.464 30.7839 300.115 30.9453C299.766 31.1068 299.506 31.3255 299.334 31.6016C299.167 31.8776 299.084 32.1927 299.084 32.5469C299.084 32.7865 299.133 33.0052 299.232 33.2031C299.336 33.3958 299.495 33.5755 299.709 33.7422C299.928 33.9089 300.204 34.0625 300.537 34.2031C300.875 34.3438 301.279 34.4792 301.748 34.6094C302.394 34.7917 302.951 34.9948 303.42 35.2188C303.888 35.4427 304.274 35.6953 304.576 35.9766C304.883 36.2526 305.11 36.5677 305.256 36.9219C305.407 37.2708 305.482 37.6667 305.482 38.1094C305.482 38.5729 305.388 38.9922 305.201 39.3672C305.013 39.7422 304.745 40.0625 304.396 40.3281C304.047 40.5938 303.628 40.7995 303.138 40.9453C302.654 41.0859 302.112 41.1562 301.513 41.1562C300.987 41.1562 300.469 41.0833 299.959 40.9375C299.454 40.7917 298.993 40.5729 298.576 40.2812C298.164 39.9896 297.834 39.6302 297.584 39.2031C297.339 38.7708 297.217 38.2708 297.217 37.7031H298.717C298.717 38.0938 298.792 38.4297 298.943 38.7109C299.094 38.987 299.3 39.2161 299.56 39.3984C299.826 39.5807 300.125 39.7161 300.459 39.8047C300.797 39.888 301.149 39.9297 301.513 39.9297C302.039 39.9297 302.485 39.8568 302.849 39.7109C303.214 39.5651 303.49 39.3568 303.678 39.0859C303.87 38.8151 303.967 38.4948 303.967 38.125Z" fill="white"/>
<path d="M43.2372 139.804H47.0028C47.857 139.804 48.5783 139.934 49.1669 140.195C49.7606 140.455 50.2111 140.84 50.5184 141.351C50.8309 141.856 50.9872 142.478 50.9872 143.218C50.9872 143.739 50.8804 144.215 50.6669 144.648C50.4585 145.075 50.1565 145.439 49.7606 145.741C49.37 146.038 48.9013 146.26 48.3544 146.406L47.9325 146.57H44.3934L44.3778 145.343H47.0497C47.5914 145.343 48.0419 145.249 48.4013 145.062C48.7606 144.869 49.0315 144.611 49.2138 144.288C49.396 143.965 49.4872 143.609 49.4872 143.218C49.4872 142.781 49.4013 142.398 49.2294 142.07C49.0575 141.741 48.7867 141.489 48.4169 141.312C48.0523 141.129 47.5809 141.038 47.0028 141.038H44.745V151.179H43.2372V139.804ZM49.8856 151.179L47.12 146.023L48.6903 146.015L51.495 151.085V151.179H49.8856ZM60.6431 149.952V151.179H54.6197V149.952H60.6431ZM54.9244 139.804V151.179H53.4166V139.804H54.9244ZM59.8463 144.695V145.921H54.6197V144.695H59.8463ZM60.565 139.804V141.038H54.6197V139.804H60.565ZM65.8225 147.741L68.0803 139.804H69.1741L68.5413 142.89L66.1116 151.179H65.0256L65.8225 147.741ZM63.4866 139.804L65.2834 147.585L65.8225 151.179H64.7444L61.9866 139.804H63.4866ZM72.0959 147.577L73.8538 139.804H75.3616L72.6116 151.179H71.5334L72.0959 147.577ZM69.3381 139.804L71.5334 147.741L72.3303 151.179H71.2444L68.9006 142.89L68.26 139.804H69.3381ZM81.2206 140.812L77.455 151.179H75.9159L80.2519 139.804H81.2441L81.2206 140.812ZM84.3769 151.179L80.6034 140.812L80.58 139.804H81.5722L85.9238 151.179H84.3769ZM84.1816 146.968V148.202H77.7909V146.968H84.1816ZM87.7672 139.804H91.5328C92.387 139.804 93.1083 139.934 93.6969 140.195C94.2906 140.455 94.7411 140.84 95.0484 141.351C95.3609 141.856 95.5172 142.478 95.5172 143.218C95.5172 143.739 95.4104 144.215 95.1969 144.648C94.9885 145.075 94.6865 145.439 94.2906 145.741C93.9 146.038 93.4313 146.26 92.8844 146.406L92.4625 146.57H88.9234L88.9078 145.343H91.5797C92.1214 145.343 92.5719 145.249 92.9313 145.062C93.2906 144.869 93.5615 144.611 93.7438 144.288C93.926 143.965 94.0172 143.609 94.0172 143.218C94.0172 142.781 93.9313 142.398 93.7594 142.07C93.5875 141.741 93.3167 141.489 92.9469 141.312C92.5823 141.129 92.1109 141.038 91.5328 141.038H89.275V151.179H87.7672V139.804ZM94.4156 151.179L91.65 146.023L93.2203 146.015L96.025 151.085V151.179H94.4156ZM101.025 151.179H98.6497L98.6653 149.952H101.025C101.837 149.952 102.514 149.783 103.056 149.445C103.598 149.101 104.004 148.622 104.275 148.007C104.551 147.387 104.689 146.663 104.689 145.835V145.14C104.689 144.489 104.611 143.911 104.454 143.406C104.298 142.895 104.069 142.465 103.767 142.116C103.465 141.762 103.095 141.494 102.658 141.312C102.225 141.129 101.728 141.038 101.165 141.038H98.6028V139.804H101.165C101.91 139.804 102.59 139.929 103.204 140.179C103.819 140.424 104.348 140.781 104.79 141.249C105.238 141.713 105.582 142.275 105.822 142.937C106.061 143.593 106.181 144.333 106.181 145.156V145.835C106.181 146.658 106.061 147.4 105.822 148.062C105.582 148.718 105.236 149.278 104.783 149.741C104.335 150.205 103.793 150.562 103.158 150.812C102.527 151.057 101.816 151.179 101.025 151.179ZM99.4544 139.804V151.179H97.9466V139.804H99.4544ZM116.133 151.179H113.758L113.774 149.952H116.133C116.946 149.952 117.623 149.783 118.165 149.445C118.706 149.101 119.113 148.622 119.383 148.007C119.659 147.387 119.798 146.663 119.798 145.835V145.14C119.798 144.489 119.719 143.911 119.563 143.406C119.407 142.895 119.178 142.465 118.876 142.116C118.574 141.762 118.204 141.494 117.766 141.312C117.334 141.129 116.837 141.038 116.274 141.038H113.712V139.804H116.274C117.019 139.804 117.699 139.929 118.313 140.179C118.928 140.424 119.456 140.781 119.899 141.249C120.347 141.713 120.691 142.275 120.93 142.937C121.17 143.593 121.29 144.333 121.29 145.156V145.835C121.29 146.658 121.17 147.4 120.93 148.062C120.691 148.718 120.344 149.278 119.891 149.741C119.443 150.205 118.902 150.562 118.266 150.812C117.636 151.057 116.925 151.179 116.133 151.179ZM114.563 139.804V151.179H113.055V139.804H114.563ZM131.102 149.952V151.179H125.078V149.952H131.102ZM125.383 139.804V151.179H123.875V139.804H125.383ZM130.305 144.695V145.921H125.078V144.695H130.305ZM131.024 139.804V141.038H125.078V139.804H131.024ZM134.266 139.804L137 144.163L139.734 139.804H141.492L137.898 145.437L141.578 151.179H139.805L137 146.734L134.195 151.179H132.422L136.102 145.437L132.508 139.804H134.266ZM39.1906 167.562H40.6906C40.6125 168.281 40.4068 168.924 40.0734 169.491C39.7401 170.059 39.2688 170.51 38.6594 170.843C38.05 171.171 37.2896 171.335 36.3781 171.335C35.7115 171.335 35.1047 171.21 34.5578 170.96C34.0161 170.71 33.55 170.356 33.1594 169.898C32.7688 169.434 32.4667 168.879 32.2531 168.234C32.0448 167.583 31.9406 166.859 31.9406 166.062V164.929C31.9406 164.132 32.0448 163.411 32.2531 162.765C32.4667 162.114 32.7714 161.557 33.1672 161.093C33.5682 160.629 34.05 160.273 34.6125 160.023C35.175 159.773 35.8078 159.648 36.5109 159.648C37.3703 159.648 38.0969 159.809 38.6906 160.132C39.2844 160.455 39.7453 160.903 40.0734 161.476C40.4068 162.044 40.6125 162.702 40.6906 163.452H39.1906C39.1177 162.921 38.9823 162.465 38.7844 162.085C38.5865 161.7 38.3052 161.403 37.9406 161.195C37.576 160.986 37.0995 160.882 36.5109 160.882C36.0057 160.882 35.5604 160.978 35.175 161.171C34.7948 161.364 34.4745 161.637 34.2141 161.991C33.9589 162.346 33.7661 162.77 33.6359 163.265C33.5057 163.76 33.4406 164.309 33.4406 164.913V166.062C33.4406 166.619 33.4979 167.142 33.6125 167.632C33.7323 168.122 33.912 168.551 34.1516 168.921C34.3911 169.291 34.6958 169.583 35.0656 169.796C35.4354 170.004 35.8729 170.109 36.3781 170.109C37.0188 170.109 37.5292 170.007 37.9094 169.804C38.2896 169.601 38.576 169.309 38.7688 168.929C38.9667 168.549 39.1073 168.093 39.1906 167.562ZM51.8231 165.132V165.851C51.8231 166.705 51.7164 167.471 51.5028 168.148C51.2893 168.825 50.982 169.4 50.5809 169.874C50.1799 170.348 49.6981 170.71 49.1356 170.96C48.5783 171.21 47.9533 171.335 47.2606 171.335C46.5888 171.335 45.9716 171.21 45.4091 170.96C44.8518 170.71 44.3674 170.348 43.9559 169.874C43.5497 169.4 43.2346 168.825 43.0106 168.148C42.7867 167.471 42.6747 166.705 42.6747 165.851V165.132C42.6747 164.278 42.7841 163.515 43.0028 162.843C43.2268 162.166 43.5419 161.59 43.9481 161.116C44.3544 160.637 44.8361 160.273 45.3934 160.023C45.9559 159.773 46.5731 159.648 47.245 159.648C47.9377 159.648 48.5627 159.773 49.12 160.023C49.6825 160.273 50.1643 160.637 50.5653 161.116C50.9716 161.59 51.2815 162.166 51.495 162.843C51.7138 163.515 51.8231 164.278 51.8231 165.132ZM50.3309 165.851V165.116C50.3309 164.439 50.2606 163.84 50.12 163.32C49.9846 162.799 49.7841 162.361 49.5184 162.007C49.2528 161.653 48.9273 161.385 48.5419 161.202C48.1617 161.02 47.7294 160.929 47.245 160.929C46.7763 160.929 46.3518 161.02 45.9716 161.202C45.5966 161.385 45.2736 161.653 45.0028 162.007C44.7372 162.361 44.5315 162.799 44.3856 163.32C44.2398 163.84 44.1669 164.439 44.1669 165.116V165.851C44.1669 166.533 44.2398 167.137 44.3856 167.663C44.5315 168.184 44.7398 168.624 45.0106 168.984C45.2867 169.338 45.6122 169.606 45.9872 169.788C46.3674 169.971 46.7919 170.062 47.2606 170.062C47.7502 170.062 48.1851 169.971 48.5653 169.788C48.9455 169.606 49.2658 169.338 49.5263 168.984C49.7919 168.624 49.9924 168.184 50.1278 167.663C50.2632 167.137 50.3309 166.533 50.3309 165.851ZM54.8775 159.804H56.3384L60.065 169.077L63.7838 159.804H65.2525L60.6275 171.179H59.4869L54.8775 159.804ZM54.4009 159.804H55.69L55.9009 166.741V171.179H54.4009V159.804ZM64.4322 159.804H65.7213V171.179H64.2213V166.741L64.4322 159.804ZM69.1663 159.804H70.6272L74.3538 169.077L78.0725 159.804H79.5413L74.9163 171.179H73.7756L69.1663 159.804ZM68.6897 159.804H69.9788L70.1897 166.741V171.179H68.6897V159.804ZM78.7209 159.804H80.01V171.179H78.51V166.741L78.7209 159.804ZM89.4863 159.804H90.9863V167.499C90.9863 168.353 90.7961 169.064 90.4159 169.632C90.0357 170.2 89.5305 170.627 88.9003 170.913C88.2753 171.195 87.5956 171.335 86.8613 171.335C86.0904 171.335 85.3925 171.195 84.7675 170.913C84.1477 170.627 83.6555 170.2 83.2909 169.632C82.9316 169.064 82.7519 168.353 82.7519 167.499V159.804H84.2441V167.499C84.2441 168.093 84.3534 168.583 84.5722 168.968C84.7909 169.353 85.0956 169.64 85.4863 169.827C85.8821 170.015 86.3404 170.109 86.8613 170.109C87.3873 170.109 87.8456 170.015 88.2363 169.827C88.6321 169.64 88.9394 169.353 89.1581 168.968C89.3769 168.583 89.4863 168.093 89.4863 167.499V159.804ZM102.423 159.804V171.179H100.908L95.1813 162.406V171.179H93.6734V159.804H95.1813L100.931 168.601V159.804H102.423ZM107.033 159.804V171.179H105.525V159.804H107.033ZM114.063 159.804V171.179H112.579V159.804H114.063ZM117.72 159.804V161.038H108.931V159.804H117.72ZM121.344 159.804V171.179H119.837V159.804H121.344ZM131.633 169.952V171.179H125.61V169.952H131.633ZM125.914 159.804V171.179H124.407V159.804H125.914ZM130.836 164.695V165.921H125.61V164.695H130.836ZM131.555 159.804V161.038H125.61V159.804H131.555ZM139.883 168.304C139.883 168.038 139.841 167.804 139.758 167.601C139.68 167.392 139.539 167.205 139.336 167.038C139.138 166.872 138.862 166.713 138.508 166.562C138.159 166.411 137.716 166.257 137.18 166.101C136.617 165.934 136.109 165.749 135.656 165.546C135.203 165.338 134.815 165.101 134.492 164.835C134.169 164.57 133.922 164.265 133.75 163.921C133.578 163.577 133.492 163.184 133.492 162.741C133.492 162.299 133.583 161.89 133.766 161.515C133.948 161.14 134.208 160.814 134.547 160.538C134.891 160.257 135.299 160.038 135.773 159.882C136.247 159.726 136.776 159.648 137.359 159.648C138.214 159.648 138.938 159.812 139.531 160.14C140.13 160.463 140.586 160.887 140.898 161.413C141.211 161.934 141.367 162.491 141.367 163.085H139.867C139.867 162.658 139.776 162.281 139.594 161.952C139.411 161.619 139.135 161.359 138.766 161.171C138.396 160.978 137.927 160.882 137.359 160.882C136.823 160.882 136.38 160.963 136.031 161.124C135.682 161.286 135.422 161.504 135.25 161.781C135.083 162.057 135 162.372 135 162.726C135 162.965 135.049 163.184 135.148 163.382C135.253 163.575 135.411 163.754 135.625 163.921C135.844 164.088 136.12 164.241 136.453 164.382C136.792 164.523 137.195 164.658 137.664 164.788C138.31 164.971 138.867 165.174 139.336 165.398C139.805 165.622 140.19 165.874 140.492 166.156C140.799 166.432 141.026 166.747 141.172 167.101C141.323 167.45 141.398 167.846 141.398 168.288C141.398 168.752 141.305 169.171 141.117 169.546C140.93 169.921 140.661 170.241 140.312 170.507C139.964 170.773 139.544 170.978 139.055 171.124C138.57 171.265 138.029 171.335 137.43 171.335C136.904 171.335 136.385 171.262 135.875 171.116C135.37 170.971 134.909 170.752 134.492 170.46C134.081 170.169 133.75 169.809 133.5 169.382C133.255 168.95 133.133 168.45 133.133 167.882H134.633C134.633 168.273 134.708 168.609 134.859 168.89C135.01 169.166 135.216 169.395 135.477 169.577C135.742 169.76 136.042 169.895 136.375 169.984C136.714 170.067 137.065 170.109 137.43 170.109C137.956 170.109 138.401 170.036 138.766 169.89C139.13 169.744 139.406 169.536 139.594 169.265C139.786 168.994 139.883 168.674 139.883 168.304Z" fill="white"/>
<circle cx="187" cy="151.429" r="19.5" transform="rotate(90 187 151.429)" fill="url(#paint3_linear_945_147742)" stroke="url(#paint4_linear_945_147742)"/>
<circle r="19.5" transform="matrix(-4.37114e-08 1 1 4.37114e-08 187 282.857)" fill="url(#paint5_linear_945_147742)" stroke="url(#paint6_linear_945_147742)"/>
<path d="M240.219 282.773V284H234.531V282.773H240.219ZM234.828 272.625V284H233.32V272.625H234.828ZM249.492 282.773V284H243.468V282.773H249.492ZM243.773 272.625V284H242.265V272.625H243.773ZM248.695 277.516V278.742H243.468V277.516H248.695ZM249.414 272.625V273.859H243.468V272.625H249.414ZM260.429 272.625V284H258.913L253.187 275.227V284H251.679V272.625H253.187L258.937 281.422V272.625H260.429ZM266.499 284H264.124L264.14 282.773H266.499C267.312 282.773 267.989 282.604 268.53 282.266C269.072 281.922 269.478 281.443 269.749 280.828C270.025 280.208 270.163 279.484 270.163 278.656V277.961C270.163 277.31 270.085 276.732 269.929 276.227C269.772 275.716 269.543 275.286 269.241 274.938C268.939 274.583 268.569 274.315 268.132 274.133C267.7 273.951 267.202 273.859 266.64 273.859H264.077V272.625H266.64C267.384 272.625 268.064 272.75 268.679 273C269.293 273.245 269.822 273.602 270.265 274.07C270.713 274.534 271.056 275.096 271.296 275.758C271.536 276.414 271.655 277.154 271.655 277.977V278.656C271.655 279.479 271.536 280.221 271.296 280.883C271.056 281.539 270.71 282.099 270.257 282.562C269.809 283.026 269.267 283.383 268.632 283.633C268.002 283.878 267.291 284 266.499 284ZM264.929 272.625V284H263.421V272.625H264.929ZM275.858 272.625V284H274.35V272.625H275.858ZM287.67 272.625V284H286.155L280.428 275.227V284H278.92V272.625H280.428L286.178 281.422V272.625H287.67ZM299.068 278.336V282.5C298.928 282.708 298.704 282.943 298.397 283.203C298.089 283.458 297.665 283.682 297.123 283.875C296.587 284.062 295.894 284.156 295.045 284.156C294.352 284.156 293.714 284.036 293.131 283.797C292.553 283.552 292.05 283.198 291.623 282.734C291.201 282.266 290.873 281.698 290.639 281.031C290.41 280.359 290.295 279.599 290.295 278.75V277.867C290.295 277.018 290.394 276.26 290.592 275.594C290.795 274.927 291.092 274.362 291.482 273.898C291.873 273.43 292.352 273.076 292.92 272.836C293.488 272.591 294.139 272.469 294.873 272.469C295.743 272.469 296.469 272.62 297.053 272.922C297.641 273.219 298.1 273.63 298.428 274.156C298.761 274.682 298.975 275.281 299.068 275.953H297.561C297.493 275.542 297.357 275.167 297.154 274.828C296.956 274.49 296.673 274.219 296.303 274.016C295.933 273.807 295.456 273.703 294.873 273.703C294.347 273.703 293.891 273.799 293.506 273.992C293.121 274.185 292.803 274.461 292.553 274.82C292.303 275.18 292.115 275.615 291.99 276.125C291.871 276.635 291.811 277.211 291.811 277.852V278.75C291.811 279.406 291.886 279.992 292.037 280.508C292.193 281.023 292.415 281.464 292.701 281.828C292.988 282.188 293.329 282.461 293.725 282.648C294.126 282.836 294.568 282.93 295.053 282.93C295.589 282.93 296.024 282.885 296.357 282.797C296.691 282.703 296.951 282.594 297.139 282.469C297.326 282.339 297.469 282.216 297.568 282.102V279.555H294.936V278.336H299.068ZM237.516 299.539H234.477V298.312H237.516C238.104 298.312 238.581 298.219 238.945 298.031C239.31 297.844 239.576 297.583 239.742 297.25C239.914 296.917 240 296.536 240 296.109C240 295.719 239.914 295.352 239.742 295.008C239.576 294.664 239.31 294.388 238.945 294.18C238.581 293.966 238.104 293.859 237.516 293.859H234.828V304H233.32V292.625H237.516C238.375 292.625 239.102 292.773 239.695 293.07C240.289 293.367 240.74 293.779 241.047 294.305C241.354 294.826 241.508 295.422 241.508 296.094C241.508 296.823 241.354 297.445 241.047 297.961C240.74 298.477 240.289 298.87 239.695 299.141C239.102 299.406 238.375 299.539 237.516 299.539ZM243.734 292.625H247.5C248.354 292.625 249.075 292.755 249.664 293.016C250.257 293.276 250.708 293.661 251.015 294.172C251.328 294.677 251.484 295.299 251.484 296.039C251.484 296.56 251.377 297.036 251.164 297.469C250.955 297.896 250.653 298.26 250.257 298.562C249.867 298.859 249.398 299.081 248.851 299.227L248.429 299.391H244.89L244.875 298.164H247.547C248.088 298.164 248.539 298.07 248.898 297.883C249.257 297.69 249.528 297.432 249.711 297.109C249.893 296.786 249.984 296.43 249.984 296.039C249.984 295.602 249.898 295.219 249.726 294.891C249.554 294.562 249.284 294.31 248.914 294.133C248.549 293.951 248.078 293.859 247.5 293.859H245.242V304H243.734V292.625ZM250.382 304L247.617 298.844L249.187 298.836L251.992 303.906V304H250.382ZM262.671 297.953V298.672C262.671 299.526 262.564 300.292 262.351 300.969C262.137 301.646 261.83 302.221 261.429 302.695C261.028 303.169 260.546 303.531 259.984 303.781C259.426 304.031 258.801 304.156 258.109 304.156C257.437 304.156 256.82 304.031 256.257 303.781C255.7 303.531 255.216 303.169 254.804 302.695C254.398 302.221 254.083 301.646 253.859 300.969C253.635 300.292 253.523 299.526 253.523 298.672V297.953C253.523 297.099 253.632 296.336 253.851 295.664C254.075 294.987 254.39 294.411 254.796 293.938C255.202 293.458 255.684 293.094 256.242 292.844C256.804 292.594 257.421 292.469 258.093 292.469C258.786 292.469 259.411 292.594 259.968 292.844C260.531 293.094 261.012 293.458 261.413 293.938C261.82 294.411 262.13 294.987 262.343 295.664C262.562 296.336 262.671 297.099 262.671 297.953ZM261.179 298.672V297.938C261.179 297.26 261.109 296.661 260.968 296.141C260.833 295.62 260.632 295.182 260.367 294.828C260.101 294.474 259.775 294.206 259.39 294.023C259.01 293.841 258.577 293.75 258.093 293.75C257.624 293.75 257.2 293.841 256.82 294.023C256.445 294.206 256.122 294.474 255.851 294.828C255.585 295.182 255.38 295.62 255.234 296.141C255.088 296.661 255.015 297.26 255.015 297.938V298.672C255.015 299.354 255.088 299.958 255.234 300.484C255.38 301.005 255.588 301.445 255.859 301.805C256.135 302.159 256.46 302.427 256.835 302.609C257.216 302.792 257.64 302.883 258.109 302.883C258.598 302.883 259.033 302.792 259.413 302.609C259.794 302.427 260.114 302.159 260.374 301.805C260.64 301.445 260.841 301.005 260.976 300.484C261.111 299.958 261.179 299.354 261.179 298.672ZM269.233 292.625V304H267.749V292.625H269.233ZM272.89 292.625V293.859H264.101V292.625H272.89ZM283.436 297.953V298.672C283.436 299.526 283.329 300.292 283.116 300.969C282.902 301.646 282.595 302.221 282.194 302.695C281.793 303.169 281.311 303.531 280.749 303.781C280.191 304.031 279.566 304.156 278.874 304.156C278.202 304.156 277.585 304.031 277.022 303.781C276.465 303.531 275.981 303.169 275.569 302.695C275.163 302.221 274.848 301.646 274.624 300.969C274.4 300.292 274.288 299.526 274.288 298.672V297.953C274.288 297.099 274.397 296.336 274.616 295.664C274.84 294.987 275.155 294.411 275.561 293.938C275.967 293.458 276.449 293.094 277.007 292.844C277.569 292.594 278.186 292.469 278.858 292.469C279.551 292.469 280.176 292.594 280.733 292.844C281.296 293.094 281.777 293.458 282.178 293.938C282.585 294.411 282.895 294.987 283.108 295.664C283.327 296.336 283.436 297.099 283.436 297.953ZM281.944 298.672V297.938C281.944 297.26 281.874 296.661 281.733 296.141C281.598 295.62 281.397 295.182 281.132 294.828C280.866 294.474 280.54 294.206 280.155 294.023C279.775 293.841 279.342 293.75 278.858 293.75C278.389 293.75 277.965 293.841 277.585 294.023C277.21 294.206 276.887 294.474 276.616 294.828C276.35 295.182 276.145 295.62 275.999 296.141C275.853 296.661 275.78 297.26 275.78 297.938V298.672C275.78 299.354 275.853 299.958 275.999 300.484C276.145 301.005 276.353 301.445 276.624 301.805C276.9 302.159 277.225 302.427 277.6 302.609C277.981 302.792 278.405 302.883 278.874 302.883C279.363 302.883 279.798 302.792 280.178 302.609C280.559 302.427 280.879 302.159 281.139 301.805C281.405 301.445 281.606 301.005 281.741 300.484C281.876 299.958 281.944 299.354 281.944 298.672ZM292.881 300.383H294.381C294.303 301.102 294.097 301.745 293.764 302.312C293.431 302.88 292.959 303.331 292.35 303.664C291.741 303.992 290.98 304.156 290.069 304.156C289.402 304.156 288.795 304.031 288.248 303.781C287.707 303.531 287.241 303.177 286.85 302.719C286.459 302.255 286.157 301.701 285.944 301.055C285.735 300.404 285.631 299.68 285.631 298.883V297.75C285.631 296.953 285.735 296.232 285.944 295.586C286.157 294.935 286.462 294.378 286.858 293.914C287.259 293.451 287.741 293.094 288.303 292.844C288.866 292.594 289.498 292.469 290.202 292.469C291.061 292.469 291.787 292.63 292.381 292.953C292.975 293.276 293.436 293.724 293.764 294.297C294.097 294.865 294.303 295.523 294.381 296.273H292.881C292.808 295.742 292.673 295.286 292.475 294.906C292.277 294.521 291.996 294.224 291.631 294.016C291.267 293.807 290.79 293.703 290.202 293.703C289.696 293.703 289.251 293.799 288.866 293.992C288.485 294.185 288.165 294.458 287.905 294.812C287.649 295.167 287.457 295.591 287.327 296.086C287.196 296.581 287.131 297.13 287.131 297.734V298.883C287.131 299.44 287.189 299.964 287.303 300.453C287.423 300.943 287.603 301.372 287.842 301.742C288.082 302.112 288.386 302.404 288.756 302.617C289.126 302.826 289.564 302.93 290.069 302.93C290.709 302.93 291.22 302.828 291.6 302.625C291.98 302.422 292.267 302.13 292.459 301.75C292.657 301.37 292.798 300.914 292.881 300.383ZM305.514 297.953V298.672C305.514 299.526 305.407 300.292 305.193 300.969C304.98 301.646 304.673 302.221 304.272 302.695C303.871 303.169 303.389 303.531 302.826 303.781C302.269 304.031 301.644 304.156 300.951 304.156C300.279 304.156 299.662 304.031 299.1 303.781C298.542 303.531 298.058 303.169 297.647 302.695C297.24 302.221 296.925 301.646 296.701 300.969C296.477 300.292 296.365 299.526 296.365 298.672V297.953C296.365 297.099 296.475 296.336 296.693 295.664C296.917 294.987 297.232 294.411 297.639 293.938C298.045 293.458 298.527 293.094 299.084 292.844C299.647 292.594 300.264 292.469 300.936 292.469C301.628 292.469 302.253 292.594 302.811 292.844C303.373 293.094 303.855 293.458 304.256 293.938C304.662 294.411 304.972 294.987 305.186 295.664C305.404 296.336 305.514 297.099 305.514 297.953ZM304.022 298.672V297.938C304.022 297.26 303.951 296.661 303.811 296.141C303.675 295.62 303.475 295.182 303.209 294.828C302.943 294.474 302.618 294.206 302.232 294.023C301.852 293.841 301.42 293.75 300.936 293.75C300.467 293.75 300.042 293.841 299.662 294.023C299.287 294.206 298.964 294.474 298.693 294.828C298.428 295.182 298.222 295.62 298.076 296.141C297.93 296.661 297.857 297.26 297.857 297.938V298.672C297.857 299.354 297.93 299.958 298.076 300.484C298.222 301.005 298.43 301.445 298.701 301.805C298.977 302.159 299.303 302.427 299.678 302.609C300.058 302.792 300.482 302.883 300.951 302.883C301.441 302.883 301.876 302.792 302.256 302.609C302.636 302.427 302.956 302.159 303.217 301.805C303.482 301.445 303.683 301.005 303.818 300.484C303.954 299.958 304.022 299.354 304.022 298.672ZM314.99 302.773V304H309.302V302.773H314.99ZM309.599 292.625V304H308.092V292.625H309.599ZM323.099 301.125C323.099 300.859 323.057 300.625 322.974 300.422C322.896 300.214 322.755 300.026 322.552 299.859C322.354 299.693 322.078 299.534 321.724 299.383C321.375 299.232 320.932 299.078 320.396 298.922C319.833 298.755 319.326 298.57 318.872 298.367C318.419 298.159 318.031 297.922 317.708 297.656C317.386 297.391 317.138 297.086 316.966 296.742C316.794 296.398 316.708 296.005 316.708 295.562C316.708 295.12 316.8 294.711 316.982 294.336C317.164 293.961 317.425 293.635 317.763 293.359C318.107 293.078 318.516 292.859 318.99 292.703C319.464 292.547 319.992 292.469 320.576 292.469C321.43 292.469 322.154 292.633 322.747 292.961C323.346 293.284 323.802 293.708 324.115 294.234C324.427 294.755 324.583 295.312 324.583 295.906H323.083C323.083 295.479 322.992 295.102 322.81 294.773C322.628 294.44 322.352 294.18 321.982 293.992C321.612 293.799 321.143 293.703 320.576 293.703C320.039 293.703 319.596 293.784 319.247 293.945C318.899 294.107 318.638 294.326 318.466 294.602C318.3 294.878 318.216 295.193 318.216 295.547C318.216 295.786 318.266 296.005 318.365 296.203C318.469 296.396 318.628 296.576 318.841 296.742C319.06 296.909 319.336 297.062 319.669 297.203C320.008 297.344 320.412 297.479 320.88 297.609C321.526 297.792 322.083 297.995 322.552 298.219C323.021 298.443 323.406 298.695 323.708 298.977C324.016 299.253 324.242 299.568 324.388 299.922C324.539 300.271 324.615 300.667 324.615 301.109C324.615 301.573 324.521 301.992 324.333 302.367C324.146 302.742 323.878 303.062 323.529 303.328C323.18 303.594 322.761 303.799 322.271 303.945C321.787 304.086 321.245 304.156 320.646 304.156C320.12 304.156 319.602 304.083 319.091 303.938C318.586 303.792 318.125 303.573 317.708 303.281C317.297 302.99 316.966 302.63 316.716 302.203C316.471 301.771 316.349 301.271 316.349 300.703H317.849C317.849 301.094 317.925 301.43 318.076 301.711C318.227 301.987 318.432 302.216 318.693 302.398C318.958 302.581 319.258 302.716 319.591 302.805C319.93 302.888 320.281 302.93 320.646 302.93C321.172 302.93 321.617 302.857 321.982 302.711C322.346 302.565 322.622 302.357 322.81 302.086C323.003 301.815 323.099 301.495 323.099 301.125Z" fill="white"/>
<circle cx="187" cy="424.25" r="19.5" transform="rotate(90 187 424.25)" fill="url(#paint7_linear_945_147742)" stroke="url(#paint8_linear_945_147742)"/>
<path d="M93.5094 407.849L95.7672 399.911H96.8609L96.2281 402.997L93.7984 411.286H92.7125L93.5094 407.849ZM91.1734 399.911L92.9703 407.692L93.5094 411.286H92.4313L89.6734 399.911H91.1734ZM99.7828 407.685L101.541 399.911H103.048L100.298 411.286H99.2203L99.7828 407.685ZM97.025 399.911L99.2203 407.849L100.017 411.286H98.9313L96.5875 402.997L95.9469 399.911H97.025ZM112.267 410.06V411.286H106.243V410.06H112.267ZM106.548 399.911V411.286H105.04V399.911H106.548ZM111.47 404.802V406.028H106.243V404.802H111.47ZM112.189 399.911V401.146H106.243V399.911H112.189ZM118.509 405.966H115.626L115.61 404.755H118.228C118.66 404.755 119.037 404.682 119.36 404.536C119.683 404.39 119.933 404.182 120.11 403.911C120.293 403.635 120.384 403.307 120.384 402.927C120.384 402.51 120.303 402.172 120.142 401.911C119.985 401.646 119.743 401.453 119.415 401.333C119.092 401.208 118.681 401.146 118.181 401.146H115.962V411.286H114.454V399.911H118.181C118.764 399.911 119.285 399.971 119.743 400.091C120.201 400.205 120.589 400.388 120.907 400.638C121.23 400.882 121.475 401.195 121.642 401.575C121.808 401.955 121.892 402.411 121.892 402.942C121.892 403.411 121.772 403.836 121.532 404.216C121.293 404.591 120.959 404.898 120.532 405.138C120.11 405.377 119.616 405.531 119.048 405.599L118.509 405.966ZM118.438 411.286H115.032L115.884 410.06H118.438C118.918 410.06 119.324 409.976 119.657 409.81C119.996 409.643 120.254 409.409 120.431 409.106C120.608 408.799 120.696 408.437 120.696 408.021C120.696 407.599 120.621 407.234 120.47 406.927C120.319 406.619 120.082 406.382 119.759 406.216C119.436 406.049 119.019 405.966 118.509 405.966H116.36L116.376 404.755H119.313L119.634 405.192C120.181 405.239 120.644 405.396 121.024 405.661C121.405 405.922 121.694 406.255 121.892 406.661C122.095 407.067 122.196 407.515 122.196 408.005C122.196 408.713 122.04 409.312 121.728 409.802C121.42 410.286 120.985 410.656 120.423 410.911C119.86 411.161 119.199 411.286 118.438 411.286ZM130.766 404.888H131.797C132.302 404.888 132.719 404.804 133.047 404.638C133.381 404.466 133.628 404.234 133.789 403.942C133.956 403.646 134.039 403.312 134.039 402.942C134.039 402.505 133.966 402.138 133.821 401.841C133.675 401.544 133.456 401.32 133.164 401.169C132.873 401.018 132.503 400.942 132.055 400.942C131.649 400.942 131.289 401.023 130.977 401.185C130.67 401.341 130.427 401.565 130.25 401.856C130.078 402.148 129.993 402.492 129.993 402.888H128.547C128.547 402.31 128.693 401.784 128.985 401.31C129.276 400.836 129.685 400.458 130.211 400.177C130.743 399.896 131.357 399.755 132.055 399.755C132.743 399.755 133.344 399.877 133.86 400.122C134.375 400.362 134.776 400.721 135.063 401.2C135.349 401.674 135.493 402.265 135.493 402.974C135.493 403.26 135.425 403.567 135.289 403.896C135.159 404.218 134.953 404.521 134.672 404.802C134.396 405.083 134.037 405.315 133.594 405.497C133.151 405.674 132.62 405.763 132 405.763H130.766V404.888ZM130.766 406.075V405.208H132C132.724 405.208 133.323 405.294 133.797 405.466C134.271 405.638 134.644 405.867 134.914 406.153C135.19 406.44 135.383 406.755 135.493 407.099C135.607 407.437 135.664 407.776 135.664 408.114C135.664 408.646 135.573 409.117 135.391 409.528C135.214 409.94 134.961 410.289 134.633 410.575C134.31 410.862 133.93 411.078 133.493 411.224C133.055 411.369 132.578 411.442 132.063 411.442C131.568 411.442 131.102 411.372 130.664 411.231C130.232 411.091 129.849 410.888 129.516 410.622C129.183 410.351 128.922 410.021 128.735 409.63C128.547 409.234 128.453 408.784 128.453 408.278H129.899C129.899 408.674 129.985 409.021 130.157 409.317C130.334 409.614 130.584 409.846 130.907 410.013C131.235 410.174 131.62 410.255 132.063 410.255C132.506 410.255 132.886 410.179 133.203 410.028C133.526 409.872 133.774 409.638 133.946 409.325C134.123 409.013 134.211 408.619 134.211 408.146C134.211 407.672 134.112 407.284 133.914 406.981C133.716 406.674 133.435 406.448 133.071 406.302C132.711 406.151 132.287 406.075 131.797 406.075H130.766ZM59.9556 419.911V431.286H58.4478V419.911H59.9556ZM71.7678 419.911V431.286H70.2522L64.5256 422.513V431.286H63.0178V419.911H64.5256L70.2756 428.708V419.911H71.7678ZM78.7284 419.911V431.286H77.2441V419.911H78.7284ZM82.3847 419.911V421.146H73.5956V419.911H82.3847ZM91.6188 430.06V431.286H85.5953V430.06H91.6188ZM85.9 419.911V431.286H84.3922V419.911H85.9ZM90.8219 424.802V426.028H85.5953V424.802H90.8219ZM91.5406 419.911V421.146H85.5953V419.911H91.5406ZM93.8059 419.911H97.5716C98.4257 419.911 99.1471 420.041 99.7356 420.302C100.329 420.562 100.78 420.948 101.087 421.458C101.4 421.963 101.556 422.586 101.556 423.325C101.556 423.846 101.449 424.323 101.236 424.755C101.027 425.182 100.725 425.547 100.329 425.849C99.9388 426.146 99.47 426.367 98.9231 426.513L98.5013 426.677H94.9622L94.9466 425.45H97.6184C98.1601 425.45 98.6106 425.356 98.97 425.169C99.3294 424.976 99.6002 424.718 99.7825 424.396C99.9648 424.073 100.056 423.716 100.056 423.325C100.056 422.888 99.97 422.505 99.7981 422.177C99.6263 421.849 99.3554 421.596 98.9856 421.419C98.621 421.237 98.1497 421.146 97.5716 421.146H95.3138V431.286H93.8059V419.911ZM100.454 431.286L97.6888 426.13L99.2591 426.122L102.064 431.192V431.286H100.454ZM105.493 419.911V431.286H103.985V419.911H105.493ZM110.259 425.028V426.263H105.165V425.028H110.259ZM111.032 419.911V421.146H105.165V419.911H111.032ZM116.032 420.919L112.266 431.286H110.727L115.063 419.911H116.055L116.032 420.919ZM119.188 431.286L115.415 420.919L115.391 419.911H116.383L120.735 431.286H119.188ZM118.993 427.075V428.31H112.602V427.075H118.993ZM129.352 427.669H130.852C130.774 428.388 130.568 429.031 130.235 429.599C129.901 430.166 129.43 430.617 128.821 430.95C128.211 431.278 127.451 431.442 126.539 431.442C125.873 431.442 125.266 431.317 124.719 431.067C124.177 430.817 123.711 430.463 123.321 430.005C122.93 429.541 122.628 428.987 122.414 428.341C122.206 427.69 122.102 426.966 122.102 426.169V425.036C122.102 424.239 122.206 423.518 122.414 422.872C122.628 422.221 122.933 421.664 123.328 421.2C123.729 420.737 124.211 420.38 124.774 420.13C125.336 419.88 125.969 419.755 126.672 419.755C127.532 419.755 128.258 419.916 128.852 420.239C129.446 420.562 129.907 421.01 130.235 421.583C130.568 422.151 130.774 422.81 130.852 423.56H129.352C129.279 423.028 129.144 422.573 128.946 422.192C128.748 421.807 128.466 421.51 128.102 421.302C127.737 421.093 127.261 420.989 126.672 420.989C126.167 420.989 125.722 421.086 125.336 421.278C124.956 421.471 124.636 421.744 124.375 422.099C124.12 422.453 123.927 422.877 123.797 423.372C123.667 423.867 123.602 424.416 123.602 425.021V426.169C123.602 426.726 123.659 427.25 123.774 427.739C123.894 428.229 124.073 428.659 124.313 429.028C124.552 429.398 124.857 429.69 125.227 429.903C125.597 430.112 126.034 430.216 126.539 430.216C127.18 430.216 127.69 430.114 128.071 429.911C128.451 429.708 128.737 429.416 128.93 429.036C129.128 428.656 129.269 428.2 129.352 427.669ZM140.453 430.06V431.286H134.43V430.06H140.453ZM134.734 419.911V431.286H133.227V419.911H134.734ZM139.656 424.802V426.028H134.43V424.802H139.656ZM140.375 419.911V421.146H134.43V419.911H140.375ZM59.6588 446.825H56.6197V445.599H59.6588C60.2473 445.599 60.7239 445.505 61.0884 445.317C61.453 445.13 61.7186 444.869 61.8853 444.536C62.0572 444.203 62.1431 443.823 62.1431 443.396C62.1431 443.005 62.0572 442.638 61.8853 442.294C61.7186 441.95 61.453 441.674 61.0884 441.466C60.7239 441.252 60.2473 441.146 59.6588 441.146H56.9713V451.286H55.4634V439.911H59.6588C60.5181 439.911 61.2447 440.06 61.8384 440.356C62.4322 440.653 62.8827 441.065 63.19 441.591C63.4973 442.112 63.6509 442.708 63.6509 443.38C63.6509 444.109 63.4973 444.731 63.19 445.247C62.8827 445.763 62.4322 446.156 61.8384 446.427C61.2447 446.692 60.5181 446.825 59.6588 446.825ZM65.8772 439.911H69.6428C70.497 439.911 71.2183 440.041 71.8069 440.302C72.4006 440.562 72.8511 440.948 73.1584 441.458C73.4709 441.963 73.6272 442.586 73.6272 443.325C73.6272 443.846 73.5204 444.323 73.3069 444.755C73.0985 445.182 72.7965 445.547 72.4006 445.849C72.01 446.146 71.5413 446.367 70.9944 446.513L70.5725 446.677H67.0334L67.0178 445.45H69.6897C70.2314 445.45 70.6819 445.356 71.0413 445.169C71.4006 444.976 71.6715 444.718 71.8538 444.396C72.036 444.073 72.1272 443.716 72.1272 443.325C72.1272 442.888 72.0413 442.505 71.8694 442.177C71.6975 441.849 71.4267 441.596 71.0569 441.419C70.6923 441.237 70.2209 441.146 69.6428 441.146H67.385V451.286H65.8772V439.911ZM72.5256 451.286L69.76 446.13L71.3303 446.122L74.135 451.192V451.286H72.5256ZM84.8144 445.239V445.958C84.8144 446.812 84.7076 447.578 84.4941 448.255C84.2805 448.932 83.9732 449.507 83.5722 449.981C83.1711 450.455 82.6894 450.817 82.1269 451.067C81.5696 451.317 80.9446 451.442 80.2519 451.442C79.58 451.442 78.9628 451.317 78.4003 451.067C77.843 450.817 77.3586 450.455 76.9472 449.981C76.5409 449.507 76.2258 448.932 76.0019 448.255C75.7779 447.578 75.6659 446.812 75.6659 445.958V445.239C75.6659 444.385 75.7753 443.622 75.9941 442.95C76.218 442.273 76.5331 441.698 76.9394 441.224C77.3456 440.744 77.8274 440.38 78.3847 440.13C78.9472 439.88 79.5644 439.755 80.2363 439.755C80.929 439.755 81.554 439.88 82.1113 440.13C82.6738 440.38 83.1555 440.744 83.5566 441.224C83.9628 441.698 84.2727 442.273 84.4863 442.95C84.705 443.622 84.8144 444.385 84.8144 445.239ZM83.3222 445.958V445.224C83.3222 444.547 83.2519 443.948 83.1113 443.427C82.9758 442.906 82.7753 442.468 82.5097 442.114C82.2441 441.76 81.9185 441.492 81.5331 441.31C81.1529 441.127 80.7206 441.036 80.2363 441.036C79.7675 441.036 79.343 441.127 78.9628 441.31C78.5878 441.492 78.2649 441.76 77.9941 442.114C77.7284 442.468 77.5227 442.906 77.3769 443.427C77.231 443.948 77.1581 444.547 77.1581 445.224V445.958C77.1581 446.64 77.231 447.244 77.3769 447.771C77.5227 448.291 77.731 448.731 78.0019 449.091C78.2779 449.445 78.6034 449.713 78.9784 449.896C79.3586 450.078 79.7831 450.169 80.2519 450.169C80.7415 450.169 81.1764 450.078 81.5566 449.896C81.9368 449.713 82.2571 449.445 82.5175 449.091C82.7831 448.731 82.9836 448.291 83.1191 447.771C83.2545 447.244 83.3222 446.64 83.3222 445.958ZM90.8922 449.56L94.2438 439.911H95.8766L91.6656 451.286H90.5016L90.8922 449.56ZM87.7594 439.911L91.0797 449.56L91.4938 451.286H90.3297L86.1266 439.911H87.7594ZM99.345 439.911V451.286H97.8372V439.911H99.345ZM105.485 451.286H103.11L103.126 450.06H105.485C106.298 450.06 106.975 449.89 107.517 449.552C108.058 449.208 108.464 448.729 108.735 448.114C109.011 447.494 109.149 446.771 109.149 445.942V445.247C109.149 444.596 109.071 444.018 108.915 443.513C108.759 443.002 108.53 442.573 108.228 442.224C107.925 441.869 107.556 441.601 107.118 441.419C106.686 441.237 106.188 441.146 105.626 441.146H103.063V439.911H105.626C106.371 439.911 107.05 440.036 107.665 440.286C108.28 440.531 108.808 440.888 109.251 441.356C109.699 441.82 110.043 442.382 110.282 443.044C110.522 443.7 110.642 444.44 110.642 445.263V445.942C110.642 446.765 110.522 447.507 110.282 448.169C110.043 448.825 109.696 449.385 109.243 449.849C108.795 450.312 108.254 450.669 107.618 450.919C106.988 451.164 106.277 451.286 105.485 451.286ZM103.915 439.911V451.286H102.407V439.911H103.915ZM120.454 450.06V451.286H114.43V450.06H120.454ZM114.735 439.911V451.286H113.227V439.911H114.735ZM119.657 444.802V446.028H114.43V444.802H119.657ZM120.376 439.911V441.146H114.43V439.911H120.376ZM122.641 439.911H126.407C127.261 439.911 127.982 440.041 128.571 440.302C129.164 440.562 129.615 440.948 129.922 441.458C130.235 441.963 130.391 442.586 130.391 443.325C130.391 443.846 130.284 444.323 130.071 444.755C129.862 445.182 129.56 445.547 129.164 445.849C128.774 446.146 128.305 446.367 127.758 446.513L127.336 446.677H123.797L123.782 445.45H126.453C126.995 445.45 127.446 445.356 127.805 445.169C128.164 444.976 128.435 444.718 128.618 444.396C128.8 444.073 128.891 443.716 128.891 443.325C128.891 442.888 128.805 442.505 128.633 442.177C128.461 441.849 128.19 441.596 127.821 441.419C127.456 441.237 126.985 441.146 126.407 441.146H124.149V451.286H122.641V439.911ZM129.289 451.286L126.524 446.13L128.094 446.122L130.899 451.192V451.286H129.289ZM138.883 448.411C138.883 448.146 138.841 447.911 138.758 447.708C138.68 447.5 138.539 447.312 138.336 447.146C138.138 446.979 137.862 446.82 137.508 446.669C137.159 446.518 136.716 446.364 136.18 446.208C135.617 446.041 135.109 445.856 134.656 445.653C134.203 445.445 133.815 445.208 133.492 444.942C133.169 444.677 132.922 444.372 132.75 444.028C132.578 443.685 132.492 443.291 132.492 442.849C132.492 442.406 132.583 441.997 132.766 441.622C132.948 441.247 133.208 440.922 133.547 440.646C133.891 440.364 134.299 440.146 134.773 439.989C135.247 439.833 135.776 439.755 136.359 439.755C137.214 439.755 137.938 439.919 138.531 440.247C139.13 440.57 139.586 440.994 139.898 441.521C140.211 442.041 140.367 442.599 140.367 443.192H138.867C138.867 442.765 138.776 442.388 138.594 442.06C138.411 441.726 138.135 441.466 137.766 441.278C137.396 441.086 136.927 440.989 136.359 440.989C135.823 440.989 135.38 441.07 135.031 441.231C134.682 441.393 134.422 441.612 134.25 441.888C134.083 442.164 134 442.479 134 442.833C134 443.073 134.049 443.291 134.148 443.489C134.253 443.682 134.411 443.862 134.625 444.028C134.844 444.195 135.12 444.349 135.453 444.489C135.792 444.63 136.195 444.765 136.664 444.896C137.31 445.078 137.867 445.281 138.336 445.505C138.805 445.729 139.19 445.981 139.492 446.263C139.799 446.539 140.026 446.854 140.172 447.208C140.323 447.557 140.398 447.953 140.398 448.396C140.398 448.859 140.305 449.278 140.117 449.653C139.93 450.028 139.661 450.349 139.312 450.614C138.964 450.88 138.544 451.086 138.055 451.231C137.57 451.372 137.029 451.442 136.43 451.442C135.904 451.442 135.385 451.369 134.875 451.224C134.37 451.078 133.909 450.859 133.492 450.567C133.081 450.276 132.75 449.916 132.5 449.489C132.255 449.057 132.133 448.557 132.133 447.989H133.633C133.633 448.38 133.708 448.716 133.859 448.997C134.01 449.273 134.216 449.502 134.477 449.685C134.742 449.867 135.042 450.002 135.375 450.091C135.714 450.174 136.065 450.216 136.43 450.216C136.956 450.216 137.401 450.143 137.766 449.997C138.13 449.851 138.406 449.643 138.594 449.372C138.786 449.101 138.883 448.781 138.883 448.411Z" fill="white"/>
<path d="M233.797 555.197H235.258L238.984 564.47L242.703 555.197H244.172L239.547 566.572H238.406L233.797 555.197ZM233.32 555.197H234.609L234.82 562.134V566.572H233.32V555.197ZM243.352 555.197H244.641V566.572H243.141V562.134L243.352 555.197ZM256.367 560.525V561.244C256.367 562.098 256.26 562.863 256.047 563.541C255.833 564.218 255.526 564.793 255.125 565.267C254.724 565.741 254.242 566.103 253.679 566.353C253.122 566.603 252.497 566.728 251.804 566.728C251.132 566.728 250.515 566.603 249.953 566.353C249.396 566.103 248.911 565.741 248.5 565.267C248.093 564.793 247.778 564.218 247.554 563.541C247.33 562.863 247.218 562.098 247.218 561.244V560.525C247.218 559.671 247.328 558.908 247.547 558.236C247.771 557.559 248.086 556.983 248.492 556.509C248.898 556.03 249.38 555.666 249.937 555.416C250.5 555.166 251.117 555.041 251.789 555.041C252.481 555.041 253.106 555.166 253.664 555.416C254.226 555.666 254.708 556.03 255.109 556.509C255.515 556.983 255.825 557.559 256.039 558.236C256.257 558.908 256.367 559.671 256.367 560.525ZM254.875 561.244V560.509C254.875 559.832 254.804 559.233 254.664 558.712C254.528 558.192 254.328 557.754 254.062 557.4C253.797 557.046 253.471 556.778 253.086 556.595C252.705 556.413 252.273 556.322 251.789 556.322C251.32 556.322 250.896 556.413 250.515 556.595C250.14 556.778 249.817 557.046 249.547 557.4C249.281 557.754 249.075 558.192 248.929 558.712C248.784 559.233 248.711 559.832 248.711 560.509V561.244C248.711 561.926 248.784 562.53 248.929 563.056C249.075 563.577 249.284 564.017 249.554 564.376C249.83 564.731 250.156 564.999 250.531 565.181C250.911 565.363 251.336 565.455 251.804 565.455C252.294 565.455 252.729 565.363 253.109 565.181C253.489 564.999 253.81 564.731 254.07 564.376C254.336 564.017 254.536 563.577 254.672 563.056C254.807 562.53 254.875 561.926 254.875 561.244ZM258.945 555.197H262.71C263.564 555.197 264.286 555.327 264.874 555.587C265.468 555.848 265.919 556.233 266.226 556.744C266.538 557.249 266.695 557.871 266.695 558.611C266.695 559.132 266.588 559.608 266.374 560.041C266.166 560.468 265.864 560.832 265.468 561.134C265.077 561.431 264.609 561.653 264.062 561.798L263.64 561.962H260.101L260.085 560.736H262.757C263.299 560.736 263.749 560.642 264.109 560.455C264.468 560.262 264.739 560.004 264.921 559.681C265.104 559.358 265.195 559.001 265.195 558.611C265.195 558.173 265.109 557.791 264.937 557.462C264.765 557.134 264.494 556.882 264.124 556.705C263.76 556.522 263.288 556.431 262.71 556.431H260.452V566.572H258.945V555.197ZM265.593 566.572L262.827 561.416L264.398 561.408L267.202 566.478V566.572H265.593ZM276.351 565.345V566.572H270.327V565.345H276.351ZM270.632 555.197V566.572H269.124V555.197H270.632ZM275.554 560.087V561.314H270.327V560.087H275.554ZM276.272 555.197V556.431H270.327V555.197H276.272ZM240.188 582.955H241.688C241.609 583.673 241.404 584.317 241.07 584.884C240.737 585.452 240.266 585.903 239.656 586.236C239.047 586.564 238.286 586.728 237.375 586.728C236.708 586.728 236.102 586.603 235.555 586.353C235.013 586.103 234.547 585.749 234.156 585.291C233.766 584.827 233.464 584.272 233.25 583.626C233.042 582.975 232.938 582.251 232.938 581.455V580.322C232.938 579.525 233.042 578.804 233.25 578.158C233.464 577.507 233.768 576.949 234.164 576.486C234.565 576.022 235.047 575.666 235.609 575.416C236.172 575.166 236.805 575.041 237.508 575.041C238.367 575.041 239.094 575.202 239.688 575.525C240.281 575.848 240.742 576.296 241.07 576.869C241.404 577.436 241.609 578.095 241.688 578.845H240.188C240.115 578.314 239.979 577.858 239.781 577.478C239.583 577.093 239.302 576.796 238.938 576.587C238.573 576.379 238.096 576.275 237.508 576.275C237.003 576.275 236.557 576.371 236.172 576.564C235.792 576.757 235.471 577.03 235.211 577.384C234.956 577.738 234.763 578.163 234.633 578.658C234.503 579.153 234.438 579.702 234.438 580.306V581.455C234.438 582.012 234.495 582.535 234.609 583.025C234.729 583.514 234.909 583.944 235.148 584.314C235.388 584.684 235.693 584.975 236.062 585.189C236.432 585.397 236.87 585.501 237.375 585.501C238.016 585.501 238.526 585.4 238.906 585.197C239.286 584.994 239.573 584.702 239.766 584.322C239.964 583.942 240.104 583.486 240.188 582.955ZM251.492 580.087V581.314H245.336V580.087H251.492ZM245.57 575.197V586.572H244.062V575.197H245.57ZM252.804 575.197V586.572H251.304V575.197H252.804ZM260.156 576.205L256.39 586.572H254.851L259.187 575.197H260.179L260.156 576.205ZM263.312 586.572L259.538 576.205L259.515 575.197H260.507L264.859 586.572H263.312ZM263.117 582.361V583.595H256.726V582.361H263.117ZM268.319 575.197V586.572H266.812V575.197H268.319ZM280.132 575.197V586.572H278.616L272.889 577.798V586.572H271.382V575.197H272.889L278.639 583.994V575.197H280.132ZM289.186 583.697C289.186 583.431 289.144 583.197 289.061 582.994C288.983 582.785 288.842 582.598 288.639 582.431C288.441 582.264 288.165 582.106 287.811 581.955C287.462 581.804 287.019 581.65 286.483 581.494C285.92 581.327 285.412 581.142 284.959 580.939C284.506 580.731 284.118 580.494 283.795 580.228C283.472 579.962 283.225 579.658 283.053 579.314C282.881 578.97 282.795 578.577 282.795 578.134C282.795 577.692 282.886 577.283 283.069 576.908C283.251 576.533 283.511 576.207 283.85 575.931C284.194 575.65 284.603 575.431 285.077 575.275C285.551 575.119 286.079 575.041 286.662 575.041C287.517 575.041 288.241 575.205 288.834 575.533C289.433 575.856 289.889 576.28 290.202 576.806C290.514 577.327 290.67 577.884 290.67 578.478H289.17C289.17 578.051 289.079 577.673 288.897 577.345C288.715 577.012 288.439 576.751 288.069 576.564C287.699 576.371 287.23 576.275 286.662 576.275C286.126 576.275 285.683 576.356 285.334 576.517C284.985 576.679 284.725 576.897 284.553 577.173C284.386 577.449 284.303 577.764 284.303 578.119C284.303 578.358 284.353 578.577 284.452 578.775C284.556 578.968 284.715 579.147 284.928 579.314C285.147 579.481 285.423 579.634 285.756 579.775C286.095 579.916 286.498 580.051 286.967 580.181C287.613 580.363 288.17 580.567 288.639 580.791C289.108 581.014 289.493 581.267 289.795 581.548C290.103 581.824 290.329 582.139 290.475 582.494C290.626 582.843 290.702 583.238 290.702 583.681C290.702 584.145 290.608 584.564 290.42 584.939C290.233 585.314 289.965 585.634 289.616 585.9C289.267 586.166 288.847 586.371 288.358 586.517C287.873 586.658 287.332 586.728 286.733 586.728C286.207 586.728 285.689 586.655 285.178 586.509C284.673 586.363 284.212 586.145 283.795 585.853C283.384 585.561 283.053 585.202 282.803 584.775C282.558 584.343 282.436 583.843 282.436 583.275H283.936C283.936 583.666 284.011 584.001 284.162 584.283C284.314 584.559 284.519 584.788 284.78 584.97C285.045 585.153 285.345 585.288 285.678 585.376C286.017 585.46 286.368 585.501 286.733 585.501C287.259 585.501 287.704 585.429 288.069 585.283C288.433 585.137 288.709 584.929 288.897 584.658C289.09 584.387 289.186 584.067 289.186 583.697Z" fill="white"/>
<circle r="19.5" transform="matrix(-4.37114e-08 1 1 4.37114e-08 187 566.286)" fill="url(#paint9_linear_945_147742)" stroke="url(#paint10_linear_945_147742)"/>
<circle cx="187" cy="697.714" r="19.5" transform="rotate(90 187 697.714)" fill="url(#paint11_linear_945_147742)" stroke="url(#paint12_linear_945_147742)"/>
<path d="M105.126 687.339H106.626V695.034C106.626 695.888 106.436 696.599 106.056 697.167C105.676 697.735 105.171 698.162 104.54 698.448C103.915 698.729 103.236 698.87 102.501 698.87C101.73 698.87 101.033 698.729 100.408 698.448C99.7877 698.162 99.2955 697.735 98.9309 697.167C98.5716 696.599 98.3919 695.888 98.3919 695.034V687.339H99.8841V695.034C99.8841 695.628 99.9934 696.118 100.212 696.503C100.431 696.888 100.736 697.175 101.126 697.362C101.522 697.55 101.98 697.644 102.501 697.644C103.027 697.644 103.486 697.55 103.876 697.362C104.272 697.175 104.579 696.888 104.798 696.503C105.017 696.118 105.126 695.628 105.126 695.034V687.339ZM115.376 695.839C115.376 695.573 115.334 695.339 115.251 695.136C115.173 694.927 115.032 694.74 114.829 694.573C114.631 694.407 114.355 694.248 114.001 694.097C113.652 693.946 113.209 693.792 112.673 693.636C112.11 693.469 111.603 693.284 111.149 693.081C110.696 692.873 110.308 692.636 109.985 692.37C109.662 692.104 109.415 691.8 109.243 691.456C109.071 691.112 108.985 690.719 108.985 690.276C108.985 689.834 109.076 689.425 109.259 689.05C109.441 688.675 109.701 688.349 110.04 688.073C110.384 687.792 110.793 687.573 111.267 687.417C111.741 687.261 112.269 687.183 112.853 687.183C113.707 687.183 114.431 687.347 115.024 687.675C115.623 687.998 116.079 688.422 116.392 688.948C116.704 689.469 116.86 690.026 116.86 690.62H115.36C115.36 690.193 115.269 689.815 115.087 689.487C114.905 689.154 114.629 688.894 114.259 688.706C113.889 688.513 113.42 688.417 112.853 688.417C112.316 688.417 111.873 688.498 111.524 688.659C111.175 688.821 110.915 689.039 110.743 689.315C110.576 689.591 110.493 689.907 110.493 690.261C110.493 690.5 110.543 690.719 110.642 690.917C110.746 691.11 110.905 691.289 111.118 691.456C111.337 691.623 111.613 691.776 111.946 691.917C112.285 692.058 112.688 692.193 113.157 692.323C113.803 692.506 114.36 692.709 114.829 692.933C115.298 693.157 115.683 693.409 115.985 693.69C116.293 693.966 116.519 694.282 116.665 694.636C116.816 694.985 116.892 695.381 116.892 695.823C116.892 696.287 116.798 696.706 116.61 697.081C116.423 697.456 116.155 697.776 115.806 698.042C115.457 698.308 115.037 698.513 114.548 698.659C114.063 698.8 113.522 698.87 112.923 698.87C112.397 698.87 111.879 698.797 111.368 698.651C110.863 698.506 110.402 698.287 109.985 697.995C109.574 697.703 109.243 697.344 108.993 696.917C108.748 696.485 108.626 695.985 108.626 695.417H110.126C110.126 695.808 110.201 696.144 110.353 696.425C110.504 696.701 110.709 696.93 110.97 697.112C111.235 697.295 111.535 697.43 111.868 697.519C112.207 697.602 112.558 697.644 112.923 697.644C113.449 697.644 113.894 697.571 114.259 697.425C114.623 697.279 114.899 697.071 115.087 696.8C115.28 696.529 115.376 696.209 115.376 695.839ZM122.212 698.714H119.837L119.852 697.487H122.212C123.024 697.487 123.701 697.318 124.243 696.979C124.784 696.636 125.191 696.157 125.462 695.542C125.738 694.922 125.876 694.198 125.876 693.37V692.675C125.876 692.024 125.798 691.446 125.641 690.94C125.485 690.43 125.256 690 124.954 689.651C124.652 689.297 124.282 689.029 123.844 688.847C123.412 688.664 122.915 688.573 122.352 688.573H119.79V687.339H122.352C123.097 687.339 123.777 687.464 124.391 687.714C125.006 687.959 125.534 688.315 125.977 688.784C126.425 689.248 126.769 689.81 127.008 690.472C127.248 691.128 127.368 691.868 127.368 692.69V693.37C127.368 694.193 127.248 694.935 127.008 695.597C126.769 696.253 126.423 696.813 125.969 697.276C125.521 697.74 124.98 698.097 124.344 698.347C123.714 698.591 123.003 698.714 122.212 698.714ZM120.641 687.339V698.714H119.133V687.339H120.641ZM137.039 692.612V693.972H129.243V692.612H137.039ZM133.868 689.292V697.573H132.422V689.292H133.868ZM55.4869 707.339V718.714H53.9791V707.339H55.4869ZM67.2991 707.339V718.714H65.7834L60.0569 709.94V718.714H58.5491V707.339H60.0569L65.8069 716.136V707.339H67.2991ZM76.3534 715.839C76.3534 715.573 76.3118 715.339 76.2284 715.136C76.1503 714.927 76.0097 714.74 75.8066 714.573C75.6086 714.407 75.3326 714.248 74.9784 714.097C74.6295 713.946 74.1868 713.792 73.6503 713.636C73.0878 713.469 72.58 713.284 72.1269 713.081C71.6738 712.873 71.2857 712.636 70.9628 712.37C70.6399 712.104 70.3925 711.8 70.2206 711.456C70.0488 711.112 69.9628 710.719 69.9628 710.276C69.9628 709.834 70.054 709.425 70.2363 709.05C70.4185 708.675 70.679 708.349 71.0175 708.073C71.3613 707.792 71.7701 707.573 72.2441 707.417C72.718 707.261 73.2467 707.183 73.83 707.183C74.6842 707.183 75.4081 707.347 76.0019 707.675C76.6008 707.998 77.0566 708.422 77.3691 708.948C77.6816 709.469 77.8378 710.026 77.8378 710.62H76.3378C76.3378 710.193 76.2467 709.815 76.0644 709.487C75.8821 709.154 75.606 708.894 75.2363 708.706C74.8665 708.513 74.3977 708.417 73.83 708.417C73.2935 708.417 72.8508 708.498 72.5019 708.659C72.1529 708.821 71.8925 709.039 71.7206 709.315C71.554 709.591 71.4706 709.907 71.4706 710.261C71.4706 710.5 71.5201 710.719 71.6191 710.917C71.7232 711.11 71.8821 711.289 72.0956 711.456C72.3144 711.623 72.5904 711.776 72.9238 711.917C73.2623 712.058 73.6659 712.193 74.1347 712.323C74.7805 712.506 75.3378 712.709 75.8066 712.933C76.2753 713.157 76.6607 713.409 76.9628 713.69C77.2701 713.966 77.4967 714.282 77.6425 714.636C77.7935 714.985 77.8691 715.381 77.8691 715.823C77.8691 716.287 77.7753 716.706 77.5878 717.081C77.4003 717.456 77.1321 717.776 76.7831 718.042C76.4342 718.308 76.0149 718.513 75.5253 718.659C75.0409 718.8 74.4993 718.87 73.9003 718.87C73.3743 718.87 72.856 718.797 72.3456 718.651C71.8404 718.506 71.3795 718.287 70.9628 717.995C70.5514 717.703 70.2206 717.344 69.9706 716.917C69.7258 716.485 69.6034 715.985 69.6034 715.417H71.1034C71.1034 715.808 71.179 716.144 71.33 716.425C71.481 716.701 71.6868 716.93 71.9472 717.112C72.2128 717.295 72.5123 717.43 72.8456 717.519C73.1842 717.602 73.5357 717.644 73.9003 717.644C74.4264 717.644 74.8717 717.571 75.2363 717.425C75.6008 717.279 75.8769 717.071 76.0644 716.8C76.2571 716.529 76.3534 716.209 76.3534 715.839ZM86.6188 707.339H88.1188V715.034C88.1188 715.888 87.9286 716.599 87.5484 717.167C87.1682 717.735 86.663 718.162 86.0328 718.448C85.4078 718.729 84.7281 718.87 83.9938 718.87C83.2229 718.87 82.525 718.729 81.9 718.448C81.2802 718.162 80.788 717.735 80.4234 717.167C80.0641 716.599 79.8844 715.888 79.8844 715.034V707.339H81.3766V715.034C81.3766 715.628 81.4859 716.118 81.7047 716.503C81.9234 716.888 82.2281 717.175 82.6188 717.362C83.0146 717.55 83.4729 717.644 83.9938 717.644C84.5198 717.644 84.9781 717.55 85.3688 717.362C85.7646 717.175 86.0719 716.888 86.2906 716.503C86.5094 716.118 86.6188 715.628 86.6188 715.034V707.339ZM90.8059 707.339H94.5716C95.4257 707.339 96.1471 707.469 96.7356 707.729C97.3294 707.99 97.7799 708.375 98.0872 708.886C98.3997 709.391 98.5559 710.013 98.5559 710.753C98.5559 711.274 98.4492 711.75 98.2356 712.183C98.0273 712.61 97.7252 712.974 97.3294 713.276C96.9388 713.573 96.47 713.795 95.9231 713.94L95.5013 714.104H91.9622L91.9466 712.878H94.6184C95.1601 712.878 95.6106 712.784 95.97 712.597C96.3294 712.404 96.6002 712.146 96.7825 711.823C96.9648 711.5 97.0559 711.144 97.0559 710.753C97.0559 710.315 96.97 709.933 96.7981 709.604C96.6263 709.276 96.3554 709.024 95.9856 708.847C95.621 708.664 95.1497 708.573 94.5716 708.573H92.3138V718.714H90.8059V707.339ZM97.4544 718.714L94.6888 713.558L96.2591 713.55L99.0638 718.62V718.714H97.4544ZM105.196 708.347L101.431 718.714H99.8916L104.228 707.339H105.22L105.196 708.347ZM108.353 718.714L104.579 708.347L104.556 707.339H105.548L109.899 718.714H108.353ZM108.157 714.503V715.737H101.767V714.503H108.157ZM120.493 707.339V718.714H118.977L113.251 709.94V718.714H111.743V707.339H113.251L119.001 716.136V707.339H120.493ZM130.352 715.097H131.852C131.774 715.815 131.568 716.459 131.235 717.026C130.901 717.594 130.43 718.045 129.821 718.378C129.211 718.706 128.451 718.87 127.539 718.87C126.873 718.87 126.266 718.745 125.719 718.495C125.177 718.245 124.711 717.891 124.321 717.433C123.93 716.969 123.628 716.414 123.414 715.769C123.206 715.118 123.102 714.394 123.102 713.597V712.464C123.102 711.667 123.206 710.946 123.414 710.3C123.628 709.649 123.933 709.091 124.328 708.628C124.729 708.164 125.211 707.808 125.774 707.558C126.336 707.308 126.969 707.183 127.672 707.183C128.532 707.183 129.258 707.344 129.852 707.667C130.446 707.99 130.907 708.438 131.235 709.011C131.568 709.578 131.774 710.237 131.852 710.987H130.352C130.279 710.456 130.144 710 129.946 709.62C129.748 709.235 129.466 708.938 129.102 708.729C128.737 708.521 128.261 708.417 127.672 708.417C127.167 708.417 126.722 708.513 126.336 708.706C125.956 708.899 125.636 709.172 125.375 709.526C125.12 709.881 124.927 710.305 124.797 710.8C124.667 711.295 124.602 711.844 124.602 712.448V713.597C124.602 714.154 124.659 714.677 124.774 715.167C124.894 715.657 125.073 716.086 125.313 716.456C125.552 716.826 125.857 717.118 126.227 717.331C126.597 717.539 127.034 717.644 127.539 717.644C128.18 717.644 128.69 717.542 129.071 717.339C129.451 717.136 129.737 716.844 129.93 716.464C130.128 716.084 130.269 715.628 130.352 715.097ZM141.453 717.487V718.714H135.43V717.487H141.453ZM135.734 707.339V718.714H134.227V707.339H135.734ZM140.656 712.229V713.456H135.43V712.229H140.656ZM141.375 707.339V708.573H135.43V707.339H141.375Z" fill="white"/>
<circle r="19.5" transform="matrix(-4.37114e-08 1 1 4.37114e-08 187 829.143)" fill="url(#paint13_linear_945_147742)" stroke="url(#paint14_linear_945_147742)"/>
<path d="M241.188 827.383H242.688C242.609 828.102 242.404 828.745 242.07 829.312C241.737 829.88 241.266 830.331 240.656 830.664C240.047 830.992 239.286 831.156 238.375 831.156C237.708 831.156 237.102 831.031 236.555 830.781C236.013 830.531 235.547 830.177 235.156 829.719C234.766 829.255 234.464 828.701 234.25 828.055C234.042 827.404 233.938 826.68 233.938 825.883V824.75C233.938 823.953 234.042 823.232 234.25 822.586C234.464 821.935 234.768 821.378 235.164 820.914C235.565 820.451 236.047 820.094 236.609 819.844C237.172 819.594 237.805 819.469 238.508 819.469C239.367 819.469 240.094 819.63 240.688 819.953C241.281 820.276 241.742 820.724 242.07 821.297C242.404 821.865 242.609 822.523 242.688 823.273H241.188C241.115 822.742 240.979 822.286 240.781 821.906C240.583 821.521 240.302 821.224 239.938 821.016C239.573 820.807 239.096 820.703 238.508 820.703C238.003 820.703 237.557 820.799 237.172 820.992C236.792 821.185 236.471 821.458 236.211 821.812C235.956 822.167 235.763 822.591 235.633 823.086C235.503 823.581 235.438 824.13 235.438 824.734V825.883C235.438 826.44 235.495 826.964 235.609 827.453C235.729 827.943 235.909 828.372 236.148 828.742C236.388 829.112 236.693 829.404 237.062 829.617C237.432 829.826 237.87 829.93 238.375 829.93C239.016 829.93 239.526 829.828 239.906 829.625C240.286 829.422 240.573 829.13 240.766 828.75C240.964 828.37 241.104 827.914 241.188 827.383ZM252.289 829.773V831H246.265V829.773H252.289ZM246.57 819.625V831H245.062V819.625H246.57ZM251.492 824.516V825.742H246.265V824.516H251.492ZM252.211 819.625V820.859H246.265V819.625H252.211ZM255.452 819.625L258.187 823.984L260.921 819.625H262.679L259.085 825.258L262.765 831H260.992L258.187 826.555L255.382 831H253.609L257.288 825.258L253.695 819.625H255.452ZM238.516 846.539H235.477V845.312H238.516C239.104 845.312 239.581 845.219 239.945 845.031C240.31 844.844 240.576 844.583 240.742 844.25C240.914 843.917 241 843.536 241 843.109C241 842.719 240.914 842.352 240.742 842.008C240.576 841.664 240.31 841.388 239.945 841.18C239.581 840.966 239.104 840.859 238.516 840.859H235.828V851H234.32V839.625H238.516C239.375 839.625 240.102 839.773 240.695 840.07C241.289 840.367 241.74 840.779 242.047 841.305C242.354 841.826 242.508 842.422 242.508 843.094C242.508 843.823 242.354 844.445 242.047 844.961C241.74 845.477 241.289 845.87 240.695 846.141C240.102 846.406 239.375 846.539 238.516 846.539ZM247.867 840.633L244.101 851H242.562L246.898 839.625H247.89L247.867 840.633ZM251.023 851L247.25 840.633L247.226 839.625H248.218L252.57 851H251.023ZM250.828 846.789V848.023H244.437V846.789H250.828ZM254.413 839.625H258.179C259.033 839.625 259.755 839.755 260.343 840.016C260.937 840.276 261.387 840.661 261.695 841.172C262.007 841.677 262.163 842.299 262.163 843.039C262.163 843.56 262.057 844.036 261.843 844.469C261.635 844.896 261.333 845.26 260.937 845.562C260.546 845.859 260.077 846.081 259.531 846.227L259.109 846.391H255.57L255.554 845.164H258.226C258.768 845.164 259.218 845.07 259.577 844.883C259.937 844.69 260.208 844.432 260.39 844.109C260.572 843.786 260.663 843.43 260.663 843.039C260.663 842.602 260.577 842.219 260.406 841.891C260.234 841.562 259.963 841.31 259.593 841.133C259.229 840.951 258.757 840.859 258.179 840.859H255.921V851H254.413V839.625ZM261.062 851L258.296 845.844L259.867 845.836L262.671 850.906V851H261.062ZM268.171 839.625V851H266.687V839.625H268.171ZM271.827 839.625V840.859H263.038V839.625H271.827ZM282.585 839.625V851H281.069L275.342 842.227V851H273.835V839.625H275.342L281.092 848.422V839.625H282.585ZM292.803 849.773V851H286.78V849.773H292.803ZM287.084 839.625V851H285.577V839.625H287.084ZM292.006 844.516V845.742H286.78V844.516H292.006ZM292.725 839.625V840.859H286.78V839.625H292.725ZM294.99 839.625H298.756C299.61 839.625 300.331 839.755 300.92 840.016C301.514 840.276 301.964 840.661 302.272 841.172C302.584 841.677 302.74 842.299 302.74 843.039C302.74 843.56 302.634 844.036 302.42 844.469C302.212 844.896 301.91 845.26 301.514 845.562C301.123 845.859 300.654 846.081 300.107 846.227L299.686 846.391H296.147L296.131 845.164H298.803C299.344 845.164 299.795 845.07 300.154 844.883C300.514 844.69 300.785 844.432 300.967 844.109C301.149 843.786 301.24 843.43 301.24 843.039C301.24 842.602 301.154 842.219 300.982 841.891C300.811 841.562 300.54 841.31 300.17 841.133C299.805 840.951 299.334 840.859 298.756 840.859H296.498V851H294.99V839.625ZM301.639 851L298.873 845.844L300.443 845.836L303.248 850.906V851H301.639ZM311.232 848.125C311.232 847.859 311.191 847.625 311.107 847.422C311.029 847.214 310.888 847.026 310.685 846.859C310.487 846.693 310.211 846.534 309.857 846.383C309.508 846.232 309.066 846.078 308.529 845.922C307.967 845.755 307.459 845.57 307.006 845.367C306.552 845.159 306.164 844.922 305.842 844.656C305.519 844.391 305.271 844.086 305.099 843.742C304.927 843.398 304.842 843.005 304.842 842.562C304.842 842.12 304.933 841.711 305.115 841.336C305.297 840.961 305.558 840.635 305.896 840.359C306.24 840.078 306.649 839.859 307.123 839.703C307.597 839.547 308.125 839.469 308.709 839.469C309.563 839.469 310.287 839.633 310.881 839.961C311.48 840.284 311.935 840.708 312.248 841.234C312.56 841.755 312.717 842.312 312.717 842.906H311.217C311.217 842.479 311.125 842.102 310.943 841.773C310.761 841.44 310.485 841.18 310.115 840.992C309.745 840.799 309.276 840.703 308.709 840.703C308.172 840.703 307.73 840.784 307.381 840.945C307.032 841.107 306.771 841.326 306.599 841.602C306.433 841.878 306.349 842.193 306.349 842.547C306.349 842.786 306.399 843.005 306.498 843.203C306.602 843.396 306.761 843.576 306.974 843.742C307.193 843.909 307.469 844.062 307.802 844.203C308.141 844.344 308.545 844.479 309.013 844.609C309.659 844.792 310.217 844.995 310.685 845.219C311.154 845.443 311.539 845.695 311.842 845.977C312.149 846.253 312.375 846.568 312.521 846.922C312.672 847.271 312.748 847.667 312.748 848.109C312.748 848.573 312.654 848.992 312.467 849.367C312.279 849.742 312.011 850.062 311.662 850.328C311.313 850.594 310.894 850.799 310.404 850.945C309.92 851.086 309.378 851.156 308.779 851.156C308.253 851.156 307.735 851.083 307.224 850.938C306.719 850.792 306.258 850.573 305.842 850.281C305.43 849.99 305.099 849.63 304.849 849.203C304.605 848.771 304.482 848.271 304.482 847.703H305.982C305.982 848.094 306.058 848.43 306.209 848.711C306.36 848.987 306.566 849.216 306.826 849.398C307.092 849.581 307.391 849.716 307.724 849.805C308.063 849.888 308.414 849.93 308.779 849.93C309.305 849.93 309.75 849.857 310.115 849.711C310.48 849.565 310.756 849.357 310.943 849.086C311.136 848.815 311.232 848.495 311.232 848.125ZM322.419 844.516V845.742H316.263V844.516H322.419ZM316.497 839.625V851H314.99V839.625H316.497ZM323.732 839.625V851H322.232V839.625H323.732ZM328.349 839.625V851H326.841V839.625H328.349ZM335.606 846.539H332.567V845.312H335.606C336.195 845.312 336.671 845.219 337.036 845.031C337.401 844.844 337.666 844.583 337.833 844.25C338.005 843.917 338.091 843.536 338.091 843.109C338.091 842.719 338.005 842.352 337.833 842.008C337.666 841.664 337.401 841.388 337.036 841.18C336.671 840.966 336.195 840.859 335.606 840.859H332.919V851H331.411V839.625H335.606C336.466 839.625 337.192 839.773 337.786 840.07C338.38 840.367 338.83 840.779 339.137 841.305C339.445 841.826 339.598 842.422 339.598 843.094C339.598 843.823 339.445 844.445 339.137 844.961C338.83 845.477 338.38 845.87 337.786 846.141C337.192 846.406 336.466 846.539 335.606 846.539Z" fill="white"/>
<circle cx="187" cy="960.571" r="19.5" transform="rotate(90 187 960.571)" fill="url(#paint15_linear_945_147742)" stroke="url(#paint16_linear_945_147742)"/>
<path d="M38.1359 953.232V964.607H36.6203L30.8938 955.834V964.607H29.3859V953.232H30.8938L36.6438 962.029V953.232H38.1359ZM48.3544 963.381V964.607H42.3309V963.381H48.3544ZM42.6356 953.232V964.607H41.1278V953.232H42.6356ZM47.5575 958.123V959.35H42.3309V958.123H47.5575ZM48.2763 953.232V954.467H42.3309V953.232H48.2763ZM59.2994 958.561V959.279C59.2994 960.133 59.1926 960.899 58.9791 961.576C58.7655 962.253 58.4582 962.829 58.0572 963.303C57.6561 963.777 57.1744 964.139 56.6119 964.389C56.0546 964.639 55.4296 964.764 54.7369 964.764C54.065 964.764 53.4478 964.639 52.8853 964.389C52.328 964.139 51.8436 963.777 51.4322 963.303C51.0259 962.829 50.7108 962.253 50.4869 961.576C50.2629 960.899 50.1509 960.133 50.1509 959.279V958.561C50.1509 957.706 50.2603 956.943 50.4791 956.271C50.703 955.594 51.0181 955.019 51.4244 954.545C51.8306 954.066 52.3124 953.701 52.8697 953.451C53.4322 953.201 54.0494 953.076 54.7213 953.076C55.414 953.076 56.039 953.201 56.5963 953.451C57.1588 953.701 57.6405 954.066 58.0416 954.545C58.4478 955.019 58.7577 955.594 58.9713 956.271C59.19 956.943 59.2994 957.706 59.2994 958.561ZM57.8072 959.279V958.545C57.8072 957.868 57.7369 957.269 57.5963 956.748C57.4608 956.227 57.2603 955.79 56.9947 955.436C56.7291 955.081 56.4035 954.813 56.0181 954.631C55.6379 954.449 55.2056 954.357 54.7213 954.357C54.2525 954.357 53.828 954.449 53.4478 954.631C53.0728 954.813 52.7499 955.081 52.4791 955.436C52.2134 955.79 52.0077 956.227 51.8619 956.748C51.716 957.269 51.6431 957.868 51.6431 958.545V959.279C51.6431 959.962 51.716 960.566 51.8619 961.092C52.0077 961.613 52.216 962.053 52.4869 962.412C52.7629 962.766 53.0884 963.035 53.4634 963.217C53.8436 963.399 54.2681 963.49 54.7369 963.49C55.2265 963.49 55.6614 963.399 56.0416 963.217C56.4218 963.035 56.7421 962.766 57.0025 962.412C57.2681 962.053 57.4686 961.613 57.6041 961.092C57.7395 960.566 57.8072 959.962 57.8072 959.279ZM65.9319 959.287H63.0491L63.0334 958.076H65.6506C66.0829 958.076 66.4605 958.003 66.7834 957.857C67.1064 957.712 67.3564 957.503 67.5334 957.232C67.7157 956.956 67.8069 956.628 67.8069 956.248C67.8069 955.831 67.7261 955.493 67.5647 955.232C67.4084 954.967 67.1663 954.774 66.8381 954.654C66.5152 954.529 66.1038 954.467 65.6038 954.467H63.385V964.607H61.8772V953.232H65.6038C66.1871 953.232 66.7079 953.292 67.1663 953.412C67.6246 953.527 68.0126 953.709 68.3303 953.959C68.6532 954.204 68.898 954.516 69.0647 954.896C69.2314 955.277 69.3147 955.732 69.3147 956.264C69.3147 956.732 69.1949 957.157 68.9553 957.537C68.7157 957.912 68.3824 958.219 67.9553 958.459C67.5334 958.699 67.0386 958.852 66.4709 958.92L65.9319 959.287ZM65.8616 964.607H62.4553L63.3069 963.381H65.8616C66.3407 963.381 66.747 963.298 67.0803 963.131C67.4189 962.964 67.6767 962.73 67.8538 962.428C68.0308 962.12 68.1194 961.758 68.1194 961.342C68.1194 960.92 68.0439 960.555 67.8928 960.248C67.7418 959.941 67.5048 959.704 67.1819 959.537C66.859 959.37 66.4423 959.287 65.9319 959.287H63.7834L63.7991 958.076H66.7366L67.0569 958.514C67.6038 958.561 68.0673 958.717 68.4475 958.982C68.8277 959.243 69.1168 959.576 69.3147 959.982C69.5178 960.389 69.6194 960.837 69.6194 961.326C69.6194 962.035 69.4631 962.633 69.1506 963.123C68.8433 963.607 68.4084 963.977 67.8459 964.232C67.2834 964.482 66.622 964.607 65.8616 964.607ZM76.3769 954.24L72.6113 964.607H71.0722L75.4081 953.232H76.4003L76.3769 954.24ZM79.5331 964.607L75.7597 954.24L75.7363 953.232H76.7284L81.08 964.607H79.5331ZM79.3378 960.396V961.631H72.9472V960.396H79.3378ZM91.6734 953.232V964.607H90.1578L84.4313 955.834V964.607H82.9234V953.232H84.4313L90.1813 962.029V953.232H91.6734ZM96.1731 953.232V964.607H94.6653V953.232H96.1731ZM103.04 953.232L98.3138 958.537L95.6575 961.295L95.4075 959.686L97.4075 957.482L101.228 953.232H103.04ZM101.587 964.607L97.3763 959.061L98.2747 957.865L103.384 964.607H101.587ZM113.532 954.24L109.766 964.607H108.227L112.563 953.232H113.555L113.532 954.24ZM116.688 964.607L112.915 954.24L112.891 953.232H113.883L118.235 964.607H116.688ZM116.493 960.396V961.631H110.102V960.396H116.493ZM128.828 953.232V964.607H127.313L121.586 955.834V964.607H120.078V953.232H121.586L127.336 962.029V953.232H128.828ZM134.898 964.607H132.523L132.539 963.381H134.898C135.711 963.381 136.388 963.212 136.93 962.873C137.471 962.529 137.878 962.05 138.148 961.436C138.424 960.816 138.562 960.092 138.562 959.264V958.568C138.562 957.917 138.484 957.339 138.328 956.834C138.172 956.324 137.943 955.894 137.641 955.545C137.339 955.191 136.969 954.923 136.531 954.74C136.099 954.558 135.602 954.467 135.039 954.467H132.477V953.232H135.039C135.784 953.232 136.464 953.357 137.078 953.607C137.693 953.852 138.221 954.209 138.664 954.678C139.112 955.141 139.456 955.704 139.695 956.365C139.935 957.021 140.055 957.761 140.055 958.584V959.264C140.055 960.087 139.935 960.829 139.695 961.49C139.456 962.146 139.109 962.706 138.656 963.17C138.208 963.633 137.667 963.99 137.031 964.24C136.401 964.485 135.69 964.607 134.898 964.607ZM133.328 953.232V964.607H131.82V953.232H133.328ZM47.3153 973.232V984.607H45.7997L40.0731 975.834V984.607H38.5653V973.232H40.0731L45.8231 982.029V973.232H47.3153ZM57.5338 983.381V984.607H51.5103V983.381H57.5338ZM51.815 973.232V984.607H50.3072V973.232H51.815ZM56.7369 978.123V979.35H51.5103V978.123H56.7369ZM57.4556 973.232V974.467H51.5103V973.232H57.4556ZM68.4788 978.561V979.279C68.4788 980.133 68.372 980.899 68.1584 981.576C67.9449 982.253 67.6376 982.829 67.2366 983.303C66.8355 983.777 66.3538 984.139 65.7913 984.389C65.234 984.639 64.609 984.764 63.9163 984.764C63.2444 984.764 62.6272 984.639 62.0647 984.389C61.5074 984.139 61.023 983.777 60.6116 983.303C60.2053 982.829 59.8902 982.253 59.6663 981.576C59.4423 980.899 59.3303 980.133 59.3303 979.279V978.561C59.3303 977.706 59.4397 976.943 59.6584 976.271C59.8824 975.594 60.1975 975.019 60.6038 974.545C61.01 974.066 61.4918 973.701 62.0491 973.451C62.6116 973.201 63.2288 973.076 63.9006 973.076C64.5933 973.076 65.2183 973.201 65.7756 973.451C66.3381 973.701 66.8199 974.066 67.2209 974.545C67.6272 975.019 67.9371 975.594 68.1506 976.271C68.3694 976.943 68.4788 977.706 68.4788 978.561ZM66.9866 979.279V978.545C66.9866 977.868 66.9163 977.269 66.7756 976.748C66.6402 976.227 66.4397 975.79 66.1741 975.436C65.9084 975.081 65.5829 974.813 65.1975 974.631C64.8173 974.449 64.385 974.357 63.9006 974.357C63.4319 974.357 63.0074 974.449 62.6272 974.631C62.2522 974.813 61.9293 975.081 61.6584 975.436C61.3928 975.79 61.1871 976.227 61.0413 976.748C60.8954 977.269 60.8225 977.868 60.8225 978.545V979.279C60.8225 979.962 60.8954 980.566 61.0413 981.092C61.1871 981.613 61.3954 982.053 61.6663 982.412C61.9423 982.766 62.2678 983.035 62.6428 983.217C63.023 983.399 63.4475 983.49 63.9163 983.49C64.4058 983.49 64.8407 983.399 65.2209 983.217C65.6011 983.035 65.9215 982.766 66.1819 982.412C66.4475 982.053 66.648 981.613 66.7834 981.092C66.9189 980.566 66.9866 979.962 66.9866 979.279ZM75.1113 979.287H72.2284L72.2128 978.076H74.83C75.2623 978.076 75.6399 978.003 75.9628 977.857C76.2857 977.712 76.5357 977.503 76.7128 977.232C76.8951 976.956 76.9863 976.628 76.9863 976.248C76.9863 975.831 76.9055 975.493 76.7441 975.232C76.5878 974.967 76.3456 974.774 76.0175 974.654C75.6946 974.529 75.2831 974.467 74.7831 974.467H72.5644V984.607H71.0566V973.232H74.7831C75.3665 973.232 75.8873 973.292 76.3456 973.412C76.804 973.527 77.192 973.709 77.5097 973.959C77.8326 974.204 78.0774 974.516 78.2441 974.896C78.4107 975.277 78.4941 975.732 78.4941 976.264C78.4941 976.732 78.3743 977.157 78.1347 977.537C77.8951 977.912 77.5618 978.219 77.1347 978.459C76.7128 978.699 76.218 978.852 75.6503 978.92L75.1113 979.287ZM75.0409 984.607H71.6347L72.4863 983.381H75.0409C75.5201 983.381 75.9264 983.298 76.2597 983.131C76.5982 982.964 76.856 982.73 77.0331 982.428C77.2102 982.12 77.2988 981.758 77.2988 981.342C77.2988 980.92 77.2232 980.555 77.0722 980.248C76.9211 979.941 76.6842 979.704 76.3613 979.537C76.0383 979.37 75.6217 979.287 75.1113 979.287H72.9628L72.9784 978.076H75.9159L76.2363 978.514C76.7831 978.561 77.2467 978.717 77.6269 978.982C78.0071 979.243 78.2961 979.576 78.4941 979.982C78.6972 980.389 78.7988 980.837 78.7988 981.326C78.7988 982.035 78.6425 982.633 78.33 983.123C78.0227 983.607 77.5878 983.977 77.0253 984.232C76.4628 984.482 75.8014 984.607 75.0409 984.607ZM81.3453 973.232H85.1109C85.9651 973.232 86.6865 973.363 87.275 973.623C87.8688 973.883 88.3193 974.269 88.6266 974.779C88.9391 975.285 89.0953 975.907 89.0953 976.646C89.0953 977.167 88.9885 977.644 88.775 978.076C88.5667 978.503 88.2646 978.868 87.8688 979.17C87.4781 979.467 87.0094 979.688 86.4625 979.834L86.0406 979.998H82.5016L82.4859 978.771H85.1578C85.6995 978.771 86.15 978.678 86.5094 978.49C86.8688 978.298 87.1396 978.04 87.3219 977.717C87.5042 977.394 87.5953 977.037 87.5953 976.646C87.5953 976.209 87.5094 975.826 87.3375 975.498C87.1656 975.17 86.8948 974.917 86.525 974.74C86.1604 974.558 85.6891 974.467 85.1109 974.467H82.8531V984.607H81.3453V973.232ZM87.9938 984.607L85.2281 979.451L86.7984 979.443L89.6031 984.514V984.607H87.9938ZM100.283 978.561V979.279C100.283 980.133 100.176 980.899 99.9622 981.576C99.7486 982.253 99.4414 982.829 99.0403 983.303C98.6393 983.777 98.1575 984.139 97.595 984.389C97.0377 984.639 96.4127 984.764 95.72 984.764C95.0481 984.764 94.4309 984.639 93.8684 984.389C93.3111 984.139 92.8268 983.777 92.4153 983.303C92.0091 982.829 91.694 982.253 91.47 981.576C91.246 980.899 91.1341 980.133 91.1341 979.279V978.561C91.1341 977.706 91.2434 976.943 91.4622 976.271C91.6861 975.594 92.0013 975.019 92.4075 974.545C92.8138 974.066 93.2955 973.701 93.8528 973.451C94.4153 973.201 95.0325 973.076 95.7044 973.076C96.3971 973.076 97.0221 973.201 97.5794 973.451C98.1419 973.701 98.6236 974.066 99.0247 974.545C99.4309 975.019 99.7408 975.594 99.9544 976.271C100.173 976.943 100.283 977.706 100.283 978.561ZM98.7903 979.279V978.545C98.7903 977.868 98.72 977.269 98.5794 976.748C98.444 976.227 98.2434 975.79 97.9778 975.436C97.7122 975.081 97.3867 974.813 97.0013 974.631C96.621 974.449 96.1888 974.357 95.7044 974.357C95.2356 974.357 94.8111 974.449 94.4309 974.631C94.0559 974.813 93.733 975.081 93.4622 975.436C93.1966 975.79 92.9908 976.227 92.845 976.748C92.6992 977.269 92.6263 977.868 92.6263 978.545V979.279C92.6263 979.962 92.6992 980.566 92.845 981.092C92.9908 981.613 93.1992 982.053 93.47 982.412C93.746 982.766 94.0716 983.035 94.4466 983.217C94.8268 983.399 95.2513 983.49 95.72 983.49C96.2096 983.49 96.6445 983.399 97.0247 983.217C97.4049 983.035 97.7252 982.766 97.9856 982.412C98.2513 982.053 98.4518 981.613 98.5872 981.092C98.7226 980.566 98.7903 979.962 98.7903 979.279ZM104.368 973.232V984.607H102.86V973.232H104.368ZM111.235 973.232L106.509 978.537L103.853 981.295L103.603 979.686L105.603 977.482L109.423 973.232H111.235ZM109.782 984.607L105.571 979.061L106.47 977.865L111.579 984.607H109.782ZM120.454 983.381V984.607H114.43V983.381H120.454ZM114.735 973.232V984.607H113.227V973.232H114.735ZM119.657 978.123V979.35H114.43V978.123H119.657ZM120.376 973.232V974.467H114.43V973.232H120.376ZM122.641 973.232H126.407C127.261 973.232 127.982 973.363 128.571 973.623C129.164 973.883 129.615 974.269 129.922 974.779C130.235 975.285 130.391 975.907 130.391 976.646C130.391 977.167 130.284 977.644 130.071 978.076C129.862 978.503 129.56 978.868 129.164 979.17C128.774 979.467 128.305 979.688 127.758 979.834L127.336 979.998H123.797L123.782 978.771H126.453C126.995 978.771 127.446 978.678 127.805 978.49C128.164 978.298 128.435 978.04 128.618 977.717C128.8 977.394 128.891 977.037 128.891 976.646C128.891 976.209 128.805 975.826 128.633 975.498C128.461 975.17 128.19 974.917 127.821 974.74C127.456 974.558 126.985 974.467 126.407 974.467H124.149V984.607H122.641V973.232ZM129.289 984.607L126.524 979.451L128.094 979.443L130.899 984.514V984.607H129.289ZM138.883 981.732C138.883 981.467 138.841 981.232 138.758 981.029C138.68 980.821 138.539 980.633 138.336 980.467C138.138 980.3 137.862 980.141 137.508 979.99C137.159 979.839 136.716 979.686 136.18 979.529C135.617 979.363 135.109 979.178 134.656 978.975C134.203 978.766 133.815 978.529 133.492 978.264C133.169 977.998 132.922 977.693 132.75 977.35C132.578 977.006 132.492 976.613 132.492 976.17C132.492 975.727 132.583 975.318 132.766 974.943C132.948 974.568 133.208 974.243 133.547 973.967C133.891 973.686 134.299 973.467 134.773 973.311C135.247 973.154 135.776 973.076 136.359 973.076C137.214 973.076 137.938 973.24 138.531 973.568C139.13 973.891 139.586 974.316 139.898 974.842C140.211 975.363 140.367 975.92 140.367 976.514H138.867C138.867 976.087 138.776 975.709 138.594 975.381C138.411 975.048 138.135 974.787 137.766 974.6C137.396 974.407 136.927 974.311 136.359 974.311C135.823 974.311 135.38 974.391 135.031 974.553C134.682 974.714 134.422 974.933 134.25 975.209C134.083 975.485 134 975.8 134 976.154C134 976.394 134.049 976.613 134.148 976.811C134.253 977.003 134.411 977.183 134.625 977.35C134.844 977.516 135.12 977.67 135.453 977.811C135.792 977.951 136.195 978.087 136.664 978.217C137.31 978.399 137.867 978.602 138.336 978.826C138.805 979.05 139.19 979.303 139.492 979.584C139.799 979.86 140.026 980.175 140.172 980.529C140.323 980.878 140.398 981.274 140.398 981.717C140.398 982.18 140.305 982.6 140.117 982.975C139.93 983.35 139.661 983.67 139.312 983.936C138.964 984.201 138.544 984.407 138.055 984.553C137.57 984.693 137.029 984.764 136.43 984.764C135.904 984.764 135.385 984.691 134.875 984.545C134.37 984.399 133.909 984.18 133.492 983.889C133.081 983.597 132.75 983.238 132.5 982.811C132.255 982.378 132.133 981.878 132.133 981.311H133.633C133.633 981.701 133.708 982.037 133.859 982.318C134.01 982.594 134.216 982.824 134.477 983.006C134.742 983.188 135.042 983.324 135.375 983.412C135.714 983.495 136.065 983.537 136.43 983.537C136.956 983.537 137.401 983.464 137.766 983.318C138.13 983.173 138.406 982.964 138.594 982.693C138.786 982.423 138.883 982.102 138.883 981.732Z" fill="white"/>
<defs>
<linearGradient id="paint0_linear_945_147742" x1="0" y1="0" x2="48.9654" y2="30.7186" gradientUnits="userSpaceOnUse">
<stop stop-color="#011845"/>
<stop offset="1" stop-color="#15141D"/>
</linearGradient>
<linearGradient id="paint1_linear_945_147742" x1="0" y1="0" x2="40.8582" y2="0.896751" gradientUnits="userSpaceOnUse">
<stop stop-color="#28A0F0"/>
<stop offset="1" stop-color="#0678C4" stop-opacity="0.9917"/>
</linearGradient>
<linearGradient id="paint2_linear_945_147742" x1="0" y1="0" x2="16.3433" y2="0.358701" gradientUnits="userSpaceOnUse">
<stop stop-color="#28A0F0"/>
<stop offset="1" stop-color="#0678C4" stop-opacity="0.9917"/>
</linearGradient>
<linearGradient id="paint3_linear_945_147742" x1="167" y1="131.429" x2="215.965" y2="162.147" gradientUnits="userSpaceOnUse">
<stop stop-color="#011845"/>
<stop offset="1" stop-color="#15141D"/>
</linearGradient>
<linearGradient id="paint4_linear_945_147742" x1="167" y1="131.429" x2="207.858" y2="132.325" gradientUnits="userSpaceOnUse">
<stop stop-color="#28A0F0"/>
<stop offset="1" stop-color="#0678C4" stop-opacity="0.9917"/>
</linearGradient>
<linearGradient id="paint5_linear_945_147742" x1="0" y1="0" x2="48.9654" y2="30.7186" gradientUnits="userSpaceOnUse">
<stop stop-color="#011845"/>
<stop offset="1" stop-color="#15141D"/>
</linearGradient>
<linearGradient id="paint6_linear_945_147742" x1="0" y1="0" x2="40.8582" y2="0.896751" gradientUnits="userSpaceOnUse">
<stop stop-color="#28A0F0"/>
<stop offset="1" stop-color="#0678C4" stop-opacity="0.9917"/>
</linearGradient>
<linearGradient id="paint7_linear_945_147742" x1="167" y1="404.25" x2="215.965" y2="434.969" gradientUnits="userSpaceOnUse">
<stop stop-color="#011845"/>
<stop offset="1" stop-color="#15141D"/>
</linearGradient>
<linearGradient id="paint8_linear_945_147742" x1="167" y1="404.25" x2="207.858" y2="405.147" gradientUnits="userSpaceOnUse">
<stop stop-color="#28A0F0"/>
<stop offset="1" stop-color="#0678C4" stop-opacity="0.9917"/>
</linearGradient>
<linearGradient id="paint9_linear_945_147742" x1="0" y1="0" x2="48.9654" y2="30.7186" gradientUnits="userSpaceOnUse">
<stop stop-color="#011845"/>
<stop offset="1" stop-color="#15141D"/>
</linearGradient>
<linearGradient id="paint10_linear_945_147742" x1="0" y1="0" x2="40.8582" y2="0.896751" gradientUnits="userSpaceOnUse">
<stop stop-color="#28A0F0"/>
<stop offset="1" stop-color="#0678C4" stop-opacity="0.9917"/>
</linearGradient>
<linearGradient id="paint11_linear_945_147742" x1="167" y1="677.714" x2="215.965" y2="708.432" gradientUnits="userSpaceOnUse">
<stop stop-color="#011845"/>
<stop offset="1" stop-color="#15141D"/>
</linearGradient>
<linearGradient id="paint12_linear_945_147742" x1="167" y1="677.714" x2="207.858" y2="678.611" gradientUnits="userSpaceOnUse">
<stop stop-color="#28A0F0"/>
<stop offset="1" stop-color="#0678C4" stop-opacity="0.9917"/>
</linearGradient>
<linearGradient id="paint13_linear_945_147742" x1="0" y1="0" x2="48.9654" y2="30.7186" gradientUnits="userSpaceOnUse">
<stop stop-color="#011845"/>
<stop offset="1" stop-color="#15141D"/>
</linearGradient>
<linearGradient id="paint14_linear_945_147742" x1="0" y1="0" x2="40.8582" y2="0.896751" gradientUnits="userSpaceOnUse">
<stop stop-color="#28A0F0"/>
<stop offset="1" stop-color="#0678C4" stop-opacity="0.9917"/>
</linearGradient>
<linearGradient id="paint15_linear_945_147742" x1="167" y1="940.571" x2="215.965" y2="971.29" gradientUnits="userSpaceOnUse">
<stop stop-color="#011845"/>
<stop offset="1" stop-color="#15141D"/>
</linearGradient>
<linearGradient id="paint16_linear_945_147742" x1="167" y1="940.571" x2="207.858" y2="941.468" gradientUnits="userSpaceOnUse">
<stop stop-color="#28A0F0"/>
<stop offset="1" stop-color="#0678C4" stop-opacity="0.9917"/>
</linearGradient>
</defs>
</svg>
