<svg width="150" height="150" viewBox="0 0 150 150" fill="none" xmlns="http://www.w3.org/2000/svg">
<path d="M75.5002 46.0527C75.5002 45.2242 74.8286 44.5527 74.0002 44.5527C73.1718 44.5527 72.5002 45.2242 72.5002 46.0527H75.5002ZM72.9395 105.008C73.5253 105.594 74.4751 105.594 75.0608 105.008L84.6068 95.4621C85.1926 94.8763 85.1926 93.9266 84.6068 93.3408C84.021 92.755 83.0713 92.755 82.4855 93.3408L74.0002 101.826L65.5149 93.3408C64.9291 92.755 63.9794 92.755 63.3936 93.3408C62.8078 93.9266 62.8078 94.8763 63.3936 95.4621L72.9395 105.008ZM72.5002 46.0527V103.947H75.5002V46.0527H72.5002Z" fill="#1C95E7"/>
<circle cx="74.0002" cy="75" r="49.5" stroke="#1C95E7" stroke-dasharray="2 2"/>
<circle cx="75.0002" cy="75" r="74.5" stroke="#1C95E7" stroke-dasharray="2 2"/>
</svg>
