<svg width="1536" height="531" viewBox="0 0 1536 531" fill="none" xmlns="http://www.w3.org/2000/svg">
<path d="M1530 267.971L1495.04 247.696L1494.96 288.11L1530 267.971ZM4.99349 268.53L1498.49 271.41L1498.51 264.41L5.00699 261.53L4.99349 268.53Z" fill="#1C95E7" fill-opacity="0.5"/>
<circle r="24.2143" transform="matrix(1 0 0 -1 26.1431 264.215)" fill="url(#paint0_linear_793_147553)" stroke="url(#paint1_linear_793_147553)" stroke-width="3"/>
<circle r="10.2857" transform="matrix(1 0 0 -1 26.1431 264.216)" fill="url(#paint2_linear_793_147553)"/>
<line y1="-1" x2="220" y2="-1" transform="matrix(-4.37114e-08 -1 -1 4.37114e-08 26.1431 241.073)" stroke="url(#paint3_linear_793_147553)" stroke-width="2" stroke-dasharray="3 3"/>
<circle r="5.5" transform="matrix(1 0 0 -1 27.5002 23.5)" fill="url(#paint4_linear_793_147553)"/>
<path d="M60.8948 13.4961H57.0959V11.9629H60.8948C61.6305 11.9629 62.2262 11.8457 62.6819 11.6113C63.1376 11.377 63.4696 11.0514 63.678 10.6348C63.8928 10.2181 64.0002 9.74284 64.0002 9.20898C64.0002 8.7207 63.8928 8.26172 63.678 7.83203C63.4696 7.40234 63.1376 7.05729 62.6819 6.79688C62.2262 6.52995 61.6305 6.39648 60.8948 6.39648H57.5354V19.0723H55.6506V4.85352H60.8948C61.969 4.85352 62.8772 5.03906 63.6194 5.41016C64.3616 5.78125 64.9247 6.29557 65.3088 6.95312C65.693 7.60417 65.885 8.34961 65.885 9.18945C65.885 10.1009 65.693 10.8789 65.3088 11.5234C64.9247 12.168 64.3616 12.6595 63.6194 12.998C62.8772 13.3301 61.969 13.4961 60.8948 13.4961ZM80.0151 11.5137V12.4121C80.0151 13.4798 79.8816 14.4368 79.6147 15.2832C79.3478 16.1296 78.9637 16.849 78.4624 17.4414C77.9611 18.0339 77.3588 18.4863 76.6557 18.7988C75.9591 19.1113 75.1778 19.2676 74.312 19.2676C73.4721 19.2676 72.7006 19.1113 71.9975 18.7988C71.3009 18.4863 70.6954 18.0339 70.1811 17.4414C69.6733 16.849 69.2794 16.1296 68.9995 15.2832C68.7195 14.4368 68.5795 13.4798 68.5795 12.4121V11.5137C68.5795 10.446 68.7163 9.49219 68.9897 8.65234C69.2696 7.80599 69.6635 7.08659 70.1713 6.49414C70.6792 5.89518 71.2814 5.43945 71.978 5.12695C72.6811 4.81445 73.4526 4.6582 74.2924 4.6582C75.1583 4.6582 75.9396 4.81445 76.6362 5.12695C77.3393 5.43945 77.9415 5.89518 78.4428 6.49414C78.9506 7.08659 79.338 7.80599 79.6049 8.65234C79.8784 9.49219 80.0151 10.446 80.0151 11.5137ZM78.1499 12.4121V11.4941C78.1499 10.6478 78.062 9.89909 77.8862 9.24805C77.7169 8.59701 77.4663 8.05013 77.1342 7.60742C76.8022 7.16471 76.3953 6.82943 75.9135 6.60156C75.4383 6.3737 74.8979 6.25977 74.2924 6.25977C73.7065 6.25977 73.1759 6.3737 72.7006 6.60156C72.2319 6.82943 71.8282 7.16471 71.4897 7.60742C71.1577 8.05013 70.9005 8.59701 70.7182 9.24805C70.5359 9.89909 70.4448 10.6478 70.4448 11.4941V12.4121C70.4448 13.265 70.5359 14.0202 70.7182 14.6777C70.9005 15.3288 71.1609 15.8789 71.4995 16.3281C71.8445 16.7708 72.2514 17.1061 72.7202 17.334C73.1954 17.5618 73.726 17.6758 74.312 17.6758C74.9239 17.6758 75.4676 17.5618 75.9428 17.334C76.4181 17.1061 76.8185 16.7708 77.144 16.3281C77.476 15.8789 77.7267 15.3288 77.8959 14.6777C78.0652 14.0202 78.1499 13.265 78.1499 12.4121ZM94.5846 11.5137V12.4121C94.5846 13.4798 94.4512 14.4368 94.1842 15.2832C93.9173 16.1296 93.5332 16.849 93.0319 17.4414C92.5306 18.0339 91.9284 18.4863 91.2252 18.7988C90.5286 19.1113 89.7474 19.2676 88.8815 19.2676C88.0417 19.2676 87.2702 19.1113 86.567 18.7988C85.8704 18.4863 85.265 18.0339 84.7506 17.4414C84.2428 16.849 83.8489 16.1296 83.569 15.2832C83.289 14.4368 83.1491 13.4798 83.1491 12.4121V11.5137C83.1491 10.446 83.2858 9.49219 83.5592 8.65234C83.8392 7.80599 84.2331 7.08659 84.7409 6.49414C85.2487 5.89518 85.8509 5.43945 86.5475 5.12695C87.2506 4.81445 88.0221 4.6582 88.862 4.6582C89.7278 4.6582 90.5091 4.81445 91.2057 5.12695C91.9088 5.43945 92.5111 5.89518 93.0124 6.49414C93.5202 7.08659 93.9075 7.80599 94.1745 8.65234C94.4479 9.49219 94.5846 10.446 94.5846 11.5137ZM92.7194 12.4121V11.4941C92.7194 10.6478 92.6315 9.89909 92.4557 9.24805C92.2864 8.59701 92.0358 8.05013 91.7038 7.60742C91.3717 7.16471 90.9648 6.82943 90.4831 6.60156C90.0078 6.3737 89.4674 6.25977 88.862 6.25977C88.276 6.25977 87.7454 6.3737 87.2702 6.60156C86.8014 6.82943 86.3978 7.16471 86.0592 7.60742C85.7272 8.05013 85.47 8.59701 85.2877 9.24805C85.1055 9.89909 85.0143 10.6478 85.0143 11.4941V12.4121C85.0143 13.265 85.1055 14.0202 85.2877 14.6777C85.47 15.3288 85.7305 15.8789 86.069 16.3281C86.414 16.7708 86.8209 17.1061 87.2897 17.334C87.765 17.5618 88.2956 17.6758 88.8815 17.6758C89.4935 17.6758 90.0371 17.5618 90.5124 17.334C90.9876 17.1061 91.388 16.7708 91.7135 16.3281C92.0456 15.8789 92.2962 15.3288 92.4655 14.6777C92.6347 14.0202 92.7194 13.265 92.7194 12.4121ZM106.83 17.5391V19.0723H99.7206V17.5391H106.83ZM100.092 4.85352V19.0723H98.2069V4.85352H100.092ZM117.366 15.4785C117.366 15.1465 117.314 14.8535 117.21 14.5996C117.112 14.3392 116.937 14.1048 116.683 13.8965C116.435 13.6882 116.09 13.4896 115.648 13.3008C115.211 13.112 114.658 12.9199 113.987 12.7246C113.284 12.5163 112.649 12.2852 112.083 12.0312C111.517 11.7708 111.032 11.4746 110.628 11.1426C110.224 10.8105 109.915 10.4297 109.7 10C109.485 9.57031 109.378 9.07878 109.378 8.52539C109.378 7.97201 109.492 7.46094 109.72 6.99219C109.948 6.52344 110.273 6.11654 110.696 5.77148C111.126 5.41992 111.637 5.14648 112.23 4.95117C112.822 4.75586 113.483 4.6582 114.212 4.6582C115.28 4.6582 116.185 4.86328 116.927 5.27344C117.676 5.67708 118.245 6.20768 118.636 6.86523C119.026 7.51628 119.222 8.21289 119.222 8.95508H117.347C117.347 8.42122 117.233 7.94922 117.005 7.53906C116.777 7.1224 116.432 6.79688 115.97 6.5625C115.508 6.32161 114.922 6.20117 114.212 6.20117C113.541 6.20117 112.988 6.30208 112.552 6.50391C112.116 6.70573 111.79 6.97917 111.575 7.32422C111.367 7.66927 111.263 8.06315 111.263 8.50586C111.263 8.80534 111.325 9.07878 111.448 9.32617C111.579 9.56706 111.777 9.79167 112.044 10C112.317 10.2083 112.662 10.4004 113.079 10.5762C113.502 10.752 114.007 10.9212 114.593 11.084C115.4 11.3118 116.097 11.5658 116.683 11.8457C117.269 12.1257 117.75 12.4414 118.128 12.793C118.512 13.138 118.795 13.5319 118.978 13.9746C119.166 14.4108 119.261 14.9056 119.261 15.459C119.261 16.0384 119.144 16.5625 118.909 17.0312C118.675 17.5 118.34 17.9004 117.903 18.2324C117.467 18.5645 116.943 18.8216 116.331 19.0039C115.726 19.1797 115.049 19.2676 114.3 19.2676C113.642 19.2676 112.995 19.1764 112.356 18.9941C111.725 18.8118 111.149 18.5384 110.628 18.1738C110.114 17.8092 109.7 17.36 109.388 16.8262C109.082 16.2858 108.929 15.6608 108.929 14.9512H110.804C110.804 15.4395 110.898 15.8594 111.087 16.2109C111.276 16.556 111.533 16.8424 111.858 17.0703C112.19 17.2982 112.565 17.4674 112.981 17.5781C113.405 17.6823 113.844 17.7344 114.3 17.7344C114.957 17.7344 115.514 17.6432 115.97 17.4609C116.426 17.2786 116.771 17.0182 117.005 16.6797C117.246 16.3411 117.366 15.9408 117.366 15.4785ZM60.9143 30.1133L56.2073 43.0723H54.2834L59.7034 28.8535H60.9436L60.9143 30.1133ZM64.8596 43.0723L60.1428 30.1133L60.1135 28.8535H61.3538L66.7932 43.0723H64.8596ZM64.6155 37.8086V39.3516H56.6272V37.8086H64.6155ZM73.4819 28.8535V43.0723H71.6264V28.8535H73.4819ZM78.0522 28.8535V30.3965H67.0659V28.8535H78.0522ZM90.1795 43.0723H87.2108L87.2303 41.5391H90.1795C91.1952 41.5391 92.0415 41.3275 92.7186 40.9043C93.3957 40.4746 93.9035 39.8757 94.242 39.1074C94.5871 38.3327 94.7596 37.4277 94.7596 36.3926V35.5234C94.7596 34.7096 94.662 33.987 94.4667 33.3555C94.2713 32.7174 93.9849 32.1803 93.6073 31.7441C93.2297 31.3014 92.7674 30.9661 92.2206 30.7383C91.6802 30.5104 91.0584 30.3965 90.3553 30.3965H87.1522V28.8535H90.3553C91.2863 28.8535 92.1359 29.0098 92.9042 29.3223C93.6724 29.6283 94.3332 30.0742 94.8866 30.6602C95.4465 31.2396 95.8762 31.9427 96.1756 32.7695C96.4751 33.5898 96.6249 34.5143 96.6249 35.543V36.3926C96.6249 37.4212 96.4751 38.349 96.1756 39.1758C95.8762 39.9961 95.4432 40.696 94.8768 41.2754C94.3169 41.8548 93.6398 42.3008 92.8456 42.6133C92.0578 42.9193 91.1691 43.0723 90.1795 43.0723ZM88.2167 28.8535V43.0723H86.3319V28.8535H88.2167ZM109.29 41.5391V43.0723H101.761V41.5391H109.29ZM102.142 28.8535V43.0723H100.257V28.8535H102.142ZM108.294 34.9668V36.5H101.761V34.9668H108.294ZM109.192 28.8535V30.3965H101.761V28.8535H109.192ZM113.645 28.8535L117.063 34.3027L120.481 28.8535H122.678L118.186 35.8945L122.785 43.0723H120.569L117.063 37.5156L113.557 43.0723H111.34L115.94 35.8945L111.448 28.8535H113.645ZM134.796 41.5391V43.0723H127.267V41.5391H134.796ZM127.648 28.8535V43.0723H125.763V28.8535H127.648ZM133.8 34.9668V36.5H127.267V34.9668H133.8ZM134.699 28.8535V30.3965H127.267V28.8535H134.699ZM145.508 39.4785C145.508 39.1465 145.456 38.8535 145.352 38.5996C145.255 38.3392 145.079 38.1048 144.825 37.8965C144.577 37.6882 144.232 37.4896 143.79 37.3008C143.353 37.112 142.8 36.9199 142.13 36.7246C141.426 36.5163 140.792 36.2852 140.225 36.0312C139.659 35.7708 139.174 35.4746 138.77 35.1426C138.367 34.8105 138.057 34.4297 137.842 34C137.628 33.5703 137.52 33.0788 137.52 32.5254C137.52 31.972 137.634 31.4609 137.862 30.9922C138.09 30.5234 138.415 30.1165 138.839 29.7715C139.268 29.4199 139.779 29.1465 140.372 28.9512C140.964 28.7559 141.625 28.6582 142.354 28.6582C143.422 28.6582 144.327 28.8633 145.069 29.2734C145.818 29.6771 146.387 30.2077 146.778 30.8652C147.169 31.5163 147.364 32.2129 147.364 32.9551H145.489C145.489 32.4212 145.375 31.9492 145.147 31.5391C144.919 31.1224 144.574 30.7969 144.112 30.5625C143.65 30.3216 143.064 30.2012 142.354 30.2012C141.684 30.2012 141.13 30.3021 140.694 30.5039C140.258 30.7057 139.932 30.9792 139.717 31.3242C139.509 31.6693 139.405 32.0632 139.405 32.5059C139.405 32.8053 139.467 33.0788 139.59 33.3262C139.721 33.5671 139.919 33.7917 140.186 34C140.46 34.2083 140.805 34.4004 141.221 34.5762C141.645 34.752 142.149 34.9212 142.735 35.084C143.542 35.3118 144.239 35.5658 144.825 35.8457C145.411 36.1257 145.893 36.4414 146.27 36.793C146.654 37.138 146.937 37.5319 147.12 37.9746C147.309 38.4108 147.403 38.9056 147.403 39.459C147.403 40.0384 147.286 40.5625 147.051 41.0312C146.817 41.5 146.482 41.9004 146.046 42.2324C145.609 42.5645 145.085 42.8216 144.473 43.0039C143.868 43.1797 143.191 43.2676 142.442 43.2676C141.784 43.2676 141.137 43.1764 140.499 42.9941C139.867 42.8118 139.291 42.5384 138.77 42.1738C138.256 41.8092 137.842 41.36 137.53 40.8262C137.224 40.2858 137.071 39.6608 137.071 38.9512H138.946C138.946 39.4395 139.04 39.8594 139.229 40.2109C139.418 40.556 139.675 40.8424 140.001 41.0703C140.333 41.2982 140.707 41.4674 141.124 41.5781C141.547 41.6823 141.986 41.7344 142.442 41.7344C143.1 41.7344 143.656 41.6432 144.112 41.4609C144.568 41.2786 144.913 41.0182 145.147 40.6797C145.388 40.3411 145.508 39.9408 145.508 39.4785Z" fill="white"/>
<path d="M239.365 492.066H244.072C245.139 492.066 246.041 492.229 246.777 492.555C247.519 492.88 248.082 493.362 248.466 494C248.857 494.632 249.052 495.41 249.052 496.334C249.052 496.985 248.919 497.581 248.652 498.121C248.391 498.655 248.014 499.111 247.519 499.488C247.031 499.859 246.445 500.136 245.761 500.318L245.234 500.523H240.81L240.791 498.99H244.13C244.807 498.99 245.371 498.873 245.82 498.639C246.269 498.398 246.608 498.076 246.835 497.672C247.063 497.268 247.177 496.822 247.177 496.334C247.177 495.787 247.07 495.309 246.855 494.898C246.64 494.488 246.302 494.173 245.839 493.951C245.384 493.723 244.794 493.609 244.072 493.609H241.25V506.285H239.365V492.066ZM247.675 506.285L244.218 499.84L246.181 499.83L249.687 506.168V506.285H247.675ZM261.522 504.752V506.285H253.993V504.752H261.522ZM254.374 492.066V506.285H252.489V492.066H254.374ZM260.526 498.18V499.713H253.993V498.18H260.526ZM261.425 492.066V493.609H253.993V492.066H261.425ZM268.396 501.988L271.219 492.066H272.586L271.795 495.924L268.758 506.285H267.4L268.396 501.988ZM265.476 492.066L267.723 501.793L268.396 506.285H267.049L263.601 492.066H265.476ZM276.238 501.783L278.435 492.066H280.32L276.883 506.285H275.535L276.238 501.783ZM272.791 492.066L275.535 501.988L276.531 506.285H275.174L272.244 495.924L271.443 492.066H272.791ZM288.044 493.326L283.337 506.285H281.413L286.833 492.066H288.073L288.044 493.326ZM291.989 506.285L287.273 493.326L287.243 492.066H288.483L293.923 506.285H291.989ZM291.745 501.021V502.564H283.757V501.021H291.745ZM296.627 492.066H301.334C302.402 492.066 303.304 492.229 304.039 492.555C304.782 492.88 305.345 493.362 305.729 494C306.119 494.632 306.315 495.41 306.315 496.334C306.315 496.985 306.181 497.581 305.914 498.121C305.654 498.655 305.276 499.111 304.782 499.488C304.293 499.859 303.707 500.136 303.024 500.318L302.496 500.523H298.073L298.053 498.99H301.393C302.07 498.99 302.633 498.873 303.082 498.639C303.532 498.398 303.87 498.076 304.098 497.672C304.326 497.268 304.44 496.822 304.44 496.334C304.44 495.787 304.332 495.309 304.117 494.898C303.903 494.488 303.564 494.173 303.102 493.951C302.646 493.723 302.057 493.609 301.334 493.609H298.512V506.285H296.627V492.066ZM304.938 506.285L301.481 499.84L303.444 499.83L306.95 506.168V506.285H304.938ZM313.599 506.285H310.63L310.65 504.752H313.599C314.615 504.752 315.461 504.54 316.138 504.117C316.815 503.688 317.323 503.089 317.662 502.32C318.007 501.546 318.179 500.641 318.179 499.605V498.736C318.179 497.923 318.082 497.2 317.886 496.568C317.691 495.93 317.404 495.393 317.027 494.957C316.649 494.514 316.187 494.179 315.64 493.951C315.1 493.723 314.478 493.609 313.775 493.609H310.572V492.066H313.775C314.706 492.066 315.556 492.223 316.324 492.535C317.092 492.841 317.753 493.287 318.306 493.873C318.866 494.452 319.296 495.156 319.595 495.982C319.895 496.803 320.044 497.727 320.044 498.756V499.605C320.044 500.634 319.895 501.562 319.595 502.389C319.296 503.209 318.863 503.909 318.296 504.488C317.736 505.068 317.059 505.514 316.265 505.826C315.477 506.132 314.589 506.285 313.599 506.285ZM311.636 492.066V506.285H309.751V492.066H311.636ZM333.285 506.285H330.316L330.336 504.752H333.285C334.301 504.752 335.147 504.54 335.824 504.117C336.501 503.688 337.009 503.089 337.348 502.32C337.693 501.546 337.865 500.641 337.865 499.605V498.736C337.865 497.923 337.767 497.2 337.572 496.568C337.377 495.93 337.09 495.393 336.713 494.957C336.335 494.514 335.873 494.179 335.326 493.951C334.786 493.723 334.164 493.609 333.461 493.609H330.258V492.066H333.461C334.392 492.066 335.241 492.223 336.01 492.535C336.778 492.841 337.439 493.287 337.992 493.873C338.552 494.452 338.982 495.156 339.281 495.982C339.581 496.803 339.73 497.727 339.73 498.756V499.605C339.73 500.634 339.581 501.562 339.281 502.389C338.982 503.209 338.549 503.909 337.982 504.488C337.422 505.068 336.745 505.514 335.951 505.826C335.163 506.132 334.275 506.285 333.285 506.285ZM331.322 492.066V506.285H329.437V492.066H331.322ZM352.396 504.752V506.285H344.866V504.752H352.396ZM345.247 492.066V506.285H343.362V492.066H345.247ZM351.4 498.18V499.713H344.866V498.18H351.4ZM352.298 492.066V493.609H344.866V492.066H352.298ZM356.75 492.066L360.168 497.516L363.586 492.066H365.783L361.291 499.107L365.891 506.285H363.674L360.168 500.729L356.662 506.285H354.446L359.045 499.107L354.553 492.066H356.75ZM247.949 525.764H249.824C249.726 526.662 249.469 527.466 249.052 528.176C248.636 528.885 248.046 529.449 247.285 529.865C246.523 530.275 245.572 530.48 244.433 530.48C243.6 530.48 242.841 530.324 242.158 530.012C241.481 529.699 240.898 529.257 240.41 528.684C239.921 528.104 239.544 527.411 239.277 526.604C239.016 525.79 238.886 524.885 238.886 523.889V522.473C238.886 521.477 239.016 520.575 239.277 519.768C239.544 518.954 239.925 518.257 240.419 517.678C240.921 517.098 241.523 516.652 242.226 516.34C242.929 516.027 243.72 515.871 244.599 515.871C245.673 515.871 246.582 516.073 247.324 516.477C248.066 516.88 248.642 517.44 249.052 518.156C249.469 518.866 249.726 519.689 249.824 520.627H247.949C247.858 519.963 247.688 519.393 247.441 518.918C247.194 518.436 246.842 518.065 246.386 517.805C245.931 517.544 245.335 517.414 244.599 517.414C243.968 517.414 243.411 517.535 242.929 517.775C242.454 518.016 242.054 518.358 241.728 518.801C241.409 519.243 241.168 519.774 241.005 520.393C240.843 521.011 240.761 521.698 240.761 522.453V523.889C240.761 524.585 240.833 525.24 240.976 525.852C241.126 526.464 241.35 527.001 241.65 527.463C241.949 527.925 242.33 528.29 242.792 528.557C243.255 528.817 243.802 528.947 244.433 528.947C245.234 528.947 245.872 528.82 246.347 528.566C246.822 528.312 247.181 527.948 247.421 527.473C247.669 526.997 247.845 526.428 247.949 525.764ZM264.139 522.727V523.625C264.139 524.693 264.006 525.65 263.739 526.496C263.472 527.342 263.088 528.062 262.587 528.654C262.085 529.247 261.483 529.699 260.78 530.012C260.083 530.324 259.302 530.48 258.436 530.48C257.596 530.48 256.825 530.324 256.122 530.012C255.425 529.699 254.82 529.247 254.305 528.654C253.798 528.062 253.404 527.342 253.124 526.496C252.844 525.65 252.704 524.693 252.704 523.625V522.727C252.704 521.659 252.841 520.705 253.114 519.865C253.394 519.019 253.788 518.299 254.296 517.707C254.803 517.108 255.406 516.652 256.102 516.34C256.805 516.027 257.577 515.871 258.417 515.871C259.283 515.871 260.064 516.027 260.76 516.34C261.464 516.652 262.066 517.108 262.567 517.707C263.075 518.299 263.462 519.019 263.729 519.865C264.003 520.705 264.139 521.659 264.139 522.727ZM262.274 523.625V522.707C262.274 521.861 262.186 521.112 262.01 520.461C261.841 519.81 261.591 519.263 261.258 518.82C260.926 518.378 260.52 518.042 260.038 517.814C259.563 517.587 259.022 517.473 258.417 517.473C257.831 517.473 257.3 517.587 256.825 517.814C256.356 518.042 255.953 518.378 255.614 518.82C255.282 519.263 255.025 519.81 254.842 520.461C254.66 521.112 254.569 521.861 254.569 522.707V523.625C254.569 524.478 254.66 525.233 254.842 525.891C255.025 526.542 255.285 527.092 255.624 527.541C255.969 527.984 256.376 528.319 256.844 528.547C257.32 528.775 257.85 528.889 258.436 528.889C259.048 528.889 259.592 528.775 260.067 528.547C260.542 528.319 260.943 527.984 261.268 527.541C261.6 527.092 261.851 526.542 262.02 525.891C262.189 525.233 262.274 524.478 262.274 523.625ZM268.357 516.066H270.183L274.842 527.658L279.49 516.066H281.326L275.545 530.285H274.119L268.357 516.066ZM267.762 516.066H269.373L269.637 524.738V530.285H267.762V516.066ZM280.301 516.066H281.912V530.285H280.037V524.738L280.301 516.066ZM286.618 516.066H288.444L293.103 527.658L297.751 516.066H299.587L293.806 530.285H292.38L286.618 516.066ZM286.023 516.066H287.634L287.898 524.738V530.285H286.023V516.066ZM298.562 516.066H300.173V530.285H298.298V524.738L298.562 516.066ZM312.418 516.066H314.293V525.686C314.293 526.753 314.056 527.642 313.58 528.352C313.105 529.061 312.474 529.595 311.686 529.953C310.905 530.305 310.055 530.48 309.137 530.48C308.173 530.48 307.301 530.305 306.52 529.953C305.745 529.595 305.13 529.061 304.674 528.352C304.225 527.642 304 526.753 304 525.686V516.066H305.866V525.686C305.866 526.428 306.002 527.04 306.276 527.521C306.549 528.003 306.93 528.361 307.418 528.596C307.913 528.83 308.486 528.947 309.137 528.947C309.795 528.947 310.367 528.83 310.856 528.596C311.351 528.361 311.735 528.003 312.008 527.521C312.282 527.04 312.418 526.428 312.418 525.686V516.066ZM328.99 516.066V530.285H327.095L319.937 519.318V530.285H318.052V516.066H319.937L327.125 527.062V516.066H328.99ZM335.151 516.066V530.285H333.266V516.066H335.151ZM344.34 516.066V530.285H342.484V516.066H344.34ZM348.91 516.066V517.609H337.924V516.066H348.91ZM353.841 516.066V530.285H351.956V516.066H353.841ZM367.102 528.752V530.285H359.573V528.752H367.102ZM359.953 516.066V530.285H358.069V516.066H359.953ZM366.106 522.18V523.713H359.573V522.18H366.106ZM367.004 516.066V517.609H359.573V516.066H367.004ZM377.814 526.691C377.814 526.359 377.762 526.066 377.658 525.812C377.56 525.552 377.384 525.318 377.13 525.109C376.883 524.901 376.538 524.702 376.095 524.514C375.659 524.325 375.106 524.133 374.435 523.938C373.732 523.729 373.097 523.498 372.531 523.244C371.964 522.984 371.479 522.688 371.076 522.355C370.672 522.023 370.363 521.643 370.148 521.213C369.933 520.783 369.826 520.292 369.826 519.738C369.826 519.185 369.94 518.674 370.167 518.205C370.395 517.736 370.721 517.329 371.144 516.984C371.574 516.633 372.085 516.359 372.677 516.164C373.27 515.969 373.931 515.871 374.66 515.871C375.727 515.871 376.632 516.076 377.375 516.486C378.123 516.89 378.693 517.421 379.083 518.078C379.474 518.729 379.669 519.426 379.669 520.168H377.794C377.794 519.634 377.681 519.162 377.453 518.752C377.225 518.335 376.88 518.01 376.417 517.775C375.955 517.535 375.369 517.414 374.66 517.414C373.989 517.414 373.436 517.515 373 517.717C372.563 517.919 372.238 518.192 372.023 518.537C371.815 518.882 371.71 519.276 371.71 519.719C371.71 520.018 371.772 520.292 371.896 520.539C372.026 520.78 372.225 521.005 372.492 521.213C372.765 521.421 373.11 521.613 373.527 521.789C373.95 521.965 374.455 522.134 375.041 522.297C375.848 522.525 376.544 522.779 377.13 523.059C377.716 523.339 378.198 523.654 378.576 524.006C378.96 524.351 379.243 524.745 379.425 525.188C379.614 525.624 379.708 526.118 379.708 526.672C379.708 527.251 379.591 527.775 379.357 528.244C379.123 528.713 378.787 529.113 378.351 529.445C377.915 529.777 377.391 530.035 376.779 530.217C376.173 530.393 375.496 530.48 374.748 530.48C374.09 530.48 373.442 530.389 372.804 530.207C372.173 530.025 371.597 529.751 371.076 529.387C370.561 529.022 370.148 528.573 369.835 528.039C369.529 527.499 369.376 526.874 369.376 526.164H371.251C371.251 526.652 371.346 527.072 371.535 527.424C371.723 527.769 371.981 528.055 372.306 528.283C372.638 528.511 373.013 528.68 373.429 528.791C373.852 528.895 374.292 528.947 374.748 528.947C375.405 528.947 375.962 528.856 376.417 528.674C376.873 528.492 377.218 528.231 377.453 527.893C377.694 527.554 377.814 527.154 377.814 526.691Z" fill="white"/>
<circle r="24.7143" transform="matrix(1 0 0 -1 393.429 264.357)" fill="url(#paint5_linear_793_147553)" stroke="url(#paint6_linear_793_147553)" stroke-width="2"/>
<line y1="-1" x2="220" y2="-1" transform="matrix(-4.37114e-08 -1 -1 4.37114e-08 393.429 239.929)" stroke="url(#paint7_linear_793_147553)" stroke-width="2" stroke-dasharray="3 3"/>
<path d="M431.988 17.6807V19.2139H424.878V17.6807H431.988ZM425.25 4.99512V19.2139H423.365V4.99512H425.25ZM443.979 17.6807V19.2139H436.45V17.6807H443.979ZM436.831 4.99512V19.2139H434.946V4.99512H436.831ZM442.983 11.1084V12.6416H436.45V11.1084H442.983ZM443.882 4.99512V6.53809H436.45V4.99512H443.882ZM458.051 4.99512V19.2139H456.156L448.998 8.24707V19.2139H447.113V4.99512H448.998L456.185 15.9912V4.99512H458.051ZM466.038 19.2139H463.069L463.089 17.6807H466.038C467.054 17.6807 467.9 17.4691 468.577 17.0459C469.254 16.6162 469.762 16.0173 470.101 15.249C470.446 14.4743 470.618 13.5693 470.618 12.5342V11.665C470.618 10.8512 470.521 10.1286 470.325 9.49707C470.13 8.85905 469.844 8.32194 469.466 7.88574C469.088 7.44303 468.626 7.10775 468.079 6.87988C467.539 6.65202 466.917 6.53809 466.214 6.53809H463.011V4.99512H466.214C467.145 4.99512 467.995 5.15137 468.763 5.46387C469.531 5.76986 470.192 6.21582 470.745 6.80176C471.305 7.38118 471.735 8.08431 472.034 8.91113C472.334 9.73145 472.483 10.6559 472.483 11.6846V12.5342C472.483 13.5628 472.334 14.4906 472.034 15.3174C471.735 16.1377 471.302 16.8376 470.735 17.417C470.176 17.9964 469.498 18.4424 468.704 18.7549C467.916 19.0609 467.028 19.2139 466.038 19.2139ZM464.075 4.99512V19.2139H462.191V4.99512H464.075ZM478.137 4.99512V19.2139H476.252V4.99512H478.137ZM493.302 4.99512V19.2139H491.408L484.25 8.24707V19.2139H482.365V4.99512H484.25L491.437 15.9912V4.99512H493.302ZM507.95 12.1338V17.3389C507.774 17.5993 507.494 17.8923 507.11 18.2178C506.726 18.5368 506.195 18.8167 505.518 19.0576C504.848 19.292 503.982 19.4092 502.921 19.4092C502.055 19.4092 501.257 19.2594 500.528 18.96C499.805 18.654 499.177 18.2113 498.643 17.6318C498.116 17.0459 497.706 16.3363 497.413 15.5029C497.126 14.6631 496.983 13.7126 496.983 12.6514V11.5479C496.983 10.4867 497.107 9.53939 497.354 8.70605C497.608 7.87272 497.979 7.16634 498.467 6.58691C498.956 6.00098 499.555 5.55827 500.264 5.25879C500.974 4.9528 501.788 4.7998 502.706 4.7998C503.793 4.7998 504.701 4.98861 505.43 5.36621C506.166 5.7373 506.739 6.25163 507.149 6.90918C507.566 7.56673 507.833 8.31543 507.95 9.15527H506.065C505.981 8.64095 505.811 8.1722 505.557 7.74902C505.31 7.32585 504.955 6.9873 504.493 6.7334C504.031 6.47298 503.435 6.34277 502.706 6.34277C502.048 6.34277 501.479 6.46322 500.997 6.7041C500.515 6.94499 500.118 7.29004 499.805 7.73926C499.493 8.18848 499.258 8.7321 499.102 9.37012C498.953 10.0081 498.878 10.7275 498.878 11.5283V12.6514C498.878 13.4717 498.972 14.2041 499.161 14.8486C499.356 15.4932 499.633 16.0433 499.991 16.499C500.349 16.9482 500.775 17.29 501.27 17.5244C501.772 17.7588 502.325 17.876 502.93 17.876C503.601 17.876 504.145 17.8206 504.561 17.71C504.978 17.5928 505.303 17.4561 505.538 17.2998C505.772 17.137 505.951 16.984 506.075 16.8408V13.6572H502.784V12.1338H507.95ZM428.609 37.6377H424.81V36.1045H428.609C429.345 36.1045 429.94 35.9873 430.396 35.7529C430.852 35.5186 431.184 35.193 431.392 34.7764C431.607 34.3597 431.714 33.8844 431.714 33.3506C431.714 32.8623 431.607 32.4033 431.392 31.9736C431.184 31.5439 430.852 31.1989 430.396 30.9385C429.94 30.6715 429.345 30.5381 428.609 30.5381H425.25V43.2139H423.365V28.9951H428.609C429.683 28.9951 430.591 29.1807 431.333 29.5518C432.076 29.9229 432.639 30.4372 433.023 31.0947C433.407 31.7458 433.599 32.4912 433.599 33.3311C433.599 34.2425 433.407 35.0205 433.023 35.665C432.639 36.3096 432.076 36.8011 431.333 37.1396C430.591 37.4717 429.683 37.6377 428.609 37.6377ZM436.782 28.9951H441.489C442.557 28.9951 443.458 29.1579 444.194 29.4834C444.936 29.8089 445.499 30.2907 445.883 30.9287C446.274 31.5602 446.469 32.3382 446.469 33.2627C446.469 33.9137 446.336 34.5094 446.069 35.0498C445.809 35.5837 445.431 36.0394 444.936 36.417C444.448 36.7881 443.862 37.0648 443.178 37.2471L442.651 37.4521H438.227L438.208 35.9189H441.548C442.225 35.9189 442.788 35.8018 443.237 35.5674C443.686 35.3265 444.025 35.0042 444.253 34.6006C444.481 34.1969 444.594 33.751 444.594 33.2627C444.594 32.7158 444.487 32.2373 444.272 31.8271C444.057 31.417 443.719 31.1012 443.257 30.8799C442.801 30.652 442.212 30.5381 441.489 30.5381H438.667V43.2139H436.782V28.9951ZM445.092 43.2139L441.635 36.7686L443.598 36.7588L447.104 43.0967V43.2139H445.092ZM460.853 35.6553V36.5537C460.853 37.6214 460.72 38.5785 460.453 39.4248C460.186 40.2712 459.802 40.9906 459.301 41.583C458.799 42.1755 458.197 42.6279 457.494 42.9404C456.797 43.2529 456.016 43.4092 455.15 43.4092C454.31 43.4092 453.539 43.2529 452.836 42.9404C452.139 42.6279 451.534 42.1755 451.019 41.583C450.512 40.9906 450.118 40.2712 449.838 39.4248C449.558 38.5785 449.418 37.6214 449.418 36.5537V35.6553C449.418 34.5876 449.555 33.6338 449.828 32.7939C450.108 31.9476 450.502 31.2282 451.01 30.6357C451.517 30.0368 452.12 29.5811 452.816 29.2686C453.519 28.9561 454.291 28.7998 455.131 28.7998C455.997 28.7998 456.778 28.9561 457.475 29.2686C458.178 29.5811 458.78 30.0368 459.281 30.6357C459.789 31.2282 460.176 31.9476 460.443 32.7939C460.717 33.6338 460.853 34.5876 460.853 35.6553ZM458.988 36.5537V35.6357C458.988 34.7894 458.9 34.0407 458.725 33.3896C458.555 32.7386 458.305 32.1917 457.973 31.749C457.641 31.3063 457.234 30.971 456.752 30.7432C456.277 30.5153 455.736 30.4014 455.131 30.4014C454.545 30.4014 454.014 30.5153 453.539 30.7432C453.07 30.971 452.667 31.3063 452.328 31.749C451.996 32.1917 451.739 32.7386 451.557 33.3896C451.374 34.0407 451.283 34.7894 451.283 35.6357V36.5537C451.283 37.4066 451.374 38.1618 451.557 38.8193C451.739 39.4704 451.999 40.0205 452.338 40.4697C452.683 40.9124 453.09 41.2477 453.558 41.4756C454.034 41.7035 454.564 41.8174 455.15 41.8174C455.762 41.8174 456.306 41.7035 456.781 41.4756C457.256 41.2477 457.657 40.9124 457.982 40.4697C458.314 40.0205 458.565 39.4704 458.734 38.8193C458.904 38.1618 458.988 37.4066 458.988 36.5537ZM469.456 28.9951V43.2139H467.601V28.9951H469.456ZM474.026 28.9951V30.5381H463.04V28.9951H474.026ZM487.61 35.6553V36.5537C487.61 37.6214 487.476 38.5785 487.209 39.4248C486.942 40.2712 486.558 40.9906 486.057 41.583C485.556 42.1755 484.953 42.6279 484.25 42.9404C483.554 43.2529 482.772 43.4092 481.907 43.4092C481.067 43.4092 480.295 43.2529 479.592 42.9404C478.895 42.6279 478.29 42.1755 477.776 41.583C477.268 40.9906 476.874 40.2712 476.594 39.4248C476.314 38.5785 476.174 37.6214 476.174 36.5537V35.6553C476.174 34.5876 476.311 33.6338 476.584 32.7939C476.864 31.9476 477.258 31.2282 477.766 30.6357C478.274 30.0368 478.876 29.5811 479.573 29.2686C480.276 28.9561 481.047 28.7998 481.887 28.7998C482.753 28.7998 483.534 28.9561 484.231 29.2686C484.934 29.5811 485.536 30.0368 486.037 30.6357C486.545 31.2282 486.933 31.9476 487.2 32.7939C487.473 33.6338 487.61 34.5876 487.61 35.6553ZM485.744 36.5537V35.6357C485.744 34.7894 485.657 34.0407 485.481 33.3896C485.311 32.7386 485.061 32.1917 484.729 31.749C484.397 31.3063 483.99 30.971 483.508 30.7432C483.033 30.5153 482.492 30.4014 481.887 30.4014C481.301 30.4014 480.77 30.5153 480.295 30.7432C479.826 30.971 479.423 31.3063 479.084 31.749C478.752 32.1917 478.495 32.7386 478.313 33.3896C478.131 34.0407 478.039 34.7894 478.039 35.6357V36.5537C478.039 37.4066 478.131 38.1618 478.313 38.8193C478.495 39.4704 478.756 40.0205 479.094 40.4697C479.439 40.9124 479.846 41.2477 480.315 41.4756C480.79 41.7035 481.321 41.8174 481.907 41.8174C482.519 41.8174 483.062 41.7035 483.537 41.4756C484.013 41.2477 484.413 40.9124 484.739 40.4697C485.071 40.0205 485.321 39.4704 485.491 38.8193C485.66 38.1618 485.744 37.4066 485.744 36.5537ZM499.816 38.6924H501.691C501.593 39.5908 501.336 40.3949 500.919 41.1045C500.503 41.8141 499.914 42.3773 499.152 42.7939C498.39 43.2041 497.44 43.4092 496.3 43.4092C495.467 43.4092 494.708 43.2529 494.025 42.9404C493.348 42.6279 492.765 42.1852 492.277 41.6123C491.789 41.0329 491.411 40.3395 491.144 39.5322C490.884 38.7184 490.753 37.8135 490.753 36.8174V35.4014C490.753 34.4053 490.884 33.5036 491.144 32.6963C491.411 31.8825 491.792 31.1859 492.287 30.6064C492.788 30.027 493.39 29.5811 494.093 29.2686C494.796 28.9561 495.587 28.7998 496.466 28.7998C497.541 28.7998 498.449 29.0016 499.191 29.4053C499.933 29.8089 500.509 30.3688 500.919 31.085C501.336 31.7946 501.593 32.6182 501.691 33.5557H499.816C499.725 32.8916 499.556 32.3219 499.308 31.8467C499.061 31.3649 498.709 30.9938 498.253 30.7334C497.798 30.473 497.202 30.3428 496.466 30.3428C495.835 30.3428 495.278 30.4632 494.796 30.7041C494.321 30.945 493.921 31.2868 493.595 31.7295C493.276 32.1722 493.035 32.7028 492.873 33.3213C492.71 33.9398 492.628 34.6266 492.628 35.3818V36.8174C492.628 37.514 492.7 38.1683 492.843 38.7803C492.993 39.3923 493.218 39.9294 493.517 40.3916C493.817 40.8538 494.197 41.2184 494.66 41.4854C495.122 41.7458 495.669 41.876 496.3 41.876C497.101 41.876 497.739 41.749 498.214 41.4951C498.69 41.2412 499.048 40.8766 499.289 40.4014C499.536 39.9261 499.712 39.3564 499.816 38.6924ZM516.007 35.6553V36.5537C516.007 37.6214 515.873 38.5785 515.606 39.4248C515.339 40.2712 514.955 40.9906 514.454 41.583C513.953 42.1755 513.35 42.6279 512.647 42.9404C511.951 43.2529 511.169 43.4092 510.303 43.4092C509.464 43.4092 508.692 43.2529 507.989 42.9404C507.292 42.6279 506.687 42.1755 506.173 41.583C505.665 40.9906 505.271 40.2712 504.991 39.4248C504.711 38.5785 504.571 37.6214 504.571 36.5537V35.6553C504.571 34.5876 504.708 33.6338 504.981 32.7939C505.261 31.9476 505.655 31.2282 506.163 30.6357C506.671 30.0368 507.273 29.5811 507.969 29.2686C508.673 28.9561 509.444 28.7998 510.284 28.7998C511.15 28.7998 511.931 28.9561 512.628 29.2686C513.331 29.5811 513.933 30.0368 514.434 30.6357C514.942 31.2282 515.329 31.9476 515.596 32.7939C515.87 33.6338 516.007 34.5876 516.007 35.6553ZM514.141 36.5537V35.6357C514.141 34.7894 514.053 34.0407 513.878 33.3896C513.708 32.7386 513.458 32.1917 513.126 31.749C512.794 31.3063 512.387 30.971 511.905 30.7432C511.43 30.5153 510.889 30.4014 510.284 30.4014C509.698 30.4014 509.167 30.5153 508.692 30.7432C508.223 30.971 507.82 31.3063 507.481 31.749C507.149 32.1917 506.892 32.7386 506.71 33.3896C506.527 34.0407 506.436 34.7894 506.436 35.6357V36.5537C506.436 37.4066 506.527 38.1618 506.71 38.8193C506.892 39.4704 507.152 40.0205 507.491 40.4697C507.836 40.9124 508.243 41.2477 508.712 41.4756C509.187 41.7035 509.717 41.8174 510.303 41.8174C510.915 41.8174 511.459 41.7035 511.934 41.4756C512.41 41.2477 512.81 40.9124 513.135 40.4697C513.467 40.0205 513.718 39.4704 513.887 38.8193C514.057 38.1618 514.141 37.4066 514.141 36.5537ZM528.252 41.6807V43.2139H521.142V41.6807H528.252ZM521.514 28.9951V43.2139H519.629V28.9951H521.514ZM538.788 39.6201C538.788 39.2881 538.736 38.9951 538.632 38.7412C538.534 38.4808 538.358 38.2464 538.105 38.0381C537.857 37.8298 537.512 37.6312 537.069 37.4424C536.633 37.2536 536.08 37.0615 535.409 36.8662C534.706 36.6579 534.071 36.4268 533.505 36.1729C532.939 35.9124 532.454 35.6162 532.05 35.2842C531.646 34.9521 531.337 34.5713 531.122 34.1416C530.907 33.7119 530.8 33.2204 530.8 32.667C530.8 32.1136 530.914 31.6025 531.142 31.1338C531.37 30.665 531.695 30.2581 532.118 29.9131C532.548 29.5615 533.059 29.2881 533.651 29.0928C534.244 28.8975 534.905 28.7998 535.634 28.7998C536.702 28.7998 537.607 29.0049 538.349 29.415C539.097 29.8187 539.667 30.3493 540.058 31.0068C540.448 31.6579 540.644 32.3545 540.644 33.0967H538.769C538.769 32.5628 538.655 32.0908 538.427 31.6807C538.199 31.264 537.854 30.9385 537.392 30.7041C536.929 30.4632 536.344 30.3428 535.634 30.3428C534.963 30.3428 534.41 30.4437 533.974 30.6455C533.538 30.8473 533.212 31.1208 532.997 31.4658C532.789 31.8109 532.685 32.2048 532.685 32.6475C532.685 32.9469 532.747 33.2204 532.87 33.4678C533 33.7087 533.199 33.9333 533.466 34.1416C533.739 34.3499 534.084 34.542 534.501 34.7178C534.924 34.8936 535.429 35.0628 536.015 35.2256C536.822 35.4535 537.519 35.7074 538.105 35.9873C538.691 36.2673 539.172 36.583 539.55 36.9346C539.934 37.2796 540.217 37.6735 540.4 38.1162C540.588 38.5524 540.683 39.0472 540.683 39.6006C540.683 40.18 540.566 40.7041 540.331 41.1729C540.097 41.6416 539.761 42.042 539.325 42.374C538.889 42.7061 538.365 42.9632 537.753 43.1455C537.148 43.3213 536.47 43.4092 535.722 43.4092C535.064 43.4092 534.416 43.318 533.778 43.1357C533.147 42.9535 532.571 42.68 532.05 42.3154C531.536 41.9508 531.122 41.5016 530.81 40.9678C530.504 40.4274 530.351 39.8024 530.351 39.0928H532.226C532.226 39.5811 532.32 40.001 532.509 40.3525C532.698 40.6976 532.955 40.984 533.28 41.2119C533.612 41.4398 533.987 41.609 534.403 41.7197C534.827 41.8239 535.266 41.876 535.722 41.876C536.379 41.876 536.936 41.7848 537.392 41.6025C537.847 41.4202 538.192 41.1598 538.427 40.8213C538.668 40.4827 538.788 40.0824 538.788 39.6201Z" fill="white"/>
<circle cx="577.429" cy="265.43" r="24.7143" fill="url(#paint8_linear_793_147553)" stroke="url(#paint9_linear_793_147553)" stroke-width="2"/>
<line x1="578.429" y1="289.858" x2="578.429" y2="509.858" stroke="url(#paint10_linear_793_147553)" stroke-width="2" stroke-dasharray="3 3"/>
<circle r="5.5" transform="matrix(1 0 0 -1 578.5 509.5)" fill="url(#paint11_linear_793_147553)"/>
<path d="M611.105 496.989L613.927 487.067H615.294L614.503 490.925L611.466 501.286H610.109L611.105 496.989ZM608.185 487.067L610.431 496.794L611.105 501.286H609.757L606.31 487.067H608.185ZM618.947 496.784L621.144 487.067H623.029L619.591 501.286H618.244L618.947 496.784ZM615.5 487.067L618.244 496.989L619.24 501.286H617.882L614.953 490.925L614.152 487.067H615.5ZM634.952 499.753V501.286H627.423V499.753H634.952ZM627.803 487.067V501.286H625.919V487.067H627.803ZM633.956 493.181V494.714H627.423V493.181H633.956ZM634.854 487.067V488.61H627.423V487.067H634.854ZM643.154 494.636H639.551L639.531 493.122H642.803C643.343 493.122 643.815 493.031 644.219 492.849C644.622 492.666 644.935 492.406 645.156 492.067C645.384 491.722 645.498 491.312 645.498 490.837C645.498 490.316 645.397 489.893 645.195 489.567C645 489.235 644.697 488.994 644.287 488.845C643.883 488.688 643.369 488.61 642.744 488.61H639.971V501.286H638.086V487.067H642.744C643.473 487.067 644.124 487.142 644.697 487.292C645.27 487.435 645.755 487.663 646.152 487.976C646.556 488.282 646.862 488.672 647.07 489.147C647.279 489.623 647.383 490.192 647.383 490.856C647.383 491.442 647.233 491.973 646.933 492.448C646.634 492.917 646.217 493.301 645.683 493.601C645.156 493.9 644.538 494.092 643.828 494.177L643.154 494.636ZM643.066 501.286H638.808L639.873 499.753H643.066C643.665 499.753 644.173 499.649 644.59 499.44C645.013 499.232 645.335 498.939 645.557 498.562C645.778 498.177 645.889 497.725 645.889 497.204C645.889 496.677 645.794 496.221 645.605 495.837C645.417 495.453 645.12 495.157 644.717 494.948C644.313 494.74 643.792 494.636 643.154 494.636H640.469L640.488 493.122H644.16L644.56 493.669C645.244 493.728 645.823 493.923 646.299 494.255C646.774 494.58 647.135 494.997 647.383 495.505C647.637 496.013 647.764 496.573 647.764 497.185C647.764 498.07 647.568 498.819 647.178 499.431C646.794 500.036 646.25 500.498 645.547 500.817C644.844 501.13 644.017 501.286 643.066 501.286ZM659.276 493.288H660.565C661.196 493.288 661.717 493.184 662.127 492.976C662.544 492.761 662.853 492.471 663.055 492.106C663.263 491.735 663.367 491.319 663.367 490.856C663.367 490.31 663.276 489.851 663.094 489.479C662.912 489.108 662.638 488.828 662.274 488.64C661.909 488.451 661.447 488.356 660.887 488.356C660.379 488.356 659.93 488.457 659.539 488.659C659.155 488.854 658.853 489.134 658.631 489.499C658.416 489.864 658.309 490.293 658.309 490.788H656.502C656.502 490.065 656.685 489.408 657.049 488.815C657.414 488.223 657.925 487.751 658.582 487.399C659.246 487.048 660.015 486.872 660.887 486.872C661.746 486.872 662.498 487.025 663.143 487.331C663.787 487.631 664.289 488.08 664.647 488.679C665.005 489.271 665.184 490.01 665.184 490.896C665.184 491.254 665.099 491.638 664.93 492.048C664.767 492.451 664.51 492.829 664.158 493.181C663.813 493.532 663.364 493.822 662.811 494.05C662.257 494.271 661.593 494.382 660.819 494.382H659.276V493.288ZM659.276 494.772V493.688H660.819C661.724 493.688 662.472 493.796 663.065 494.011C663.657 494.226 664.123 494.512 664.461 494.87C664.806 495.228 665.047 495.622 665.184 496.052C665.327 496.475 665.399 496.898 665.399 497.321C665.399 497.985 665.285 498.575 665.057 499.089C664.836 499.603 664.52 500.039 664.11 500.397C663.706 500.756 663.231 501.026 662.684 501.208C662.137 501.39 661.541 501.481 660.897 501.481C660.278 501.481 659.696 501.394 659.149 501.218C658.608 501.042 658.13 500.788 657.713 500.456C657.297 500.118 656.971 499.704 656.737 499.216C656.502 498.721 656.385 498.158 656.385 497.526H658.192C658.192 498.021 658.299 498.454 658.514 498.825C658.735 499.196 659.048 499.486 659.451 499.694C659.862 499.896 660.343 499.997 660.897 499.997C661.45 499.997 661.925 499.903 662.323 499.714C662.726 499.519 663.035 499.226 663.25 498.835C663.472 498.444 663.582 497.953 663.582 497.36C663.582 496.768 663.459 496.283 663.211 495.905C662.964 495.521 662.612 495.238 662.157 495.056C661.707 494.867 661.177 494.772 660.565 494.772H659.276ZM676.94 487.067V501.286H675.055V487.067H676.94ZM692.105 487.067V501.286H690.211L683.053 490.319V501.286H681.168V487.067H683.053L690.24 498.063V487.067H692.105ZM701.206 487.067V501.286H699.351V487.067H701.206ZM705.776 487.067V488.61H694.79V487.067H705.776ZM717.719 499.753V501.286H710.19V499.753H717.719ZM710.571 487.067V501.286H708.686V487.067H710.571ZM716.723 493.181V494.714H710.19V493.181H716.723ZM717.621 487.067V488.61H710.19V487.067H717.621ZM720.853 487.067H725.56C726.628 487.067 727.529 487.23 728.265 487.556C729.007 487.881 729.57 488.363 729.955 489.001C730.345 489.632 730.541 490.41 730.541 491.335C730.541 491.986 730.407 492.582 730.14 493.122C729.88 493.656 729.502 494.112 729.007 494.489C728.519 494.86 727.933 495.137 727.25 495.319L726.722 495.524H722.298L722.279 493.991H725.619C726.296 493.991 726.859 493.874 727.308 493.64C727.757 493.399 728.096 493.076 728.324 492.673C728.552 492.269 728.666 491.823 728.666 491.335C728.666 490.788 728.558 490.31 728.343 489.899C728.128 489.489 727.79 489.174 727.328 488.952C726.872 488.724 726.283 488.61 725.56 488.61H722.738V501.286H720.853V487.067ZM729.164 501.286L725.707 494.841L727.669 494.831L731.175 501.169V501.286H729.164ZM735.862 487.067V501.286H733.977V487.067H735.862ZM741.819 493.464V495.007H735.452V493.464H741.819ZM742.786 487.067V488.61H735.452V487.067H742.786ZM749.435 488.327L744.728 501.286H742.805L748.225 487.067H749.465L749.435 488.327ZM753.381 501.286L748.664 488.327L748.635 487.067H749.875L755.314 501.286H753.381ZM753.137 496.022V497.565H745.148V496.022H753.137ZM766.485 496.765H768.36C768.263 497.663 768.006 498.467 767.589 499.177C767.172 499.886 766.583 500.45 765.821 500.866C765.06 501.276 764.109 501.481 762.97 501.481C762.136 501.481 761.378 501.325 760.694 501.013C760.017 500.7 759.435 500.257 758.946 499.685C758.458 499.105 758.08 498.412 757.814 497.604C757.553 496.791 757.423 495.886 757.423 494.89V493.474C757.423 492.478 757.553 491.576 757.814 490.769C758.08 489.955 758.461 489.258 758.956 488.679C759.457 488.099 760.06 487.653 760.763 487.341C761.466 487.028 762.257 486.872 763.136 486.872C764.21 486.872 765.118 487.074 765.86 487.478C766.603 487.881 767.179 488.441 767.589 489.157C768.006 489.867 768.263 490.69 768.36 491.628H766.485C766.394 490.964 766.225 490.394 765.978 489.919C765.73 489.437 765.379 489.066 764.923 488.806C764.467 488.545 763.872 488.415 763.136 488.415C762.504 488.415 761.948 488.535 761.466 488.776C760.991 489.017 760.59 489.359 760.265 489.802C759.946 490.244 759.705 490.775 759.542 491.394C759.379 492.012 759.298 492.699 759.298 493.454V494.89C759.298 495.586 759.37 496.241 759.513 496.853C759.663 497.465 759.887 498.002 760.187 498.464C760.486 498.926 760.867 499.291 761.329 499.558C761.791 499.818 762.338 499.948 762.97 499.948C763.771 499.948 764.409 499.821 764.884 499.567C765.359 499.313 765.717 498.949 765.958 498.474C766.205 497.998 766.381 497.429 766.485 496.765ZM780.762 499.753V501.286H773.233V499.753H780.762ZM773.614 487.067V501.286H771.729V487.067H773.614ZM779.766 493.181V494.714H773.233V493.181H779.766ZM780.664 487.067V488.61H773.233V487.067H780.664ZM612.609 519.71H608.81V518.177H612.609C613.345 518.177 613.94 518.06 614.396 517.825C614.852 517.591 615.184 517.265 615.392 516.849C615.607 516.432 615.714 515.957 615.714 515.423C615.714 514.935 615.607 514.476 615.392 514.046C615.184 513.616 614.852 513.271 614.396 513.011C613.94 512.744 613.345 512.61 612.609 512.61H609.25V525.286H607.365V511.067H612.609C613.683 511.067 614.591 511.253 615.333 511.624C616.076 511.995 616.639 512.509 617.023 513.167C617.407 513.818 617.599 514.563 617.599 515.403C617.599 516.315 617.407 517.093 617.023 517.737C616.639 518.382 616.076 518.873 615.333 519.212C614.591 519.544 613.683 519.71 612.609 519.71ZM620.782 511.067H625.489C626.557 511.067 627.458 511.23 628.194 511.556C628.936 511.881 629.499 512.363 629.883 513.001C630.274 513.632 630.469 514.41 630.469 515.335C630.469 515.986 630.336 516.582 630.069 517.122C629.809 517.656 629.431 518.112 628.936 518.489C628.448 518.86 627.862 519.137 627.178 519.319L626.651 519.524H622.227L622.208 517.991H625.548C626.225 517.991 626.788 517.874 627.237 517.64C627.686 517.399 628.025 517.076 628.253 516.673C628.481 516.269 628.594 515.823 628.594 515.335C628.594 514.788 628.487 514.31 628.272 513.899C628.057 513.489 627.719 513.174 627.257 512.952C626.801 512.724 626.212 512.61 625.489 512.61H622.667V525.286H620.782V511.067ZM629.092 525.286L625.635 518.841L627.598 518.831L631.104 525.169V525.286H629.092ZM644.853 517.728V518.626C644.853 519.694 644.72 520.651 644.453 521.497C644.186 522.343 643.802 523.063 643.301 523.655C642.799 524.248 642.197 524.7 641.494 525.013C640.797 525.325 640.016 525.481 639.15 525.481C638.31 525.481 637.539 525.325 636.836 525.013C636.139 524.7 635.534 524.248 635.019 523.655C634.512 523.063 634.118 522.343 633.838 521.497C633.558 520.651 633.418 519.694 633.418 518.626V517.728C633.418 516.66 633.555 515.706 633.828 514.866C634.108 514.02 634.502 513.3 635.01 512.708C635.517 512.109 636.12 511.653 636.816 511.341C637.519 511.028 638.291 510.872 639.131 510.872C639.997 510.872 640.778 511.028 641.475 511.341C642.178 511.653 642.78 512.109 643.281 512.708C643.789 513.3 644.176 514.02 644.443 514.866C644.717 515.706 644.853 516.66 644.853 517.728ZM642.988 518.626V517.708C642.988 516.862 642.9 516.113 642.725 515.462C642.555 514.811 642.305 514.264 641.973 513.821C641.641 513.379 641.234 513.043 640.752 512.815C640.277 512.588 639.736 512.474 639.131 512.474C638.545 512.474 638.014 512.588 637.539 512.815C637.07 513.043 636.667 513.379 636.328 513.821C635.996 514.264 635.739 514.811 635.557 515.462C635.374 516.113 635.283 516.862 635.283 517.708V518.626C635.283 519.479 635.374 520.234 635.557 520.892C635.739 521.543 635.999 522.093 636.338 522.542C636.683 522.985 637.09 523.32 637.558 523.548C638.034 523.776 638.564 523.89 639.15 523.89C639.762 523.89 640.306 523.776 640.781 523.548C641.256 523.32 641.657 522.985 641.982 522.542C642.314 522.093 642.565 521.543 642.734 520.892C642.904 520.234 642.988 519.479 642.988 518.626ZM652.851 523.128L657.04 511.067H659.081L653.817 525.286H652.362L652.851 523.128ZM648.935 511.067L653.085 523.128L653.603 525.286H652.148L646.894 511.067H648.935ZM663.817 511.067V525.286H661.932V511.067H663.817ZM671.892 525.286H668.923L668.943 523.753H671.892C672.908 523.753 673.754 523.541 674.431 523.118C675.108 522.688 675.616 522.09 675.955 521.321C676.3 520.547 676.472 519.642 676.472 518.606V517.737C676.472 516.924 676.375 516.201 676.179 515.569C675.984 514.931 675.697 514.394 675.32 513.958C674.942 513.515 674.48 513.18 673.933 512.952C673.393 512.724 672.771 512.61 672.068 512.61H668.865V511.067H672.068C672.999 511.067 673.848 511.224 674.617 511.536C675.385 511.842 676.046 512.288 676.599 512.874C677.159 513.453 677.589 514.157 677.888 514.983C678.188 515.804 678.337 516.728 678.337 517.757V518.606C678.337 519.635 678.188 520.563 677.888 521.39C677.589 522.21 677.156 522.91 676.589 523.489C676.029 524.069 675.352 524.515 674.558 524.827C673.77 525.133 672.882 525.286 671.892 525.286ZM669.929 511.067V525.286H668.044V511.067H669.929ZM691.003 523.753V525.286H683.473V523.753H691.003ZM683.854 511.067V525.286H681.969V511.067H683.854ZM690.007 517.181V518.714H683.473V517.181H690.007ZM690.905 511.067V512.61H683.473V511.067H690.905ZM694.137 511.067H698.844C699.911 511.067 700.813 511.23 701.549 511.556C702.291 511.881 702.854 512.363 703.238 513.001C703.629 513.632 703.824 514.41 703.824 515.335C703.824 515.986 703.691 516.582 703.424 517.122C703.163 517.656 702.786 518.112 702.291 518.489C701.803 518.86 701.217 519.137 700.533 519.319L700.006 519.524H695.582L695.562 517.991H698.902C699.579 517.991 700.142 517.874 700.592 517.64C701.041 517.399 701.379 517.076 701.607 516.673C701.835 516.269 701.949 515.823 701.949 515.335C701.949 514.788 701.842 514.31 701.627 513.899C701.412 513.489 701.073 513.174 700.611 512.952C700.155 512.724 699.566 512.61 698.844 512.61H696.021V525.286H694.137V511.067ZM702.447 525.286L698.99 518.841L700.953 518.831L704.459 525.169V525.286H702.447ZM714.839 521.692C714.839 521.36 714.787 521.067 714.683 520.813C714.585 520.553 714.409 520.319 714.155 520.11C713.908 519.902 713.563 519.703 713.12 519.515C712.684 519.326 712.131 519.134 711.46 518.938C710.757 518.73 710.122 518.499 709.556 518.245C708.989 517.985 708.504 517.688 708.101 517.356C707.697 517.024 707.388 516.644 707.173 516.214C706.958 515.784 706.851 515.293 706.851 514.739C706.851 514.186 706.965 513.675 707.192 513.206C707.42 512.737 707.746 512.33 708.169 511.985C708.599 511.634 709.11 511.36 709.702 511.165C710.295 510.97 710.956 510.872 711.685 510.872C712.752 510.872 713.657 511.077 714.4 511.487C715.148 511.891 715.718 512.422 716.108 513.079C716.499 513.73 716.694 514.427 716.694 515.169H714.819C714.819 514.635 714.706 514.163 714.478 513.753C714.25 513.336 713.905 513.011 713.442 512.776C712.98 512.535 712.394 512.415 711.685 512.415C711.014 512.415 710.461 512.516 710.025 512.718C709.588 512.92 709.263 513.193 709.048 513.538C708.84 513.883 708.735 514.277 708.735 514.72C708.735 515.019 708.797 515.293 708.921 515.54C709.051 515.781 709.25 516.006 709.517 516.214C709.79 516.422 710.135 516.614 710.552 516.79C710.975 516.966 711.48 517.135 712.066 517.298C712.873 517.526 713.569 517.78 714.155 518.06C714.741 518.34 715.223 518.655 715.601 519.007C715.985 519.352 716.268 519.746 716.45 520.188C716.639 520.625 716.733 521.119 716.733 521.673C716.733 522.252 716.616 522.776 716.382 523.245C716.148 523.714 715.812 524.114 715.376 524.446C714.94 524.778 714.416 525.035 713.804 525.218C713.198 525.394 712.521 525.481 711.773 525.481C711.115 525.481 710.467 525.39 709.829 525.208C709.198 525.026 708.622 524.752 708.101 524.388C707.586 524.023 707.173 523.574 706.86 523.04C706.554 522.5 706.401 521.875 706.401 521.165H708.276C708.276 521.653 708.371 522.073 708.56 522.425C708.748 522.77 709.006 523.056 709.331 523.284C709.663 523.512 710.038 523.681 710.454 523.792C710.877 523.896 711.317 523.948 711.773 523.948C712.43 523.948 712.987 523.857 713.442 523.675C713.898 523.493 714.243 523.232 714.478 522.894C714.719 522.555 714.839 522.155 714.839 521.692Z" fill="white"/>
<path d="M791.96 4.99512H793.787L798.445 16.5869L803.093 4.99512H804.929L799.148 19.2139H797.722L791.96 4.99512ZM791.365 4.99512H792.976L793.24 13.667V19.2139H791.365V4.99512ZM803.904 4.99512H805.515V19.2139H803.64V13.667L803.904 4.99512ZM820.573 11.6553V12.5537C820.573 13.6214 820.439 14.5785 820.173 15.4248C819.906 16.2712 819.522 16.9906 819.02 17.583C818.519 18.1755 817.917 18.6279 817.214 18.9404C816.517 19.2529 815.736 19.4092 814.87 19.4092C814.03 19.4092 813.258 19.2529 812.555 18.9404C811.859 18.6279 811.253 18.1755 810.739 17.583C810.231 16.9906 809.837 16.2712 809.557 15.4248C809.277 14.5785 809.137 13.6214 809.137 12.5537V11.6553C809.137 10.5876 809.274 9.63379 809.548 8.79395C809.828 7.94759 810.221 7.22819 810.729 6.63574C811.237 6.03678 811.839 5.58105 812.536 5.26855C813.239 4.95605 814.01 4.7998 814.85 4.7998C815.716 4.7998 816.497 4.95605 817.194 5.26855C817.897 5.58105 818.499 6.03678 819.001 6.63574C819.508 7.22819 819.896 7.94759 820.163 8.79395C820.436 9.63379 820.573 10.5876 820.573 11.6553ZM818.708 12.5537V11.6357C818.708 10.7894 818.62 10.0407 818.444 9.38965C818.275 8.73861 818.024 8.19173 817.692 7.74902C817.36 7.30632 816.953 6.97103 816.471 6.74316C815.996 6.5153 815.456 6.40137 814.85 6.40137C814.264 6.40137 813.734 6.5153 813.258 6.74316C812.79 6.97103 812.386 7.30632 812.048 7.74902C811.716 8.19173 811.458 8.73861 811.276 9.38965C811.094 10.0407 811.003 10.7894 811.003 11.6357V12.5537C811.003 13.4066 811.094 14.1618 811.276 14.8193C811.458 15.4704 811.719 16.0205 812.057 16.4697C812.402 16.9124 812.809 17.2477 813.278 17.4756C813.753 17.7035 814.284 17.8174 814.87 17.8174C815.482 17.8174 816.025 17.7035 816.501 17.4756C816.976 17.2477 817.376 16.9124 817.702 16.4697C818.034 16.0205 818.285 15.4704 818.454 14.8193C818.623 14.1618 818.708 13.4066 818.708 12.5537ZM824.195 4.99512H828.902C829.97 4.99512 830.872 5.15788 831.607 5.4834C832.35 5.80892 832.913 6.29069 833.297 6.92871C833.687 7.56022 833.883 8.33822 833.883 9.2627C833.883 9.91374 833.749 10.5094 833.482 11.0498C833.222 11.5837 832.844 12.0394 832.35 12.417C831.861 12.7881 831.275 13.0648 830.592 13.2471L830.064 13.4521H825.641L825.621 11.9189H828.961C829.638 11.9189 830.201 11.8018 830.65 11.5674C831.1 11.3265 831.438 11.0042 831.666 10.6006C831.894 10.1969 832.008 9.75098 832.008 9.2627C832.008 8.71582 831.9 8.2373 831.685 7.82715C831.471 7.41699 831.132 7.10124 830.67 6.87988C830.214 6.65202 829.625 6.53809 828.902 6.53809H826.08V19.2139H824.195V4.99512ZM832.506 19.2139L829.049 12.7686L831.012 12.7588L834.517 19.0967V19.2139H832.506ZM846.353 17.6807V19.2139H838.823V17.6807H846.353ZM839.204 4.99512V19.2139H837.319V4.99512H839.204ZM845.357 11.1084V12.6416H838.823V11.1084H845.357ZM846.255 4.99512V6.53809H838.823V4.99512H846.255ZM799.949 38.6924H801.824C801.726 39.5908 801.469 40.3949 801.052 41.1045C800.636 41.8141 800.046 42.3773 799.285 42.7939C798.523 43.2041 797.572 43.4092 796.433 43.4092C795.6 43.4092 794.841 43.2529 794.158 42.9404C793.481 42.6279 792.898 42.1852 792.41 41.6123C791.921 41.0329 791.544 40.3395 791.277 39.5322C791.016 38.7184 790.886 37.8135 790.886 36.8174V35.4014C790.886 34.4053 791.016 33.5036 791.277 32.6963C791.544 31.8825 791.925 31.1859 792.419 30.6064C792.921 30.027 793.523 29.5811 794.226 29.2686C794.929 28.9561 795.72 28.7998 796.599 28.7998C797.673 28.7998 798.582 29.0016 799.324 29.4053C800.066 29.8089 800.642 30.3688 801.052 31.085C801.469 31.7946 801.726 32.6182 801.824 33.5557H799.949C799.858 32.8916 799.688 32.3219 799.441 31.8467C799.194 31.3649 798.842 30.9938 798.386 30.7334C797.931 30.473 797.335 30.3428 796.599 30.3428C795.968 30.3428 795.411 30.4632 794.929 30.7041C794.454 30.945 794.054 31.2868 793.728 31.7295C793.409 32.1722 793.168 32.7028 793.005 33.3213C792.843 33.9398 792.761 34.6266 792.761 35.3818V36.8174C792.761 37.514 792.833 38.1683 792.976 38.7803C793.126 39.3923 793.35 39.9294 793.65 40.3916C793.949 40.8538 794.33 41.2184 794.792 41.4854C795.255 41.7458 795.802 41.876 796.433 41.876C797.234 41.876 797.872 41.749 798.347 41.4951C798.822 41.2412 799.181 40.8766 799.421 40.4014C799.669 39.9261 799.845 39.3564 799.949 38.6924ZM814.479 35.1084V36.6416H806.784V35.1084H814.479ZM807.077 28.9951V43.2139H805.192V28.9951H807.077ZM816.12 28.9951V43.2139H814.245V28.9951H816.12ZM825.709 30.2549L821.002 43.2139H819.078L824.498 28.9951H825.738L825.709 30.2549ZM829.654 43.2139L824.937 30.2549L824.908 28.9951H826.148L831.588 43.2139H829.654ZM829.41 37.9502V39.4932H821.422V37.9502H829.41ZM836.314 28.9951V43.2139H834.429V28.9951H836.314ZM851.479 28.9951V43.2139H849.584L842.426 32.2471V43.2139H840.541V28.9951H842.426L849.614 39.9912V28.9951H851.479ZM863.197 39.6201C863.197 39.2881 863.145 38.9951 863.041 38.7412C862.943 38.4808 862.767 38.2464 862.513 38.0381C862.266 37.8298 861.921 37.6312 861.478 37.4424C861.042 37.2536 860.488 37.0615 859.818 36.8662C859.115 36.6579 858.48 36.4268 857.914 36.1729C857.347 35.9124 856.862 35.6162 856.458 35.2842C856.055 34.9521 855.746 34.5713 855.531 34.1416C855.316 33.7119 855.208 33.2204 855.208 32.667C855.208 32.1136 855.322 31.6025 855.55 31.1338C855.778 30.665 856.104 30.2581 856.527 29.9131C856.957 29.5615 857.468 29.2881 858.06 29.0928C858.653 28.8975 859.313 28.7998 860.042 28.7998C861.11 28.7998 862.015 29.0049 862.757 29.415C863.506 29.8187 864.076 30.3493 864.466 31.0068C864.857 31.6579 865.052 32.3545 865.052 33.0967H863.177C863.177 32.5628 863.063 32.0908 862.835 31.6807C862.608 31.264 862.263 30.9385 861.8 30.7041C861.338 30.4632 860.752 30.3428 860.042 30.3428C859.372 30.3428 858.819 30.4437 858.382 30.6455C857.946 30.8473 857.621 31.1208 857.406 31.4658C857.197 31.8109 857.093 32.2048 857.093 32.6475C857.093 32.9469 857.155 33.2204 857.279 33.4678C857.409 33.7087 857.608 33.9333 857.875 34.1416C858.148 34.3499 858.493 34.542 858.91 34.7178C859.333 34.8936 859.837 35.0628 860.423 35.2256C861.231 35.4535 861.927 35.7074 862.513 35.9873C863.099 36.2673 863.581 36.583 863.958 36.9346C864.343 37.2796 864.626 37.6735 864.808 38.1162C864.997 38.5524 865.091 39.0472 865.091 39.6006C865.091 40.18 864.974 40.7041 864.74 41.1729C864.505 41.6416 864.17 42.042 863.734 42.374C863.298 42.7061 862.774 42.9632 862.162 43.1455C861.556 43.3213 860.879 43.4092 860.13 43.4092C859.473 43.4092 858.825 43.318 858.187 43.1357C857.556 42.9535 856.979 42.68 856.458 42.3154C855.944 41.9508 855.531 41.5016 855.218 40.9678C854.912 40.4274 854.759 39.8024 854.759 39.0928H856.634C856.634 39.5811 856.729 40.001 856.917 40.3525C857.106 40.6976 857.363 40.984 857.689 41.2119C858.021 41.4398 858.395 41.609 858.812 41.7197C859.235 41.8239 859.675 41.876 860.13 41.876C860.788 41.876 861.345 41.7848 861.8 41.6025C862.256 41.4202 862.601 41.1598 862.835 40.8213C863.076 40.4827 863.197 40.0824 863.197 39.6201Z" fill="white"/>
<circle cx="945.429" cy="265.43" r="24.7143" fill="url(#paint12_linear_793_147553)" stroke="url(#paint13_linear_793_147553)" stroke-width="2"/>
<line x1="946.429" y1="289.858" x2="946.429" y2="509.858" stroke="url(#paint14_linear_793_147553)" stroke-width="2" stroke-dasharray="3 3"/>
<circle r="5.5" transform="matrix(1 0 0 -1 946.5 509.5)" fill="url(#paint15_linear_793_147553)"/>
<path d="M982.5 487.067H984.375V496.687C984.375 497.754 984.137 498.643 983.662 499.353C983.186 500.062 982.555 500.596 981.767 500.954C980.986 501.306 980.136 501.481 979.218 501.481C978.255 501.481 977.382 501.306 976.601 500.954C975.826 500.596 975.211 500.062 974.755 499.353C974.306 498.643 974.082 497.754 974.082 496.687V487.067H975.947V496.687C975.947 497.429 976.083 498.041 976.357 498.522C976.63 499.004 977.011 499.362 977.5 499.597C977.994 499.831 978.567 499.948 979.218 499.948C979.876 499.948 980.449 499.831 980.937 499.597C981.432 499.362 981.816 499.004 982.089 498.522C982.363 498.041 982.5 497.429 982.5 496.687V487.067ZM995.712 497.692C995.712 497.36 995.66 497.067 995.555 496.813C995.458 496.553 995.282 496.319 995.028 496.11C994.781 495.902 994.436 495.703 993.993 495.515C993.557 495.326 993.003 495.134 992.333 494.938C991.63 494.73 990.995 494.499 990.428 494.245C989.862 493.985 989.377 493.688 988.973 493.356C988.57 493.024 988.26 492.644 988.046 492.214C987.831 491.784 987.723 491.293 987.723 490.739C987.723 490.186 987.837 489.675 988.065 489.206C988.293 488.737 988.619 488.33 989.042 487.985C989.471 487.634 989.982 487.36 990.575 487.165C991.167 486.97 991.828 486.872 992.557 486.872C993.625 486.872 994.53 487.077 995.272 487.487C996.021 487.891 996.591 488.422 996.981 489.079C997.372 489.73 997.567 490.427 997.567 491.169H995.692C995.692 490.635 995.578 490.163 995.35 489.753C995.122 489.336 994.777 489.011 994.315 488.776C993.853 488.535 993.267 488.415 992.557 488.415C991.887 488.415 991.333 488.516 990.897 488.718C990.461 488.92 990.135 489.193 989.921 489.538C989.712 489.883 989.608 490.277 989.608 490.72C989.608 491.019 989.67 491.293 989.794 491.54C989.924 491.781 990.122 492.006 990.389 492.214C990.663 492.422 991.008 492.614 991.425 492.79C991.848 492.966 992.352 493.135 992.938 493.298C993.745 493.526 994.442 493.78 995.028 494.06C995.614 494.34 996.096 494.655 996.473 495.007C996.857 495.352 997.141 495.746 997.323 496.188C997.512 496.625 997.606 497.119 997.606 497.673C997.606 498.252 997.489 498.776 997.255 499.245C997.02 499.714 996.685 500.114 996.249 500.446C995.813 500.778 995.288 501.035 994.676 501.218C994.071 501.394 993.394 501.481 992.645 501.481C991.988 501.481 991.34 501.39 990.702 501.208C990.07 501.026 989.494 500.752 988.973 500.388C988.459 500.023 988.046 499.574 987.733 499.04C987.427 498.5 987.274 497.875 987.274 497.165H989.149C989.149 497.653 989.244 498.073 989.432 498.425C989.621 498.77 989.878 499.056 990.204 499.284C990.536 499.512 990.91 499.681 991.327 499.792C991.75 499.896 992.189 499.948 992.645 499.948C993.303 499.948 993.859 499.857 994.315 499.675C994.771 499.493 995.116 499.232 995.35 498.894C995.591 498.555 995.712 498.155 995.712 497.692ZM1004.66 501.286H1001.69L1001.71 499.753H1004.66C1005.67 499.753 1006.52 499.541 1007.2 499.118C1007.87 498.688 1008.38 498.09 1008.72 497.321C1009.06 496.547 1009.24 495.642 1009.24 494.606V493.737C1009.24 492.924 1009.14 492.201 1008.94 491.569C1008.75 490.931 1008.46 490.394 1008.08 489.958C1007.71 489.515 1007.24 489.18 1006.7 488.952C1006.16 488.724 1005.54 488.61 1004.83 488.61H1001.63V487.067H1004.83C1005.76 487.067 1006.61 487.224 1007.38 487.536C1008.15 487.842 1008.81 488.288 1009.36 488.874C1009.92 489.453 1010.35 490.157 1010.65 490.983C1010.95 491.804 1011.1 492.728 1011.1 493.757V494.606C1011.1 495.635 1010.95 496.563 1010.65 497.39C1010.35 498.21 1009.92 498.91 1009.35 499.489C1008.79 500.069 1008.12 500.515 1007.32 500.827C1006.53 501.133 1005.65 501.286 1004.66 501.286ZM1002.69 487.067V501.286H1000.81V487.067H1002.69ZM1023.59 493.659V495.358H1013.84V493.659H1023.59ZM1019.63 489.509V499.86H1017.82V489.509H1019.63ZM976.386 511.067V525.286H974.501V511.067H976.386ZM991.551 511.067V525.286H989.657L982.499 514.319V525.286H980.614V511.067H982.499L989.686 522.063V511.067H991.551ZM1003.27 521.692C1003.27 521.36 1003.22 521.067 1003.11 520.813C1003.02 520.553 1002.84 520.319 1002.59 520.11C1002.34 519.902 1001.99 519.703 1001.55 519.515C1001.11 519.326 1000.56 519.134 999.891 518.938C999.187 518.73 998.553 518.499 997.986 518.245C997.42 517.985 996.935 517.688 996.531 517.356C996.128 517.024 995.818 516.644 995.603 516.214C995.389 515.784 995.281 515.293 995.281 514.739C995.281 514.186 995.395 513.675 995.623 513.206C995.851 512.737 996.176 512.33 996.6 511.985C997.029 511.634 997.54 511.36 998.133 511.165C998.725 510.97 999.386 510.872 1000.12 510.872C1001.18 510.872 1002.09 511.077 1002.83 511.487C1003.58 511.891 1004.15 512.422 1004.54 513.079C1004.93 513.73 1005.12 514.427 1005.12 515.169H1003.25C1003.25 514.635 1003.14 514.163 1002.91 513.753C1002.68 513.336 1002.34 513.011 1001.87 512.776C1001.41 512.535 1000.82 512.415 1000.12 512.415C999.445 512.415 998.891 512.516 998.455 512.718C998.019 512.92 997.693 513.193 997.478 513.538C997.27 513.883 997.166 514.277 997.166 514.72C997.166 515.019 997.228 515.293 997.351 515.54C997.482 515.781 997.68 516.006 997.947 516.214C998.221 516.422 998.566 516.614 998.982 516.79C999.406 516.966 999.91 517.135 1000.5 517.298C1001.3 517.526 1002 517.78 1002.59 518.06C1003.17 518.34 1003.65 518.655 1004.03 519.007C1004.42 519.352 1004.7 519.746 1004.88 520.188C1005.07 520.625 1005.16 521.119 1005.16 521.673C1005.16 522.252 1005.05 522.776 1004.81 523.245C1004.58 523.714 1004.24 524.114 1003.81 524.446C1003.37 524.778 1002.85 525.035 1002.23 525.218C1001.63 525.394 1000.95 525.481 1000.2 525.481C999.545 525.481 998.898 525.39 998.26 525.208C997.628 525.026 997.052 524.752 996.531 524.388C996.017 524.023 995.603 523.574 995.291 523.04C994.985 522.5 994.832 521.875 994.832 521.165H996.707C996.707 521.653 996.801 522.073 996.99 522.425C997.179 522.77 997.436 523.056 997.762 523.284C998.094 523.512 998.468 523.681 998.885 523.792C999.308 523.896 999.747 523.948 1000.2 523.948C1000.86 523.948 1001.42 523.857 1001.87 523.675C1002.33 523.493 1002.67 523.232 1002.91 522.894C1003.15 522.555 1003.27 522.155 1003.27 521.692ZM1016.5 511.067H1018.38V520.687C1018.38 521.754 1018.14 522.643 1017.66 523.353C1017.19 524.062 1016.56 524.596 1015.77 524.954C1014.99 525.306 1014.14 525.481 1013.22 525.481C1012.26 525.481 1011.38 525.306 1010.6 524.954C1009.83 524.596 1009.21 524.062 1008.76 523.353C1008.31 522.643 1008.08 521.754 1008.08 520.687V511.067H1009.95V520.687C1009.95 521.429 1010.09 522.041 1010.36 522.522C1010.63 523.004 1011.01 523.362 1011.5 523.597C1012 523.831 1012.57 523.948 1013.22 523.948C1013.88 523.948 1014.45 523.831 1014.94 523.597C1015.43 523.362 1015.82 523.004 1016.09 522.522C1016.36 522.041 1016.5 521.429 1016.5 520.687V511.067ZM1022.14 511.067H1026.84C1027.91 511.067 1028.81 511.23 1029.55 511.556C1030.29 511.881 1030.85 512.363 1031.24 513.001C1031.63 513.632 1031.82 514.41 1031.82 515.335C1031.82 515.986 1031.69 516.582 1031.42 517.122C1031.16 517.656 1030.78 518.112 1030.29 518.489C1029.8 518.86 1029.22 519.137 1028.53 519.319L1028 519.524H1023.58L1023.56 517.991H1026.9C1027.58 517.991 1028.14 517.874 1028.59 517.64C1029.04 517.399 1029.38 517.076 1029.61 516.673C1029.83 516.269 1029.95 515.823 1029.95 515.335C1029.95 514.788 1029.84 514.31 1029.63 513.899C1029.41 513.489 1029.07 513.174 1028.61 512.952C1028.15 512.724 1027.56 512.61 1026.84 512.61H1024.02V525.286H1022.14V511.067ZM1030.45 525.286L1026.99 518.841L1028.95 518.831L1032.46 525.169V525.286H1030.45ZM1040.52 512.327L1035.82 525.286H1033.89L1039.31 511.067H1040.55L1040.52 512.327ZM1044.47 525.286L1039.75 512.327L1039.72 511.067H1040.96L1046.4 525.286H1044.47ZM1044.22 520.022V521.565H1036.24V520.022H1044.22ZM1060.04 511.067V525.286H1058.15L1050.99 514.319V525.286H1049.11V511.067H1050.99L1058.18 522.063V511.067H1060.04ZM1072.77 520.765H1074.64C1074.54 521.663 1074.29 522.467 1073.87 523.177C1073.45 523.886 1072.87 524.45 1072.1 524.866C1071.34 525.276 1070.39 525.481 1069.25 525.481C1068.42 525.481 1067.66 525.325 1066.98 525.013C1066.3 524.7 1065.72 524.257 1065.23 523.685C1064.74 523.105 1064.36 522.412 1064.1 521.604C1063.84 520.791 1063.7 519.886 1063.7 518.89V517.474C1063.7 516.478 1063.84 515.576 1064.1 514.769C1064.36 513.955 1064.74 513.258 1065.24 512.679C1065.74 512.099 1066.34 511.653 1067.04 511.341C1067.75 511.028 1068.54 510.872 1069.42 510.872C1070.49 510.872 1071.4 511.074 1072.14 511.478C1072.88 511.881 1073.46 512.441 1073.87 513.157C1074.29 513.867 1074.54 514.69 1074.64 515.628H1072.77C1072.68 514.964 1072.51 514.394 1072.26 513.919C1072.01 513.437 1071.66 513.066 1071.2 512.806C1070.75 512.545 1070.15 512.415 1069.42 512.415C1068.79 512.415 1068.23 512.535 1067.75 512.776C1067.27 513.017 1066.87 513.359 1066.55 513.802C1066.23 514.244 1065.99 514.775 1065.82 515.394C1065.66 516.012 1065.58 516.699 1065.58 517.454V518.89C1065.58 519.586 1065.65 520.241 1065.79 520.853C1065.94 521.465 1066.17 522.002 1066.47 522.464C1066.77 522.926 1067.15 523.291 1067.61 523.558C1068.07 523.818 1068.62 523.948 1069.25 523.948C1070.05 523.948 1070.69 523.821 1071.17 523.567C1071.64 523.313 1072 522.949 1072.24 522.474C1072.49 521.998 1072.66 521.429 1072.77 520.765ZM1087.04 523.753V525.286H1079.51V523.753H1087.04ZM1079.9 511.067V525.286H1078.01V511.067H1079.9ZM1086.05 517.181V518.714H1079.51V517.181H1086.05ZM1086.95 511.067V512.61H1079.51V511.067H1086.95Z" fill="white"/>
<circle r="24.7143" transform="matrix(1 0 0 -1 1128.43 264.357)" fill="url(#paint16_linear_793_147553)" stroke="url(#paint17_linear_793_147553)" stroke-width="2"/>
<line y1="-1" x2="220" y2="-1" transform="matrix(-4.37114e-08 -1 -1 4.37114e-08 1128.43 240)" stroke="url(#paint18_linear_793_147553)" stroke-width="2" stroke-dasharray="3 3"/>
<circle r="5.5" transform="matrix(1 0 0 -1 1129.5 23.5)" fill="url(#paint19_linear_793_147553)"/>
<path d="M1165.95 14.6924H1167.82C1167.73 15.5908 1167.47 16.3949 1167.05 17.1045C1166.64 17.8141 1166.05 18.3773 1165.28 18.7939C1164.52 19.2041 1163.57 19.4092 1162.43 19.4092C1161.6 19.4092 1160.84 19.2529 1160.16 18.9404C1159.48 18.6279 1158.9 18.1852 1158.41 17.6123C1157.92 17.0329 1157.54 16.3395 1157.28 15.5322C1157.02 14.7184 1156.89 13.8135 1156.89 12.8174V11.4014C1156.89 10.4053 1157.02 9.50358 1157.28 8.69629C1157.54 7.88249 1157.92 7.18587 1158.42 6.60645C1158.92 6.02702 1159.52 5.58105 1160.23 5.26855C1160.93 4.95605 1161.72 4.7998 1162.6 4.7998C1163.67 4.7998 1164.58 5.00163 1165.32 5.40527C1166.07 5.80892 1166.64 6.36882 1167.05 7.08496C1167.47 7.7946 1167.73 8.61816 1167.82 9.55566H1165.95C1165.86 8.8916 1165.69 8.32194 1165.44 7.84668C1165.19 7.36491 1164.84 6.99382 1164.39 6.7334C1163.93 6.47298 1163.33 6.34277 1162.6 6.34277C1161.97 6.34277 1161.41 6.46322 1160.93 6.7041C1160.45 6.94499 1160.05 7.28678 1159.73 7.72949C1159.41 8.1722 1159.17 8.7028 1159.01 9.32129C1158.84 9.93978 1158.76 10.6266 1158.76 11.3818V12.8174C1158.76 13.514 1158.83 14.1683 1158.98 14.7803C1159.13 15.3923 1159.35 15.9294 1159.65 16.3916C1159.95 16.8538 1160.33 17.2184 1160.79 17.4854C1161.25 17.7458 1161.8 17.876 1162.43 17.876C1163.23 17.876 1163.87 17.749 1164.35 17.4951C1164.82 17.2412 1165.18 16.8766 1165.42 16.4014C1165.67 15.9261 1165.84 15.3564 1165.95 14.6924ZM1180.23 17.6807V19.2139H1172.7V17.6807H1180.23ZM1173.08 4.99512V19.2139H1171.19V4.99512H1173.08ZM1179.23 11.1084V12.6416H1172.7V11.1084H1179.23ZM1180.13 4.99512V6.53809H1172.7V4.99512H1180.13ZM1184.58 4.99512L1188 10.4443L1191.42 4.99512H1193.61L1189.12 12.0361L1193.72 19.2139H1191.5L1188 13.6572L1184.49 19.2139H1182.28L1186.87 12.0361L1182.38 4.99512H1184.58ZM1162.61 37.6377H1158.81V36.1045H1162.61C1163.34 36.1045 1163.94 35.9873 1164.4 35.7529C1164.85 35.5186 1165.18 35.193 1165.39 34.7764C1165.61 34.3597 1165.71 33.8844 1165.71 33.3506C1165.71 32.8623 1165.61 32.4033 1165.39 31.9736C1165.18 31.5439 1164.85 31.1989 1164.4 30.9385C1163.94 30.6715 1163.34 30.5381 1162.61 30.5381H1159.25V43.2139H1157.36V28.9951H1162.61C1163.68 28.9951 1164.59 29.1807 1165.33 29.5518C1166.08 29.9229 1166.64 30.4372 1167.02 31.0947C1167.41 31.7458 1167.6 32.4912 1167.6 33.3311C1167.6 34.2425 1167.41 35.0205 1167.02 35.665C1166.64 36.3096 1166.08 36.8011 1165.33 37.1396C1164.59 37.4717 1163.68 37.6377 1162.61 37.6377ZM1174.7 30.2549L1169.99 43.2139H1168.07L1173.49 28.9951H1174.73L1174.7 30.2549ZM1178.64 43.2139L1173.93 30.2549L1173.9 28.9951H1175.14L1180.58 43.2139H1178.64ZM1178.4 37.9502V39.4932H1170.41V37.9502H1178.4ZM1183.28 28.9951H1187.99C1189.06 28.9951 1189.96 29.1579 1190.69 29.4834C1191.44 29.8089 1192 30.2907 1192.38 30.9287C1192.77 31.5602 1192.97 32.3382 1192.97 33.2627C1192.97 33.9137 1192.84 34.5094 1192.57 35.0498C1192.31 35.5837 1191.93 36.0394 1191.44 36.417C1190.95 36.7881 1190.36 37.0648 1189.68 37.2471L1189.15 37.4521H1184.73L1184.71 35.9189H1188.05C1188.72 35.9189 1189.29 35.8018 1189.74 35.5674C1190.19 35.3265 1190.52 35.0042 1190.75 34.6006C1190.98 34.1969 1191.09 33.751 1191.09 33.2627C1191.09 32.7158 1190.99 32.2373 1190.77 31.8271C1190.56 31.417 1190.22 31.1012 1189.76 30.8799C1189.3 30.652 1188.71 30.5381 1187.99 30.5381H1185.17V43.2139H1183.28V28.9951ZM1191.59 43.2139L1188.13 36.7686L1190.1 36.7588L1193.6 43.0967V43.2139H1191.59ZM1200.88 28.9951V43.2139H1199.02V28.9951H1200.88ZM1205.45 28.9951V30.5381H1194.46V28.9951H1205.45ZM1219.3 28.9951V43.2139H1217.4L1210.24 32.2471V43.2139H1208.36V28.9951H1210.24L1217.43 39.9912V28.9951H1219.3ZM1232.47 41.6807V43.2139H1224.94V41.6807H1232.47ZM1225.32 28.9951V43.2139H1223.44V28.9951H1225.32ZM1231.47 35.1084V36.6416H1224.94V35.1084H1231.47ZM1232.37 28.9951V30.5381H1224.94V28.9951H1232.37ZM1235.6 28.9951H1240.31C1241.38 28.9951 1242.28 29.1579 1243.01 29.4834C1243.76 29.8089 1244.32 30.2907 1244.7 30.9287C1245.09 31.5602 1245.29 32.3382 1245.29 33.2627C1245.29 33.9137 1245.16 34.5094 1244.89 35.0498C1244.63 35.5837 1244.25 36.0394 1243.76 36.417C1243.27 36.7881 1242.68 37.0648 1242 37.2471L1241.47 37.4521H1237.05L1237.03 35.9189H1240.37C1241.04 35.9189 1241.61 35.8018 1242.06 35.5674C1242.51 35.3265 1242.85 35.0042 1243.07 34.6006C1243.3 34.1969 1243.41 33.751 1243.41 33.2627C1243.41 32.7158 1243.31 32.2373 1243.09 31.8271C1242.88 31.417 1242.54 31.1012 1242.08 30.8799C1241.62 30.652 1241.03 30.5381 1240.31 30.5381H1237.49V43.2139H1235.6V28.9951ZM1243.91 43.2139L1240.46 36.7686L1242.42 36.7588L1245.92 43.0967V43.2139H1243.91ZM1256.3 39.6201C1256.3 39.2881 1256.25 38.9951 1256.15 38.7412C1256.05 38.4808 1255.87 38.2464 1255.62 38.0381C1255.37 37.8298 1255.03 37.6312 1254.59 37.4424C1254.15 37.2536 1253.6 37.0615 1252.93 36.8662C1252.22 36.6579 1251.59 36.4268 1251.02 36.1729C1250.45 35.9124 1249.97 35.6162 1249.57 35.2842C1249.16 34.9521 1248.85 34.5713 1248.64 34.1416C1248.42 33.7119 1248.32 33.2204 1248.32 32.667C1248.32 32.1136 1248.43 31.6025 1248.66 31.1338C1248.89 30.665 1249.21 30.2581 1249.63 29.9131C1250.06 29.5615 1250.58 29.2881 1251.17 29.0928C1251.76 28.8975 1252.42 28.7998 1253.15 28.7998C1254.22 28.7998 1255.12 29.0049 1255.87 29.415C1256.61 29.8187 1257.18 30.3493 1257.57 31.0068C1257.96 31.6579 1258.16 32.3545 1258.16 33.0967H1256.29C1256.29 32.5628 1256.17 32.0908 1255.94 31.6807C1255.72 31.264 1255.37 30.9385 1254.91 30.7041C1254.45 30.4632 1253.86 30.3428 1253.15 30.3428C1252.48 30.3428 1251.93 30.4437 1251.49 30.6455C1251.05 30.8473 1250.73 31.1208 1250.51 31.4658C1250.31 31.8109 1250.2 32.2048 1250.2 32.6475C1250.2 32.9469 1250.26 33.2204 1250.39 33.4678C1250.52 33.7087 1250.72 33.9333 1250.98 34.1416C1251.26 34.3499 1251.6 34.542 1252.02 34.7178C1252.44 34.8936 1252.95 35.0628 1253.53 35.2256C1254.34 35.4535 1255.04 35.7074 1255.62 35.9873C1256.21 36.2673 1256.69 36.583 1257.07 36.9346C1257.45 37.2796 1257.73 37.6735 1257.92 38.1162C1258.1 38.5524 1258.2 39.0472 1258.2 39.6006C1258.2 40.18 1258.08 40.7041 1257.85 41.1729C1257.61 41.6416 1257.28 42.042 1256.84 42.374C1256.41 42.7061 1255.88 42.9632 1255.27 43.1455C1254.66 43.3213 1253.99 43.4092 1253.24 43.4092C1252.58 43.4092 1251.93 43.318 1251.29 43.1357C1250.66 42.9535 1250.09 42.68 1249.57 42.3154C1249.05 41.9508 1248.64 41.5016 1248.33 40.9678C1248.02 40.4274 1247.87 39.8024 1247.87 39.0928H1249.74C1249.74 39.5811 1249.84 40.001 1250.03 40.3525C1250.21 40.6976 1250.47 40.984 1250.8 41.2119C1251.13 41.4398 1251.5 41.609 1251.92 41.7197C1252.34 41.8239 1252.78 41.876 1253.24 41.876C1253.9 41.876 1254.45 41.7848 1254.91 41.6025C1255.36 41.4202 1255.71 41.1598 1255.94 40.8213C1256.18 40.4827 1256.3 40.0824 1256.3 39.6201ZM1270.69 35.1084V36.6416H1262.99V35.1084H1270.69ZM1263.29 28.9951V43.2139H1261.4V28.9951H1263.29ZM1272.33 28.9951V43.2139H1270.45V28.9951H1272.33ZM1278.5 28.9951V43.2139H1276.62V28.9951H1278.5ZM1287.97 37.6377H1284.17V36.1045H1287.97C1288.71 36.1045 1289.3 35.9873 1289.76 35.7529C1290.22 35.5186 1290.55 35.193 1290.76 34.7764C1290.97 34.3597 1291.08 33.8844 1291.08 33.3506C1291.08 32.8623 1290.97 32.4033 1290.76 31.9736C1290.55 31.5439 1290.22 31.1989 1289.76 30.9385C1289.3 30.6715 1288.71 30.5381 1287.97 30.5381H1284.61V43.2139H1282.73V28.9951H1287.97C1289.05 28.9951 1289.95 29.1807 1290.7 29.5518C1291.44 29.9229 1292 30.4372 1292.39 31.0947C1292.77 31.7458 1292.96 32.4912 1292.96 33.3311C1292.96 34.2425 1292.77 35.0205 1292.39 35.665C1292 36.3096 1291.44 36.8011 1290.7 37.1396C1289.95 37.4717 1289.05 37.6377 1287.97 37.6377Z" fill="white"/>
<circle cx="1311.43" cy="265.644" r="24.7143" fill="url(#paint20_linear_793_147553)" stroke="url(#paint21_linear_793_147553)" stroke-width="2"/>
<line x1="1312.43" y1="290.072" x2="1312.43" y2="510.072" stroke="url(#paint22_linear_793_147553)" stroke-width="2" stroke-dasharray="3 3"/>
<circle r="5.5" transform="matrix(1 0 0 -1 1312.5 509.5)" fill="url(#paint23_linear_793_147553)"/>
<path d="M1351.3 486.711V500.93H1349.41L1342.25 489.963V500.93H1340.36V486.711H1342.25L1349.44 497.707V486.711H1351.3ZM1364.48 499.396V500.93H1356.95V499.396H1364.48ZM1357.33 486.711V500.93H1355.44V486.711H1357.33ZM1363.48 492.824V494.357H1356.95V492.824H1363.48ZM1364.38 486.711V488.254H1356.95V486.711H1364.38ZM1378.56 493.371V494.27C1378.56 495.337 1378.42 496.294 1378.16 497.141C1377.89 497.987 1377.51 498.706 1377 499.299C1376.5 499.891 1375.9 500.344 1375.2 500.656C1374.5 500.969 1373.72 501.125 1372.85 501.125C1372.01 501.125 1371.24 500.969 1370.54 500.656C1369.84 500.344 1369.24 499.891 1368.72 499.299C1368.21 498.706 1367.82 497.987 1367.54 497.141C1367.26 496.294 1367.12 495.337 1367.12 494.27V493.371C1367.12 492.303 1367.26 491.35 1367.53 490.51C1367.81 489.663 1368.2 488.944 1368.71 488.352C1369.22 487.753 1369.82 487.297 1370.52 486.984C1371.22 486.672 1371.99 486.516 1372.83 486.516C1373.7 486.516 1374.48 486.672 1375.18 486.984C1375.88 487.297 1376.48 487.753 1376.98 488.352C1377.49 488.944 1377.88 489.663 1378.15 490.51C1378.42 491.35 1378.56 492.303 1378.56 493.371ZM1376.69 494.27V493.352C1376.69 492.505 1376.6 491.757 1376.43 491.105C1376.26 490.454 1376.01 489.908 1375.68 489.465C1375.34 489.022 1374.94 488.687 1374.45 488.459C1373.98 488.231 1373.44 488.117 1372.83 488.117C1372.25 488.117 1371.72 488.231 1371.24 488.459C1370.77 488.687 1370.37 489.022 1370.03 489.465C1369.7 489.908 1369.44 490.454 1369.26 491.105C1369.08 491.757 1368.99 492.505 1368.99 493.352V494.27C1368.99 495.122 1369.08 495.878 1369.26 496.535C1369.44 497.186 1369.7 497.736 1370.04 498.186C1370.39 498.628 1370.79 498.964 1371.26 499.191C1371.74 499.419 1372.27 499.533 1372.85 499.533C1373.47 499.533 1374.01 499.419 1374.48 499.191C1374.96 498.964 1375.36 498.628 1375.69 498.186C1376.02 497.736 1376.27 497.186 1376.44 496.535C1376.61 495.878 1376.69 495.122 1376.69 494.27ZM1387.25 494.279H1383.64L1383.62 492.766H1386.9C1387.44 492.766 1387.91 492.674 1388.31 492.492C1388.72 492.31 1389.03 492.049 1389.25 491.711C1389.48 491.366 1389.59 490.956 1389.59 490.48C1389.59 489.96 1389.49 489.536 1389.29 489.211C1389.09 488.879 1388.79 488.638 1388.38 488.488C1387.98 488.332 1387.46 488.254 1386.84 488.254H1384.06V500.93H1382.18V486.711H1386.84C1387.57 486.711 1388.22 486.786 1388.79 486.936C1389.36 487.079 1389.85 487.307 1390.25 487.619C1390.65 487.925 1390.95 488.316 1391.16 488.791C1391.37 489.266 1391.48 489.836 1391.48 490.5C1391.48 491.086 1391.33 491.617 1391.03 492.092C1390.73 492.561 1390.31 492.945 1389.78 493.244C1389.25 493.544 1388.63 493.736 1387.92 493.82L1387.25 494.279ZM1387.16 500.93H1382.9L1383.97 499.396H1387.16C1387.76 499.396 1388.27 499.292 1388.68 499.084C1389.11 498.876 1389.43 498.583 1389.65 498.205C1389.87 497.821 1389.98 497.368 1389.98 496.848C1389.98 496.32 1389.89 495.865 1389.7 495.48C1389.51 495.096 1389.21 494.8 1388.81 494.592C1388.41 494.383 1387.89 494.279 1387.25 494.279H1384.56L1384.58 492.766H1388.25L1388.65 493.312C1389.34 493.371 1389.92 493.566 1390.39 493.898C1390.87 494.224 1391.23 494.641 1391.48 495.148C1391.73 495.656 1391.86 496.216 1391.86 496.828C1391.86 497.714 1391.66 498.462 1391.27 499.074C1390.89 499.68 1390.34 500.142 1389.64 500.461C1388.94 500.773 1388.11 500.93 1387.16 500.93ZM1400.7 487.971L1396 500.93H1394.07L1399.49 486.711H1400.73L1400.7 487.971ZM1404.65 500.93L1399.93 487.971L1399.9 486.711H1401.14L1406.58 500.93H1404.65ZM1404.4 495.666V497.209H1396.42V495.666H1404.4ZM1420.22 486.711V500.93H1418.33L1411.17 489.963V500.93H1409.29V486.711H1411.17L1418.36 497.707V486.711H1420.22ZM1426.25 486.711V500.93H1424.36V486.711H1426.25ZM1434.83 486.711L1428.92 493.342L1425.6 496.789L1425.29 494.777L1427.79 492.023L1432.57 486.711H1434.83ZM1433.02 500.93L1427.75 493.996L1428.88 492.502L1435.26 500.93H1433.02ZM1448.75 487.971L1444.04 500.93H1442.12L1447.54 486.711H1448.78L1448.75 487.971ZM1452.69 500.93L1447.98 487.971L1447.95 486.711H1449.19L1454.63 500.93H1452.69ZM1452.45 495.666V497.209H1444.46V495.666H1452.45ZM1468.27 486.711V500.93H1466.37L1459.22 489.963V500.93H1457.33V486.711H1459.22L1466.4 497.707V486.711H1468.27ZM1476.26 500.93H1473.29L1473.31 499.396H1476.26C1477.27 499.396 1478.12 499.185 1478.79 498.762C1479.47 498.332 1479.98 497.733 1480.32 496.965C1480.66 496.19 1480.84 495.285 1480.84 494.25V493.381C1480.84 492.567 1480.74 491.844 1480.54 491.213C1480.35 490.575 1480.06 490.038 1479.68 489.602C1479.31 489.159 1478.84 488.824 1478.3 488.596C1477.76 488.368 1477.13 488.254 1476.43 488.254H1473.23V486.711H1476.43C1477.36 486.711 1478.21 486.867 1478.98 487.18C1479.75 487.486 1480.41 487.932 1480.96 488.518C1481.52 489.097 1481.95 489.8 1482.25 490.627C1482.55 491.447 1482.7 492.372 1482.7 493.4V494.25C1482.7 495.279 1482.55 496.206 1482.25 497.033C1481.95 497.854 1481.52 498.553 1480.95 499.133C1480.39 499.712 1479.72 500.158 1478.92 500.471C1478.13 500.777 1477.24 500.93 1476.26 500.93ZM1474.29 486.711V500.93H1472.41V486.711H1474.29ZM1351.3 510.711V524.93H1349.41L1342.25 513.963V524.93H1340.36V510.711H1342.25L1349.44 521.707V510.711H1351.3ZM1364.48 523.396V524.93H1356.95V523.396H1364.48ZM1357.33 510.711V524.93H1355.44V510.711H1357.33ZM1363.48 516.824V518.357H1356.95V516.824H1363.48ZM1364.38 510.711V512.254H1356.95V510.711H1364.38ZM1378.56 517.371V518.27C1378.56 519.337 1378.42 520.294 1378.16 521.141C1377.89 521.987 1377.51 522.706 1377 523.299C1376.5 523.891 1375.9 524.344 1375.2 524.656C1374.5 524.969 1373.72 525.125 1372.85 525.125C1372.01 525.125 1371.24 524.969 1370.54 524.656C1369.84 524.344 1369.24 523.891 1368.72 523.299C1368.21 522.706 1367.82 521.987 1367.54 521.141C1367.26 520.294 1367.12 519.337 1367.12 518.27V517.371C1367.12 516.303 1367.26 515.35 1367.53 514.51C1367.81 513.663 1368.2 512.944 1368.71 512.352C1369.22 511.753 1369.82 511.297 1370.52 510.984C1371.22 510.672 1371.99 510.516 1372.83 510.516C1373.7 510.516 1374.48 510.672 1375.18 510.984C1375.88 511.297 1376.48 511.753 1376.98 512.352C1377.49 512.944 1377.88 513.663 1378.15 514.51C1378.42 515.35 1378.56 516.303 1378.56 517.371ZM1376.69 518.27V517.352C1376.69 516.505 1376.6 515.757 1376.43 515.105C1376.26 514.454 1376.01 513.908 1375.68 513.465C1375.34 513.022 1374.94 512.687 1374.45 512.459C1373.98 512.231 1373.44 512.117 1372.83 512.117C1372.25 512.117 1371.72 512.231 1371.24 512.459C1370.77 512.687 1370.37 513.022 1370.03 513.465C1369.7 513.908 1369.44 514.454 1369.26 515.105C1369.08 515.757 1368.99 516.505 1368.99 517.352V518.27C1368.99 519.122 1369.08 519.878 1369.26 520.535C1369.44 521.186 1369.7 521.736 1370.04 522.186C1370.39 522.628 1370.79 522.964 1371.26 523.191C1371.74 523.419 1372.27 523.533 1372.85 523.533C1373.47 523.533 1374.01 523.419 1374.48 523.191C1374.96 522.964 1375.36 522.628 1375.69 522.186C1376.02 521.736 1376.27 521.186 1376.44 520.535C1376.61 519.878 1376.69 519.122 1376.69 518.27ZM1387.25 518.279H1383.64L1383.62 516.766H1386.9C1387.44 516.766 1387.91 516.674 1388.31 516.492C1388.72 516.31 1389.03 516.049 1389.25 515.711C1389.48 515.366 1389.59 514.956 1389.59 514.48C1389.59 513.96 1389.49 513.536 1389.29 513.211C1389.09 512.879 1388.79 512.638 1388.38 512.488C1387.98 512.332 1387.46 512.254 1386.84 512.254H1384.06V524.93H1382.18V510.711H1386.84C1387.57 510.711 1388.22 510.786 1388.79 510.936C1389.36 511.079 1389.85 511.307 1390.25 511.619C1390.65 511.925 1390.95 512.316 1391.16 512.791C1391.37 513.266 1391.48 513.836 1391.48 514.5C1391.48 515.086 1391.33 515.617 1391.03 516.092C1390.73 516.561 1390.31 516.945 1389.78 517.244C1389.25 517.544 1388.63 517.736 1387.92 517.82L1387.25 518.279ZM1387.16 524.93H1382.9L1383.97 523.396H1387.16C1387.76 523.396 1388.27 523.292 1388.68 523.084C1389.11 522.876 1389.43 522.583 1389.65 522.205C1389.87 521.821 1389.98 521.368 1389.98 520.848C1389.98 520.32 1389.89 519.865 1389.7 519.48C1389.51 519.096 1389.21 518.8 1388.81 518.592C1388.41 518.383 1387.89 518.279 1387.25 518.279H1384.56L1384.58 516.766H1388.25L1388.65 517.312C1389.34 517.371 1389.92 517.566 1390.39 517.898C1390.87 518.224 1391.23 518.641 1391.48 519.148C1391.73 519.656 1391.86 520.216 1391.86 520.828C1391.86 521.714 1391.66 522.462 1391.27 523.074C1390.89 523.68 1390.34 524.142 1389.64 524.461C1388.94 524.773 1388.11 524.93 1387.16 524.93ZM1395.44 510.711H1400.15C1401.21 510.711 1402.12 510.874 1402.85 511.199C1403.59 511.525 1404.16 512.007 1404.54 512.645C1404.93 513.276 1405.13 514.054 1405.13 514.979C1405.13 515.63 1404.99 516.225 1404.73 516.766C1404.47 517.299 1404.09 517.755 1403.59 518.133C1403.11 518.504 1402.52 518.781 1401.84 518.963L1401.31 519.168H1396.89L1396.87 517.635H1400.21C1400.88 517.635 1401.45 517.518 1401.89 517.283C1402.34 517.042 1402.68 516.72 1402.91 516.316C1403.14 515.913 1403.25 515.467 1403.25 514.979C1403.25 514.432 1403.14 513.953 1402.93 513.543C1402.72 513.133 1402.38 512.817 1401.91 512.596C1401.46 512.368 1400.87 512.254 1400.15 512.254H1397.32V524.93H1395.44V510.711ZM1403.75 524.93L1400.29 518.484L1402.26 518.475L1405.76 524.812V524.93H1403.75ZM1419.51 517.371V518.27C1419.51 519.337 1419.38 520.294 1419.11 521.141C1418.84 521.987 1418.46 522.706 1417.96 523.299C1417.46 523.891 1416.85 524.344 1416.15 524.656C1415.46 524.969 1414.67 525.125 1413.81 525.125C1412.97 525.125 1412.2 524.969 1411.49 524.656C1410.8 524.344 1410.19 523.891 1409.68 523.299C1409.17 522.706 1408.78 521.987 1408.5 521.141C1408.22 520.294 1408.08 519.337 1408.08 518.27V517.371C1408.08 516.303 1408.21 515.35 1408.49 514.51C1408.77 513.663 1409.16 512.944 1409.67 512.352C1410.18 511.753 1410.78 511.297 1411.47 510.984C1412.18 510.672 1412.95 510.516 1413.79 510.516C1414.65 510.516 1415.44 510.672 1416.13 510.984C1416.84 511.297 1417.44 511.753 1417.94 512.352C1418.45 512.944 1418.83 513.663 1419.1 514.51C1419.37 515.35 1419.51 516.303 1419.51 517.371ZM1417.65 518.27V517.352C1417.65 516.505 1417.56 515.757 1417.38 515.105C1417.21 514.454 1416.96 513.908 1416.63 513.465C1416.3 513.022 1415.89 512.687 1415.41 512.459C1414.93 512.231 1414.39 512.117 1413.79 512.117C1413.2 512.117 1412.67 512.231 1412.2 512.459C1411.73 512.687 1411.32 513.022 1410.99 513.465C1410.65 513.908 1410.4 514.454 1410.21 515.105C1410.03 515.757 1409.94 516.505 1409.94 517.352V518.27C1409.94 519.122 1410.03 519.878 1410.21 520.535C1410.4 521.186 1410.66 521.736 1411 522.186C1411.34 522.628 1411.75 522.964 1412.22 523.191C1412.69 523.419 1413.22 523.533 1413.81 523.533C1414.42 523.533 1414.96 523.419 1415.44 523.191C1415.91 522.964 1416.31 522.628 1416.64 522.186C1416.97 521.736 1417.22 521.186 1417.39 520.535C1417.56 519.878 1417.65 519.122 1417.65 518.27ZM1425.02 510.711V524.93H1423.13V510.711H1425.02ZM1433.6 510.711L1427.69 517.342L1424.37 520.789L1424.06 518.777L1426.56 516.023L1431.34 510.711H1433.6ZM1431.79 524.93L1426.52 517.996L1427.65 516.502L1434.03 524.93H1431.79ZM1445.53 523.396V524.93H1438V523.396H1445.53ZM1438.38 510.711V524.93H1436.49V510.711H1438.38ZM1444.53 516.824V518.357H1438V516.824H1444.53ZM1445.43 510.711V512.254H1438V510.711H1445.43ZM1448.66 510.711H1453.37C1454.43 510.711 1455.34 510.874 1456.07 511.199C1456.81 511.525 1457.38 512.007 1457.76 512.645C1458.15 513.276 1458.35 514.054 1458.35 514.979C1458.35 515.63 1458.21 516.225 1457.95 516.766C1457.69 517.299 1457.31 517.755 1456.81 518.133C1456.33 518.504 1455.74 518.781 1455.06 518.963L1454.53 519.168H1450.1L1450.09 517.635H1453.42C1454.1 517.635 1454.67 517.518 1455.11 517.283C1455.56 517.042 1455.9 516.72 1456.13 516.316C1456.36 515.913 1456.47 515.467 1456.47 514.979C1456.47 514.432 1456.36 513.953 1456.15 513.543C1455.93 513.133 1455.6 512.817 1455.13 512.596C1454.68 512.368 1454.09 512.254 1453.37 512.254H1450.54V524.93H1448.66V510.711ZM1456.97 524.93L1453.51 518.484L1455.48 518.475L1458.98 524.812V524.93H1456.97ZM1469.36 521.336C1469.36 521.004 1469.31 520.711 1469.21 520.457C1469.11 520.197 1468.93 519.962 1468.68 519.754C1468.43 519.546 1468.09 519.347 1467.64 519.158C1467.21 518.969 1466.65 518.777 1465.98 518.582C1465.28 518.374 1464.64 518.143 1464.08 517.889C1463.51 517.628 1463.03 517.332 1462.62 517C1462.22 516.668 1461.91 516.287 1461.7 515.857C1461.48 515.428 1461.37 514.936 1461.37 514.383C1461.37 513.829 1461.49 513.318 1461.72 512.85C1461.94 512.381 1462.27 511.974 1462.69 511.629C1463.12 511.277 1463.63 511.004 1464.22 510.809C1464.82 510.613 1465.48 510.516 1466.21 510.516C1467.28 510.516 1468.18 510.721 1468.92 511.131C1469.67 511.535 1470.24 512.065 1470.63 512.723C1471.02 513.374 1471.22 514.07 1471.22 514.812H1469.34C1469.34 514.279 1469.23 513.807 1469 513.396C1468.77 512.98 1468.43 512.654 1467.97 512.42C1467.5 512.179 1466.92 512.059 1466.21 512.059C1465.54 512.059 1464.98 512.16 1464.55 512.361C1464.11 512.563 1463.79 512.837 1463.57 513.182C1463.36 513.527 1463.26 513.921 1463.26 514.363C1463.26 514.663 1463.32 514.936 1463.44 515.184C1463.57 515.424 1463.77 515.649 1464.04 515.857C1464.31 516.066 1464.66 516.258 1465.07 516.434C1465.5 516.609 1466 516.779 1466.59 516.941C1467.4 517.169 1468.09 517.423 1468.68 517.703C1469.26 517.983 1469.75 518.299 1470.12 518.65C1470.51 518.995 1470.79 519.389 1470.97 519.832C1471.16 520.268 1471.26 520.763 1471.26 521.316C1471.26 521.896 1471.14 522.42 1470.9 522.889C1470.67 523.357 1470.33 523.758 1469.9 524.09C1469.46 524.422 1468.94 524.679 1468.33 524.861C1467.72 525.037 1467.04 525.125 1466.3 525.125C1465.64 525.125 1464.99 525.034 1464.35 524.852C1463.72 524.669 1463.14 524.396 1462.62 524.031C1462.11 523.667 1461.7 523.217 1461.38 522.684C1461.08 522.143 1460.92 521.518 1460.92 520.809H1462.8C1462.8 521.297 1462.89 521.717 1463.08 522.068C1463.27 522.413 1463.53 522.7 1463.85 522.928C1464.19 523.156 1464.56 523.325 1464.98 523.436C1465.4 523.54 1465.84 523.592 1466.3 523.592C1466.95 523.592 1467.51 523.501 1467.97 523.318C1468.42 523.136 1468.77 522.876 1469 522.537C1469.24 522.199 1469.36 521.798 1469.36 521.336Z" fill="white"/>
<circle cx="209.714" cy="265.429" r="24.7143" fill="url(#paint24_linear_793_147553)" stroke="url(#paint25_linear_793_147553)" stroke-width="2"/>
<line x1="210.714" y1="290.286" x2="210.714" y2="510.286" stroke="url(#paint26_linear_793_147553)" stroke-width="2" stroke-dasharray="3 3"/>
<circle r="5.5" transform="matrix(1 0 0 -1 210.5 509.5)" fill="url(#paint27_linear_793_147553)"/>
<circle r="5.5" transform="matrix(1 0 0 -1 394.5 23.5)" fill="url(#paint28_linear_793_147553)"/>
<circle r="24.7143" transform="matrix(1 0 0 -1 761.429 264.357)" fill="url(#paint29_linear_793_147553)" stroke="url(#paint30_linear_793_147553)" stroke-width="2"/>
<line y1="-1" x2="220" y2="-1" transform="matrix(-4.37114e-08 -1 -1 4.37114e-08 761.429 239.929)" stroke="url(#paint31_linear_793_147553)" stroke-width="2" stroke-dasharray="3 3"/>
<circle r="5.5" transform="matrix(1 0 0 -1 762.5 23.5)" fill="url(#paint32_linear_793_147553)"/>
<defs>
<linearGradient id="paint0_linear_793_147553" x1="0" y1="0" x2="62.9555" y2="39.4953" gradientUnits="userSpaceOnUse">
<stop stop-color="#011845"/>
<stop offset="1" stop-color="#15141D"/>
</linearGradient>
<linearGradient id="paint1_linear_793_147553" x1="0" y1="0" x2="52.532" y2="1.15297" gradientUnits="userSpaceOnUse">
<stop stop-color="#28A0F0"/>
<stop offset="1" stop-color="#0678C4" stop-opacity="0.9917"/>
</linearGradient>
<linearGradient id="paint2_linear_793_147553" x1="0" y1="0" x2="21.0128" y2="0.461186" gradientUnits="userSpaceOnUse">
<stop stop-color="#28A0F0"/>
<stop offset="1" stop-color="#0678C4" stop-opacity="0.9917"/>
</linearGradient>
<linearGradient id="paint3_linear_793_147553" x1="0" y1="0" x2="9.2466" y2="44.6475" gradientUnits="userSpaceOnUse">
<stop stop-color="#28A0F0"/>
<stop offset="1" stop-color="#0678C4" stop-opacity="0.9917"/>
</linearGradient>
<linearGradient id="paint4_linear_793_147553" x1="0" y1="0" x2="11.236" y2="0.246607" gradientUnits="userSpaceOnUse">
<stop stop-color="#28A0F0"/>
<stop offset="1" stop-color="#0678C4" stop-opacity="0.9917"/>
</linearGradient>
<linearGradient id="paint5_linear_793_147553" x1="0" y1="0" x2="62.9555" y2="39.4953" gradientUnits="userSpaceOnUse">
<stop stop-color="#011845"/>
<stop offset="1" stop-color="#15141D"/>
</linearGradient>
<linearGradient id="paint6_linear_793_147553" x1="0" y1="0" x2="52.532" y2="1.15297" gradientUnits="userSpaceOnUse">
<stop stop-color="#28A0F0"/>
<stop offset="1" stop-color="#0678C4" stop-opacity="0.9917"/>
</linearGradient>
<linearGradient id="paint7_linear_793_147553" x1="0" y1="0" x2="9.2466" y2="44.6475" gradientUnits="userSpaceOnUse">
<stop stop-color="#28A0F0"/>
<stop offset="1" stop-color="#0678C4" stop-opacity="0.9917"/>
</linearGradient>
<linearGradient id="paint8_linear_793_147553" x1="551.714" y1="239.716" x2="614.67" y2="279.211" gradientUnits="userSpaceOnUse">
<stop stop-color="#011845"/>
<stop offset="1" stop-color="#15141D"/>
</linearGradient>
<linearGradient id="paint9_linear_793_147553" x1="551.714" y1="239.716" x2="604.246" y2="240.869" gradientUnits="userSpaceOnUse">
<stop stop-color="#28A0F0"/>
<stop offset="1" stop-color="#0678C4" stop-opacity="0.9917"/>
</linearGradient>
<linearGradient id="paint10_linear_793_147553" x1="577.429" y1="289.858" x2="532.781" y2="299.105" gradientUnits="userSpaceOnUse">
<stop stop-color="#28A0F0"/>
<stop offset="1" stop-color="#0678C4" stop-opacity="0.9917"/>
</linearGradient>
<linearGradient id="paint11_linear_793_147553" x1="0" y1="0" x2="11.236" y2="0.246607" gradientUnits="userSpaceOnUse">
<stop stop-color="#28A0F0"/>
<stop offset="1" stop-color="#0678C4" stop-opacity="0.9917"/>
</linearGradient>
<linearGradient id="paint12_linear_793_147553" x1="919.714" y1="239.716" x2="982.67" y2="279.211" gradientUnits="userSpaceOnUse">
<stop stop-color="#011845"/>
<stop offset="1" stop-color="#15141D"/>
</linearGradient>
<linearGradient id="paint13_linear_793_147553" x1="919.714" y1="239.716" x2="972.246" y2="240.869" gradientUnits="userSpaceOnUse">
<stop stop-color="#28A0F0"/>
<stop offset="1" stop-color="#0678C4" stop-opacity="0.9917"/>
</linearGradient>
<linearGradient id="paint14_linear_793_147553" x1="945.429" y1="289.858" x2="900.781" y2="299.105" gradientUnits="userSpaceOnUse">
<stop stop-color="#28A0F0"/>
<stop offset="1" stop-color="#0678C4" stop-opacity="0.9917"/>
</linearGradient>
<linearGradient id="paint15_linear_793_147553" x1="0" y1="0" x2="11.236" y2="0.246607" gradientUnits="userSpaceOnUse">
<stop stop-color="#28A0F0"/>
<stop offset="1" stop-color="#0678C4" stop-opacity="0.9917"/>
</linearGradient>
<linearGradient id="paint16_linear_793_147553" x1="0" y1="0" x2="62.9555" y2="39.4953" gradientUnits="userSpaceOnUse">
<stop stop-color="#011845"/>
<stop offset="1" stop-color="#15141D"/>
</linearGradient>
<linearGradient id="paint17_linear_793_147553" x1="0" y1="0" x2="52.532" y2="1.15297" gradientUnits="userSpaceOnUse">
<stop stop-color="#28A0F0"/>
<stop offset="1" stop-color="#0678C4" stop-opacity="0.9917"/>
</linearGradient>
<linearGradient id="paint18_linear_793_147553" x1="0" y1="0" x2="9.2466" y2="44.6475" gradientUnits="userSpaceOnUse">
<stop stop-color="#28A0F0"/>
<stop offset="1" stop-color="#0678C4" stop-opacity="0.9917"/>
</linearGradient>
<linearGradient id="paint19_linear_793_147553" x1="0" y1="0" x2="11.236" y2="0.246607" gradientUnits="userSpaceOnUse">
<stop stop-color="#28A0F0"/>
<stop offset="1" stop-color="#0678C4" stop-opacity="0.9917"/>
</linearGradient>
<linearGradient id="paint20_linear_793_147553" x1="1285.71" y1="239.93" x2="1348.67" y2="279.425" gradientUnits="userSpaceOnUse">
<stop stop-color="#011845"/>
<stop offset="1" stop-color="#15141D"/>
</linearGradient>
<linearGradient id="paint21_linear_793_147553" x1="1285.71" y1="239.93" x2="1338.25" y2="241.083" gradientUnits="userSpaceOnUse">
<stop stop-color="#28A0F0"/>
<stop offset="1" stop-color="#0678C4" stop-opacity="0.9917"/>
</linearGradient>
<linearGradient id="paint22_linear_793_147553" x1="1311.43" y1="290.072" x2="1266.78" y2="299.319" gradientUnits="userSpaceOnUse">
<stop stop-color="#28A0F0"/>
<stop offset="1" stop-color="#0678C4" stop-opacity="0.9917"/>
</linearGradient>
<linearGradient id="paint23_linear_793_147553" x1="0" y1="0" x2="11.236" y2="0.246607" gradientUnits="userSpaceOnUse">
<stop stop-color="#28A0F0"/>
<stop offset="1" stop-color="#0678C4" stop-opacity="0.9917"/>
</linearGradient>
<linearGradient id="paint24_linear_793_147553" x1="184" y1="239.715" x2="246.956" y2="279.21" gradientUnits="userSpaceOnUse">
<stop stop-color="#011845"/>
<stop offset="1" stop-color="#15141D"/>
</linearGradient>
<linearGradient id="paint25_linear_793_147553" x1="184" y1="239.715" x2="236.532" y2="240.868" gradientUnits="userSpaceOnUse">
<stop stop-color="#28A0F0"/>
<stop offset="1" stop-color="#0678C4" stop-opacity="0.9917"/>
</linearGradient>
<linearGradient id="paint26_linear_793_147553" x1="209.714" y1="290.286" x2="165.067" y2="299.533" gradientUnits="userSpaceOnUse">
<stop stop-color="#28A0F0"/>
<stop offset="1" stop-color="#0678C4" stop-opacity="0.9917"/>
</linearGradient>
<linearGradient id="paint27_linear_793_147553" x1="0" y1="0" x2="11.236" y2="0.246607" gradientUnits="userSpaceOnUse">
<stop stop-color="#28A0F0"/>
<stop offset="1" stop-color="#0678C4" stop-opacity="0.9917"/>
</linearGradient>
<linearGradient id="paint28_linear_793_147553" x1="0" y1="0" x2="11.236" y2="0.246607" gradientUnits="userSpaceOnUse">
<stop stop-color="#28A0F0"/>
<stop offset="1" stop-color="#0678C4" stop-opacity="0.9917"/>
</linearGradient>
<linearGradient id="paint29_linear_793_147553" x1="0" y1="0" x2="62.9555" y2="39.4953" gradientUnits="userSpaceOnUse">
<stop stop-color="#011845"/>
<stop offset="1" stop-color="#15141D"/>
</linearGradient>
<linearGradient id="paint30_linear_793_147553" x1="0" y1="0" x2="52.532" y2="1.15297" gradientUnits="userSpaceOnUse">
<stop stop-color="#28A0F0"/>
<stop offset="1" stop-color="#0678C4" stop-opacity="0.9917"/>
</linearGradient>
<linearGradient id="paint31_linear_793_147553" x1="0" y1="0" x2="9.2466" y2="44.6475" gradientUnits="userSpaceOnUse">
<stop stop-color="#28A0F0"/>
<stop offset="1" stop-color="#0678C4" stop-opacity="0.9917"/>
</linearGradient>
<linearGradient id="paint32_linear_793_147553" x1="0" y1="0" x2="11.236" y2="0.246607" gradientUnits="userSpaceOnUse">
<stop stop-color="#28A0F0"/>
<stop offset="1" stop-color="#0678C4" stop-opacity="0.9917"/>
</linearGradient>
</defs>
</svg>
