<svg width="207" height="207" viewBox="0 0 207 207" fill="none" xmlns="http://www.w3.org/2000/svg">
<g clip-path="url(#clip0_1574_147996)">
<path d="M104.089 206.516C161.024 206.516 207.179 160.362 207.179 103.427C207.179 46.4921 161.024 0.337402 104.089 0.337402C47.1547 0.337402 1 46.4921 1 103.427C1 160.362 47.1547 206.516 104.089 206.516Z" fill="#001845"/>
<path d="M158.008 155.088C112.296 164.323 67.6374 134.696 58.3472 89.2504C53.7001 67.2298 58.4726 45.236 69.8267 27.4752C35.4 43.2973 15.0399 81.167 22.9359 120.054C32.226 165.499 76.8848 195.126 122.596 185.891C146.159 181.276 165.038 167.282 177.336 148.588C171.206 151.38 165.076 153.704 158.008 155.088Z" fill="url(#paint0_linear_1574_147996)"/>
<path d="M98.6827 149.61C83.4779 147.921 73.913 137.772 73.062 124.158C72.9931 123.055 73.8954 122.157 75 122.157H82.9557C84.0603 122.157 84.9459 123.054 85.0314 124.155C85.7975 134.021 92.363 139.869 103.996 139.869C116.395 139.869 123.037 133.227 123.037 125.256C123.037 102.673 73.8856 114.186 73.8856 80.9758C73.8856 69.9057 84.0701 58.3927 98.6827 56.6215V45.3374C98.6827 44.2328 99.5781 43.3374 100.683 43.3374L106.867 43.3374C107.972 43.3374 108.867 44.2328 108.867 45.3374V56.6215C121.922 58.7271 131.372 69.2432 132.266 82.0755C132.343 83.1774 131.44 84.0755 130.336 84.0755H122.38C121.276 84.0755 120.391 83.1769 120.282 82.0778C119.37 72.9218 112.233 66.3633 103.554 66.3633C92.4834 66.3633 85.3985 73.8909 85.3985 80.9758C85.3985 103.559 134.55 92.0459 134.55 125.256C134.55 137.212 124.808 147.839 108.867 150.053V161.337C108.867 162.442 107.972 163.337 106.867 163.337H100.683C99.5781 163.337 98.6827 162.442 98.6827 161.337V149.61Z" fill="white"/>
<path fill-rule="evenodd" clip-rule="evenodd" d="M183.448 140.592L188.858 144.435C190.077 145.301 189.95 147.148 188.624 147.839L171.111 156.964C169.72 157.688 168.074 156.603 168.192 155.04L169.734 134.571C169.851 133.019 171.618 132.189 172.886 133.091L177.737 136.536C190.121 108.393 185.544 74.3795 163.38 50.3347C133.762 18.2022 83.8579 15.9353 51.4546 45.0721C51.0439 45.4414 50.4085 45.4191 50.0342 45.013L46.7317 41.4303C46.3574 41.0242 46.3861 40.3881 46.7964 40.0184C81.9908 8.30928 136.242 10.7533 168.434 45.6767C192.854 72.1694 197.609 109.789 183.448 140.592Z" fill="#23DD00"/>
<path fill-rule="evenodd" clip-rule="evenodd" d="M27.2208 66.4677L21.811 62.6251C20.5923 61.7595 20.7193 59.9116 22.045 59.2209L39.5584 50.0963C40.949 49.3718 42.5946 50.4566 42.4768 52.0203L40.935 72.4892C40.8181 74.0412 39.0513 74.8708 37.7825 73.9695L32.9317 70.5241C20.548 98.6674 25.1247 132.681 47.2885 156.725C76.9073 188.858 126.811 191.125 159.214 161.988C159.625 161.619 160.26 161.641 160.635 162.047L163.937 165.63C164.312 166.036 164.283 166.672 163.873 167.042C128.678 198.751 74.4266 196.307 42.2352 161.383C17.8149 134.891 13.0598 97.2707 27.2208 66.4677Z" fill="#23DD00"/>
</g>
<defs>
<linearGradient id="paint0_linear_1574_147996" x1="16.7504" y1="205.712" x2="112.055" y2="95.0273" gradientUnits="userSpaceOnUse">
<stop offset="0.0729167" stop-color="#FFD923"/>
<stop offset="0.4775" stop-color="#0466C8"/>
<stop offset="1" stop-color="#001845"/>
</linearGradient>
<clipPath id="clip0_1574_147996">
<rect width="207" height="207" fill="white"/>
</clipPath>
</defs>
</svg>
