<svg width="32" height="32" viewBox="0 0 32 32" fill="none" xmlns="http://www.w3.org/2000/svg">
<path d="M30 15.9125C30 15.8438 30 15.7657 29.9969 15.675C29.9938 15.4219 29.9875 15.1375 29.9813 14.8344C29.9563 13.9625 29.9125 13.0938 29.8438 12.275C29.75 11.1469 29.6125 10.2063 29.425 9.50005C29.2271 8.76302 28.8393 8.09083 28.3002 7.55066C27.7612 7.0105 27.0898 6.62129 26.3531 6.42192C25.4688 6.18442 23.7375 6.03755 21.3 5.94692C20.1406 5.90317 18.9 5.87505 17.6594 5.85942C17.225 5.85317 16.8219 5.85005 16.4594 5.84692H15.5406C15.1781 5.85005 14.775 5.85317 14.3406 5.85942C13.1 5.87505 11.8594 5.90317 10.7 5.94692C8.2625 6.04067 6.52812 6.18755 5.64687 6.42192C4.91 6.6208 4.23834 7.00985 3.6992 7.55009C3.16006 8.09032 2.77238 8.76277 2.575 9.50005C2.38438 10.2063 2.25 11.1469 2.15625 12.275C2.0875 13.0938 2.04375 13.9625 2.01875 14.8344C2.00937 15.1375 2.00625 15.4219 2.00312 15.675C2.00312 15.7657 2 15.8438 2 15.9125V16.0875C2 16.1563 2 16.2344 2.00312 16.325C2.00625 16.5782 2.0125 16.8625 2.01875 17.1657C2.04375 18.0375 2.0875 18.9063 2.15625 19.725C2.25 20.8532 2.3875 21.7938 2.575 22.5C2.975 23.9969 4.15 25.1782 5.64687 25.5782C6.52812 25.8157 8.2625 25.9625 10.7 26.0532C11.8594 26.0969 13.1 26.125 14.3406 26.1407C14.775 26.1469 15.1781 26.1501 15.5406 26.1532H16.4594C16.8219 26.1501 17.225 26.1469 17.6594 26.1407C18.9 26.125 20.1406 26.0969 21.3 26.0532C23.7375 25.9594 25.4719 25.8125 26.3531 25.5782C27.85 25.1782 29.025 24 29.425 22.5C29.6156 21.7938 29.75 20.8532 29.8438 19.725C29.9125 18.9063 29.9563 18.0375 29.9813 17.1657C29.9906 16.8625 29.9938 16.5782 29.9969 16.325C29.9969 16.2344 30 16.1563 30 16.0875V15.9125ZM27.75 16.075C27.75 16.1407 27.75 16.2125 27.7469 16.2969C27.7438 16.5407 27.7375 16.8094 27.7313 17.1C27.7094 17.9313 27.6656 18.7625 27.6 19.5344C27.5156 20.5407 27.3969 21.3657 27.25 21.9188C27.0562 22.6407 26.4875 23.2126 25.7687 23.4032C25.1125 23.5782 23.4594 23.7188 21.2125 23.8032C20.075 23.8469 18.85 23.875 17.6281 23.8907C17.2 23.8969 16.8031 23.9 16.4469 23.9H15.5531L14.3719 23.8907C13.15 23.875 11.9281 23.8469 10.7875 23.8032C8.54063 23.7157 6.88437 23.5782 6.23125 23.4032C5.5125 23.2094 4.94375 22.6407 4.75 21.9188C4.60313 21.3657 4.48438 20.5407 4.4 19.5344C4.33438 18.7625 4.29375 17.9313 4.26875 17.1C4.25938 16.8094 4.25625 16.5375 4.25313 16.2969C4.25313 16.2125 4.25 16.1375 4.25 16.075V15.925C4.25 15.8594 4.25 15.7875 4.25313 15.7032C4.25625 15.4594 4.2625 15.1907 4.26875 14.9C4.29063 14.0688 4.33438 13.2375 4.4 12.4657C4.48438 11.4594 4.60313 10.6344 4.75 10.0813C4.94375 9.35942 5.5125 8.78755 6.23125 8.59692C6.8875 8.42192 8.54063 8.2813 10.7875 8.19692C11.925 8.15317 13.15 8.12505 14.3719 8.10942C14.8 8.10317 15.1969 8.10005 15.5531 8.10005H16.4469L17.6281 8.10942C18.85 8.12505 20.0719 8.15317 21.2125 8.19692C23.4594 8.28442 25.1156 8.42192 25.7687 8.59692C26.4875 8.79067 27.0562 9.35942 27.25 10.0813C27.3969 10.6344 27.5156 11.4594 27.6 12.4657C27.6656 13.2375 27.7063 14.0688 27.7313 14.9C27.7406 15.1907 27.7438 15.4625 27.7469 15.7032C27.7469 15.7875 27.75 15.8625 27.75 15.925V16.075ZM13.2188 20.1875L20.4688 15.9688L13.2188 11.8125V20.1875Z" fill="url(#paint0_linear_7238_115574)"/>
<defs>
<linearGradient id="paint0_linear_7238_115574" x1="2" y1="5.84692" x2="30.5884" y2="6.71211" gradientUnits="userSpaceOnUse">
<stop stop-color="#28A0F0"/>
<stop offset="1" stop-color="#0678C4" stop-opacity="0.9917"/>
</linearGradient>
</defs>
</svg>
