<svg width="19" height="22" viewBox="0 0 19 22" fill="none" xmlns="http://www.w3.org/2000/svg">
<path d="M11.8005 18.1366V20.5588L9.68851 21.7999L7.63661 20.5588V18.1366L9.68851 19.3777L11.8005 18.1366ZM0.5 9.7588L2.5519 10.9999V15.1538L6.08517 17.2658V19.688L0.5 16.3949V9.7588ZM18.877 9.7588V16.405L13.2318 19.698V17.2758L16.7651 15.1638V11.01L18.877 9.7588ZM13.2218 6.46575L15.3337 7.7069V10.1291L11.8005 12.2411V16.455L9.74856 17.6961L7.70667 16.455V12.2311L4.04328 10.1191V7.69689L6.15524 6.45574L9.68851 8.5677L13.2218 6.46575ZM4.04328 11.8607L6.09518 13.1019V15.5241L4.04328 14.283V11.8607ZM15.3337 11.8607V14.283L13.2818 15.5241V13.1019L15.3337 11.8607ZM2.5519 4.3538L4.66386 5.59495L2.5519 6.83609V9.25834L0.5 8.01719V5.59495L2.5519 4.3538ZM16.8251 4.3538L18.9371 5.59495V8.01719L16.8251 9.25834V6.83609L14.7732 5.59495L16.8251 4.3538ZM9.68851 4.3538L11.8005 5.59495L9.68851 6.83609L7.63661 5.59495L9.68851 4.3538ZM9.68851 0.199951L15.3337 3.493L13.2818 4.73415L9.74856 2.62219L6.14523 4.73415L4.09333 3.493L9.68851 0.199951Z" fill="#F3BA2F"/>
</svg>
