<svg width="534" height="534" viewBox="0 0 534 534" fill="none" xmlns="http://www.w3.org/2000/svg">
<path d="M267 533.667C414.276 533.667 533.667 414.276 533.667 267C533.667 119.724 414.276 0.333344 267 0.333344C119.724 0.333344 0.333496 119.724 0.333496 267C0.333496 414.276 119.724 533.667 267 533.667Z" fill="#F0B90B"/>
<path d="M167.55 267L126.75 308.083L85.6665 267L126.75 225.917L167.55 267ZM267 167.55L337.266 237.817L378.35 196.733L308.083 126.75L267 85.6667L225.916 126.75L155.933 196.733L197.016 237.817L267 167.55ZM407.25 225.917L366.45 267L407.533 308.083L448.333 267L407.25 225.917ZM267 366.45L196.733 296.183L155.933 337.267L226.2 407.533L267 448.333L308.083 407.25L378.35 336.983L337.266 296.183L267 366.45ZM267 308.083L308.083 267L267 225.917L225.916 267L267 308.083Z" fill="white"/>
</svg>
