<svg width="32" height="32" viewBox="0 0 32 32" fill="none" xmlns="http://www.w3.org/2000/svg">
<g clip-path="url(#clip0_3933_3826)">
<rect y="0.000488281" width="32" height="32.0002" rx="16" fill="#303C4B"/>
<path d="M15.9997 31.6446C24.6398 31.6446 31.6441 24.6403 31.6441 16.0002C31.6441 7.35999 24.6398 0.355728 15.9997 0.355728C7.35948 0.355728 0.355225 7.35999 0.355225 16.0002C0.355225 24.6403 7.35948 31.6446 15.9997 31.6446Z" fill="#FF0420"/>
<path fill-rule="evenodd" clip-rule="evenodd" d="M9.14946 19.5003C9.74438 19.9387 10.5076 20.1579 11.4391 20.1579C12.5663 20.1579 13.4666 19.8956 14.1398 19.3711C14.813 18.8388 15.2866 18.0365 15.5606 16.9639C15.725 16.3064 15.8659 15.6293 15.9833 14.9327C16.0225 14.6821 16.0421 14.4747 16.0421 14.3103C16.0421 13.7623 15.905 13.2927 15.631 12.9013C15.3571 12.5021 14.9813 12.2046 14.5038 12.0088C14.0263 11.8054 13.4861 11.7037 12.8835 11.7037C10.6681 11.7037 9.29426 12.7799 8.76198 14.9327C8.57412 15.7233 8.42931 16.4004 8.3275 16.9639C8.28839 17.2145 8.2688 17.4259 8.2688 17.5981C8.2688 18.42 8.56236 19.0541 9.14946 19.5003ZM12.719 18.0795C12.4137 18.3378 12.042 18.467 11.6035 18.467C10.8521 18.467 10.4763 18.1069 10.4763 17.3867C10.4763 17.2145 10.4919 17.0501 10.5233 16.8935C10.6642 16.1343 10.8051 15.4924 10.946 14.9679C11.0791 14.4356 11.2983 14.0403 11.6035 13.7819C11.9166 13.5236 12.2923 13.3944 12.7308 13.3944C13.4744 13.3944 13.8462 13.7506 13.8462 14.4629C13.8462 14.6352 13.8306 14.8035 13.7993 14.9679C13.7053 15.5158 13.5684 16.1578 13.3883 16.8935C13.2552 17.4259 13.0322 17.8212 12.719 18.0795ZM16.3827 19.9579C16.4296 20.0127 16.4962 20.0401 16.5823 20.0401H18.1793C18.2574 20.0401 18.3319 20.0127 18.4023 19.9579C18.4727 19.903 18.5158 19.8326 18.5315 19.7466L19.0716 17.175H20.6568C21.6822 17.175 22.4885 16.9598 23.0757 16.5293C23.6706 16.0988 24.0659 15.4334 24.2615 14.5331C24.3085 14.3218 24.332 14.1182 24.332 13.9226C24.332 13.2415 24.0659 12.721 23.5335 12.3608C23.009 12.0007 22.3124 11.8207 21.4435 11.8207H18.3201C18.2419 11.8207 18.1675 11.8481 18.097 11.9029C18.0265 11.9578 17.9835 12.0282 17.9678 12.1142L16.3475 19.7466C16.3318 19.8248 16.3435 19.8952 16.3827 19.9579ZM21.5961 15.2846C21.3534 15.4646 21.0677 15.5547 20.7389 15.5547H19.3886L19.8348 13.4529H21.2439C21.5649 13.4529 21.7918 13.5154 21.9249 13.6407C22.058 13.7582 22.1245 13.9303 22.1245 14.1573C22.1245 14.2591 22.1128 14.3765 22.0893 14.5096C22.011 14.8463 21.8466 15.1045 21.5961 15.2846Z" fill="white"/>
</g>
<defs>
<clipPath id="clip0_3933_3826">
<rect width="32" height="32" fill="white"/>
</clipPath>
</defs>
</svg>
