<svg width="25" height="24" viewBox="0 0 25 24" fill="none" xmlns="http://www.w3.org/2000/svg">
<g clip-path="url(#clip0_9070_19274)">
<path d="M5.22978 19.9935C4.016 20.0592 2.81826 19.6227 1.81693 18.7495C1.38435 18.3302 1.03877 17.7834 0.810078 17.1565C0.581389 16.5296 0.476477 15.8414 0.504418 15.1515C0.50975 14.7495 0.539025 14.3485 0.591994 13.9521C0.743693 12.8843 0.959514 11.6034 1.23946 10.1094C2.03288 6.03717 4.08044 4.00104 7.38212 4.00104C8.20967 3.98384 9.03133 4.18035 9.79719 4.57863C10.477 4.91679 11.0619 5.50453 11.4772 6.26675C11.896 7.05211 12.11 7.98448 12.0891 8.93241C12.0831 9.32698 12.0538 9.72042 12.0015 10.1094C11.8264 11.4274 11.6164 12.7083 11.3717 13.9521C10.9637 15.9806 10.2579 17.4984 9.25414 18.5054C8.25139 19.4975 6.90994 19.9935 5.22978 19.9935ZM5.47492 16.7949C6.08108 16.8162 6.67246 16.5556 7.13774 16.062C7.65197 15.4701 8.0018 14.6833 8.13513 13.8186C8.4036 12.4272 8.60757 11.213 8.74703 10.1759C8.79397 9.86103 8.8174 9.54121 8.81701 9.22072C8.81701 7.87301 8.26287 7.19932 7.15457 7.19964C6.54351 7.18104 5.94744 7.44107 5.47453 7.93255C4.96981 8.53068 4.62678 9.31579 4.49436 10.1759C4.28427 11.168 4.07431 12.3823 3.86449 13.8186C3.817 14.1259 3.79356 14.4384 3.7945 14.7515C3.7945 16.1138 4.35464 16.7949 5.47492 16.7949Z" fill="#FF0420"/>
<path d="M12.8957 19.7721C12.8401 19.7762 12.7844 19.7644 12.7329 19.7375C12.6814 19.7106 12.6354 19.6693 12.5981 19.6168C12.5399 19.4974 12.5211 19.3537 12.5457 19.2168L14.9608 4.77897C14.9822 4.61966 15.0506 4.47665 15.152 4.37902C15.2458 4.2808 15.3632 4.22603 15.4847 4.22371H20.1401C21.2362 4.15545 22.3227 4.51178 23.2554 5.24541C23.6389 5.56423 23.9504 6.00436 24.1591 6.52242C24.3678 7.04049 24.4665 7.61863 24.4456 8.19987C24.4439 8.58865 24.4086 8.97602 24.3404 9.35505C24.1474 10.8516 23.5161 12.2004 22.5728 13.1312C21.6978 13.9457 20.496 14.3529 18.9676 14.3529H16.6053L15.8003 19.2173C15.7788 19.3766 15.7105 19.5196 15.609 19.6173C15.5153 19.7154 15.3982 19.7701 15.2767 19.7726L12.8957 19.7721ZM19.0911 11.2868C19.5497 11.2997 19.9988 11.1202 20.3688 10.7762C20.7496 10.4214 21.0118 9.89841 21.1039 9.3104C21.1364 9.09058 21.1539 8.86762 21.1562 8.64398C21.1662 8.46332 21.1447 8.28209 21.0933 8.11315C21.0419 7.94421 20.9618 7.7917 20.8587 7.66645C20.5667 7.3927 20.205 7.26611 19.8437 7.31115H17.7438L17.0787 11.2868H19.0911Z" fill="#FF0420"/>
</g>
<defs>
<clipPath id="clip0_9070_19274">
<rect width="24" height="24" fill="white" transform="translate(0.5)"/>
</clipPath>
</defs>
</svg>
