<svg width="22" height="18" viewBox="0 0 22 18" fill="none" xmlns="http://www.w3.org/2000/svg">
<path d="M21.2 9.24943V13.849C21.1984 14.1358 21.1223 14.4173 20.9792 14.6659C20.8362 14.9145 20.6311 15.1218 20.384 15.2674L16.3996 17.5624C16.1528 17.7095 15.8709 17.7871 15.5836 17.7871C15.2963 17.7871 15.0144 17.7095 14.7676 17.5624L10.7832 15.2674C10.5361 15.1218 10.331 14.9145 10.188 14.6659C10.045 14.4173 9.96891 14.1358 9.96726 13.849V12.558L12.0072 11.3739V13.6179L15.5773 15.6897L19.1472 13.6179V9.48368L15.5773 7.41183L7.21327 12.2568C6.96419 12.3972 6.68315 12.4709 6.39724 12.4709C6.11137 12.4709 5.83034 12.3972 5.58126 12.2568L1.59687 9.95225C1.35356 9.80443 1.15241 9.59642 1.0128 9.34823C0.873239 9.10008 0.799961 8.82014 0.800003 8.53542V3.93586C0.801656 3.64902 0.877732 3.36756 1.02077 3.1189C1.16377 2.87029 1.3689 2.66304 1.61599 2.51741L5.60037 0.222421C5.84767 0.0767961 6.12939 0 6.41636 0C6.70337 0 6.98508 0.0767961 7.23238 0.222421L11.2168 2.51741C11.4639 2.66304 11.669 2.87029 11.812 3.1189C11.955 3.36756 12.0311 3.64902 12.0328 3.93586V5.22678L9.98001 6.40296V4.17172L6.41 2.09986L2.83998 4.17172V8.30113L6.41 10.373L14.774 5.52803C15.0231 5.38766 15.3041 5.31396 15.59 5.31396C15.8759 5.31396 16.1569 5.38766 16.406 5.52803L20.3904 7.83255C20.6361 7.97886 20.8398 8.18619 20.9816 8.43447C21.1235 8.68274 21.1987 8.96348 21.2 9.24943Z" fill="#7B3FE4"/>
</svg>
