<svg width="32" height="32" viewBox="0 0 32 32" fill="none" xmlns="http://www.w3.org/2000/svg">
<g clip-path="url(#clip0_3933_6923)">
<rect width="32" height="32.0002" rx="16" fill="#303C4B"/>
<path d="M16 32C24.8366 32 32 24.8366 32 16C32 7.16344 24.8366 0 16 0C7.16344 0 0 7.16344 0 16C0 24.8366 7.16344 32 16 32Z" fill="#8247E5"/>
<path fill-rule="evenodd" clip-rule="evenodd" d="M10.6819 7.06757C11.0041 6.88859 11.3958 6.88859 11.7179 7.06757L16.5179 9.73424C16.8566 9.92235 17.0666 10.2793 17.0666 10.6667V12.4009L14.9333 13.6V11.2943L11.1999 9.22021L7.46659 11.2943V15.3724L11.1999 17.4465L20.2819 12.4009C20.6041 12.2219 20.9958 12.2219 21.3179 12.4009L26.1179 15.0676C26.4566 15.2557 26.6666 15.6126 26.6666 16V21.3333C26.6666 21.7207 26.4566 22.0777 26.1179 22.2658L21.3179 24.9324C20.9958 25.1114 20.6041 25.1114 20.2819 24.9324L15.4819 22.2658C15.1433 22.0777 14.9333 21.7207 14.9333 21.3333V19.5991L17.0666 18.4V20.7057L20.7999 22.7798L24.5333 20.7057V16.6276L20.7999 14.5535L11.7179 19.5991C11.3958 19.7781 11.0041 19.7781 10.6819 19.5991L5.88189 16.9324C5.54328 16.7443 5.33325 16.3874 5.33325 16V10.6667C5.33325 10.2793 5.54328 9.92235 5.88189 9.73424L10.6819 7.06757Z" fill="white"/>
</g>
<defs>
<clipPath id="clip0_3933_6923">
<rect width="32" height="32" fill="white"/>
</clipPath>
</defs>
</svg>
