<svg width="45" height="44" viewBox="0 0 45 44" fill="none" xmlns="http://www.w3.org/2000/svg">
<circle cx="22.5" cy="22" r="22" fill="#E5E7EA"/>
<path d="M40.4663 22.0001C40.4706 18.218 39.2979 14.5283 37.1107 11.4427C36.9912 11.2586 36.8617 11.0813 36.7226 10.9116C36.7147 10.9034 36.7075 10.8945 36.7011 10.8851C36.6505 10.8206 36.5999 10.7587 36.5493 10.698C34.8442 8.50141 32.6579 6.72533 30.1586 5.50637C27.6594 4.28742 24.9138 3.6581 22.1331 3.66684C12.0245 3.66684 3.7998 11.8852 3.7998 22.0001C3.7998 32.115 12.0245 40.3334 22.1331 40.3334C25.6154 40.3399 29.0264 39.3469 31.961 37.4721L32.0406 37.4178C34.6236 35.7588 36.7486 33.4778 38.2207 30.784C39.6929 28.0902 40.465 25.0699 40.4663 22.0001ZM22.1331 5.81626C24.6337 5.80736 27.1018 6.38261 29.3409 7.49619C31.5799 8.60977 33.5278 10.2309 35.0296 12.2304L35.0397 12.243C35.1421 12.3796 35.242 12.5174 35.3406 12.6565C35.7358 13.2715 35.95 13.9852 35.9589 14.7161C35.9579 15.692 35.5698 16.6275 34.8798 17.3176C34.1897 18.0076 33.2542 18.3957 32.2783 18.3967C30.9495 18.3967 29.632 17.5458 28.9227 16.2283C26.4079 11.5641 21.9611 8.77866 17.0276 8.77866C14.96 8.77625 12.9211 9.26141 11.0762 10.1947C14.0696 7.38023 18.0243 5.81419 22.1331 5.81626ZM5.94922 22.0001C5.95257 19.064 7.12042 16.2491 9.19658 14.1729C11.2727 12.0968 14.0877 10.9289 17.0238 10.9255C21.1545 10.9255 24.8944 13.2886 27.0287 17.2474C28.1085 19.2489 30.1681 20.5436 32.2745 20.5436C33.3901 20.5416 34.4818 20.2198 35.4201 19.6163C36.3584 19.0128 37.104 18.153 37.5684 17.1386C38.4033 19.7836 38.5425 22.5991 37.9727 25.3136C37.4029 28.0281 36.1432 30.5499 34.3152 32.6359C34.2068 31.3215 33.6086 30.0956 32.6392 29.2014C31.6697 28.3071 30.3997 27.8095 29.0808 27.8073C27.5041 27.8073 26.0792 28.8277 25.3939 29.317L25.2409 29.427C23.3355 30.7912 20.1468 33.0747 17.0225 33.0747C14.0866 33.071 11.272 31.903 9.19613 29.8269C7.12025 27.7507 5.95257 24.936 5.94922 22.0001ZM11.0724 33.8055C12.9173 34.7388 14.9563 35.224 17.0238 35.2216C20.8358 35.2216 24.3761 32.6865 26.4913 31.1756L26.6431 31.0669C27.1488 30.7065 28.1919 29.958 29.0808 29.958C29.9054 29.959 30.6959 30.287 31.279 30.8701C31.8621 31.4532 32.1901 32.2437 32.1911 33.0683C32.2 33.57 32.0836 34.066 31.8525 34.5113C31.6213 34.9566 31.2827 35.3372 30.8673 35.6186C30.5866 35.7994 30.3009 35.9726 30.0088 36.1357C27.6071 37.4935 24.892 38.1997 22.1331 38.184C18.0221 38.1876 14.0649 36.6215 11.0699 33.8055H11.0724Z" fill="url(#paint0_radial_1519_148755)"/>
<path d="M18.0682 29.6455C19.1829 29.6478 20.2839 29.3993 21.2895 28.9183C22.2952 28.4374 23.1797 27.7363 23.8776 26.8671C24.5756 25.9979 25.069 24.9828 25.3213 23.897C25.5737 22.8112 25.5785 21.6826 25.3355 20.5947C25.0924 19.5068 24.6077 18.4875 23.9173 17.6123C23.2268 16.7372 22.3483 16.0286 21.3468 15.539C20.3453 15.0495 19.2465 14.7916 18.1318 14.7843C17.0171 14.7771 15.915 15.0208 14.9073 15.4973C13.9451 14.9616 12.8113 14.8242 11.7491 15.1146C10.6868 15.405 9.78055 16.1 9.22468 17.0507C8.6688 18.0013 8.50752 19.132 8.77541 20.2001C9.04331 21.2683 9.71905 22.189 10.6578 22.7648C10.7986 24.6345 11.6402 26.382 13.0142 27.6578C14.3882 28.9335 16.1932 29.6435 18.0682 29.6455ZM23.352 22.2148C23.3529 23.5125 22.876 24.7651 22.0121 25.7335C21.1483 26.7019 19.9581 27.3182 18.6688 27.4649C17.3794 27.6115 16.0812 27.2783 15.0219 26.5286C13.9627 25.779 13.2166 24.6655 12.926 23.4008C13.6553 23.3942 14.3703 23.1983 15.0011 22.8321C15.6318 22.466 16.1566 21.9423 16.524 21.3123C16.8914 20.6823 17.0888 19.9676 17.0968 19.2384C17.1049 18.5091 16.9233 17.7903 16.5699 17.1523C17.3576 16.9173 18.1892 16.8696 18.9986 17.013C19.808 17.1564 20.5726 17.4868 21.2317 17.9781C21.8907 18.4693 22.4258 19.1078 22.7943 19.8425C23.1629 20.5772 23.3547 21.3878 23.3545 22.2098L23.352 22.2148ZM12.8805 17.1207C13.2897 17.1207 13.6897 17.2421 14.0298 17.4694C14.37 17.6967 14.6352 18.0199 14.7917 18.3979C14.9482 18.776 14.9891 19.1919 14.9092 19.5932C14.8293 19.9945 14.6321 20.3631 14.3427 20.6523C14.0533 20.9415 13.6846 21.1384 13.2833 21.2181C12.8819 21.2978 12.466 21.2566 12.0881 21.0999C11.7101 20.9431 11.3871 20.6778 11.16 20.3375C10.9329 19.9972 10.8118 19.5971 10.812 19.1879C10.813 18.6398 11.0313 18.1143 11.419 17.7268C11.8068 17.3393 12.3323 17.1214 12.8805 17.1207Z" fill="url(#paint1_radial_1519_148755)"/>
<defs>
<radialGradient id="paint0_radial_1519_148755" cx="0" cy="0" r="1" gradientUnits="userSpaceOnUse" gradientTransform="translate(10.8613 8.00613) scale(33.9975)">
<stop stop-color="#FADC2F"/>
<stop offset="0.36" stop-color="#EF1B52"/>
<stop offset="0.73" stop-color="#E515AF"/>
<stop offset="1" stop-color="#06BDEF"/>
</radialGradient>
<radialGradient id="paint1_radial_1519_148755" cx="0" cy="0" r="1" gradientUnits="userSpaceOnUse" gradientTransform="translate(10.8613 8.00591) scale(33.9975)">
<stop stop-color="#FADC2F"/>
<stop offset="0.36" stop-color="#EF1B52"/>
<stop offset="0.73" stop-color="#E515AF"/>
<stop offset="1" stop-color="#06BDEF"/>
</radialGradient>
</defs>
</svg>
