<svg width="48" height="48" viewBox="0 0 48 48" fill="none" xmlns="http://www.w3.org/2000/svg">
<path fill-rule="evenodd" clip-rule="evenodd" d="M37.8983 10.1017H12.8136V4H37.8983C41.2682 4 44 6.73182 44 10.1017H37.8983ZM37.8983 12.8136L37.8983 37.8983V44C41.2682 44 44 41.2682 44 37.8983V12.8136H37.8983ZM10.1017 37.8983L35.1864 37.8983V44H10.1017C6.73182 44 4 41.2682 4 37.8983H10.1017ZM10.1017 4V10.1017V35.1864H4V10.1017C4 6.73182 6.73182 4 10.1017 4Z" fill="url(#paint0_linear_1709_151660)"/>
<path fill-rule="evenodd" clip-rule="evenodd" d="M23.0046 16.2031C22.618 16.2031 22.3046 16.5165 22.3046 16.9031V21.6269H17.5809C17.1943 21.6269 16.8809 21.9403 16.8809 22.3269L16.8809 24.9947C16.8809 25.3812 17.1943 25.6947 17.5809 25.6947H22.3046V30.4184C22.3046 30.805 22.618 31.1184 23.0046 31.1184H25.6724C26.059 31.1184 26.3724 30.805 26.3724 30.4184V25.6947H31.0961C31.4827 25.6947 31.7961 25.3812 31.7961 24.9947V22.3269C31.7961 21.9403 31.4827 21.6269 31.0961 21.6269H26.3724V16.9031C26.3724 16.5165 26.059 16.2031 25.6724 16.2031H23.0046Z" fill="url(#paint1_linear_1709_151660)"/>
<defs>
<linearGradient id="paint0_linear_1709_151660" x1="4" y1="4" x2="44.8582" y2="4.89675" gradientUnits="userSpaceOnUse">
<stop stop-color="#28A0F0"/>
<stop offset="1" stop-color="#0678C4" stop-opacity="0.9917"/>
</linearGradient>
<linearGradient id="paint1_linear_1709_151660" x1="16.8809" y1="16.2031" x2="32.1161" y2="16.5375" gradientUnits="userSpaceOnUse">
<stop stop-color="#28A0F0"/>
<stop offset="1" stop-color="#0678C4" stop-opacity="0.9917"/>
</linearGradient>
</defs>
</svg>
