<svg width="180" height="180" viewBox="0 0 180 180" fill="none" xmlns="http://www.w3.org/2000/svg">
<mask id="mask0_223_6096" style="mask-type:alpha" maskUnits="userSpaceOnUse" x="0" y="0" width="180" height="180">
<rect width="180" height="180" fill="#C4C4C4"/>
</mask>
<g mask="url(#mask0_223_6096)">
<rect x="-34" width="271.059" height="180" fill="#CCD0D6"/>
<path d="M35.9995 75C23.9995 28.2 63.6661 6.83333 84.9995 1.99999C124.199 -2.40001 142 31.8333 146 49.5C147 61 148.4 91.6 146 122C143 160 118 165 120 166C121.6 166.8 127.667 177 130.5 182H11C14.2 171.2 30 157.167 37.5 151.5C38.7004 143.5 44.0002 138.167 46.5 136.5C47.8333 130.5 49.7 118.5 46.5 118.5C43.3 118.5 38.1663 112.167 35.9995 109C26.7999 93.8 32.1663 80 35.9995 75Z" fill="#DEE1E5"/>
</g>
</svg>
