<svg width="1975" height="2308" viewBox="0 0 1975 2308" fill="none" xmlns="http://www.w3.org/2000/svg">
<path d="M-376.213 1007.43C-265.165 993.716 -156.046 965.673 -46.1491 944.026C19.6951 928.844 87.2131 926.226 152.874 910.555C244.829 885.781 328.117 831.925 423.646 819.933C487.942 809.789 550.65 823.464 610.834 839.57C712.181 861.999 809.27 896.798 910.843 918.213C1029.55 944.916 1168.8 950.922 1273.4 871.434C1370.58 807.176 1450.39 711.145 1566.28 677.967C1758.99 641.659 1928.72 777.635 2120.08 765.241" stroke="url(#paint0_linear_4867_98648)" stroke-opacity="0.16" stroke-width="3" stroke-miterlimit="10" stroke-linecap="round" stroke-dasharray="2 6"/>
<path d="M-380.346 1032.02C-269.304 1017.75 -161.24 985.266 -51.9649 960.88C13.6235 943.936 81.2462 939.978 147.096 925.351C245.858 899.328 334.665 840.247 437.134 828.442C494.452 820.169 551.01 829.83 605 843.425C714.687 863.845 817.938 903.768 926.476 927.592C1042.47 955.127 1178.57 960.825 1281.48 883.829C1376.36 821.545 1453.68 730.721 1563.64 692.516C1753.9 643.191 1939.83 780.345 2131.64 765.369" stroke="url(#paint1_linear_4867_98648)" stroke-opacity="0.16" stroke-width="3" stroke-miterlimit="10" stroke-linecap="round" stroke-dasharray="2 6"/>
<path d="M-384.222 1058.36C-212.513 1032.89 -49.5179 962.565 123.215 944.141C227.595 922.331 318.671 859.056 423.612 839.823C585.255 810.131 778.214 899.136 932.421 934.84C1048.26 965.218 1184.98 973.656 1289.32 896.685C1384.32 834.726 1461.36 744.753 1570.35 704.496C1761.15 650.693 1950.27 780.709 2142.88 763.572" stroke="url(#paint2_linear_4867_98648)" stroke-opacity="0.16" stroke-width="3" stroke-miterlimit="10" stroke-linecap="round" stroke-dasharray="2 6"/>
<path d="M-387.896 1086.31C-222.052 1061.36 -68.3511 981.324 98.6266 962.64C214.674 945.007 313.532 871.758 428.098 848.549C608.732 814.533 780.875 903.529 947.775 945.07C1060.66 976.739 1194.66 985.455 1297 910.16C1392.3 848.461 1469.34 759.043 1577.36 716.734C1767.88 658.394 1961.07 780.384 2154.19 760.828" stroke="url(#paint3_linear_4867_98648)" stroke-opacity="0.16" stroke-width="3" stroke-miterlimit="10" stroke-linecap="round" stroke-dasharray="2 6"/>
<path d="M-391.451 1115.14C-244.333 1091.44 -110.37 1018.05 35.132 987.346C87.453 977.6 140.823 971.733 190.596 950.865C271.397 920.049 347.55 875.739 432.507 856.558C616.755 816.544 785.531 906.802 953.137 953.466C1066.42 988.333 1199.92 1000.58 1304.56 924.422C1397.86 864.4 1473.16 778.977 1576.1 732.811C1762.58 662.052 1972.51 780.187 2165.41 757.366" stroke="url(#paint4_linear_4867_98648)" stroke-opacity="0.16" stroke-width="3" stroke-miterlimit="10" stroke-linecap="round" stroke-dasharray="2 6"/>
<path d="M-394.938 1144.68C-257.076 1120.55 -133.536 1048.46 0.629901 1011.23C58.6853 994.131 119.807 992.236 176.38 969.564C261.507 938.429 340.173 890.577 428.107 866.937C615.965 814.981 789.597 910.109 958.624 962.186C1073.48 1000.18 1203.59 1016.85 1311.95 939.303C1405.84 879.245 1481.39 793.919 1583.54 746.19C1767.89 671.393 1984.18 779.53 2176.82 753.836" stroke="url(#paint5_linear_4867_98648)" stroke-opacity="0.16" stroke-width="3" stroke-miterlimit="10" stroke-linecap="round" stroke-dasharray="2 6"/>
<path d="M-398.65 1174.68C-263.531 1149.17 -144.889 1073.71 -14.8636 1031.89C45.8149 1010.47 110.913 1008.94 170.737 985.24C259.764 952.645 341.064 901.577 432.409 875.173C625.28 815.023 801.962 918.298 973.584 974.606C1087.33 1013.94 1210.68 1030.92 1319.29 954.577C1411.18 896.196 1485.4 814.339 1582.84 763.732C1761.74 678.156 1995.8 779.265 2188.65 750.337" stroke="url(#paint6_linear_4867_98648)" stroke-opacity="0.16" stroke-width="3" stroke-miterlimit="10" stroke-linecap="round" stroke-dasharray="2 6"/>
<path d="M-402.608 1204.59C-269.993 1177.78 -156.182 1099.68 -30.59 1053.57C32.4123 1027.56 101.36 1025.53 164.856 1001.38C252.171 969.608 331.528 919.825 419.392 889.523C623.581 811.572 798.782 920.603 978.55 984.636C1093.87 1027.1 1213.94 1048.28 1326.09 970.605C1418.58 912.189 1493.22 830.362 1590.28 778.222C1764.29 689.834 2009.62 778.922 2200.89 747.424" stroke="url(#paint7_linear_4867_98648)" stroke-opacity="0.16" stroke-width="3" stroke-miterlimit="10" stroke-linecap="round" stroke-dasharray="2 6"/>
<path d="M-406.927 1234.08C-273.56 1205.5 -161.879 1122.24 -36.859 1072.45C20.0396 1046.87 82.0232 1042.43 140.837 1024.12C212.703 1000.74 278.729 963.377 347.007 931.492C611.285 798.711 749.628 904.824 983.582 995.384C1100 1040.78 1217.92 1065.92 1333.02 986.96C1426.34 928.604 1501.33 846.644 1598.02 792.971C1764.19 703.062 2024.62 779.063 2213.5 745.488" stroke="url(#paint8_linear_4867_98648)" stroke-opacity="0.16" stroke-width="3" stroke-miterlimit="10" stroke-linecap="round" stroke-dasharray="2 6"/>
<path d="M-411.838 1263.04C-277.596 1233.02 -167.985 1144.78 -43.3543 1091.79C10.2819 1066.14 68.9189 1059.23 125.513 1044.16C180.55 1027.64 232.292 1002.32 283.38 976.871C601.687 804.907 687.735 878.211 978.443 1002.7C1098.34 1052.55 1217.72 1086.43 1339.96 1003.87C1431.11 947.257 1505.06 868.471 1597.41 813.452C1671.93 765.853 1762.73 761.204 1847.79 757.405C1974.18 753.363 2100.74 765.421 2227.02 745.441" stroke="url(#paint9_linear_4867_98648)" stroke-opacity="0.16" stroke-width="3" stroke-miterlimit="10" stroke-linecap="round" stroke-dasharray="2 6"/>
<path d="M-417.241 1290.7C-282.595 1259.6 -174.802 1167.59 -51.0929 1111.6C2.11609 1084.8 60.2591 1076.03 117.28 1062.11C172.739 1046.17 224.957 1021.04 276.339 995.301C613.804 812.447 678.961 878.526 988.076 1016.56C1104.24 1066.69 1220.62 1102.81 1341.3 1024.18C1436.36 967.215 1512.12 885.708 1607.06 828.42C1683.86 778.293 1777.81 773.952 1866.04 767.848C1991.04 761.168 2116.65 767.451 2241.39 747.122" stroke="url(#paint10_linear_4867_98648)" stroke-opacity="0.16" stroke-width="3" stroke-miterlimit="10" stroke-linecap="round" stroke-dasharray="2 6"/>
<path d="M-423.369 1316.96C-288.075 1285.44 -182.156 1190.04 -59.0079 1131.47C-6.165 1103.69 51.7222 1093.16 109.054 1080.61C161.86 1066.22 211.909 1043.39 260.815 1019.13C615.88 829.319 657.594 871.106 987.888 1026.84C1107.65 1080.65 1224.38 1122.03 1350.84 1039.93C1445.9 982.965 1522.13 901.651 1616.88 843.875C1693.38 792.933 1786.97 787.614 1875.19 779.845C2002.29 770.148 2130.04 771.911 2256.79 751.015" stroke="url(#paint11_linear_4867_98648)" stroke-opacity="0.16" stroke-width="3" stroke-miterlimit="10" stroke-linecap="round" stroke-dasharray="2 6"/>
<path d="M-430.166 1341.43C-290.376 1308.96 -183.702 1206.41 -56.8933 1146.28C-3.99524 1118.11 54.5691 1109.93 111.89 1096.27C164.928 1081.42 215.331 1058.46 264.592 1034.07C624.978 842.817 657.183 877.018 993.071 1040.14C1113.51 1095.73 1228.66 1139.37 1357.55 1057.29C1453.32 1000.62 1530.27 919.597 1624.54 861.072C1703.49 806.981 1800.82 801.934 1892.46 792.511C2019.31 781.053 2146.66 777.952 2272.94 757.973" stroke="url(#paint12_linear_4867_98648)" stroke-opacity="0.16" stroke-width="3" stroke-miterlimit="10" stroke-linecap="round" stroke-dasharray="2 6"/>
<path d="M-438 1363.69C-293.939 1331.29 -186.859 1222.27 -56.1458 1161.24C5.47902 1128.32 75.7339 1126.53 140.854 1104.56C239.247 1071.62 328.045 1017.37 421.945 974.587C492.66 943.275 569.253 912.549 647.038 916.304C774.917 929.726 881.287 1001.18 993.013 1051.86C1116.45 1110.61 1233.24 1158.1 1367.03 1073.44C1468.69 1013.63 1549.2 926.445 1651.35 867.383C1726.58 820.074 1816.99 817.615 1902.04 807.317C2031.59 793.916 2161.46 787.273 2290.59 767.897" stroke="url(#paint13_linear_4867_98648)" stroke-opacity="0.16" stroke-width="3" stroke-miterlimit="10" stroke-linecap="round" stroke-dasharray="2 6"/>
<path d="M-447.043 1383.24C-299.365 1350.79 -190.431 1237.54 -55.8628 1176.56C3.41484 1146 70.1139 1144.43 132.472 1124.79C222.314 1096.54 304.67 1049.9 389.221 1009.14C470.246 971.363 556.875 930.747 647.205 931.849C775.293 942.592 881.84 1013.98 992.974 1064.7C1114.56 1122.84 1234.25 1175.37 1368.19 1093.81C1473.54 1034.67 1556.46 945.279 1660.84 884.637C1738.78 834.83 1832.76 833.264 1921.06 822.49C2050.67 808.696 2180.39 799.507 2309.6 781.404" stroke="url(#paint14_linear_4867_98648)" stroke-opacity="0.16" stroke-width="3" stroke-miterlimit="10" stroke-linecap="round" stroke-dasharray="2 6"/>
<path d="M-457.192 1399.86C-310.766 1366.76 -199.404 1258.92 -65.489 1197.81C-0.552278 1164.02 72.965 1162.31 141.159 1139.37C244.342 1105.19 337.626 1048.89 436.677 1005.3C501.916 977.71 571.309 950.423 642.413 950.364C777.186 959.532 889.7 1034.44 1007.48 1085.65C1132.14 1142.26 1245.25 1189.09 1380.19 1107.52C1487.72 1047.19 1573.18 957.037 1681.02 897.518C1759.75 850.384 1853.2 849.573 1941.15 838.376C2070.58 824.649 2200.29 814.904 2329.56 796.965" stroke="url(#paint15_linear_4867_98648)" stroke-opacity="0.16" stroke-width="3" stroke-miterlimit="10" stroke-linecap="round" stroke-dasharray="2 6"/>
<path d="M-468.486 1413.94C-326.086 1381.42 -213.5 1282.78 -83.6121 1222.25C-50.7413 1206.96 -16.8392 1193.9 18.4171 1185.52C59.7219 1177.12 101.643 1170.89 141.698 1156.45C249.134 1120.68 346.238 1061.09 450.451 1017.79C513.05 992.862 579.919 968.007 647.612 970.711C778.26 982.353 889.58 1050.84 1005.5 1099.77C1135.01 1155.86 1249.27 1205.23 1389.01 1122.43C1499.15 1062.05 1587.74 971.092 1699.39 912.562C1779.15 867.643 1872.37 867.291 1960.37 855.701C2090.34 841.775 2220.57 831.276 2350.43 813.301" stroke="url(#paint16_linear_4867_98648)" stroke-opacity="0.16" stroke-width="3" stroke-miterlimit="10" stroke-linecap="round" stroke-dasharray="2 6"/>
<path d="M-480.453 1426.22C-335.328 1393.43 -217.801 1296.65 -83.5023 1238.18C-26.6822 1210.77 34.9498 1201.07 95.7769 1188.14C148.002 1174.9 198.018 1154.68 246.943 1132.09C622.691 946.789 638.237 953.229 1002.27 1114.35C1136.88 1169.47 1252.76 1220.46 1397.41 1137.31C1507.57 1078.59 1597.67 990.597 1708.68 933.051C1791.63 886.938 1888.17 886.272 1979.43 874.207C2110.1 860.015 2241.04 848.695 2371.31 830.75" stroke="url(#paint17_linear_4867_98648)" stroke-opacity="0.16" stroke-width="3" stroke-miterlimit="10" stroke-linecap="round" stroke-dasharray="2 6"/>
<path d="M-493.388 1437.01C-345.887 1404.62 -223.168 1310.92 -84.9297 1254.88C-27.6767 1229.17 33.7288 1220.48 94.2567 1207.28C148.492 1193.48 200.336 1172.2 251.032 1148.95C620.634 965.578 644.96 983.593 1003.28 1131.62C1136.78 1183.25 1257.4 1233.4 1400.2 1155.02C1513.47 1098.12 1606.54 1010.5 1719.8 953.592C1803.12 908.456 1898.94 906.945 1990.2 894.879C2124.36 879.753 2258.85 867.661 2392.8 849.27" stroke="url(#paint18_linear_4867_98648)" stroke-opacity="0.16" stroke-width="3" stroke-miterlimit="10" stroke-linecap="round" stroke-dasharray="2 6"/>
<path d="M-506.983 1446.56C-359.764 1415.58 -233.596 1328.39 -94.6204 1274.86C-36.8183 1250.61 24.3373 1240.72 85.054 1228.57C138.586 1215.58 190.027 1195.39 240.197 1172.89C609.352 992.099 636.251 1006.74 998.646 1147.29C1136.4 1197.33 1262.23 1247.38 1408.55 1169.74C1524.54 1113.66 1621.3 1026.15 1738.02 971.481C1822.79 929.145 1918.56 928.027 2009.81 915.406C2144.86 899.947 2280.23 886.969 2415.12 868.408" stroke="url(#paint19_linear_4867_98648)" stroke-opacity="0.16" stroke-width="3" stroke-miterlimit="10" stroke-linecap="round" stroke-dasharray="2 6"/>
<path d="M-521.067 1455.36C-374.423 1426.08 -245.215 1345.93 -105.734 1295.37C-44.9072 1271.1 19.5718 1261.45 83.2459 1248.57C132.758 1236.71 180.72 1218.57 227.175 1198.01C592.882 1022.05 623.378 1029.02 987.823 1161.56C1126.85 1209.08 1263.8 1261.28 1411.39 1187.06C1530.44 1133.19 1630.47 1046.87 1749.57 993.163C1834.72 952.36 1930.11 950.264 2021.48 937.414C2160.37 920.888 2299.29 907.137 2437.98 887.901" stroke="url(#paint20_linear_4867_98648)" stroke-opacity="0.16" stroke-width="3" stroke-miterlimit="10" stroke-linecap="round" stroke-dasharray="2 6"/>
<path d="M-535.688 1463.81C-389.38 1436.33 -257.311 1363.28 -117.086 1315.78C-58.6558 1294.83 2.0668 1283.24 62.9231 1273.08C112.214 1262.8 160.017 1246.38 206.423 1226.78C558.095 1064.06 593.961 1045.98 954.636 1169.53C1096.37 1214.55 1254.83 1276.72 1405.97 1207.67C1528.56 1157.86 1632.04 1073.22 1752.45 1019.21C1840.43 976.79 1938.78 973.402 2033.28 960.305C2175.9 942.94 2318.84 928.056 2461.32 908.145" stroke="url(#paint21_linear_4867_98648)" stroke-opacity="0.16" stroke-width="3" stroke-miterlimit="10" stroke-linecap="round" stroke-dasharray="2 6"/>
<path d="M-550.779 1472.06C-404.216 1446.35 -269.053 1379.94 -127.546 1335.87C-29.5194 1301.94 75.8472 1300.57 172.092 1260.82C305.691 1209.11 432.234 1129.4 577.258 1115.22C671.3 1108.43 761.77 1134.19 849.437 1158.39C939.969 1184.32 1028.95 1214.72 1121.26 1235.7C1213.48 1258.58 1313.7 1263.96 1405.99 1226.06C1531.93 1179.27 1639.34 1095.94 1762.31 1042.83C1854.14 1000.45 1955.81 996.753 2053.69 982.95C2197.49 964.958 2341.55 949.283 2485.08 928.974" stroke="url(#paint22_linear_4867_98648)" stroke-opacity="0.16" stroke-width="3" stroke-miterlimit="10" stroke-linecap="round" stroke-dasharray="2 6"/>
<path d="M-566.222 1481C-419.58 1457.12 -281.854 1397.55 -139.481 1356.87C-41.1321 1325.43 63.4033 1324 160.026 1286.33C418.334 1183.46 516.357 1092.88 803.366 1170.26C903.013 1194.62 1000.36 1225.8 1100.7 1248.23C1200.46 1271.81 1308.26 1281.79 1409.08 1243.48C1540.85 1198.22 1654.06 1113.65 1783.22 1062.5C1873.2 1024.9 1971.36 1021.02 2066.16 1007.08C2213.86 988.179 2361.88 971.207 2509.44 950.318" stroke="url(#paint23_linear_4867_98648)" stroke-opacity="0.16" stroke-width="3" stroke-miterlimit="10" stroke-linecap="round" stroke-dasharray="2 6"/>
<path d="M-581.656 1490.5C-432.155 1467.77 -289.336 1413.17 -142.896 1375.8C-44.8664 1347.82 58.423 1346.3 154.227 1309.68C378.185 1222.47 502.261 1128.07 752.751 1184.01C864.943 1205.72 973.519 1238.82 1085.02 1262.46C1189.4 1285.43 1300.96 1298.46 1407.33 1262.53C1559.9 1215.61 1689.73 1116.09 1842.66 1070.15C1926.68 1046.3 2014.28 1041.74 2100.07 1028.56C2244.99 1009.78 2389.8 992.336 2534.64 971.725" stroke="url(#paint24_linear_4867_98648)" stroke-opacity="0.16" stroke-width="3" stroke-miterlimit="10" stroke-linecap="round" stroke-dasharray="2 6"/>
<path d="M-595.208 1499.66C-445.281 1478.07 -300.387 1429.02 -152.91 1394.41C-54.3251 1368.45 48.6649 1366.67 144.902 1331.75C355.953 1252.16 486.902 1157.23 723.45 1201.3C840.415 1220.11 953.842 1252.13 1069.49 1275.52C1178.85 1298.3 1294.89 1313.55 1406.9 1279.22C1562.65 1235.39 1696.59 1137.67 1851.9 1092.14C1939.41 1067.92 2030.45 1062.81 2119.79 1048.86C2265.53 1029.58 2411.34 1011.58 2556.71 990.768" stroke="url(#paint25_linear_4867_98648)" stroke-opacity="0.16" stroke-width="3" stroke-miterlimit="10" stroke-linecap="round" stroke-dasharray="2 6"/>
<path d="M-608.913 1510C-458.797 1489.45 -312.482 1445.81 -164.383 1413.94C-65.5426 1389.75 37.2092 1387.87 134.117 1354.74C340.241 1280.33 468.887 1186.27 700.711 1220.96C825.833 1237.27 947.032 1269.55 1070.5 1292.24C1180.85 1313.34 1297.11 1327.03 1409.8 1295.04C1568.18 1253.38 1706 1157.93 1863.27 1113.34C1951.03 1089.76 2041.82 1084 2130.99 1070.12C2280.28 1050.07 2429.76 1031.06 2579.15 1009.68" stroke="url(#paint26_linear_4867_98648)" stroke-opacity="0.16" stroke-width="3" stroke-miterlimit="10" stroke-linecap="round" stroke-dasharray="2 6"/>
<path d="M-622.309 1521.7C-471.888 1501.97 -324.512 1463.32 -175.675 1433.96C-76.4019 1411.46 26.2278 1409.26 123.807 1377.92C198.758 1354.68 269.133 1319.23 342.132 1290.77C452.682 1246.59 573.215 1226.9 689.436 1242.65C818.866 1256.98 944.324 1288.21 1072.05 1309.86C1180.54 1328.69 1293.88 1341.61 1404.72 1313.85C1569 1275.55 1712.99 1179.83 1875.31 1135.21C1963.07 1112.19 2053.74 1106.11 2142.84 1092.06C2295.86 1071.17 2449.01 1051.17 2602.01 1029.17" stroke="url(#paint27_linear_4867_98648)" stroke-opacity="0.16" stroke-width="3" stroke-miterlimit="10" stroke-linecap="round" stroke-dasharray="2 6"/>
<path d="M-635.751 1534.91C-484.792 1515.54 -335.947 1481.35 -186.078 1454.21C-88.6202 1433.88 11.6274 1430.71 107.463 1402.81C188.879 1379.56 264.558 1341 343.594 1311.41C445.306 1272.76 555.166 1253.17 662.195 1263.25C799.893 1274.3 933.299 1305.72 1068.73 1326.9C1178.81 1344.57 1292.98 1357.55 1405.26 1331.48C1572.65 1295.55 1720.75 1201.64 1885.74 1157.13C1976.93 1133.57 2071.04 1126.94 2163.57 1112.35C2317.48 1091.13 2471.21 1070.53 2624.99 1048.43" stroke="url(#paint28_linear_4867_98648)" stroke-opacity="0.16" stroke-width="3" stroke-miterlimit="10" stroke-linecap="round" stroke-dasharray="2 6"/>
<path d="M-648.874 1550.04C-497.677 1530.76 -347.96 1500.52 -197.536 1475.4C-96.926 1455.94 6.22378 1452.42 105.078 1423.95C187.324 1400.77 263.89 1361.88 344.117 1332.76C443.067 1296.45 549.199 1277.7 653.003 1285.65C794.655 1294.84 932.204 1325.45 1071.66 1345.5C1179.64 1361.36 1291.02 1373.89 1401.2 1350.84C1574.43 1317.55 1728.69 1223.37 1898.77 1178.44C1989.92 1155.27 2083.9 1148.32 2176.37 1133.57C2333.83 1111.58 2491.29 1090.14 2648.73 1067.59" stroke="url(#paint29_linear_4867_98648)" stroke-opacity="0.16" stroke-width="3" stroke-miterlimit="10" stroke-linecap="round" stroke-dasharray="2 6"/>
<path d="M-661.801 1567.33C-507.231 1547.35 -353.275 1519.79 -199.162 1495.89C-101.198 1478.53 -1.1458 1473.76 95.3005 1447.49C183.589 1423.72 265.46 1381.72 351.668 1351.86C442.783 1320.52 539.439 1302.91 634.728 1307.54C783.884 1314.11 928.611 1345 1075.35 1364.55C1183.85 1379.1 1295.41 1391.57 1405.9 1369.33C1581.8 1336.72 1739.71 1244.7 1912.16 1199.63C2006.5 1175.82 2103.73 1168.39 2199.29 1153.23C2357.22 1131.43 2515.09 1109.47 2672.71 1086.85" stroke="url(#paint30_linear_4867_98648)" stroke-opacity="0.16" stroke-width="3" stroke-miterlimit="10" stroke-linecap="round" stroke-dasharray="2 6"/>
<path d="M-674.4 1587.1C-519.659 1566.49 -365.197 1541.91 -210.656 1519.15C-111.972 1502.63 -11.3996 1496.55 85.8892 1471.45C176.261 1448.39 259.848 1406.12 347.89 1375.75C438.357 1344.85 534.06 1326.85 628.567 1330.47C781.268 1335.71 929.899 1365.7 1080.25 1384.64C1189.16 1398.11 1300.78 1410.74 1411.39 1389.39C1589.79 1356.95 1751.45 1266.87 1926.39 1221.43C2023.86 1196.82 2124.24 1189.14 2223.22 1173.43C2381.15 1151.08 2539.14 1128.89 2697.18 1106.31" stroke="url(#paint31_linear_4867_98648)" stroke-opacity="0.16" stroke-width="3" stroke-miterlimit="10" stroke-linecap="round" stroke-dasharray="2 6"/>
<path d="M-686.501 1609.28C-528.399 1586.86 -370.18 1564.21 -212.078 1541.79C-115.93 1526.59 -18.3993 1518.87 76.4754 1495.42C166.975 1473.23 251.167 1432.04 338.787 1401.09C430.727 1369.26 527.598 1349.52 623.938 1352.64C783.805 1357.06 939.738 1387.65 1097.2 1406.16C1202.47 1418.02 1310.41 1429.99 1417.18 1409.7C1601.32 1376.41 1768.84 1285.26 1949.83 1239.77C2047.6 1215.98 2148.04 1207.91 2247.2 1192.14C2405.43 1170.04 2563.65 1147.39 2721.75 1124.97" stroke="url(#paint32_linear_4867_98648)" stroke-opacity="0.16" stroke-width="3" stroke-miterlimit="10" stroke-linecap="round" stroke-dasharray="2 6"/>
<defs>
<linearGradient id="paint0_linear_4867_98648" x1="2120.08" y1="765.241" x2="-253.762" y2="1438.92" gradientUnits="userSpaceOnUse">
<stop stop-color="#28A0F0"/>
<stop offset="1" stop-color="#0678C4" stop-opacity="0.9917"/>
</linearGradient>
<linearGradient id="paint1_linear_4867_98648" x1="2131.64" y1="765.369" x2="-266.457" y2="1438.04" gradientUnits="userSpaceOnUse">
<stop stop-color="#28A0F0"/>
<stop offset="1" stop-color="#0678C4" stop-opacity="0.9917"/>
</linearGradient>
<linearGradient id="paint2_linear_4867_98648" x1="2142.88" y1="763.572" x2="-280.522" y2="1433.5" gradientUnits="userSpaceOnUse">
<stop stop-color="#28A0F0"/>
<stop offset="1" stop-color="#0678C4" stop-opacity="0.9917"/>
</linearGradient>
<linearGradient id="paint3_linear_4867_98648" x1="2154.19" y1="760.828" x2="-295.532" y2="1426.31" gradientUnits="userSpaceOnUse">
<stop stop-color="#28A0F0"/>
<stop offset="1" stop-color="#0678C4" stop-opacity="0.9917"/>
</linearGradient>
<linearGradient id="paint4_linear_4867_98648" x1="2165.41" y1="757.366" x2="-311.202" y2="1416.61" gradientUnits="userSpaceOnUse">
<stop stop-color="#28A0F0"/>
<stop offset="1" stop-color="#0678C4" stop-opacity="0.9917"/>
</linearGradient>
<linearGradient id="paint5_linear_4867_98648" x1="2176.82" y1="753.836" x2="-327.218" y2="1405.07" gradientUnits="userSpaceOnUse">
<stop stop-color="#28A0F0"/>
<stop offset="1" stop-color="#0678C4" stop-opacity="0.9917"/>
</linearGradient>
<linearGradient id="paint6_linear_4867_98648" x1="2188.65" y1="750.337" x2="-343.659" y2="1391.81" gradientUnits="userSpaceOnUse">
<stop stop-color="#28A0F0"/>
<stop offset="1" stop-color="#0678C4" stop-opacity="0.9917"/>
</linearGradient>
<linearGradient id="paint7_linear_4867_98648" x1="2200.89" y1="747.424" x2="-359.193" y2="1384.36" gradientUnits="userSpaceOnUse">
<stop stop-color="#28A0F0"/>
<stop offset="1" stop-color="#0678C4" stop-opacity="0.9917"/>
</linearGradient>
<linearGradient id="paint8_linear_4867_98648" x1="2213.5" y1="745.488" x2="-374.354" y2="1378.75" gradientUnits="userSpaceOnUse">
<stop stop-color="#28A0F0"/>
<stop offset="1" stop-color="#0678C4" stop-opacity="0.9917"/>
</linearGradient>
<linearGradient id="paint9_linear_4867_98648" x1="2227.02" y1="745.441" x2="-388.851" y2="1377.15" gradientUnits="userSpaceOnUse">
<stop stop-color="#28A0F0"/>
<stop offset="1" stop-color="#0678C4" stop-opacity="0.9917"/>
</linearGradient>
<linearGradient id="paint10_linear_4867_98648" x1="2241.39" y1="747.122" x2="-402.55" y2="1378.13" gradientUnits="userSpaceOnUse">
<stop stop-color="#28A0F0"/>
<stop offset="1" stop-color="#0678C4" stop-opacity="0.9917"/>
</linearGradient>
<linearGradient id="paint11_linear_4867_98648" x1="2256.79" y1="751.015" x2="-415.506" y2="1381.85" gradientUnits="userSpaceOnUse">
<stop stop-color="#28A0F0"/>
<stop offset="1" stop-color="#0678C4" stop-opacity="0.9917"/>
</linearGradient>
<linearGradient id="paint12_linear_4867_98648" x1="2272.94" y1="757.973" x2="-427.153" y2="1390.1" gradientUnits="userSpaceOnUse">
<stop stop-color="#28A0F0"/>
<stop offset="1" stop-color="#0678C4" stop-opacity="0.9917"/>
</linearGradient>
<linearGradient id="paint13_linear_4867_98648" x1="2290.59" y1="767.897" x2="-437.769" y2="1402.09" gradientUnits="userSpaceOnUse">
<stop stop-color="#28A0F0"/>
<stop offset="1" stop-color="#0678C4" stop-opacity="0.9917"/>
</linearGradient>
<linearGradient id="paint14_linear_4867_98648" x1="2309.6" y1="781.404" x2="-446.995" y2="1419.93" gradientUnits="userSpaceOnUse">
<stop stop-color="#28A0F0"/>
<stop offset="1" stop-color="#0678C4" stop-opacity="0.9917"/>
</linearGradient>
<linearGradient id="paint15_linear_4867_98648" x1="2329.56" y1="796.965" x2="-455.296" y2="1441.39" gradientUnits="userSpaceOnUse">
<stop stop-color="#28A0F0"/>
<stop offset="1" stop-color="#0678C4" stop-opacity="0.9917"/>
</linearGradient>
<linearGradient id="paint16_linear_4867_98648" x1="2350.43" y1="813.301" x2="-463.367" y2="1464.51" gradientUnits="userSpaceOnUse">
<stop stop-color="#28A0F0"/>
<stop offset="1" stop-color="#0678C4" stop-opacity="0.9917"/>
</linearGradient>
<linearGradient id="paint17_linear_4867_98648" x1="2371.31" y1="830.75" x2="-471.009" y2="1489.15" gradientUnits="userSpaceOnUse">
<stop stop-color="#28A0F0"/>
<stop offset="1" stop-color="#0678C4" stop-opacity="0.9917"/>
</linearGradient>
<linearGradient id="paint18_linear_4867_98648" x1="2392.8" y1="849.27" x2="-478.353" y2="1517.58" gradientUnits="userSpaceOnUse">
<stop stop-color="#28A0F0"/>
<stop offset="1" stop-color="#0678C4" stop-opacity="0.9917"/>
</linearGradient>
<linearGradient id="paint19_linear_4867_98648" x1="2415.12" y1="868.408" x2="-485.532" y2="1547.46" gradientUnits="userSpaceOnUse">
<stop stop-color="#28A0F0"/>
<stop offset="1" stop-color="#0678C4" stop-opacity="0.9917"/>
</linearGradient>
<linearGradient id="paint20_linear_4867_98648" x1="2437.98" y1="887.901" x2="-492.688" y2="1578.21" gradientUnits="userSpaceOnUse">
<stop stop-color="#28A0F0"/>
<stop offset="1" stop-color="#0678C4" stop-opacity="0.9917"/>
</linearGradient>
<linearGradient id="paint21_linear_4867_98648" x1="2461.32" y1="908.145" x2="-499.196" y2="1616.35" gradientUnits="userSpaceOnUse">
<stop stop-color="#28A0F0"/>
<stop offset="1" stop-color="#0678C4" stop-opacity="0.9917"/>
</linearGradient>
<linearGradient id="paint22_linear_4867_98648" x1="2485.08" y1="928.974" x2="-505.419" y2="1658.11" gradientUnits="userSpaceOnUse">
<stop stop-color="#28A0F0"/>
<stop offset="1" stop-color="#0678C4" stop-opacity="0.9917"/>
</linearGradient>
<linearGradient id="paint23_linear_4867_98648" x1="2509.44" y1="950.318" x2="-511.979" y2="1699.7" gradientUnits="userSpaceOnUse">
<stop stop-color="#28A0F0"/>
<stop offset="1" stop-color="#0678C4" stop-opacity="0.9917"/>
</linearGradient>
<linearGradient id="paint24_linear_4867_98648" x1="2534.64" y1="971.725" x2="-518.675" y2="1740.6" gradientUnits="userSpaceOnUse">
<stop stop-color="#28A0F0"/>
<stop offset="1" stop-color="#0678C4" stop-opacity="0.9917"/>
</linearGradient>
<linearGradient id="paint25_linear_4867_98648" x1="2556.71" y1="990.768" x2="-524.816" y2="1775.93" gradientUnits="userSpaceOnUse">
<stop stop-color="#28A0F0"/>
<stop offset="1" stop-color="#0678C4" stop-opacity="0.9917"/>
</linearGradient>
<linearGradient id="paint26_linear_4867_98648" x1="2579.15" y1="1009.68" x2="-531.628" y2="1810.29" gradientUnits="userSpaceOnUse">
<stop stop-color="#28A0F0"/>
<stop offset="1" stop-color="#0678C4" stop-opacity="0.9917"/>
</linearGradient>
<linearGradient id="paint27_linear_4867_98648" x1="2602.01" y1="1029.17" x2="-538.464" y2="1844.61" gradientUnits="userSpaceOnUse">
<stop stop-color="#28A0F0"/>
<stop offset="1" stop-color="#0678C4" stop-opacity="0.9917"/>
</linearGradient>
<linearGradient id="paint28_linear_4867_98648" x1="2624.99" y1="1048.43" x2="-546.072" y2="1877.8" gradientUnits="userSpaceOnUse">
<stop stop-color="#28A0F0"/>
<stop offset="1" stop-color="#0678C4" stop-opacity="0.9917"/>
</linearGradient>
<linearGradient id="paint29_linear_4867_98648" x1="2648.73" y1="1067.59" x2="-554.18" y2="1910.06" gradientUnits="userSpaceOnUse">
<stop stop-color="#28A0F0"/>
<stop offset="1" stop-color="#0678C4" stop-opacity="0.9917"/>
</linearGradient>
<linearGradient id="paint30_linear_4867_98648" x1="2672.71" y1="1086.85" x2="-562.957" y2="1941.54" gradientUnits="userSpaceOnUse">
<stop stop-color="#28A0F0"/>
<stop offset="1" stop-color="#0678C4" stop-opacity="0.9917"/>
</linearGradient>
<linearGradient id="paint31_linear_4867_98648" x1="2697.18" y1="1106.31" x2="-572.353" y2="1972.35" gradientUnits="userSpaceOnUse">
<stop stop-color="#28A0F0"/>
<stop offset="1" stop-color="#0678C4" stop-opacity="0.9917"/>
</linearGradient>
<linearGradient id="paint32_linear_4867_98648" x1="2721.75" y1="1124.97" x2="-582.627" y2="2001.07" gradientUnits="userSpaceOnUse">
<stop stop-color="#28A0F0"/>
<stop offset="1" stop-color="#0678C4" stop-opacity="0.9917"/>
</linearGradient>
</defs>
</svg>
