<svg width="1920" height="2546" viewBox="0 0 1920 2546" fill="none" xmlns="http://www.w3.org/2000/svg">
<path d="M-358.017 1246.23C-248.661 1222.54 -142.521 1184.76 -35.0267 1153.28C29.1777 1132.21 96.1835 1123.51 160.161 1101.97C249.504 1069 327.588 1007.84 421.644 987.271C484.762 971.364 548.448 979.32 609.841 989.927C712.799 1003.11 812.633 1029 915.726 1041.16C1036.36 1057.03 1175.58 1050.44 1272.58 961.835C1363.55 889.065 1434.38 786.219 1546.79 742.713C1735.43 689.153 1916.75 809.247 2106.21 779.626" stroke="url(#paint0_linear_4867_101659)" stroke-opacity="0.16" stroke-width="3" stroke-miterlimit="10" stroke-linecap="round" stroke-dasharray="2 6"/>
<path d="M-359.914 1271.08C-250.613 1246.84 -145.924 1204.74 -39.297 1170.59C24.4936 1147.79 91.4827 1137.74 155.743 1117.23C251.751 1082.4 334.861 1015.54 435.846 994.528C492.183 981.113 549.382 985.627 604.379 994.292C715.462 1004.72 821.896 1035.16 932.141 1049.09C1050.14 1066.04 1186.2 1059.42 1281.74 973.45C1370.61 902.853 1439.42 805.418 1545.48 757.44C1730.5 691.138 1928.06 810.942 2117.73 778.709" stroke="url(#paint1_linear_4867_101659)" stroke-opacity="0.16" stroke-width="3" stroke-miterlimit="10" stroke-linecap="round" stroke-dasharray="2 6"/>
<path d="M-361.395 1297.67C-192.687 1256.8 -36.7079 1172.04 133.656 1138.1C235.641 1106.95 320.631 1035.71 423.407 1007.08C581.709 962.917 781.916 1034.14 938.717 1055.77C1056.83 1075.56 1193.75 1071.62 1290.71 985.545C1379.73 915.261 1448.33 818.699 1553.24 768.766C1738.4 697.955 1938.49 810.362 2128.77 775.904" stroke="url(#paint2_linear_4867_101659)" stroke-opacity="0.16" stroke-width="3" stroke-miterlimit="10" stroke-linecap="round" stroke-dasharray="2 6"/>
<path d="M-362.53 1325.84C-199.616 1286.02 -53.7702 1192.43 110.838 1158.74C224.82 1130.7 316.66 1048.83 428.662 1015.37C605.487 965.181 784.963 1038.27 954.932 1064.57C1070.22 1085.92 1204.46 1082.5 1299.57 998.272C1388.92 928.219 1457.57 832.21 1561.33 780.321C1745.8 705.016 1949.21 809.064 2139.78 772.15" stroke="url(#paint3_linear_4867_101659)" stroke-opacity="0.16" stroke-width="3" stroke-miterlimit="10" stroke-linecap="round" stroke-dasharray="2 6"/>
<path d="M-363.468 1354.87C-219.091 1317.99 -92.3012 1232.8 49.8339 1189.08C101.061 1174.65 153.684 1163.99 201.369 1138.71C279.058 1100.73 350.899 1049.72 433.776 1022.95C613.658 966.46 789.895 1041.11 961.03 1072.45C1076.99 1096.95 1211.06 1097.09 1308.39 1011.79C1395.89 943.591 1463.18 851.718 1561.53 796.446C1740.85 709.138 1960.59 807.835 2150.65 767.689" stroke="url(#paint4_linear_4867_101659)" stroke-opacity="0.16" stroke-width="3" stroke-miterlimit="10" stroke-linecap="round" stroke-dasharray="2 6"/>
<path d="M-364.273 1384.61C-229.153 1348.13 -112.627 1265.18 17.6289 1215.98C73.9035 1193.71 134.604 1186.31 188.899 1158.62C270.868 1119.92 344.891 1065.16 430.332 1033.68C612.731 964.974 794.242 1044.04 967.281 1080.64C1085.1 1108.11 1216.18 1112.96 1317.09 1025.95C1405.18 957.655 1472.71 865.856 1570.14 809.099C1746.99 717.961 1972.16 806.127 2161.69 763.144" stroke="url(#paint5_linear_4867_101659)" stroke-opacity="0.16" stroke-width="3" stroke-miterlimit="10" stroke-linecap="round" stroke-dasharray="2 6"/>
<path d="M-365.261 1414.82C-232.998 1377.21 -121.654 1291.35 4.06465 1237.96C62.5609 1211.15 127.255 1203.75 184.695 1174.74C270.414 1134.24 346.772 1076.04 435.359 1041.49C622.012 964.175 807.297 1051.07 983.302 1091.66C1100.13 1120.56 1224.51 1126.33 1325.78 1040.49C1412.03 974.054 1478.56 885.83 1571.02 826.632C1741.47 725.252 1983.71 804.813 2173.15 758.591" stroke="url(#paint6_linear_4867_101659)" stroke-opacity="0.16" stroke-width="3" stroke-miterlimit="10" stroke-linecap="round" stroke-dasharray="2 6"/>
<path d="M-366.502 1444.96C-236.849 1406.29 -130.556 1318.23 -9.63969 1260.97C50.7569 1229.38 119.239 1221.13 180.295 1191.34C264.385 1151.82 338.923 1095.07 423.692 1056.96C620.008 960.891 804.338 1053.66 989.154 1101.2C1107.83 1133.08 1229.33 1143.32 1334.01 1055.84C1420.85 989.313 1487.79 901.082 1579.75 840.391C1745.07 736.652 1997.43 803.225 2185.08 754.584" stroke="url(#paint7_linear_4867_101659)" stroke-opacity="0.16" stroke-width="3" stroke-miterlimit="10" stroke-linecap="round" stroke-dasharray="2 6"/>
<path d="M-368.141 1474.72C-237.899 1434.21 -134.192 1341.22 -14.1783 1280.34C40.1781 1249.73 101.507 1239.7 158.427 1216.16C227.888 1186.38 290.271 1143.21 355.391 1105.29C606.601 949.194 753.96 1042.38 995.135 1111.45C1115.17 1146.15 1234.88 1160.54 1342.39 1071.51C1430.06 1004.96 1497.34 916.565 1588.79 854.381C1746.16 749.835 2012.39 802.011 2197.46 751.518" stroke="url(#paint8_linear_4867_101659)" stroke-opacity="0.16" stroke-width="3" stroke-miterlimit="10" stroke-linecap="round" stroke-dasharray="2 6"/>
<path d="M-370.417 1504.01C-239.434 1461.99 -138.237 1364.22 -18.9007 1300.19C32.1994 1269.79 89.973 1257.62 144.976 1237.51C198.296 1216.08 247.541 1186.19 296.122 1156.23C597.601 956.231 689.917 1021.47 990.677 1119.19C1114.59 1158.02 1236.54 1180.98 1350.83 1087.72C1436.49 1023.11 1503.02 937.967 1590.03 874.834C1659.94 820.701 1749.96 807.872 1834.32 796.408C1959.83 780.97 2086.97 781.551 2210.93 750.25" stroke="url(#paint9_linear_4867_101659)" stroke-opacity="0.16" stroke-width="3" stroke-miterlimit="10" stroke-linecap="round" stroke-dasharray="2 6"/>
<path d="M-373.3 1532.05C-242.012 1488.92 -142.968 1387.54 -24.8195 1320.61C25.7523 1289.12 82.8661 1275.14 138.397 1256.12C192.19 1235.24 241.926 1205.5 290.774 1175.22C610.35 962.646 681.208 1022.57 1001.52 1132.13C1121.74 1171.57 1240.91 1197.03 1354 1107.82C1443.52 1042.51 1511.61 954.495 1600.99 888.869C1672.95 832.012 1766.12 819.205 1853.45 805.159C1977.33 787.22 2103 782.136 2225.39 750.626" stroke="url(#paint10_linear_4867_101659)" stroke-opacity="0.16" stroke-width="3" stroke-miterlimit="10" stroke-linecap="round" stroke-dasharray="2 6"/>
<path d="M-377.032 1558.75C-245.138 1515.14 -148.265 1410.56 -30.908 1341.12C19.211 1308.68 75.9109 1292.97 131.876 1275.29C183.167 1256.19 230.949 1228.94 277.466 1200.36C613.94 979.262 659.257 1017.11 1002.26 1142.39C1126.4 1185.16 1246.39 1215.83 1364.92 1122.65C1454.44 1057.33 1523.02 969.47 1612.17 903.373C1683.76 845.732 1776.48 831.985 1863.63 816.282C1989.34 795.148 2116.74 785.369 2241.08 753.113" stroke="url(#paint11_linear_4867_101659)" stroke-opacity="0.16" stroke-width="3" stroke-miterlimit="10" stroke-linecap="round" stroke-dasharray="2 6"/>
<path d="M-381.592 1583.73C-245.304 1538.78 -148.327 1427 -27.4645 1355.68C22.674 1322.85 80.2602 1309.41 136.113 1290.63C187.594 1271.05 235.718 1243.64 282.575 1214.89C624.22 991.883 659.382 1023.04 1008.63 1155.16C1133.59 1199.65 1252.21 1232.72 1373.16 1139.34C1463.43 1074.25 1532.75 986.607 1621.35 919.809C1695.1 858.81 1791.56 844.996 1881.98 827.337C2007.28 804.472 2133.82 789.885 2257.79 758.584" stroke="url(#paint12_linear_4867_101659)" stroke-opacity="0.16" stroke-width="3" stroke-miterlimit="10" stroke-linecap="round" stroke-dasharray="2 6"/>
<path d="M-387.384 1606.61C-246.837 1561.34 -150.039 1443.09 -25.3696 1370.51C33.0307 1332.15 102.837 1324.03 165.708 1296.27C260.724 1254.58 344.261 1192.53 433.915 1141.45C501.514 1103.88 575.019 1066.36 652.826 1063.08C781.394 1064.9 893.782 1126.46 1009.63 1166.84C1137.86 1214.21 1258.47 1250.95 1384.06 1154.56C1479.91 1085.82 1552.22 991.718 1648.62 923.674C1719.27 869.765 1809.09 859.153 1892.86 841.217C2020.68 816.173 2149.41 797.831 2276.27 766.875" stroke="url(#paint13_linear_4867_101659)" stroke-opacity="0.16" stroke-width="3" stroke-miterlimit="10" stroke-linecap="round" stroke-dasharray="2 6"/>
<path d="M-394.625 1626.9C-250.48 1581.24 -152.217 1458.62 -23.7049 1385.73C32.5713 1349.95 98.8564 1342.36 159.186 1317.18C246.111 1280.92 323.919 1227.05 404.444 1178.81C481.728 1133.88 564.335 1085.6 654.396 1078.54C782.931 1077.68 895.488 1139.15 1010.75 1179.63C1137.09 1226.55 1261.04 1268.06 1387.06 1174.74C1486.64 1106.33 1561.15 1009.82 1659.63 940C1732.75 883.359 1826.2 873.314 1913.17 854.61C2041.01 829.17 2169.37 808.306 2296.41 778.611" stroke="url(#paint14_linear_4867_101659)" stroke-opacity="0.16" stroke-width="3" stroke-miterlimit="10" stroke-linecap="round" stroke-dasharray="2 6"/>
<path d="M-403.232 1644.36C-260.392 1598.18 -159.222 1480.72 -31.3725 1407.77C30.2476 1368.25 103.311 1359.91 169.155 1330.91C268.83 1287.56 356.649 1223.06 451.359 1170.7C513.841 1137.34 580.487 1103.9 651.295 1097.42C786.345 1094.38 905.164 1158.82 1027.09 1199.18C1156.35 1244.31 1273.22 1280.73 1400.25 1187.32C1501.9 1117.52 1578.86 1020.02 1680.89 951.006C1755.04 896.956 1848.04 887.71 1934.61 868.618C2062.28 843.26 2190.58 821.843 2317.7 792.304" stroke="url(#paint15_linear_4867_101659)" stroke-opacity="0.16" stroke-width="3" stroke-miterlimit="10" stroke-linecap="round" stroke-dasharray="2 6"/>
<path d="M-413.208 1659.4C-274.326 1614.16 -171.107 1505.75 -47.2149 1433.74C-15.8583 1415.56 16.7254 1399.48 51.0817 1387.96C91.4587 1375.86 132.646 1365.87 171.234 1347.87C275.001 1302.54 366.328 1234.43 466.206 1181.9C526.298 1151.42 590.65 1120.63 658.31 1117.21C789.475 1117.01 906.525 1175.16 1026.39 1213.42C1160.44 1257.6 1278.69 1296.44 1410.38 1201.37C1514.62 1131.28 1594.63 1032.7 1700.54 964.331C1775.92 912.393 1868.73 903.625 1955.32 884.137C2083.5 858.533 2212.25 836.317 2339.96 806.689" stroke="url(#paint16_linear_4867_101659)" stroke-opacity="0.16" stroke-width="3" stroke-miterlimit="10" stroke-linecap="round" stroke-dasharray="2 6"/>
<path d="M-424.017 1672.72C-282.447 1626.95 -174.137 1519.96 -45.6668 1449.61C8.44629 1417.18 68.9504 1401.95 128.361 1383.58C179.177 1365.68 227.164 1341.03 273.848 1314.11C631.331 1095.64 647.395 1100.65 1024.49 1228.24C1163.52 1270.98 1283.53 1311.3 1420.09 1215.42C1524.5 1147 1606.29 1051.23 1711.64 983.897C1790.09 930.482 1886.17 921.102 1975.97 900.846C2104.83 874.913 2234.21 851.817 2362.33 822.182" stroke="url(#paint17_linear_4867_101659)" stroke-opacity="0.16" stroke-width="3" stroke-miterlimit="10" stroke-linecap="round" stroke-dasharray="2 6"/>
<path d="M-435.925 1684.63C-291.951 1639.06 -178.194 1534.66 -45.5807 1466.36C9.1167 1435.58 69.4867 1421.39 128.576 1402.78C181.343 1384.13 231.055 1358.27 279.444 1330.53C630.979 1114.53 656.832 1130.28 1027.06 1245.35C1164.67 1284.72 1289.32 1323.76 1424.47 1232.81C1532.13 1165.91 1616.91 1070.25 1724.57 1003.35C1803.48 950.874 1898.77 940.718 1988.56 920.462C2120.81 893.283 2253.66 869.097 2385.4 838.686" stroke="url(#paint18_linear_4867_101659)" stroke-opacity="0.16" stroke-width="3" stroke-miterlimit="10" stroke-linecap="round" stroke-dasharray="2 6"/>
<path d="M-448.603 1695.37C-304.783 1651.22 -187.003 1553 -53.4281 1487.14C1.94865 1457.77 61.9608 1442.39 121.333 1424.81C173.474 1407.04 222.881 1382.29 270.814 1355.35C622.137 1141.97 650.248 1154.11 1023.85 1261.38C1165.56 1298.77 1295.4 1337.25 1434.11 1246.71C1544.57 1180.4 1633.02 1084.51 1744.33 1019.52C1824.94 969.703 1920.21 959.942 2009.95 939.134C2143.05 911.544 2276.69 886.396 2409.36 855.731" stroke="url(#paint19_linear_4867_101659)" stroke-opacity="0.16" stroke-width="3" stroke-miterlimit="10" stroke-linecap="round" stroke-dasharray="2 6"/>
<path d="M-461.834 1705.41C-318.432 1663.01 -196.99 1571.51 -62.6437 1508.56C-4.25663 1478.91 59.0872 1463.47 121.338 1444.89C169.577 1428.61 215.705 1406.21 260.115 1381.55C608.439 1173.28 639.439 1177.47 1014.36 1276.56C1157.12 1311.33 1298.22 1350.96 1438.51 1263.71C1552.2 1199.31 1644.03 1104.31 1757.8 1040.07C1838.91 991.747 1933.73 981.046 2023.56 959.998C2160.39 930.998 2297.5 904.76 2433.89 873.081" stroke="url(#paint20_linear_4867_101659)" stroke-opacity="0.16" stroke-width="3" stroke-miterlimit="10" stroke-linecap="round" stroke-dasharray="2 6"/>
<path d="M-475.632 1715.14C-332.404 1674.56 -207.47 1589.88 -72.1061 1529.92C-15.8068 1503.78 43.6211 1486.75 103.312 1471.14C151.473 1456.45 197.598 1435.78 242.044 1412.07C577.587 1218.26 611.674 1197.02 982.032 1287.5C1127.25 1319.54 1290.68 1367.14 1434.97 1284.72C1552.56 1224.05 1647.98 1130.41 1763.02 1065.75C1846.8 1015.56 1944.44 1003.31 2037.38 981.73C2177.85 951.558 2318.86 923.828 2458.96 891.133" stroke="url(#paint21_linear_4867_101659)" stroke-opacity="0.16" stroke-width="3" stroke-miterlimit="10" stroke-linecap="round" stroke-dasharray="2 6"/>
<path d="M-489.917 1724.72C-346.274 1685.88 -217.659 1607.54 -80.71 1550.87C13.8529 1508.23 118.665 1497.35 210.927 1449.07C339.312 1385.51 458.14 1294.7 601.292 1267.48C694.336 1252.23 786.763 1269.71 876.257 1285.9C968.76 1303.55 1060.12 1325.79 1153.95 1338.35C1247.86 1352.8 1348.16 1349.12 1436.65 1303.04C1557.85 1245.06 1657.3 1152.38 1774.97 1088.39C1862.6 1037.89 1963.51 1025.02 2059.75 1002.44C2201.33 971.537 2343.39 942.918 2484.51 909.731" stroke="url(#paint22_linear_4867_101659)" stroke-opacity="0.16" stroke-width="3" stroke-miterlimit="10" stroke-linecap="round" stroke-dasharray="2 6"/>
<path d="M-504.489 1735.02C-360.604 1697.99 -228.818 1626.23 -90.7002 1572.86C4.40789 1532.67 108.387 1521.8 201.214 1475.56C449.178 1349.8 538.622 1250.73 831.445 1301.88C932.886 1317.15 1032.65 1339.4 1134.61 1352.69C1236.09 1367.16 1344.34 1367.37 1441.3 1320.11C1568.44 1263.14 1673.55 1168.69 1797.56 1106.08C1883.78 1060.52 1981.2 1047.79 2074.35 1025.34C2219.74 993.184 2365.62 962.917 2510.69 928.79" stroke="url(#paint23_linear_4867_101659)" stroke-opacity="0.16" stroke-width="3" stroke-miterlimit="10" stroke-linecap="round" stroke-dasharray="2 6"/>
<path d="M-519.003 1745.87C-372.166 1709.74 -234.859 1642.47 -92.392 1592.02C2.71075 1555.31 105.441 1544.46 197.546 1499.34C412.715 1392.27 527.761 1287.05 782.279 1320.15C895.973 1331.64 1007.09 1354.8 1120.27 1368.28C1226.3 1381.72 1338.59 1384.63 1441.27 1339.24C1588.98 1278.74 1709.3 1167.9 1857.46 1108.34C1938.98 1077 2025.81 1064.55 2110.06 1043.68C2252.69 1011.89 2395.33 981.439 2537.72 947.834" stroke="url(#paint24_linear_4867_101659)" stroke-opacity="0.16" stroke-width="3" stroke-miterlimit="10" stroke-linecap="round" stroke-dasharray="2 6"/>
<path d="M-531.672 1756.22C-384.307 1721.18 -244.435 1659.24 -100.684 1611.46C-4.84608 1576.71 97.5624 1565.64 190.252 1522.17C393.255 1423.84 515.098 1317.48 754.659 1340.01C872.844 1348.18 988.7 1369.83 1105.99 1382.69C1216.95 1395.49 1333.9 1400.21 1442.36 1355.9C1593.5 1298.19 1718.08 1188.77 1868.64 1129.41C1953.61 1097.38 2043.81 1084.07 2131.53 1062.11C2274.93 1029.75 2418.53 998.657 2561.42 964.806" stroke="url(#paint25_linear_4867_101659)" stroke-opacity="0.16" stroke-width="3" stroke-miterlimit="10" stroke-linecap="round" stroke-dasharray="2 6"/>
<path d="M-544.389 1767.75C-396.741 1733.73 -254.964 1677.06 -110.347 1631.95C-14.0954 1598.93 88.0671 1587.78 181.587 1546.03C380.152 1453.32 499.779 1348.03 733.788 1361.65C859.872 1366.59 983.489 1387.79 1108.5 1399.24C1220.31 1410.29 1337.32 1413.42 1446.67 1371.4C1600.64 1315.61 1729.28 1208.1 1881.88 1149.49C1967.15 1118.08 2057.06 1104.15 2144.6 1082.27C2291.47 1048.83 2438.63 1016.4 2585.48 981.61" stroke="url(#paint26_linear_4867_101659)" stroke-opacity="0.16" stroke-width="3" stroke-miterlimit="10" stroke-linecap="round" stroke-dasharray="2 6"/>
<path d="M-556.673 1780.62C-408.647 1747.39 -265.364 1695.58 -119.785 1652.91C-22.9491 1621.54 79.0624 1610.08 173.413 1570.05C245.96 1540.14 312.846 1498.48 382.978 1463.55C489.086 1409.56 607.349 1379.08 724.517 1384.26C854.713 1386.84 982.478 1406.62 1111.64 1416.65C1221.38 1425.61 1335.43 1428.24 1443.31 1390.59C1603.46 1337.61 1738.22 1229.28 1895.84 1170.19C1981.17 1139.34 2070.92 1125.09 2158.39 1103.06C2308.9 1068.44 2459.61 1034.68 2610.01 998.959" stroke="url(#paint27_linear_4867_101659)" stroke-opacity="0.16" stroke-width="3" stroke-miterlimit="10" stroke-linecap="round" stroke-dasharray="2 6"/>
<path d="M-568.867 1794.98C-420.274 1762.06 -275.124 1714.57 -128.317 1674.01C-33.0939 1644.96 66.458 1632.75 159.383 1596.31C238.367 1565.81 310.256 1520.58 386.297 1483.97C484.104 1436.29 591.746 1406.86 699.248 1407.24C837.382 1405.81 973.079 1425.05 1109.87 1433.92C1221.09 1441.58 1335.97 1444.2 1445.44 1408.1C1608.9 1357.2 1747.92 1250.29 1908.21 1191.07C1996.91 1159.37 2090.03 1144.27 2180.87 1121.39C2332.23 1086.36 2483.47 1051.97 2634.63 1016.07" stroke="url(#paint28_linear_4867_101659)" stroke-opacity="0.16" stroke-width="3" stroke-miterlimit="10" stroke-linecap="round" stroke-dasharray="2 6"/>
<path d="M-580.57 1811.24C-431.731 1778.39 -285.356 1734.75 -137.815 1696.15C-39.374 1667.68 63.0372 1654.87 158.917 1617.59C238.734 1587.07 311.475 1541.43 388.745 1505.19C484.012 1460.09 588.018 1431.83 692.115 1430.37C834.019 1426.74 973.77 1444.8 1114.46 1452.18C1223.43 1458.22 1335.5 1460.65 1443.14 1427.74C1612.66 1378.95 1757.79 1271.22 1923.12 1211.12C2011.79 1179.82 2104.76 1164.41 2195.53 1141.37C2350.36 1105.25 2505.24 1069.68 2660.01 1033.01" stroke="url(#paint29_linear_4867_101659)" stroke-opacity="0.16" stroke-width="3" stroke-miterlimit="10" stroke-linecap="round" stroke-dasharray="2 6"/>
<path d="M-591.884 1829.62C-439.75 1795.77 -288.91 1754.42 -137.584 1716.71C-41.5892 1690.57 57.6242 1676.78 151.304 1641.91C237.086 1610.26 314.83 1561.05 397.99 1523.52C485.903 1484.09 580.574 1457.82 675.891 1453.83C825.031 1446.9 971.957 1464.6 1119.87 1470.82C1229.23 1475.51 1341.47 1477.86 1449.49 1445.74C1621.73 1397.37 1770.68 1291.47 1938.36 1231.01C2030.16 1198.78 2126.33 1182.6 2220.13 1158.87C2375.45 1122.9 2530.69 1086.78 2685.63 1050.02" stroke="url(#paint30_linear_4867_101659)" stroke-opacity="0.16" stroke-width="3" stroke-miterlimit="10" stroke-linecap="round" stroke-dasharray="2 6"/>
<path d="M-602.645 1850.45C-450.397 1815.96 -298.786 1777.52 -146.931 1740.91C-50.1423 1715.54 49.4707 1700.41 144.096 1666.63C232.016 1635.49 311.445 1585.86 396.385 1547.66C483.692 1508.71 577.379 1482.14 671.827 1477.22C824.377 1468.65 975.109 1485.1 1126.56 1490.38C1236.23 1493.96 1348.54 1496.47 1456.77 1465.21C1631.51 1416.8 1784.38 1312.49 1954.5 1251.44C2049.35 1218.13 2148.62 1201.42 2245.79 1176.84C2401.05 1140.32 2556.39 1103.95 2711.75 1067.19" stroke="url(#paint31_linear_4867_101659)" stroke-opacity="0.16" stroke-width="3" stroke-miterlimit="10" stroke-linecap="round" stroke-dasharray="2 6"/>
<path d="M-612.695 1873.63C-457.263 1837.03 -301.736 1800.19 -146.304 1763.58C-51.9208 1739.77 44.5142 1723.27 136.884 1691.34C225.011 1661.08 305.139 1612.45 389.606 1573.71C478.297 1533.71 572.989 1505.31 669.218 1499.72C828.831 1489.68 986.89 1506.07 1145.38 1510.29C1251.29 1512.59 1359.87 1514.77 1464.37 1484.92C1644.75 1435.14 1803.36 1329.23 1979.5 1267.59C2074.73 1235.07 2174.02 1217.96 2271.36 1193.3C2426.94 1157.01 2582.47 1120.17 2737.9 1083.56" stroke="url(#paint32_linear_4867_101659)" stroke-opacity="0.16" stroke-width="3" stroke-miterlimit="10" stroke-linecap="round" stroke-dasharray="2 6"/>
<defs>
<linearGradient id="paint0_linear_4867_101659" x1="2106.21" y1="779.626" x2="-197.106" y2="1664.89" gradientUnits="userSpaceOnUse">
<stop stop-color="#28A0F0"/>
<stop offset="1" stop-color="#0678C4" stop-opacity="0.9917"/>
</linearGradient>
<linearGradient id="paint1_linear_4867_101659" x1="2117.73" y1="778.709" x2="-209.829" y2="1665.16" gradientUnits="userSpaceOnUse">
<stop stop-color="#28A0F0"/>
<stop offset="1" stop-color="#0678C4" stop-opacity="0.9917"/>
</linearGradient>
<linearGradient id="paint2_linear_4867_101659" x1="2128.77" y1="775.904" x2="-224.246" y2="1661.91" gradientUnits="userSpaceOnUse">
<stop stop-color="#28A0F0"/>
<stop offset="1" stop-color="#0678C4" stop-opacity="0.9917"/>
</linearGradient>
<linearGradient id="paint3_linear_4867_101659" x1="2139.78" y1="772.15" x2="-239.843" y2="1656.11" gradientUnits="userSpaceOnUse">
<stop stop-color="#28A0F0"/>
<stop offset="1" stop-color="#0678C4" stop-opacity="0.9917"/>
</linearGradient>
<linearGradient id="paint4_linear_4867_101659" x1="2150.65" y1="767.689" x2="-256.325" y2="1647.87" gradientUnits="userSpaceOnUse">
<stop stop-color="#28A0F0"/>
<stop offset="1" stop-color="#0678C4" stop-opacity="0.9917"/>
</linearGradient>
<linearGradient id="paint5_linear_4867_101659" x1="2161.69" y1="763.144" x2="-273.318" y2="1637.82" gradientUnits="userSpaceOnUse">
<stop stop-color="#28A0F0"/>
<stop offset="1" stop-color="#0678C4" stop-opacity="0.9917"/>
</linearGradient>
<linearGradient id="paint6_linear_4867_101659" x1="2173.15" y1="758.591" x2="-290.89" y2="1626.09" gradientUnits="userSpaceOnUse">
<stop stop-color="#28A0F0"/>
<stop offset="1" stop-color="#0678C4" stop-opacity="0.9917"/>
</linearGradient>
<linearGradient id="paint7_linear_4867_101659" x1="2185.08" y1="754.584" x2="-307.033" y2="1620.07" gradientUnits="userSpaceOnUse">
<stop stop-color="#28A0F0"/>
<stop offset="1" stop-color="#0678C4" stop-opacity="0.9917"/>
</linearGradient>
<linearGradient id="paint8_linear_4867_101659" x1="2197.46" y1="751.518" x2="-322.638" y2="1615.86" gradientUnits="userSpaceOnUse">
<stop stop-color="#28A0F0"/>
<stop offset="1" stop-color="#0678C4" stop-opacity="0.9917"/>
</linearGradient>
<linearGradient id="paint9_linear_4867_101659" x1="2210.93" y1="750.25" x2="-337.22" y2="1615.57" gradientUnits="userSpaceOnUse">
<stop stop-color="#28A0F0"/>
<stop offset="1" stop-color="#0678C4" stop-opacity="0.9917"/>
</linearGradient>
<linearGradient id="paint10_linear_4867_101659" x1="2225.39" y1="750.626" x2="-350.775" y2="1617.79" gradientUnits="userSpaceOnUse">
<stop stop-color="#28A0F0"/>
<stop offset="1" stop-color="#0678C4" stop-opacity="0.9917"/>
</linearGradient>
<linearGradient id="paint11_linear_4867_101659" x1="2241.08" y1="753.113" x2="-363.342" y2="1622.67" gradientUnits="userSpaceOnUse">
<stop stop-color="#28A0F0"/>
<stop offset="1" stop-color="#0678C4" stop-opacity="0.9917"/>
</linearGradient>
<linearGradient id="paint12_linear_4867_101659" x1="2257.79" y1="758.584" x2="-374.197" y2="1631.93" gradientUnits="userSpaceOnUse">
<stop stop-color="#28A0F0"/>
<stop offset="1" stop-color="#0678C4" stop-opacity="0.9917"/>
</linearGradient>
<linearGradient id="paint13_linear_4867_101659" x1="2276.27" y1="766.875" x2="-383.686" y2="1644.83" gradientUnits="userSpaceOnUse">
<stop stop-color="#28A0F0"/>
<stop offset="1" stop-color="#0678C4" stop-opacity="0.9917"/>
</linearGradient>
<linearGradient id="paint14_linear_4867_101659" x1="2296.41" y1="778.611" x2="-391.264" y2="1663.43" gradientUnits="userSpaceOnUse">
<stop stop-color="#28A0F0"/>
<stop offset="1" stop-color="#0678C4" stop-opacity="0.9917"/>
</linearGradient>
<linearGradient id="paint15_linear_4867_101659" x1="2317.7" y1="792.304" x2="-397.594" y2="1685.55" gradientUnits="userSpaceOnUse">
<stop stop-color="#28A0F0"/>
<stop offset="1" stop-color="#0678C4" stop-opacity="0.9917"/>
</linearGradient>
<linearGradient id="paint16_linear_4867_101659" x1="2339.96" y1="806.689" x2="-403.544" y2="1709.31" gradientUnits="userSpaceOnUse">
<stop stop-color="#28A0F0"/>
<stop offset="1" stop-color="#0678C4" stop-opacity="0.9917"/>
</linearGradient>
<linearGradient id="paint17_linear_4867_101659" x1="2362.33" y1="822.182" x2="-408.93" y2="1734.54" gradientUnits="userSpaceOnUse">
<stop stop-color="#28A0F0"/>
<stop offset="1" stop-color="#0678C4" stop-opacity="0.9917"/>
</linearGradient>
<linearGradient id="paint18_linear_4867_101659" x1="2385.4" y1="838.686" x2="-413.677" y2="1763.52" gradientUnits="userSpaceOnUse">
<stop stop-color="#28A0F0"/>
<stop offset="1" stop-color="#0678C4" stop-opacity="0.9917"/>
</linearGradient>
<linearGradient id="paint19_linear_4867_101659" x1="2409.36" y1="855.731" x2="-418.129" y2="1793.92" gradientUnits="userSpaceOnUse">
<stop stop-color="#28A0F0"/>
<stop offset="1" stop-color="#0678C4" stop-opacity="0.9917"/>
</linearGradient>
<linearGradient id="paint20_linear_4867_101659" x1="2433.89" y1="873.081" x2="-422.479" y2="1825.19" gradientUnits="userSpaceOnUse">
<stop stop-color="#28A0F0"/>
<stop offset="1" stop-color="#0678C4" stop-opacity="0.9917"/>
</linearGradient>
<linearGradient id="paint21_linear_4867_101659" x1="2458.96" y1="891.133" x2="-425.516" y2="1863.77" gradientUnits="userSpaceOnUse">
<stop stop-color="#28A0F0"/>
<stop offset="1" stop-color="#0678C4" stop-opacity="0.9917"/>
</linearGradient>
<linearGradient id="paint22_linear_4867_101659" x1="2484.51" y1="909.731" x2="-427.943" y2="1905.91" gradientUnits="userSpaceOnUse">
<stop stop-color="#28A0F0"/>
<stop offset="1" stop-color="#0678C4" stop-opacity="0.9917"/>
</linearGradient>
<linearGradient id="paint23_linear_4867_101659" x1="2510.69" y1="928.79" x2="-430.721" y2="1947.93" gradientUnits="userSpaceOnUse">
<stop stop-color="#28A0F0"/>
<stop offset="1" stop-color="#0678C4" stop-opacity="0.9917"/>
</linearGradient>
<linearGradient id="paint24_linear_4867_101659" x1="2537.72" y1="947.834" x2="-433.697" y2="1989.27" gradientUnits="userSpaceOnUse">
<stop stop-color="#28A0F0"/>
<stop offset="1" stop-color="#0678C4" stop-opacity="0.9917"/>
</linearGradient>
<linearGradient id="paint25_linear_4867_101659" x1="2561.42" y1="964.806" x2="-436.622" y2="2025" gradientUnits="userSpaceOnUse">
<stop stop-color="#28A0F0"/>
<stop offset="1" stop-color="#0678C4" stop-opacity="0.9917"/>
</linearGradient>
<linearGradient id="paint26_linear_4867_101659" x1="2585.48" y1="981.61" x2="-440.304" y2="2059.84" gradientUnits="userSpaceOnUse">
<stop stop-color="#28A0F0"/>
<stop offset="1" stop-color="#0678C4" stop-opacity="0.9917"/>
</linearGradient>
<linearGradient id="paint27_linear_4867_101659" x1="2610.01" y1="998.959" x2="-444.013" y2="2094.64" gradientUnits="userSpaceOnUse">
<stop stop-color="#28A0F0"/>
<stop offset="1" stop-color="#0678C4" stop-opacity="0.9917"/>
</linearGradient>
<linearGradient id="paint28_linear_4867_101659" x1="2634.63" y1="1016.07" x2="-448.593" y2="2128.37" gradientUnits="userSpaceOnUse">
<stop stop-color="#28A0F0"/>
<stop offset="1" stop-color="#0678C4" stop-opacity="0.9917"/>
</linearGradient>
<linearGradient id="paint29_linear_4867_101659" x1="2660.01" y1="1033.01" x2="-453.755" y2="2161.23" gradientUnits="userSpaceOnUse">
<stop stop-color="#28A0F0"/>
<stop offset="1" stop-color="#0678C4" stop-opacity="0.9917"/>
</linearGradient>
<linearGradient id="paint30_linear_4867_101659" x1="2685.63" y1="1050.02" x2="-459.655" y2="2193.38" gradientUnits="userSpaceOnUse">
<stop stop-color="#28A0F0"/>
<stop offset="1" stop-color="#0678C4" stop-opacity="0.9917"/>
</linearGradient>
<linearGradient id="paint31_linear_4867_101659" x1="2711.75" y1="1067.19" x2="-466.23" y2="2224.91" gradientUnits="userSpaceOnUse">
<stop stop-color="#28A0F0"/>
<stop offset="1" stop-color="#0678C4" stop-opacity="0.9917"/>
</linearGradient>
<linearGradient id="paint32_linear_4867_101659" x1="2737.9" y1="1083.56" x2="-473.869" y2="2254.44" gradientUnits="userSpaceOnUse">
<stop stop-color="#28A0F0"/>
<stop offset="1" stop-color="#0678C4" stop-opacity="0.9917"/>
</linearGradient>
</defs>
</svg>
