<svg width="298" height="80" viewBox="0 0 298 80" fill="none" xmlns="http://www.w3.org/2000/svg">
<g clip-path="url(#clip0_1281_148279)">
<path d="M148.333 24.3334H155V51.0001H161.667V17.6667H155C151.333 17.6667 148.333 20.6667 148.333 24.3334Z" fill="#333333" fill-opacity="0.7"/>
<path d="M168.333 51.0001H175V37.6668C175 34.0001 172 31.0001 168.333 31.0001V51.0001Z" fill="#333333" fill-opacity="0.7"/>
<path d="M181.667 31.0001V51.0001H188.333V37.6668H195V44.3335C195 48.0001 198 51.0001 201.667 51.0001V37.6668C201.667 34.0001 198.667 31.0001 195 31.0001H181.667Z" fill="#333333" fill-opacity="0.7"/>
<path d="M241.667 31.0001H235V24.3334C235 20.6667 232 17.6667 228.333 17.6667V44.3334H215V37.6667H221.667V31.0001H215C211.333 31.0001 208.333 34.0001 208.333 37.6667V44.3334C208.333 48.0001 211.333 51.0001 215 51.0001H235V37.6667H241.667V44.3334C241.667 48.0001 244.667 51.0001 248.333 51.0001V37.6667C248.333 34.0001 245.333 31.0001 241.667 31.0001Z" fill="#333333" fill-opacity="0.7"/>
<path d="M168.333 24.3334H175C175 20.6667 172 17.6667 168.333 17.6667V24.3334Z" fill="#333333" fill-opacity="0.7"/>
<path fill-rule="evenodd" clip-rule="evenodd" d="M158.727 57.6667V62.0296H158.116L155.717 59.0067V62.0296H155V57.6667H155.611L158.01 60.7021V57.6667H158.727ZM172.288 62.0296H169.702V57.6667H172.226V58.3836H170.468V59.4679H172.039V60.1847H170.468V61.3129H172.288V62.0296ZM183.263 58.3836H184.678V62.0296H185.444V58.3836H186.859V57.6667H183.263V58.3836ZM203.175 57.6667H203.91L202.664 62.0296H201.947L200.894 58.8759L199.859 62.0296H199.136L197.833 57.6667H198.694L199.572 60.7769L200.545 57.6667H201.305L202.302 60.7831L203.175 57.6667ZM215.521 58.3149C215.097 58.7471 214.885 59.2811 214.885 59.9167C214.885 60.5857 215.099 61.1279 215.527 61.5434C215.955 61.9589 216.497 62.1667 217.154 62.1667C217.806 62.1667 218.348 61.9549 218.78 61.5311C219.212 61.1072 219.429 60.5691 219.429 59.9167C219.429 59.2519 219.212 58.7097 218.78 58.2901C218.352 57.8746 217.81 57.6667 217.154 57.6667C216.497 57.6667 215.953 57.8827 215.521 58.3149ZM216.113 61.0137C215.834 60.7229 215.695 60.3572 215.695 59.9167C215.695 59.4679 215.832 59.1003 216.106 58.8136C216.385 58.5269 216.734 58.3836 217.154 58.3836C217.565 58.3836 217.912 58.5269 218.194 58.8136C218.477 59.1044 218.618 59.4721 218.618 59.9167C218.618 60.3572 218.485 60.7229 218.219 61.0137C217.958 61.3046 217.602 61.4499 217.154 61.4499C216.738 61.4499 216.391 61.3046 216.113 61.0137ZM231.17 60.4091V62.0421H230.403V57.6793C230.619 57.6793 230.854 57.6771 231.107 57.6729C231.361 57.6687 231.569 57.6667 231.731 57.6667C232.786 57.6667 233.314 58.1156 233.314 59.0131C233.314 59.3454 233.229 59.6196 233.058 59.8357C232.888 60.0434 232.693 60.1847 232.472 60.2596L233.837 62.0421H232.909L231.706 60.4091H231.17ZM231.693 58.3836C231.672 58.3836 231.639 58.3856 231.593 58.3898C231.548 58.3898 231.483 58.3917 231.4 58.3959H231.17V59.6924H231.668C231.913 59.6924 232.113 59.6321 232.267 59.5116C232.425 59.3911 232.503 59.2269 232.503 59.0192C232.503 58.5954 232.233 58.3836 231.693 58.3836ZM244.812 62.0296H245.578V59.7796L247.362 62.0296H248.333L246.427 59.6986L248.222 57.6667H247.298L245.578 59.7361V57.6667H244.812V62.0296Z" fill="#333333" fill-opacity="0.7"/>
<path d="M87.4081 43.1913L89.1581 30.0117L73.955 19.457L87.8456 24.1602L91.1268 19.1289L103.103 11.6914L129.517 26.2383L130.885 48.4413L119.127 64.793L109.83 66.2148L114.642 57.4101V48.9337L111.142 42.3163L107.588 39.9648L102.119 45.5977V51.5587L97.8535 55.5508L92.4393 56.207L90.0331 57.5742L86.0956 56.3163L84.455 50.4101L87.4081 46.2538V43.1913Z" fill="white"/>
<path d="M111.689 19.3476C108.791 18.746 105.619 18.9101 105.619 18.9101C105.619 18.9101 104.58 23.7226 98.1268 24.9805C98.1817 24.9805 106.658 27.8788 111.689 19.3476Z" fill="#333333" fill-opacity="0.3"/>
<path d="M114.314 62.9883C117.814 60.254 120.439 56.4805 121.643 52.2148C121.697 52.0508 122.189 51.7773 122.518 51.5587C123.064 51.2305 123.611 50.957 123.721 50.5195C123.939 49.2617 124.049 47.9492 124.049 46.6367C124.049 46.1445 123.557 45.6523 123.064 45.1602C122.682 44.832 122.299 44.4492 122.299 44.1758C121.752 39.1992 119.455 34.5508 115.791 31.1602L115.408 31.543C118.963 34.879 121.26 39.418 121.752 44.2305C121.807 44.668 122.244 45.1055 122.682 45.543C123.064 45.8712 123.502 46.3633 123.502 46.582C123.502 47.8398 123.393 49.0977 123.174 50.3555C123.119 50.5742 122.627 50.793 122.244 51.0117C121.697 51.2852 121.205 51.5587 121.096 51.9962C119.783 56.6445 116.775 60.6915 112.783 63.3165C113.494 61.7852 115.736 56.8087 116.939 54.293L116.721 46.1992L109.775 39.4727L105.838 40.0195L101.518 47.0195C101.518 47.0195 103.541 49.5898 100.697 52.5977C97.9082 55.5508 95.7207 56.207 95.7207 56.207L93.6972 55.1133C94.2987 54.3477 95.5019 53.1992 96.4315 52.4337C98.0175 51.1212 99.6035 51.0117 99.6035 49.5898C99.6582 46.6367 96.4862 47.457 96.4862 47.457L95.3378 48.5508L94.8457 52.5977L92.4394 55.6055L92.166 55.5508L88.2285 54.6758C88.2285 54.6758 90.6347 53.418 91.0175 51.9962C91.4004 50.629 90.2518 46.0898 90.1972 45.8165C90.2518 45.8712 91.3457 46.8008 91.8378 48.332C92.7128 45.9258 93.8612 43.629 94.1894 43.4102C94.5175 43.1915 98.9472 40.8398 98.9472 40.8398L97.4707 44.7227L98.5644 44.1212L101.189 37.668C101.189 37.668 103.76 36.4102 105.674 36.4102C109.119 36.3555 114.205 32.1445 111.908 24.5977C112.564 24.8712 123.939 30.5587 125.908 41.7148C127.385 50.3008 122.518 58.3398 114.314 62.9883Z" fill="#333333" fill-opacity="0.3"/>
<path d="M101.299 20.5508C102.557 19.0742 102.064 16.8867 102.064 16.8867L98.4004 22.3008C98.3457 22.3008 99.7129 22.3555 101.299 20.5508Z" fill="#333333" fill-opacity="0.7"/>
<path d="M88.994 50.1368L89.4315 47.9493C89.4315 47.9493 87.6269 51.1212 87.4629 51.5587C87.2989 52.051 87.5722 52.926 88.2832 52.8712C88.994 52.8165 89.869 51.7775 89.869 51.0118C89.869 50.0275 88.994 50.1368 88.994 50.1368Z" fill="#333333" fill-opacity="0.7"/>
<path d="M121.478 15.3555C121.478 15.3555 124.213 15.4648 127.056 15.793C120.658 10.7617 114.588 9.28516 109.666 9.28516C102.885 9.28516 98.291 12.0742 98.0175 12.2383L100.15 8.84766C100.15 8.84766 91.619 8.02735 88.6112 17.0508C87.8457 15.1367 87.1347 12.3477 87.1347 12.3477C87.1347 12.3477 82.705 16.2305 84.7831 22.6836C79.6972 20.8242 72.4237 18.2539 72.1503 18.1992C71.7675 18.1445 71.6581 18.3086 71.6581 18.3086C71.6581 18.3086 71.5487 18.4727 71.8769 18.7461C72.4784 19.2383 83.9628 27.7149 86.4784 29.3554C85.9316 31.3242 85.9316 32.2539 86.4784 33.1836C87.244 34.4414 87.2987 35.0976 87.1893 36.0274C87.08 36.9571 86.0956 44.9961 85.8769 45.9804C85.6581 46.9649 83.3612 50.4649 83.4706 51.5039C83.58 52.5429 85.0019 56.9726 86.2597 57.4649C87.1893 57.7929 89.4863 58.5039 91.0175 58.5039C91.5643 58.5039 92.0565 58.3946 92.2753 58.1757C93.205 57.3554 93.4785 57.1914 94.1347 57.1914C94.1893 57.1914 94.244 57.1914 94.2988 57.1914C94.5722 57.1914 94.9003 57.2461 95.2832 57.2461C96.1582 57.2461 97.3065 57.0821 98.1268 56.3164C99.33 55.1132 101.408 53.4726 102.064 52.7071C102.885 51.6679 103.322 50.2461 103.103 48.8242C102.939 47.5117 103.65 46.3632 104.471 45.2149C105.51 43.8476 107.424 41.3867 107.424 41.3867C111.197 44.2304 113.549 48.5507 113.549 53.3632C113.549 61.8946 106.111 68.7851 96.9238 68.7851C95.5018 68.7851 94.1347 68.6211 92.7675 68.2929C96.9785 69.7696 100.533 70.2617 103.431 70.2617C109.611 70.2617 112.892 68.0196 112.892 68.0196C112.892 68.0196 111.744 69.4961 109.885 71.1914C109.939 71.1914 109.939 71.1914 109.939 71.1914C120.166 69.7696 125.142 61.3476 125.142 61.3476C125.142 61.3476 124.76 64.0821 124.267 65.9414C137.885 55.7149 135.588 42.9179 135.533 42.4804C135.642 42.6446 137.01 44.2851 137.721 45.1601C139.908 22.6289 121.478 15.3555 121.478 15.3555ZM100.533 51.3399C100.314 51.6132 99.3847 52.4336 98.7285 53.0351C98.0722 53.6367 97.3613 54.2382 96.8143 54.7851C96.5957 55.0039 96.1582 55.1132 95.5018 55.1132C95.2832 55.1132 95.0643 55.1132 94.9003 55.1132C94.791 55.1132 94.6815 55.1132 94.5722 55.1132C94.4628 55.1132 94.4082 55.1132 94.3535 55.1132C94.1893 55.1132 94.0253 55.1132 93.8612 55.1132C94.6815 54.0196 97.0878 51.5039 97.9082 50.9571C98.8925 50.3007 99.3847 49.6446 98.7832 48.4961C98.1815 47.3476 96.5957 47.6211 96.5957 47.6211C96.5957 47.6211 97.5253 47.2382 98.3457 47.2382C97.3065 46.9649 95.994 47.2382 95.3925 47.8399C94.7363 48.4414 94.8457 50.5742 94.5722 51.9414C94.2988 53.3632 93.369 54.0742 91.9472 55.3867C91.1815 56.0976 90.6347 56.3164 90.1972 56.3164C89.2675 56.1524 88.1737 55.8789 87.4082 55.6054C86.8612 54.8946 86.0409 52.5429 85.8222 51.5586C85.9862 51.0117 86.6425 49.8632 86.9707 49.2071C87.6268 47.9492 88.0097 47.2382 88.119 46.5821C88.3378 45.6524 89.0488 39.9101 89.3222 37.5039C90.0332 38.4336 91.0175 39.9649 90.7988 40.9492C92.3847 38.7071 91.2363 36.5196 90.6893 35.6446C90.1972 34.7696 89.541 33.0196 90.0878 31.1601C90.6347 29.3007 92.6035 24.1601 92.6035 24.1601C92.6035 24.1601 93.2597 25.3086 94.1893 25.0899C95.119 24.8711 102.611 13.6055 102.611 13.6055C102.611 13.6055 104.635 18.0352 102.502 21.2617C100.314 24.4882 98.1815 25.0899 98.1815 25.0899C98.1815 25.0899 101.189 25.6367 103.978 23.6132C105.127 26.2929 106.221 29.0821 106.275 29.4649C106.111 29.8476 103.924 35.0976 103.705 35.4257C103.596 35.5351 102.83 35.7539 102.283 35.8632C101.353 36.1367 100.806 36.3007 100.588 36.4649C100.205 36.7929 98.455 41.6054 97.6347 43.9571C96.6503 44.2304 95.666 44.7774 94.955 45.8711C95.3378 45.5976 96.541 45.4336 97.416 45.3242C98.1815 45.2696 100.533 46.5274 101.135 48.8789C101.135 48.9336 101.135 48.9336 101.135 48.9882C101.244 49.8632 100.971 50.6836 100.533 51.3399ZM95.3925 51.9961C95.8847 51.2851 95.83 50.0821 95.8847 49.6992C95.9393 49.3164 96.0488 48.6054 96.4863 48.4961C96.9238 48.3867 97.9628 48.5507 97.9628 49.3164C97.9628 50.0274 97.1972 50.1914 96.6503 50.6836C96.2675 51.0664 95.5018 51.8867 95.3925 51.9961ZM117.213 41.5507C117.76 38.7617 117.814 36.3554 117.65 34.3867C119.783 37.2304 121.096 40.6757 121.478 44.2304C121.533 44.6679 121.971 45.1054 122.408 45.5429C122.791 45.8711 123.228 46.3086 123.228 46.5821C123.228 47.8399 123.119 49.0976 122.9 50.3554C122.846 50.5196 122.353 50.7929 121.971 51.0117C121.424 51.2851 120.931 51.5586 120.822 51.9961C119.619 56.2071 117.049 59.9257 113.603 62.5507C118.689 57.2461 121.15 48.4961 117.213 41.5507ZM113.767 63.0429C117.322 60.3086 120.056 56.4804 121.26 52.1601C121.314 51.9961 121.806 51.7226 122.135 51.5039C122.681 51.2304 123.228 50.9024 123.338 50.4649C123.556 49.2071 123.666 47.8946 123.666 46.5821C123.666 46.0899 123.174 45.5976 122.681 45.1054C122.408 44.7774 121.971 44.3946 121.971 44.1211C121.533 40.1289 119.947 36.3554 117.486 33.2382C116.392 26.6757 112.017 24.6524 111.908 24.5976C112.017 24.7617 114.861 28.8632 112.892 33.6757C110.869 38.5429 105.674 37.7774 105.236 37.8321C104.799 37.8321 103.103 40.0196 100.971 44.0664C100.697 43.9571 99.5487 43.6836 98.2362 43.9024C99.2207 41.1679 100.697 37.2851 100.971 36.9571C101.08 36.8476 101.9 36.6289 102.447 36.4649C103.486 36.1914 103.978 36.0274 104.142 35.8086C104.252 35.6446 104.799 34.3867 105.346 33.0742C105.838 33.0742 107.096 32.9649 107.205 32.9101C107.314 32.8007 108.353 30.1211 108.353 29.7929C108.353 29.5196 106.221 24.2149 105.4 22.1914C105.783 21.7539 106.166 21.207 106.549 20.6055C117.76 21.8086 126.51 31.3242 126.51 42.8632C126.51 51.7226 121.314 59.4336 113.767 63.0429Z" fill="#333333" fill-opacity="0.7"/>
<path d="M99.2207 33.5118C100.26 32.3086 99.7129 30.0664 97.7989 29.6836C98.291 28.5351 99.0019 26.2383 99.0019 26.2383C99.0019 26.2383 93.4239 34.9883 92.9315 35.1523C92.4394 35.3165 91.9472 33.4023 91.9472 33.4023C90.9082 37.3946 93.6972 37.9415 94.0254 36.6836C95.5565 36.3008 98.1815 34.6601 99.2207 33.5118Z" fill="#333333" fill-opacity="0.7"/>
<path d="M94.4629 35.6446L97.3066 30.7775C97.3066 30.7775 98.9472 31.5978 98.1269 32.9103C97.0879 34.4415 94.4629 35.6446 94.4629 35.6446Z" fill="#F5F5F5"/>
<path d="M129.627 58.1758C128.807 59.2696 127.877 60.418 126.783 61.5118C133.838 47.9493 127.111 35.5353 126.838 35.043C127.33 35.5353 127.822 36.0821 128.26 36.5743C133.674 42.59 134.33 51.6133 129.627 58.1758Z" fill="#F5F5F5"/>
<path d="M136.189 40.7304C133.729 34.1132 130.229 28.4804 122.518 23.3946C115.08 18.4727 107.096 18.8555 106.658 18.9102C106.603 18.9102 106.549 18.9102 106.549 18.9102C106.822 18.8008 107.096 18.7461 107.369 18.6914C109.064 18.1445 111.252 17.707 113.439 17.4336C119.236 16.6133 125.088 18.582 129.08 22.7929C129.135 22.8476 129.135 22.8476 129.189 22.9024C133.729 27.7149 136.08 33.7304 136.189 40.7304Z" fill="#F5F5F5"/>
<path d="M120.767 13.6603C112.619 12.129 107.369 12.8946 103.596 14.3165C103.486 13.879 103.103 13.004 102.775 12.2931C101.627 13.6603 100.424 15.3009 99.6581 16.34C97.58 17.7618 96.705 19.129 96.705 19.129C97.9081 15.0275 101.408 11.965 105.674 11.1993C106.877 10.9806 108.189 10.8712 109.611 10.8712C113.385 10.9259 117.158 11.8556 120.767 13.6603Z" fill="#F5F5F5"/>
<path d="M90.6346 24.1604C84.2362 23.9417 86.369 16.5042 86.4784 16.0667C86.4784 16.1213 86.916 21.9182 90.6346 24.1604Z" fill="#F5F5F5"/>
<path d="M96.9239 10.7618C92.0019 13.715 92.9864 20.7697 92.9864 20.7697C88.2832 13.6056 96.541 10.9259 96.9239 10.7618Z" fill="#F5F5F5"/>
<path d="M88.8301 26.1289C89.1582 26.4024 89.4864 26.8946 89.1036 27.6054C88.8847 27.9883 88.5567 27.9336 88.0644 27.7149C87.4082 27.3868 83.4707 25.0899 79.916 22.7383C83.9629 24.1601 88.0644 25.6914 88.7207 26.0196C88.7207 26.0196 88.7754 26.0743 88.8301 26.1289Z" fill="white"/>
</g>
<defs>
<clipPath id="clip0_1281_148279">
<rect width="178.333" height="70" fill="white" transform="translate(70 5.00012)"/>
</clipPath>
</defs>
</svg>
