<svg width="205" height="80" viewBox="0 0 205 80" fill="none" xmlns="http://www.w3.org/2000/svg">
<g clip-path="url(#clip0_685_144875)">
<path d="M89.8829 22.0952H97.502V52.5714H105.121V14.4762H97.502C93.3115 14.4762 89.8829 17.9048 89.8829 22.0952Z" fill="#333333" fill-opacity="0.7"/>
<path d="M112.74 52.5714H120.359V37.3333C120.359 33.1428 116.931 29.7142 112.74 29.7142V52.5714Z" fill="#333333" fill-opacity="0.7"/>
<path d="M127.978 29.7142V52.5714H135.597V37.3333H143.216V44.9523C143.216 49.1428 146.645 52.5714 150.835 52.5714V37.3333C150.835 33.1428 147.407 29.7142 143.216 29.7142H127.978Z" fill="#333333" fill-opacity="0.7"/>
<path d="M196.55 29.7143H188.931V22.0952C188.931 17.9048 185.502 14.4762 181.311 14.4762V44.9524H166.073V37.3333H173.692V29.7143H166.073C161.883 29.7143 158.454 33.1429 158.454 37.3333V44.9524C158.454 49.1429 161.883 52.5714 166.073 52.5714H188.931V37.3333H196.55V44.9524C196.55 49.1429 199.978 52.5714 204.169 52.5714V37.3333C204.169 33.1429 200.74 29.7143 196.55 29.7143Z" fill="#333333" fill-opacity="0.7"/>
<path d="M112.74 22.0952H120.359C120.359 17.9048 116.931 14.4762 112.74 14.4762V22.0952Z" fill="#333333" fill-opacity="0.7"/>
<path fill-rule="evenodd" clip-rule="evenodd" d="M101.762 60.1904V65.1765H101.063L98.3212 61.7219V65.1765H97.502V60.1904H98.2L100.942 63.6594V60.1904H101.762ZM117.26 65.1765H114.304V60.1904H117.189V61.0097H115.18V62.2489H116.975V63.0681H115.18V64.3575H117.26V65.1765ZM129.802 61.0097H131.419V65.1765H132.295V61.0097H133.912V60.1904H129.802V61.0097ZM152.559 60.1904H153.4L151.975 65.1765H151.156L149.952 61.5723L148.77 65.1765H147.943L146.455 60.1904H147.438L148.442 63.7449L149.553 60.1904H150.422L151.562 63.752L152.559 60.1904ZM166.668 60.9312C166.184 61.4251 165.942 62.0354 165.942 62.7619C165.942 63.5264 166.187 64.1461 166.676 64.6209C167.165 65.0958 167.784 65.3333 168.535 65.3333C169.28 65.3333 169.9 65.0912 170.394 64.6068C170.888 64.1224 171.135 63.5074 171.135 62.7619C171.135 62.002 170.888 61.3824 170.394 60.9028C169.905 60.428 169.285 60.1904 168.535 60.1904C167.784 60.1904 167.162 60.4373 166.668 60.9312ZM167.345 64.0156C167.027 63.6832 166.868 63.2653 166.868 62.7619C166.868 62.2489 167.025 61.8287 167.338 61.5011C167.656 61.1735 168.055 61.0097 168.535 61.0097C169.005 61.0097 169.401 61.1735 169.724 61.5011C170.047 61.8335 170.209 62.2537 170.209 62.7619C170.209 63.2653 170.057 63.6832 169.753 64.0156C169.454 64.348 169.048 64.5141 168.535 64.5141C168.06 64.5141 167.663 64.348 167.345 64.0156ZM184.553 63.3245V65.1908H183.677V60.2047C183.924 60.2047 184.192 60.2022 184.482 60.1975C184.771 60.1927 185.009 60.1904 185.194 60.1904C186.4 60.1904 187.003 60.7034 187.003 61.7291C187.003 62.1089 186.906 62.4222 186.711 62.6693C186.517 62.9066 186.294 63.0681 186.042 63.1537L187.602 65.1908H186.54L185.166 63.3245H184.553ZM185.151 61.0097C185.128 61.0097 185.09 61.012 185.037 61.0167C184.985 61.0167 184.912 61.019 184.817 61.0238H184.553V62.5055H185.123C185.403 62.5055 185.631 62.4365 185.807 62.2988C185.987 62.1611 186.077 61.9735 186.077 61.7361C186.077 61.2518 185.769 61.0097 185.151 61.0097ZM200.144 65.1765H201.02V62.6051L203.058 65.1765H204.169L201.99 62.5125L204.041 60.1904H202.986L201.02 62.5554V60.1904H200.144V65.1765Z" fill="#333333" fill-opacity="0.7"/>
<path d="M20.2542 43.647L22.2542 28.5845L4.87915 16.5221L20.7542 21.8971L24.5041 16.1471L38.1917 7.64709L68.3791 24.2721L69.9416 49.647L56.5041 68.3346L45.8791 69.9596L51.3791 59.8971V50.2097L47.3791 42.647L43.3167 39.9596L37.0666 46.3971V53.2097L32.1917 57.7721L26.0041 58.522L23.2542 60.0845L18.7541 58.647L16.8791 51.8971L20.2542 47.147V43.647Z" fill="white"/>
<path d="M48.004 16.3971C44.6916 15.7096 41.0667 15.8971 41.0667 15.8971C41.0667 15.8971 39.8791 21.3972 32.504 22.8347C32.5667 22.8347 42.2541 26.1471 48.004 16.3971Z" fill="#333333" fill-opacity="0.3"/>
<path d="M51.004 66.2721C55.004 63.1472 58.004 58.8346 59.3791 53.9596C59.4416 53.7721 60.004 53.4596 60.3791 53.2097C61.004 52.8346 61.629 52.522 61.7541 52.022C62.004 50.5845 62.129 49.0845 62.129 47.5845C62.129 47.022 61.5665 46.4596 61.004 45.8971C60.5665 45.522 60.129 45.0845 60.129 44.7721C59.504 39.0845 56.8791 33.7721 52.6917 29.8971L52.2541 30.3346C56.3166 34.1472 58.9416 39.3346 59.504 44.8346C59.5665 45.3346 60.0665 45.8346 60.5665 46.3346C61.004 46.7097 61.504 47.2721 61.504 47.522C61.504 48.9596 61.3791 50.3971 61.129 51.8346C61.0665 52.0845 60.504 52.3346 60.0665 52.5845C59.4416 52.8971 58.8791 53.2097 58.7541 53.7097C57.2541 59.022 53.8166 63.6472 49.2541 66.6472C50.0665 64.8971 52.629 59.2097 54.004 56.3346L53.7541 47.0845L45.8166 39.3971L41.3166 40.022L36.3791 48.022C36.3791 48.022 38.6917 50.9596 35.4416 54.3971C32.2541 57.7721 29.7541 58.522 29.7541 58.522L27.4416 57.2721C28.129 56.3971 29.504 55.0845 30.5665 54.2097C32.3791 52.7097 34.1917 52.5845 34.1917 50.9596C34.2541 47.5845 30.629 48.522 30.629 48.522L29.3166 49.7721L28.7541 54.3971L26.004 57.8346L25.6917 57.7721L21.1917 56.7721C21.1917 56.7721 23.9416 55.3346 24.3791 53.7097C24.8166 52.1472 23.504 46.9596 23.4416 46.6472C23.504 46.7097 24.7541 47.7721 25.3166 49.522C26.3166 46.7721 27.629 44.1472 28.004 43.8971C28.3791 43.6472 33.4416 40.9596 33.4416 40.9596L31.7541 45.3971L33.004 44.7097L36.004 37.3346C36.004 37.3346 38.9416 35.8971 41.129 35.8971C45.0665 35.8346 50.8791 31.022 48.2541 22.3971C49.004 22.7097 62.004 29.2097 64.2541 41.9596C65.9416 51.7721 60.3791 60.9596 51.004 66.2721Z" fill="#333333" fill-opacity="0.3"/>
<path d="M36.1292 17.7722C37.5667 16.0847 37.0041 13.5847 37.0041 13.5847L32.8166 19.7722C32.7542 19.7722 34.3166 19.8347 36.1292 17.7722Z" fill="#333333" fill-opacity="0.7"/>
<path d="M22.0665 51.5847L22.5665 49.0847C22.5665 49.0847 20.5041 52.7097 20.3166 53.2097C20.1292 53.7723 20.4416 54.7723 21.2542 54.7097C22.0665 54.6472 23.0665 53.4598 23.0665 52.5847C23.0665 51.4598 22.0665 51.5847 22.0665 51.5847Z" fill="#333333" fill-opacity="0.7"/>
<path d="M59.1917 11.8347C59.1917 11.8347 62.3166 11.9597 65.5665 12.3347C58.2542 6.58469 51.3166 4.89719 45.6917 4.89719C37.9416 4.89719 32.6917 8.08469 32.3791 8.27218L34.8166 4.39719C34.8166 4.39719 25.0666 3.45969 21.629 13.7722C20.7542 11.5847 19.9416 8.39719 19.9416 8.39719C19.9416 8.39719 14.8791 12.8347 17.2541 20.2097C11.4416 18.0847 3.12913 15.1472 2.81664 15.0847C2.37913 15.0222 2.25413 15.2097 2.25413 15.2097C2.25413 15.2097 2.12913 15.3972 2.50414 15.7097C3.19163 16.2722 16.3166 25.9598 19.1916 27.8346C18.5666 30.0847 18.5666 31.1472 19.1916 32.2097C20.0666 33.6472 20.129 34.3971 20.0041 35.4598C19.8791 36.5222 18.7541 45.7097 18.5041 46.8346C18.2541 47.9598 15.6291 51.9598 15.7541 53.1472C15.8791 54.3346 17.5041 59.3971 18.9416 59.9598C20.0041 60.3346 22.6292 61.1472 24.3791 61.1472C25.0041 61.1472 25.5666 61.0222 25.8166 60.7721C26.8791 59.8346 27.1917 59.6472 27.9416 59.6472C28.0041 59.6472 28.0666 59.6472 28.1292 59.6472C28.4416 59.6472 28.8167 59.7097 29.2542 59.7097C30.2542 59.7097 31.5666 59.5222 32.5041 58.6472C33.8791 57.2721 36.2542 55.3971 37.0041 54.5222C37.9416 53.3346 38.4416 51.7097 38.1917 50.0847C38.0041 48.5847 38.8166 47.2721 39.7542 45.9598C40.9416 44.3971 43.129 41.5847 43.129 41.5847C47.4416 44.8346 50.129 49.7721 50.129 55.2721C50.129 65.0222 41.6292 72.8971 31.1292 72.8971C29.5041 72.8971 27.9416 72.7096 26.3791 72.3346C31.1917 74.0222 35.2542 74.5847 38.5666 74.5847C45.629 74.5847 49.3791 72.0222 49.3791 72.0222C49.3791 72.0222 48.0665 73.7097 45.9416 75.6472C46.0041 75.6472 46.0041 75.6472 46.0041 75.6472C57.6917 74.0222 63.3791 64.3971 63.3791 64.3971C63.3791 64.3971 62.9416 67.5222 62.3791 69.6472C77.9416 57.9598 75.3166 43.3346 75.2542 42.8346C75.3791 43.0222 76.9416 44.8971 77.7542 45.8971C80.2542 20.1472 59.1917 11.8347 59.1917 11.8347ZM35.2542 52.9598C35.0041 53.2721 33.9416 54.2097 33.1917 54.8971C32.4416 55.5847 31.6292 56.2721 31.0041 56.8971C30.7542 57.1472 30.2542 57.2721 29.5041 57.2721C29.2542 57.2721 29.0041 57.2721 28.8166 57.2721C28.6917 57.2721 28.5666 57.2721 28.4416 57.2721C28.3166 57.2721 28.2542 57.2721 28.1917 57.2721C28.0041 57.2721 27.8167 57.2721 27.629 57.2721C28.5666 56.0222 31.3167 53.1472 32.2542 52.5222C33.3791 51.7721 33.9416 51.0222 33.2542 49.7097C32.5666 48.3971 30.7542 48.7097 30.7542 48.7097C30.7542 48.7097 31.8167 48.2721 32.7542 48.2721C31.5666 47.9598 30.0666 48.2721 29.3791 48.9598C28.6292 49.6472 28.7542 52.0847 28.4416 53.6472C28.1292 55.2721 27.0666 56.0847 25.4416 57.5847C24.5666 58.3971 23.9416 58.6472 23.4416 58.6472C22.3791 58.4598 21.129 58.1472 20.2542 57.8346C19.629 57.0222 18.6916 54.3346 18.4416 53.2097C18.6291 52.5847 19.3791 51.2721 19.7542 50.5222C20.5041 49.0847 20.9416 48.2721 21.0666 47.5222C21.3167 46.4598 22.1292 39.8971 22.4416 37.1472C23.2542 38.2097 24.3791 39.9598 24.1292 41.0847C25.9416 38.5222 24.6292 36.0222 24.0041 35.0222C23.4416 34.0222 22.6917 32.0222 23.3167 29.8971C23.9416 27.7721 26.1917 21.8971 26.1917 21.8971C26.1917 21.8971 26.9416 23.2097 28.0041 22.9598C29.0666 22.7097 37.629 9.83469 37.629 9.83469C37.629 9.83469 39.9416 14.8972 37.5041 18.5847C35.0041 22.2721 32.5666 22.9598 32.5666 22.9598C32.5666 22.9598 36.0041 23.5847 39.1917 21.2721C40.5041 24.3346 41.7542 27.5222 41.8166 27.9598C41.629 28.3971 39.129 34.3971 38.8791 34.7721C38.7542 34.8971 37.8791 35.1472 37.2542 35.2721C36.1917 35.5847 35.5666 35.7721 35.3166 35.9598C34.8791 36.3346 32.8791 41.8346 31.9416 44.5222C30.8166 44.8346 29.6917 45.4598 28.8791 46.7097C29.3166 46.3971 30.6917 46.2097 31.6917 46.0847C32.5666 46.0222 35.2542 47.4598 35.9416 50.1472C35.9416 50.2097 35.9416 50.2097 35.9416 50.2721C36.0666 51.2721 35.7542 52.2097 35.2542 52.9598ZM29.3791 53.7097C29.9416 52.8971 29.8791 51.5222 29.9416 51.0847C30.0041 50.6472 30.1292 49.8346 30.6292 49.7097C31.1292 49.5847 32.3166 49.7721 32.3166 50.6472C32.3166 51.4598 31.4416 51.6472 30.8166 52.2097C30.3791 52.6472 29.5041 53.5847 29.3791 53.7097ZM54.3166 41.7721C54.9416 38.5847 55.0041 35.8346 54.8166 33.5847C57.2542 36.8346 58.7542 40.7721 59.1917 44.8346C59.2542 45.3346 59.7542 45.8346 60.2542 46.3346C60.6917 46.7097 61.1917 47.2097 61.1917 47.5222C61.1917 48.9598 61.0665 50.3971 60.8166 51.8346C60.7542 52.0222 60.1917 52.3346 59.7542 52.5847C59.129 52.8971 58.5666 53.2097 58.4416 53.7097C57.0666 58.5222 54.129 62.7721 50.1917 65.7721C56.0041 59.7097 58.8166 49.7097 54.3166 41.7721ZM50.3791 66.3346C54.4416 63.2097 57.5666 58.8346 58.9416 53.8971C59.0041 53.7097 59.5666 53.3971 59.9416 53.1472C60.5665 52.8346 61.1917 52.4598 61.3166 51.9598C61.5665 50.5222 61.6917 49.0222 61.6917 47.5222C61.6917 46.9598 61.1292 46.3971 60.5665 45.8346C60.2542 45.4598 59.7542 45.0222 59.7542 44.7097C59.2542 40.1472 57.4416 35.8346 54.6292 32.2721C53.3791 24.7721 48.3791 22.4598 48.2542 22.3971C48.3791 22.5847 51.6292 27.2721 49.3791 32.7721C47.0666 38.3346 41.1292 37.4598 40.6292 37.5222C40.1292 37.5222 38.1917 40.0222 35.7542 44.6472C35.4416 44.5222 34.129 44.2097 32.629 44.4598C33.7542 41.3346 35.4416 36.8971 35.7542 36.5222C35.8791 36.3971 36.8167 36.1472 37.4416 35.9598C38.629 35.6472 39.1917 35.4598 39.3791 35.2097C39.5041 35.0222 40.129 33.5847 40.7542 32.0847C41.3166 32.0847 42.7542 31.9598 42.8791 31.8971C43.0041 31.7721 44.1917 28.7097 44.1917 28.3346C44.1917 28.0222 41.7542 21.9598 40.8166 19.6472C41.2542 19.1472 41.6917 18.5222 42.129 17.8347C54.9416 19.2097 64.9416 30.0847 64.9416 43.2721C64.9416 53.3971 59.0041 62.2097 50.3791 66.3346Z" fill="#333333" fill-opacity="0.7"/>
<path d="M33.7542 32.5848C34.9416 31.2097 34.3166 28.6473 32.1292 28.2097C32.6917 26.8972 33.5041 24.2722 33.5041 24.2722C33.5041 24.2722 27.1292 34.2722 26.5665 34.4597C26.0041 34.6473 25.4416 32.4596 25.4416 32.4596C24.2542 37.0223 27.4416 37.6473 27.8166 36.2097C29.5665 35.7722 32.5665 33.8972 33.7542 32.5848Z" fill="#333333" fill-opacity="0.7"/>
<path d="M28.3167 35.0223L31.5666 29.4598C31.5666 29.4598 33.4416 30.3974 32.5041 31.8974C31.3167 33.6473 28.3167 35.0223 28.3167 35.0223Z" fill="#F5F5F5"/>
<path d="M68.5041 60.7722C67.5665 62.0223 66.5041 63.3347 65.2542 64.5848C73.3166 49.0848 65.6292 34.8974 65.3166 34.3347C65.8791 34.8974 66.4416 35.5223 66.9416 36.0848C73.1292 42.9599 73.8791 53.2722 68.5041 60.7722Z" fill="#F5F5F5"/>
<path d="M76.0041 40.8346C73.1918 33.2722 69.1918 26.8346 60.3792 21.0222C51.8792 15.3972 42.7542 15.8347 42.2542 15.8972C42.1917 15.8972 42.1293 15.8972 42.1293 15.8972C42.4417 15.7722 42.7542 15.7097 43.0666 15.6472C45.0041 15.0222 47.5041 14.5222 50.0041 14.2097C56.6293 13.2722 63.3167 15.5222 67.8792 20.3346C67.9417 20.3971 67.9417 20.3971 68.0041 20.4598C73.1918 25.9598 75.8792 32.8346 76.0041 40.8346Z" fill="#F5F5F5"/>
<path d="M58.3791 9.89734C49.0666 8.14734 43.0666 9.02233 38.7542 10.6473C38.6292 10.1473 38.1917 9.14734 37.8167 8.33485C36.5041 9.89734 35.1292 11.7723 34.2542 12.9598C31.8792 14.5848 30.8792 16.1473 30.8792 16.1473C32.2542 11.4598 36.2542 7.95984 41.1292 7.08485C42.5041 6.83485 44.0041 6.70984 45.6292 6.70984C49.9416 6.77233 54.2542 7.83485 58.3791 9.89734Z" fill="#F5F5F5"/>
<path d="M23.9415 21.8973C16.6291 21.6474 19.0666 13.1473 19.1916 12.6473C19.1916 12.7098 19.6916 19.3348 23.9415 21.8973Z" fill="#F5F5F5"/>
<path d="M31.1292 6.58484C25.504 9.95983 26.6292 18.0223 26.6292 18.0223C21.2541 9.83484 30.6917 6.77234 31.1292 6.58484Z" fill="#F5F5F5"/>
<path d="M21.8791 24.1473C22.2542 24.4598 22.6292 25.0223 22.1917 25.8347C21.9416 26.2722 21.5667 26.2097 21.0041 25.9598C20.2542 25.5848 15.7542 22.9598 11.6917 20.2722C16.3167 21.8972 21.0041 23.6473 21.7542 24.0223C21.7542 24.0223 21.8166 24.0848 21.8791 24.1473Z" fill="white"/>
</g>
<defs>
<clipPath id="clip0_685_144875">
<rect width="203.81" height="80" fill="white" transform="translate(0.359131)"/>
</clipPath>
</defs>
</svg>
