<svg width="200" height="41" viewBox="0 0 200 41" fill="none" xmlns="http://www.w3.org/2000/svg">
<path d="M9.83727 20.5L5.31597 25.0174L0.798584 20.5L5.31597 15.9826L9.83727 20.5ZM20.7986 9.53087L28.5399 17.2761L33.0573 12.7587L20.7986 0.5L8.53989 12.7587L13.0573 17.2761L20.7986 9.53087ZM36.2851 15.9826L31.7677 20.5L36.2851 25.0174L40.7986 20.5L36.2851 15.9826ZM20.7986 31.4691L13.0573 23.7278L8.53989 28.2413L20.7986 40.5L33.0573 28.2413L28.5399 23.7278L20.7986 31.4691ZM20.7986 25.0174L25.316 20.5L20.7986 15.9826L16.2812 20.5L20.7986 25.0174ZM68.4735 25.4512V25.3886C68.4735 22.4422 66.9104 20.9689 64.3664 19.9998C65.9295 19.1206 67.2503 17.7411 67.2503 15.2675V15.205C67.2503 11.7583 64.4914 9.53087 60.0092 9.53087H49.8334V31.4691H60.2671C65.2183 31.4691 68.4813 29.4644 68.4813 25.4512H68.4735ZM62.4555 16.0725C62.4555 17.702 61.1073 18.3937 58.9776 18.3937H54.5344V13.763H59.298C61.334 13.763 62.4633 14.5758 62.4633 16.0178L62.4555 16.0725ZM63.6786 24.8494C63.6786 26.4789 62.393 27.2292 60.2593 27.2292H54.5344V22.4109H60.1108C62.5883 22.4109 63.6864 23.3214 63.6864 24.7946L63.6786 24.8494ZM78.6141 31.4691V9.53087H73.7724V31.4691H78.6141ZM104.558 31.4691V9.53087H99.7787V23.0401L89.5012 9.53087H85.0503V31.4691H89.8138V17.5223L100.435 31.4691H104.558ZM131.291 31.4691L121.873 9.37456H117.422L108.024 31.4691H112.944L114.956 26.5492H124.234L126.238 31.4691H131.291ZM122.518 22.2859H116.672L119.587 15.1737L122.518 22.2859ZM154.296 31.4691V9.53087H149.517V23.0401L139.235 9.53087H134.788V31.4691H139.548V17.5223L150.173 31.4691H154.296ZM179.208 27.9287L176.141 24.8259C174.417 26.389 172.881 27.3933 170.373 27.3933C166.613 27.3933 164.011 24.2671 164.011 20.5V20.4375C164.011 16.6782 166.676 13.6067 170.373 13.6067C172.565 13.6067 174.28 14.5445 175.984 16.0803L179.044 12.5399C177.008 10.5352 174.534 9.15572 170.396 9.15572C163.659 9.15572 158.958 14.2632 158.958 20.4883V20.5508C158.958 26.8501 163.753 31.8326 170.209 31.8326C174.433 31.8443 176.938 30.3398 179.193 27.9287H179.208ZM199.802 31.4691V27.1706H187.876V22.5555H198.219V18.2569H187.876V13.8255H199.63V9.52696H183.081V31.4652L199.802 31.4691Z" fill="#333333" fill-opacity="0.7"/>
</svg>
