<svg width="318" height="80" viewBox="0 0 318 80" fill="none" xmlns="http://www.w3.org/2000/svg">
<path d="M62.9838 27.4938L72.5018 22L82.0198 27.4938L78.5205 29.5234L72.5018 26.0592L66.4831 29.5234L62.9838 27.4938ZM82.0198 34.4224L78.5205 32.3928L72.5018 35.8571L66.4831 32.3928L62.9838 34.4224V38.4815L69.0025 41.9458V48.8743L72.5018 50.9039L76.001 48.8743V41.9458L82.0198 38.4815V34.4224ZM82.0198 45.4102V41.3509L78.5205 43.3805V47.4396L82.0198 45.4102ZM84.5042 46.8449L78.4855 50.309V54.3683L88.0035 48.8743V37.8867L84.5042 39.9162V46.8449ZM81.0051 30.9581L84.5042 32.9877V37.0468L88.0035 35.0173V30.9581L84.5042 28.9286L81.0051 30.9581ZM69.0025 51.7787V55.838L72.5018 57.8674L76.001 55.838V51.7787L72.5018 53.8083L69.0025 51.7787ZM62.9838 45.4102L66.4831 47.4396V43.3805L62.9838 41.3509V45.4102ZM69.0025 30.9581L72.5018 32.9877L76.001 30.9581L72.5018 28.9286L69.0025 30.9581ZM60.4993 32.9877L63.9985 30.9581L60.4993 28.9286L57 30.9581V35.0173L60.4993 37.0468V32.9877ZM60.4993 39.9162L57 37.8867V48.8743L66.518 54.3683V50.309L60.4993 46.8449V39.9162Z" fill="#F0B90B"/>
<path d="M115.591 44.5091V44.452C115.591 41.7715 114.165 40.4312 111.855 39.5472C113.281 38.7488 114.479 37.494 114.479 35.2413V35.1842C114.479 32.0475 111.969 30.0228 107.892 30.0228H98.624V49.9842H108.12C112.625 49.9842 115.591 48.1591 115.591 44.5091ZM110.116 35.9827C110.116 37.4655 108.89 38.0929 106.951 38.0929H102.901V33.8725H107.236C109.089 33.8725 110.116 34.6139 110.116 35.9257V35.9827ZM111.228 43.9673C111.228 45.45 110.059 46.1344 108.12 46.1344H102.901V41.7429H107.977C110.23 41.7429 111.228 42.57 111.228 43.9101V43.9673Z" fill="#F0B90B"/>
<path d="M137.225 49.9842V30.0228H132.891V42.3133L123.538 30.0228H119.488V49.9842H123.823V37.2944L133.49 49.9842H137.225Z" fill="#F0B90B"/>
<path d="M159.27 44.5091V44.452C159.27 41.7715 157.844 40.4312 155.534 39.5472C156.96 38.7488 158.158 37.494 158.158 35.2413V35.1842C158.158 32.0475 155.648 30.0228 151.57 30.0228H142.303V49.9842H151.799C156.304 49.9842 159.27 48.1591 159.27 44.5091ZM153.795 35.9827C153.795 37.4655 152.568 38.0929 150.63 38.0929H146.58V33.8725H150.915C152.768 33.8725 153.795 34.6139 153.795 35.9257V35.9827ZM154.907 43.9673C154.907 45.45 153.738 46.1344 151.799 46.1344H146.58V41.7429H151.656C153.909 41.7429 154.907 42.57 154.907 43.9101V43.9673Z" fill="#F0B90B"/>
<path d="M185.736 46.4579L183.483 44.1766C181.772 45.7735 180.204 46.7717 177.752 46.7717C173.93 46.7717 171.164 43.5779 171.164 39.6426C171.164 35.7074 173.93 32.5706 177.752 32.5706C180.033 32.5706 181.744 33.5687 183.341 35.0515L185.594 32.4565C183.683 30.6315 181.459 29.3483 177.78 29.3483C171.735 29.3483 167.486 33.9964 167.486 39.6996C167.486 45.4598 171.82 49.994 177.638 49.994C181.373 49.994 183.655 48.6252 185.736 46.4579Z" fill="#F0B90B"/>
<path d="M202.74 41.2395V49.6517H206.247V29.6904H202.74V37.9886H193.216V29.6904H189.708V49.6517H193.216V41.2395H202.74Z" fill="#F0B90B"/>
<path d="M221.982 29.5479H218.731L209.948 49.6517H213.541L215.594 44.8325H225.033L227.057 49.6517H230.764L221.982 29.5479ZM223.749 41.7242H216.877L220.299 33.7397L223.749 41.7242Z" fill="#F0B90B"/>
<path d="M234.672 29.6904V49.6517H238.18V29.6904H234.672Z" fill="#F0B90B"/>
<path d="M257.753 43.4922L247.059 29.6904H243.809V49.6517H247.259V35.4507L258.266 49.6517H261.204V29.6904H257.753V43.4922Z" fill="#F0B90B"/>
</svg>
