<svg width="318" height="80" viewBox="0 0 318 80" fill="none" xmlns="http://www.w3.org/2000/svg">
<path d="M63.006 27.5144L72.5592 22.0002L82.1124 27.5144L78.6 29.5515L72.5592 26.0744L66.5178 29.5515L63.006 27.5144ZM82.1124 34.4685L78.6 32.4315L72.5592 35.9085L66.5178 32.4315L63.006 34.4685V38.5427L69.0468 42.0198V48.9738L72.5592 51.0108L76.071 48.9738V42.0198L82.1124 38.5427V34.4685ZM82.1124 45.4968V41.4228L78.6 43.4598V47.5338L82.1124 45.4968ZM84.606 46.9368L78.5652 50.4138V54.4878L88.1178 48.9738V37.9456L84.606 39.9827V46.9368ZM81.0936 30.9915L84.606 33.0285V37.1027L88.1178 35.0656V30.9915L84.606 28.9544L81.0936 30.9915ZM69.0468 51.8892V55.9632L72.5592 58.0002L76.071 55.9632V51.8892L72.5592 53.9262L69.0468 51.8892ZM63.006 45.4968L66.5178 47.5338V43.4598L63.006 41.4228V45.4968ZM69.0468 30.9915L72.5592 33.0285L76.071 30.9915L72.5592 28.9544L69.0468 30.9915ZM60.5124 33.0285L64.0242 30.9915L60.5124 28.9544L57 30.9915V35.0656L60.5124 37.1027V33.0285ZM60.5124 39.9827L57 37.9456V48.9738L66.5532 54.4878V50.4138L60.5124 46.9368V39.9827Z" fill="#333333" fill-opacity="0.7"/>
<path d="M115.807 44.5926V44.535C115.807 41.8446 114.376 40.4996 112.058 39.6123C113.489 38.8109 114.691 37.5515 114.691 35.2905V35.2332C114.691 32.0849 112.172 30.0527 108.08 30.0527H98.7775V50.088H108.308C112.831 50.088 115.807 48.2562 115.807 44.5926ZM110.312 36.0346C110.312 37.5229 109.081 38.1526 107.135 38.1526H103.071V33.9166H107.421C109.282 33.9166 110.312 34.6608 110.312 35.9774V36.0346ZM111.428 44.0484C111.428 45.537 110.255 46.224 108.308 46.224H103.071V41.8164H108.166C110.426 41.8164 111.428 42.6462 111.428 43.9914V44.0484Z" fill="#333333" fill-opacity="0.7"/>
<path d="M137.522 50.088V30.0527H133.171V42.3888L123.784 30.0527H119.719V50.088H124.07V37.3512L133.772 50.088H137.522Z" fill="#333333" fill-opacity="0.7"/>
<path d="M159.648 44.5926V44.535C159.648 41.8446 158.217 40.4996 155.898 39.6123C157.329 38.8109 158.532 37.5515 158.532 35.2905V35.2332C158.532 32.0849 156.013 30.0527 151.92 30.0527H142.618V50.088H152.149C156.671 50.088 159.648 48.2562 159.648 44.5926ZM154.152 36.0346C154.152 37.5229 152.922 38.1526 150.975 38.1526H146.911V33.9166H151.261C153.122 33.9166 154.152 34.6608 154.152 35.9774V36.0346ZM155.269 44.0484C155.269 45.537 154.095 46.224 152.149 46.224H146.911V41.8164H152.006C154.267 41.8164 155.269 42.6462 155.269 43.9914V44.0484Z" fill="#333333" fill-opacity="0.7"/>
<path d="M186.212 46.5486L183.951 44.259C182.234 45.8616 180.659 46.8636 178.198 46.8636C174.363 46.8636 171.586 43.6578 171.586 39.7081C171.586 35.7583 174.363 32.61 178.198 32.61C180.488 32.61 182.205 33.6117 183.808 35.1L186.069 32.4954C184.151 30.6637 181.919 29.3757 178.226 29.3757C172.159 29.3757 167.894 34.041 167.894 39.7653C167.894 45.5466 172.245 50.0976 178.084 50.0976C181.833 50.0976 184.123 48.7236 186.212 46.5486Z" fill="#333333" fill-opacity="0.7"/>
<path d="M203.279 41.3107V49.7545H206.799V29.7192H203.279V38.0481H193.719V29.7192H190.198V49.7545H193.719V41.3107H203.279Z" fill="#333333" fill-opacity="0.7"/>
<path d="M222.591 29.5762H219.328L210.513 49.7545H214.119L216.18 44.9173H225.654L227.686 49.7545H231.407L222.591 29.5762ZM224.366 41.7973H217.468L220.902 33.7836L224.366 41.7973Z" fill="#333333" fill-opacity="0.7"/>
<path d="M235.329 29.7192V49.7545H238.849V29.7192H235.329Z" fill="#333333" fill-opacity="0.7"/>
<path d="M258.495 43.5721L247.762 29.7192H244.499V49.7545H247.962V35.5008L259.01 49.7545H261.958V29.7192H258.495V43.5721Z" fill="#333333" fill-opacity="0.7"/>
</svg>
