<svg width="228" height="40" viewBox="0 0 228 40" fill="none" xmlns="http://www.w3.org/2000/svg">
<path d="M6.67334 6.12704L17.288 0.000244141L27.9027 6.12704L24 8.39051L17.288 4.52704L10.5753 8.39051L6.67334 6.12704ZM27.9027 13.8539L24 11.5905L17.288 15.4539L10.5753 11.5905L6.67334 13.8539V18.3807L13.3853 22.2442V29.9709L17.288 32.2342L21.19 29.9709V22.2442L27.9027 18.3807V13.8539ZM27.9027 26.1076V21.5809L24 23.8442V28.3709L27.9027 26.1076ZM30.6733 27.7076L23.9613 31.5709V36.0976L34.5753 29.9709V17.7173L30.6733 19.9807V27.7076ZM26.7707 9.99051L30.6733 12.2539V16.7807L34.5753 14.5173V9.99051L30.6733 7.72705L26.7707 9.99051ZM13.3853 33.2102V37.7369L17.288 40.0002L21.19 37.7369V33.2102L17.288 35.4736L13.3853 33.2102ZM6.67334 26.1076L10.5753 28.3709V23.8442L6.67334 21.5809V26.1076ZM13.3853 9.99051L17.288 12.2539L21.19 9.99051L17.288 7.72705L13.3853 9.99051ZM3.90267 12.2539L7.80465 9.99051L3.90267 7.72705L0 9.99051V14.5173L3.90267 16.7807V12.2539ZM3.90267 19.9807L0 17.7173V29.9709L10.6147 36.0976V31.5709L3.90267 27.7076V19.9807Z" fill="#333333" fill-opacity="0.7"/>
<path d="M65.3413 25.1029V25.0389C65.3413 22.0496 63.7513 20.5551 61.1753 19.5692C62.7653 18.6788 64.1013 17.2795 64.1013 14.7672V14.7036C64.1013 11.2054 61.3026 8.94751 56.7553 8.94751H46.4193V31.2089H57.0093C62.0339 31.2089 65.3413 29.1736 65.3413 25.1029ZM59.2353 15.594C59.2353 17.2477 57.8679 17.9474 55.7053 17.9474H51.1899V13.2407H56.0233C58.0906 13.2407 59.2353 14.0676 59.2353 15.5304V15.594ZM60.476 24.4982C60.476 26.1522 59.1719 26.9156 57.0093 26.9156H51.1899V22.0182H56.8506C59.3626 22.0182 60.476 22.9402 60.476 24.4349V24.4982Z" fill="#333333" fill-opacity="0.7"/>
<path d="M89.4687 31.2089V8.94751H84.6347V22.6542L74.204 8.94751H69.688V31.2089H74.522V17.0569L85.3027 31.2089H89.4687Z" fill="#333333" fill-opacity="0.7"/>
<path d="M114.053 25.1029V25.0389C114.053 22.0496 112.463 20.5551 109.887 19.5692C111.477 18.6788 112.813 17.2795 112.813 14.7672V14.7036C112.813 11.2054 110.014 8.94751 105.466 8.94751H95.1307V31.2089H105.721C110.745 31.2089 114.053 29.1736 114.053 25.1029ZM107.947 15.594C107.947 17.2477 106.579 17.9474 104.417 17.9474H99.9008V13.2407H104.735C106.802 13.2407 107.947 14.0676 107.947 15.5304V15.594ZM109.187 24.4982C109.187 26.1522 107.883 26.9156 105.721 26.9156H99.9008V22.0182H105.562C108.074 22.0182 109.187 22.9402 109.187 24.4349V24.4982Z" fill="#333333" fill-opacity="0.7"/>
<path d="M143.569 27.2763L141.057 24.7323C139.149 26.513 137.399 27.6263 134.665 27.6263C130.403 27.6263 127.318 24.0643 127.318 19.6757C127.318 15.287 130.403 11.7889 134.665 11.7889C137.209 11.7889 139.117 12.9019 140.897 14.5556L143.41 11.6616C141.279 9.62637 138.799 8.19531 134.696 8.19531C127.955 8.19531 123.216 13.379 123.216 19.7393C123.216 26.163 128.05 31.2196 134.537 31.2196C138.703 31.2196 141.247 29.693 143.569 27.2763Z" fill="#333333" fill-opacity="0.7"/>
<path d="M162.532 21.4561V30.8381H166.443V8.57666H162.532V17.8309H151.91V8.57666H147.998V30.8381H151.91V21.4561H162.532Z" fill="#333333" fill-opacity="0.7"/>
<path d="M183.99 8.41797H180.365L170.57 30.8384H174.577L176.867 25.4637H187.393L189.651 30.8384H193.785L183.99 8.41797ZM185.962 21.997H178.298L182.114 13.0928L185.962 21.997Z" fill="#333333" fill-opacity="0.7"/>
<path d="M198.143 8.57666V30.8381H202.055V8.57666H198.143Z" fill="#333333" fill-opacity="0.7"/>
<path d="M223.883 23.9687L211.957 8.57666H208.332V30.8381H212.18V15.0006L224.455 30.8381H227.731V8.57666H223.883V23.9687Z" fill="#333333" fill-opacity="0.7"/>
</svg>
