<svg width="298" height="80" viewBox="0 0 298 80" fill="none" xmlns="http://www.w3.org/2000/svg">
<path d="M46.8295 44.8934C45.9574 45.4264 44.9399 45.5233 44.1647 45.0872C43.1957 44.5058 42.6143 43.1977 42.6143 41.405V35.9302C42.6143 33.314 41.5969 31.4244 39.8527 30.9399C36.8973 30.0678 34.6686 33.7015 33.845 35.0581L28.6124 43.4399V33.1201C28.564 30.7461 27.7888 29.3411 26.3353 28.905C25.3663 28.6143 23.9128 28.7597 22.5078 30.8915L10.8314 49.593C9.28101 46.6376 8.45736 43.343 8.45736 40C8.45736 28.7112 17.5174 19.5543 28.6124 19.5543C39.7074 19.5543 48.7674 28.7112 48.7674 40V40.0485V40.0969C48.8643 42.2771 48.186 44.0213 46.8295 44.8934ZM53.2248 40V39.9515V39.9031C53.1764 26.1919 42.1298 15 28.6124 15C15.0465 15 4 26.1919 4 40C4 53.7597 15.0465 65 28.6124 65C34.8624 65 40.7733 62.626 45.3275 58.3139C46.2481 57.4419 46.2965 56.0368 45.4244 55.1163C44.6008 54.1957 43.1957 54.1473 42.2752 54.9709C42.2752 54.9709 42.2752 54.9709 42.2267 55.0194C38.5446 58.5077 33.6027 60.4942 28.5155 60.4942C22.5562 60.4942 17.2267 57.8779 13.5446 53.7112L24.0581 36.8508V44.6512C24.0581 48.3818 25.5116 49.593 26.7229 49.9322C27.9341 50.2713 29.7752 50.0291 31.7616 46.8798L37.5271 37.5291C37.7209 37.2384 37.8663 36.9477 38.0601 36.7539V41.5019C38.0601 44.9903 39.4651 47.8004 41.8876 49.157C44.0678 50.4167 46.8295 50.2713 49.1066 48.8663C51.9167 47.0252 53.4186 43.8275 53.2248 40ZM87.5271 31.4729C88.1085 31.812 88.6415 32.6357 88.6415 33.3624C88.6415 34.5252 87.6725 35.4942 86.5581 35.4942C86.2674 35.4942 86.0252 35.3973 85.7829 35.3488C84.4748 34.3798 82.8275 33.75 81.0833 33.75C76.9651 33.75 74.155 37.093 74.155 41.2597C74.155 45.4264 77.0136 48.7209 81.0833 48.7209C83.1182 48.7209 84.9593 47.8973 86.3159 46.5891C86.655 46.3469 87.0911 46.2015 87.5271 46.2015C88.6415 46.2015 89.5136 47.0736 89.5136 48.188C89.5136 48.9147 89.0775 49.5446 88.5446 49.8837C86.5581 51.5795 83.8934 52.6938 81.1318 52.6938C74.8333 52.6938 69.6977 47.5097 69.6977 41.1143C69.6977 34.719 74.8333 29.5349 81.1318 29.5349C83.4574 29.4864 85.686 30.2132 87.5271 31.4729ZM99.0581 36.3178C103.37 36.3178 106.955 39.9516 106.955 44.4574C106.955 48.9147 103.322 52.7422 99.0581 52.7422C94.5523 52.7422 90.8217 48.9632 90.8217 44.4574C90.8217 39.9516 94.5523 36.3178 99.0581 36.3178ZM99.0097 48.7209C100.899 48.7209 102.498 46.9283 102.498 44.5058C102.498 42.0833 100.899 40.5329 99.0097 40.5329C96.9748 40.5329 95.2791 42.0349 95.2791 44.5058C95.2791 46.8798 96.9748 48.7209 99.0097 48.7209ZM109.669 50.2229V38.7888C109.669 37.5291 110.638 36.5116 111.897 36.5116C113.109 36.5116 114.126 37.5291 114.126 38.7888V50.2229C114.126 51.4826 113.109 52.5 111.897 52.5C110.686 52.5 109.669 51.4341 109.669 50.2229ZM109.329 32.1996C109.329 30.6977 110.492 29.5349 111.897 29.5349C113.351 29.5349 114.514 30.7461 114.514 32.1996C114.514 33.6531 113.351 34.8159 111.897 34.8159C110.444 34.7674 109.329 33.6046 109.329 32.1996ZM122.653 44.0213V50.2229C122.653 51.4826 121.636 52.5 120.424 52.5C119.213 52.5 118.196 51.4826 118.196 50.2229V38.2558C118.196 37.2868 118.971 36.5116 119.94 36.5116C120.909 36.5116 121.636 37.3353 121.636 38.2558C123.428 36.5601 125.027 36.3178 126.529 36.3178C130.986 36.3178 132.973 39.6609 132.973 43.4884V50.2229C132.973 51.4826 131.955 52.5 130.744 52.5C129.533 52.5 128.515 51.4826 128.515 50.2229V44.0213C128.515 42.0833 128.273 40.436 125.463 40.436C123.477 40.436 122.653 42.0833 122.653 44.0213ZM147.411 46.3954C146.878 46.3954 146.539 46.1531 146.248 45.814L141.064 40.1938V50.2229C141.064 51.4826 140.046 52.5 138.835 52.5C137.624 52.5 136.607 51.4826 136.607 50.2229V30.3585C136.752 30.0194 137.091 29.7771 137.43 29.7771C137.818 29.7771 138.157 30.1163 138.399 30.3585L146.684 39.6608C146.926 39.9515 147.217 40.0969 147.411 40.0969C147.556 40.0969 147.895 39.9515 148.138 39.6608L156.422 30.3585C156.665 30.1163 156.955 29.7771 157.391 29.7771C157.779 29.7771 158.118 30.0194 158.215 30.3585V50.2229C158.215 51.4826 157.246 52.5 155.986 52.5C154.775 52.5 153.758 51.4826 153.758 50.2229V40.1938L148.574 45.814C148.186 46.1531 147.847 46.3954 147.411 46.3954ZM168.826 48.7209C170.812 48.7209 172.508 46.9283 172.508 44.5058C172.508 42.0833 170.764 40.4845 168.826 40.4845C166.888 40.4845 165.289 42.1318 165.289 44.5058C165.289 46.8314 166.839 48.7209 168.826 48.7209ZM173.574 50.7558L173.477 50.2229C172.605 51.9186 169.843 52.6938 168.099 52.6938C163.932 52.6938 160.831 48.9147 160.831 44.4089C160.831 39.9516 163.981 36.2694 168.341 36.2694C169.068 36.2694 171.587 36.4632 173.525 38.7403L173.622 38.2074C173.622 37.2384 174.349 36.4632 175.318 36.4632C176.287 36.4632 177.062 37.2868 177.062 38.2074V50.7074C177.062 51.6764 176.287 52.4516 175.318 52.4516C174.3 52.5 173.574 51.6764 173.574 50.7558ZM189.32 40.436H188.835C186.025 40.5814 185.492 42.1802 185.492 44.0213V50.2229C185.492 51.4826 184.475 52.5 183.264 52.5C182.052 52.5 181.035 51.4826 181.035 50.2229V38.2558C181.035 37.2868 181.81 36.5116 182.779 36.5116C183.748 36.5116 184.475 37.3353 184.475 38.2558C186.122 36.7054 187.479 36.3663 188.835 36.3178H189.271C190.337 36.3178 191.306 37.2384 191.306 38.4012C191.355 39.4671 190.386 40.436 189.32 40.436ZM206.519 49.157C206.713 49.4961 206.859 49.8353 206.859 50.2229C206.859 51.3857 205.793 52.4516 204.63 52.4516C203.855 52.4516 203.176 51.8702 202.643 51.1919L197.508 45.2326V50.1744C197.508 51.4341 196.49 52.4516 195.279 52.4516C194.068 52.4516 193.05 51.4341 193.05 50.1744V32.0058C193.05 30.7461 194.019 29.7287 195.279 29.7287C196.539 29.7287 197.508 30.7461 197.508 32.0058V43.343L202.643 37.6744C203.176 37.093 203.806 36.4632 204.581 36.4632C205.696 36.4632 206.713 37.4806 206.713 38.6434C206.713 38.9826 206.616 39.3701 206.422 39.6608L202.353 44.1182L206.519 49.157ZM215.24 40.4845C214.029 40.4845 212.043 41.1143 212.043 43.0039H218.486C218.438 41.1143 216.403 40.4845 215.24 40.4845ZM221.054 45.8624H212.043C212.043 48.5271 214.61 48.9632 215.725 48.9632C216.548 48.9632 217.711 48.8178 218.632 48.3818C218.922 48.188 219.359 48.0426 219.795 48.0426C220.764 48.0426 221.587 48.8663 221.587 49.8837C221.587 50.562 221.151 51.1434 220.618 51.4826C219.262 52.5 217.469 52.7422 215.773 52.7422C211.267 52.7422 207.537 50.3198 207.537 44.6512C207.537 40.1938 209.814 36.3178 215.143 36.3178C219.455 36.3178 222.702 39.1279 222.798 44.1182C222.798 45.0388 222.023 45.8624 221.054 45.8624ZM233.457 52.6938H232.246C228.855 52.6938 226.868 51.1919 226.868 45.9109V40.436H225.705C224.64 40.436 223.719 39.4671 223.719 38.4012C223.719 37.2384 224.688 36.3178 225.705 36.3178H226.868V32.1027C226.868 30.843 227.837 29.8256 229.097 29.8256C230.308 29.8256 231.326 30.843 231.326 32.1027V36.3178H233.167C234.233 36.3178 235.153 37.2384 235.153 38.4012C235.153 39.4671 234.184 40.436 233.167 40.436H231.326V45.0388C231.326 48.0911 231.471 48.7209 232.827 48.7209H233.457C234.523 48.7209 235.444 49.593 235.444 50.7074C235.444 51.7733 234.523 52.6938 233.457 52.6938ZM255.017 31.4729C255.599 31.812 256.132 32.6357 256.132 33.3624C256.132 34.5252 255.163 35.4942 254.048 35.4942C253.758 35.4942 253.515 35.3973 253.273 35.3488C251.965 34.3798 250.318 33.75 248.574 33.75C244.455 33.75 241.645 37.093 241.645 41.2597C241.645 45.4264 244.504 48.7209 248.574 48.7209C250.609 48.7209 252.45 47.8973 253.806 46.5891C254.145 46.3469 254.581 46.2015 255.017 46.2015C256.132 46.2015 257.004 47.0736 257.004 48.188C257.004 48.9147 256.568 49.5446 256.035 49.8837C254.048 51.5795 251.384 52.6938 248.622 52.6938C242.324 52.6938 237.188 47.5097 237.188 41.1143C237.188 34.719 242.324 29.5349 248.622 29.5349C250.948 29.4864 253.225 30.2132 255.017 31.4729ZM266.306 48.7209C268.293 48.7209 269.988 46.9283 269.988 44.5058C269.988 42.0833 268.244 40.4845 266.306 40.4845C264.32 40.4845 262.769 42.1318 262.769 44.5058C262.769 46.8314 264.368 48.7209 266.306 48.7209ZM271.054 50.7558L270.957 50.2229C270.085 51.9186 267.324 52.6938 265.579 52.6938C261.413 52.6938 258.312 48.9147 258.312 44.4089C258.312 39.9516 261.461 36.2694 265.822 36.2694C266.548 36.2694 269.068 36.4632 271.006 38.7403L271.103 38.2074C271.103 37.2384 271.829 36.4632 272.798 36.4632C273.767 36.4632 274.543 37.2868 274.543 38.2074V50.7074C274.543 51.6764 273.767 52.4516 272.798 52.4516C271.781 52.5 271.054 51.6764 271.054 50.7558ZM286.703 48.7209C288.69 48.7209 290.24 46.8314 290.24 44.5058C290.24 42.0833 288.641 40.4845 286.703 40.4845C284.717 40.4845 283.021 42.0833 283.021 44.5058C283.021 46.9283 284.717 48.7209 286.703 48.7209ZM283.021 51.3857V57.0543C283.021 58.314 282.004 59.3314 280.793 59.3314C279.581 59.3314 278.564 58.314 278.564 57.0543V38.2558C278.564 37.2868 279.339 36.5116 280.308 36.5116C281.277 36.5116 282.004 37.3353 282.004 38.4496C283.651 36.7539 285.686 36.3178 287.236 36.3178C291.548 36.3178 294.746 39.9516 294.746 44.4574C294.746 48.9147 291.694 52.7422 287.479 52.7422C286.171 52.6938 284.233 52.3062 283.021 51.3857Z" fill="#0A39FF"/>
</svg>
