<svg width="298" height="80" viewBox="0 0 298 80" fill="none" xmlns="http://www.w3.org/2000/svg">
<path fill-rule="evenodd" clip-rule="evenodd" d="M69.9213 10.0003C86.5269 10.0003 99.921 23.3944 99.921 40.0783C99.921 56.5272 86.3702 70.078 69.6864 69.9997C53.5508 69.843 40 56.5272 40 40C40 23.3944 53.3158 9.92201 69.9213 10.0003ZM47.1279 55.6656C47.1279 55.9789 47.2845 56.1356 47.4412 56.3706C48.6161 58.0155 49.9477 59.582 51.5142 60.9136C52.2192 61.5402 52.9241 62.1669 53.7074 62.7151C55.9006 64.1251 58.1721 65.4566 60.6786 66.3182C62.7151 67.0232 64.83 67.5715 66.9449 67.8065C68.5898 67.9631 70.313 68.0415 71.9579 67.8065C72.8978 67.6498 73.9161 67.6498 74.856 67.2582C75.0127 67.3365 75.091 67.1799 75.1693 67.1799C77.1275 66.8666 79.0074 66.2399 80.8873 65.4566C86.9969 62.7935 91.6182 58.4854 94.5947 52.5325C97.2578 47.2845 98.1194 41.7232 97.2578 35.9269C96.4746 30.3656 94.1247 25.5093 90.365 21.4362C85.352 15.7183 78.9291 12.7418 71.3312 12.2719C67.9631 12.0369 64.595 12.5068 61.3836 13.6034C56.1356 15.3266 51.8275 18.3031 48.3028 22.6112C44.308 27.5458 42.3498 33.1855 42.1149 39.4517C42.0365 41.0183 42.1932 42.5065 42.4282 44.0731C42.8981 47.5978 44.0731 50.9659 45.8746 54.0207C46.3446 54.4907 46.6579 55.1173 47.1279 55.6656Z" fill="#8BC53F"/>
<path fill-rule="evenodd" clip-rule="evenodd" d="M74.8561 67.1798C73.9161 67.6498 72.8979 67.6498 71.9579 67.7281C70.313 67.9631 68.5898 67.8848 66.9449 67.7281C64.8301 67.4931 62.7152 66.9448 60.6787 66.2399C58.1722 65.3783 55.9007 64.0467 53.7075 62.6368C52.9242 62.0885 52.2193 61.4619 51.5143 60.8352C49.9477 59.5037 48.6162 57.9371 47.4412 56.2922C47.2846 56.0572 47.1279 55.8222 47.1279 55.5873C49.0078 51.3575 49.7128 46.8928 50.1044 42.3498C50.2611 40.235 50.3394 38.1201 50.731 36.0052C51.1227 33.5771 52.0626 31.3839 53.7858 29.504C55.3524 27.8591 57.3106 26.7625 59.4254 25.9792C61.1487 25.2743 62.9502 24.6477 64.9084 24.5693C66.71 24.491 68.4332 24.726 70.1564 25.1176C72.7412 25.7443 75.326 26.5275 77.7542 27.7025C79.7124 28.4857 81.749 29.269 83.7855 29.8956C85.9003 30.5223 88.0152 31.2272 89.8167 32.5588C92.0883 34.282 92.7149 36.4752 91.6966 39.1384C91.07 40.7832 89.8951 42.0365 88.7202 43.2897C86.6053 45.4829 84.3338 47.5195 82.2972 49.791C79.9474 52.5325 77.8325 55.3523 76.3443 58.6421C75.0911 61.3835 74.3861 64.2034 74.8561 67.1798ZM89.9734 41.4099C89.8951 41.4099 89.8167 41.4099 89.7384 41.4882C89.6601 41.4882 89.5818 41.5665 89.5818 41.6449C89.5818 41.6449 89.5818 41.6449 89.5818 41.7232C89.6601 41.7232 89.7384 41.6449 89.7384 41.5665L89.9734 41.4099C90.0517 41.4099 90.1301 41.4099 89.9734 41.4099ZM66.005 27.7808C63.0285 27.7808 60.6004 30.209 60.6004 33.1071C60.6004 36.0836 63.0285 38.4334 65.9267 38.5117C68.9031 38.5117 71.253 36.0836 71.3313 33.1071C71.3313 30.1306 68.9815 27.7808 66.005 27.7808ZM70.3914 44.2297C70.8613 44.9346 71.723 45.5613 72.7412 45.8746C74.7778 46.5795 76.8143 46.5795 78.8508 46.1879C82.4539 45.4829 85.822 44.2297 88.8768 42.1931C89.0335 42.0365 89.3468 42.0365 89.4251 41.7232C89.2684 41.6449 89.1901 41.7232 89.1118 41.8015C88.0935 42.4281 86.9969 42.8981 85.9003 43.3681C83.0805 44.543 80.1041 45.3263 76.9709 45.4829C74.6994 45.6396 72.4279 45.4829 70.3914 44.2297ZM85.1954 39.6083C85.822 39.6083 86.3703 39.06 86.3703 38.3551C86.3703 37.7285 85.822 37.1802 85.1171 37.2585C84.4904 37.2585 84.0205 37.8068 84.0205 38.4334C84.0205 39.1384 84.4904 39.6083 85.1954 39.6083Z" fill="#8BC53F"/>
<path fill-rule="evenodd" clip-rule="evenodd" d="M70.0777 25.1177C68.3545 24.8044 66.6313 24.4911 64.8298 24.5694C62.8716 24.6477 61.1483 25.2743 59.3468 25.9793C57.2319 26.7626 55.2737 27.8592 53.7072 29.5041C51.984 31.3056 51.044 33.4988 50.6524 36.0053C50.3391 38.1202 50.2607 40.235 50.0258 42.3499C49.6341 46.8929 48.9292 51.4359 47.0493 55.5873C46.501 55.1173 46.1877 54.4124 45.8744 53.8641C44.0728 50.8093 42.8979 47.4412 42.4279 43.9164C42.1929 42.3499 42.0363 40.8616 42.1146 39.2951C42.3496 33.0288 44.3078 27.3892 48.3025 22.4545C51.749 18.1465 56.1353 15.17 61.3833 13.4468C64.5948 12.4285 67.9629 11.9586 71.331 12.1152C78.8505 12.5852 85.2734 15.64 90.3647 21.2013C94.1245 25.3527 96.396 30.209 97.2576 35.692C98.1192 41.4883 97.2576 47.0495 94.5944 52.2975C91.618 58.2505 86.9966 62.5585 80.887 65.2217C79.0855 66.005 77.2056 66.6316 75.1691 66.9449C75.0124 66.9449 74.9341 67.1799 74.8558 67.0232C74.3858 64.0467 75.0907 61.2269 76.2657 58.4855C77.7539 55.1957 79.8688 52.3759 82.2186 49.6344C84.1768 47.3629 86.4483 45.248 88.6415 43.1331C89.8948 41.8799 90.9913 40.6266 91.618 38.9818C92.7146 36.3186 92.0879 34.1254 89.7381 32.4022C87.9366 31.0706 85.8217 30.3657 83.7068 29.739C81.6703 29.1124 79.6338 28.3291 77.6756 27.5459C77.2839 26.2143 76.344 25.3527 75.0907 24.8827C73.4459 24.4911 71.801 24.6477 70.0777 25.1177ZM95.691 41.8016H95.8477C96.161 40.705 96.161 39.5301 96.161 38.3551C96.161 37.0236 96.0044 35.692 95.7694 34.3604C94.9078 30.0524 92.9496 26.2926 89.8948 23.0812C88.0149 21.123 85.9 19.4781 83.7852 17.7548C81.9053 16.1883 79.8688 15.0134 77.5189 14.3867C75.2474 13.8384 73.0542 13.5251 70.7044 13.9168C70.5477 13.9168 70.3911 13.9168 70.3911 14.0734C70.3911 14.2301 70.5477 14.2301 70.7044 14.2301C74.1508 14.8567 77.4406 15.9533 80.652 17.2065C83.7852 18.4598 86.4483 20.2613 88.4065 23.0812C89.7381 25.0394 90.9913 27.0759 92.0096 29.2691C93.3412 32.2455 94.3595 35.3003 94.9861 38.4335C95.2994 39.6867 95.5344 40.705 95.691 41.8016Z" fill="#F9E988"/>
<path fill-rule="evenodd" clip-rule="evenodd" d="M66.0047 27.7808C68.9812 27.7808 71.331 30.2089 71.331 33.1071C71.331 36.0835 68.9029 38.4334 65.9264 38.5117C62.9499 38.5117 60.6001 36.0835 60.6001 33.1071C60.6001 30.1306 63.0283 27.7808 66.0047 27.7808ZM69.7645 33.1854C69.7645 31.0705 68.1196 29.4257 66.0047 29.4257C63.8899 29.4257 62.245 31.0705 62.245 33.1854C62.245 35.2219 63.8899 36.9451 65.9264 36.9451H66.0047C68.0413 36.9451 69.6862 35.3003 69.7645 33.1854Z" fill="#FCFDFB"/>
<path fill-rule="evenodd" clip-rule="evenodd" d="M70.3914 44.2297C72.428 45.483 74.6995 45.6396 76.971 45.5613C80.1041 45.4046 83.0806 44.6997 85.9004 43.4464C86.997 42.9765 88.0936 42.5065 89.1119 41.8799C89.1902 41.8015 89.2685 41.7232 89.4252 41.8015C89.3468 42.0365 89.1119 42.1148 88.8769 42.2715C85.8221 44.308 82.454 45.5613 78.8509 46.2662C76.8143 46.6579 74.6995 46.6579 72.7413 45.9529C71.723 45.5613 70.7831 44.9347 70.3914 44.2297ZM70.0781 25.1176C71.723 24.6477 73.4462 24.491 75.0911 25.1176C76.3444 25.5876 77.2843 26.4492 77.6759 27.7808C75.3261 26.5276 72.7413 25.7443 70.0781 25.1176Z" fill="#585A5B"/>
<path fill-rule="evenodd" clip-rule="evenodd" d="M70.0781 25.1176C71.723 24.6477 73.4462 24.491 75.0911 25.1176C76.3444 25.5876 77.2843 26.4492 77.6759 27.7808C75.3261 26.5276 72.7413 25.7443 70.0781 25.1176Z" fill="#159A48"/>
<path fill-rule="evenodd" clip-rule="evenodd" d="M85.1954 39.6084C84.5688 39.6084 84.0205 39.0601 84.0205 38.4335C84.0205 37.8068 84.4905 37.2585 85.1171 37.2585C85.7437 37.2585 86.292 37.7285 86.3704 38.3551C86.292 39.0601 85.8221 39.6084 85.1954 39.6084Z" fill="#FCFDFB"/>
<path fill-rule="evenodd" clip-rule="evenodd" d="M89.7382 41.5666C89.7382 41.6449 89.6599 41.7232 89.5815 41.7232C89.5815 41.5666 89.6599 41.4882 89.7382 41.5666ZM89.9732 41.4099L89.7382 41.5666L89.6599 41.4882C89.8165 41.4099 89.8949 41.4099 89.9732 41.4099Z" fill="#A9ACBF"/>
<path fill-rule="evenodd" clip-rule="evenodd" d="M95.6914 41.8016C95.4564 40.705 95.2214 39.6867 95.0648 38.5901C94.4381 35.3787 93.3415 32.3239 92.0883 29.4257C91.1483 27.2325 89.8951 25.196 88.4852 23.2378C86.527 20.418 83.9422 18.6165 80.7307 17.3632C77.4409 16.11 74.2295 14.935 70.783 14.3867C70.6264 14.3867 70.4697 14.3867 70.4697 14.2301C70.4697 14.0734 70.6264 14.0734 70.783 14.0734C73.0546 13.6818 75.3261 13.9168 77.5976 14.5434C79.9474 15.17 81.984 16.4233 83.8638 17.9115C85.9787 19.6347 88.0936 21.2796 89.9734 23.2378C93.0282 26.4493 94.9864 30.209 95.848 34.5171C96.083 35.8486 96.2397 37.1802 96.2397 38.5118C96.2397 39.6084 96.2397 40.7833 95.9264 41.9582L95.6914 41.8016Z" fill="#FFFEFC"/>
<path fill-rule="evenodd" clip-rule="evenodd" d="M69.7646 33.1855C69.7646 35.222 68.1197 36.9452 66.0832 36.9452H66.0049C63.9683 36.9452 62.2451 35.3003 62.2451 33.1855V33.1072C62.2451 30.9923 63.9683 29.3474 66.0049 29.3474C68.0414 29.3474 69.7646 31.0706 69.7646 33.1855Z" fill="#585A5B"/>
<path fill-rule="evenodd" clip-rule="evenodd" d="M188.588 48.3027C188.51 48.381 188.431 48.381 188.353 48.4594C185.925 51.2009 182.87 51.6708 179.58 50.8092C175.507 49.7909 173.314 46.8928 172.452 42.8981C171.904 40.3132 172.061 37.7284 173.079 35.3003C174.881 30.9922 178.954 28.6424 183.575 29.269C185.69 29.5823 187.648 30.2873 189.136 31.8538C190.233 33.0287 190.86 34.4386 191.095 36.0052C191.173 36.3185 191.016 36.3968 190.781 36.3968C189.841 36.3968 188.823 36.3968 187.883 36.3968C187.648 36.3968 187.57 36.3185 187.491 36.0835C187.022 33.9687 185.612 32.7937 183.575 32.4021C181.225 31.9321 179.189 32.4021 177.622 34.282C176.212 36.0052 175.821 38.1201 175.821 40.3133C175.821 41.9581 176.134 43.5247 176.839 44.9346C178.484 48.0677 182.557 49.1643 185.612 47.3628C187.335 46.3445 187.883 44.6996 188.04 42.8197C188.04 42.4281 187.805 42.5064 187.57 42.5064C186.003 42.5064 184.515 42.5064 182.948 42.5064C182.479 42.5064 182.4 42.3498 182.4 41.9581C182.4 41.3315 182.4 40.7832 182.4 40.1566C182.4 39.765 182.557 39.6866 182.87 39.6866C185.533 39.6866 188.275 39.6866 190.938 39.6866C191.251 39.6866 191.408 39.765 191.408 40.0783C191.408 43.5247 191.408 46.8928 191.408 50.3392C191.408 50.6526 191.33 50.7309 191.016 50.7309C190.39 50.7309 189.606 50.8875 189.136 50.6526C188.666 50.3392 188.823 49.556 188.666 48.9293C188.666 48.6944 188.588 48.4594 188.588 48.3027ZM126.552 36.3968C126.082 36.3968 125.612 36.3968 125.064 36.3968C124.751 36.3968 124.672 36.3185 124.594 36.0052C123.967 33.812 122.558 32.4804 120.286 32.2455C117.779 32.0105 115.665 32.7938 114.411 35.0653C112.532 38.5117 112.61 42.0365 114.49 45.4046C115.743 47.6761 118.484 48.6944 120.991 47.9894C123.184 47.3628 124.202 45.7179 124.672 43.603C124.829 42.7414 124.829 42.7414 125.691 42.7414C126.474 42.7414 127.257 42.7414 128.04 42.7414C128.354 42.7414 128.432 42.8197 128.354 43.1331C127.962 47.2845 125.299 50.4959 121.226 51.1225C115.351 52.0625 110.495 48.4594 109.555 42.5848C109.163 39.9999 109.398 37.4934 110.417 35.0653C112.218 30.9922 116.213 28.799 120.678 29.3473C122.792 29.6606 124.751 30.3656 126.317 31.9321C127.414 33.1071 128.04 34.517 128.275 36.0835C128.354 36.3968 128.275 36.4752 127.962 36.4752C127.57 36.3185 127.022 36.3968 126.552 36.3968ZM241.851 50.6526C240.52 50.6526 239.345 50.6526 238.091 50.6526C237.778 50.6526 237.621 50.4959 237.543 50.2609C236.212 48.0677 234.802 45.9529 233.47 43.7597C233.235 43.368 233.157 43.368 232.765 43.6814C231.434 44.6213 230.885 45.8745 231.12 47.5194C231.277 48.381 231.12 49.321 231.12 50.2609C231.12 50.6526 230.964 50.7309 230.65 50.7309C229.867 50.7309 229.084 50.7309 228.3 50.7309C227.909 50.7309 227.83 50.5742 227.83 50.1826C227.83 46.9711 227.83 43.7597 227.83 40.4699C227.83 37.1018 227.83 33.7337 227.83 30.2873C227.83 29.739 227.987 29.5823 228.535 29.6606C229.24 29.739 229.945 29.739 230.65 29.6606C231.12 29.6606 231.199 29.8173 231.199 30.2089C231.199 33.7337 231.199 37.2585 231.199 40.7832V41.4098L231.355 41.4882C231.59 41.1749 231.904 40.8615 232.138 40.5482C233.705 38.9033 235.272 37.3368 236.917 35.6919C237.073 35.5352 237.23 35.3786 237.465 35.3786C238.718 35.3786 239.971 35.3786 241.225 35.3786C241.225 35.6136 240.99 35.6919 240.911 35.8485C239.266 37.4151 237.7 38.9817 235.977 40.5482C235.585 40.8615 235.585 41.0965 235.898 41.5665C237.778 44.3863 239.658 47.2061 241.538 50.0259C241.538 50.2609 241.695 50.4176 241.851 50.6526ZM203.157 43.9163C201.434 43.9163 199.789 43.9163 198.066 43.9163C197.674 43.9163 197.596 43.9947 197.596 44.3863C197.752 47.4411 200.572 49.321 203.392 48.1461C204.175 47.8328 204.802 47.2061 205.115 46.3445C205.272 45.9529 205.507 45.8745 205.82 45.8745C206.525 45.8745 207.309 45.8745 208.013 45.8745C208.405 45.8745 208.483 45.9529 208.327 46.3445C207.465 49.086 205.585 50.5742 202.765 50.9659C200.259 51.3575 197.909 50.8092 196.108 48.9293C194.854 47.5978 194.306 45.8745 194.149 44.073C193.993 41.8798 194.306 39.765 195.716 37.8851C197.517 35.5352 199.946 34.6736 202.765 35.1436C205.742 35.6919 207.543 37.5718 208.405 40.3916C208.718 41.4098 208.797 42.4281 208.718 43.5247C208.718 43.9163 208.562 43.9947 208.248 43.9947C206.604 43.9163 204.88 43.9163 203.157 43.9163ZM201.512 41.7232C202.687 41.7232 203.862 41.7232 204.959 41.7232C205.35 41.7232 205.429 41.6448 205.35 41.2532C205.037 39.2167 203.549 37.7284 201.591 37.6501C199.554 37.5718 197.909 38.9817 197.596 41.0965C197.517 41.4882 197.596 41.6448 198.066 41.6448C199.241 41.7232 200.337 41.7232 201.512 41.7232ZM130.625 43.0547C130.625 42.1148 130.782 41.0965 131.017 40.1566C132.035 36.8668 134.933 34.8303 138.536 35.0653C141.278 35.2219 143.549 36.1619 144.881 38.59C146.448 41.5665 146.448 44.6996 144.803 47.5978C143.314 50.3392 140.73 51.2009 137.753 51.0442C133.288 50.8092 130.625 47.7544 130.625 43.0547ZM133.993 43.0547C133.993 44.3863 134.228 45.5612 135.012 46.6578C136.265 48.4594 138.693 49.0077 140.495 47.7544C140.886 47.4411 141.278 47.1278 141.591 46.7362C142.923 44.778 143.001 41.4882 141.591 39.4516C139.946 37.1018 136.5 37.1018 134.933 39.53C134.228 40.5482 133.993 41.8015 133.993 43.0547ZM242.713 43.1331C242.713 40.9399 243.183 38.9817 244.671 37.3368C246.159 35.6136 248.196 34.9869 250.389 34.9869C252.582 34.9869 254.619 35.6136 256.185 37.3368C257.83 39.2167 258.222 41.4882 258.065 43.9163C257.987 44.778 257.83 45.6396 257.517 46.4228C256.342 49.4776 253.522 51.2009 249.919 50.9659C245.689 50.7309 243.026 47.9894 242.791 43.7597C242.791 43.603 242.713 43.2897 242.713 43.1331ZM254.697 43.2897C254.697 41.7232 254.305 40.3916 253.757 39.4516C252.582 37.5718 250.076 37.1018 248.274 38.2767C247.804 38.59 247.412 38.9817 247.099 39.4516C245.768 41.4098 245.846 44.6996 247.099 46.5795C248.352 48.381 250.781 48.9293 252.582 47.6761C253.052 47.3628 253.365 47.0495 253.679 46.5795C254.462 45.5612 254.697 44.308 254.697 43.2897ZM158.98 37.5718C159.92 36.3968 161.017 35.5352 162.505 35.1436C163.836 34.8303 165.168 34.9086 166.421 35.4569C168.301 36.2402 169.084 37.8851 169.163 39.8433C169.241 43.2897 169.163 46.7362 169.163 50.1826C169.163 50.5742 169.084 50.6526 168.693 50.6526C167.909 50.6526 167.126 50.6526 166.343 50.6526C165.951 50.6526 165.795 50.5742 165.795 50.1043C165.795 47.2061 165.795 44.2297 165.795 41.3315C165.795 40.7049 165.716 40.0783 165.56 39.53C165.09 37.9634 163.601 37.3368 161.8 37.8067C160.233 38.2767 159.215 39.6866 159.215 41.4882C159.215 44.308 159.215 47.2061 159.215 50.0259C159.215 50.4959 159.137 50.7309 158.588 50.6526C157.883 50.5742 157.1 50.5742 156.395 50.6526C156.004 50.6526 155.847 50.5742 155.847 50.1043C155.847 47.9111 155.847 45.7962 155.847 43.603C155.847 41.0965 155.847 38.59 155.847 36.0835C155.847 35.5352 156.004 35.3786 156.552 35.4569C157.257 35.5352 157.883 35.4569 158.588 35.4569C158.98 35.4569 159.137 35.5352 159.058 35.9269C158.98 36.4752 158.98 37.0235 158.98 37.5718ZM223.209 40.5482C223.131 40.5482 223.052 40.5482 222.974 40.5482C222.113 40.6266 221.564 40.5482 221.173 39.53C220.233 37.1801 216.473 37.1018 214.906 39.295C214.358 39.9999 214.123 40.8615 213.966 41.8015C213.81 43.2897 213.81 44.778 214.436 46.1879C215.22 47.9111 216.63 48.6944 218.431 48.4594C219.919 48.2244 220.938 47.2845 221.329 45.6396C221.408 45.1696 221.643 45.0129 222.113 45.0913C222.896 45.0913 223.601 45.0913 224.384 45.0913C224.776 45.0913 224.854 45.2479 224.776 45.5612C223.992 49.321 221.329 51.4358 217.413 51.2009C213.496 50.9659 210.912 48.381 210.598 44.3863C210.442 42.6631 210.598 40.9399 211.303 39.295C212.478 36.5535 215.141 34.9869 218.274 35.1436C220.154 35.2219 221.878 35.6919 223.287 37.0235C224.149 37.8851 224.619 38.9817 224.854 40.1566C224.932 40.5482 224.776 40.7049 224.384 40.6266C224.071 40.5482 223.679 40.5482 223.209 40.5482ZM152.166 43.1331C152.166 45.4046 152.166 47.6761 152.166 49.9476C152.166 50.5742 152.009 50.7309 151.461 50.6526C150.756 50.5742 150.129 50.5742 149.424 50.6526C148.954 50.6526 148.797 50.5742 148.797 50.0259C148.797 45.9529 148.797 41.8798 148.797 37.8067C148.797 37.1801 148.797 36.5535 148.797 35.9269C148.797 35.5352 148.876 35.4569 149.267 35.4569C150.051 35.4569 150.834 35.4569 151.617 35.4569C152.087 35.4569 152.244 35.5352 152.244 36.0835C152.166 38.4334 152.166 40.7832 152.166 43.1331ZM150.599 29.6606C151.069 29.739 151.774 29.4256 152.087 29.739C152.401 30.0523 152.166 30.7572 152.166 31.3055C152.166 31.7755 152.401 32.4021 152.087 32.7154C151.774 33.0287 151.147 32.7937 150.677 32.7937C150.051 32.7937 149.267 33.0287 148.876 32.7154C148.562 32.3238 148.797 31.5405 148.797 30.9922C148.797 29.6606 148.797 29.6606 150.129 29.6606H150.599Z" fill="#4C4C4C"/>
</svg>
