<svg width="292" height="50" viewBox="0 0 292 50" fill="none" xmlns="http://www.w3.org/2000/svg">
<path d="M43.6129 29.8934C42.7408 30.4264 41.7234 30.5233 40.9482 30.0872C39.9792 29.5058 39.3978 28.1977 39.3978 26.405V20.9302C39.3978 18.314 38.3803 16.4244 36.6362 15.9399C33.6807 15.0678 31.4521 18.7015 30.6284 20.0581L25.3958 28.4399V18.1201C25.3474 15.7461 24.5722 14.3411 23.1187 13.905C22.1497 13.6143 20.6962 13.7597 19.2912 15.8915L7.61484 34.593C6.06445 31.6376 5.24081 28.343 5.24081 25C5.24081 13.7112 14.3009 4.55426 25.3958 4.55426C36.4908 4.55426 45.5509 13.7112 45.5509 25V25.0485V25.0969C45.6478 27.2771 44.9695 29.0213 43.6129 29.8934ZM50.0083 25V24.9515V24.9031C49.9598 11.1919 38.9133 0 25.3958 0C11.83 0 0.783447 11.1919 0.783447 25C0.783447 38.7597 11.83 50 25.3958 50C31.6458 50 37.5567 47.626 42.111 43.3139C43.0315 42.4419 43.08 41.0368 42.2079 40.1163C41.3842 39.1957 39.9792 39.1473 39.0586 39.9709C39.0586 39.9709 39.0586 39.9709 39.0102 40.0194C35.328 43.5077 30.3862 45.4942 25.299 45.4942C19.3396 45.4942 14.0102 42.8779 10.328 38.7112L20.8416 21.8508V29.6512C20.8416 33.3818 22.2951 34.593 23.5063 34.9322C24.7176 35.2713 26.5586 35.0291 28.5451 31.8798L34.3106 22.5291C34.5044 22.2384 34.6497 21.9477 34.8435 21.7539V26.5019C34.8435 29.9903 36.2486 32.8004 38.671 34.157C40.8513 35.4167 43.6129 35.2713 45.89 33.8663C48.7001 32.0252 50.202 28.8275 50.0083 25ZM84.3106 16.4729C84.892 16.812 85.4249 17.6357 85.4249 18.3624C85.4249 19.5252 84.4559 20.4942 83.3416 20.4942C83.0509 20.4942 82.8086 20.3973 82.5664 20.3488C81.2582 19.3798 79.611 18.75 77.8668 18.75C73.7486 18.75 70.9385 22.093 70.9385 26.2597C70.9385 30.4264 73.797 33.7209 77.8668 33.7209C79.9017 33.7209 81.7427 32.8973 83.0993 31.5891C83.4385 31.3469 83.8745 31.2015 84.3106 31.2015C85.4249 31.2015 86.297 32.0736 86.297 33.188C86.297 33.9147 85.861 34.5446 85.328 34.8837C83.3416 36.5795 80.6768 37.6938 77.9152 37.6938C71.6168 37.6938 66.4811 32.5097 66.4811 26.1143C66.4811 19.719 71.6168 14.5349 77.9152 14.5349C80.2408 14.4864 82.4695 15.2132 84.3106 16.4729ZM95.8416 21.3178C100.154 21.3178 103.739 24.9516 103.739 29.4574C103.739 33.9147 100.105 37.7422 95.8416 37.7422C91.3358 37.7422 87.6051 33.9632 87.6051 29.4574C87.6051 24.9516 91.3358 21.3178 95.8416 21.3178ZM95.7931 33.7209C97.6827 33.7209 99.2815 31.9283 99.2815 29.5058C99.2815 27.0833 97.6827 25.5329 95.7931 25.5329C93.7582 25.5329 92.0625 27.0349 92.0625 29.5058C92.0625 31.8798 93.7582 33.7209 95.7931 33.7209ZM106.452 35.2229V23.7888C106.452 22.5291 107.421 21.5116 108.681 21.5116C109.892 21.5116 110.909 22.5291 110.909 23.7888V35.2229C110.909 36.4826 109.892 37.5 108.681 37.5C107.469 37.5 106.452 36.4341 106.452 35.2229ZM106.113 17.1996C106.113 15.6977 107.276 14.5349 108.681 14.5349C110.134 14.5349 111.297 15.7461 111.297 17.1996C111.297 18.6531 110.134 19.8159 108.681 19.8159C107.227 19.7674 106.113 18.6046 106.113 17.1996ZM119.437 29.0213V35.2229C119.437 36.4826 118.419 37.5 117.208 37.5C115.997 37.5 114.979 36.4826 114.979 35.2229V23.2558C114.979 22.2868 115.754 21.5116 116.723 21.5116C117.692 21.5116 118.419 22.3353 118.419 23.2558C120.212 21.5601 121.811 21.3178 123.313 21.3178C127.77 21.3178 129.756 24.6609 129.756 28.4884V35.2229C129.756 36.4826 128.739 37.5 127.528 37.5C126.316 37.5 125.299 36.4826 125.299 35.2229V29.0213C125.299 27.0833 125.057 25.436 122.247 25.436C120.26 25.436 119.437 27.0833 119.437 29.0213ZM144.194 31.3954C143.661 31.3954 143.322 31.1531 143.031 30.814L137.847 25.1938V35.2229C137.847 36.4826 136.83 37.5 135.619 37.5C134.407 37.5 133.39 36.4826 133.39 35.2229V15.3585C133.535 15.0194 133.875 14.7771 134.214 14.7771C134.601 14.7771 134.94 15.1163 135.183 15.3585L143.468 24.6608C143.71 24.9515 144 25.0969 144.194 25.0969C144.34 25.0969 144.679 24.9515 144.921 24.6608L153.206 15.3585C153.448 15.1163 153.739 14.7771 154.175 14.7771C154.562 14.7771 154.902 15.0194 154.999 15.3585V35.2229C154.999 36.4826 154.03 37.5 152.77 37.5C151.559 37.5 150.541 36.4826 150.541 35.2229V25.1938L145.357 30.814C144.969 31.1531 144.63 31.3954 144.194 31.3954ZM165.609 33.7209C167.595 33.7209 169.291 31.9283 169.291 29.5058C169.291 27.0833 167.547 25.4845 165.609 25.4845C163.671 25.4845 162.072 27.1318 162.072 29.5058C162.072 31.8314 163.623 33.7209 165.609 33.7209ZM170.357 35.7558L170.26 35.2229C169.388 36.9186 166.626 37.6938 164.882 37.6938C160.716 37.6938 157.615 33.9147 157.615 29.4089C157.615 24.9516 160.764 21.2694 165.125 21.2694C165.851 21.2694 168.371 21.4632 170.309 23.7403L170.406 23.2074C170.406 22.2384 171.132 21.4632 172.101 21.4632C173.07 21.4632 173.845 22.2868 173.845 23.2074V35.7074C173.845 36.6764 173.07 37.4516 172.101 37.4516C171.084 37.5 170.357 36.6764 170.357 35.7558ZM186.103 25.436H185.619C182.809 25.5814 182.276 27.1802 182.276 29.0213V35.2229C182.276 36.4826 181.258 37.5 180.047 37.5C178.836 37.5 177.818 36.4826 177.818 35.2229V23.2558C177.818 22.2868 178.594 21.5116 179.562 21.5116C180.531 21.5116 181.258 22.3353 181.258 23.2558C182.906 21.7054 184.262 21.3663 185.619 21.3178H186.055C187.121 21.3178 188.09 22.2384 188.09 23.4012C188.138 24.4671 187.169 25.436 186.103 25.436ZM203.303 34.157C203.497 34.4961 203.642 34.8353 203.642 35.2229C203.642 36.3857 202.576 37.4516 201.413 37.4516C200.638 37.4516 199.96 36.8702 199.427 36.1919L194.291 30.2326V35.1744C194.291 36.4341 193.274 37.4516 192.062 37.4516C190.851 37.4516 189.834 36.4341 189.834 35.1744V17.0058C189.834 15.7461 190.803 14.7287 192.062 14.7287C193.322 14.7287 194.291 15.7461 194.291 17.0058V28.343L199.427 22.6744C199.96 22.093 200.59 21.4632 201.365 21.4632C202.479 21.4632 203.497 22.4806 203.497 23.6434C203.497 23.9826 203.4 24.3701 203.206 24.6608L199.136 29.1182L203.303 34.157ZM212.024 25.4845C210.812 25.4845 208.826 26.1143 208.826 28.0039H215.27C215.221 26.1143 213.187 25.4845 212.024 25.4845ZM217.838 30.8624H208.826C208.826 33.5271 211.394 33.9632 212.508 33.9632C213.332 33.9632 214.495 33.8178 215.415 33.3818C215.706 33.188 216.142 33.0426 216.578 33.0426C217.547 33.0426 218.371 33.8663 218.371 34.8837C218.371 35.562 217.935 36.1434 217.402 36.4826C216.045 37.5 214.252 37.7422 212.557 37.7422C208.051 37.7422 204.32 35.3198 204.32 29.6512C204.32 25.1938 206.597 21.3178 211.927 21.3178C216.239 21.3178 219.485 24.1279 219.582 29.1182C219.582 30.0388 218.807 30.8624 217.838 30.8624ZM230.241 37.6938H229.03C225.638 37.6938 223.652 36.1919 223.652 30.9109V25.436H222.489C221.423 25.436 220.502 24.4671 220.502 23.4012C220.502 22.2384 221.471 21.3178 222.489 21.3178H223.652V17.1027C223.652 15.843 224.621 14.8256 225.88 14.8256C227.092 14.8256 228.109 15.843 228.109 17.1027V21.3178H229.95C231.016 21.3178 231.937 22.2384 231.937 23.4012C231.937 24.4671 230.968 25.436 229.95 25.436H228.109V30.0388C228.109 33.0911 228.254 33.7209 229.611 33.7209H230.241C231.307 33.7209 232.227 34.593 232.227 35.7074C232.227 36.7733 231.307 37.6938 230.241 37.6938ZM251.801 16.4729C252.382 16.812 252.915 17.6357 252.915 18.3624C252.915 19.5252 251.946 20.4942 250.832 20.4942C250.541 20.4942 250.299 20.3973 250.057 20.3488C248.749 19.3798 247.101 18.75 245.357 18.75C241.239 18.75 238.429 22.093 238.429 26.2597C238.429 30.4264 241.287 33.7209 245.357 33.7209C247.392 33.7209 249.233 32.8973 250.59 31.5891C250.929 31.3469 251.365 31.2015 251.801 31.2015C252.915 31.2015 253.787 32.0736 253.787 33.188C253.787 33.9147 253.351 34.5446 252.818 34.8837C250.832 36.5795 248.167 37.6938 245.406 37.6938C239.107 37.6938 233.971 32.5097 233.971 26.1143C233.971 19.719 239.107 14.5349 245.406 14.5349C247.731 14.4864 250.008 15.2132 251.801 16.4729ZM263.09 33.7209C265.076 33.7209 266.772 31.9283 266.772 29.5058C266.772 27.0833 265.028 25.4845 263.09 25.4845C261.103 25.4845 259.553 27.1318 259.553 29.5058C259.553 31.8314 261.152 33.7209 263.09 33.7209ZM267.838 35.7558L267.741 35.2229C266.869 36.9186 264.107 37.6938 262.363 37.6938C258.196 37.6938 255.095 33.9147 255.095 29.4089C255.095 24.9516 258.245 21.2694 262.605 21.2694C263.332 21.2694 265.851 21.4632 267.789 23.7403L267.886 23.2074C267.886 22.2384 268.613 21.4632 269.582 21.4632C270.551 21.4632 271.326 22.2868 271.326 23.2074V35.7074C271.326 36.6764 270.551 37.4516 269.582 37.4516C268.564 37.5 267.838 36.6764 267.838 35.7558ZM283.487 33.7209C285.473 33.7209 287.024 31.8314 287.024 29.5058C287.024 27.0833 285.425 25.4845 283.487 25.4845C281.5 25.4845 279.805 27.0833 279.805 29.5058C279.805 31.9283 281.5 33.7209 283.487 33.7209ZM279.805 36.3857V42.0543C279.805 43.314 278.787 44.3314 277.576 44.3314C276.365 44.3314 275.347 43.314 275.347 42.0543V23.2558C275.347 22.2868 276.123 21.5116 277.092 21.5116C278.061 21.5116 278.787 22.3353 278.787 23.4496C280.435 21.7539 282.469 21.3178 284.02 21.3178C288.332 21.3178 291.53 24.9516 291.53 29.4574C291.53 33.9147 288.477 37.7422 284.262 37.7422C282.954 37.6938 281.016 37.3062 279.805 36.3857Z" fill="#333333" fill-opacity="0.7"/>
</svg>
