<svg width="298" height="80" viewBox="0 0 298 80" fill="none" xmlns="http://www.w3.org/2000/svg">
<path d="M46.8295 44.8935C45.9574 45.4265 44.9399 45.5234 44.1647 45.0873C43.1957 44.5059 42.6143 43.1978 42.6143 41.4052V35.9304C42.6143 33.3141 41.5969 31.4245 39.8527 30.94C36.8973 30.0679 34.6686 33.7017 33.845 35.0583L28.6124 43.44V33.1203C28.564 30.7462 27.7888 29.3412 26.3353 28.9052C25.3663 28.6145 23.9128 28.7598 22.5078 30.8916L10.8314 49.5931C9.28101 46.6377 8.45736 43.3431 8.45736 40.0001C8.45736 28.7114 17.5174 19.5544 28.6124 19.5544C39.7074 19.5544 48.7674 28.7114 48.7674 40.0001V40.0486V40.097C48.8643 42.2773 48.186 44.0214 46.8295 44.8935ZM53.2248 40.0001V39.9517V39.9032C53.1764 26.192 42.1298 15.0001 28.6124 15.0001C15.0465 15.0001 4 26.192 4 40.0001C4 53.7598 15.0465 65.0001 28.6124 65.0001C34.8624 65.0001 40.7733 62.6261 45.3275 58.3141C46.2481 57.442 46.2965 56.0369 45.4244 55.1164C44.6008 54.1959 43.1957 54.1474 42.2752 54.971C42.2752 54.971 42.2752 54.9711 42.2267 55.0195C38.5446 58.5079 33.6027 60.4943 28.5155 60.4943C22.5562 60.4943 17.2267 57.878 13.5446 53.7114L24.0581 36.8509V44.6513C24.0581 48.3819 25.5116 49.5931 26.7229 49.9323C27.9341 50.2714 29.7752 50.0292 31.7616 46.88L37.5271 37.5292C37.7209 37.2385 37.8663 36.9478 38.0601 36.754V41.5021C38.0601 44.9904 39.4651 47.8005 41.8876 49.1571C44.0678 50.4168 46.8295 50.2714 49.1066 48.8664C51.9167 47.0253 53.4186 43.8276 53.2248 40.0001ZM87.5271 31.473C88.1085 31.8121 88.6415 32.6358 88.6415 33.3625C88.6415 34.5253 87.6725 35.4943 86.5581 35.4943C86.2674 35.4943 86.0252 35.3974 85.7829 35.349C84.4748 34.38 82.8275 33.7501 81.0833 33.7501C76.9651 33.7501 74.155 37.0931 74.155 41.2598C74.155 45.4265 77.0136 48.7211 81.0833 48.7211C83.1182 48.7211 84.9593 47.8974 86.3159 46.5893C86.655 46.347 87.0911 46.2017 87.5271 46.2017C88.6415 46.2017 89.5136 47.0738 89.5136 48.1881C89.5136 48.9148 89.0775 49.5447 88.5446 49.8838C86.5581 51.5796 83.8934 52.6939 81.1318 52.6939C74.8333 52.6939 69.6977 47.5098 69.6977 41.1145C69.6977 34.7191 74.8333 29.535 81.1318 29.535C83.4574 29.4866 85.686 30.2133 87.5271 31.473ZM99.0581 36.3179C103.37 36.3179 106.955 39.9517 106.955 44.4575C106.955 48.9149 103.322 52.7424 99.0581 52.7424C94.5523 52.7424 90.8217 48.9633 90.8217 44.4575C90.8217 39.9517 94.5523 36.3179 99.0581 36.3179ZM99.0097 48.7211C100.899 48.7211 102.498 46.9284 102.498 44.5059C102.498 42.0834 100.899 40.5331 99.0097 40.5331C96.9748 40.5331 95.2791 42.035 95.2791 44.5059C95.2791 46.88 96.9748 48.7211 99.0097 48.7211ZM109.669 50.223V38.7889C109.669 37.5292 110.638 36.5117 111.897 36.5117C113.109 36.5117 114.126 37.5292 114.126 38.7889V50.223C114.126 51.4827 113.109 52.5001 111.897 52.5001C110.686 52.5001 109.669 51.4342 109.669 50.223ZM109.329 32.1997C109.329 30.6978 110.492 29.535 111.897 29.535C113.351 29.535 114.514 30.7462 114.514 32.1997C114.514 33.6532 113.351 34.816 111.897 34.816C110.444 34.7676 109.329 33.6048 109.329 32.1997ZM122.653 44.0214V50.223C122.653 51.4827 121.636 52.5001 120.424 52.5001C119.213 52.5001 118.196 51.4827 118.196 50.223V38.2559C118.196 37.2869 118.971 36.5117 119.94 36.5117C120.909 36.5117 121.636 37.3354 121.636 38.2559C123.428 36.5602 125.027 36.3179 126.529 36.3179C130.986 36.3179 132.973 39.661 132.973 43.4885V50.223C132.973 51.4827 131.955 52.5001 130.744 52.5001C129.533 52.5001 128.515 51.4827 128.515 50.223V44.0214C128.515 42.0834 128.273 40.4362 125.463 40.4362C123.477 40.4362 122.653 42.0834 122.653 44.0214ZM147.411 46.3955C146.878 46.3955 146.539 46.1532 146.248 45.8141L141.064 40.1939V50.223C141.064 51.4827 140.046 52.5001 138.835 52.5001C137.624 52.5001 136.607 51.4827 136.607 50.223V30.3587C136.752 30.0195 137.091 29.7773 137.43 29.7773C137.818 29.7773 138.157 30.1164 138.399 30.3587L146.684 39.661C146.926 39.9517 147.217 40.097 147.411 40.097C147.556 40.097 147.895 39.9517 148.138 39.661L156.422 30.3587C156.665 30.1164 156.955 29.7773 157.391 29.7773C157.779 29.7773 158.118 30.0195 158.215 30.3587V50.223C158.215 51.4827 157.246 52.5001 155.986 52.5001C154.775 52.5001 153.758 51.4827 153.758 50.223V40.1939L148.574 45.8141C148.186 46.1532 147.847 46.3955 147.411 46.3955ZM168.826 48.7211C170.812 48.7211 172.508 46.9284 172.508 44.5059C172.508 42.0834 170.764 40.4846 168.826 40.4846C166.888 40.4846 165.289 42.1319 165.289 44.5059C165.289 46.8315 166.839 48.7211 168.826 48.7211ZM173.574 50.7559L173.477 50.223C172.605 51.9187 169.843 52.6939 168.099 52.6939C163.932 52.6939 160.831 48.9149 160.831 44.409C160.831 39.9517 163.981 36.2695 168.341 36.2695C169.068 36.2695 171.587 36.4633 173.525 38.7404L173.622 38.2075C173.622 37.2385 174.349 36.4633 175.318 36.4633C176.287 36.4633 177.062 37.2869 177.062 38.2075V50.7075C177.062 51.6765 176.287 52.4517 175.318 52.4517C174.3 52.5001 173.574 51.6765 173.574 50.7559ZM189.32 40.4362H188.835C186.025 40.5815 185.492 42.1803 185.492 44.0214V50.223C185.492 51.4827 184.475 52.5001 183.264 52.5001C182.052 52.5001 181.035 51.4827 181.035 50.223V38.2559C181.035 37.2869 181.81 36.5117 182.779 36.5117C183.748 36.5117 184.475 37.3354 184.475 38.2559C186.122 36.7055 187.479 36.3664 188.835 36.3179H189.271C190.337 36.3179 191.306 37.2385 191.306 38.4013C191.355 39.4672 190.386 40.4362 189.32 40.4362ZM206.519 49.1571C206.713 49.4962 206.859 49.8354 206.859 50.223C206.859 51.3858 205.793 52.4517 204.63 52.4517C203.855 52.4517 203.176 51.8703 202.643 51.192L197.508 45.2327V50.1745C197.508 51.4342 196.49 52.4517 195.279 52.4517C194.068 52.4517 193.05 51.4342 193.05 50.1745V32.0059C193.05 30.7462 194.019 29.7288 195.279 29.7288C196.539 29.7288 197.508 30.7462 197.508 32.0059V43.3431L202.643 37.6745C203.176 37.0932 203.806 36.4633 204.581 36.4633C205.696 36.4633 206.713 37.4807 206.713 38.6435C206.713 38.9827 206.616 39.3703 206.422 39.661L202.353 44.1183L206.519 49.1571ZM215.24 40.4846C214.029 40.4846 212.043 41.1145 212.043 43.004H218.486C218.438 41.1145 216.403 40.4846 215.24 40.4846ZM221.054 45.8625H212.043C212.043 48.5273 214.61 48.9633 215.725 48.9633C216.548 48.9633 217.711 48.8179 218.632 48.3819C218.922 48.1881 219.359 48.0428 219.795 48.0428C220.764 48.0428 221.587 48.8664 221.587 49.8838C221.587 50.5621 221.151 51.1435 220.618 51.4827C219.262 52.5001 217.469 52.7424 215.773 52.7424C211.267 52.7424 207.537 50.3199 207.537 44.6513C207.537 40.1939 209.814 36.3179 215.143 36.3179C219.455 36.3179 222.702 39.128 222.798 44.1183C222.798 45.0389 222.023 45.8625 221.054 45.8625ZM233.457 52.6939H232.246C228.855 52.6939 226.868 51.192 226.868 45.911V40.4362H225.705C224.64 40.4362 223.719 39.4672 223.719 38.4013C223.719 37.2385 224.688 36.3179 225.705 36.3179H226.868V32.1028C226.868 30.8432 227.837 29.8257 229.097 29.8257C230.308 29.8257 231.326 30.8432 231.326 32.1028V36.3179H233.167C234.233 36.3179 235.153 37.2385 235.153 38.4013C235.153 39.4672 234.184 40.4362 233.167 40.4362H231.326V45.0389C231.326 48.0912 231.471 48.7211 232.827 48.7211H233.457C234.523 48.7211 235.444 49.5931 235.444 50.7075C235.444 51.7734 234.523 52.6939 233.457 52.6939ZM255.017 31.473C255.599 31.8121 256.132 32.6358 256.132 33.3625C256.132 34.5253 255.163 35.4943 254.048 35.4943C253.758 35.4943 253.515 35.3974 253.273 35.349C251.965 34.38 250.318 33.7501 248.574 33.7501C244.455 33.7501 241.645 37.0931 241.645 41.2598C241.645 45.4265 244.504 48.7211 248.574 48.7211C250.609 48.7211 252.45 47.8974 253.806 46.5893C254.145 46.347 254.581 46.2017 255.017 46.2017C256.132 46.2017 257.004 47.0738 257.004 48.1881C257.004 48.9148 256.568 49.5447 256.035 49.8838C254.048 51.5796 251.384 52.6939 248.622 52.6939C242.324 52.6939 237.188 47.5098 237.188 41.1145C237.188 34.7191 242.324 29.535 248.622 29.535C250.948 29.4866 253.225 30.2133 255.017 31.473ZM266.306 48.7211C268.293 48.7211 269.988 46.9284 269.988 44.5059C269.988 42.0834 268.244 40.4846 266.306 40.4846C264.32 40.4846 262.769 42.1319 262.769 44.5059C262.769 46.8315 264.368 48.7211 266.306 48.7211ZM271.054 50.7559L270.957 50.223C270.085 51.9187 267.324 52.6939 265.579 52.6939C261.413 52.6939 258.312 48.9149 258.312 44.409C258.312 39.9517 261.461 36.2695 265.822 36.2695C266.548 36.2695 269.068 36.4633 271.006 38.7404L271.103 38.2075C271.103 37.2385 271.829 36.4633 272.798 36.4633C273.767 36.4633 274.543 37.2869 274.543 38.2075V50.7075C274.543 51.6765 273.767 52.4517 272.798 52.4517C271.781 52.5001 271.054 51.6765 271.054 50.7559ZM286.703 48.7211C288.69 48.7211 290.24 46.8315 290.24 44.5059C290.24 42.0834 288.641 40.4846 286.703 40.4846C284.717 40.4846 283.021 42.0834 283.021 44.5059C283.021 46.9284 284.717 48.7211 286.703 48.7211ZM283.021 51.3858V57.0544C283.021 58.3141 282.004 59.3315 280.793 59.3315C279.581 59.3315 278.564 58.3141 278.564 57.0544V38.2559C278.564 37.2869 279.339 36.5117 280.308 36.5117C281.277 36.5117 282.004 37.3354 282.004 38.4497C283.651 36.754 285.686 36.3179 287.236 36.3179C291.548 36.3179 294.746 39.9517 294.746 44.4575C294.746 48.9149 291.694 52.7424 287.479 52.7424C286.171 52.6939 284.233 52.3063 283.021 51.3858Z" fill="#333333" fill-opacity="0.7"/>
</svg>
