<svg width="64" height="70" viewBox="0 0 64 70" fill="none" xmlns="http://www.w3.org/2000/svg">
<path d="M58.5175 62.8205L61.482 65.8718V62.8205H63.7279V70H61.5719L58.6074 66.7692V70H56.4514V62.8205H58.5175ZM18.6317 62.8205V70H16.5655V68.4744H13.601V70H11.5349V62.8205H18.6317ZM52.7682 62.7308V64.7949H47.6477V65.3333H52.7682V67.3974H47.6477V67.9359H52.7682V70H45.6714V62.8205H46.3002V62.7308H52.7682ZM2.82105 62.8205V65.2436H5.78553V62.8205H8.03136V70H5.87536V67.4872H2.91088V70H0.754883V62.8205H2.82105ZM30.3998 62.7308V64.7949H24.5606V67.9359H30.3998V70H22.3148V62.8205H23.3928V62.7308H30.3998ZM36.2389 62.8205V65.2436H39.7424V62.8205H42.1679V65.2436L40.0119 67.3974H42.1679V70H39.8323V67.4872H36.3288V70H33.9931V62.8205H36.2389ZM16.6553 64.8846H13.6908V66.3205H16.6553V64.8846ZM4.3482 0L4.34794 27.8199H7.941L7.94153 0H11.6247V27.7308H60.0442V24.2308H16.0265V0H19.6198V20.4615L60.0442 20.4609V16.1538H22.3148V0H25.998V12.5641H37.5863L37.5864 0H41.1798L41.1793 12.5641H45.6714V0H49.2647L49.2645 12.5641H52.8575L52.8581 0H56.4514L56.4512 12.5641H60.0442L60.0447 0H63.638V59.2308H60.0447L60.0442 31.4103H56.4512L56.4514 59.2308H52.7682V31.5L4.34794 31.4994V34.9994L49.2647 35V59.2308H45.6714V38.7692L4.34794 38.7686V43.0763L42.0781 43.0769V59.2308H38.3949V46.6667L26.8059 46.6661L26.8065 59.2308H23.2131L23.2129 46.6661H18.7214L18.7215 59.2308H15.1282L15.1277 46.6661H11.5347L11.5349 59.2308H7.94153L7.941 46.6661H4.34794L4.3482 59.2308H0.754883V0H4.3482Z" fill="#76D9A9"/>
</svg>
