<svg width="64" height="70" viewBox="0 0 64 70" fill="none" xmlns="http://www.w3.org/2000/svg">
<path d="M58.5447 62.8205L61.5092 65.8718V62.8205H63.755V70H61.599L58.6345 66.7692V70H56.4785V62.8205H58.5447ZM18.6588 62.8205V70H16.5927V68.4744H13.6282V70H11.562V62.8205H18.6588ZM52.7954 62.7308V64.7949H47.6749V65.3333H52.7954V67.3974H47.6749V67.9359H52.7954V70H45.6986V62.8205H46.3274V62.7308H52.7954ZM2.84821 62.8205V65.2436H5.81269V62.8205H8.05852V70H5.90252V67.4872H2.93804V70H0.782043V62.8205H2.84821ZM30.4269 62.7308V64.7949H24.5878V67.9359H30.4269V70H22.342V62.8205H23.42V62.7308H30.4269ZM36.2661 62.8205V65.2436H39.7696V62.8205H42.1951V65.2436L40.0391 67.3974H42.1951V70H39.8594V67.4872H36.3559V70H34.0203V62.8205H36.2661ZM16.6825 64.8846H13.718V66.3205H16.6825V64.8846ZM4.37537 0L4.3751 27.8199H7.96816L7.96869 0H11.6518V27.7308H60.0714V24.2308H16.0537V0H19.647V20.4615L60.0714 20.4609V16.1538H22.342V0H26.0251V12.5641H37.6134L37.6136 0H41.2069L41.2065 12.5641H45.6986V0H49.2919L49.2916 12.5641H52.8847L52.8852 0H56.4785L56.4783 12.5641H60.0714L60.0719 0H63.6652V59.2308H60.0719L60.0714 31.4103H56.4783L56.4785 59.2308H52.7954V31.5L4.3751 31.4994V34.9994L49.2919 35V59.2308H45.6986V38.7692L4.3751 38.7686V43.0763L42.1053 43.0769V59.2308H38.4221V46.6667L26.8331 46.6661L26.8336 59.2308H23.2403L23.24 46.6661H18.7485L18.7487 59.2308H15.1553L15.1549 46.6661H11.5618L11.562 59.2308H7.96869L7.96816 46.6661H4.3751L4.37537 59.2308H0.782043V0H4.37537Z" fill="#333333" fill-opacity="0.7"/>
</svg>
