<svg width="397" height="80" viewBox="0 0 397 80" fill="none" xmlns="http://www.w3.org/2000/svg">
<path d="M69.0156 29.5279C70.7007 29.4851 72.3697 29.8655 73.8697 30.6345C75.2069 31.3433 76.3048 32.4315 77.0255 33.7624C77.7856 35.2021 78.1664 36.8117 78.132 38.4394C78.1232 39.261 78.0443 40.0804 77.896 40.8886C77.5958 42.7521 76.8748 44.5226 75.7878 46.0657C74.7386 47.5499 73.3467 48.7589 71.7304 49.5902C70.0602 50.4457 68.2068 50.8817 66.3304 50.8607C64.631 50.9045 62.9475 50.5242 61.432 49.7542C60.0934 49.0533 58.9946 47.9688 58.2763 46.6394C57.5245 45.2036 57.1483 43.6008 57.1828 41.9804C57.1897 41.1391 57.2687 40.3 57.4189 39.4722C57.7193 37.608 58.4409 35.8369 59.5287 34.2935C60.5787 32.8077 61.9769 31.6021 63.6009 30.782C65.2797 29.9374 67.1364 29.5074 69.0156 29.5279ZM68.691 33.364C66.9629 33.3401 65.2924 33.985 64.0287 35.164C62.6656 36.448 61.7721 38.1519 61.491 40.0034C61.4015 40.5498 61.3522 41.1021 61.3435 41.6558C61.3435 43.3083 61.8156 44.6116 62.7599 45.5656C63.7042 46.5197 65.002 46.9968 66.6533 46.9968C67.796 47.0062 68.9226 46.7271 69.9287 46.1853C70.949 45.629 71.8196 44.8343 72.4664 43.8689C73.1751 42.8143 73.6388 41.6145 73.8238 40.3575C73.9278 39.8035 73.9772 39.2407 73.9714 38.6771C73.9714 37.0247 73.4992 35.7269 72.555 34.7837C71.6107 33.8405 70.3227 33.3673 68.691 33.364ZM92.3271 34.1017C94.1369 34.1017 95.5779 34.6618 96.6501 35.782C97.7222 36.9023 98.2583 38.4564 98.2583 40.4443C98.2554 41.1267 98.1962 41.8077 98.0812 42.4804C97.813 44.0745 97.2204 45.5967 96.3402 46.9525C95.5598 48.16 94.4954 49.158 93.2402 49.8591C92.0492 50.5198 90.7088 50.8646 89.3468 50.8607C88.1511 50.9161 86.9716 50.5679 85.9976 49.8722C85.1487 49.2257 84.5741 48.2835 84.3878 47.2329L82.4123 58.446H78.2517L82.5025 34.3083H86.6615L86.0419 37.7017C86.6428 36.6091 87.5304 35.7011 88.6091 35.0755C89.737 34.4193 91.0223 34.0826 92.3271 34.1017ZM88.6976 47.2034C89.9276 47.2217 91.1189 46.7736 92.032 45.9493C93.0185 45.0353 93.6639 43.8123 93.8615 42.482C93.9173 42.1108 93.9469 41.7361 93.9501 41.3607C93.9815 40.8714 93.9127 40.3809 93.7478 39.9191C93.5829 39.4574 93.3253 39.0342 92.991 38.6755C92.6362 38.3497 92.2197 38.0985 91.7661 37.9366C91.3124 37.7746 90.8309 37.7054 90.3501 37.7329C89.1162 37.7232 87.9245 38.1819 87.0156 39.0165C86.0228 39.9256 85.3762 41.151 85.1861 42.4837C85.129 42.8349 85.0994 43.1901 85.0976 43.546C85.0702 44.0371 85.1437 44.5286 85.3138 44.9902C85.4838 45.4518 85.7467 45.8736 86.0861 46.2296C86.4335 46.5592 86.8439 46.8153 87.2926 46.9826C87.7413 47.15 88.2192 47.225 88.6976 47.2034ZM105.281 44.9591C105.237 45.1924 105.217 45.4298 105.222 45.6673C105.199 45.8712 105.224 46.0778 105.296 46.2701C105.368 46.4624 105.484 46.635 105.635 46.7738C106.045 47.0148 106.519 47.123 106.993 47.0837H108.616L107.966 50.6558H105.781C104.227 50.6558 103.037 50.3416 102.211 49.7132C101.384 49.0848 100.971 48.052 100.971 46.6148C100.976 46.04 101.035 45.4669 101.148 44.9034L102.388 37.8214H100.117L100.737 34.3099H103.009L103.717 30.2673H107.907L107.199 34.3099H110.799L110.18 37.8214H106.55L105.281 44.9591ZM114.488 30.0279C114.481 29.665 114.554 29.3049 114.702 28.9734C114.849 28.6419 115.069 28.3471 115.344 28.1099C115.938 27.5896 116.708 27.3152 117.498 27.3427C118.07 27.31 118.634 27.4944 119.076 27.8591C119.264 28.0272 119.413 28.2345 119.513 28.4666C119.612 28.6986 119.659 28.9495 119.65 29.2017C119.659 29.5613 119.588 29.9183 119.442 30.2473C119.297 30.5764 119.081 30.8692 118.809 31.105C118.217 31.6181 117.452 31.8871 116.67 31.8575C116.09 31.893 115.518 31.7145 115.062 31.3558C114.873 31.1916 114.724 30.9872 114.624 30.7578C114.525 30.5283 114.478 30.2795 114.488 30.0296V30.0279ZM118.324 34.3066L115.432 50.6558H111.273L114.165 34.3083L118.324 34.3066ZM142.934 34.0706C144.625 34.0706 145.939 34.5279 146.873 35.4427C147.807 36.3575 148.275 37.6706 148.275 39.382C148.278 39.9754 148.228 40.5679 148.127 41.1525L146.445 50.6558H142.284L143.907 41.6263C143.964 41.2949 143.994 40.9593 143.996 40.623C144.023 40.2259 143.965 39.8276 143.828 39.4539C143.691 39.0803 143.477 38.7397 143.199 38.4542C142.588 37.9237 141.794 37.6536 140.986 37.7017C139.911 37.671 138.863 38.0448 138.05 38.7493C137.189 39.5683 136.633 40.6557 136.471 41.8329L134.907 50.6558H130.747L132.37 41.6263C132.427 41.2949 132.456 40.9593 132.458 40.623C132.485 40.2259 132.428 39.8276 132.29 39.4539C132.153 39.0803 131.939 38.7397 131.662 38.4542C131.051 37.9237 130.256 37.6536 129.448 37.7017C128.357 37.676 127.297 38.0664 126.483 38.7935C125.605 39.6417 125.047 40.7677 124.904 41.9804V41.8329L123.37 50.6558H119.18L122.071 34.3083H126.232L125.699 37.3771C126.285 36.3579 127.137 35.5166 128.163 34.9427C129.204 34.3603 130.379 34.0602 131.571 34.0722C132.736 34.0263 133.885 34.3569 134.847 35.0148C135.733 35.6769 136.343 36.6441 136.558 37.7296C137.249 36.6249 138.202 35.7076 139.332 35.0591C140.423 34.4142 141.666 34.0734 142.934 34.0722V34.0706ZM153.291 30.0279C153.284 29.665 153.357 29.3049 153.505 28.9734C153.653 28.6419 153.872 28.3471 154.147 28.1099C154.741 27.5896 155.511 27.3152 156.301 27.3427C156.873 27.31 157.437 27.4944 157.88 27.8591C158.068 28.0272 158.217 28.2345 158.316 28.4666C158.415 28.6986 158.462 28.9495 158.453 29.2017C158.462 29.5613 158.391 29.9183 158.246 30.2473C158.1 30.5764 157.884 30.8692 157.612 31.105C157.02 31.6181 156.256 31.8871 155.473 31.8575C154.894 31.893 154.321 31.7145 153.865 31.3558C153.676 31.1916 153.527 30.9872 153.428 30.7578C153.328 30.5283 153.282 30.2795 153.291 30.0296V30.0279ZM157.127 34.3066L154.235 50.6558H150.075L152.966 34.3083L157.127 34.3066ZM165.775 34.1017C167.978 34.1017 169.655 34.5984 170.806 35.5919C171.381 36.0959 171.845 36.7145 172.168 37.4081C172.49 38.1017 172.665 38.8549 172.68 39.6197H168.607C168.615 39.2589 168.542 38.901 168.394 38.5718C168.246 38.2426 168.026 37.9505 167.752 37.7165C167.082 37.2161 166.255 36.9703 165.421 37.023C164.778 36.993 164.142 37.1687 163.606 37.5247C163.386 37.6747 163.207 37.8776 163.086 38.1148C162.965 38.352 162.905 38.6158 162.912 38.882C162.91 39.1571 162.988 39.4269 163.137 39.6578C163.287 39.8887 163.501 40.0705 163.753 40.1804C164.59 40.5747 165.465 40.8813 166.365 41.0952C167.311 41.3622 168.241 41.6824 169.152 42.0542C169.865 42.3555 170.5 42.8145 171.011 43.3968C171.554 44.0487 171.833 44.8804 171.793 45.7279C171.792 46.1048 171.753 46.4806 171.675 46.8493C171.554 47.4478 171.311 48.0149 170.961 48.5148C170.61 49.0148 170.16 49.4368 169.639 49.7542C168.517 50.4919 167.022 50.8607 165.153 50.8607C163.009 50.8607 161.292 50.3744 160.003 49.4017C159.372 48.9321 158.863 48.3191 158.517 47.6136C158.17 46.9081 157.997 46.1302 158.011 45.3443H162.083C162.043 45.7055 162.099 46.0708 162.247 46.4027C162.395 46.7346 162.628 47.0212 162.924 47.2329C163.683 47.7461 164.591 47.9949 165.506 47.9411C166.15 47.9851 166.789 47.796 167.306 47.4083C167.505 47.2437 167.664 47.036 167.772 46.8008C167.879 46.5657 167.932 46.3093 167.925 46.0509C167.931 45.8491 167.892 45.6486 167.814 45.4628C167.735 45.277 167.617 45.1103 167.468 44.9738C167.139 44.6738 166.752 44.443 166.332 44.2952C165.88 44.1279 165.23 43.9263 164.384 43.6902C163.463 43.4419 162.557 43.1409 161.67 42.7886C160.986 42.507 160.379 42.067 159.899 41.505C159.386 40.8734 159.124 40.0751 159.162 39.2624C159.163 38.9065 159.193 38.5513 159.25 38.2001C159.361 37.5922 159.598 37.0144 159.947 36.5041C160.295 35.9938 160.747 35.5624 161.273 35.2378C162.404 34.4804 163.904 34.1017 165.773 34.1017H165.775ZM197.466 34.0722C199.158 34.0722 200.471 34.5296 201.406 35.4443C202.34 36.3591 202.807 37.6722 202.807 39.3837C202.81 39.977 202.761 40.5695 202.66 41.1542L200.976 50.6558H196.816L198.439 41.6263C198.496 41.2949 198.525 40.9593 198.527 40.623C198.554 40.2259 198.496 39.8276 198.359 39.4539C198.222 39.0803 198.008 38.7397 197.73 38.4542C197.119 37.9237 196.325 37.6536 195.517 37.7017C194.442 37.671 193.394 38.0448 192.581 38.7493C191.72 39.5683 191.164 40.6557 191.003 41.8329L189.439 50.6558H185.278L186.901 41.6263C186.958 41.2949 186.988 40.9593 186.989 40.623C187.016 40.2259 186.959 39.8276 186.822 39.4539C186.684 39.0803 186.47 38.7397 186.193 38.4542C185.582 37.9237 184.787 37.6536 183.98 37.7017C182.888 37.676 181.828 38.0664 181.014 38.7935C180.136 39.6417 179.578 40.7677 179.435 41.9804V41.8329L177.901 50.6558H173.711L176.601 34.3083H180.762L180.229 37.3771C180.815 36.3579 181.666 35.5166 182.693 34.9427C183.733 34.3603 184.908 34.0602 186.101 34.0722C187.266 34.0263 188.414 34.3569 189.376 35.0148C190.263 35.6769 190.873 36.6441 191.088 37.7296C191.779 36.6249 192.731 35.7076 193.862 35.0591C194.953 34.4139 196.197 34.0731 197.465 34.0722H197.466Z" fill="black"/>
<path d="M25.0024 64.9999C38.8096 64.9999 50.0024 53.807 50.0024 39.9999C50.0024 26.1928 38.8096 14.9999 25.0024 14.9999C11.1953 14.9999 0.00244141 26.1928 0.00244141 39.9999C0.00244141 53.807 11.1953 64.9999 25.0024 64.9999Z" fill="#FF0420"/>
<path d="M17.7078 46.6298C16.4071 46.6853 15.1235 46.3167 14.0505 45.5794C13.5869 45.2253 13.2165 44.7636 12.9715 44.2343C12.7264 43.7049 12.614 43.1239 12.6439 42.5413C12.6496 42.2018 12.681 41.8633 12.7377 41.5286C12.9003 40.6269 13.1316 39.5454 13.4316 38.2839C14.2819 34.8454 16.4761 33.1261 20.0144 33.1261C20.9012 33.1116 21.7818 33.2775 22.6025 33.6138C23.331 33.8994 23.9579 34.3956 24.4029 35.0392C24.8517 35.7024 25.081 36.4896 25.0586 37.2901C25.0522 37.6232 25.0208 37.9554 24.9648 38.2839C24.7771 39.3968 24.5521 40.4783 24.2898 41.5286C23.8526 43.2414 23.0962 44.523 22.0205 45.3733C20.9459 46.211 19.5084 46.6298 17.7078 46.6298ZM17.9705 43.929C18.6201 43.947 19.2539 43.7269 19.7525 43.3101C20.3036 42.8104 20.6785 42.146 20.8214 41.4159C21.1091 40.241 21.3276 39.2157 21.4771 38.3401C21.5274 38.0742 21.5525 37.8041 21.5521 37.5335C21.5521 36.3955 20.9582 35.8267 19.7705 35.8269C19.1157 35.8112 18.4769 36.0308 17.9701 36.4458C17.4292 36.9508 17.0616 37.6138 16.9197 38.3401C16.6946 39.1778 16.4696 40.203 16.2447 41.4159C16.1938 41.6753 16.1687 41.9392 16.1697 42.2036C16.1697 43.3539 16.77 43.929 17.9705 43.929Z" fill="white"/>
<path d="M25.9225 46.4424C25.8629 46.4459 25.8033 46.4359 25.7481 46.4132C25.6929 46.3905 25.6435 46.3557 25.6036 46.3113C25.5412 46.2105 25.5211 46.0891 25.5475 45.9736L28.1356 33.7826C28.1585 33.6481 28.2318 33.5273 28.3405 33.4449C28.441 33.3619 28.5668 33.3157 28.6971 33.3137H33.686C34.8606 33.2561 36.0249 33.557 37.0245 34.1764C37.4355 34.4456 37.7693 34.8173 37.9929 35.2547C38.2165 35.6922 38.3224 36.1803 38.2999 36.6711C38.2981 36.9994 38.2603 37.3265 38.1872 37.6465C37.9804 38.9102 37.3038 40.0491 36.293 40.835C35.3553 41.5227 34.0674 41.8666 32.4294 41.8666H29.8979L29.0352 45.974C29.0122 46.1085 28.939 46.2292 28.8303 46.3117C28.7299 46.3945 28.6043 46.4408 28.4741 46.4428L25.9225 46.4424ZM32.5618 39.2777C33.0532 39.2885 33.5345 39.137 33.9311 38.8465C34.3391 38.5469 34.6201 38.1053 34.7188 37.6088C34.7536 37.4232 34.7724 37.2349 34.7749 37.0461C34.7856 36.8936 34.7626 36.7405 34.7074 36.5979C34.6523 36.4552 34.5665 36.3265 34.4561 36.2207C34.1431 35.9896 33.7556 35.8827 33.3684 35.9207H31.118L30.4053 39.2777H32.5618Z" fill="white"/>
</svg>
