<svg width="398" height="80" viewBox="0 0 398 80" fill="none" xmlns="http://www.w3.org/2000/svg">
<path d="M70.0131 29.5279C71.6982 29.4851 73.3671 29.8655 74.8672 30.6345C76.2043 31.3433 77.3022 32.4315 78.0229 33.7624C78.783 35.2021 79.1638 36.8117 79.1295 38.4394C79.1207 39.261 79.0417 40.0804 78.8934 40.8886C78.5932 42.7521 77.8722 44.5226 76.7852 46.0657C75.736 47.5499 74.3442 48.7589 72.7278 49.5902C71.0576 50.4457 69.2043 50.8817 67.3278 50.8607C65.6285 50.9045 63.945 50.5242 62.4295 49.7542C61.0909 49.0533 59.992 47.9688 59.2737 46.6394C58.5219 45.2036 58.1458 43.6008 58.1803 41.9804C58.1871 41.1391 58.2661 40.3 58.4163 39.4722C58.7168 37.608 59.4383 35.8369 60.5262 34.2935C61.5761 32.8077 62.9743 31.6021 64.5983 30.782C66.2771 29.9374 68.1339 29.5074 70.0131 29.5279ZM69.6885 33.364C67.9604 33.3401 66.2899 33.985 65.0262 35.164C63.663 36.448 62.7695 38.1519 62.4885 40.0034C62.3989 40.5498 62.3496 41.1021 62.3409 41.6558C62.3409 43.3083 62.8131 44.6116 63.7573 45.5656C64.7016 46.5197 65.9994 46.9968 67.6508 46.9968C68.7935 47.0062 69.92 46.7271 70.9262 46.1853C71.9464 45.629 72.817 44.8343 73.4639 43.8689C74.1725 42.8143 74.6363 41.6145 74.8213 40.3575C74.9252 39.8035 74.9746 39.2407 74.9688 38.6771C74.9688 37.0247 74.4967 35.7269 73.5524 34.7837C72.6081 33.8405 71.3202 33.3673 69.6885 33.364ZM93.3245 34.1017C95.1344 34.1017 96.5754 34.6618 97.6475 35.782C98.7196 36.9023 99.2557 38.4564 99.2557 40.4443C99.2528 41.1267 99.1936 41.8077 99.0786 42.4804C98.8104 44.0745 98.2179 45.5967 97.3377 46.9525C96.5572 48.16 95.4929 49.158 94.2377 49.8591C93.0466 50.5198 91.7062 50.8646 90.3442 50.8607C89.1486 50.9161 87.969 50.5679 86.995 49.8722C86.1462 49.2257 85.5715 48.2835 85.3852 47.2329L83.4098 58.446H79.2491L83.5 34.3083H87.659L87.0393 37.7017C87.6403 36.6091 88.5279 35.7011 89.6065 35.0755C90.7344 34.4193 92.0198 34.0826 93.3245 34.1017ZM89.695 47.2034C90.925 47.2217 92.1164 46.7736 93.0295 45.9493C94.016 45.0353 94.6613 43.8123 94.859 42.482C94.9148 42.1108 94.9443 41.7361 94.9475 41.3607C94.979 40.8714 94.9101 40.3809 94.7452 39.9191C94.5803 39.4574 94.3228 39.0342 93.9885 38.6755C93.6337 38.3497 93.2171 38.0985 92.7635 37.9366C92.3099 37.7746 91.8284 37.7054 91.3475 37.7329C90.1136 37.7232 88.922 38.1819 88.0131 39.0165C87.0202 39.9256 86.3736 41.151 86.1836 42.4837C86.1264 42.8349 86.0968 43.1901 86.095 43.546C86.0676 44.0371 86.1412 44.5286 86.3112 44.9902C86.4812 45.4518 86.7441 45.8736 87.0836 46.2296C87.431 46.5592 87.8413 46.8153 88.29 46.9826C88.7388 47.15 89.2166 47.225 89.695 47.2034ZM106.279 44.9591C106.234 45.1924 106.214 45.4298 106.22 45.6673C106.196 45.8712 106.222 46.0778 106.293 46.2701C106.365 46.4624 106.482 46.635 106.633 46.7738C107.042 47.0148 107.517 47.123 107.99 47.0837H109.613L108.964 50.6558H106.779C105.225 50.6558 104.034 50.3416 103.208 49.7132C102.382 49.0848 101.969 48.052 101.969 46.6148C101.973 46.04 102.033 45.4669 102.146 44.9034L103.385 37.8214H101.115L101.734 34.3099H104.007L104.715 30.2673H108.905L108.197 34.3099H111.797L111.177 37.8214H107.547L106.279 44.9591ZM115.485 30.0279C115.478 29.665 115.551 29.3049 115.699 28.9734C115.847 28.6419 116.066 28.3471 116.341 28.1099C116.935 27.5896 117.706 27.3152 118.495 27.3427C119.068 27.31 119.631 27.4944 120.074 27.8591C120.262 28.0272 120.411 28.2345 120.51 28.4666C120.609 28.6986 120.656 28.9495 120.647 29.2017C120.656 29.5613 120.585 29.9183 120.44 30.2473C120.294 30.5764 120.078 30.8692 119.807 31.105C119.215 31.6181 118.45 31.8871 117.667 31.8575C117.088 31.893 116.515 31.7145 116.059 31.3558C115.87 31.1916 115.721 30.9872 115.622 30.7578C115.522 30.5283 115.476 30.2795 115.485 30.0296V30.0279ZM119.321 34.3066L116.429 50.6558H112.27L115.162 34.3083L119.321 34.3066ZM143.931 34.0706C145.623 34.0706 146.936 34.5279 147.87 35.4427C148.805 36.3575 149.272 37.6706 149.272 39.382C149.275 39.9754 149.226 40.5679 149.125 41.1525L147.443 50.6558H143.282L144.905 41.6263C144.962 41.2949 144.992 40.9593 144.993 40.623C145.02 40.2259 144.963 39.8276 144.826 39.4539C144.688 39.0803 144.474 38.7397 144.197 38.4542C143.586 37.9237 142.791 37.6536 141.984 37.7017C140.908 37.671 139.861 38.0448 139.047 38.7493C138.187 39.5683 137.63 40.6557 137.469 41.8329L135.905 50.6558H131.744L133.367 41.6263C133.424 41.2949 133.454 40.9593 133.456 40.623C133.482 40.2259 133.425 39.8276 133.288 39.4539C133.151 39.0803 132.936 38.7397 132.659 38.4542C132.048 37.9237 131.254 37.6536 130.446 37.7017C129.355 37.676 128.294 38.0664 127.48 38.7935C126.602 39.6417 126.044 40.7677 125.902 41.9804V41.8329L124.367 50.6558H120.177L123.069 34.3083H127.229L126.697 37.3771C127.283 36.3579 128.134 35.5166 129.161 34.9427C130.201 34.3603 131.376 34.0602 132.569 34.0722C133.734 34.0263 134.882 34.3569 135.844 35.0148C136.731 35.6769 137.341 36.6441 137.556 37.7296C138.247 36.6249 139.199 35.7076 140.329 35.0591C141.42 34.4142 142.664 34.0734 143.931 34.0722V34.0706ZM154.288 30.0279C154.281 29.665 154.354 29.3049 154.502 28.9734C154.65 28.6419 154.869 28.3471 155.144 28.1099C155.739 27.5896 156.509 27.3152 157.298 27.3427C157.871 27.31 158.435 27.4944 158.877 27.8591C159.065 28.0272 159.214 28.2345 159.313 28.4666C159.412 28.6986 159.459 28.9495 159.451 29.2017C159.459 29.5613 159.388 29.9183 159.243 30.2473C159.098 30.5764 158.881 30.8692 158.61 31.105C158.018 31.6181 157.253 31.8871 156.47 31.8575C155.891 31.893 155.319 31.7145 154.862 31.3558C154.674 31.1916 154.524 30.9872 154.425 30.7578C154.326 30.5283 154.279 30.2795 154.288 30.0296V30.0279ZM158.125 34.3066L155.233 50.6558H151.072L153.964 34.3083L158.125 34.3066ZM166.772 34.1017C168.975 34.1017 170.652 34.5984 171.803 35.5919C172.379 36.0959 172.842 36.7145 173.165 37.4081C173.488 38.1017 173.662 38.8549 173.677 39.6197H169.605C169.612 39.2589 169.539 38.901 169.391 38.5718C169.243 38.2426 169.024 37.9505 168.749 37.7165C168.079 37.2161 167.253 36.9703 166.418 37.023C165.775 36.993 165.139 37.1687 164.603 37.5247C164.383 37.6747 164.204 37.8776 164.083 38.1148C163.962 38.352 163.902 38.6158 163.91 38.882C163.907 39.1571 163.985 39.4269 164.135 39.6578C164.284 39.8887 164.499 40.0705 164.751 40.1804C165.587 40.5747 166.462 40.8813 167.362 41.0952C168.308 41.3622 169.239 41.6824 170.149 42.0542C170.862 42.3555 171.498 42.8145 172.008 43.3968C172.551 44.0487 172.83 44.8804 172.79 45.7279C172.79 46.1048 172.75 46.4806 172.672 46.8493C172.552 47.4478 172.309 48.0149 171.958 48.5148C171.608 49.0148 171.158 49.4368 170.636 49.7542C169.515 50.4919 168.02 50.8607 166.151 50.8607C164.007 50.8607 162.29 50.3744 161 49.4017C160.37 48.9321 159.86 48.3191 159.514 47.6136C159.168 46.9081 158.994 46.1302 159.008 45.3443H163.08C163.04 45.7055 163.097 46.0708 163.245 46.4027C163.392 46.7346 163.626 47.0212 163.921 47.2329C164.681 47.7461 165.588 47.9949 166.503 47.9411C167.148 47.9851 167.787 47.796 168.303 47.4083C168.503 47.2437 168.662 47.036 168.769 46.8008C168.876 46.5657 168.929 46.3093 168.923 46.0509C168.928 45.8491 168.89 45.6486 168.811 45.4628C168.732 45.277 168.614 45.1103 168.466 44.9738C168.136 44.6738 167.75 44.443 167.329 44.2952C166.877 44.1279 166.228 43.9263 165.382 43.6902C164.46 43.4419 163.554 43.1409 162.667 42.7886C161.984 42.507 161.377 42.067 160.897 41.505C160.384 40.8734 160.121 40.0751 160.159 39.2624C160.161 38.9065 160.19 38.5513 160.247 38.2001C160.358 37.5922 160.596 37.0144 160.944 36.5041C161.293 35.9938 161.745 35.5624 162.27 35.2378C163.402 34.4804 164.902 34.1017 166.77 34.1017H166.772ZM198.464 34.0722C200.156 34.0722 201.469 34.5296 202.403 35.4443C203.338 36.3591 203.805 37.6722 203.805 39.3837C203.808 39.977 203.759 40.5695 203.657 41.1542L201.974 50.6558H197.813L199.436 41.6263C199.493 41.2949 199.523 40.9593 199.525 40.623C199.551 40.2259 199.494 39.8276 199.357 39.4539C199.219 39.0803 199.005 38.7397 198.728 38.4542C198.117 37.9237 197.322 37.6536 196.515 37.7017C195.439 37.671 194.392 38.0448 193.579 38.7493C192.718 39.5683 192.161 40.6557 192 41.8329L190.436 50.6558H186.275L187.898 41.6263C187.955 41.2949 187.985 40.9593 187.987 40.623C188.013 40.2259 187.956 39.8276 187.819 39.4539C187.682 39.0803 187.467 38.7397 187.19 38.4542C186.579 37.9237 185.785 37.6536 184.977 37.7017C183.886 37.676 182.826 38.0664 182.011 38.7935C181.133 39.6417 180.575 40.7677 180.433 41.9804V41.8329L178.898 50.6558H174.708L177.598 34.3083H181.759L181.226 37.3771C181.812 36.3579 182.664 35.5166 183.69 34.9427C184.731 34.3603 185.906 34.0602 187.098 34.0722C188.263 34.0263 189.412 34.3569 190.374 35.0148C191.26 35.6769 191.87 36.6441 192.085 37.7296C192.776 36.6249 193.729 35.7076 194.859 35.0591C195.95 34.4139 197.195 34.0731 198.462 34.0722H198.464Z" fill="#333333" fill-opacity="0.7"/>
<path d="M26 64.9999C39.8071 64.9999 51 53.807 51 39.9999C51 26.1928 39.8071 14.9999 26 14.9999C12.1929 14.9999 1 26.1928 1 39.9999C1 53.807 12.1929 64.9999 26 64.9999Z" fill="#333333" fill-opacity="0.7"/>
<path d="M18.7054 46.6298C17.4046 46.6853 16.1211 46.3167 15.048 45.5794C14.5844 45.2253 14.2141 44.7636 13.969 44.2343C13.7239 43.7049 13.6115 43.1239 13.6415 42.5413C13.6472 42.2018 13.6785 41.8633 13.7353 41.5286C13.8979 40.6269 14.1292 39.5454 14.4292 38.2839C15.2794 34.8454 17.4737 33.1261 21.0119 33.1261C21.8988 33.1116 22.7793 33.2775 23.6001 33.6138C24.3286 33.8994 24.9554 34.3956 25.4005 35.0392C25.8493 35.7024 26.0786 36.4896 26.0562 37.2901C26.0498 37.6232 26.0184 37.9554 25.9624 38.2839C25.7747 39.3968 25.5497 40.4783 25.2874 41.5286C24.8502 43.2414 24.0938 44.523 23.0181 45.3733C21.9435 46.211 20.5059 46.6298 18.7054 46.6298ZM18.9681 43.929C19.6177 43.947 20.2514 43.7269 20.7501 43.3101C21.3011 42.8104 21.676 42.146 21.8189 41.4159C22.1066 40.241 22.3252 39.2157 22.4747 38.3401C22.525 38.0742 22.5501 37.8041 22.5497 37.5335C22.5497 36.3955 21.9558 35.8267 20.7681 35.8269C20.1133 35.8112 19.4745 36.0308 18.9677 36.4458C18.4268 36.9508 18.0592 37.6138 17.9173 38.3401C17.6921 39.1778 17.4671 40.203 17.2423 41.4159C17.1914 41.6753 17.1663 41.9392 17.1673 42.2036C17.1673 43.3539 17.7675 43.929 18.9681 43.929Z" fill="white"/>
<path d="M26.92 46.4424C26.8604 46.4459 26.8008 46.4359 26.7456 46.4132C26.6904 46.3905 26.6411 46.3557 26.6012 46.3113C26.5388 46.2105 26.5186 46.0891 26.545 45.9736L29.1331 33.7826C29.156 33.6481 29.2293 33.5273 29.3381 33.4449C29.4386 33.3619 29.5643 33.3157 29.6946 33.3137H34.6836C35.8581 33.2561 37.0225 33.557 38.0221 34.1764C38.4331 34.4456 38.7668 34.8173 38.9905 35.2547C39.2141 35.6922 39.3199 36.1803 39.2975 36.6711C39.2957 36.9994 39.2579 37.3265 39.1848 37.6465C38.978 38.9102 38.3014 40.0491 37.2905 40.835C36.3528 41.5227 35.065 41.8666 33.427 41.8666H30.8954L30.0327 45.974C30.0098 46.1085 29.9365 46.2292 29.8278 46.3117C29.7274 46.3945 29.6018 46.4408 29.4717 46.4428L26.92 46.4424ZM33.5594 39.2777C34.0508 39.2885 34.5321 39.137 34.9286 38.8465C35.3366 38.5469 35.6177 38.1053 35.7163 37.6088C35.7512 37.4232 35.77 37.2349 35.7725 37.0461C35.7831 36.8936 35.7601 36.7405 35.705 36.5979C35.6499 36.4552 35.5641 36.3265 35.4536 36.2207C35.1407 35.9896 34.7531 35.8827 34.3659 35.9207H32.1155L31.4028 39.2777H33.5594Z" fill="white"/>
</svg>
