<svg width="152" height="32" viewBox="0 0 152 32" fill="none" xmlns="http://www.w3.org/2000/svg">
<mask id="mask0_1519_148702" style="mask-type:alpha" maskUnits="userSpaceOnUse" x="0" y="0" width="152" height="32">
<g clip-path="url(#clip0_1519_148702)">
<path d="M2.25806 25.4584V26.6812H4.85635V27.9039H2.25806V29.8298H0.59082V24.2295H5.21207V25.4523L2.25806 25.4584Z" fill="#18A4DD"/>
<path d="M8.51562 24.2295H10.1829V29.8481H8.51562V24.2295Z" fill="#18A4DD"/>
<path d="M19.487 24.2295V29.8481H18.126L15.5246 26.8554V29.8481H13.8945V24.2295H15.2648L17.8662 27.2253V24.2295H19.487Z" fill="#18A4DD"/>
<path d="M27.1458 28.7568H24.6558L24.1918 29.8481H22.4937L25.0919 24.2295H26.7344L29.342 29.8481H27.6098L27.1458 28.7568ZM26.6571 27.586L25.9023 25.7855L25.1445 27.586H26.6571Z" fill="#18A4DD"/>
<path d="M37.9413 24.2295V29.8481H36.571L33.9697 26.8554V29.8481H32.3364V24.2295H33.716L36.3174 27.2253V24.2295H37.9413Z" fill="#18A4DD"/>
<path d="M41.3408 27.0387C41.3408 25.3299 42.7142 24.1163 44.5826 24.1163C45.0578 24.094 45.5321 24.1777 45.9701 24.3614C46.4082 24.545 46.7987 24.8238 47.1127 25.1771L46.0549 26.0942C45.8886 25.8881 45.6773 25.7219 45.4368 25.6081C45.1962 25.4943 44.9327 25.4357 44.666 25.437C44.4528 25.437 44.2416 25.4784 44.0446 25.5591C43.8476 25.6397 43.6685 25.758 43.5178 25.907C43.367 26.056 43.2473 26.233 43.1657 26.4277C43.0841 26.6224 43.0421 26.8311 43.0421 27.0418C43.0421 27.2526 43.0841 27.4613 43.1657 27.656C43.2473 27.8507 43.367 28.0276 43.5178 28.1766C43.6685 28.3257 43.8476 28.4439 44.0446 28.5246C44.2416 28.6052 44.4528 28.6467 44.666 28.6467C44.9327 28.6479 45.1962 28.5894 45.4368 28.4755C45.6773 28.3617 45.8886 28.1956 46.0549 27.9895L47.1127 28.9066C46.7983 29.2587 46.4074 29.5362 45.9693 29.7182C45.5312 29.9003 45.0572 29.9823 44.5826 29.9582C42.7142 29.9582 41.3408 28.7354 41.3408 27.0387Z" fill="#18A4DD"/>
<path d="M55.1084 28.6193V29.842H50.3789V24.2295H54.9971V25.4523H52.0276V26.3999H54.6444V27.586H52.0276V28.6132L55.1084 28.6193Z" fill="#18A4DD"/>
<path d="M63.5283 24.2295H65.1956V29.8481H63.5283V24.2295Z" fill="#18A4DD"/>
<path d="M74.5122 24.2295V29.8481H73.139L70.5252 26.8554V29.8481H68.8945V24.2295H70.2651L72.8666 27.2253V24.2295H74.5122Z" fill="#18A4DD"/>
<path d="M77.9082 27.0384C77.9082 25.3295 79.2815 24.116 81.1497 24.116C81.6257 24.0931 82.1009 24.1767 82.5394 24.3603C82.9778 24.544 83.3693 24.823 83.6832 25.1767L82.6224 26.0938C82.4563 25.8877 82.2445 25.7216 82.0042 25.6077C81.7639 25.4939 81.5004 25.4354 81.2335 25.4366C81.0204 25.4366 80.8093 25.478 80.6119 25.5587C80.4151 25.6394 80.236 25.7576 80.0856 25.9066C79.9344 26.0557 79.8146 26.2326 79.7336 26.4273C79.6519 26.622 79.6097 26.8307 79.6097 27.0415C79.6097 27.2522 79.6519 27.4609 79.7336 27.6556C79.8146 27.8503 79.9344 28.0273 80.0856 28.1763C80.236 28.3253 80.4151 28.4436 80.6119 28.5242C80.8093 28.6049 81.0204 28.6463 81.2335 28.6463C81.5004 28.6475 81.7639 28.589 82.0042 28.4751C82.2445 28.3614 82.4563 28.1952 82.6224 27.9891L83.6832 28.9062C83.3686 29.2587 82.9771 29.5365 82.5387 29.7185C82.0995 29.9006 81.625 29.9824 81.1497 29.9578C79.2815 29.9578 77.9082 28.735 77.9082 27.0384Z" fill="#18A4DD"/>
<path d="M86.6777 29.0135C86.6777 28.7622 86.7785 28.5212 86.9582 28.3434C87.138 28.1657 87.3817 28.0659 87.6364 28.0659C87.891 28.0659 88.1348 28.1657 88.3145 28.3434C88.4942 28.5212 88.595 28.7622 88.595 29.0135C88.595 29.2649 88.4942 29.5059 88.3145 29.6836C88.1348 29.8614 87.891 29.9612 87.6364 29.9612C87.3817 29.9612 87.138 29.8614 86.9582 29.6836C86.7785 29.5059 86.6777 29.2649 86.6777 29.0135Z" fill="#18A4DD"/>
<path d="M99.7835 7.78906C99.7869 8.61888 99.6583 9.44407 99.4029 10.2346C98.317 9.15192 96.9437 8.39426 95.4411 8.04894C95.4472 7.95831 95.4472 7.86742 95.4411 7.77687C95.4411 5.19068 93.6436 3.49713 91.3485 3.49713C91.1694 3.49767 90.991 3.50891 90.8133 3.53076L90.0154 1.98089L89.1588 0.250667L89.0288 0.006112H91.3607C96.2138 -1.87242e-06 99.7835 3.29843 99.7835 7.78906Z" fill="#5BC9EE"/>
<path d="M13.6658 5.84508C13.6658 9.24744 11.0675 11.3659 6.93188 11.3659H4.29027V15.2849H0V0.305908H6.93188C11.0675 0.305908 13.6658 2.41825 13.6658 5.84508ZM9.33529 5.84508C9.33529 4.45111 8.44752 3.63797 6.67203 3.63797H4.29027V8.0277H6.67203C8.44752 8.0277 9.33529 7.21456 9.33529 5.84508Z" fill="#18A4DD"/>
<path d="M29.4754 12.3716H23.0632L21.8754 15.2849H17.4985L24.1922 0.305908H28.4144L35.1267 15.2849H30.6663L29.4754 12.3716ZM28.2196 9.24744L26.2708 4.45111L24.3221 9.24744H28.2196Z" fill="#18A4DD"/>
<path d="M47.2981 11.3109H44.9597V15.2849H40.6694V0.305908H47.6013C51.7369 0.305908 54.3352 2.42436 54.3352 5.85119C54.3352 8.05521 53.2526 9.68155 51.3688 10.5803L54.6383 15.2849H50.048L47.2981 11.3109ZM47.3415 3.64714H44.9597V8.0277H47.3415C49.117 8.0277 50.0047 7.21456 50.0047 5.84508C50.0047 4.47557 49.117 3.63797 47.3415 3.63797V3.64714Z" fill="#18A4DD"/>
<path d="M67.6546 11.3109H65.3162V15.2849H61.0259V0.305908H67.9578C72.0933 0.305908 74.6914 2.42436 74.6914 5.85119C74.6914 8.05521 73.6088 9.68155 71.7256 10.5803L74.995 15.2849H70.4047L67.6546 11.3109ZM67.6979 3.64714H65.3162V8.0277H67.6979C69.4733 8.0277 70.3612 7.21456 70.3612 5.84508C70.3612 4.47557 69.4733 3.63797 67.6979 3.63797V3.64714Z" fill="#18A4DD"/>
<path d="M80.6025 7.79214C80.6025 3.29537 84.1784 0 89.0288 0C93.8785 0 97.4543 3.29537 97.4543 7.79214C97.4543 12.2889 93.8785 15.5904 89.0288 15.5904C84.1784 15.5904 80.6025 12.2858 80.6025 7.79214ZM93.1207 7.79214C93.1207 5.2029 91.3239 3.51242 89.0288 3.51242C86.7336 3.51242 84.9362 5.20596 84.9362 7.79214C84.9362 10.3783 86.7336 12.0718 89.0288 12.0718C91.3239 12.0718 93.1207 10.3936 93.1207 7.79214Z" fill="#18A4DD"/>
<path d="M107.046 3.66854H102.385V0.305908H115.967V3.66854H111.327V15.2849H107.046V3.66854Z" fill="#18A4DD"/>
<path d="M121.903 0.305908H126.203V11.9222H133.437V15.2849H121.903V0.305908Z" fill="#18A4DD"/>
<path d="M141.74 9.99921V9.84942L135.956 0.299561H140.487L144.05 6.21168L141.74 9.99921Z" fill="#18A4DD"/>
<path d="M151.83 0.299561L146.342 9.38474L146.027 9.91056L142.751 15.2785H138.529L141.74 9.99921L144.051 6.21168L144.078 6.2453L147.669 0.299561H151.83Z" fill="#18A4DD"/>
</g>
</mask>
<g mask="url(#mask0_1519_148702)">
<rect y="-4" width="152" height="36" fill="#333333" fill-opacity="0.7"/>
</g>
<defs>
<clipPath id="clip0_1519_148702">
<rect width="151.83" height="32" fill="white"/>
</clipPath>
</defs>
</svg>
