<svg width="260" height="46" viewBox="0 0 260 46" fill="none" xmlns="http://www.w3.org/2000/svg">
<mask id="mask0_1519_148701" style="mask-type:alpha" maskUnits="userSpaceOnUse" x="54" y="7" width="152" height="32">
<g clip-path="url(#clip0_1519_148701)">
<path d="M56.2581 32.4584V33.6812H58.8563V34.9039H56.2581V36.8298H54.5908V31.2295H59.2121V32.4523L56.2581 32.4584Z" fill="#18A4DD"/>
<path d="M62.5156 31.2295H64.1829V36.8481H62.5156V31.2295Z" fill="#18A4DD"/>
<path d="M73.487 31.2295V36.8481H72.126L69.5246 33.8554V36.8481H67.8945V31.2295H69.2648L71.8662 34.2253V31.2295H73.487Z" fill="#18A4DD"/>
<path d="M81.1458 35.7568H78.6558L78.1918 36.8481H76.4937L79.0919 31.2295H80.7344L83.342 36.8481H81.6098L81.1458 35.7568ZM80.6571 34.586L79.9023 32.7855L79.1445 34.586H80.6571Z" fill="#18A4DD"/>
<path d="M91.9413 31.2295V36.8481H90.571L87.9697 33.8554V36.8481H86.3364V31.2295H87.716L90.3174 34.2253V31.2295H91.9413Z" fill="#18A4DD"/>
<path d="M95.3408 34.0387C95.3408 32.3299 96.7142 31.1163 98.5826 31.1163C99.0578 31.094 99.5321 31.1777 99.9701 31.3614C100.408 31.545 100.799 31.8238 101.113 32.1771L100.055 33.0942C99.8886 32.8881 99.6773 32.7219 99.4368 32.6081C99.1962 32.4943 98.9327 32.4357 98.666 32.437C98.4528 32.437 98.2416 32.4784 98.0446 32.5591C97.8476 32.6397 97.6685 32.758 97.5178 32.907C97.367 33.056 97.2473 33.233 97.1657 33.4277C97.0841 33.6224 97.0421 33.8311 97.0421 34.0418C97.0421 34.2526 97.0841 34.4613 97.1657 34.656C97.2473 34.8507 97.367 35.0276 97.5178 35.1766C97.6685 35.3257 97.8476 35.4439 98.0446 35.5246C98.2416 35.6052 98.4528 35.6467 98.666 35.6467C98.9327 35.6479 99.1962 35.5894 99.4368 35.4755C99.6773 35.3617 99.8886 35.1956 100.055 34.9895L101.113 35.9066C100.798 36.2587 100.407 36.5362 99.9693 36.7182C99.5312 36.9003 99.0572 36.9823 98.5826 36.9582C96.7142 36.9582 95.3408 35.7354 95.3408 34.0387Z" fill="#18A4DD"/>
<path d="M109.108 35.6193V36.842H104.379V31.2295H108.997V32.4523H106.028V33.3999H108.644V34.586H106.028V35.6132L109.108 35.6193Z" fill="#18A4DD"/>
<path d="M117.528 31.2295H119.196V36.8481H117.528V31.2295Z" fill="#18A4DD"/>
<path d="M128.512 31.2295V36.8481H127.139L124.525 33.8554V36.8481H122.895V31.2295H124.265L126.867 34.2253V31.2295H128.512Z" fill="#18A4DD"/>
<path d="M131.908 34.0384C131.908 32.3295 133.281 31.116 135.15 31.116C135.626 31.0931 136.101 31.1767 136.539 31.3603C136.978 31.544 137.369 31.823 137.683 32.1767L136.622 33.0938C136.456 32.8877 136.245 32.7216 136.004 32.6077C135.764 32.4939 135.5 32.4354 135.233 32.4366C135.02 32.4366 134.809 32.478 134.612 32.5587C134.415 32.6394 134.236 32.7576 134.086 32.9066C133.934 33.0557 133.815 33.2326 133.734 33.4273C133.652 33.622 133.61 33.8307 133.61 34.0415C133.61 34.2522 133.652 34.4609 133.734 34.6556C133.815 34.8503 133.934 35.0273 134.086 35.1763C134.236 35.3253 134.415 35.4436 134.612 35.5242C134.809 35.6049 135.02 35.6463 135.233 35.6463C135.5 35.6475 135.764 35.589 136.004 35.4751C136.245 35.3614 136.456 35.1952 136.622 34.9891L137.683 35.9062C137.369 36.2587 136.977 36.5365 136.539 36.7185C136.1 36.9006 135.625 36.9824 135.15 36.9578C133.281 36.9578 131.908 35.735 131.908 34.0384Z" fill="#18A4DD"/>
<path d="M140.678 36.0135C140.678 35.7622 140.779 35.5212 140.958 35.3434C141.138 35.1657 141.382 35.0659 141.636 35.0659C141.891 35.0659 142.135 35.1657 142.315 35.3434C142.494 35.5212 142.595 35.7622 142.595 36.0135C142.595 36.2649 142.494 36.5059 142.315 36.6836C142.135 36.8614 141.891 36.9612 141.636 36.9612C141.382 36.9612 141.138 36.8614 140.958 36.6836C140.779 36.5059 140.678 36.2649 140.678 36.0135Z" fill="#18A4DD"/>
<path d="M153.784 14.7891C153.787 15.6189 153.658 16.4441 153.403 17.2346C152.317 16.1519 150.944 15.3943 149.441 15.0489C149.447 14.9583 149.447 14.8674 149.441 14.7769C149.441 12.1907 147.644 10.4971 145.348 10.4971C145.169 10.4977 144.991 10.5089 144.813 10.5308L144.015 8.98089L143.159 7.25067L143.029 7.00611H145.361C150.214 7 153.784 10.2984 153.784 14.7891Z" fill="#5BC9EE"/>
<path d="M67.6658 12.8451C67.6658 16.2474 65.0675 18.3659 60.9319 18.3659H58.2903V22.2849H54V7.30591H60.9319C65.0675 7.30591 67.6658 9.41825 67.6658 12.8451ZM63.3353 12.8451C63.3353 11.4511 62.4475 10.638 60.672 10.638H58.2903V15.0277H60.672C62.4475 15.0277 63.3353 14.2146 63.3353 12.8451Z" fill="#18A4DD"/>
<path d="M83.4754 19.3716H77.0632L75.8754 22.2849H71.4985L78.1922 7.30591H82.4144L89.1267 22.2849H84.6663L83.4754 19.3716ZM82.2196 16.2474L80.2708 11.4511L78.3221 16.2474H82.2196Z" fill="#18A4DD"/>
<path d="M101.298 18.3109H98.9597V22.2849H94.6694V7.30591H101.601C105.737 7.30591 108.335 9.42436 108.335 12.8512C108.335 15.0552 107.253 16.6816 105.369 17.5803L108.638 22.2849H104.048L101.298 18.3109ZM101.342 10.6471H98.9597V15.0277H101.342C103.117 15.0277 104.005 14.2146 104.005 12.8451C104.005 11.4756 103.117 10.638 101.342 10.638V10.6471Z" fill="#18A4DD"/>
<path d="M121.655 18.3109H119.316V22.2849H115.026V7.30591H121.958C126.093 7.30591 128.691 9.42436 128.691 12.8512C128.691 15.0552 127.609 16.6816 125.726 17.5803L128.995 22.2849H124.405L121.655 18.3109ZM121.698 10.6471H119.316V15.0277H121.698C123.473 15.0277 124.361 14.2146 124.361 12.8451C124.361 11.4756 123.473 10.638 121.698 10.638V10.6471Z" fill="#18A4DD"/>
<path d="M134.603 14.7921C134.603 10.2954 138.178 7 143.029 7C147.878 7 151.454 10.2954 151.454 14.7921C151.454 19.2889 147.878 22.5904 143.029 22.5904C138.178 22.5904 134.603 19.2858 134.603 14.7921ZM147.121 14.7921C147.121 12.2029 145.324 10.5124 143.029 10.5124C140.734 10.5124 138.936 12.206 138.936 14.7921C138.936 17.3783 140.734 19.0718 143.029 19.0718C145.324 19.0718 147.121 17.3936 147.121 14.7921Z" fill="#18A4DD"/>
<path d="M161.046 10.6685H156.385V7.30591H169.967V10.6685H165.327V22.2849H161.046V10.6685Z" fill="#18A4DD"/>
<path d="M175.903 7.30591H180.203V18.9222H187.437V22.2849H175.903V7.30591Z" fill="#18A4DD"/>
<path d="M195.74 16.9992V16.8494L189.956 7.29956H194.487L198.05 13.2117L195.74 16.9992Z" fill="#18A4DD"/>
<path d="M205.83 7.29956L200.342 16.3847L200.027 16.9106L196.751 22.2785H192.529L195.74 16.9992L198.051 13.2117L198.078 13.2453L201.669 7.29956H205.83Z" fill="#18A4DD"/>
</g>
</mask>
<g mask="url(#mask0_1519_148701)">
<rect x="54" y="3" width="152" height="36" fill="#333333" fill-opacity="0.7"/>
</g>
<defs>
<clipPath id="clip0_1519_148701">
<rect width="151.83" height="32" fill="white" transform="translate(54 7)"/>
</clipPath>
</defs>
</svg>
