<svg width="318" height="80" viewBox="0 0 318 80" fill="none" xmlns="http://www.w3.org/2000/svg">
<path d="M86.1696 39.8403V50.7009C86.1657 51.3782 85.9861 52.0429 85.6483 52.63C85.3106 53.217 84.8263 53.7064 84.2428 54.0502L74.8347 59.4693C74.252 59.8167 73.5863 60 72.9079 60C72.2296 60 71.5638 59.8167 70.9811 59.4693L61.573 54.0502C60.9894 53.7064 60.5052 53.217 60.1674 52.63C59.8298 52.0429 59.6501 51.3782 59.6462 50.7009V47.6527L64.4631 44.8566V50.1553L72.8929 55.0475L81.3225 50.1553V40.3934L72.8929 35.5012L53.1434 46.9415C52.5552 47.2729 51.8916 47.447 51.2165 47.447C50.5415 47.447 49.8779 47.2729 49.2898 46.9415L39.8816 41.4998C39.3071 41.1508 38.8321 40.6596 38.5025 40.0736C38.1729 39.4876 37.9999 38.8266 38 38.1543V27.2936C38.0039 26.6163 38.1835 25.9517 38.5213 25.3645C38.8589 24.7775 39.3433 24.2881 39.9267 23.9443L49.3349 18.5252C49.9188 18.1813 50.584 18 51.2616 18C51.9394 18 52.6046 18.1813 53.1885 18.5252L62.5966 23.9443C63.1801 24.2881 63.6644 24.7775 64.0021 25.3645C64.3399 25.9517 64.5195 26.6163 64.5234 27.2936V30.3418L59.6764 33.119V27.8505L51.2466 22.9583L42.8169 27.8505V37.6011L51.2466 42.4934L70.9961 31.0531C71.5843 30.7216 72.2479 30.5476 72.923 30.5476C73.598 30.5476 74.2616 30.7216 74.8497 31.0531L84.2579 36.4947C84.838 36.8401 85.319 37.3297 85.6539 37.9159C85.989 38.5022 86.1666 39.1651 86.1696 39.8403Z" fill="#7B3FE4"/>
<path d="M102.934 54.6486V46.185C103.853 47.3403 105.52 47.9876 107.45 47.9876C112.38 47.9876 115.711 44.4878 115.711 39.1516C115.711 33.8153 112.651 30.3154 107.86 30.3154C105.651 30.3154 103.95 31.132 102.931 32.4567V30.575H98.2114V54.6373L102.934 54.6486ZM106.867 43.9082C104.315 43.9082 102.652 42.0041 102.652 39.1516C102.652 36.299 104.315 34.3609 106.867 34.3609C109.347 34.3609 111.048 36.2426 111.048 39.1516C111.048 42.0605 109.358 43.9082 106.867 43.9082Z" fill="#0A0B0D"/>
<path d="M126.437 47.9876C131.706 47.9876 135.469 44.247 135.469 39.1516C135.469 34.056 131.706 30.3154 126.437 30.3154C121.168 30.3154 117.405 34.0523 117.405 39.1516C117.405 44.2507 121.168 47.9876 126.437 47.9876ZM126.437 43.9082C123.889 43.9082 122.155 41.9702 122.155 39.1516C122.155 36.3328 123.893 34.3609 126.437 34.3609C128.981 34.3609 130.719 36.2952 130.719 39.1516C130.719 42.0078 128.988 43.9082 126.437 43.9082Z" fill="#0A0B0D"/>
<path d="M143.058 47.7169V23.1428H138.336V47.7169H143.058Z" fill="#0A0B0D"/>
<path d="M157.257 30.5863L153.69 41.6315L150.088 30.5863H145.252L151.469 47.5774L148.955 54.6485H153.472L155.898 47.6527L162.119 30.5938L157.257 30.5863Z" fill="#0A0B0D"/>
<path d="M175.386 32.2873C174.433 31.0981 172.752 30.3154 170.662 30.3154C165.665 30.3154 162.643 33.8153 162.643 39.1516C162.643 44.4878 165.653 47.9876 170.73 47.9876C172.736 47.9876 174.535 47.235 175.42 45.9818V48.2398C175.42 49.8354 174.366 50.9568 172.94 50.9568H165.055V54.6636H173.688C177.56 54.6636 180.142 52.3191 180.142 48.7478V30.5863H175.386V32.2873ZM171.479 43.9082C168.962 43.9082 167.299 42.0266 167.299 39.1516C167.299 36.2764 168.962 34.3609 171.479 34.3609C173.997 34.3609 175.69 36.2426 175.69 39.1516C175.69 42.0605 174.027 43.9082 171.479 43.9082Z" fill="#0A0B0D"/>
<path d="M192.053 47.9876C197.322 47.9876 201.085 44.247 201.085 39.1516C201.085 34.056 197.322 30.3154 192.053 30.3154C186.785 30.3154 183.021 34.0523 183.021 39.1516C183.021 44.2507 186.785 47.9876 192.053 47.9876ZM192.053 43.9082C189.502 43.9082 187.771 41.9702 187.771 39.1516C187.771 36.3328 189.502 34.3609 192.053 34.3609C194.605 34.3609 196.336 36.2952 196.336 39.1516C196.336 42.0078 194.601 43.9082 192.053 43.9082Z" fill="#0A0B0D"/>
<path d="M208.434 47.7167V38.3348C208.434 36.1259 209.894 34.5303 211.967 34.5303C213.94 34.5303 215.264 36.0355 215.264 38.0978V47.7167H220.021V37.0441C220.021 33.1002 217.508 30.3154 213.624 30.3154C211.279 30.3154 209.379 31.3014 208.427 32.9497V30.5863H203.677V47.7167H208.434Z" fill="#0A0B0D"/>
</svg>
