<svg width="318" height="80" viewBox="0 0 318 80" fill="none" xmlns="http://www.w3.org/2000/svg">
<path d="M147.368 23.5001C150.786 23.5001 153.405 24.3361 155.225 26.0083C157.069 27.6558 157.991 29.8689 157.991 32.6476C157.991 34.1968 157.659 35.7214 156.995 37.2214C156.356 38.7214 155.262 39.9141 153.713 40.7992L160.02 50.6476H153.786L148.069 42.0165H144.491V50.6476H139.143V23.5001H147.368ZM148.29 36.8526C149.372 36.8526 150.208 36.6312 150.798 36.1885C151.413 35.7214 151.844 35.1804 152.09 34.5657C152.335 33.9262 152.458 33.3484 152.458 32.832C152.458 32.5369 152.409 32.1681 152.311 31.7254C152.237 31.2583 152.065 30.7911 151.794 30.3239C151.524 29.8566 151.106 29.4632 150.54 29.1435C149.999 28.8239 149.262 28.664 148.327 28.664H144.491V36.8526H148.29ZM168.782 51.4222C167.331 51.4222 166.114 50.9796 165.13 50.0943C164.147 49.1845 163.63 48.0165 163.581 46.5903V34.5288H168.745V44.6722C168.794 45.3853 168.978 45.9631 169.298 46.4058C169.618 46.8238 170.159 47.0329 170.921 47.0329C172.077 47.0329 172.987 46.4796 173.651 45.373C174.315 44.2419 174.647 42.8157 174.647 41.0943V34.5288H179.811V50.6476H175.126L174.757 48.0657C174.216 49.0738 173.442 49.8853 172.433 50.5C171.425 51.1149 170.208 51.4222 168.782 51.4222ZM195.707 51.0903C194.478 51.0903 193.421 50.9058 192.535 50.5369C191.675 50.1681 190.925 49.6641 190.285 49.0246V50.6476H185.121V21.5452H190.248V35.6353C190.888 35.0943 191.736 34.6395 192.794 34.2706C193.851 33.9018 195.056 33.7173 196.408 33.7173C197.81 33.7173 199.089 34.0492 200.244 34.7131C201.4 35.3772 202.322 36.3484 203.011 37.6272C203.724 38.8812 204.08 40.4181 204.08 42.2377C204.08 44.0574 203.687 45.6312 202.9 46.9591C202.138 48.2869 201.117 49.3074 199.839 50.0206C198.56 50.7337 197.183 51.0903 195.707 51.0903ZM194.564 46.7377C195.326 46.7377 196.027 46.5411 196.667 46.1476C197.33 45.7542 197.859 45.2131 198.253 44.5246C198.646 43.8361 198.843 43.0615 198.843 42.2008C198.843 41.3403 198.646 40.578 198.253 39.9141C197.859 39.25 197.33 38.7337 196.667 38.3649C196.027 37.9714 195.326 37.7746 194.564 37.7746C193.556 37.7746 192.671 38.0083 191.908 38.4754C191.146 38.9427 190.605 39.5697 190.285 40.3566V44.3034C191.171 45.9262 192.597 46.7377 194.564 46.7377ZM208.139 34.5288H213.303V50.6476H208.139V34.5288ZM208.028 28.8116C208.028 28.0493 208.323 27.4222 208.913 26.9304C209.528 26.4386 210.18 26.1927 210.868 26.1927C211.557 26.1927 212.184 26.4386 212.749 26.9304C213.339 27.4222 213.635 28.0493 213.635 28.8116C213.635 29.5739 213.339 30.2009 212.749 30.6927C212.184 31.1599 211.557 31.3935 210.868 31.3935C210.18 31.3935 209.528 31.1599 208.913 30.6927C208.323 30.2009 208.028 29.5739 208.028 28.8116ZM232.305 49.2091C231.592 49.7746 230.694 50.2296 229.613 50.5738C228.555 50.9181 227.51 51.0903 226.477 51.0903C223.723 51.0903 221.51 50.3403 219.838 48.8403C218.19 47.3403 217.367 45.25 217.367 42.5697C217.367 40.7746 217.772 39.25 218.584 37.996C219.395 36.7173 220.453 35.746 221.756 35.082C223.084 34.4181 224.473 34.0861 225.924 34.0861C227.375 34.0861 228.629 34.2829 229.686 34.6762C230.768 35.0697 231.69 35.5861 232.453 36.2254L229.944 39.5451C229.6 39.2746 229.121 39.0042 228.506 38.7337C227.916 38.4385 227.215 38.2911 226.403 38.2911C225.346 38.2911 224.436 38.6968 223.674 39.5083C222.912 40.2951 222.531 41.3157 222.531 42.5697C222.531 43.7746 222.924 44.7951 223.711 45.6312C224.522 46.4673 225.592 46.8853 226.92 46.8853C228.051 46.8853 228.986 46.578 229.723 45.9631L232.305 49.2091Z" fill="#333333" fill-opacity="0.7"/>
<path d="M124.574 27.9523L104.053 16L84.0426 27.7373L84 51.3838L104.18 63.3361L124.574 51.6418V27.9523ZM104.095 19.6115L119.252 28.4682L104.18 37.3249L89.0238 28.4682L104.095 19.6115ZM102.35 58.4349L87.108 49.621V31.9936L102.307 40.8504V58.4349H102.35ZM106.267 41.1084L121.466 32.2516V49.8361L106.267 58.7358V41.1084Z" fill="#333333" fill-opacity="0.7"/>
</svg>
