<svg width="157" height="50" viewBox="0 0 157 50" fill="none" xmlns="http://www.w3.org/2000/svg">
<g clip-path="url(#clip0_728_145183)">
<path d="M66.4573 7.81273C70.0176 7.81273 72.7456 8.68363 74.6412 10.4254C76.5623 12.1416 77.5228 14.447 77.5228 17.3414C77.5228 18.9552 77.177 20.5433 76.4854 22.1058C75.8195 23.6683 74.6797 24.9107 73.0659 25.8327L79.6361 36.0914H73.1426L67.1873 27.1007H63.4603V36.0914H57.889V7.81273H66.4573ZM67.4178 21.7216C68.5448 21.7216 69.4158 21.491 70.0304 21.0299C70.6709 20.5433 71.1192 19.9797 71.3753 19.3394C71.6314 18.6733 71.7595 18.0714 71.7595 17.5335C71.7595 17.2261 71.7083 16.8419 71.6058 16.3808C71.529 15.8943 71.3497 15.4075 71.0679 14.9208C70.7861 14.4341 70.3508 14.0243 69.7615 13.6913C69.1981 13.3583 68.4295 13.1918 67.4562 13.1918H63.4603V21.7216H67.4178ZM88.7631 36.8983C87.2518 36.8983 85.9839 36.4372 84.9594 35.515C83.9347 34.5674 83.3969 33.3507 83.3456 31.865V19.301H88.7247V29.8671C88.7759 30.6099 88.9679 31.2118 89.3011 31.6728C89.634 32.1083 90.1975 32.3261 90.9915 32.3261C92.1954 32.3261 93.1433 31.7497 93.8348 30.5971C94.5264 29.4188 94.8722 27.9332 94.8722 26.14V19.301H100.251V36.0914H95.3717L94.9875 33.4019C94.424 34.4521 93.6172 35.2974 92.5669 35.9377C91.5167 36.5782 90.2487 36.8983 88.7631 36.8983ZM116.811 36.5525C115.53 36.5525 114.428 36.3603 113.506 35.9761C112.61 35.5919 111.829 35.0669 111.163 34.4008V36.0914H105.784V5.77637H111.124V20.4536C111.79 19.89 112.674 19.4163 113.775 19.0321C114.877 18.6479 116.132 18.4557 117.541 18.4557C119.001 18.4557 120.333 18.8014 121.537 19.493C122.74 20.1847 123.701 21.1964 124.418 22.5285C125.161 23.8347 125.532 25.4357 125.532 27.3311C125.532 29.2266 125.123 30.866 124.303 32.2493C123.509 33.6324 122.446 34.6953 121.114 35.4383C119.782 36.1811 118.347 36.5525 116.811 36.5525ZM115.62 32.0186C116.414 32.0186 117.144 31.8138 117.81 31.4039C118.501 30.9941 119.052 30.4305 119.462 29.7133C119.872 28.9961 120.077 28.1893 120.077 27.2927C120.077 26.3963 119.872 25.6022 119.462 24.9107C119.052 24.2189 118.501 23.6811 117.81 23.2969C117.144 22.8871 116.414 22.6821 115.62 22.6821C114.569 22.6821 113.647 22.9255 112.853 23.4121C112.059 23.8988 111.496 24.5519 111.163 25.3716V29.4829C112.085 31.1733 113.57 32.0186 115.62 32.0186ZM129.76 19.301H135.139V36.0914H129.76V19.301ZM129.645 13.3455C129.645 12.5515 129.952 11.8983 130.567 11.386C131.207 10.8737 131.886 10.6176 132.603 10.6176C133.32 10.6176 133.973 10.8737 134.563 11.386C135.177 11.8983 135.485 12.5515 135.485 13.3455C135.485 14.1396 135.177 14.7928 134.563 15.3051C133.973 15.7918 133.32 16.035 132.603 16.035C131.886 16.035 131.207 15.7918 130.567 15.3051C129.952 14.7928 129.645 14.1396 129.645 13.3455ZM154.933 34.593C154.19 35.1821 153.255 35.656 152.128 36.0146C151.027 36.3732 149.938 36.5525 148.862 36.5525C145.994 36.5525 143.688 35.7713 141.947 34.2088C140.23 32.6463 139.372 30.4689 139.372 27.6769C139.372 25.8071 139.795 24.2189 140.64 22.9127C141.485 21.5807 142.587 20.5689 143.945 19.8772C145.328 19.1857 146.775 18.8399 148.286 18.8399C149.797 18.8399 151.104 19.0449 152.205 19.4546C153.332 19.8644 154.293 20.4024 155.087 21.0683L152.474 24.5263C152.116 24.2446 151.616 23.9629 150.976 23.6811C150.361 23.3736 149.631 23.22 148.786 23.22C147.684 23.22 146.737 23.6427 145.942 24.488C145.148 25.3075 144.751 26.3707 144.751 27.6769C144.751 28.9321 145.161 29.995 145.981 30.866C146.826 31.7369 147.94 32.1724 149.324 32.1724C150.502 32.1724 151.475 31.8522 152.244 31.2118L154.933 34.593Z" fill="#333333" fill-opacity="0.7"/>
<path d="M42.7131 12.4505L21.337 0.000244141L0.493079 12.2266L0.44873 36.8584L21.47 49.3087L42.7131 37.1271V12.4505ZM21.3814 3.7622L37.1695 12.9879L21.47 22.2137L5.68189 12.9879L21.3814 3.7622ZM19.5631 44.2032L3.68618 35.0221V16.6602L19.5187 25.886V44.2032H19.5631ZM23.6431 26.1548L39.4756 16.929V35.2462L23.6431 44.5166V26.1548Z" fill="#333333" fill-opacity="0.7"/>
</g>
<defs>
<clipPath id="clip0_728_145183">
<rect width="156.25" height="50" fill="white" transform="translate(0.44873 0.000244141)"/>
</clipPath>
</defs>
</svg>
