<svg width="318" height="80" viewBox="0 0 318 80" fill="none" xmlns="http://www.w3.org/2000/svg">
<path d="M138.008 40.5039C138.014 34.8299 136.255 29.2946 132.973 24.6655C132.794 24.3894 132.6 24.1235 132.391 23.8689C132.379 23.8565 132.369 23.8431 132.359 23.829C132.283 23.7323 132.207 23.6394 132.131 23.5483C129.573 20.253 126.293 17.5885 122.544 15.7598C118.794 13.9311 114.675 12.987 110.504 13.0001C95.3388 13.0001 83 25.3294 83 40.5039C83 55.6784 95.3388 68.0077 110.504 68.0077C115.728 68.0175 120.845 66.5277 125.248 63.7152L125.367 63.6337C129.242 61.1449 132.43 57.7229 134.639 53.6817C136.847 49.6404 138.006 45.1093 138.008 40.5039ZM110.504 16.2247C114.255 16.2114 117.958 17.0744 121.317 18.745C124.676 20.4156 127.598 22.8476 129.851 25.8473L129.866 25.8662C130.02 26.0711 130.17 26.2778 130.318 26.4865C130.911 27.4091 131.232 28.4798 131.245 29.5764C131.244 31.0404 130.662 32.4439 129.627 33.4791C128.591 34.5143 127.188 35.0965 125.724 35.098C123.73 35.098 121.754 33.8215 120.69 31.845C116.917 24.8476 110.246 20.6689 102.844 20.6689C99.7427 20.6653 96.6839 21.3932 93.9162 22.7934C98.4069 18.571 104.34 16.2216 110.504 16.2247ZM86.2246 40.5039C86.2296 36.0991 87.9816 31.8761 91.0963 28.7615C94.211 25.6468 98.434 23.8948 102.839 23.8897C109.036 23.8897 114.646 27.4349 117.848 33.3738C119.468 36.3765 122.558 38.3188 125.718 38.3188C127.392 38.3159 129.03 37.8331 130.437 36.9277C131.845 36.0224 132.963 34.7324 133.66 33.2107C134.913 37.1787 135.121 41.4026 134.267 45.4749C133.412 49.5471 131.522 53.3304 128.78 56.4599C128.617 54.4879 127.72 52.6489 126.265 51.3073C124.811 49.9657 122.905 49.2193 120.927 49.216C118.561 49.216 116.424 50.7467 115.396 51.4808L115.166 51.6458C112.308 53.6925 107.524 57.1181 102.837 57.1181C98.4324 57.1126 94.2099 55.3603 91.0956 52.2457C87.9814 49.1311 86.2296 44.9084 86.2246 40.5039ZM93.9105 58.2145C96.6782 59.6147 99.737 60.3425 102.839 60.3389C108.558 60.3389 113.869 56.5358 117.042 54.2691L117.27 54.106C118.028 53.5654 119.593 52.4425 120.927 52.4425C122.164 52.444 123.35 52.9361 124.225 53.8108C125.099 54.6856 125.591 55.8715 125.593 57.1086C125.606 57.8612 125.432 58.6053 125.085 59.2733C124.738 59.9414 124.23 60.5124 123.607 60.9345C123.186 61.2058 122.757 61.4656 122.319 61.7103C118.716 63.7474 114.643 64.8067 110.504 64.7831C104.336 64.7887 98.3998 62.4391 93.9067 58.2145H93.9105Z" fill="url(#paint0_radial_1519_148253)"/>
<path d="M104.405 51.9739C106.078 51.9774 107.729 51.6046 109.238 50.8831C110.747 50.1615 112.074 49.1098 113.121 47.8058C114.168 46.5018 114.908 44.9789 115.287 43.35C115.665 41.7211 115.672 40.0279 115.308 38.3958C114.943 36.7637 114.216 35.2346 113.18 33.9217C112.144 32.6087 110.826 31.5457 109.324 30.8113C107.821 30.0769 106.173 29.6899 104.501 29.6791C102.828 29.6682 101.175 30.0338 99.6633 30.7486C98.2198 29.945 96.5189 29.7389 94.9253 30.1745C93.3316 30.6102 91.9721 31.6529 91.1382 33.0791C90.3042 34.5053 90.0623 36.2014 90.4642 37.8039C90.8661 39.4064 91.8798 40.7876 93.2881 41.6515C93.4994 44.4564 94.762 47.078 96.8233 48.992C98.8845 50.9059 101.592 51.9709 104.405 51.9739ZM112.332 40.8264C112.334 42.7732 111.618 44.6523 110.322 46.1051C109.026 47.5579 107.241 48.4825 105.306 48.7026C103.372 48.9226 101.424 48.4226 99.8352 47.298C98.2461 46.1734 97.1268 44.503 96.691 42.6056C97.785 42.5957 98.8578 42.3017 99.804 41.7525C100.75 41.2032 101.538 40.4175 102.089 39.4724C102.64 38.5272 102.936 37.4551 102.948 36.3611C102.96 35.267 102.688 34.1886 102.158 33.2315C103.339 32.879 104.587 32.8074 105.801 33.0225C107.015 33.2376 108.163 33.7334 109.151 34.4704C110.14 35.2074 110.943 36.1651 111.496 37.2673C112.048 38.3695 112.336 39.5857 112.336 40.8188L112.332 40.8264ZM96.6227 33.1841C97.2365 33.1841 97.8366 33.3662 98.3469 33.7072C98.8573 34.0483 99.255 34.5331 99.4898 35.1002C99.7247 35.6673 99.786 36.2914 99.6661 36.8934C99.5462 37.4954 99.2505 38.0483 98.8163 38.4823C98.3821 38.9162 97.829 39.2116 97.2269 39.3311C96.6248 39.4506 96.0008 39.3889 95.4338 39.1537C94.8668 38.9186 94.3823 38.5205 94.0416 38.01C93.7008 37.4994 93.5191 36.8992 93.5195 36.2854C93.521 35.463 93.8485 34.6748 94.4302 34.0935C95.0119 33.5121 95.8003 33.1851 96.6227 33.1841Z" fill="url(#paint1_radial_1519_148253)"/>
<path d="M153.8 29.4739C153.645 29.5984 153.521 29.7574 153.438 29.9381C153.355 30.1189 153.316 30.3165 153.322 30.5153C153.32 30.7233 153.373 30.9282 153.475 31.1091C153.578 31.2901 153.727 31.4406 153.907 31.5452C154.297 31.7981 155.197 32.0991 156.606 32.4481C158.015 32.7971 159.109 33.3175 159.889 34.0092C160.667 34.7034 161.056 35.7151 161.058 37.0441C161.075 37.6634 160.949 38.2784 160.689 38.8409C160.429 39.4033 160.042 39.8978 159.559 40.2857C158.561 41.1128 157.248 41.5269 155.618 41.5282C153.266 41.5282 151.148 40.6569 149.265 38.9143L151.242 36.4921C152.841 37.9021 154.321 38.6071 155.682 38.6071C156.19 38.6361 156.694 38.4982 157.116 38.2144C157.283 38.0933 157.417 37.9332 157.508 37.748C157.599 37.5628 157.643 37.3583 157.636 37.1522C157.641 36.9429 157.593 36.7357 157.497 36.5499C157.4 36.3641 157.258 36.2058 157.084 36.09C156.716 35.827 155.986 35.5608 154.895 35.2914C153.168 34.8817 151.903 34.3475 151.101 33.6886C150.3 33.0298 149.899 31.9954 149.901 30.5854C149.901 29.1755 150.406 28.0886 151.418 27.3248C152.43 26.561 153.694 26.1785 155.212 26.1772C156.225 26.1803 157.231 26.3527 158.188 26.6875C159.134 27.0025 160.013 27.4921 160.779 28.131L159.1 30.5532C157.813 29.577 156.481 29.0882 155.105 29.087C154.639 29.0595 154.177 29.1964 153.8 29.4739Z" fill="black"/>
<path d="M174.113 27.8369C175.155 28.7221 175.676 30.0821 175.676 31.917C175.676 33.7518 175.141 35.0967 174.072 35.9515C173.002 36.8013 171.369 37.2262 169.174 37.2262H167.198V41.3688H163.884V26.5168H169.132C171.412 26.5117 173.073 26.9518 174.113 27.8369ZM171.682 33.6753C172.077 33.2277 172.275 32.5758 172.275 31.7197C172.275 30.8636 172.017 30.2548 171.501 29.8931C170.983 29.5314 170.179 29.3506 169.089 29.3506H167.192V34.3449H169.422C170.533 34.3487 171.286 34.1255 171.682 33.6753Z" fill="black"/>
<path d="M187.49 26.5092H190.804V41.3612H187.49V35.519H181.583V41.3612H178.268V26.5092H181.583V32.7136H187.49V26.5092Z" fill="black"/>
<path d="M205.168 26.5092V29.4625H197.77V32.5221H204.421V35.3483H197.774V38.4287H205.401V41.3612H194.458V26.5092H205.168Z" fill="black"/>
<path d="M220.403 31.439C220.403 33.8188 219.461 35.3559 217.577 36.0501L221.338 41.3612H217.258L213.965 36.6192H211.67V41.3612H208.354V26.5092H213.986C216.295 26.5092 217.939 26.8986 218.918 27.6776C219.897 28.4566 220.392 29.7103 220.403 31.439ZM216.408 33.203C216.818 32.835 217.024 32.2502 217.025 31.4485C217.026 30.6467 216.814 30.0979 216.387 29.802C215.963 29.5061 215.218 29.3575 214.155 29.3563H211.67V33.755H214.092C215.225 33.755 215.997 33.571 216.408 33.203Z" fill="black"/>
<path d="M234.512 26.5092V29.4625H227.114V32.5221H233.766V35.3483H227.116V38.4287H234.745V41.3612H223.802V26.5092H234.512Z" fill="black"/>
<path d="M157.165 45.5968V47.3874H152.937V49.362H156.964V51.1526H152.937V54.73H150.906V45.5968H157.165Z" fill="black"/>
<path d="M162.82 45.5968H164.859V54.73H162.82V45.5968Z" fill="black"/>
<path d="M177.42 45.5968H179.459V54.73H177.42L173.066 49.0054V54.73H171.027V45.5968H172.937L177.42 51.4769V45.5968Z" fill="black"/>
<path d="M192.139 54.73L191.289 52.7573H187.459L186.609 54.73H184.439L188.387 45.593H190.359L194.309 54.73H192.139ZM189.381 48.313L188.229 50.9686H190.517L189.381 48.313Z" fill="black"/>
<path d="M205.68 45.5968H207.719V54.73H205.68L201.327 49.0054V54.73H199.288V45.5968H201.196L205.68 51.4769V45.5968Z" fill="black"/>
<path d="M218.084 52.9299C218.559 52.9409 219.031 52.8388 219.46 52.632C219.888 52.4253 220.262 52.1198 220.549 51.7406L221.856 53.0874C220.818 54.2546 219.596 54.8381 218.19 54.8381C216.784 54.8381 215.625 54.3955 214.713 53.5104C213.833 52.6046 213.342 51.3898 213.347 50.1267C213.352 48.8636 213.852 47.6527 214.74 46.7539C215.188 46.3089 215.721 45.959 216.308 45.7253C216.894 45.4916 217.522 45.3789 218.154 45.3939C218.869 45.3819 219.577 45.5288 220.228 45.824C220.879 46.1193 221.457 46.5554 221.919 47.101L220.65 48.5388C220.371 48.1601 220.006 47.8531 219.584 47.6434C219.163 47.4336 218.698 47.327 218.228 47.3324C217.498 47.3198 216.793 47.592 216.261 48.0912C215.716 48.597 215.443 49.2722 215.443 50.117C215.443 50.9617 215.701 51.6439 216.215 52.1636C216.458 52.412 216.749 52.6082 217.07 52.74C217.391 52.8718 217.736 52.9364 218.084 52.9299Z" fill="black"/>
<path d="M233.966 45.5968V47.414H229.413V49.2956H233.505V51.035H229.417V52.9318H234.11V54.73H227.378V45.5968H233.966Z" fill="black"/>
<defs>
<radialGradient id="paint0_radial_1519_148253" cx="0" cy="0" r="1" gradientUnits="userSpaceOnUse" gradientTransform="translate(93.5937 19.51) scale(51.0034)">
<stop stop-color="#FADC2F"/>
<stop offset="0.36" stop-color="#EF1B52"/>
<stop offset="0.73" stop-color="#E515AF"/>
<stop offset="1" stop-color="#06BDEF"/>
</radialGradient>
<radialGradient id="paint1_radial_1519_148253" cx="0" cy="0" r="1" gradientUnits="userSpaceOnUse" gradientTransform="translate(93.5935 19.51) scale(51.0034 51.0034)">
<stop stop-color="#FADC2F"/>
<stop offset="0.36" stop-color="#EF1B52"/>
<stop offset="0.73" stop-color="#E515AF"/>
<stop offset="1" stop-color="#06BDEF"/>
</radialGradient>
</defs>
</svg>
