<svg width="318" height="80" viewBox="0 0 318 80" fill="none" xmlns="http://www.w3.org/2000/svg">
<g clip-path="url(#clip0_1281_148192)">
<path d="M138.008 40.5003C138.014 34.8263 136.255 29.2909 132.973 24.6619C132.794 24.3858 132.6 24.1198 132.391 23.8652C132.379 23.8528 132.369 23.8395 132.359 23.8254C132.283 23.7286 132.207 23.6357 132.131 23.5446C129.573 20.2494 126.293 17.5849 122.544 15.7562C118.794 13.9275 114.675 12.9834 110.504 12.9965C95.3388 12.9965 83 25.3258 83 40.5003C83 55.6748 95.3388 68.0041 110.504 68.0041C115.728 68.0139 120.845 66.5241 125.248 63.7116L125.367 63.63C129.242 61.1412 132.43 57.7192 134.639 53.678C136.847 49.6367 138.006 45.1056 138.008 40.5003ZM110.504 16.2211C114.255 16.2077 117.958 17.0707 121.317 18.7413C124.676 20.4119 127.598 22.8439 129.851 25.8436L129.866 25.8626C130.02 26.0674 130.17 26.2742 130.318 26.4828C130.911 27.4054 131.232 28.4762 131.245 29.5727C131.244 31.0367 130.662 32.4403 129.627 33.4754C128.591 34.5106 127.188 35.0928 125.724 35.0943C123.73 35.0943 121.754 33.8178 120.69 31.8413C116.917 24.844 110.246 20.6653 102.844 20.6653C99.7427 20.6617 96.6839 21.3895 93.9162 22.7897C98.4069 18.5673 104.34 16.2179 110.504 16.2211ZM86.2246 40.5003C86.2296 36.0955 87.9816 31.8725 91.0963 28.7578C94.211 25.6431 98.434 23.8911 102.839 23.8861C109.036 23.8861 114.646 27.4312 117.848 33.3701C119.468 36.3728 122.558 38.3151 125.718 38.3151C127.392 38.3122 129.029 37.8294 130.437 36.9241C131.845 36.0187 132.963 34.7287 133.66 33.207C134.913 37.1751 135.121 41.3989 134.267 45.4712C133.412 49.5435 131.522 53.3268 128.78 56.4563C128.617 54.4843 127.72 52.6453 126.265 51.3037C124.811 49.962 122.905 49.2156 120.927 49.2123C118.561 49.2123 116.424 50.7431 115.396 51.4771L115.166 51.6421C112.308 53.6888 107.524 57.1145 102.837 57.1145C98.4324 57.1089 94.2099 55.3567 91.0956 52.2421C87.9814 49.1274 86.2296 44.9048 86.2246 40.5003ZM93.9105 58.2108C96.6782 59.611 99.737 60.3389 102.839 60.3352C108.558 60.3352 113.869 56.5321 117.042 54.2654L117.27 54.1023C118.028 53.5617 119.593 52.4388 120.927 52.4388C122.164 52.4403 123.35 52.9324 124.225 53.8072C125.099 54.6819 125.591 55.8679 125.593 57.105C125.606 57.8576 125.432 58.6016 125.085 59.2697C124.738 59.9377 124.23 60.5087 123.607 60.9308C123.186 61.2021 122.757 61.4619 122.319 61.7066C118.716 63.7437 114.643 64.803 110.504 64.7795C104.336 64.785 98.3998 62.4354 93.9067 58.2108H93.9105Z" fill="#333333" fill-opacity="0.7"/>
<path d="M104.406 51.9702C106.078 51.9736 107.73 51.6008 109.238 50.8793C110.747 50.1578 112.074 49.106 113.121 47.802C114.168 46.498 114.908 44.9752 115.287 43.3462C115.665 41.7173 115.673 40.0241 115.308 38.392C114.943 36.7599 114.216 35.2308 113.18 33.9179C112.145 32.605 110.827 31.5419 109.324 30.8075C107.822 30.0731 106.173 29.6861 104.501 29.6753C102.829 29.6644 101.175 30.03 99.6635 30.7448C98.22 29.9412 96.5191 29.7351 94.9255 30.1707C93.3319 30.6064 91.9723 31.6491 91.1384 33.0753C90.3045 34.5015 90.0625 36.1976 90.4644 37.8001C90.8663 39.4026 91.8801 40.7838 93.2883 41.6477C93.4996 44.4526 94.7622 47.0742 96.8235 48.9882C98.8848 50.9021 101.593 51.9671 104.406 51.9702ZM112.332 40.8226C112.334 42.7694 111.618 44.6485 110.322 46.1013C109.026 47.5541 107.241 48.4788 105.307 48.6988C103.372 48.9188 101.425 48.4188 99.8355 47.2942C98.2464 46.1696 97.1271 44.4992 96.6912 42.6018C97.7853 42.5919 98.858 42.298 99.8042 41.7487C100.75 41.1994 101.538 40.4137 102.089 39.4686C102.64 38.5234 102.936 37.4513 102.948 36.3573C102.96 35.2632 102.688 34.1848 102.158 33.2278C103.339 32.8752 104.587 32.8036 105.801 33.0187C107.016 33.2338 108.163 33.7296 109.151 34.4666C110.14 35.2036 110.943 36.1613 111.496 37.2635C112.049 38.3658 112.336 39.5819 112.336 40.815L112.332 40.8226ZM96.6229 33.1803C97.2368 33.1803 97.8368 33.3624 98.3472 33.7034C98.8575 34.0445 99.2553 34.5293 99.4901 35.0964C99.7249 35.6636 99.7862 36.2876 99.6664 36.8896C99.5465 37.4916 99.2507 38.0446 98.8165 38.4785C98.3824 38.9124 97.8293 39.2078 97.2272 39.3273C96.6251 39.4468 96.0011 39.3851 95.4341 39.1499C94.8671 38.9148 94.3826 38.5167 94.0418 38.0062C93.7011 37.4956 93.5194 36.8955 93.5198 36.2816C93.5213 35.4592 93.8487 34.671 94.4304 34.0897C95.0121 33.5083 95.8006 33.1813 96.6229 33.1803Z" fill="#333333" fill-opacity="0.7"/>
<path d="M153.8 29.4702C153.645 29.5948 153.521 29.7537 153.438 29.9345C153.356 30.1152 153.316 30.3128 153.322 30.5116C153.32 30.7196 153.373 30.9245 153.476 31.1055C153.578 31.2864 153.727 31.4369 153.907 31.5416C154.297 31.7945 155.197 32.0954 156.606 32.4444C158.015 32.7935 159.109 33.3138 159.889 34.0055C160.667 34.6998 161.056 35.7114 161.058 37.0404C161.075 37.6598 160.949 38.2748 160.689 38.8372C160.429 39.3996 160.042 39.8942 159.559 40.2821C158.561 41.1091 157.248 41.5232 155.618 41.5245C153.266 41.5245 151.148 40.6532 149.265 38.9107L151.242 36.4885C152.841 37.8984 154.321 38.6034 155.682 38.6034C156.19 38.6324 156.694 38.4945 157.116 38.2108C157.283 38.0897 157.418 37.9295 157.508 37.7443C157.599 37.5592 157.643 37.3546 157.636 37.1485C157.641 36.9392 157.593 36.732 157.497 36.5462C157.4 36.3604 157.258 36.2022 157.084 36.0863C156.716 35.8233 155.986 35.5571 154.895 35.2878C153.168 34.8781 151.903 34.3438 151.101 33.685C150.3 33.0261 149.899 31.9917 149.901 30.5818C149.901 29.1718 150.406 28.0849 151.418 27.3212C152.43 26.5574 153.694 26.1748 155.212 26.1736C156.225 26.1766 157.231 26.3491 158.188 26.6838C159.134 26.9988 160.013 27.4884 160.779 28.1273L159.1 30.5495C157.813 29.5733 156.481 29.0846 155.105 29.0833C154.639 29.0558 154.177 29.1927 153.8 29.4702Z" fill="#333333" fill-opacity="0.7"/>
<path d="M174.113 27.8334C175.155 28.7186 175.676 30.0786 175.676 31.9135C175.676 33.7483 175.142 35.0931 174.072 35.948C173.002 36.7977 171.369 37.2226 169.174 37.2226H167.198V41.3653H163.884V26.5132H169.132C171.412 26.5082 173.073 26.9482 174.113 27.8334ZM171.682 33.6718C172.078 33.2242 172.275 32.5723 172.275 31.7162C172.275 30.8601 172.017 30.2512 171.502 29.8896C170.983 29.5279 170.179 29.3471 169.089 29.3471H167.192V34.3414H169.423C170.533 34.3452 171.286 34.122 171.682 33.6718Z" fill="#333333" fill-opacity="0.7"/>
<path d="M187.49 26.5056H190.804V41.3577H187.49V35.5155H181.583V41.3577H178.267V26.5056H181.583V32.7101H187.49V26.5056Z" fill="#333333" fill-opacity="0.7"/>
<path d="M205.168 26.5056V29.459H197.77V32.5185H204.421V35.3448H197.774V38.4252H205.401V41.3577H194.459V26.5056H205.168Z" fill="#333333" fill-opacity="0.7"/>
<path d="M220.403 31.4354C220.403 33.8153 219.461 35.3524 217.577 36.0466L221.338 41.3577H217.258L213.966 36.6156H211.67V41.3577H208.355V26.5056H213.986C216.295 26.5056 217.939 26.8951 218.918 27.6741C219.897 28.453 220.392 29.7068 220.403 31.4354ZM216.409 33.1995C216.818 32.8315 217.024 32.2466 217.025 31.4449C217.026 30.6432 216.814 30.0944 216.388 29.7985C215.963 29.5026 215.219 29.354 214.155 29.3527H211.67V33.7514H214.093C215.226 33.7514 215.998 33.5675 216.409 33.1995Z" fill="#333333" fill-opacity="0.7"/>
<path d="M234.512 26.5056V29.459H227.114V32.5185H233.766V35.3448H227.116V38.4252H234.745V41.3577H223.802V26.5056H234.512Z" fill="#333333" fill-opacity="0.7"/>
<path d="M157.165 45.5933V47.3839H152.937V49.3584H156.964V51.149H152.937V54.7264H150.906V45.5933H157.165Z" fill="#333333" fill-opacity="0.7"/>
<path d="M162.82 45.5933H164.859V54.7264H162.82V45.5933Z" fill="#333333" fill-opacity="0.7"/>
<path d="M177.42 45.5933H179.459V54.7264H177.42L173.066 49.0018V54.7264H171.027V45.5933H172.937L177.42 51.4734V45.5933Z" fill="#333333" fill-opacity="0.7"/>
<path d="M192.139 54.7263L191.289 52.7536H187.459L186.61 54.7263H184.44L188.387 45.5894H190.36L194.309 54.7263H192.139ZM189.381 48.3094L188.23 50.9649H190.517L189.381 48.3094Z" fill="#333333" fill-opacity="0.7"/>
<path d="M205.68 45.5933H207.719V54.7264H205.68L201.327 49.0018V54.7264H199.288V45.5933H201.196L205.68 51.4734V45.5933Z" fill="#333333" fill-opacity="0.7"/>
<path d="M218.083 52.9263C218.559 52.9372 219.031 52.8351 219.46 52.6284C219.888 52.4216 220.262 52.1161 220.549 51.737L221.856 53.0837C220.818 54.2509 219.596 54.8345 218.19 54.8345C216.784 54.8345 215.625 54.3919 214.713 53.5067C213.832 52.6009 213.342 51.3862 213.347 50.1231C213.352 48.8599 213.852 47.6491 214.739 46.7503C215.188 46.3052 215.721 45.9554 216.308 45.7216C216.894 45.4879 217.522 45.3752 218.154 45.3902C218.869 45.3782 219.577 45.5251 220.228 45.8204C220.879 46.1156 221.457 46.5518 221.919 47.0974L220.65 48.5352C220.371 48.1564 220.005 47.8495 219.584 47.6397C219.163 47.4299 218.698 47.3234 218.228 47.3288C217.498 47.3161 216.793 47.5883 216.261 48.0875C215.716 48.5933 215.443 49.2686 215.443 50.1133C215.443 50.958 215.7 51.6402 216.215 52.16C216.458 52.4084 216.749 52.6045 217.07 52.7363C217.391 52.8681 217.736 52.9328 218.083 52.9263Z" fill="#333333" fill-opacity="0.7"/>
<path d="M233.966 45.5933V47.4104H229.413V49.292H233.505V51.0314H229.417V52.9282H234.11V54.7264H227.378V45.5933H233.966Z" fill="#333333" fill-opacity="0.7"/>
</g>
<defs>
<clipPath id="clip0_1281_148192">
<rect width="151.745" height="55" fill="white" transform="translate(83 13.0002)"/>
</clipPath>
</defs>
</svg>
