<svg width="260" height="46" viewBox="0 0 260 46" fill="none" xmlns="http://www.w3.org/2000/svg">
<g clip-path="url(#clip0_1519_148761)">
<path d="M113.006 23C113.011 18.4608 111.604 14.0325 108.979 10.3293C108.835 10.1084 108.68 9.8956 108.513 9.69192C108.503 9.68199 108.495 9.67134 108.487 9.66006C108.426 9.58267 108.366 9.50831 108.305 9.43547C106.259 6.79924 103.635 4.66764 100.635 3.20469C97.6355 1.74174 94.3403 0.986448 91.003 0.996934C78.871 0.996934 69 10.8604 69 23C69 35.1396 78.871 45.003 91.003 45.003C95.1824 45.0109 99.2762 43.819 102.798 41.569L102.894 41.5038C105.994 39.5127 108.544 36.7751 110.311 33.5421C112.078 30.3092 113.004 26.6843 113.006 23ZM91.003 3.5766C94.0042 3.56592 96.9664 4.25633 99.6536 5.59281C102.341 6.92929 104.679 8.8749 106.481 11.2746L106.493 11.2898C106.616 11.4537 106.736 11.6191 106.854 11.786C107.329 12.5241 107.586 13.3807 107.596 14.2579C107.595 15.4291 107.129 16.552 106.301 17.3801C105.473 18.2083 104.35 18.674 103.179 18.6752C101.584 18.6752 100.003 17.654 99.1517 16.0728C96.1335 10.4749 90.7967 7.13199 84.8756 7.13199C82.3942 7.12909 79.9471 7.71136 77.7329 8.83153C81.3255 5.45363 86.0718 3.57412 91.003 3.5766ZM71.5797 23C71.5837 19.4761 72.9853 16.0977 75.477 13.606C77.9688 11.1143 81.3472 9.71264 84.871 9.70862C89.8285 9.70862 94.3171 12.5447 96.8786 17.2959C98.1745 19.698 100.646 21.2519 103.175 21.2519C104.513 21.2495 105.824 20.8633 106.95 20.139C108.076 19.4147 108.971 18.3827 109.528 17.1654C110.53 20.3398 110.697 23.7189 110.013 26.9767C109.329 30.2345 107.818 33.2612 105.624 35.7648C105.494 34.1872 104.776 32.716 103.612 31.6427C102.449 30.5694 100.924 29.9723 99.3414 29.9696C97.4492 29.9696 95.739 31.1942 94.9165 31.7815L94.7329 31.9135C92.4461 33.5508 88.6191 36.2913 84.8695 36.2913C81.3459 36.2869 77.9679 34.8851 75.4765 32.3934C72.9851 29.9017 71.5837 26.5236 71.5797 23ZM77.7284 37.1684C79.9425 38.2886 82.3896 38.8708 84.871 38.868C89.4461 38.868 93.695 35.8255 96.2337 34.0121L96.4158 33.8816C97.0228 33.4491 98.2747 32.5508 99.3414 32.5508C100.331 32.552 101.28 32.9457 101.98 33.6455C102.679 34.3453 103.073 35.2941 103.074 36.2837C103.085 36.8858 102.945 37.481 102.668 38.0155C102.391 38.5499 101.984 39.0067 101.486 39.3444C101.149 39.5614 100.806 39.7693 100.455 39.9651C97.5728 41.5947 94.3142 42.4422 91.003 42.4233C86.0692 42.4278 81.3198 40.5481 77.7253 37.1684H77.7284Z" fill="#333333" fill-opacity="0.7"/>
<path d="M86.1245 32.1759C87.4624 32.1787 88.7838 31.8804 89.9907 31.3032C91.1976 30.726 92.2592 29.8846 93.0969 28.8414C93.9345 27.7982 94.5267 26.5799 94.8295 25.2768C95.1324 23.9737 95.1382 22.6191 94.8465 21.3134C94.5548 20.0077 93.9731 18.7844 93.1444 17.7341C92.3157 16.6838 91.2614 15.8333 90.0594 15.2458C88.8575 14.6583 87.5387 14.3487 86.2009 14.34C84.863 14.3314 83.5404 14.6238 82.3309 15.1957C81.1761 14.5528 79.8154 14.3879 78.5405 14.7364C77.2656 15.0849 76.178 15.9191 75.5108 17.06C74.8437 18.201 74.6501 19.5579 74.9716 20.8399C75.2931 22.1219 76.1042 23.2269 77.2308 23.918C77.3998 26.1619 78.4099 28.2592 80.0589 29.7903C81.7079 31.3215 83.8743 32.1735 86.1245 32.1759ZM92.466 23.2579C92.4671 24.8153 91.8947 26.3186 90.858 27.4808C89.8212 28.6431 88.3928 29.3828 86.8453 29.5588C85.2979 29.7349 83.7398 29.3349 82.4685 28.4352C81.1972 27.5355 80.3017 26.1991 79.9531 24.6812C80.8283 24.6733 81.6865 24.4382 82.4435 23.9988C83.2005 23.5593 83.8303 22.9308 84.2713 22.1747C84.7122 21.4186 84.9491 20.5609 84.9588 19.6856C84.9684 18.8104 84.7505 17.9477 84.3264 17.182C85.2717 16.9 86.2698 16.8427 87.2412 17.0148C88.2126 17.1869 89.1303 17.5835 89.9212 18.1731C90.7122 18.7627 91.3544 19.5289 91.7967 20.4106C92.2391 21.2924 92.4693 22.2653 92.469 23.2518L92.466 23.2579ZM79.8984 17.1441C80.3895 17.1441 80.8695 17.2897 81.2778 17.5626C81.6861 17.8354 82.0043 18.2232 82.1922 18.6769C82.38 19.1307 82.4291 19.6299 82.3332 20.1115C82.2373 20.5931 82.0007 21.0355 81.6533 21.3826C81.306 21.7297 80.8635 21.966 80.3818 22.0617C79.9002 22.1573 79.401 22.1079 78.9474 21.9198C78.4938 21.7316 78.1061 21.4132 77.8335 21.0047C77.5609 20.5963 77.4156 20.1162 77.4159 19.6251C77.4171 18.9672 77.6791 18.3366 78.1444 17.8715C78.6098 17.4065 79.2405 17.1449 79.8984 17.1441Z" fill="#333333" fill-opacity="0.7"/>
<path d="M125.64 14.1759C125.516 14.2755 125.417 14.4027 125.351 14.5473C125.284 14.6919 125.253 14.85 125.258 15.009C125.256 15.1754 125.298 15.3393 125.38 15.4841C125.463 15.6288 125.582 15.7492 125.725 15.833C126.038 16.0353 126.758 16.2761 127.885 16.5553C129.012 16.8345 129.887 17.2508 130.511 17.8041C131.134 18.3595 131.445 19.1688 131.446 20.232C131.46 20.7275 131.359 21.2195 131.151 21.6695C130.943 22.1194 130.634 22.515 130.247 22.8254C129.449 23.487 128.398 23.8183 127.094 23.8193C125.213 23.8193 123.519 23.1223 122.012 21.7283L123.593 19.7905C124.873 20.9184 126.057 21.4824 127.146 21.4824C127.552 21.5056 127.955 21.3953 128.293 21.1683C128.426 21.0714 128.534 20.9433 128.607 20.7952C128.679 20.647 128.714 20.4834 128.709 20.3185C128.713 20.1511 128.675 19.9853 128.598 19.8367C128.52 19.688 128.407 19.5615 128.267 19.4688C127.973 19.2584 127.389 19.0454 126.516 18.8299C125.134 18.5022 124.122 18.0747 123.481 17.5477C122.84 17.0206 122.52 16.1931 122.521 15.0651C122.521 13.9372 122.925 13.0677 123.735 12.4566C124.544 11.8456 125.555 11.5396 126.769 11.5386C127.58 11.541 128.385 11.679 129.15 11.9468C129.907 12.1987 130.61 12.5904 131.223 13.1015L129.88 15.0393C128.85 14.2584 127.785 13.8674 126.684 13.8663C126.311 13.8444 125.942 13.9539 125.64 14.1759Z" fill="#333333" fill-opacity="0.7"/>
<path d="M141.891 12.8665C142.724 13.5746 143.141 14.6626 143.141 16.1305C143.141 17.5984 142.713 18.6743 141.857 19.3581C141.001 20.038 139.695 20.3779 137.939 20.3779H136.358V23.692H133.707V11.8103H137.906C139.73 11.8063 141.058 12.1583 141.891 12.8665ZM139.945 17.5372C140.262 17.1791 140.42 16.6576 140.42 15.9727C140.42 15.2878 140.214 14.8007 139.801 14.5114C139.386 14.2221 138.743 14.0774 137.871 14.0774H136.353V18.0729H138.138C139.026 18.0759 139.629 17.8973 139.945 17.5372Z" fill="#333333" fill-opacity="0.7"/>
<path d="M152.592 11.8042H155.243V23.6858H152.592V19.0121H147.866V23.6858H145.214V11.8042H147.866V16.7678H152.592V11.8042Z" fill="#333333" fill-opacity="0.7"/>
<path d="M166.735 11.8042V14.1669H160.816V16.6145H166.137V18.8755H160.82V21.3399H166.921V23.6858H158.167V11.8042H166.735Z" fill="#333333" fill-opacity="0.7"/>
<path d="M178.923 15.7481C178.923 17.6519 178.169 18.8816 176.662 19.437L179.671 23.6858H176.407L173.772 19.8922H171.936V23.6858H169.284V11.8042H173.789C175.636 11.8042 176.951 12.1158 177.734 12.7389C178.517 13.3621 178.913 14.3651 178.923 15.7481ZM175.727 17.1593C176.055 16.8649 176.219 16.397 176.22 15.7556C176.221 15.1143 176.051 14.6752 175.71 14.4385C175.37 14.2018 174.775 14.0829 173.924 14.0819H171.936V17.6009H173.874C174.78 17.6009 175.398 17.4537 175.727 17.1593Z" fill="#333333" fill-opacity="0.7"/>
<path d="M190.209 11.8042V14.1669H184.291V16.6145H189.613V18.8755H184.293V21.3399H190.396V23.6858H181.642V11.8042H190.209Z" fill="#333333" fill-opacity="0.7"/>
<path d="M128.332 27.0745V28.5069H124.95V30.0866H128.171V31.5191H124.95V34.381H123.325V27.0745H128.332Z" fill="#333333" fill-opacity="0.7"/>
<path d="M132.856 27.0745H134.487V34.381H132.856V27.0745Z" fill="#333333" fill-opacity="0.7"/>
<path d="M144.536 27.0745H146.167V34.381H144.536L141.053 29.8013V34.381H139.422V27.0745H140.95L144.536 31.7786V27.0745Z" fill="#333333" fill-opacity="0.7"/>
<path d="M156.311 34.3808L155.631 32.8027H152.568L151.888 34.3808H150.152L153.31 27.0713H154.888L158.047 34.3808H156.311ZM154.105 29.2473L153.184 31.3717H155.014L154.105 29.2473Z" fill="#333333" fill-opacity="0.7"/>
<path d="M167.144 27.0745H168.775V34.381H167.144L163.662 29.8013V34.381H162.03V27.0745H163.557L167.144 31.7786V27.0745Z" fill="#333333" fill-opacity="0.7"/>
<path d="M177.067 32.9408C177.447 32.9495 177.825 32.8679 178.168 32.7025C178.511 32.5371 178.809 32.2927 179.039 31.9893L180.085 33.0667C179.254 34.0005 178.277 34.4673 177.152 34.4673C176.027 34.4673 175.1 34.1133 174.37 33.4051C173.666 32.6805 173.274 31.7087 173.278 30.6982C173.282 29.6877 173.681 28.719 174.391 28C174.75 27.6439 175.177 27.364 175.646 27.1771C176.115 26.9901 176.618 26.8999 177.123 26.912C177.695 26.9023 178.262 27.0199 178.783 27.256C179.303 27.4922 179.765 27.8412 180.135 28.2777L179.12 29.4279C178.897 29.1249 178.604 28.8793 178.267 28.7115C177.93 28.5437 177.558 28.4585 177.182 28.4628C176.599 28.4527 176.034 28.6704 175.608 29.0698C175.172 29.4744 174.954 30.0146 174.954 30.6904C174.954 31.3662 175.16 31.9119 175.572 32.3277C175.766 32.5265 175.999 32.6834 176.256 32.7888C176.513 32.8942 176.789 32.946 177.067 32.9408Z" fill="#333333" fill-opacity="0.7"/>
<path d="M189.772 27.0745V28.5282H186.13V30.0335H189.404V31.425H186.133V32.9425H189.888V34.381H184.502V27.0745H189.772Z" fill="#333333" fill-opacity="0.7"/>
</g>
<defs>
<clipPath id="clip0_1519_148761">
<rect width="121.396" height="44" fill="white" transform="translate(69 1)"/>
</clipPath>
</defs>
</svg>
