<svg width="153" height="56" viewBox="0 0 153 56" fill="none" xmlns="http://www.w3.org/2000/svg">
<g clip-path="url(#clip0_728_145186)">
<path d="M55.8278 28.0003C55.8342 22.3263 54.0748 16.7909 50.7936 12.1619C50.6144 11.8858 50.42 11.6198 50.2113 11.3652C50.1995 11.3528 50.1888 11.3395 50.1791 11.3254C50.1032 11.2286 50.0273 11.1357 49.9514 11.0446C47.3934 7.74936 44.1135 5.08485 40.364 3.25617C36.6146 1.42748 32.4956 0.483365 28.324 0.496473C13.159 0.496473 0.82019 12.8258 0.82019 28.0003C0.82019 43.1748 13.159 55.5041 28.324 55.5041C33.5482 55.5139 38.6654 54.0241 43.0679 51.2116L43.1874 51.13C47.0624 48.6412 50.2503 45.2192 52.4589 41.178C54.6674 37.1367 55.8258 32.6056 55.8278 28.0003ZM28.324 3.72106C32.0755 3.70771 35.7782 4.57071 39.1372 6.24131C42.4962 7.91191 45.4185 10.3439 47.6715 13.3436L47.6867 13.3626C47.8403 13.5674 47.9901 13.7742 48.1381 13.9828C48.7309 14.9054 49.0523 15.9762 49.0656 17.0727C49.0641 18.5367 48.4819 19.9403 47.4467 20.9754C46.4115 22.0106 45.008 22.5928 43.544 22.5943C41.5505 22.5943 39.574 21.3178 38.5099 19.3413C34.7371 12.344 28.066 8.16529 20.6646 8.16529C17.5629 8.16167 14.504 8.88951 11.7364 10.2897C16.2271 6.06735 22.16 3.71795 28.324 3.72106ZM4.04477 28.0003C4.04979 23.5955 5.80182 19.3725 8.9165 16.2578C12.0312 13.1431 16.2541 11.3911 20.659 11.3861C26.8559 11.3861 32.4666 14.9312 35.6684 20.8701C37.2883 23.8728 40.3782 25.8151 43.5383 25.8151C45.212 25.8122 46.8497 25.3294 48.2573 24.4241C49.665 23.5187 50.7835 22.2287 51.4803 20.707C52.7327 24.6751 52.9416 28.8989 52.0867 32.9712C51.2319 37.0435 49.3421 40.8268 46.5998 43.9563C46.4372 41.9843 45.5397 40.1453 44.0853 38.8037C42.6309 37.462 40.7257 36.7156 38.747 36.7123C36.3816 36.7123 34.2439 38.2431 33.2159 38.9771L32.9863 39.1421C30.1279 41.1888 25.3441 44.6145 20.6571 44.6145C16.2526 44.6089 12.0301 42.8567 8.91583 39.7421C5.80156 36.6274 4.04979 32.4048 4.04477 28.0003ZM11.7307 45.7108C14.4984 47.111 17.5572 47.8389 20.659 47.8352C26.3779 47.8352 31.6889 44.0321 34.8623 41.7654L35.0899 41.6023C35.8486 41.0617 37.4135 39.9388 38.747 39.9388C39.9841 39.9403 41.17 40.4324 42.0448 41.3072C42.9195 42.1819 43.4116 43.3679 43.4131 44.605C43.4265 45.3576 43.2519 46.1016 42.9051 46.7697C42.5583 47.4377 42.0503 48.0087 41.4272 48.4308C41.0061 48.7021 40.5774 48.9619 40.1392 49.2066C36.5362 51.2437 32.463 52.303 28.324 52.2795C22.1567 52.285 16.22 49.9354 11.7269 45.7108H11.7307Z" fill="#333333" fill-opacity="0.7"/>
<path d="M22.2258 39.4702C23.8981 39.4736 25.5498 39.1008 27.0584 38.3793C28.5671 37.6578 29.8941 36.606 30.9412 35.302C31.9882 33.998 32.7284 32.4752 33.107 30.8462C33.4856 29.2173 33.4928 27.5241 33.1282 25.892C32.7636 24.2599 32.0364 22.7308 31.0006 21.4179C29.9647 20.105 28.6468 19.0419 27.1443 18.3075C25.6419 17.5731 23.9935 17.1861 22.3212 17.1753C20.6489 17.1644 18.9956 17.53 17.4837 18.2448C16.0402 17.4412 14.3393 17.2351 12.7457 17.6707C11.1521 18.1064 9.79253 19.1491 8.9586 20.5753C8.12467 22.0015 7.88271 23.6976 8.28461 25.3001C8.6865 26.9026 9.70026 28.2838 11.1085 29.1477C11.3198 31.9526 12.5824 34.5742 14.6437 36.4882C16.705 38.4021 19.4129 39.4671 22.2258 39.4702ZM30.1525 28.3226C30.154 30.2694 29.4384 32.1485 28.1425 33.6013C26.8466 35.0541 25.061 35.9788 23.1267 36.1988C21.1924 36.4188 19.2448 35.9188 17.6557 34.7942C16.0666 33.6696 14.9473 31.9992 14.5114 30.1018C15.6055 30.0919 16.6782 29.798 17.6244 29.2487C18.5707 28.6994 19.358 27.9137 19.9091 26.9686C20.4603 26.0234 20.7564 24.9513 20.7685 23.8573C20.7806 22.7632 20.5082 21.6848 19.978 20.7278C21.1597 20.3752 22.4074 20.3036 23.6216 20.5187C24.8358 20.7338 25.9829 21.2296 26.9716 21.9666C27.9603 22.7036 28.7631 23.6613 29.316 24.7635C29.8689 25.8658 30.1567 27.0819 30.1563 28.315L30.1525 28.3226ZM14.4431 20.6803C15.057 20.6803 15.657 20.8624 16.1674 21.2034C16.6777 21.5445 17.0755 22.0293 17.3103 22.5964C17.5451 23.1636 17.6064 23.7876 17.4865 24.3896C17.3667 24.9916 17.0709 25.5446 16.6367 25.9785C16.2026 26.4124 15.6494 26.7078 15.0474 26.8273C14.4453 26.9468 13.8213 26.8851 13.2543 26.6499C12.6873 26.4148 12.2028 26.0167 11.862 25.5062C11.5212 24.9956 11.3396 24.3955 11.3399 23.7816C11.3414 22.9592 11.6689 22.171 12.2506 21.5897C12.8323 21.0083 13.6207 20.6813 14.4431 20.6803Z" fill="#333333" fill-opacity="0.7"/>
<path d="M71.6206 16.9702C71.4656 17.0948 71.3416 17.2537 71.2586 17.4345C71.1757 17.6152 71.136 17.8128 71.1426 18.0116C71.1402 18.2196 71.193 18.4245 71.2957 18.6055C71.3983 18.7864 71.5471 18.9369 71.7269 19.0416C72.1176 19.2945 73.0173 19.5954 74.426 19.9444C75.8347 20.2935 76.9292 20.8138 77.7094 21.5055C78.4871 22.1998 78.8766 23.2114 78.8778 24.5404C78.8954 25.1598 78.7692 25.7748 78.5092 26.3372C78.2492 26.8996 77.8625 27.3942 77.3794 27.7821C76.3816 28.6091 75.0678 29.0232 73.4378 29.0245C71.0857 29.0245 68.9683 28.1532 67.0854 26.4107L69.0618 23.9885C70.6615 25.3984 72.1416 26.1034 73.5023 26.1034C74.0103 26.1324 74.5139 25.9945 74.9363 25.7108C75.1031 25.5897 75.2377 25.4295 75.3283 25.2443C75.4189 25.0592 75.4628 24.8546 75.456 24.6485C75.4614 24.4392 75.4136 24.232 75.3171 24.0462C75.2205 23.8604 75.0784 23.7022 74.904 23.5863C74.536 23.3233 73.8064 23.0571 72.7151 22.7878C70.9877 22.3781 69.7232 21.8438 68.9215 21.185C68.1198 20.5261 67.7195 19.4917 67.7208 18.0818C67.7208 16.6718 68.2266 15.5849 69.2382 14.8212C70.2499 14.0574 71.5144 13.6748 73.0319 13.6736C74.0454 13.6766 75.0513 13.8491 76.008 14.1838C76.9543 14.4988 77.8331 14.9884 78.599 15.6273L76.9203 18.0495C75.633 17.0733 74.3015 16.5846 72.9256 16.5833C72.4588 16.5558 71.9971 16.6927 71.6206 16.9702Z" fill="#333333" fill-opacity="0.7"/>
<path d="M91.9336 15.3334C92.9756 16.2186 93.4966 17.5786 93.4966 19.4135C93.4966 21.2483 92.9617 22.5931 91.8919 23.448C90.8221 24.2977 89.1896 24.7226 86.9943 24.7226H85.0178V28.8653H81.7041V14.0132H86.9526C89.2326 14.0082 90.8929 14.4482 91.9336 15.3334ZM89.5019 21.1718C89.8977 20.7242 90.0956 20.0723 90.0956 19.2162C90.0956 18.3601 89.8376 17.7512 89.3217 17.3896C88.8032 17.0279 87.999 16.8471 86.909 16.8471H85.0121V21.8414H87.2428C88.3531 21.8452 89.1061 21.622 89.5019 21.1718Z" fill="#333333" fill-opacity="0.7"/>
<path d="M105.31 14.0056H108.624V28.8577H105.31V23.0155H99.4033V28.8577H96.0876V14.0056H99.4033V20.2101H105.31V14.0056Z" fill="#333333" fill-opacity="0.7"/>
<path d="M122.988 14.0056V16.959H115.591V20.0185H122.241V22.8448H115.594V25.9252H123.222V28.8577H112.279V14.0056H122.988Z" fill="#333333" fill-opacity="0.7"/>
<path d="M138.223 18.9354C138.223 21.3153 137.281 22.8524 135.397 23.5466L139.159 28.8577H135.079L131.786 24.1156H129.491V28.8577H126.175V14.0056H131.807C134.116 14.0056 135.759 14.3951 136.738 15.1741C137.717 15.953 138.212 17.2068 138.223 18.9354ZM134.229 20.6995C134.638 20.3315 134.844 19.7466 134.845 18.9449C134.846 18.1432 134.634 17.5944 134.208 17.2985C133.783 17.0026 133.039 16.854 131.975 16.8527H129.491V21.2514H131.913C133.046 21.2514 133.818 21.0675 134.229 20.6995Z" fill="#333333" fill-opacity="0.7"/>
<path d="M152.332 14.0056V16.959H144.934V20.0185H151.587V22.8448H144.936V25.9252H152.565V28.8577H141.623V14.0056H152.332Z" fill="#333333" fill-opacity="0.7"/>
<path d="M74.9856 33.0933V34.8839H70.7576V36.8584H74.7845V38.649H70.7576V42.2264H68.7261V33.0933H74.9856Z" fill="#333333" fill-opacity="0.7"/>
<path d="M80.64 33.0933H82.6791V42.2264H80.64V33.0933Z" fill="#333333" fill-opacity="0.7"/>
<path d="M95.2398 33.0933H97.2788V42.2264H95.2398L90.8866 36.5018V42.2264H88.8475V33.0933H90.7576L95.2398 38.9734V33.0933Z" fill="#333333" fill-opacity="0.7"/>
<path d="M109.959 42.2263L109.109 40.2536H105.28L104.43 42.2263H102.26L106.207 33.0894H108.18L112.129 42.2263H109.959ZM107.201 35.8094L106.05 38.4649H108.337L107.201 35.8094Z" fill="#333333" fill-opacity="0.7"/>
<path d="M123.5 33.0933H125.539V42.2264H123.5L119.147 36.5018V42.2264H117.108V33.0933H119.016L123.5 38.9734V33.0933Z" fill="#333333" fill-opacity="0.7"/>
<path d="M135.904 40.4263C136.379 40.4372 136.851 40.3351 137.28 40.1284C137.708 39.9216 138.082 39.6161 138.37 39.237L139.676 40.5837C138.638 41.7509 137.416 42.3345 136.01 42.3345C134.604 42.3345 133.445 41.8919 132.533 41.0067C131.653 40.1009 131.162 38.8862 131.167 37.6231C131.172 36.3599 131.672 35.1491 132.56 34.2503C133.008 33.8052 133.541 33.4554 134.128 33.2216C134.715 32.9879 135.342 32.8752 135.974 32.8902C136.689 32.8782 137.397 33.0251 138.048 33.3204C138.7 33.6156 139.277 34.0518 139.739 34.5974L138.47 36.0352C138.191 35.6564 137.826 35.3495 137.404 35.1397C136.983 34.9299 136.518 34.8234 136.048 34.8288C135.318 34.8161 134.613 35.0883 134.081 35.5875C133.536 36.0933 133.263 36.7686 133.263 37.6133C133.263 38.458 133.521 39.1402 134.035 39.66C134.278 39.9084 134.569 40.1045 134.89 40.2363C135.212 40.3681 135.556 40.4328 135.904 40.4263Z" fill="#333333" fill-opacity="0.7"/>
<path d="M151.786 33.0933V34.9104H147.233V36.792H151.325V38.5314H147.237V40.4282H151.93V42.2264H145.198V33.0933H151.786Z" fill="#333333" fill-opacity="0.7"/>
</g>
<defs>
<clipPath id="clip0_728_145186">
<rect width="151.745" height="55" fill="white" transform="translate(0.82019 0.500244)"/>
</clipPath>
</defs>
</svg>
