<svg width="318" height="80" viewBox="0 0 318 80" fill="none" xmlns="http://www.w3.org/2000/svg">
<g clip-path="url(#clip0_1281_148179)">
<path d="M162.459 35.041V52.9058C162.312 52.9647 162.047 53.0236 161.753 53.0824C161.459 53.1413 161.135 53.2002 160.782 53.2002C160.076 53.2002 159.575 53.0824 159.281 52.8175C158.987 52.5527 158.839 52.0818 158.839 51.4637V35.041H152.777C152.659 34.8938 152.571 34.6584 152.482 34.4229C152.423 34.158 152.394 33.8931 152.394 33.5694C152.394 33.0691 152.512 32.6864 152.747 32.4216C153.012 32.1567 153.336 32.0095 153.748 32.0095H168.64C168.728 32.1567 168.817 32.3333 168.876 32.5982C168.964 32.863 169.023 33.1279 169.023 33.4222C169.023 34.5112 168.581 35.041 167.698 35.041H162.459Z" fill="#333333" fill-opacity="0.7"/>
<path d="M174.938 53.0237C174.35 53.0237 173.879 52.8471 173.496 52.4645C173.143 52.0819 172.937 51.611 172.937 51.0224V33.9521C172.937 33.3635 173.114 32.8926 173.496 32.5394C173.85 32.1568 174.35 31.9802 174.938 31.9802H186.27C186.387 32.1274 186.476 32.304 186.534 32.5689C186.623 32.8337 186.682 33.0986 186.682 33.3929C186.682 33.8933 186.564 34.3053 186.299 34.5702C186.064 34.8351 185.74 34.9822 185.328 34.9822H176.557V40.7214H185.21C185.328 40.8685 185.416 41.0451 185.475 41.31C185.563 41.5749 185.622 41.8398 185.622 42.1341C185.622 42.6638 185.504 43.0464 185.239 43.3113C185.004 43.5762 184.68 43.6939 184.268 43.6939H176.528V49.9923H186.387C186.476 50.1394 186.564 50.316 186.652 50.5809C186.74 50.8458 186.799 51.1107 186.799 51.405C186.799 51.9347 186.682 52.3468 186.417 52.6117C186.181 52.8765 185.858 52.9943 185.445 52.9943H174.938V53.0237Z" fill="#333333" fill-opacity="0.7"/>
<path d="M199.72 35.041V52.9058C199.573 52.9647 199.308 53.0236 199.013 53.0824C198.719 53.1413 198.395 53.2002 198.042 53.2002C197.336 53.2002 196.835 53.0824 196.541 52.8175C196.247 52.5527 196.1 52.0818 196.1 51.4637V35.041H190.037C189.919 34.8938 189.831 34.6584 189.742 34.4229C189.684 34.158 189.654 33.8931 189.654 33.5694C189.654 33.0691 189.772 32.6864 190.007 32.4216C190.272 32.1567 190.596 32.0095 191.008 32.0095H205.9C205.989 32.1567 206.077 32.3333 206.136 32.5982C206.224 32.863 206.283 33.1279 206.283 33.4222C206.283 34.5112 205.841 35.041 204.959 35.041H199.72Z" fill="#333333" fill-opacity="0.7"/>
<path d="M226.973 45.607C226.973 46.7842 226.767 47.8438 226.385 48.815C226.031 49.7862 225.472 50.6103 224.736 51.3167C224.03 51.9936 223.147 52.5528 222.088 52.906C221.057 53.2886 219.88 53.4652 218.526 53.4652C217.202 53.4652 216.025 53.2886 214.965 52.906C213.935 52.5234 213.052 51.9936 212.316 51.3167C211.61 50.6103 211.051 49.7862 210.668 48.815C210.315 47.8438 210.109 46.7842 210.109 45.607V31.9802C210.256 31.9214 210.521 31.8919 210.815 31.8331C211.139 31.7742 211.463 31.7153 211.816 31.7153C212.464 31.7153 212.964 31.8331 213.288 32.0979C213.611 32.3628 213.759 32.8043 213.759 33.4518V45.3715C213.759 47.0197 214.2 48.2558 215.083 49.1093C215.995 49.9628 217.114 50.3749 218.468 50.3749C219.144 50.3749 219.792 50.2571 220.351 50.0511C220.91 49.8157 221.411 49.4919 221.852 49.0799C222.294 48.6678 222.617 48.1381 222.853 47.52C223.118 46.902 223.235 46.1662 223.235 45.3421V31.9802C223.383 31.9214 223.647 31.8919 223.942 31.8331C224.266 31.7742 224.589 31.7153 224.942 31.7153C225.59 31.7153 226.09 31.8331 226.414 32.0979C226.738 32.3628 226.885 32.8043 226.885 33.4518V45.607H226.973Z" fill="#333333" fill-opacity="0.7"/>
<path d="M113.956 33.3046C118.183 33.3046 121.609 29.8786 121.609 25.6524C121.609 21.4262 118.183 18.0002 113.956 18.0002C109.73 18.0002 106.304 21.4262 106.304 25.6524C106.304 29.8786 109.73 33.3046 113.956 33.3046Z" fill="#333333" fill-opacity="0.7"/>
<path d="M113.957 37.7193C106.157 37.7193 99.8294 31.3916 99.8294 23.5922C100.153 19.7661 96.8863 19.7661 96.0033 20.7962C95.9445 20.8551 95.8856 20.914 95.7973 21.0023C92.7953 24.9166 91 29.7728 91 35.0999C91 39.7501 95.4147 42.7521 100.094 42.7521H127.848C132.498 42.7521 136.942 39.7795 136.942 35.0999C136.942 29.8023 135.147 24.9166 132.145 21.0317C132.086 20.9434 132.027 20.8845 131.939 20.8257C131.027 19.7661 127.76 19.7661 128.084 23.5922C128.084 31.3916 121.756 37.7193 113.957 37.7193Z" fill="#333333" fill-opacity="0.7"/>
<path d="M116.37 60.7347L122.815 51.4638C124.169 49.5213 122.786 46.843 120.402 46.843H113.956H107.511C105.127 46.843 103.744 49.5213 105.098 51.4638L111.543 60.7347C112.72 62.4122 115.193 62.4122 116.37 60.7347Z" fill="#333333" fill-opacity="0.7"/>
</g>
<defs>
<clipPath id="clip0_1281_148179">
<rect width="135.973" height="44" fill="white" transform="translate(91 18.0002)"/>
</clipPath>
</defs>
</svg>
