<svg width="260" height="46" viewBox="0 0 260 46" fill="none" xmlns="http://www.w3.org/2000/svg">
<g clip-path="url(#clip0_1519_148642)">
<path d="M132.971 19.3934V32.386C132.864 32.4289 132.671 32.4717 132.457 32.5145C132.243 32.5573 132.007 32.6001 131.75 32.6001C131.237 32.6001 130.873 32.5145 130.659 32.3218C130.445 32.1292 130.338 31.7867 130.338 31.3372V19.3934H125.928C125.843 19.2864 125.779 19.1151 125.714 18.9439C125.672 18.7513 125.65 18.5586 125.65 18.3232C125.65 17.9593 125.736 17.681 125.907 17.4884C126.1 17.2957 126.335 17.1887 126.635 17.1887H137.466C137.53 17.2957 137.594 17.4242 137.637 17.6168C137.701 17.8095 137.744 18.0021 137.744 18.2161C137.744 19.0081 137.423 19.3934 136.781 19.3934H132.971Z" fill="#333333" fill-opacity="0.7"/>
<path d="M142.046 32.4716C141.618 32.4716 141.276 32.3432 140.997 32.0649C140.74 31.7866 140.591 31.4442 140.591 31.0161V18.6013C140.591 18.1733 140.719 17.8308 140.997 17.5739C141.254 17.2957 141.618 17.1672 142.046 17.1672H150.287C150.373 17.2743 150.437 17.4027 150.48 17.5953C150.544 17.788 150.587 17.9806 150.587 18.1947C150.587 18.5585 150.501 18.8582 150.308 19.0508C150.137 19.2435 149.902 19.3505 149.602 19.3505H143.223V23.5244H149.516C149.602 23.6314 149.666 23.7599 149.709 23.9525C149.773 24.1452 149.816 24.3378 149.816 24.5519C149.816 24.9371 149.73 25.2154 149.538 25.408C149.366 25.6007 149.131 25.6863 148.831 25.6863H143.202V30.2669H150.373C150.437 30.3739 150.501 30.5024 150.565 30.695C150.629 30.8876 150.672 31.0803 150.672 31.2943C150.672 31.6796 150.587 31.9793 150.394 32.1719C150.223 32.3646 149.987 32.4502 149.688 32.4502H142.046V32.4716Z" fill="#333333" fill-opacity="0.7"/>
<path d="M160.069 19.3934V32.386C159.962 32.4289 159.769 32.4717 159.555 32.5145C159.341 32.5573 159.106 32.6001 158.849 32.6001C158.335 32.6001 157.971 32.5145 157.757 32.3218C157.543 32.1292 157.436 31.7867 157.436 31.3372V19.3934H153.027C152.941 19.2864 152.877 19.1151 152.813 18.9439C152.77 18.7513 152.749 18.5586 152.749 18.3232C152.749 17.9593 152.834 17.681 153.005 17.4884C153.198 17.2957 153.433 17.1887 153.733 17.1887H164.564C164.628 17.2957 164.692 17.4242 164.735 17.6168C164.799 17.8095 164.842 18.0021 164.842 18.2161C164.842 19.0081 164.521 19.3934 163.879 19.3934H160.069Z" fill="#333333" fill-opacity="0.7"/>
<path d="M179.89 27.0776C179.89 27.9338 179.74 28.7044 179.462 29.4107C179.205 30.1171 178.798 30.7164 178.263 31.2301C177.749 31.7224 177.107 32.1291 176.336 32.386C175.587 32.6642 174.731 32.7927 173.746 32.7927C172.783 32.7927 171.927 32.6642 171.157 32.386C170.407 32.1077 169.765 31.7224 169.23 31.2301C168.716 30.7164 168.31 30.1171 168.031 29.4107C167.775 28.7044 167.625 27.9338 167.625 27.0776V17.1673C167.732 17.1244 167.924 17.103 168.138 17.0602C168.374 17.0174 168.609 16.9746 168.866 16.9746C169.337 16.9746 169.701 17.0602 169.936 17.2529C170.172 17.4455 170.279 17.7666 170.279 18.2375V26.9064C170.279 28.105 170.6 29.004 171.242 29.6248C171.906 30.2455 172.719 30.5452 173.704 30.5452C174.196 30.5452 174.667 30.4596 175.074 30.3097C175.48 30.1385 175.844 29.903 176.165 29.6034C176.486 29.3037 176.722 28.9184 176.893 28.4689C177.086 28.0194 177.171 27.4843 177.171 26.885V17.1673C177.278 17.1244 177.471 17.103 177.685 17.0602C177.92 17.0174 178.156 16.9746 178.413 16.9746C178.884 16.9746 179.247 17.0602 179.483 17.2529C179.718 17.4455 179.825 17.7666 179.825 18.2375V27.0776H179.89Z" fill="#333333" fill-opacity="0.7"/>
<path d="M97.6956 18.1304C100.769 18.1304 103.261 15.6388 103.261 12.5652C103.261 9.49163 100.769 7 97.6956 7C94.622 7 92.1304 9.49163 92.1304 12.5652C92.1304 15.6388 94.622 18.1304 97.6956 18.1304Z" fill="#333333" fill-opacity="0.7"/>
<path d="M97.6957 21.3412C92.0234 21.3412 87.4214 16.7392 87.4214 11.067C87.6569 8.28439 85.2809 8.28439 84.6388 9.03356C84.596 9.07637 84.5532 9.11918 84.489 9.18339C82.3057 12.0302 81 15.562 81 19.4362C81 22.8182 84.2107 25.0014 87.614 25.0014H107.799C111.181 25.0014 114.413 22.8396 114.413 19.4362C114.413 15.5834 113.107 12.0302 110.924 9.20479C110.881 9.14058 110.838 9.09777 110.774 9.05496C110.11 8.28439 107.734 8.28439 107.97 11.067C107.97 16.7392 103.368 21.3412 97.6957 21.3412Z" fill="#333333" fill-opacity="0.7"/>
<path d="M99.4508 38.0796L104.138 31.3371C105.123 29.9244 104.117 27.9766 102.383 27.9766H97.6956H93.008C91.2742 27.9766 90.2682 29.9244 91.2528 31.3371L95.9404 38.0796C96.7966 39.2996 98.5946 39.2996 99.4508 38.0796Z" fill="#333333" fill-opacity="0.7"/>
</g>
<defs>
<clipPath id="clip0_1519_148642">
<rect width="98.8896" height="32" fill="white" transform="translate(81 7)"/>
</clipPath>
</defs>
</svg>
