<svg width="137" height="44" viewBox="0 0 137 44" fill="none" xmlns="http://www.w3.org/2000/svg">
<g clip-path="url(#clip0_685_144836)">
<path d="M71.8641 17.0407V34.9056C71.7169 34.9645 71.452 35.0233 71.1577 35.0822C70.8634 35.141 70.5397 35.1999 70.1865 35.1999C69.4801 35.1999 68.9798 35.0822 68.6855 34.8173C68.3912 34.5524 68.244 34.0815 68.244 33.4635V17.0407H62.1811C62.0634 16.8936 61.9751 16.6581 61.8868 16.4227C61.828 16.1578 61.7985 15.8929 61.7985 15.5691C61.7985 15.0688 61.9162 14.6862 62.1517 14.4213C62.4166 14.1564 62.7403 14.0093 63.1524 14.0093H78.0447C78.133 14.1564 78.2213 14.333 78.2801 14.5979C78.3684 14.8628 78.4273 15.1277 78.4273 15.422C78.4273 16.511 77.9858 17.0407 77.1029 17.0407H71.8641Z" fill="#333333" fill-opacity="0.7"/>
<path d="M84.343 35.0235C83.7544 35.0235 83.2835 34.8469 82.9009 34.4643C82.5477 34.0816 82.3417 33.6107 82.3417 33.0221V15.9519C82.3417 15.3633 82.5183 14.8924 82.9009 14.5392C83.254 14.1566 83.7544 13.98 84.343 13.98H95.6741C95.7918 14.1271 95.8801 14.3037 95.939 14.5686C96.0273 14.8335 96.0862 15.0984 96.0862 15.3927C96.0862 15.893 95.9684 16.3051 95.7035 16.5699C95.4681 16.8348 95.1444 16.982 94.7323 16.982H85.9617V22.7211H94.6146C94.7323 22.8683 94.8206 23.0449 94.8795 23.3097C94.9678 23.5746 95.0266 23.8395 95.0266 24.1338C95.0266 24.6636 94.9089 25.0462 94.644 25.3111C94.4086 25.576 94.0848 25.6937 93.6728 25.6937H85.9323V31.992H95.7918C95.8801 32.1392 95.9684 32.3158 96.0567 32.5806C96.145 32.8455 96.2039 33.1104 96.2039 33.4047C96.2039 33.9345 96.0862 34.3465 95.8213 34.6114C95.5858 34.8763 95.2621 34.994 94.85 34.994H84.343V35.0235Z" fill="#333333" fill-opacity="0.7"/>
<path d="M109.124 17.0407V34.9056C108.977 34.9645 108.712 35.0233 108.418 35.0822C108.124 35.141 107.8 35.1999 107.447 35.1999C106.74 35.1999 106.24 35.0822 105.946 34.8173C105.651 34.5524 105.504 34.0815 105.504 33.4635V17.0407H99.4413C99.3236 16.8936 99.2353 16.6581 99.147 16.4227C99.0881 16.1578 99.0587 15.8929 99.0587 15.5691C99.0587 15.0688 99.1764 14.6862 99.4119 14.4213C99.6768 14.1564 100.001 14.0093 100.413 14.0093H115.305C115.393 14.1564 115.481 14.333 115.54 14.5979C115.629 14.8628 115.687 15.1277 115.687 15.422C115.687 16.511 115.246 17.0407 114.363 17.0407H109.124Z" fill="#333333" fill-opacity="0.7"/>
<path d="M136.378 27.6067C136.378 28.784 136.172 29.8435 135.789 30.8148C135.436 31.786 134.877 32.6101 134.141 33.3164C133.435 33.9933 132.552 34.5525 131.492 34.9057C130.462 35.2883 129.285 35.4649 127.931 35.4649C126.607 35.4649 125.429 35.2883 124.37 34.9057C123.34 34.5231 122.457 33.9933 121.721 33.3164C121.015 32.6101 120.455 31.786 120.073 30.8148C119.72 29.8435 119.514 28.784 119.514 27.6067V13.98C119.661 13.9211 119.926 13.8917 120.22 13.8328C120.544 13.774 120.867 13.7151 121.221 13.7151C121.868 13.7151 122.368 13.8328 122.692 14.0977C123.016 14.3626 123.163 14.8041 123.163 15.4515V27.3713C123.163 29.0194 123.605 30.2556 124.487 31.1091C125.4 31.9626 126.518 32.3746 127.872 32.3746C128.549 32.3746 129.196 32.2569 129.756 32.0509C130.315 31.8154 130.815 31.4917 131.257 31.0796C131.698 30.6676 132.022 30.1378 132.257 29.5198C132.522 28.9017 132.64 28.1659 132.64 27.3418V13.98C132.787 13.9211 133.052 13.8917 133.346 13.8328C133.67 13.774 133.994 13.7151 134.347 13.7151C134.994 13.7151 135.495 13.8328 135.819 14.0977C136.142 14.3626 136.289 14.8041 136.289 15.4515V27.6067H136.378Z" fill="#333333" fill-opacity="0.7"/>
<path d="M23.3611 15.3043C27.5872 15.3043 31.0132 11.8784 31.0132 7.65217C31.0132 3.42599 27.5872 0 23.3611 0C19.1349 0 15.7089 3.42599 15.7089 7.65217C15.7089 11.8784 19.1349 15.3043 23.3611 15.3043Z" fill="#333333" fill-opacity="0.7"/>
<path d="M23.3611 19.7191C15.5617 19.7191 9.23397 13.3913 9.23397 5.59197C9.55772 1.76589 6.29083 1.76589 5.40789 2.79599C5.34902 2.85485 5.29016 2.91371 5.20186 3.00201C2.19986 6.91639 0.404541 11.7726 0.404541 17.0997C0.404541 21.7498 4.81926 24.7518 9.49885 24.7518H37.2527C41.9029 24.7518 46.347 21.7793 46.347 17.0997C46.347 11.802 44.5517 6.91639 41.5497 3.03144C41.4908 2.94315 41.432 2.88428 41.3437 2.82542C40.4313 1.76589 37.1644 1.76589 37.4882 5.59197C37.4882 13.3913 31.1604 19.7191 23.3611 19.7191Z" fill="#333333" fill-opacity="0.7"/>
<path d="M25.7744 42.7344L32.2199 33.4635C33.5738 31.521 32.1905 28.8428 29.8065 28.8428H23.3611H16.9156C14.5316 28.8428 13.1483 31.521 14.5022 33.4635L20.9477 42.7344C22.1249 44.412 24.5972 44.412 25.7744 42.7344Z" fill="#333333" fill-opacity="0.7"/>
</g>
<defs>
<clipPath id="clip0_685_144836">
<rect width="135.973" height="44" fill="white" transform="translate(0.404541)"/>
</clipPath>
</defs>
</svg>
