<svg width="318" height="80" viewBox="0 0 318 80" fill="none" xmlns="http://www.w3.org/2000/svg">
<path d="M162.472 35.0437V52.9115C162.324 52.9704 162.059 53.0293 161.765 53.0882C161.471 53.147 161.147 53.2059 160.794 53.2059C160.087 53.2059 159.587 53.0882 159.292 52.8232C158.998 52.5583 158.851 52.0873 158.851 51.4692V35.0437H152.787C152.669 34.8965 152.581 34.661 152.493 34.4255C152.434 34.1606 152.404 33.8956 152.404 33.5718C152.404 33.0714 152.522 32.6888 152.758 32.4238C153.022 32.1589 153.346 32.0117 153.758 32.0117H168.653C168.741 32.1589 168.83 32.3355 168.889 32.6004C168.977 32.8654 169.036 33.1303 169.036 33.4247C169.036 34.5138 168.594 35.0437 167.711 35.0437H162.472Z" fill="#686DF1"/>
<path d="M174.952 53.0293C174.364 53.0293 173.893 52.8527 173.51 52.47C173.157 52.0873 172.951 51.6164 172.951 51.0276V33.9545C172.951 33.3658 173.127 32.8948 173.51 32.5416C173.863 32.1589 174.364 31.9823 174.952 31.9823H186.285C186.403 32.1295 186.491 32.3061 186.55 32.571C186.639 32.836 186.697 33.1009 186.697 33.3952C186.697 33.8957 186.58 34.3078 186.315 34.5727C186.079 34.8376 185.756 34.9848 185.343 34.9848H176.571V40.7249H185.226C185.343 40.8721 185.432 41.0487 185.491 41.3136C185.579 41.5786 185.638 41.8435 185.638 42.1378C185.638 42.6677 185.52 43.0504 185.255 43.3153C185.02 43.5802 184.696 43.698 184.284 43.698H176.542V49.9974H186.403C186.491 50.1445 186.58 50.3212 186.668 50.5861C186.756 50.851 186.815 51.1159 186.815 51.4103C186.815 51.9402 186.697 52.3523 186.433 52.6172C186.197 52.8821 185.873 52.9999 185.461 52.9999H174.952V53.0293Z" fill="#686DF1"/>
<path d="M199.738 35.0437V52.9115C199.59 52.9704 199.326 53.0293 199.031 53.0882C198.737 53.147 198.413 53.2059 198.06 53.2059C197.353 53.2059 196.853 53.0882 196.559 52.8232C196.264 52.5583 196.117 52.0873 196.117 51.4692V35.0437H190.053C189.935 34.8965 189.847 34.661 189.759 34.4255C189.7 34.1606 189.67 33.8956 189.67 33.5718C189.67 33.0714 189.788 32.6888 190.024 32.4238C190.289 32.1589 190.612 32.0117 191.024 32.0117H205.919C206.008 32.1589 206.096 32.3355 206.155 32.6004C206.243 32.8654 206.302 33.1303 206.302 33.4247C206.302 34.5138 205.86 35.0437 204.977 35.0437H199.738Z" fill="#686DF1"/>
<path d="M226.996 45.6112C226.996 46.7887 226.79 47.8484 226.407 48.8198C226.054 49.7912 225.495 50.6154 224.759 51.3219C224.052 51.9989 223.169 52.5582 222.109 52.9115C221.079 53.2941 219.902 53.4708 218.548 53.4708C217.223 53.4708 216.046 53.2941 214.986 52.9115C213.956 52.5288 213.073 51.9989 212.337 51.3219C211.63 50.6154 211.071 49.7912 210.688 48.8198C210.335 47.8484 210.129 46.7887 210.129 45.6112V31.9822C210.276 31.9233 210.541 31.8939 210.835 31.835C211.159 31.7762 211.483 31.7173 211.836 31.7173C212.484 31.7173 212.984 31.835 213.308 32.1C213.632 32.3649 213.779 32.8064 213.779 33.454V45.3758C213.779 47.0242 214.221 48.2605 215.104 49.1142C216.016 49.9678 217.135 50.3799 218.489 50.3799C219.166 50.3799 219.813 50.2622 220.373 50.0561C220.932 49.8206 221.432 49.4968 221.874 49.0847C222.316 48.6726 222.639 48.1428 222.875 47.5246C223.14 46.9064 223.258 46.1705 223.258 45.3463V31.9822C223.405 31.9233 223.67 31.8939 223.964 31.835C224.288 31.7762 224.612 31.7173 224.965 31.7173C225.612 31.7173 226.113 31.835 226.437 32.1C226.76 32.3649 226.908 32.8064 226.908 33.454V45.6112H226.996Z" fill="#686DF1"/>
<path d="M113.961 33.3069C118.187 33.3069 121.614 29.8803 121.614 25.6535C121.614 21.4266 118.187 18 113.961 18C109.734 18 106.307 21.4266 106.307 25.6535C106.307 29.8803 109.734 33.3069 113.961 33.3069Z" fill="#04A8F0"/>
<path d="M113.96 37.7224C106.16 37.7224 99.8309 31.3935 99.8309 23.5929C100.155 19.7662 96.8873 19.7662 96.0042 20.7965C95.9453 20.8553 95.8864 20.9142 95.7981 21.0025C92.7956 24.9175 91 29.7745 91 35.1025C91 39.7535 95.4155 42.756 100.096 42.756H127.854C132.505 42.756 136.95 39.7829 136.95 35.1025C136.95 29.804 135.155 24.9175 132.152 21.0319C132.093 20.9436 132.034 20.8848 131.946 20.8259C131.033 19.7662 127.766 19.7662 128.09 23.5929C128.09 31.3935 121.761 37.7224 113.96 37.7224Z" fill="#686DF1"/>
<path d="M116.374 60.7416L122.821 51.4692C124.175 49.5264 122.791 46.8477 120.407 46.8477H113.96H107.514C105.13 46.8477 103.746 49.5264 105.1 51.4692L111.547 60.7416C112.724 62.4195 115.197 62.4195 116.374 60.7416Z" fill="#04A8F0"/>
</svg>
