<svg width="397" height="80" viewBox="0 0 397 80" fill="none" xmlns="http://www.w3.org/2000/svg">
<path d="M106.261 52.0241C106.233 52.0474 106.204 52.0681 106.176 52.0888C106.147 52.1095 106.116 52.1302 106.088 52.1509C106.031 52.1897 105.974 52.2285 105.917 52.2648L105.896 52.2777C105.85 52.3088 105.801 52.3373 105.751 52.3657C105.679 52.4097 105.609 52.4511 105.534 52.49C105.034 52.7669 104.512 52.9921 103.976 53.1888C103.471 53.3752 102.958 53.5357 102.443 53.6806C101.703 53.8877 100.952 54.0585 100.199 54.2087C99.4642 54.3562 98.7291 54.4804 97.9888 54.5891C97.2485 54.6979 96.5056 54.7859 95.7628 54.8635C95.5194 54.8894 95.2761 54.9127 95.0302 54.936C94.541 54.98 94.0518 55.0188 93.5626 55.0525C93.3167 55.068 93.0734 55.0835 92.8275 55.0991C92.2788 55.1301 91.73 55.1534 91.1813 55.1715C91.083 55.1741 90.982 55.1793 90.8811 55.1819C90.7905 55.1845 90.6973 55.1871 90.6067 55.1897C90.8319 54.9127 91.0571 54.6357 91.2616 54.3433C91.29 54.307 91.3211 54.2708 91.3496 54.232C91.8129 53.6081 92.2581 52.9714 92.6826 52.3217C92.7266 52.3217 92.768 52.3165 92.812 52.314C93.0812 52.2984 93.3504 52.2829 93.6222 52.2622C93.8266 52.2492 94.0311 52.2337 94.2356 52.2182C95.6644 52.1069 97.088 51.949 98.5064 51.7264C98.918 51.6617 99.3296 51.5918 99.7385 51.5167C100.694 51.3381 101.644 51.1285 102.578 50.8593C102.782 50.7997 102.987 50.7376 103.191 50.6755C103.295 50.6444 103.396 50.6108 103.497 50.5771C103.65 50.603 103.792 50.6677 103.934 50.7221C104.061 50.7687 104.188 50.8179 104.315 50.867C104.672 51.0094 105.024 51.1673 105.366 51.3459C105.5 51.4158 105.632 51.4908 105.762 51.5711C105.935 51.6772 106.103 51.7859 106.261 51.9128C106.308 51.949 106.321 51.9645 106.303 51.9852C106.295 51.9956 106.282 52.0059 106.259 52.0241H106.261Z" fill="#F1ECE2"/>
<path d="M93.0166 58.6064C92.9881 58.6245 92.9571 58.6245 92.926 58.6142C92.9338 58.609 92.9416 58.6064 92.9467 58.6038C92.9597 58.5986 92.97 58.5986 92.983 58.5986C92.9933 58.5986 93.0063 58.6012 93.0166 58.6064Z" fill="#5E93FF"/>
<path d="M92.8949 58.6144C92.8587 58.6299 92.8198 58.6325 92.781 58.6196C92.8172 58.5963 92.8561 58.5989 92.8949 58.6144Z" fill="#5E93FF"/>
<path d="M92.75 58.6194C92.7137 58.6349 92.6749 58.6375 92.6387 58.6272C92.6749 58.6039 92.7137 58.6065 92.75 58.6194Z" fill="#5E93FF"/>
<path d="M92.6076 58.6271C92.5714 58.6452 92.5326 58.6452 92.4963 58.6322C92.4963 58.6322 92.4989 58.6322 92.5015 58.6322C92.5378 58.6141 92.574 58.6141 92.6102 58.6271H92.6076Z" fill="#5E93FF"/>
<path d="M92.3877 58.6246C92.411 58.6195 92.4369 58.6246 92.4628 58.6324C92.4265 58.6505 92.3877 58.6505 92.3489 58.6376C92.3618 58.6298 92.3722 58.6272 92.3851 58.6246H92.3877Z" fill="#5E93FF"/>
<path d="M92.2607 58.6298C92.2788 58.6298 92.2995 58.6323 92.3176 58.6401C92.2814 58.6556 92.2451 58.6582 92.2063 58.6453C92.2244 58.6349 92.2425 58.6298 92.2607 58.6298Z" fill="#5E93FF"/>
<path d="M92.1469 58.6376C92.1469 58.6376 92.1651 58.6427 92.1728 58.6453C92.1366 58.6634 92.1003 58.6634 92.0615 58.6505C92.0874 58.635 92.1159 58.6324 92.1418 58.6376H92.1469Z" fill="#5E93FF"/>
<path d="M92.0279 58.6506C91.9839 58.6687 91.9399 58.6687 91.8933 58.6557C91.9373 58.635 91.9813 58.6376 92.0279 58.6506Z" fill="#5E93FF"/>
<path d="M91.8623 58.6556C91.826 58.6737 91.7898 58.6711 91.751 58.6608C91.7872 58.6401 91.8235 58.6401 91.8623 58.6556Z" fill="#5E93FF"/>
<path d="M101.421 49.9613C101.439 49.9639 101.46 49.9639 101.478 49.9665C101.504 49.9665 101.527 49.9743 101.545 49.9976C101.496 49.9924 101.447 49.982 101.403 49.9587C101.405 49.9587 101.408 49.9587 101.413 49.9587C101.416 49.9587 101.418 49.9587 101.421 49.9587V49.9613Z" fill="#5E93FF"/>
<path d="M80.6701 61.9767C80.6701 61.9767 80.6778 61.9922 80.6804 62H79.9194C79.9194 62 79.9272 61.987 79.9324 61.9767C79.9945 61.9767 80.054 61.9767 80.1162 61.9767C80.2999 61.9767 80.4837 61.9767 80.6675 61.9767H80.6701Z" fill="#3180F4"/>
<path d="M103.497 50.5773C103.396 50.611 103.292 50.6446 103.191 50.6757C102.987 50.7404 102.783 50.8025 102.578 50.8595C101.644 51.1261 100.694 51.3383 99.7386 51.5169C99.3296 51.592 98.918 51.6619 98.5065 51.7266C97.0906 51.9492 95.667 52.1071 94.2356 52.2184C94.0312 52.2339 93.8267 52.2494 93.6222 52.2624C93.353 52.2805 93.0838 52.2986 92.812 52.3141C92.768 52.3141 92.7266 52.3193 92.6826 52.3219C92.9751 51.8741 93.2598 51.4211 93.5368 50.9604C93.9354 50.2952 94.3133 49.6196 94.6757 48.9363C95.3642 48.9958 96.0527 49.0657 96.7412 49.1511C96.793 49.1563 96.8422 49.1666 96.8939 49.1744C97.2019 49.1977 97.5074 49.2443 97.8102 49.2883C98.2011 49.3452 98.5919 49.4074 98.9828 49.4747C99.5082 49.5627 100.034 49.661 100.556 49.7749C100.839 49.837 101.121 49.8992 101.403 49.9613C101.447 49.9846 101.496 49.9949 101.545 50.0001C102.148 50.1554 102.749 50.3159 103.339 50.5126C103.393 50.5307 103.455 50.5359 103.497 50.5825V50.5773Z" fill="#FDBF41"/>
<path d="M83.4653 55.0137C83.7086 55.0318 83.9519 55.0525 84.1953 55.068C83.9519 55.0525 83.7086 55.0318 83.4653 55.0137Z" fill="#F1ECE2"/>
<path d="M75.6872 60.4443C75.6691 60.4443 75.6536 60.4391 75.6406 60.4236C75.6406 60.4236 75.6432 60.4236 75.6458 60.4236C75.6458 60.4236 75.651 60.4236 75.6536 60.4236C75.6536 60.4236 75.6587 60.4236 75.6613 60.4236H75.6665C75.6665 60.4236 75.6717 60.4262 75.6743 60.4288H75.6769C75.6769 60.4288 75.682 60.4365 75.6846 60.4391L75.6872 60.4443Z" fill="#404A5A"/>
<path d="M75.6408 60.4235C75.6227 60.4235 75.6046 60.421 75.5942 60.4028C75.5942 60.4028 75.6046 60.4028 75.6072 60.4028C75.6072 60.4028 75.6305 60.4106 75.6382 60.4235H75.6408Z" fill="#404A5A"/>
<path d="M75.5914 60.4002L75.5889 60.3977L75.5914 60.4002Z" fill="#404A5A"/>
<path d="M75.5914 60.4004C75.5707 60.4004 75.5526 60.4004 75.5422 60.3771C75.5629 60.3771 75.5785 60.3797 75.5888 60.3978L75.5914 60.4004Z" fill="#404A5A"/>
<path d="M75.5448 60.3769H75.5422V60.3744L75.5448 60.3769Z" fill="#404A5A"/>
<path d="M75.5448 60.3769L75.5422 60.3744H75.5448V60.3769Z" fill="#404A5A"/>
<path d="M75.5449 60.3744C75.5242 60.3744 75.5035 60.3796 75.4983 60.3537C75.519 60.3485 75.5371 60.3537 75.5475 60.3744H75.5449Z" fill="#404A5A"/>
<path d="M75.3559 60.2554C75.3688 60.2631 75.3843 60.2709 75.3999 60.2787C75.4102 60.2838 75.4232 60.289 75.4335 60.2942C75.4516 60.3045 75.4698 60.3149 75.4827 60.333C75.4879 60.3382 75.4905 60.346 75.4956 60.3537C75.4309 60.3486 75.3766 60.3227 75.3274 60.2813L75.3585 60.2554H75.3559Z" fill="#404A5A"/>
<path d="M79.7253 58.2027C79.6735 58.2105 79.6192 58.2208 79.5674 58.226C79.3629 58.2545 79.1584 58.27 78.9539 58.2752C78.8841 58.2752 78.8168 58.2752 78.7469 58.2752C78.677 58.2752 78.6097 58.2726 78.5398 58.27C78.5087 58.27 78.4803 58.2648 78.4518 58.2622C78.4233 58.2596 78.3923 58.2545 78.3638 58.2519C78.3275 58.2493 78.2965 58.2338 78.268 58.2079C78.1878 58.1328 78.1075 58.0578 78.0325 57.9801C78.5967 58.0629 79.161 58.1354 79.7253 58.2027Z" fill="#F1ECE2"/>
<path d="M88.6008 48.6774C88.1945 48.6774 87.7881 48.6825 87.3843 48.6903C86.7087 49.7386 85.9788 50.7481 85.1842 51.711C85.0159 51.9129 84.8477 52.1122 84.6742 52.3089C84.2368 52.8058 83.7838 53.2847 83.305 53.7428C82.8883 54.144 82.456 54.5271 82.003 54.8869C81.651 55.169 81.2886 55.4382 80.9107 55.6867C80.2145 56.1475 79.4871 56.5435 78.7028 56.8334C78.3042 56.9783 77.8978 57.0974 77.4811 57.1673C77.4578 57.1725 77.4345 57.1802 77.4138 57.188C77.4138 57.1958 77.4164 57.2035 77.419 57.2087C77.419 57.2139 77.419 57.2165 77.4242 57.2216C77.4552 57.2682 77.4837 57.3122 77.5148 57.3562C77.5769 57.4442 77.6416 57.5322 77.7089 57.6177C77.8098 57.7445 77.9186 57.8661 78.0299 57.9852C78.5941 58.068 79.1584 58.1405 79.7227 58.2078C79.8728 58.1845 80.0229 58.156 80.173 58.1198C80.5173 58.037 80.8538 57.9309 81.1799 57.804C81.343 57.7393 81.5061 57.672 81.6665 57.5995C81.827 57.5271 81.9849 57.4468 82.1402 57.3666C82.2075 57.3303 82.2748 57.2941 82.3421 57.2579C82.8106 56.999 83.261 56.7117 83.6907 56.4011C84.1229 56.0905 84.5371 55.754 84.9383 55.402C84.9952 55.3502 85.0521 55.3011 85.1091 55.2493C85.1505 55.2105 85.1919 55.1716 85.2359 55.1328C85.4948 54.8973 85.7458 54.654 85.9917 54.4055C86.0875 54.3097 86.1807 54.2113 86.2765 54.113C86.5845 53.7894 86.8873 53.4581 87.1798 53.119C87.3558 52.9146 87.5266 52.7101 87.6975 52.5004C87.7182 52.4745 87.7389 52.4486 87.7596 52.4254C87.8761 52.2804 87.99 52.1355 88.1039 51.9879C88.4611 51.5246 88.8079 51.0509 89.1392 50.5695C89.3178 50.3081 89.4938 50.0466 89.6672 49.78C89.763 49.6299 89.8588 49.4798 89.952 49.3296C90.0814 49.1226 90.2082 48.9155 90.335 48.7058C89.7552 48.6929 89.178 48.6851 88.5982 48.6851L88.6008 48.6774Z" fill="#F1ECE2"/>
<path d="M73.1454 59.3107C73.1273 59.3132 73.1118 59.3107 73.104 59.29C73.1247 59.2848 73.1402 59.29 73.1454 59.3107Z" fill="#C18B00"/>
<path d="M85.1609 48.7629C84.871 48.7759 84.5811 48.7914 84.2912 48.8095C83.9728 49.2599 83.6441 49.7025 83.3024 50.1348C82.9659 50.5593 82.6216 50.976 82.2593 51.3798C82.0548 51.6102 81.8451 51.8353 81.6355 52.0605C81.4853 52.2184 81.3326 52.3763 81.1773 52.529C80.5535 53.1373 79.9013 53.7145 79.1998 54.2322C79.0833 54.3176 78.9668 54.403 78.8452 54.4859C78.4518 54.7602 78.0428 55.0139 77.6209 55.2417C77.3155 55.4073 76.9997 55.5549 76.6787 55.6895C76.6787 55.705 76.6787 55.7205 76.6839 55.736C76.7279 55.8603 76.7771 55.9819 76.8288 56.101C76.8806 56.2227 76.935 56.3391 76.9919 56.4582C77.1058 56.6937 77.2326 56.9215 77.375 57.1441C77.3853 57.1622 77.4009 57.1726 77.4138 57.1855C77.4371 57.1778 77.4578 57.17 77.4811 57.1648C77.9004 57.0949 78.3068 56.9759 78.7028 56.8309C79.4871 56.5436 80.217 56.145 80.9107 55.6843C81.2886 55.4332 81.651 55.1666 82.003 54.8845C82.4534 54.5247 82.8857 54.1416 83.305 53.7404C83.7838 53.2823 84.2368 52.8034 84.6742 52.3064C84.8477 52.1097 85.0159 51.9104 85.1842 51.7085C85.9788 50.7482 86.7087 49.7362 87.3843 48.6879C86.644 48.7008 85.9011 48.7241 85.1609 48.7603V48.7629Z" fill="#FDBF41"/>
<path d="M99.7333 37.6095C99.7566 37.6095 99.7825 37.6095 99.7669 37.5732C99.7773 37.5732 99.7902 37.5758 99.8006 37.5784C99.7928 37.5784 99.7876 37.5784 99.7851 37.5836C99.7747 37.5914 99.7747 37.6069 99.7773 37.6224C99.7618 37.6224 99.7488 37.6224 99.7333 37.6198C99.7255 37.6198 99.7152 37.6198 99.7074 37.6198C99.6893 37.6198 99.6712 37.6172 99.6531 37.6147C99.6116 37.6095 99.5702 37.6017 99.5288 37.5914C99.5987 37.5862 99.666 37.6121 99.7333 37.6147V37.6095Z" fill="#E7AA24"/>
<path d="M78.5942 51.6543C78.6226 51.6594 78.6537 51.6646 78.6822 51.6698C78.1127 52.2185 77.5174 52.7336 76.8806 53.2047C76.6477 53.3755 76.4173 53.5489 76.1663 53.6939C76.1197 53.492 76.099 53.2875 76.0757 53.0856C75.9954 52.4334 75.9669 51.7811 75.9644 51.1262C76.1222 51.165 76.2801 51.2013 76.4406 51.2375C76.9039 51.3436 77.3699 51.4368 77.8383 51.5248C78.0894 51.5714 78.3431 51.6154 78.5942 51.6568V51.6543Z" fill="#F1ECE2"/>
<path d="M81.1954 49.076C81.1281 49.0837 81.0608 49.0915 80.9935 49.0967C80.3231 49.9482 79.6061 50.761 78.8322 51.5246C78.783 51.5738 78.7338 51.6203 78.6821 51.6695C78.7054 51.6721 78.7287 51.6773 78.7494 51.6825C78.7261 51.6799 78.7028 51.6747 78.6795 51.6721C78.11 52.2208 77.5147 52.7359 76.878 53.207C76.645 53.3779 76.4146 53.5513 76.1636 53.6962C76.1636 53.7247 76.1662 53.7506 76.1713 53.7791C76.1713 53.7868 76.1713 53.7946 76.1713 53.8024C76.1765 53.8334 76.1843 53.8645 76.1895 53.8955C76.1946 53.9214 76.1972 53.9447 76.2024 53.9706C76.2153 54.0327 76.2257 54.0974 76.2386 54.1595C76.3111 54.5193 76.3965 54.8739 76.5052 55.2234C76.5544 55.3813 76.5932 55.5417 76.6709 55.6867C76.9919 55.5521 77.3076 55.4046 77.6131 55.2389C78.0376 55.0111 78.4439 54.7575 78.8374 54.4831C78.9564 54.4003 79.0755 54.3174 79.192 54.2294C79.8934 53.7118 80.5457 53.1371 81.1695 52.5263C81.3248 52.3736 81.4775 52.2157 81.6277 52.0578C81.8399 51.8352 82.047 51.6074 82.2515 51.377C82.6138 50.9732 82.9581 50.5565 83.2946 50.132C83.6362 49.6998 83.965 49.2571 84.2833 48.8068C83.2506 48.8689 82.2178 48.9569 81.1902 49.0708L81.1954 49.076Z" fill="#FF1100"/>
<path d="M78.7493 51.6802C78.726 51.6776 78.7027 51.6724 78.6794 51.6698C78.7027 51.6724 78.726 51.6776 78.7467 51.6802H78.7493Z" fill="#F1ECE2"/>
<path d="M78.682 51.667C78.6535 51.6618 78.6251 51.6567 78.594 51.6515L78.682 51.667Z" fill="#FF1100"/>
<path d="M77.8381 51.5221C78.0892 51.5687 78.3429 51.6127 78.5939 51.6541C78.3429 51.6127 78.0892 51.5687 77.8381 51.5221Z" fill="#FF1100"/>
<path d="M80.551 49.1589C80.6985 49.1279 80.8461 49.1123 80.9936 49.0968C80.3232 49.9484 79.6062 50.7611 78.8323 51.5247C78.7831 51.5739 78.7339 51.6205 78.6822 51.6697L78.5942 51.6541C78.3431 51.6127 78.0894 51.5687 77.8383 51.5221C77.3699 51.4367 76.9039 51.3409 76.4406 51.2348C76.2827 51.1986 76.1248 51.1597 75.9644 51.1235C75.9644 50.8776 75.9669 50.6291 75.9747 50.3806C75.9799 50.2331 75.9851 50.0882 75.9928 49.9406C76.5312 49.8112 77.0722 49.6999 77.6183 49.5964C78.5476 49.4204 79.482 49.278 80.419 49.1615C80.4345 49.1615 80.45 49.1563 80.463 49.1563C80.4811 49.1563 80.4966 49.1512 80.5147 49.1537C80.5251 49.1537 80.5354 49.1537 80.5458 49.1589H80.551Z" fill="#FDBF41"/>
<path d="M97.1244 37.2523C97.668 37.3196 98.2089 37.3843 98.7525 37.4516C98.7499 37.4568 98.7447 37.462 98.7396 37.4672C98.4031 37.4257 98.064 37.3869 97.7275 37.3429C97.6292 37.33 97.5308 37.3222 97.4324 37.3119C97.3341 37.3015 97.2357 37.2911 97.1399 37.2704C97.1348 37.2653 97.1296 37.2575 97.1218 37.2523H97.1244Z" fill="#007FFF"/>
<path d="M94.4661 38.9374C94.4868 38.8598 94.5049 38.7821 94.5256 38.7045C94.5049 38.7821 94.4868 38.8598 94.4661 38.9374Z" fill="#F1ECE2"/>
<path d="M110.053 49.8345C110.053 49.089 110.053 48.3436 110.053 47.5955C110.004 47.3885 109.942 47.184 109.826 47.0028C109.639 46.7077 109.417 46.4463 109.14 46.2314C108.85 46.0063 108.552 45.794 108.231 45.6154C107.791 45.3695 107.333 45.1599 106.875 44.9528C106.792 44.9165 106.709 44.8984 106.626 44.8648C105.588 44.4584 104.519 44.153 103.437 43.8915C102.744 43.7233 102.047 43.5783 101.346 43.4463C100.559 43.2988 99.7697 43.172 98.9777 43.0633C98.4315 42.9882 97.8854 42.9209 97.3366 42.8588C97.0933 42.8329 96.85 42.8044 96.6041 42.7811C95.913 42.7138 95.2245 42.6517 94.5334 42.6025C94.1244 42.5715 93.7181 42.5456 93.3091 42.5249C92.9622 42.5068 92.6154 42.4886 92.2686 42.4731C91.7224 42.4472 91.1763 42.4291 90.6301 42.4162C90.5913 42.4162 90.5499 42.4162 90.511 42.4136C89.6491 42.3955 88.7846 42.3903 87.9227 42.3955C87.9097 42.3955 87.8942 42.3955 87.8812 42.3955C86.9934 42.4032 86.1056 42.4239 85.2178 42.4602C85.1634 42.4602 85.1117 42.4653 85.0599 42.4679C84.009 42.5119 82.9607 42.5792 81.915 42.6672C80.3775 42.7967 78.8452 42.9727 77.318 43.2134C77.2818 43.2186 77.2456 43.2237 77.2093 43.2315C77.1498 43.4386 77.098 43.6482 77.023 43.8501C76.9712 44.0572 76.9194 44.2643 76.8677 44.4713C76.7279 45.0201 76.601 45.574 76.4897 46.1279L76.7227 46.0891C76.8236 46.071 76.9272 46.0554 77.0281 46.0373C77.1783 46.0114 77.331 45.9881 77.4811 45.9648C78.0272 45.8794 78.576 45.8044 79.1247 45.7345C79.6735 45.6646 80.2222 45.6051 80.7735 45.5481C81.1411 45.5119 81.5086 45.4782 81.8762 45.4472C82.4327 45.4006 82.9892 45.3617 83.5483 45.3255C84.0737 45.2945 84.5966 45.266 85.122 45.2453C85.2566 45.2401 85.3912 45.2323 85.5258 45.2272C85.7251 45.2194 85.927 45.2142 86.1289 45.2064C86.2583 45.2039 86.3877 45.1987 86.5172 45.1961C86.9908 45.1857 87.4619 45.178 87.9356 45.1728C88.1142 45.1728 88.2902 45.1728 88.4688 45.1702C88.7742 45.1702 89.0797 45.1702 89.3825 45.1728C89.4938 45.1728 89.6025 45.1728 89.7138 45.1754C89.8329 45.1754 89.9519 45.178 90.071 45.1806C90.3946 45.1857 90.7155 45.1935 91.0391 45.2039C91.3626 45.2142 91.6836 45.2246 92.0071 45.2375C92.0615 45.2375 92.1132 45.2427 92.1676 45.2453C92.5145 45.2608 92.8587 45.2763 93.2056 45.297C93.4722 45.3126 93.7362 45.3281 94.0028 45.3462C94.4014 45.3721 94.8 45.4006 95.1986 45.4342C95.5662 45.4653 95.9311 45.4989 96.2987 45.5352C96.3116 45.5352 96.3246 45.5352 96.3375 45.5378C96.6015 45.5636 96.8629 45.5895 97.127 45.6154C97.5489 45.6568 97.9682 45.7086 98.3901 45.7629C98.8094 45.8173 99.2287 45.8794 99.648 45.9415C99.8215 45.9674 99.9975 45.9933 100.171 46.0218C100.691 46.1046 101.214 46.2004 101.732 46.3013C102.037 46.3609 102.34 46.423 102.645 46.4903C102.948 46.5576 103.251 46.6249 103.554 46.6999C104.012 46.8138 104.47 46.9329 104.921 47.0675C105.524 47.2461 106.119 47.4428 106.704 47.6758C106.852 47.7327 106.996 47.7948 107.141 47.857C107.361 47.9527 107.579 48.0563 107.794 48.1624C107.845 48.1883 107.9 48.2142 107.952 48.2426C107.993 48.2633 108.034 48.284 108.076 48.3047C108.13 48.3306 108.185 48.3591 108.239 48.3902C108.306 48.4264 108.373 48.4652 108.438 48.5092C108.682 48.6775 108.93 48.8354 109.155 49.0269C109.207 49.0709 109.259 49.1175 109.308 49.1641C109.367 49.2133 109.422 49.265 109.476 49.3194C109.564 49.4074 109.647 49.5032 109.719 49.6041C109.756 49.6533 109.789 49.7025 109.818 49.7568C109.844 49.8008 109.87 49.8474 109.893 49.894C109.916 49.9406 109.937 49.9898 109.958 50.039C109.978 50.0881 109.996 50.1373 110.012 50.1891C110.022 50.2253 110.035 50.2616 110.046 50.2978C110.046 50.2978 110.046 50.2978 110.046 50.303V50.2978C110.074 50.1477 110.056 49.995 110.059 49.8422L110.053 49.8345Z" fill="#F1ECE2"/>
<path d="M110.061 47.3005C110.061 46.7362 110.061 46.1693 110.061 45.6051C110.061 45.3436 110.059 45.0822 110.056 44.8234C110.012 44.6758 109.981 44.5257 109.911 44.3833C109.74 44.0313 109.487 43.7466 109.191 43.4955C108.871 43.2186 108.513 42.9882 108.141 42.7837C107.6 42.4861 107.038 42.2324 106.461 42.0176C105.79 41.7691 105.11 41.5491 104.421 41.3627C103.893 41.2203 103.365 41.0883 102.832 40.9667C102.226 40.8295 101.615 40.7078 101.004 40.6017C100.368 40.4904 99.7335 40.3843 99.0916 40.2963C98.7888 40.2549 98.4859 40.2134 98.1831 40.1772C97.5049 40.0892 96.8242 40.0141 96.1434 39.9546C96.0166 39.9443 95.8924 39.9235 95.7655 39.9158C95.2504 39.877 94.7353 39.8381 94.2228 39.8019C94.1504 39.7967 94.0753 39.7915 94.0028 39.7864C93.6586 39.7605 93.3169 39.7372 92.9727 39.7191C92.5249 39.6958 92.0797 39.6802 91.6319 39.6647C91.6267 39.6647 91.6241 39.6647 91.6189 39.6647C91.153 39.6492 90.6845 39.6311 90.2186 39.6233C89.8071 39.6155 89.3955 39.6129 88.9839 39.6104C88.8028 39.6104 88.6216 39.6104 88.4404 39.6104C87.7182 39.6104 86.9987 39.6207 86.2765 39.6414C86.2661 39.6414 86.2558 39.6414 86.2454 39.6414C85.399 39.6673 84.5526 39.7009 83.7088 39.7553C83.0591 39.7967 82.4094 39.833 81.7598 39.8873C81.4983 39.9106 81.2343 39.9417 80.9729 39.9676C80.0592 40.0581 79.1481 40.1643 78.237 40.2937C78.2266 40.2937 78.2163 40.2963 78.2059 40.2989C77.8435 41.2384 77.5148 42.1936 77.2275 43.1642C77.2197 43.1875 77.2146 43.2134 77.2068 43.2367C77.243 43.2315 77.2793 43.2237 77.3155 43.2186C78.8401 42.9778 80.3724 42.8018 81.9125 42.6724C82.9608 42.5844 84.0091 42.5197 85.0574 42.4731C85.1091 42.4731 85.1635 42.4679 85.2153 42.4653C86.1031 42.4291 86.9909 42.4084 87.8787 42.4006C87.8916 42.4006 87.9072 42.4006 87.9201 42.4006C88.7846 42.3929 89.6466 42.4006 90.5085 42.4188C90.5473 42.4188 90.5862 42.4188 90.6276 42.4213C91.1737 42.4343 91.7199 42.4524 92.266 42.4783C92.6129 42.4938 92.9597 42.5119 93.3066 42.5301C93.7155 42.5533 94.1219 42.5792 94.5309 42.6077C95.222 42.6569 95.9131 42.719 96.6016 42.7863C96.8449 42.8096 97.0882 42.8355 97.3341 42.864C97.8828 42.9261 98.429 42.9934 98.9751 43.0684C99.7672 43.1771 100.557 43.304 101.343 43.4515C102.045 43.5835 102.741 43.7259 103.435 43.8967C104.517 44.1607 105.586 44.4662 106.624 44.87C106.707 44.901 106.789 44.9217 106.872 44.958C107.33 45.165 107.789 45.3721 108.229 45.6206C108.55 45.7992 108.845 46.0114 109.137 46.2366C109.414 46.4515 109.637 46.7155 109.823 47.008C109.94 47.1917 110.004 47.3936 110.051 47.6007C110.069 47.5023 110.059 47.404 110.059 47.3056L110.061 47.3005Z" fill="#FDBF41"/>
<path d="M94.0441 25.9411C94.4194 26.5287 94.6912 27.1628 94.8983 27.828C94.963 28.0351 95.0199 28.2422 95.0717 28.4492C95.1571 28.7961 95.2244 29.1481 95.2788 29.5027C95.2943 29.6062 95.3098 29.7098 95.3228 29.8133C95.3486 30.0204 95.3719 30.23 95.3901 30.4397C95.3978 30.5432 95.4082 30.6494 95.4134 30.7529C95.4522 31.3223 95.4677 31.8918 95.4522 32.4612C95.4367 33.0592 95.4004 33.6545 95.3409 34.2498C95.2813 34.8426 95.1985 35.4301 95.1002 36.0151C95.0406 36.3671 94.9759 36.7165 94.906 37.066C94.3418 37.022 93.7775 36.9831 93.2132 36.9547C92.9414 36.9417 92.6697 36.9288 92.3979 36.9133C92.5817 36.1238 92.737 35.3266 92.8586 34.5242C92.9932 33.6338 93.0864 32.7408 93.1226 31.8452C93.1511 31.0816 93.1485 30.3181 93.0864 29.5545C93.0346 28.9177 92.9492 28.2888 92.812 27.665C92.6593 26.9635 92.4419 26.2828 92.1313 25.6331C92.0096 25.3742 91.8647 25.1283 91.7197 24.885C91.8388 24.8462 91.963 24.8436 92.0821 24.8307C92.1468 24.8229 92.2089 24.8177 92.2736 24.8151C92.328 24.8125 92.3824 24.81 92.4367 24.8074C92.5247 24.8074 92.6127 24.8074 92.7007 24.8074C92.7628 24.8074 92.825 24.8125 92.8871 24.8151C92.9337 24.8151 92.9829 24.8203 93.0294 24.8229C93.0372 24.8229 93.045 24.8229 93.0527 24.8255C93.0683 24.8281 93.0812 24.8333 93.0942 24.8384C93.1071 24.8436 93.12 24.8514 93.133 24.8591C93.1511 24.8695 93.1692 24.885 93.1848 24.9006C93.2262 24.9394 93.2676 24.9782 93.3064 25.017C93.3866 25.0973 93.4643 25.1775 93.5394 25.2629C93.7257 25.4752 93.894 25.7004 94.0467 25.9385L94.0441 25.9411Z" fill="#F1ECE2"/>
<path d="M92.8069 27.6676C92.9441 28.2914 93.0295 28.9204 93.0813 29.5571C93.1434 30.3207 93.1486 31.0843 93.1175 31.8479C93.0839 32.746 92.9881 33.639 92.8535 34.5269C92.7319 35.3318 92.5766 36.1265 92.3928 36.9159C92.1857 36.9056 91.9812 36.8952 91.7742 36.8875C91.3031 36.8693 90.832 36.859 90.3609 36.8486C90.1849 36.846 90.0089 36.8409 89.8354 36.8383C90.0063 36.1912 90.159 35.5389 90.2884 34.8815C90.3868 34.3897 90.4722 33.8953 90.5473 33.3983C90.5964 33.067 90.6404 32.7331 90.6767 32.3992C90.7155 32.0498 90.7466 31.7003 90.7699 31.3483C90.7932 30.973 90.8087 30.5977 90.8164 30.2224C90.8242 29.7202 90.8087 29.2181 90.7724 28.7159C90.7491 28.3846 90.7155 28.0559 90.6741 27.7246C90.6171 27.2742 90.5343 26.8264 90.4282 26.3864C90.3428 26.0318 90.2444 25.6823 90.115 25.3407C90.2056 25.2837 90.3091 25.2552 90.4075 25.219C90.6094 25.1439 90.8139 25.0792 91.0183 25.0223C91.2254 24.9653 91.4351 24.9188 91.6473 24.8825C91.6629 24.8799 91.6758 24.8773 91.6913 24.8748C91.6991 24.8748 91.7094 24.8748 91.7172 24.8773C91.8622 25.1232 92.0071 25.3691 92.1288 25.6254C92.4394 26.2751 92.6568 26.9558 92.8095 27.6573L92.8069 27.6676Z" fill="#FDBF41"/>
<path d="M98.7291 26.5131C98.7291 26.5131 98.7239 26.5079 98.7239 26.5053C98.7239 26.5053 98.7239 26.5027 98.7239 26.5001L98.7316 26.5053V26.5131H98.7291Z" fill="#3180F4"/>
<path d="M110.051 52.9769C110.051 52.9406 110.056 52.907 110.056 52.8707C110.056 52.2884 110.056 51.7034 110.056 51.121C110.056 50.8699 110.051 50.6163 110.051 50.3652C110.051 50.3497 110.058 50.3341 110.056 50.3186C110.056 50.3186 110.046 50.3005 110.043 50.2927C110.033 50.2565 110.02 50.2202 110.009 50.184C109.994 50.1322 109.976 50.0831 109.955 50.0339C109.934 49.9847 109.914 49.9355 109.89 49.8889C109.867 49.8423 109.841 49.7957 109.815 49.7517C109.784 49.7 109.75 49.6482 109.717 49.599C109.644 49.4981 109.564 49.4049 109.474 49.3143C109.419 49.2599 109.365 49.2082 109.305 49.159C109.256 49.1098 109.207 49.0658 109.153 49.0218C108.927 48.8303 108.679 48.6724 108.436 48.5041C108.371 48.4601 108.306 48.4213 108.236 48.3851C108.182 48.3566 108.13 48.3281 108.073 48.2997C108.032 48.2789 107.99 48.2582 107.949 48.2375C107.897 48.2116 107.843 48.1858 107.791 48.1573C107.576 48.0512 107.359 47.9476 107.139 47.8519C106.994 47.7897 106.849 47.7302 106.701 47.6707C106.116 47.4377 105.521 47.2384 104.918 47.0624C104.465 46.9278 104.009 46.8087 103.551 46.6949C103.248 46.6198 102.948 46.5499 102.643 46.4852C102.34 46.4205 102.034 46.3558 101.729 46.2962C101.211 46.1927 100.689 46.0995 100.168 46.0167C99.9948 45.9882 99.8214 45.9623 99.6454 45.9365C99.2261 45.8743 98.8068 45.8122 98.3874 45.7579C97.9681 45.7009 97.5462 45.6517 97.1243 45.6103C96.8603 45.5844 96.5989 45.5585 96.3349 45.5327C96.3219 45.5327 96.309 45.5327 96.296 45.5301C95.9285 45.4938 95.5635 45.4602 95.196 45.4291C94.7974 45.3981 94.3987 45.3696 94.0001 45.3411C93.7335 45.323 93.4695 45.3075 93.2029 45.2919C92.8561 45.2738 92.5118 45.2557 92.165 45.2402C92.1106 45.2402 92.0588 45.235 92.0045 45.2324C91.6809 45.2195 91.36 45.2065 91.0364 45.1988C90.7129 45.1884 90.3919 45.1806 90.0684 45.1755C89.9493 45.1755 89.8302 45.1729 89.7112 45.1703C89.5999 45.1703 89.4912 45.1703 89.3799 45.1677C89.0744 45.1677 88.769 45.1651 88.4662 45.1651C88.2876 45.1651 88.109 45.1651 87.933 45.1677C87.4593 45.1703 86.9882 45.1781 86.5145 45.191C86.3851 45.1936 86.2557 45.1962 86.1263 45.2014C85.9244 45.2065 85.7251 45.2143 85.5232 45.2221C85.3886 45.2272 85.254 45.2324 85.1194 45.2402C84.5939 45.2635 84.0711 45.2894 83.5456 45.3204C82.9891 45.3541 82.43 45.3955 81.8735 45.4421C81.506 45.4731 81.1384 45.5068 80.7709 45.543C80.2196 45.5974 79.6708 45.6595 79.1221 45.7294C78.5733 45.7993 78.0246 45.8743 77.4785 45.9597C77.3257 45.983 77.1756 46.0089 77.0255 46.0322C76.9245 46.0478 76.821 46.0659 76.7201 46.084L76.4871 46.1228C76.5984 45.5663 76.7252 45.015 76.865 44.4662C76.9168 44.2592 76.9685 44.0521 77.0203 43.845C77.0954 43.6431 77.1471 43.4335 77.2067 43.2264C77.2144 43.2031 77.2196 43.1772 77.2274 43.1539C77.5147 42.1859 77.8434 41.2308 78.2058 40.2886C78.4362 39.6907 78.6821 39.1005 78.9409 38.5155C79.1143 38.1221 79.2955 37.7339 79.4819 37.3456C80.1005 36.0695 80.7838 34.8297 81.5448 33.6261C82.254 32.5001 83.028 31.4208 83.8744 30.3932C83.8925 30.3725 83.9054 30.3492 83.9209 30.3259C84.1746 30.0334 84.4257 29.7383 84.6871 29.4536C85.5361 28.514 86.4472 27.6469 87.4593 26.8833C87.7078 26.697 87.9666 26.5184 88.2203 26.3372C88.2436 26.3217 88.272 26.3191 88.3005 26.3165C88.3134 26.2802 88.3471 26.2647 88.3756 26.244C88.8984 25.9101 89.4394 25.6124 90.0114 25.3743C90.0321 25.3665 90.0503 25.3562 90.0735 25.3484C90.0787 25.3484 90.0865 25.3458 90.0943 25.3432C90.102 25.3432 90.1072 25.3432 90.115 25.3432C90.2056 25.2863 90.3091 25.2578 90.4074 25.2216C90.6093 25.1465 90.8138 25.0818 91.0183 25.0249C91.2254 24.9679 91.435 24.9213 91.6473 24.8851C91.6628 24.8825 91.6758 24.8799 91.6913 24.8773C91.6991 24.8773 91.7094 24.8773 91.7172 24.8799C91.8362 24.8411 91.9605 24.8385 92.0795 24.8256C92.1443 24.8178 92.2064 24.8126 92.2711 24.81C92.3254 24.8074 92.3798 24.8049 92.4342 24.8023C92.5222 24.8023 92.6102 24.8023 92.6982 24.8023C92.7603 24.8023 92.8224 24.8074 92.8845 24.81C92.9311 24.81 92.9803 24.8152 93.0269 24.8178C93.0347 24.8178 93.0424 24.8178 93.0502 24.8204C93.0657 24.823 93.0787 24.8282 93.0916 24.8333C93.1045 24.8385 93.1175 24.8463 93.1304 24.854C93.1486 24.8644 93.1667 24.8799 93.1822 24.8955C93.2236 24.9343 93.265 24.9731 93.3039 25.0119C93.3841 25.0922 93.4617 25.1724 93.5368 25.2578C93.7232 25.4701 93.8914 25.6953 94.0441 25.9334C94.4195 26.521 94.6912 27.1551 94.8983 27.8203C94.963 28.0274 95.02 28.2345 95.0717 28.4415C95.1571 28.7884 95.2244 29.1404 95.2788 29.495C95.2943 29.5986 95.3099 29.7021 95.3228 29.8056C95.3487 30.0127 95.372 30.2224 95.3901 30.432C95.3979 30.5355 95.4082 30.6417 95.4134 30.7452C95.4522 31.3147 95.4677 31.8841 95.4522 32.4535C95.4367 33.0515 95.4004 33.6468 95.3409 34.2421C95.2814 34.8349 95.1986 35.4224 95.1002 36.0074C95.0407 36.3594 94.976 36.7089 94.9061 37.0583C94.9967 37.066 95.0873 37.0712 95.1804 37.079C95.8353 37.1333 96.4902 37.1981 97.1424 37.2602C97.1373 37.255 97.1321 37.2472 97.1243 37.2421C97.6679 37.3094 98.2089 37.3741 98.7524 37.4414C98.7498 37.4465 98.7446 37.4517 98.7395 37.4569C98.7731 37.4621 98.8042 37.4673 98.8378 37.4698C98.9465 36.934 99.0449 36.3957 99.1277 35.8547C99.2028 35.3707 99.2649 34.884 99.3167 34.3948C99.3659 33.9393 99.4073 33.4811 99.428 33.023C99.4383 32.803 99.4513 32.5804 99.4642 32.3604C99.4642 32.3319 99.4513 32.2931 99.4953 32.2801C99.4953 31.8686 99.4953 31.457 99.4927 31.0455C99.4694 31.0377 99.4694 31.017 99.4668 30.9963C99.4616 30.9135 99.4513 30.8306 99.4487 30.7478C99.4332 30.1499 99.3762 29.5571 99.296 28.9644C99.208 28.3095 99.076 27.6624 98.8948 27.0283C98.8508 26.8704 98.8119 26.7073 98.7421 26.5572L98.7265 26.5028C98.7265 26.5028 98.7214 26.4977 98.7214 26.4951C98.7214 26.4951 98.7214 26.4925 98.7214 26.4899C98.7162 26.4718 98.7136 26.4511 98.7084 26.433C98.4444 25.6746 98.1027 24.955 97.6291 24.3001C97.1735 23.6711 96.6248 23.1405 95.9492 22.7497C95.6955 22.6021 95.4212 22.4986 95.1597 22.3666C95.1364 22.3562 95.1054 22.3562 95.0795 22.3511C95.0562 22.32 95.02 22.3122 94.9889 22.2993C94.3754 22.0275 93.762 21.7557 93.146 21.484C93.0657 21.4503 92.9958 21.396 92.9052 21.3856C92.8897 21.3804 92.8768 21.3752 92.8612 21.3701C92.7577 21.3364 92.649 21.3131 92.548 21.2639C92.5403 21.2614 92.5299 21.2588 92.5222 21.2536C92.517 21.2536 92.5118 21.251 92.5092 21.2484H92.5066C92.5066 21.2484 92.4885 21.251 92.4807 21.2406C92.284 21.1915 92.0847 21.1526 91.8854 21.1242C91.7405 21.1035 91.5955 21.0879 91.4506 21.0802C91.4014 21.0776 91.3522 21.075 91.3056 21.075C91.1607 21.0724 91.0157 21.075 90.8708 21.0802C90.6792 21.0879 90.4877 21.1061 90.2987 21.1319C89.9648 21.1785 89.6361 21.2484 89.31 21.339C89.2634 21.3519 89.2168 21.3649 89.1702 21.3804C88.5568 21.5616 87.9692 21.8101 87.4049 22.1C87.216 22.1984 87.0296 22.2993 86.8458 22.4054C86.6776 22.5012 86.5119 22.6021 86.3463 22.7057C86.2919 22.7393 86.2376 22.7756 86.1832 22.8092C86.1288 22.8454 86.0745 22.8791 86.0227 22.9153C85.914 22.9878 85.8079 23.0603 85.7044 23.1379C85.6526 23.1768 85.6008 23.213 85.5465 23.2518C85.5465 23.2544 85.5465 23.2596 85.5465 23.2622C85.5465 23.2648 85.5439 23.2674 85.5413 23.2699C85.5387 23.2725 85.5309 23.2751 85.5232 23.2751V23.2829C85.5232 23.2829 85.5206 23.2907 85.518 23.2932C85.518 23.2932 85.5128 23.2932 85.5076 23.2932C85.5076 23.2932 85.505 23.2932 85.5025 23.2932C85.2721 23.4537 85.0469 23.6246 84.8269 23.8006C84.7285 23.8782 84.6328 23.9585 84.537 24.0387C84.5215 24.0516 84.5059 24.0646 84.493 24.0775C84.3946 24.1603 84.2963 24.2458 84.2005 24.3312C84.2005 24.3312 84.2005 24.3364 84.2005 24.3389C84.2005 24.3441 84.1979 24.3493 84.1927 24.3545C84.1927 24.3545 84.1927 24.3545 84.1876 24.3545C84.185 24.3545 84.1824 24.3545 84.1772 24.3545C84.1746 24.3597 84.1694 24.3648 84.1668 24.37C84.1617 24.3752 84.1565 24.3804 84.1513 24.3855C84.1436 24.3907 84.1332 24.3959 84.1228 24.3985C84.1228 24.4114 84.1203 24.4166 84.1151 24.4218C84.1073 24.427 84.0918 24.4218 84.0814 24.4244C84.0452 24.4632 84.0064 24.4994 83.9701 24.5383C83.9701 24.5408 83.965 24.5434 83.9624 24.546C83.9624 24.546 83.9624 24.5486 83.9624 24.5512C83.9624 24.5564 83.9598 24.559 83.9572 24.5641C83.9572 24.5641 83.9494 24.5693 83.9417 24.5667C83.908 24.5926 83.8744 24.6185 83.8407 24.647C83.8381 24.647 83.8355 24.6521 83.8329 24.6547C83.7113 24.7686 83.5922 24.8825 83.4732 24.9964C83.4654 25.0042 83.4576 25.0119 83.4499 25.0197C83.4136 25.0559 83.3748 25.0922 83.336 25.1258C83.2402 25.2138 83.1418 25.2992 83.0513 25.3924C83.0021 25.4416 82.9529 25.4934 82.9037 25.5425C82.619 25.8299 82.3394 26.1198 82.0677 26.42C81.7208 26.8031 81.3843 27.1913 81.0582 27.59C81.0116 27.6469 80.965 27.7039 80.9184 27.7608C80.9107 27.7686 80.9029 27.7789 80.8977 27.7893C80.8874 27.8022 80.8796 27.8177 80.8692 27.8307C80.8563 27.8488 80.8459 27.8695 80.833 27.885C80.8226 27.898 80.8149 27.9109 80.8045 27.9239C80.8019 27.9265 80.7994 27.9316 80.7942 27.9342C80.7786 27.9497 80.7631 27.9653 80.745 27.9782C80.745 27.9808 80.745 27.9834 80.7424 27.986C80.7424 27.9886 80.7424 27.9912 80.7398 27.9938C80.7398 27.9938 80.7372 27.9963 80.7346 27.9989C80.7346 27.9989 80.7295 28.0015 80.7243 28.0041C80.7165 28.0429 80.6855 28.061 80.6596 28.0869C80.6596 28.0869 80.657 28.0895 80.6544 28.0921C80.6466 28.0999 80.6415 28.1076 80.6337 28.1154C80.6337 28.1206 80.6285 28.1232 80.6285 28.1283C80.6285 28.1335 80.6233 28.1387 80.6233 28.1439C80.6233 28.1439 80.6233 28.1491 80.6233 28.1516C80.6233 28.1594 80.6208 28.162 80.6156 28.1672H80.6078L80.6026 28.1723C80.5431 28.2474 80.481 28.3225 80.4214 28.3975C80.4189 28.4027 80.4163 28.4053 80.4111 28.4105C80.4111 28.4208 80.4111 28.4286 80.4111 28.4364C80.4111 28.4415 80.4085 28.4467 80.4033 28.4519V28.4571C80.4033 28.4571 80.3904 28.4674 80.3852 28.47C80.38 28.4752 80.3697 28.4778 80.3619 28.4804C80.3516 28.4907 80.3438 28.5011 80.3334 28.5114C80.3309 28.514 80.3257 28.5192 80.3231 28.5218C80.3153 28.5295 80.3076 28.5399 80.2998 28.5477C80.1445 28.7547 79.9918 28.9618 79.8365 29.1689C79.8365 29.1741 79.8339 29.1792 79.8287 29.1844H79.8261C79.8261 29.1844 79.8184 29.1922 79.8158 29.1922C79.7096 29.3423 79.6009 29.4898 79.4948 29.6426C79.4741 29.6736 79.4534 29.7021 79.4327 29.7331C79.2748 29.9635 79.1298 30.1991 78.9694 30.4294C78.8917 30.5433 78.8166 30.6598 78.739 30.7763C78.6639 30.8927 78.5863 31.0092 78.5035 31.1205C78.3714 31.3017 78.2576 31.4984 78.1411 31.6926C78.0919 31.7754 78.0401 31.8582 77.991 31.941C77.4319 32.8703 76.8883 33.8099 76.425 34.7909C76.3991 34.8478 76.368 34.9022 76.3344 34.9539C76.3033 35.0083 76.2697 35.06 76.2438 35.117C76.0859 35.4354 75.9306 35.7537 75.7831 36.0747C75.7261 36.1938 75.6718 36.3154 75.6174 36.4345C75.5449 36.5924 75.475 36.7503 75.4052 36.9082C75.3171 37.1101 75.2291 37.3094 75.1411 37.5138C75.1049 37.5993 75.0687 37.6847 75.0324 37.7701C74.9858 37.8762 74.9418 37.9823 74.8978 38.0911C74.7425 38.469 74.5924 38.8494 74.4475 39.2325C74.406 39.3438 74.362 39.4577 74.3206 39.569C74.2197 39.8408 74.1239 40.1152 74.0281 40.387C74.0048 40.4517 73.9815 40.5164 73.9582 40.5837C73.9401 40.6354 73.9246 40.6872 73.9065 40.7364C73.8625 40.8658 73.8185 40.9978 73.7796 41.1272C73.7305 41.2877 73.6813 41.4456 73.6321 41.6061C73.5959 41.72 73.5622 41.8339 73.5234 41.9477C73.4406 42.2014 73.3422 42.4551 73.3111 42.7243C73.3111 42.7372 73.293 42.7501 73.2853 42.7631C73.2439 42.8744 73.2206 42.9883 73.1921 43.1048C73.1791 43.1591 73.161 43.2135 73.1455 43.2678C73.13 43.3222 73.1118 43.3765 73.0963 43.4309C73.0342 43.6664 72.9721 43.902 72.9151 44.1375C72.8634 44.3498 72.8116 44.5646 72.7624 44.7794C72.7081 45.0202 72.6563 45.2609 72.6071 45.5042C72.5631 45.7164 72.5217 45.9261 72.4829 46.1409C72.4518 46.3092 72.4207 46.4774 72.3923 46.6457C72.3664 46.7932 72.3431 46.9433 72.3198 47.0909C72.2887 47.2798 72.2603 47.4688 72.2344 47.6577C72.2111 47.8286 72.1878 47.9968 72.1671 48.1676C72.1101 48.6336 72.0635 49.1021 72.0273 49.5731C72.017 49.7077 72.0092 49.8423 72.0014 49.9769C71.9937 50.1115 71.9859 50.2461 71.9807 50.3807C71.9704 50.6499 71.9626 50.9191 71.9548 51.1883C71.9548 51.2504 71.9548 51.3099 71.9548 51.3721C71.9548 51.3902 71.9548 51.4083 71.9548 51.429C71.9548 51.7733 71.9678 52.1175 71.9781 52.4592C71.9781 52.4747 71.9781 52.4903 71.9781 52.5058C71.9781 52.5679 71.9833 52.6274 71.9885 52.6896C72.0014 52.938 72.0221 53.1865 72.048 53.4324C72.0661 53.6007 72.0843 53.7689 72.1075 53.9372C72.1101 53.9605 72.1153 53.9863 72.1179 54.0096C72.1645 54.3487 72.2163 54.6878 72.2836 55.0269C72.4078 55.6558 72.5735 56.2745 72.7986 56.875C72.8012 56.8853 72.8064 56.8957 72.8116 56.906C72.9798 57.3512 73.1766 57.7835 73.4173 58.1951C73.8133 58.8732 74.2973 59.4711 74.9134 59.95C74.9858 60.0069 75.0609 60.0613 75.1386 60.1156C75.2136 60.1674 75.2913 60.2114 75.3689 60.258C75.3819 60.2658 75.3974 60.2735 75.4129 60.2813C75.4233 60.2865 75.4362 60.2917 75.4466 60.2968C75.4647 60.3072 75.4828 60.3175 75.4957 60.3357C75.5009 60.3408 75.5035 60.3486 75.5087 60.3564C75.5294 60.3512 75.5475 60.3564 75.5579 60.3771C75.5786 60.3771 75.5941 60.3822 75.6045 60.4004C75.6096 60.4004 75.6148 60.4004 75.6174 60.4004C75.6174 60.4004 75.6407 60.4081 75.6485 60.4211C75.6485 60.4211 75.6511 60.4211 75.6536 60.4211C75.6536 60.4211 75.6588 60.4211 75.6614 60.4211C75.6614 60.4211 75.6666 60.4211 75.6692 60.4211H75.6743C75.6743 60.4211 75.6795 60.4237 75.6821 60.4262H75.6847C75.6847 60.4262 75.6899 60.434 75.6925 60.4366C75.7183 60.4651 75.7546 60.4728 75.7856 60.4858C76.4664 60.7886 77.1471 61.0889 77.8279 61.3891C78.1644 61.5393 78.4983 61.6946 78.8555 61.7929C79.2101 61.8913 79.5725 61.956 79.9426 61.9715C80.0047 61.9715 80.0643 61.9715 80.1264 61.9715C80.3101 61.9715 80.4939 61.9715 80.6777 61.9715C80.8563 61.9663 81.0323 61.943 81.2083 61.9172C81.9227 61.811 82.6112 61.5988 83.2739 61.3141C84.4878 60.7912 85.5853 60.0794 86.6155 59.2537C86.8407 59.0725 87.0633 58.8862 87.2807 58.6972C88.0443 58.7101 88.8078 58.7153 89.5714 58.7076C90.2987 58.6998 91.0287 58.6869 91.756 58.6584C91.7922 58.6377 91.8285 58.6377 91.8673 58.6532H91.9009C91.945 58.6325 91.989 58.6351 92.0355 58.648H92.0692C92.0951 58.6325 92.1236 58.6299 92.1494 58.6351H92.1546C92.1546 58.6351 92.1727 58.6403 92.1805 58.6428H92.2141C92.2323 58.6325 92.2504 58.6273 92.2685 58.6273C92.2866 58.6273 92.3073 58.6299 92.3254 58.6377C92.3358 58.6377 92.3462 58.6377 92.3591 58.6377C92.372 58.6299 92.3824 58.6273 92.3953 58.6247C92.4186 58.6196 92.4445 58.6247 92.4704 58.6325C92.4807 58.6325 92.4911 58.6325 92.5015 58.6325C92.5015 58.6325 92.504 58.6325 92.5066 58.6325C92.5429 58.6144 92.5791 58.6144 92.6153 58.6273C92.6257 58.6273 92.6361 58.6273 92.6464 58.6273C92.6826 58.604 92.7215 58.6066 92.7577 58.6195H92.7888C92.825 58.5963 92.8638 58.5988 92.9027 58.6144C92.913 58.6144 92.9234 58.6144 92.9337 58.6144C92.9415 58.6092 92.9492 58.6066 92.9544 58.604C92.9674 58.5988 92.9777 58.5988 92.9907 58.5988C93.001 58.5988 93.014 58.6014 93.0243 58.6066C93.19 58.5988 93.3556 58.5937 93.5213 58.5833C94.7922 58.5083 96.0631 58.4073 97.3288 58.2675C99.252 58.0553 101.165 57.7654 103.052 57.3357C104.338 57.0432 105.606 56.6912 106.833 56.1968C107.491 55.9302 108.13 55.6274 108.72 55.2288C109.077 54.988 109.406 54.7189 109.67 54.3746C109.836 54.1546 109.97 53.919 110.025 53.6447C110.046 53.624 110.053 53.5955 110.056 53.5696C110.069 53.3729 110.077 53.1762 110.056 52.9795L110.051 52.9769ZM92.9725 48.8096C92.6179 48.7889 92.2659 48.7682 91.9113 48.7526C92.2659 48.7682 92.6179 48.7889 92.9725 48.8096ZM85.1168 55.2417C85.0598 55.2935 85.0029 55.3427 84.946 55.3944C84.5448 55.7464 84.1306 56.0829 83.6983 56.3935C83.2661 56.7041 82.8183 56.9915 82.3498 57.2503C82.2825 57.2865 82.2152 57.3228 82.1479 57.359C81.9926 57.4418 81.8347 57.5195 81.6742 57.592C81.5138 57.6644 81.3533 57.7343 81.1876 57.7964C80.8589 57.9233 80.525 58.0294 80.1807 58.1122C80.0306 58.1485 79.8805 58.1769 79.7304 58.2002C79.6786 58.208 79.6242 58.2183 79.5725 58.2235C79.368 58.252 79.1635 58.2675 78.959 58.2727C78.8891 58.2727 78.8218 58.2727 78.7519 58.2727C78.6821 58.2727 78.6148 58.2701 78.5449 58.2675C78.5138 58.2675 78.4853 58.2624 78.4569 58.2598C78.4284 58.2572 78.3973 58.252 78.3689 58.2494C78.3326 58.2468 78.3016 58.2313 78.2731 58.2054C78.1928 58.1303 78.1126 58.0553 78.0375 57.9776C77.9237 57.8612 77.8175 57.7369 77.7166 57.6101C77.6493 57.5247 77.5846 57.4367 77.5225 57.3487C77.4914 57.3047 77.4603 57.2581 77.4319 57.2141C77.4293 57.2115 77.4293 57.2063 77.4267 57.2011C77.4267 57.1934 77.4241 57.1856 77.4215 57.1804C77.4086 57.1675 77.393 57.1571 77.3827 57.1416C77.2429 56.9164 77.1161 56.686 76.9996 56.4531C76.9427 56.334 76.8883 56.2175 76.8365 56.0959C76.7848 55.9742 76.7356 55.8526 76.6916 55.7309C76.6864 55.7154 76.6864 55.6998 76.6864 55.6843C76.6088 55.5368 76.5673 55.3763 76.5207 55.221C76.412 54.8716 76.3266 54.5144 76.2541 54.1572C76.2412 54.0925 76.2283 54.0303 76.2179 53.9682C76.2127 53.9423 76.2101 53.919 76.205 53.8932C76.1998 53.8621 76.192 53.831 76.1868 53.8C76.1868 53.7922 76.1868 53.7844 76.1868 53.7767C76.1843 53.7482 76.1817 53.7223 76.1791 53.6939C76.1325 53.492 76.1118 53.2875 76.0885 53.0856C76.0082 52.4333 75.9798 51.781 75.9772 51.1262C75.9772 50.8803 75.9798 50.6318 75.9875 50.3833C75.9927 50.2358 75.9979 50.0908 76.0057 49.9433C76.544 49.8139 77.085 49.7026 77.6312 49.599C78.5604 49.423 79.4948 49.2807 80.4318 49.1642C80.4473 49.1642 80.4629 49.159 80.4758 49.159C80.4939 49.159 80.5095 49.1538 80.5276 49.1564C80.5379 49.1564 80.5483 49.1564 80.5586 49.1616C80.7062 49.1305 80.8537 49.115 81.0012 49.0995C81.0685 49.0917 81.1358 49.0865 81.2031 49.0788C82.2333 48.9649 83.2635 48.8769 84.2963 48.8147C84.5862 48.7966 84.8761 48.7811 85.166 48.7682C85.9062 48.7319 86.6491 48.7086 87.3894 48.6957C87.7958 48.6879 88.2021 48.6827 88.6059 48.6827C89.1857 48.6827 89.7629 48.6905 90.3427 48.7034C90.2185 48.9131 90.0891 49.1202 89.9597 49.3272C89.8665 49.4774 89.7707 49.6275 89.6749 49.7776C89.5015 50.0442 89.3255 50.3057 89.1469 50.5671C88.8156 51.0485 88.4687 51.5222 88.1115 51.9855C87.9977 52.1331 87.8838 52.278 87.7673 52.423C87.7466 52.4488 87.7259 52.4747 87.7052 52.498C87.5369 52.7077 87.3635 52.9147 87.1875 53.1166C86.895 53.4557 86.5948 53.787 86.2841 54.1106C86.191 54.2089 86.0952 54.3073 85.9994 54.4031C85.7535 54.6516 85.4999 54.8923 85.2436 55.1304C85.3239 55.133 85.4015 55.1382 85.4817 55.1408C85.4015 55.1382 85.3239 55.133 85.2436 55.1304C85.2022 55.1692 85.1608 55.2081 85.1168 55.2469V55.2417ZM86.4938 55.177C86.7941 55.1874 87.0943 55.1951 87.3946 55.2003C87.0943 55.1951 86.7941 55.1874 86.4938 55.177ZM106.305 51.9855C106.305 51.9855 106.285 52.0062 106.261 52.0243C106.233 52.0476 106.204 52.0683 106.176 52.0891C106.147 52.1098 106.116 52.1305 106.088 52.1512C106.031 52.19 105.974 52.2288 105.917 52.2651L105.896 52.278C105.85 52.3091 105.801 52.3375 105.751 52.366C105.679 52.41 105.609 52.4514 105.534 52.4903C105.034 52.7672 104.512 52.9924 103.976 53.1891C103.471 53.3755 102.959 53.536 102.443 53.6809C101.703 53.888 100.953 54.0588 100.199 54.2089C99.4642 54.3565 98.7291 54.4807 97.9888 54.5894C97.2486 54.6981 96.5057 54.7861 95.7628 54.8638C95.5195 54.8897 95.2762 54.913 95.0303 54.9363C94.5411 54.9803 94.0519 55.0191 93.5627 55.0528C93.3168 55.0683 93.0735 55.0838 92.8276 55.0993C92.2789 55.1304 91.7301 55.1537 91.1814 55.1718C91.083 55.1744 90.9821 55.1796 90.8811 55.1822C90.7905 55.1848 90.6973 55.1873 90.6068 55.1899C90.8319 54.913 91.0571 54.636 91.2616 54.3435C91.2901 54.3073 91.3212 54.2711 91.3496 54.2322C91.7896 53.6395 92.2116 53.0364 92.6179 52.4204C92.6412 52.3867 92.7525 52.2133 92.7862 52.1615C93.0424 51.7655 93.2935 51.3643 93.5368 50.9579C93.9354 50.2927 94.3133 49.6171 94.6757 48.9338C95.3642 48.9933 96.0527 49.0632 96.7412 49.1486C96.793 49.1538 96.8422 49.1642 96.8939 49.1719C97.202 49.1952 97.5074 49.2418 97.8102 49.2858C98.2011 49.3428 98.5919 49.4049 98.9828 49.4722C99.5082 49.5602 100.034 49.6586 100.557 49.7724C100.839 49.8346 101.121 49.8967 101.403 49.9588C101.406 49.9588 101.408 49.9588 101.413 49.9588C101.416 49.9588 101.418 49.9588 101.421 49.9588C101.439 49.9614 101.46 49.9614 101.478 49.964C101.504 49.964 101.527 49.9718 101.545 49.995C102.148 50.1504 102.749 50.3108 103.339 50.5075C103.393 50.5257 103.456 50.5308 103.497 50.5774C103.65 50.6033 103.792 50.668 103.934 50.7224C104.061 50.769 104.188 50.8182 104.315 50.8673C104.672 51.0097 105.024 51.1676 105.366 51.3462C105.5 51.4161 105.632 51.4911 105.762 51.5714C105.935 51.6775 106.103 51.7862 106.261 51.913C106.308 51.9493 106.321 51.9648 106.303 51.9855H106.305Z" fill="#007FFF"/>
<path d="M110.064 42.1651C110.048 41.8389 109.924 41.5516 109.735 41.2902C109.468 40.9175 109.124 40.6276 108.749 40.3713C108.112 39.9365 107.416 39.6155 106.704 39.3282C106.308 39.1703 105.904 39.0254 105.5 38.8959C104.882 38.6966 104.255 38.5258 103.624 38.3731C102.834 38.179 102.042 38.0107 101.242 37.8658C100.756 37.7778 100.269 37.6923 99.78 37.6199C99.7645 37.6199 99.7515 37.6199 99.736 37.6173C99.7283 37.6173 99.7179 37.6173 99.7101 37.6173C99.692 37.6173 99.6739 37.6147 99.6558 37.6121C99.6144 37.6069 99.5729 37.5992 99.5315 37.5888C99.3866 37.5655 99.2416 37.5422 99.0967 37.5189C99.0113 37.5086 98.9284 37.4956 98.843 37.4827C98.8094 37.4775 98.7783 37.4723 98.7447 37.4697C98.4082 37.4283 98.0691 37.3895 97.7326 37.3455C97.6342 37.3326 97.5359 37.3248 97.4375 37.3144C97.3392 37.3041 97.2408 37.2937 97.145 37.273C96.4902 37.2135 95.8379 37.1462 95.183 37.0918C95.0924 37.0841 94.9993 37.0763 94.9087 37.0711C94.3444 37.0271 93.7801 36.9883 93.2159 36.9598C92.9441 36.9469 92.6723 36.9339 92.4005 36.9184C92.1935 36.9081 91.989 36.8977 91.7819 36.8899C91.3108 36.8718 90.8397 36.8615 90.3686 36.8511C90.1926 36.8485 90.0166 36.8433 89.8432 36.8408C89.5481 36.8356 89.8432 36.8408 89.8432 36.8408C89.8432 36.8408 90.1667 35.5414 90.2962 34.8839C90.3945 34.3921 90.4799 33.8978 90.555 33.4008C90.6042 33.0695 90.6482 32.7356 90.6844 32.4017C90.7232 32.0522 90.7543 31.7028 90.7776 31.3508C90.8009 30.9755 90.8164 30.6002 90.8242 30.2248C90.832 29.7227 90.8164 29.2205 90.7802 28.7184C90.7569 28.3871 90.7232 28.0584 90.6818 27.727C90.6249 27.2767 90.5421 26.8289 90.4359 26.3888C90.3505 26.0342 90.2522 25.6848 90.1227 25.3431C90.115 25.3431 90.1098 25.3431 90.102 25.3431C90.0943 25.3431 90.0891 25.3431 90.0813 25.3483C90.0606 25.3561 90.0399 25.3664 90.0192 25.3742C89.4472 25.6149 88.9062 25.9126 88.3833 26.2439C88.3549 26.262 88.3212 26.2775 88.3083 26.3164C88.4325 27.1084 88.4921 27.9031 88.4998 28.7055C88.5102 29.8521 88.4248 30.991 88.2695 32.1247C88.1504 32.9789 87.9951 33.8279 87.8035 34.6665C87.6379 35.3964 87.4464 36.1186 87.2341 36.8356C86.719 36.8408 86.2065 36.8563 85.6914 36.8744C85.0081 36.8977 84.3248 36.9288 83.6414 36.9728C83.0383 37.0116 82.4352 37.0504 81.8347 37.1022C81.053 37.1695 80.2713 37.2471 79.4948 37.3429C79.3085 37.7286 79.1273 38.1194 78.9539 38.5129C78.695 39.0978 78.4491 39.6906 78.2188 40.2859C78.2291 40.2859 78.2395 40.2833 78.2498 40.2807C79.1583 40.1513 80.0694 40.0452 80.9857 39.9546C81.2472 39.9287 81.5086 39.8976 81.7726 39.8743C82.4197 39.82 83.072 39.7838 83.7217 39.7423C84.5655 39.688 85.4119 39.6543 86.2583 39.6284C86.2686 39.6284 86.279 39.6284 86.2893 39.6284C87.0115 39.6077 87.7311 39.5974 88.4532 39.5974C88.6344 39.5974 88.8156 39.5974 88.9968 39.5974C89.4083 39.5974 89.8199 39.6026 90.2315 39.6103C90.6974 39.6181 91.1659 39.6362 91.6318 39.6517C91.6344 39.6517 91.6395 39.6517 91.6447 39.6517C92.0925 39.6673 92.5377 39.6828 92.9855 39.7061C93.3298 39.7216 93.674 39.7475 94.0157 39.7734C94.0882 39.7786 94.1632 39.7838 94.2357 39.7889C94.7508 39.8252 95.2659 39.864 95.7784 39.9028C95.9052 39.9132 96.0294 39.9313 96.1563 39.9416C96.837 40.0012 97.5178 40.0788 98.1959 40.1642C98.4988 40.2031 98.8016 40.2419 99.1044 40.2833C99.7438 40.3713 100.381 40.4774 101.017 40.5887C101.628 40.6949 102.239 40.8165 102.845 40.9537C103.378 41.0754 103.906 41.2074 104.434 41.3497C105.125 41.5361 105.803 41.7561 106.474 42.0046C107.053 42.2194 107.612 42.4731 108.153 42.7708C108.526 42.9752 108.881 43.2056 109.204 43.4826C109.497 43.7362 109.753 44.0184 109.924 44.3704C109.991 44.5101 110.022 44.6629 110.069 44.8104C110.069 44.5179 110.074 44.2254 110.074 43.9329C110.074 43.4981 110.074 43.0632 110.074 42.6284C110.074 42.4705 110.079 42.3126 110.074 42.1547L110.064 42.1651Z" fill="#FF1100"/>
<path d="M92.8637 21.3829C92.7602 21.3492 92.6515 21.3259 92.5505 21.2768C92.5505 21.2638 92.5505 21.2483 92.5531 21.2354C92.6774 21.2742 92.7964 21.3259 92.9077 21.3984C92.8922 21.3932 92.8793 21.3881 92.8637 21.3829Z" fill="#404A5A"/>
<path d="M92.4989 21.256C92.4989 21.256 92.5067 21.2612 92.5119 21.2637H92.5093C92.5093 21.2637 92.4912 21.2663 92.4834 21.256C92.4886 21.256 92.4938 21.256 92.4989 21.256Z" fill="#404A5A"/>
<path d="M79.8313 29.1791C79.8313 29.1791 79.8287 29.1894 79.8235 29.1946H79.8209C79.8209 29.1946 79.8131 29.2024 79.8105 29.2024V29.1972C79.8105 29.1972 79.8157 29.1843 79.8209 29.1817C79.8209 29.1817 79.8261 29.1817 79.8287 29.1791H79.8313Z" fill="#404A5A"/>
<path d="M80.3931 28.4647C80.3931 28.4647 80.3827 28.475 80.3775 28.4776C80.3724 28.4828 80.362 28.4854 80.3542 28.488C80.3542 28.4828 80.3542 28.4802 80.3542 28.475C80.3542 28.4724 80.3542 28.4672 80.3542 28.4647C80.3542 28.4647 80.3594 28.4517 80.3646 28.4465C80.3698 28.4414 80.375 28.4362 80.3801 28.431C80.3853 28.4258 80.3931 28.4232 80.4008 28.4207C80.4008 28.431 80.4008 28.4388 80.4008 28.4465C80.4008 28.4517 80.3983 28.4569 80.3931 28.4621V28.4672V28.4647Z" fill="#404A5A"/>
<path d="M80.6079 28.1746H80.6001L80.595 28.1798C80.595 28.1798 80.6079 28.1617 80.6157 28.1539C80.6157 28.1539 80.6157 28.1591 80.6157 28.1617C80.6157 28.1695 80.6131 28.172 80.6079 28.1772V28.1746Z" fill="#215CB5"/>
<path d="M80.7165 28.0091C80.7165 28.0091 80.7216 27.9961 80.7268 27.9936C80.7294 27.9936 80.732 27.9936 80.7346 27.991C80.7346 27.9936 80.7346 27.9961 80.732 27.9987C80.732 28.0013 80.732 28.0039 80.7294 28.0065C80.7294 28.0065 80.7268 28.0091 80.7242 28.0117C80.7242 28.0117 80.719 28.0143 80.7139 28.0169C80.7139 28.0169 80.7139 28.0117 80.7139 28.0091H80.7165Z" fill="#215CB5"/>
<path d="M90.3894 20.2906C90.4153 20.2802 90.4334 20.2906 90.4463 20.3113C90.4231 20.3164 90.3998 20.3216 90.3894 20.2906Z" fill="#FEC35E"/>
<path d="M83.9314 24.577C83.9314 24.577 83.9469 24.564 83.9547 24.5563C83.9547 24.5563 83.9547 24.5589 83.9547 24.5615C83.9547 24.5666 83.9521 24.5692 83.9495 24.5744C83.9495 24.5744 83.9418 24.5796 83.934 24.577H83.9314Z" fill="#404A5A"/>
<path d="M84.0917 24.4166C84.0917 24.4166 84.1072 24.4114 84.1176 24.4088C84.1176 24.4218 84.115 24.4269 84.1098 24.4321C84.1021 24.4373 84.0865 24.4321 84.0762 24.4347C84.0813 24.4269 84.0865 24.4218 84.0943 24.4166H84.0917Z" fill="#404A5A"/>
<path d="M84.1927 24.3493C84.1927 24.3493 84.1901 24.3597 84.185 24.3649C84.185 24.3649 84.185 24.3649 84.1798 24.3649C84.1772 24.3649 84.1746 24.3649 84.1694 24.3649C84.1772 24.3571 84.185 24.3468 84.1901 24.339C84.1901 24.339 84.1901 24.3442 84.1901 24.3468L84.1927 24.3493Z" fill="#404A5A"/>
<path d="M85.5438 23.2801C85.5438 23.2801 85.5412 23.2853 85.5386 23.2879C85.536 23.2905 85.5283 23.2931 85.5205 23.2931C85.5283 23.2853 85.536 23.2775 85.5438 23.2698C85.5438 23.2724 85.5438 23.2775 85.5438 23.2801Z" fill="#404A5A"/>
<path d="M85.5205 23.2931V23.2983C85.5205 23.2983 85.5179 23.306 85.5153 23.3086C85.5127 23.3112 85.5101 23.3086 85.5049 23.3086C85.5049 23.3086 85.5023 23.3086 85.4998 23.3086C85.5075 23.3034 85.5153 23.3009 85.5231 23.2957L85.5205 23.2931Z" fill="#404A5A"/>
<path d="M92.5453 21.2277C91.8723 20.9275 91.1968 20.6298 90.5238 20.327C90.4979 20.314 90.4694 20.327 90.4461 20.3088C90.4228 20.314 90.3996 20.3192 90.3892 20.2881C90.3607 20.3011 90.3348 20.2881 90.309 20.2804C89.7188 20.1018 89.1157 20.0474 88.5023 20.0811C87.6895 20.1225 86.9078 20.3218 86.152 20.6143C85.9139 20.7049 85.6809 20.8058 85.4506 20.9145C85.3936 20.943 85.3367 20.9689 85.2797 20.9974C85.2124 21.031 85.1477 21.0647 85.0804 21.0983C84.9924 21.1423 84.9044 21.1889 84.8164 21.2381C84.3557 21.4891 83.9131 21.7687 83.4808 22.0689C83.3902 22.1311 83.3022 22.1958 83.2116 22.2579L83.1598 22.2967C82.9476 22.452 82.7405 22.6099 82.5334 22.773C82.0209 23.1794 81.5291 23.6142 81.0555 24.0672C79.7354 25.3277 78.5629 26.7177 77.4887 28.1931C77.4602 28.2319 77.4343 28.2707 77.4058 28.3096C77.4058 28.3096 77.4058 28.3199 77.4007 28.3225C77.3981 28.3251 77.3929 28.3277 77.3877 28.3277C77.292 28.4649 77.1962 28.602 77.1004 28.7392C76.9399 28.967 76.782 29.1974 76.6267 29.4303C76.4792 29.6503 76.3343 29.8755 76.1893 30.0981C76.0754 30.2767 75.9641 30.4553 75.8528 30.6339C75.7545 30.7944 75.6561 30.9549 75.5603 31.1154C75.4231 31.3431 75.2885 31.5735 75.1565 31.8039C75.0892 31.9204 75.0245 32.0342 74.9598 32.1507C74.9521 32.1637 74.9443 32.1766 74.9339 32.1895C74.9339 32.2051 74.9288 32.218 74.9236 32.2284C74.9184 32.2361 74.9132 32.2465 74.9081 32.2543C74.8459 32.363 74.7864 32.4743 74.7269 32.583C74.5017 32.9971 74.2791 33.4138 74.0668 33.8332C73.9762 34.0118 73.8882 34.1878 73.8002 34.3664C73.3291 35.3318 72.8917 36.3103 72.4905 37.3042C72.2757 37.8322 72.0738 38.3628 71.8796 38.8986C71.7787 39.1834 71.6777 39.4681 71.5794 39.7528C71.4008 40.2808 71.2377 40.8141 71.0772 41.3473C71.0125 41.5673 70.9478 41.7873 70.8857 42.0073C70.8857 42.0125 70.8831 42.0177 70.8805 42.0228C70.7848 42.3697 70.6942 42.7165 70.6087 43.0659C70.5311 43.3791 70.456 43.6949 70.3861 44.0107C70.3266 44.2799 70.2723 44.5517 70.2179 44.8235C70.205 44.8882 70.192 44.9529 70.1817 45.0176C70.1765 45.0435 70.1713 45.0694 70.1661 45.0952C70.1661 45.1056 70.1635 45.116 70.161 45.1237C70.1506 45.1755 70.1402 45.2273 70.1299 45.279C70.0522 45.7035 69.9824 46.128 69.9228 46.5551C69.8633 46.9666 69.8115 47.3808 69.7701 47.7949C69.7598 47.8881 69.752 47.9813 69.7442 48.0719C69.7442 48.0797 69.7442 48.0848 69.7442 48.0926C69.7365 48.1625 69.7339 48.2143 69.7287 48.2634C69.7106 48.4938 69.6925 48.7242 69.6795 48.9545C69.6666 49.1849 69.6562 49.4179 69.6485 49.6482C69.6485 49.6793 69.6485 49.7078 69.6459 49.7388C69.6329 50.184 69.6303 50.6292 69.6433 51.0718C69.6562 51.4911 69.6795 51.9105 69.7183 52.3272C69.7572 52.7439 69.8089 53.1607 69.8814 53.5748C69.9151 53.7767 69.9565 53.9786 69.9979 54.1779C70.1428 54.8535 70.337 55.5161 70.6036 56.1554C70.6217 56.1994 70.6398 56.2434 70.6605 56.29C70.6786 56.334 70.6993 56.378 70.72 56.422C70.7666 56.5256 70.8158 56.6291 70.865 56.73C70.9504 56.8983 71.0384 57.0639 71.1342 57.2244C71.3956 57.6645 71.7036 58.076 72.0686 58.4461C72.1644 58.5445 72.2627 58.6377 72.3663 58.7257C72.5578 58.8939 72.7623 59.0467 72.9797 59.1838C73.0211 59.2097 73.0677 59.2253 73.0988 59.2641C73.1039 59.2693 73.1065 59.277 73.1091 59.2822C73.1298 59.277 73.1454 59.2822 73.1505 59.3029C73.236 59.3236 73.3033 59.3806 73.3809 59.4142C73.795 59.598 74.2092 59.7818 74.6207 59.9655C74.8563 60.0691 75.0944 60.1726 75.33 60.2761L75.361 60.2503C75.2834 60.2037 75.2057 60.1571 75.1307 60.1079C75.053 60.0535 74.9779 59.9992 74.9055 59.9422C74.2894 59.4634 73.8054 58.8655 73.4094 58.1873C73.1687 57.7758 72.9719 57.3435 72.8037 56.8983C72.7985 56.8879 72.7959 56.8776 72.7908 56.8672C72.5656 56.2667 72.3999 55.6481 72.2757 55.0191C72.2084 54.6826 72.1566 54.3436 72.11 54.0019C72.1074 53.9786 72.1022 53.9527 72.0997 53.9294C72.0764 53.7612 72.0582 53.5929 72.0401 53.4247C72.0142 53.1762 71.9935 52.9303 71.9806 52.6818C71.978 52.6197 71.9728 52.5602 71.9702 52.498C71.9702 52.4825 71.9702 52.467 71.9702 52.4514C71.9573 52.1072 71.9444 51.7655 71.9469 51.4213C71.9469 51.4031 71.9469 51.3824 71.9469 51.3643C71.9469 51.3022 71.9469 51.2427 71.9469 51.1805C71.9547 50.9114 71.9625 50.6422 71.9728 50.373C71.978 50.2384 71.9858 50.1038 71.9935 49.9692C72.0013 49.8346 72.0091 49.7 72.0194 49.5654C72.0557 49.0969 72.1022 48.6284 72.1592 48.1599C72.1799 47.9891 72.2032 47.8208 72.2265 47.65C72.2524 47.461 72.2808 47.2721 72.3119 47.0831C72.3352 46.933 72.3611 46.7855 72.3844 46.6379C72.4128 46.4697 72.4439 46.3014 72.475 46.1332C72.5138 45.9209 72.5578 45.7087 72.5992 45.4964C72.6484 45.2557 72.7002 45.0124 72.7545 44.7717C72.8037 44.5569 72.8555 44.3446 72.9072 44.1298C72.9642 43.8942 73.0263 43.6587 73.0884 43.4231C73.1039 43.3688 73.1195 43.3144 73.1376 43.2601C73.1531 43.2057 73.1712 43.1514 73.1842 43.097C73.2127 42.9831 73.236 42.8666 73.2774 42.7553C73.2877 42.7424 73.3007 42.732 73.3033 42.7165C73.3369 42.4473 73.4327 42.1962 73.5155 41.94C73.5517 41.8261 73.588 41.7122 73.6242 41.5983C73.6734 41.4379 73.7226 41.28 73.7718 41.1195C73.8132 40.9875 73.8546 40.8581 73.8986 40.7286C73.9167 40.6769 73.9322 40.6251 73.9504 40.5759C73.9736 40.5112 73.9969 40.4439 74.0202 40.3792C74.1186 40.1074 74.2144 39.8331 74.3127 39.5613C74.3541 39.45 74.3956 39.3361 74.4396 39.2248C74.5845 38.8417 74.7346 38.4612 74.8899 38.0833C74.9339 37.9746 74.9779 37.8685 75.0245 37.7623C75.0608 37.6769 75.097 37.5915 75.1332 37.5061C75.2212 37.3042 75.3093 37.1023 75.3973 36.9004C75.4671 36.7425 75.537 36.5846 75.6095 36.4267C75.6639 36.3051 75.7182 36.186 75.7752 36.0669C75.9253 35.746 76.078 35.425 76.2359 35.1092C76.2644 35.0549 76.2954 35.0005 76.3265 34.9462C76.3576 34.8918 76.3886 34.8401 76.4171 34.7831C76.8804 33.8021 77.424 32.8625 77.9831 31.9333C78.0322 31.8505 78.084 31.7676 78.1332 31.6848C78.2497 31.4907 78.361 31.294 78.4956 31.1128C78.5784 31.0015 78.6535 30.885 78.7311 30.7685C78.8062 30.652 78.8812 30.5356 78.9615 30.4217C79.1194 30.1913 79.2669 29.9558 79.4248 29.7254C79.4455 29.6969 79.4662 29.6659 79.4869 29.6348C79.593 29.4847 79.7017 29.3346 79.8079 29.1844V29.1792C79.8079 29.1792 79.813 29.1663 79.8182 29.1637C79.8182 29.1637 79.8234 29.1637 79.826 29.1611C79.9787 28.9541 80.134 28.747 80.2893 28.5399C80.2971 28.5296 80.3048 28.5218 80.3126 28.514C80.3152 28.5114 80.3204 28.5063 80.323 28.5037C80.3333 28.4933 80.3411 28.483 80.3514 28.4726C80.3514 28.4674 80.3514 28.4649 80.3514 28.4597C80.3514 28.4571 80.3514 28.4519 80.3514 28.4493C80.3514 28.4493 80.3566 28.4364 80.3618 28.4312C80.367 28.426 80.3721 28.4209 80.3773 28.4157C80.3825 28.4105 80.3903 28.4079 80.398 28.4053C80.4006 28.4027 80.4058 28.3976 80.4084 28.3924C80.4679 28.3173 80.53 28.2423 80.5896 28.1672C80.5973 28.1594 80.6025 28.1491 80.6103 28.1413C80.6103 28.1361 80.6129 28.131 80.6154 28.1258C80.6154 28.1206 80.6206 28.118 80.6206 28.1128C80.6258 28.1051 80.6336 28.0973 80.6413 28.0895C80.6413 28.0895 80.6439 28.0869 80.6465 28.0844C80.6724 28.0611 80.706 28.0404 80.7112 28.0015C80.7112 28.0015 80.7112 27.9964 80.7112 27.9938C80.7112 27.986 80.7164 27.9808 80.7216 27.9782C80.7242 27.9782 80.7267 27.9782 80.7293 27.9756C80.7475 27.9627 80.763 27.9472 80.7785 27.9316C80.7811 27.9291 80.7837 27.9239 80.7889 27.9213C80.7992 27.9084 80.8096 27.8954 80.8173 27.8825C80.8303 27.8643 80.8432 27.8462 80.8536 27.8281C80.8639 27.8152 80.8717 27.7996 80.8821 27.7867C80.8898 27.7763 80.895 27.7686 80.9028 27.7582C80.9493 27.7013 80.9959 27.6443 81.0425 27.5874C81.3687 27.1888 81.7052 26.7979 82.052 26.4174C82.3238 26.1172 82.6033 25.8273 82.8881 25.54C82.9372 25.4908 82.9864 25.439 83.0356 25.3898C83.1288 25.2967 83.2245 25.2112 83.3203 25.1232C83.3591 25.0896 83.3954 25.0534 83.4342 25.0171C83.442 25.0094 83.4497 25.0016 83.4575 24.9938C83.5766 24.8799 83.6982 24.766 83.8173 24.6522C83.8173 24.6522 83.8225 24.647 83.825 24.6444C83.8561 24.6159 83.8923 24.59 83.926 24.5642C83.9338 24.5564 83.9415 24.5512 83.9493 24.5434C83.9493 24.5434 83.9545 24.5383 83.9571 24.5357C83.9933 24.4969 84.0321 24.4606 84.0684 24.4218C84.0735 24.414 84.0787 24.4088 84.0865 24.4037C84.0942 24.3985 84.102 24.3985 84.1124 24.3959C84.1227 24.3959 84.1331 24.3907 84.1408 24.383C84.146 24.3778 84.1512 24.3726 84.1564 24.3674C84.1615 24.3623 84.1641 24.3571 84.1667 24.3519C84.1745 24.3441 84.1822 24.3338 84.1874 24.326C84.2832 24.2406 84.3815 24.1552 84.4799 24.0724C84.4954 24.0594 84.5084 24.0465 84.5239 24.0335C84.6197 23.9533 84.7155 23.8731 84.8138 23.7954C85.0338 23.6194 85.259 23.4486 85.4894 23.2881C85.4971 23.2829 85.5049 23.2803 85.5127 23.2751C85.5127 23.2751 85.5282 23.257 85.536 23.2493C85.5877 23.2104 85.6395 23.1716 85.6939 23.1354C85.8 23.0603 85.9061 22.9852 86.0122 22.9128C86.0666 22.8765 86.1209 22.8403 86.1727 22.8066C86.2271 22.7704 86.2814 22.7368 86.3358 22.7031C86.5014 22.5996 86.6671 22.4986 86.8353 22.4028C87.0191 22.2967 87.2055 22.1932 87.3944 22.0974C87.9613 21.8049 88.5463 21.559 89.1597 21.3778C89.2063 21.3649 89.2529 21.352 89.2995 21.3364C89.6256 21.2458 89.9543 21.176 90.2883 21.1294C90.4772 21.1035 90.6687 21.0854 90.8603 21.0776C91.0052 21.0698 91.1502 21.0698 91.2951 21.0724C91.3443 21.0724 91.3909 21.075 91.4401 21.0776C91.585 21.0854 91.73 21.1009 91.8749 21.1216C92.0742 21.1501 92.2735 21.1863 92.4703 21.2381C92.4754 21.2381 92.4806 21.2381 92.4858 21.2381C92.491 21.2381 92.4936 21.2433 92.4987 21.2458C92.5039 21.2458 92.5065 21.2484 92.5117 21.251C92.5194 21.2536 92.5298 21.2562 92.5376 21.2614C92.5376 21.2484 92.5376 21.2329 92.5401 21.22C92.5376 21.2174 92.535 21.2148 92.5298 21.2122L92.5453 21.2277Z" fill="#F1ECE2"/>
<path d="M90.3895 20.2906C90.3791 20.2492 90.3403 20.244 90.3092 20.2311C89.7295 19.9723 89.1471 19.716 88.5647 19.4598C88.4094 19.3925 88.2592 19.3122 88.0988 19.2579C88.0806 19.2682 88.0625 19.2682 88.0418 19.2605C87.6432 19.1284 87.2291 19.0637 86.8097 19.0379C86.4267 19.0146 86.0436 19.0379 85.6631 19.0896C85.3499 19.1336 85.0419 19.1983 84.7365 19.2786C84.1437 19.4365 83.5743 19.6539 83.0255 19.9257C82.8133 20.0292 82.6088 20.1483 82.4017 20.2596C82.3318 20.2958 82.2594 20.3295 82.1921 20.3683C81.5941 20.7229 81.0169 21.106 80.4682 21.5331C80.331 21.6392 80.1887 21.7427 80.0618 21.8592C79.979 21.9343 79.8988 22.0093 79.8082 22.074C79.79 22.087 79.7745 22.0973 79.7538 22.1103C79.7383 22.1232 79.7227 22.1362 79.7098 22.1491C79.7046 22.1698 79.6969 22.1853 79.6865 22.1957C79.6813 22.2009 79.6736 22.2034 79.6658 22.206C79.6606 22.206 79.658 22.206 79.6529 22.206H79.6503C79.6503 22.206 79.6425 22.206 79.6373 22.2034C79.6322 22.2034 79.6296 22.2086 79.627 22.2112C79.5804 22.2449 79.5519 22.3044 79.5105 22.338C79.5027 22.3432 79.4976 22.3484 79.4898 22.351C79.3759 22.4105 79.306 22.5192 79.2051 22.5917C79.1067 22.6616 79.0265 22.7574 78.9359 22.8402C78.4907 23.2492 78.0688 23.684 77.652 24.124C77.5252 24.2586 77.4087 24.4036 77.2871 24.5434C77.2172 24.6236 77.1369 24.6935 77.0671 24.7737C76.8781 24.9911 76.6943 25.2112 76.508 25.4312C76.3708 25.5942 76.2388 25.7599 76.1145 25.9333C76.0162 26.0705 75.8997 26.1922 75.7962 26.3267C75.4778 26.7331 75.1775 27.1524 74.8773 27.5718C74.5796 27.9859 74.3078 28.413 74.0257 28.8375C73.772 29.218 73.5391 29.6114 73.2984 29.9997C73.2104 30.1446 73.1301 30.2947 73.0421 30.4371C72.8868 30.6856 72.7445 30.9393 72.6099 31.1981C72.5244 31.299 72.4753 31.4207 72.4105 31.5346C72.276 31.7701 72.1491 32.0108 72.0326 32.2567C71.9964 32.3344 71.9421 32.4043 71.9032 32.4819C71.7945 32.7019 71.6858 32.922 71.5745 33.1394C71.2924 33.6855 71.0439 34.2498 70.7876 34.8089C70.5081 35.4146 70.2622 36.0332 70.0163 36.6544C69.8506 37.0737 69.6824 37.4956 69.5504 37.9279C69.5297 37.9978 69.4883 38.0625 69.4624 38.1324C69.3355 38.5051 69.2061 38.8778 69.0845 39.2532C68.9706 39.5974 68.8645 39.9443 68.7635 40.2937C68.6652 40.6276 68.572 40.9641 68.4814 41.3006C68.3054 41.9528 68.1449 42.6103 68.0077 43.2703C67.9715 43.4463 67.9378 43.6224 67.9016 43.7984C67.7851 44.3963 67.6816 44.9994 67.5961 45.6025C67.5159 46.1771 67.4512 46.7543 67.3994 47.3315C67.3943 47.3859 67.3917 47.4376 67.3865 47.492C67.3865 47.5412 67.3865 47.5904 67.3865 47.6395C67.3865 47.5904 67.3865 47.5412 67.3865 47.492C67.3606 47.8078 67.3425 48.1262 67.3295 48.4445C67.314 48.8095 67.3114 49.1719 67.3088 49.5368C67.3088 49.7102 67.327 49.8837 67.3244 50.0571C67.3244 50.3237 67.3451 50.5877 67.3606 50.8517C67.3658 50.9501 67.371 51.0458 67.3813 51.1442C67.3813 51.1623 67.3839 51.1779 67.3865 51.196C67.4176 51.4496 67.4383 51.7059 67.4745 51.9595C67.5081 52.2054 67.5418 52.4513 67.5884 52.6972C67.6531 53.0363 67.7152 53.378 67.8213 53.7093C67.855 53.8128 67.8731 53.9215 67.9016 54.0277C67.9637 54.2606 68.0388 54.4884 68.1216 54.7136C68.2407 55.0371 68.3753 55.3529 68.5254 55.6635C68.7532 56.1398 69.0353 56.585 69.3666 56.9966C69.6798 57.3874 70.037 57.7317 70.4486 58.0216C70.4667 58.0319 70.4822 58.0448 70.5003 58.0552C70.5288 58.0759 70.5599 58.094 70.5909 58.1121C70.6064 58.1225 70.6246 58.1329 70.6427 58.1432C70.6996 58.1794 70.7566 58.2157 70.8109 58.2545C70.8265 58.27 70.8446 58.2804 70.8601 58.2933C70.8601 58.2959 70.8627 58.2985 70.8653 58.3011C70.8756 58.314 70.8938 58.3166 70.9093 58.3218C71.6159 58.635 72.3251 58.9482 73.0344 59.2614C73.0628 59.2743 73.0887 59.2925 73.1249 59.2847C73.1224 59.2769 73.1172 59.2717 73.1146 59.2666C73.0835 59.2277 73.0369 59.2122 72.9955 59.1863C72.7781 59.0491 72.5736 58.8938 72.3821 58.7282C72.2785 58.6402 72.1802 58.547 72.0844 58.4486C71.7195 58.0785 71.4114 57.6669 71.15 57.2269C71.0542 57.0664 70.9636 56.9008 70.8808 56.7325C70.829 56.6316 70.7825 56.5306 70.7333 56.4271C70.7126 56.3831 70.6944 56.3391 70.6737 56.2951C70.6556 56.2511 70.6349 56.2071 70.6168 56.1605C70.3502 55.5212 70.1561 54.8585 70.0111 54.183C69.9671 53.9837 69.9283 53.7818 69.8946 53.5799C69.8222 53.1657 69.7704 52.749 69.7316 52.3323C69.6927 51.9155 69.6694 51.4962 69.6565 51.0769C69.6436 50.6317 69.6462 50.1865 69.6591 49.7439C69.6591 49.7128 69.6591 49.6844 69.6617 49.6533C69.6694 49.4229 69.6798 49.19 69.6927 48.9596C69.7057 48.7292 69.7238 48.4989 69.7419 48.2685C69.7471 48.2193 69.7523 48.1676 69.7575 48.0977C69.7575 48.0899 69.7575 48.0847 69.7575 48.077C69.7652 47.9838 69.7756 47.8906 69.7833 47.8C69.8273 47.3859 69.8791 46.9743 69.9361 46.5602C69.9982 46.1331 70.0655 45.7086 70.1431 45.2841C70.1535 45.2323 70.1638 45.1806 70.1742 45.1288C70.1742 45.1184 70.1768 45.1081 70.1794 45.1003C70.1845 45.0744 70.1897 45.0486 70.1949 45.0227C70.2078 44.958 70.2182 44.8933 70.2311 44.8285C70.2855 44.5568 70.3398 44.2876 70.3994 44.0158C70.4693 43.7 70.5443 43.3842 70.622 43.071C70.7074 42.7216 70.798 42.3748 70.8938 42.0279C70.8938 42.0227 70.8938 42.0176 70.8989 42.0124C70.9611 41.7924 71.0232 41.5724 71.0905 41.3523C71.251 40.8165 71.414 40.2859 71.5926 39.7579C71.6884 39.4732 71.7893 39.1884 71.8929 38.9037C72.087 38.3679 72.2889 37.8373 72.5037 37.3093C72.9049 36.3153 73.3424 35.3369 73.8135 34.3715C73.9015 34.1929 73.9895 34.0143 74.0801 33.8382C74.2923 33.4189 74.5123 33.0022 74.7401 32.5881C74.7996 32.4768 74.8618 32.368 74.9213 32.2593C74.9265 32.2516 74.9316 32.2412 74.9368 32.2334C74.9446 32.2205 74.9498 32.2102 74.9472 32.1946C74.9549 32.1817 74.9653 32.1687 74.9731 32.1558C75.0378 32.0393 75.1051 31.9254 75.1698 31.809C75.3018 31.5786 75.4364 31.3482 75.5736 31.1204C75.6693 30.96 75.7677 30.7995 75.866 30.639C75.9773 30.4604 76.0886 30.2818 76.2025 30.1032C76.3449 29.878 76.4924 29.6554 76.64 29.4354C76.7953 29.2024 76.9532 28.9747 77.1136 28.7443C77.2094 28.6071 77.3052 28.4699 77.401 28.3327C77.401 28.3302 77.401 28.3276 77.401 28.325C77.401 28.325 77.401 28.3224 77.4035 28.3198C77.4061 28.3172 77.4113 28.3146 77.4165 28.3146C77.445 28.2758 77.4708 28.237 77.4993 28.1982C78.5735 26.7228 79.746 25.3328 81.0661 24.0723C81.5398 23.6193 82.0316 23.1844 82.5441 22.7781C82.7486 22.615 82.9582 22.4571 83.1705 22.3018L83.2222 22.263C83.3102 22.1983 83.4008 22.1362 83.4914 22.074C83.9237 21.7738 84.3689 21.4942 84.827 21.2432C84.915 21.1966 85.0031 21.15 85.0911 21.1034C85.1584 21.0697 85.2231 21.0361 85.2904 21.0024C85.3473 20.974 85.4043 20.9481 85.4612 20.9196C85.6916 20.8109 85.9245 20.7099 86.1627 20.6194C86.921 20.3269 87.7002 20.1276 88.5129 20.0861C89.1264 20.0525 89.7294 20.1069 90.3196 20.2855C90.3455 20.2932 90.3714 20.3062 90.3998 20.2932L90.3895 20.2906ZM67.371 50.3988C67.371 50.3988 67.371 50.4246 67.371 50.4376C67.371 50.4246 67.371 50.4117 67.371 50.3988Z" fill="#FDBF41"/>
<path d="M77.3877 28.3146C77.3877 28.3146 77.3955 28.3094 77.4007 28.3094C77.4007 28.3146 77.4007 28.3198 77.3955 28.3224C77.3929 28.325 77.3877 28.3276 77.3826 28.3276C77.3826 28.325 77.3826 28.3224 77.3826 28.3198C77.3826 28.3198 77.3826 28.3172 77.3852 28.3146H77.3877Z" fill="#C18B00"/>
<path d="M79.6475 22.1646C79.6475 22.1646 79.6656 22.149 79.6785 22.149C79.6863 22.149 79.6966 22.149 79.707 22.1516C79.7018 22.1723 79.6941 22.1879 79.6837 22.1982C79.6785 22.2034 79.6708 22.206 79.663 22.2086C79.6578 22.2086 79.6552 22.2086 79.6501 22.2086H79.6475C79.6475 22.2086 79.6397 22.2086 79.6345 22.206C79.6371 22.1905 79.6423 22.1775 79.6501 22.1672L79.6475 22.1646Z" fill="#C18B00"/>
<path d="M87.9718 19.2034C87.4463 18.9678 86.9157 18.74 86.3903 18.4993C85.7898 18.2249 85.166 18.0567 84.5059 18.0256C84.3403 18.0256 84.172 18.0256 84.0064 18.0256C83.9417 18.0256 83.877 18.0256 83.8123 18.0256C83.4809 18.0438 83.1522 18.0929 82.8261 18.1628C81.8658 18.3673 80.9728 18.7426 80.116 19.2137C79.2541 19.6874 78.4517 20.2542 77.6907 20.8754C77.5924 20.9557 77.4888 21.0282 77.406 21.1213C77.3982 21.1239 77.3931 21.1291 77.3879 21.1369V21.1446H77.3775C77.3568 21.1628 77.3335 21.1783 77.3128 21.1964C76.469 21.9186 75.6847 22.7029 74.9444 23.5285C74.0644 24.5121 73.2516 25.5501 72.4932 26.6294C71.3621 28.2368 70.3604 29.9245 69.47 31.6742C68.8695 32.8545 68.3208 34.0581 67.8264 35.2902C67.3113 36.574 66.8428 37.8734 66.4623 39.2038C66.4209 39.3514 66.3691 39.4963 66.3251 39.6438C66.0145 40.7413 65.7453 41.8466 65.5356 42.9673C65.3571 43.9173 65.2121 44.8698 65.1189 45.8327C65.049 46.5315 65.0024 47.2304 65.0024 47.9319C65.0024 48.2502 65.0024 48.5686 65.005 48.8896C65.0102 48.9336 65.0102 48.9776 65.0128 49.0216C65.0128 49.0889 65.0128 49.1562 65.0102 49.2235C65.0128 49.6117 65.0464 49.9974 65.0827 50.3831C65.1448 51.012 65.2406 51.6384 65.3778 52.2545C65.5512 53.0284 65.7893 53.779 66.131 54.4986C66.4959 55.2673 66.9567 55.9662 67.5805 56.5512C67.9428 56.8929 68.344 57.1802 68.7944 57.3898C69.1956 57.5788 69.602 57.7548 70.0058 57.9334C70.2828 58.055 70.5571 58.1871 70.8418 58.2984C70.8263 58.2854 70.8082 58.2725 70.7927 58.2595C70.7383 58.2181 70.6814 58.1819 70.6244 58.1456C70.6063 58.1353 70.5908 58.1249 70.5727 58.1146C70.5416 58.0965 70.5131 58.0783 70.4821 58.0576C70.4639 58.0473 70.4484 58.0343 70.4303 58.024C70.0187 57.7341 69.6615 57.3898 69.3483 56.999C69.017 56.5874 68.7349 56.1422 68.5071 55.666C68.3596 55.3554 68.2224 55.0396 68.1033 54.716C68.0723 54.6876 68.0412 54.6565 68.0127 54.628C68.0438 54.6591 68.0723 54.6876 68.1033 54.716C68.0205 54.4908 67.9454 54.2631 67.8833 54.0301C67.8548 53.924 67.8367 53.8153 67.8031 53.7117C67.697 53.3804 67.6374 53.0387 67.5701 52.6997C67.5235 52.4564 67.4899 52.2079 67.4562 51.962C67.42 51.7083 67.3993 51.4521 67.3682 51.1984C67.3682 51.1803 67.3656 51.1648 67.3631 51.1466C67.3631 51.4728 67.3631 51.7989 67.3631 52.1225C67.3631 51.7963 67.3631 51.4702 67.3631 51.1466C67.3527 51.0509 67.3501 50.9525 67.3423 50.8542C67.3294 50.5901 67.3061 50.3261 67.3061 50.0595C67.3061 49.8861 67.288 49.7127 67.2906 49.5393C67.2932 49.1743 67.2958 48.8119 67.3113 48.447C67.3242 48.1286 67.3423 47.8128 67.3682 47.4944C67.3734 47.4401 67.376 47.3883 67.3812 47.3339C67.4329 46.7567 67.4976 46.1795 67.5779 45.6049C67.6607 44.9992 67.7668 44.3987 67.8833 43.8008C67.917 43.6248 67.9532 43.4488 67.9894 43.2728C68.1266 42.6101 68.2871 41.9553 68.4631 41.303C68.5537 40.9665 68.6469 40.63 68.7452 40.2961C68.8462 39.9467 68.9549 39.5998 69.0662 39.2556C69.1879 38.8803 69.3173 38.5075 69.4441 38.1348C69.4674 38.0649 69.5088 38.0002 69.5321 37.9303C69.6667 37.4981 69.8324 37.0762 69.998 36.6568C70.2439 36.0382 70.4898 35.417 70.7694 34.8113C71.0256 34.2522 71.2741 33.688 71.5562 33.1418C71.6675 32.9244 71.7788 32.7044 71.885 32.4844C71.9238 32.4067 71.9781 32.3394 72.0144 32.2592C72.1309 32.0133 72.2577 31.7726 72.3923 31.537C72.457 31.4231 72.5062 31.3015 72.5916 31.2005C72.7262 30.9417 72.8686 30.688 73.0239 30.4395C73.1144 30.2972 73.1921 30.1445 73.2801 30.0021C73.5208 29.6138 73.7538 29.2204 74.0074 28.8399C74.2896 28.4154 74.5614 27.9883 74.859 27.5742C75.1593 27.1549 75.4621 26.7356 75.7779 26.3292C75.8814 26.1972 75.9979 26.0755 76.0963 25.9357C76.2205 25.7623 76.3499 25.5941 76.4897 25.4336C76.6761 25.2136 76.8598 24.9936 77.0488 24.7761C77.1187 24.6959 77.1963 24.626 77.2688 24.5458C77.3905 24.406 77.5069 24.2611 77.6338 24.1265C78.0505 23.6864 78.4724 23.2516 78.9176 22.8426C79.0082 22.7598 79.0884 22.6666 79.1868 22.5941C79.2878 22.5217 79.3576 22.413 79.4715 22.3534C79.4793 22.3482 79.4871 22.3457 79.4922 22.3405C79.5362 22.3068 79.5621 22.2473 79.6087 22.2136C79.6113 22.2111 79.6165 22.2085 79.6191 22.2059C79.6217 22.1904 79.6268 22.1774 79.6346 22.1671C79.6424 22.1567 79.6527 22.1515 79.6657 22.1515C79.6734 22.1515 79.6838 22.1515 79.6941 22.1541C79.7097 22.1412 79.7252 22.1282 79.7381 22.1153C79.7588 22.1023 79.7744 22.0894 79.7925 22.079C79.8831 22.0143 79.9633 21.9393 80.0461 21.8642C80.1756 21.7477 80.3153 21.6442 80.4525 21.5381C81.0013 21.111 81.5811 20.7279 82.1764 20.3733C82.2437 20.3319 82.3162 20.3008 82.3861 20.2646C82.5931 20.1533 82.7976 20.0342 83.0099 19.9307C83.5586 19.6589 84.128 19.4415 84.7208 19.2836C85.0262 19.2034 85.3342 19.1386 85.6474 19.0946C86.0279 19.0429 86.411 19.0222 86.7941 19.0429C87.2108 19.0688 87.6249 19.1335 88.0261 19.2655C88.0469 19.2706 88.065 19.2732 88.0831 19.2629C88.0494 19.2266 87.9977 19.2266 87.9563 19.2059L87.9718 19.2034Z" fill="#FF1100"/>
<path d="M79.662 22.0111C79.662 22.0111 79.6549 22.0064 79.6526 22.004C79.6549 22.004 79.6596 22.0087 79.662 22.0111Z" fill="#FF1100"/>
<path d="M79.5906 21.968C79.6061 21.9758 79.619 21.9835 79.632 21.9913C79.619 21.9835 79.6035 21.9758 79.5906 21.968Z" fill="#FF1100"/>
<path d="M84.506 18.0258H84.0065C83.9418 18.0258 83.8771 18.0258 83.8124 18.0258C83.8098 18.018 83.8046 18.0102 83.802 17.9999C84.0401 17.9999 84.2783 17.9999 84.5138 17.9999C84.5138 18.0076 84.5086 18.0154 84.506 18.0258Z" fill="#FEC35E"/>
<path d="M77.3797 21.1465H77.375V21.1371H77.3844V21.1441H77.3797V21.1465Z" fill="#C18B00"/>
<path opacity="0.48" d="M106.287 52.0035C106.354 51.9517 106.354 51.9466 106.287 51.8922C106.129 51.7654 105.961 51.6541 105.788 51.5505C105.21 51.2011 104.594 50.9345 103.96 50.7015C103.815 50.6498 103.675 50.5851 103.523 50.5566C103.481 50.51 103.419 50.5048 103.365 50.4867C102.775 50.29 102.174 50.1295 101.571 49.9742C101.522 49.969 101.473 49.9587 101.429 49.9354C101.147 49.8733 100.865 49.8111 100.582 49.7516C100.06 49.6377 99.5367 49.5394 99.0086 49.4513C98.6178 49.3866 98.2269 49.3245 97.8361 49.2676C97.5307 49.2236 97.2252 49.177 96.9172 49.1537C96.8654 49.1459 96.8163 49.1356 96.7645 49.1304C95.6877 48.9984 94.6084 48.8974 93.5238 48.825C92.8172 48.7758 92.108 48.7395 91.4014 48.7111C90.4747 48.6748 89.5507 48.6593 88.624 48.6593C87.4748 48.6593 86.3281 48.6878 85.1815 48.7421C83.8562 48.8068 82.5361 48.9078 81.2186 49.0553C81.0038 49.0786 80.7864 49.0942 80.5715 49.1382C80.5275 49.1278 80.4861 49.1382 80.4421 49.1433C79.5025 49.2598 78.5681 49.4022 77.6389 49.5782C77.0902 49.6817 76.544 49.7956 76.0005 49.925L75.9901 49.9431C75.9901 49.9431 75.8503 51.9621 76.1609 53.9344C76.6967 54.0613 77.2351 54.1752 77.7735 54.2761C78.2549 54.3667 78.739 54.4521 79.2256 54.522C79.9063 54.6204 80.5897 54.7187 81.2756 54.7912C81.9408 54.8611 82.606 54.9336 83.2738 54.9801C83.6698 55.0086 84.0633 55.0423 84.4593 55.0656C85.0443 55.0992 85.6293 55.1277 86.2142 55.1484C86.7474 55.1665 87.2832 55.182 87.8164 55.1898C88.6706 55.2002 89.5248 55.1976 90.3815 55.1795C91.2046 55.1613 92.0278 55.1303 92.8483 55.0837C93.8293 55.0293 94.8051 54.9517 95.7835 54.8507C97.2718 54.6954 98.7524 54.4909 100.22 54.1959C101.501 53.9396 102.77 53.6264 103.999 53.1735C104.535 52.9767 105.058 52.7541 105.557 52.4746C105.811 52.3348 106.054 52.1821 106.285 52.0035H106.287Z" fill="url(#paint0_linear_7092_116503)"/>
<path d="M125.017 33.8356L131.488 50.3624L137.915 33.8356H141.893L133.194 55.7411H129.521L120.777 33.8356H125.019H125.017Z" fill="url(#paint1_linear_7092_116503)"/>
<path d="M150.243 51.5014C151.468 52.2882 152.953 52.7697 154.527 52.7697C158.943 52.7697 162.398 49.2287 162.398 44.769H166.159C166.159 51.1519 161.001 56.1812 154.442 56.1812C147.883 56.1812 142.941 51.1959 142.941 44.901C142.941 38.606 148.1 33.4008 154.659 33.4008C157.895 33.4008 161.567 34.6251 163.972 37.8165L150.243 51.5014ZM147.883 49.0527L158.813 38.078C157.545 37.2471 156.103 36.8097 154.53 36.8097C150.158 36.8097 146.702 40.3506 146.702 44.7664C146.702 46.3401 147.14 47.8258 147.883 49.0501V49.0527Z" fill="url(#paint2_linear_7092_116503)"/>
<path d="M170.358 23.8239H174.468V55.7413H170.358V23.8239Z" fill="url(#paint3_linear_7092_116503)"/>
<path d="M179.101 44.7665C179.101 38.2955 184.086 33.3983 190.687 33.3983C197.287 33.3983 202.316 38.2955 202.316 44.7665C202.316 51.2375 197.331 56.1787 190.687 56.1787C184.042 56.1787 179.101 51.2815 179.101 44.7665ZM190.687 52.5058C195.058 52.5058 198.338 49.1823 198.338 44.7665C198.338 40.3507 195.058 37.0272 190.687 37.0272C186.315 37.0272 183.079 40.3947 183.079 44.7665C183.079 49.1383 186.359 52.5058 190.687 52.5058Z" fill="url(#paint4_linear_7092_116503)"/>
<path d="M217.358 55.7413C210.276 55.7413 205.552 51.3695 205.552 44.7665C205.552 38.1635 210.273 33.8357 217.358 33.8357H221.031V23.8239H225.141V55.7413H217.358ZM217.358 52.0683H221.031V37.4647H217.358C212.722 37.4647 209.662 40.3947 209.662 44.7665C209.662 49.1383 212.722 52.0683 217.358 52.0683Z" fill="url(#paint5_linear_7092_116503)"/>
<path d="M231.174 33.8358H235.285V40.1747L242.061 33.3983L244.642 35.9789L235.285 45.292V55.7413H231.174V33.8358Z" fill="url(#paint6_linear_7092_116503)"/>
<path d="M244.903 44.7665C244.903 38.2955 249.888 33.3983 256.489 33.3983C263.089 33.3983 268.118 38.2955 268.118 44.7665C268.118 51.2375 263.133 56.1787 256.489 56.1787C249.844 56.1787 244.903 51.2815 244.903 44.7665ZM256.489 52.5058C260.86 52.5058 264.14 49.1823 264.14 44.7665C264.14 40.3507 260.86 37.0272 256.489 37.0272C252.117 37.0272 248.881 40.3947 248.881 44.7665C248.881 49.1383 252.161 52.5058 256.489 52.5058Z" fill="url(#paint7_linear_7092_116503)"/>
<path d="M272.754 33.8358H276.777V36.4578C280.318 33.7917 281.847 33.3983 283.858 33.3983C286.483 33.3983 288.756 34.7546 289.848 36.9392C293.87 33.8358 295.488 33.3983 297.587 33.3983C301.348 33.3983 304.32 36.1084 304.32 40.2187V55.7413H300.209V40.6562C300.209 38.645 298.768 37.1592 296.93 37.1592C295.53 37.1592 294.481 37.4647 290.591 40.7002V55.7413H286.481V40.6562C286.481 38.645 285.039 37.1592 283.201 37.1592C281.803 37.1592 280.752 37.4647 276.862 40.7002V55.7413H272.752V33.8358H272.754Z" fill="url(#paint8_linear_7092_116503)"/>
<path d="M316.04 51.5014C317.264 52.2882 318.75 52.7697 320.324 52.7697C324.739 52.7697 328.195 49.2287 328.195 44.769H331.956C331.956 51.1519 326.797 56.1812 320.238 56.1812C313.679 56.1812 308.738 51.1959 308.738 44.901C308.738 38.606 313.897 33.4008 320.456 33.4008C323.691 33.4008 327.364 34.6251 329.769 37.8165L316.04 51.5014ZM313.679 49.0527L324.61 38.078C323.342 37.2471 321.9 36.8097 320.326 36.8097C315.954 36.8097 312.499 40.3506 312.499 44.7664C312.499 46.3401 312.936 47.8258 313.679 49.0501V49.0527Z" fill="url(#paint9_linear_7092_116503)"/>
<defs>
<linearGradient id="paint0_linear_7092_116503" x1="91.2065" y1="49.4169" x2="91.0178" y2="54.3036" gradientUnits="userSpaceOnUse">
<stop offset="0.16" stop-color="#191919"/>
<stop offset="0.97" stop-color="#191919" stop-opacity="0"/>
</linearGradient>
<linearGradient id="paint1_linear_7092_116503" x1="120.777" y1="33.8356" x2="147.153" y2="49.7864" gradientUnits="userSpaceOnUse">
<stop stop-color="#011845"/>
<stop offset="1" stop-color="#15141D"/>
</linearGradient>
<linearGradient id="paint2_linear_7092_116503" x1="142.941" y1="33.4008" x2="171.055" y2="51.3768" gradientUnits="userSpaceOnUse">
<stop stop-color="#011845"/>
<stop offset="1" stop-color="#15141D"/>
</linearGradient>
<linearGradient id="paint3_linear_7092_116503" x1="170.358" y1="23.8239" x2="177.324" y2="24.3867" gradientUnits="userSpaceOnUse">
<stop stop-color="#011845"/>
<stop offset="1" stop-color="#15141D"/>
</linearGradient>
<linearGradient id="paint4_linear_7092_116503" x1="179.101" y1="33.3983" x2="207.214" y2="51.3715" gradientUnits="userSpaceOnUse">
<stop stop-color="#011845"/>
<stop offset="1" stop-color="#15141D"/>
</linearGradient>
<linearGradient id="paint5_linear_7092_116503" x1="205.552" y1="23.8239" x2="234.655" y2="35.0293" gradientUnits="userSpaceOnUse">
<stop stop-color="#011845"/>
<stop offset="1" stop-color="#15141D"/>
</linearGradient>
<linearGradient id="paint6_linear_7092_116503" x1="231.174" y1="33.3983" x2="251.274" y2="40.999" gradientUnits="userSpaceOnUse">
<stop stop-color="#011845"/>
<stop offset="1" stop-color="#15141D"/>
</linearGradient>
<linearGradient id="paint7_linear_7092_116503" x1="244.903" y1="33.3983" x2="273.016" y2="51.3715" gradientUnits="userSpaceOnUse">
<stop stop-color="#011845"/>
<stop offset="1" stop-color="#15141D"/>
</linearGradient>
<linearGradient id="paint8_linear_7092_116503" x1="272.752" y1="33.3983" x2="302.91" y2="60.1299" gradientUnits="userSpaceOnUse">
<stop stop-color="#011845"/>
<stop offset="1" stop-color="#15141D"/>
</linearGradient>
<linearGradient id="paint9_linear_7092_116503" x1="308.738" y1="33.4008" x2="336.852" y2="51.3768" gradientUnits="userSpaceOnUse">
<stop stop-color="#011845"/>
<stop offset="1" stop-color="#15141D"/>
</linearGradient>
</defs>
</svg>
