<svg width="398" height="80" viewBox="0 0 398 80" fill="none" xmlns="http://www.w3.org/2000/svg">
<path d="M107.259 52.0241C107.23 52.0474 107.202 52.0681 107.173 52.0888C107.145 52.1095 107.114 52.1302 107.085 52.1509C107.029 52.1897 106.972 52.2285 106.915 52.2648L106.894 52.2777C106.847 52.3088 106.798 52.3373 106.749 52.3657C106.676 52.4097 106.607 52.4511 106.532 52.49C106.032 52.7669 105.509 52.9921 104.973 53.1888C104.469 53.3752 103.956 53.5357 103.441 53.6806C102.701 53.8877 101.95 54.0585 101.197 54.2087C100.462 54.3562 99.7267 54.4804 98.9864 54.5891C98.2461 54.6979 97.5032 54.7859 96.7604 54.8635C96.5171 54.8894 96.2738 54.9127 96.0279 54.936C95.5387 54.98 95.0495 55.0188 94.5602 55.0525C94.3144 55.068 94.071 55.0835 93.8251 55.0991C93.2764 55.1301 92.7277 55.1534 92.1789 55.1715C92.0806 55.1741 91.9796 55.1793 91.8787 55.1819C91.7881 55.1845 91.6949 55.1871 91.6043 55.1897C91.8295 54.9127 92.0547 54.6357 92.2592 54.3433C92.2876 54.307 92.3187 54.2708 92.3472 54.232C92.8105 53.6081 93.2557 52.9714 93.6802 52.3217C93.7242 52.3217 93.7656 52.3165 93.8096 52.314C94.0788 52.2984 94.348 52.2829 94.6198 52.2622C94.8243 52.2492 95.0287 52.2337 95.2332 52.2182C96.662 52.1069 98.0856 51.949 99.5041 51.7264C99.9156 51.6617 100.327 51.5918 100.736 51.5167C101.691 51.3381 102.641 51.1285 103.576 50.8593C103.78 50.7997 103.985 50.7376 104.189 50.6755C104.293 50.6444 104.394 50.6108 104.494 50.5771C104.647 50.603 104.79 50.6677 104.932 50.7221C105.059 50.7687 105.186 50.8179 105.312 50.867C105.67 51.0094 106.022 51.1673 106.363 51.3459C106.498 51.4158 106.63 51.4908 106.759 51.5711C106.933 51.6772 107.101 51.7859 107.259 51.9128C107.305 51.949 107.318 51.9645 107.3 51.9852C107.293 51.9956 107.28 52.0059 107.256 52.0241H107.259Z" fill="#333333" fill-opacity="0.1"/>
<path d="M94.0141 58.6064C93.9856 58.6245 93.9546 58.6245 93.9235 58.6142C93.9313 58.609 93.9391 58.6064 93.9442 58.6038C93.9572 58.5986 93.9675 58.5986 93.9805 58.5986C93.9908 58.5986 94.0038 58.6012 94.0141 58.6064Z" fill="#333333" fill-opacity="0.7"/>
<path d="M93.8925 58.6144C93.8562 58.6299 93.8174 58.6325 93.7786 58.6196C93.8148 58.5963 93.8536 58.5989 93.8925 58.6144Z" fill="#333333" fill-opacity="0.7"/>
<path d="M93.7475 58.6194C93.7113 58.6349 93.6725 58.6375 93.6362 58.6272C93.6725 58.6039 93.7113 58.6065 93.7475 58.6194Z" fill="#333333" fill-opacity="0.7"/>
<path d="M93.6051 58.6271C93.5689 58.6452 93.5301 58.6452 93.4938 58.6322C93.4938 58.6322 93.4964 58.6322 93.499 58.6322C93.5352 58.6141 93.5715 58.6141 93.6077 58.6271H93.6051Z" fill="#333333" fill-opacity="0.7"/>
<path d="M93.3851 58.6246C93.4084 58.6195 93.4343 58.6246 93.4602 58.6324C93.424 58.6505 93.3851 58.6505 93.3463 58.6376C93.3593 58.6298 93.3696 58.6272 93.3826 58.6246H93.3851Z" fill="#333333" fill-opacity="0.7"/>
<path d="M93.2583 58.6298C93.2765 58.6298 93.2972 58.6323 93.3153 58.6401C93.279 58.6556 93.2428 58.6582 93.204 58.6453C93.2221 58.6349 93.2402 58.6298 93.2583 58.6298Z" fill="#333333" fill-opacity="0.7"/>
<path d="M93.1444 58.6376C93.1444 58.6376 93.1626 58.6427 93.1703 58.6453C93.1341 58.6634 93.0978 58.6634 93.059 58.6505C93.0849 58.635 93.1134 58.6324 93.1393 58.6376H93.1444Z" fill="#333333" fill-opacity="0.7"/>
<path d="M93.0253 58.6506C92.9813 58.6687 92.9373 58.6687 92.8907 58.6557C92.9347 58.635 92.9788 58.6376 93.0253 58.6506Z" fill="#333333" fill-opacity="0.7"/>
<path d="M92.8597 58.6556C92.8235 58.6737 92.7872 58.6711 92.7484 58.6608C92.7847 58.6401 92.8209 58.6401 92.8597 58.6556Z" fill="#333333" fill-opacity="0.7"/>
<path d="M102.419 49.9613C102.437 49.9639 102.457 49.9639 102.476 49.9665C102.501 49.9665 102.525 49.9743 102.543 49.9976C102.494 49.9924 102.445 49.982 102.401 49.9587C102.403 49.9587 102.406 49.9587 102.411 49.9587C102.413 49.9587 102.416 49.9587 102.419 49.9587V49.9613Z" fill="#333333" fill-opacity="0.7"/>
<path d="M81.6675 61.9767C81.6675 61.9767 81.6753 61.9922 81.6779 62H80.9169C80.9169 62 80.9246 61.987 80.9298 61.9767C80.9919 61.9767 81.0515 61.9767 81.1136 61.9767C81.2974 61.9767 81.4811 61.9767 81.6649 61.9767H81.6675Z" fill="#333333"/>
<path d="M104.495 50.5773C104.394 50.611 104.29 50.6446 104.189 50.6757C103.985 50.7404 103.78 50.8025 103.576 50.8595C102.641 51.1261 101.691 51.3383 100.736 51.5169C100.327 51.592 99.9157 51.6619 99.5041 51.7266C98.0883 51.9492 96.6646 52.1071 95.2333 52.2184C95.0288 52.2339 94.8243 52.2494 94.6198 52.2624C94.3506 52.2805 94.0814 52.2986 93.8097 52.3141C93.7657 52.3141 93.7242 52.3193 93.6802 52.3219C93.9727 51.8741 94.2574 51.4211 94.5344 50.9604C94.933 50.2952 95.3109 49.6196 95.6733 48.9363C96.3618 48.9958 97.0503 49.0657 97.7388 49.1511C97.7906 49.1563 97.8398 49.1666 97.8915 49.1744C98.1996 49.1977 98.505 49.2443 98.8078 49.2883C99.1987 49.3452 99.5895 49.4074 99.9804 49.4747C100.506 49.5627 101.031 49.661 101.554 49.7749C101.836 49.837 102.118 49.8992 102.401 49.9613C102.445 49.9846 102.494 49.9949 102.543 50.0001C103.146 50.1554 103.746 50.3159 104.337 50.5126C104.391 50.5307 104.453 50.5359 104.495 50.5825V50.5773Z" fill="#333333" fill-opacity="0.5"/>
<path d="M84.463 55.0137C84.7063 55.0318 84.9496 55.0525 85.1929 55.068C84.9496 55.0525 84.7063 55.0318 84.463 55.0137Z" fill="#333333" fill-opacity="0.1"/>
<path d="M76.6849 60.4443C76.6668 60.4443 76.6512 60.4391 76.6383 60.4236C76.6383 60.4236 76.6409 60.4236 76.6435 60.4236C76.6435 60.4236 76.6487 60.4236 76.6512 60.4236C76.6512 60.4236 76.6564 60.4236 76.659 60.4236H76.6642C76.6642 60.4236 76.6694 60.4262 76.672 60.4288H76.6745C76.6745 60.4288 76.6797 60.4365 76.6823 60.4391L76.6849 60.4443Z" fill="#333333"/>
<path d="M76.6383 60.4235C76.6201 60.4235 76.602 60.421 76.5917 60.4028C76.5917 60.4028 76.602 60.4028 76.6046 60.4028C76.6046 60.4028 76.6279 60.4106 76.6357 60.4235H76.6383Z" fill="#333333"/>
<path d="M76.589 60.4002L76.5865 60.3977L76.589 60.4002Z" fill="#333333"/>
<path d="M76.5891 60.4004C76.5684 60.4004 76.5503 60.4004 76.5399 60.3771C76.5606 60.3771 76.5762 60.3797 76.5865 60.3978L76.5891 60.4004Z" fill="#333333"/>
<path d="M76.5424 60.3769H76.5399V60.3744L76.5424 60.3769Z" fill="#333333"/>
<path d="M76.5424 60.3769L76.5399 60.3744H76.5424V60.3769Z" fill="#333333"/>
<path d="M76.5425 60.3744C76.5218 60.3744 76.5011 60.3796 76.4959 60.3537C76.5166 60.3485 76.5347 60.3537 76.5451 60.3744H76.5425Z" fill="#333333"/>
<path d="M76.3535 60.2554C76.3665 60.2631 76.382 60.2709 76.3975 60.2787C76.4079 60.2838 76.4208 60.289 76.4312 60.2942C76.4493 60.3045 76.4674 60.3149 76.4804 60.333C76.4856 60.3382 76.4881 60.346 76.4933 60.3537C76.4286 60.3486 76.3743 60.3227 76.3251 60.2813L76.3561 60.2554H76.3535Z" fill="#333333"/>
<path d="M80.7228 58.2027C80.671 58.2105 80.6166 58.2208 80.5649 58.226C80.3604 58.2545 80.1559 58.27 79.9514 58.2752C79.8815 58.2752 79.8142 58.2752 79.7444 58.2752C79.6745 58.2752 79.6072 58.2726 79.5373 58.27C79.5062 58.27 79.4778 58.2648 79.4493 58.2622C79.4208 58.2596 79.3898 58.2545 79.3613 58.2519C79.325 58.2493 79.294 58.2338 79.2655 58.2079C79.1853 58.1328 79.105 58.0578 79.03 57.9801C79.5942 58.0629 80.1585 58.1354 80.7228 58.2027Z" fill="#333333" fill-opacity="0.1"/>
<path d="M89.5983 48.6774C89.1919 48.6774 88.7856 48.6825 88.3818 48.6903C87.7062 49.7386 86.9763 50.7481 86.1817 51.711C86.0134 51.9129 85.8452 52.1122 85.6717 52.3089C85.2343 52.8058 84.7813 53.2847 84.3025 53.7428C83.8858 54.144 83.4535 54.5271 83.0005 54.8869C82.6485 55.169 82.2861 55.4382 81.9082 55.6867C81.212 56.1475 80.4846 56.5435 79.7003 56.8334C79.3017 56.9783 78.8953 57.0974 78.4786 57.1673C78.4553 57.1725 78.432 57.1802 78.4113 57.188C78.4113 57.1958 78.4139 57.2035 78.4165 57.2087C78.4165 57.2139 78.4165 57.2165 78.4217 57.2216C78.4527 57.2682 78.4812 57.3122 78.5123 57.3562C78.5744 57.4442 78.6391 57.5322 78.7064 57.6177C78.8073 57.7445 78.9161 57.8661 79.0274 57.9852C79.5916 58.068 80.1559 58.1405 80.7202 58.2078C80.8703 58.1845 81.0204 58.156 81.1705 58.1198C81.5148 58.037 81.8513 57.9309 82.1774 57.804C82.3405 57.7393 82.5036 57.672 82.664 57.5995C82.8245 57.5271 82.9824 57.4468 83.1377 57.3666C83.205 57.3303 83.2723 57.2941 83.3396 57.2579C83.8081 56.999 84.2585 56.7117 84.6882 56.4011C85.1204 56.0905 85.5346 55.754 85.9358 55.402C85.9927 55.3502 86.0496 55.3011 86.1066 55.2493C86.148 55.2105 86.1894 55.1716 86.2334 55.1328C86.4923 54.8973 86.7433 54.654 86.9892 54.4055C87.085 54.3097 87.1782 54.2113 87.274 54.113C87.582 53.7894 87.8848 53.4581 88.1773 53.119C88.3533 52.9146 88.5241 52.7101 88.695 52.5004C88.7157 52.4745 88.7364 52.4486 88.7571 52.4254C88.8736 52.2804 88.9875 52.1355 89.1014 51.9879C89.4586 51.5246 89.8054 51.0509 90.1367 50.5695C90.3153 50.3081 90.4913 50.0466 90.6647 49.78C90.7605 49.6299 90.8563 49.4798 90.9495 49.3296C91.0789 49.1226 91.2057 48.9155 91.3325 48.7058C90.7527 48.6929 90.1755 48.6851 89.5957 48.6851L89.5983 48.6774Z" fill="#333333" fill-opacity="0.1"/>
<path d="M74.143 59.3107C74.1249 59.3132 74.1094 59.3107 74.1016 59.29C74.1223 59.2848 74.1379 59.29 74.143 59.3107Z" fill="#333333"/>
<path d="M86.1584 48.7629C85.8685 48.7759 85.5786 48.7914 85.2887 48.8095C84.9703 49.2599 84.6416 49.7025 84.2999 50.1348C83.9634 50.5593 83.6191 50.976 83.2568 51.3798C83.0523 51.6102 82.8426 51.8353 82.633 52.0605C82.4828 52.2184 82.3301 52.3763 82.1748 52.529C81.551 53.1373 80.8988 53.7145 80.1973 54.2322C80.0808 54.3176 79.9643 54.403 79.8427 54.4859C79.4493 54.7602 79.0403 55.0139 78.6184 55.2417C78.313 55.4073 77.9972 55.5549 77.6762 55.6895C77.6762 55.705 77.6762 55.7205 77.6814 55.736C77.7254 55.8603 77.7746 55.9819 77.8263 56.101C77.8781 56.2227 77.9325 56.3391 77.9894 56.4582C78.1033 56.6937 78.2301 56.9215 78.3725 57.1441C78.3828 57.1622 78.3984 57.1726 78.4113 57.1855C78.4346 57.1778 78.4553 57.17 78.4786 57.1648C78.8979 57.0949 79.3043 56.9759 79.7003 56.8309C80.4846 56.5436 81.2145 56.145 81.9082 55.6843C82.2861 55.4332 82.6485 55.1666 83.0005 54.8845C83.4509 54.5247 83.8832 54.1416 84.3025 53.7404C84.7813 53.2823 85.2343 52.8034 85.6717 52.3064C85.8452 52.1097 86.0134 51.9104 86.1817 51.7085C86.9763 50.7482 87.7062 49.7362 88.3818 48.6879C87.6415 48.7008 86.8986 48.7241 86.1584 48.7603V48.7629Z" fill="#333333" fill-opacity="0.5"/>
<path d="M100.731 37.6095C100.754 37.6095 100.78 37.6095 100.765 37.5732C100.775 37.5732 100.788 37.5758 100.798 37.5784C100.791 37.5784 100.785 37.5784 100.783 37.5836C100.772 37.5914 100.772 37.6069 100.775 37.6224C100.759 37.6224 100.747 37.6224 100.731 37.6198C100.723 37.6198 100.713 37.6198 100.705 37.6198C100.687 37.6198 100.669 37.6172 100.651 37.6147C100.609 37.6095 100.568 37.6017 100.526 37.5914C100.596 37.5862 100.664 37.6121 100.731 37.6147V37.6095Z" fill="#333333" fill-opacity="0.5"/>
<path d="M79.5917 51.6543C79.6201 51.6594 79.6512 51.6646 79.6797 51.6698C79.1102 52.2185 78.5149 52.7336 77.8781 53.2047C77.6452 53.3755 77.4148 53.5489 77.1637 53.6939C77.1172 53.492 77.0964 53.2875 77.0732 53.0856C76.9929 52.4334 76.9644 51.7811 76.9619 51.1262C77.1197 51.165 77.2776 51.2013 77.4381 51.2375C77.9014 51.3436 78.3673 51.4368 78.8358 51.5248C79.0869 51.5714 79.3406 51.6154 79.5917 51.6568V51.6543Z" fill="#333333" fill-opacity="0.1"/>
<path d="M82.193 49.076C82.1257 49.0837 82.0584 49.0915 81.9911 49.0967C81.3207 49.9482 80.6037 50.761 79.8298 51.5246C79.7806 51.5738 79.7314 51.6203 79.6796 51.6695C79.7029 51.6721 79.7262 51.6773 79.7469 51.6825C79.7236 51.6799 79.7003 51.6747 79.677 51.6721C79.1076 52.2208 78.5123 52.7359 77.8755 53.207C77.6426 53.3779 77.4122 53.5513 77.1611 53.6962C77.1611 53.7247 77.1637 53.7506 77.1689 53.7791C77.1689 53.7868 77.1689 53.7946 77.1689 53.8024C77.1741 53.8334 77.1818 53.8645 77.187 53.8955C77.1922 53.9214 77.1948 53.9447 77.2 53.9706C77.2129 54.0327 77.2233 54.0974 77.2362 54.1595C77.3087 54.5193 77.3941 54.8739 77.5028 55.2234C77.552 55.3813 77.5908 55.5417 77.6685 55.6867C77.9894 55.5521 78.3052 55.4046 78.6106 55.2389C79.0351 55.0111 79.4415 54.7575 79.8349 54.4831C79.954 54.4003 80.0731 54.3174 80.1895 54.2294C80.891 53.7118 81.5433 53.1371 82.1671 52.5263C82.3224 52.3736 82.4751 52.2157 82.6252 52.0578C82.8375 51.8352 83.0445 51.6074 83.249 51.377C83.6114 50.9732 83.9556 50.5565 84.2921 50.132C84.6338 49.6998 84.9625 49.2571 85.2809 48.8068C84.2481 48.8689 83.2154 48.9569 82.1878 49.0708L82.193 49.076Z" fill="#333333" fill-opacity="0.7"/>
<path d="M79.7469 51.6802C79.7236 51.6776 79.7003 51.6724 79.677 51.6698C79.7003 51.6724 79.7236 51.6776 79.7443 51.6802H79.7469Z" fill="#333333" fill-opacity="0.1"/>
<path d="M79.6796 51.667C79.6511 51.6618 79.6227 51.6567 79.5916 51.6515L79.6796 51.667Z" fill="#333333" fill-opacity="0.7"/>
<path d="M78.8358 51.5221C79.0869 51.5687 79.3406 51.6127 79.5916 51.6541C79.3406 51.6127 79.0869 51.5687 78.8358 51.5221Z" fill="#333333" fill-opacity="0.7"/>
<path d="M81.5485 49.1589C81.696 49.1279 81.8436 49.1123 81.9911 49.0968C81.3207 49.9484 80.6037 50.7611 79.8298 51.5247C79.7806 51.5739 79.7314 51.6205 79.6797 51.6697L79.5917 51.6541C79.3406 51.6127 79.0869 51.5687 78.8358 51.5221C78.3673 51.4367 77.9014 51.3409 77.4381 51.2348C77.2802 51.1986 77.1223 51.1597 76.9619 51.1235C76.9619 50.8776 76.9644 50.6291 76.9722 50.3806C76.9774 50.2331 76.9826 50.0882 76.9903 49.9406C77.5287 49.8112 78.0697 49.6999 78.6158 49.5964C79.5451 49.4204 80.4795 49.278 81.4165 49.1615C81.432 49.1615 81.4475 49.1563 81.4605 49.1563C81.4786 49.1563 81.4941 49.1512 81.5122 49.1537C81.5226 49.1537 81.5329 49.1537 81.5433 49.1589H81.5485Z" fill="#333333" fill-opacity="0.5"/>
<path d="M98.1219 37.2523C98.6654 37.3196 99.2064 37.3843 99.7499 37.4516C99.7474 37.4568 99.7422 37.462 99.737 37.4672C99.4005 37.4257 99.0614 37.3869 98.7249 37.3429C98.6266 37.33 98.5282 37.3222 98.4299 37.3119C98.3315 37.3015 98.2332 37.2911 98.1374 37.2704C98.1322 37.2653 98.127 37.2575 98.1193 37.2523H98.1219Z" fill="#333333" fill-opacity="0.7"/>
<path d="M95.4636 38.9374C95.4843 38.8598 95.5024 38.7821 95.5232 38.7045C95.5024 38.7821 95.4843 38.8598 95.4636 38.9374Z" fill="#333333" fill-opacity="0.1"/>
<path d="M111.051 49.8345C111.051 49.089 111.051 48.3436 111.051 47.5955C111.002 47.3885 110.94 47.184 110.823 47.0028C110.637 46.7077 110.414 46.4463 110.137 46.2314C109.847 46.0063 109.55 45.794 109.229 45.6154C108.789 45.3695 108.33 45.1599 107.872 44.9528C107.789 44.9165 107.707 44.8984 107.624 44.8648C106.586 44.4584 105.517 44.153 104.435 43.8915C103.741 43.7233 103.045 43.5783 102.344 43.4463C101.557 43.2988 100.767 43.172 99.9751 43.0633C99.429 42.9882 98.8829 42.9209 98.3341 42.8588C98.0908 42.8329 97.8475 42.8044 97.6016 42.7811C96.9105 42.7138 96.222 42.6517 95.5309 42.6025C95.1219 42.5715 94.7155 42.5456 94.3066 42.5249C93.9597 42.5068 93.6129 42.4886 93.2661 42.4731C92.7199 42.4472 92.1738 42.4291 91.6276 42.4162C91.5888 42.4162 91.5474 42.4162 91.5085 42.4136C90.6466 42.3955 89.7821 42.3903 88.9201 42.3955C88.9072 42.3955 88.8917 42.3955 88.8787 42.3955C87.9909 42.4032 87.1031 42.4239 86.2153 42.4602C86.1609 42.4602 86.1092 42.4653 86.0574 42.4679C85.0065 42.5119 83.9582 42.5792 82.9125 42.6672C81.375 42.7967 79.8427 42.9727 78.3155 43.2134C78.2793 43.2186 78.2431 43.2237 78.2068 43.2315C78.1473 43.4386 78.0955 43.6482 78.0205 43.8501C77.9687 44.0572 77.9169 44.2643 77.8651 44.4713C77.7254 45.0201 77.5985 45.574 77.4872 46.1279L77.7202 46.0891C77.8211 46.071 77.9247 46.0554 78.0256 46.0373C78.1758 46.0114 78.3285 45.9881 78.4786 45.9648C79.0247 45.8794 79.5735 45.8044 80.1222 45.7345C80.671 45.6646 81.2197 45.6051 81.771 45.5481C82.1386 45.5119 82.5061 45.4782 82.8737 45.4472C83.4302 45.4006 83.9867 45.3617 84.5458 45.3255C85.0712 45.2945 85.5941 45.266 86.1195 45.2453C86.2541 45.2401 86.3887 45.2323 86.5233 45.2272C86.7226 45.2194 86.9245 45.2142 87.1264 45.2064C87.2558 45.2039 87.3852 45.1987 87.5147 45.1961C87.9883 45.1857 88.4594 45.178 88.9331 45.1728C89.1117 45.1728 89.2877 45.1728 89.4663 45.1702C89.7717 45.1702 90.0772 45.1702 90.38 45.1728C90.4913 45.1728 90.6 45.1728 90.7113 45.1754C90.8304 45.1754 90.9494 45.178 91.0685 45.1806C91.3921 45.1857 91.713 45.1935 92.0366 45.2039C92.3601 45.2142 92.6811 45.2246 93.0046 45.2375C93.059 45.2375 93.1107 45.2427 93.1651 45.2453C93.5119 45.2608 93.8562 45.2763 94.203 45.297C94.4697 45.3126 94.7337 45.3281 95.0003 45.3462C95.3989 45.3721 95.7975 45.4006 96.1961 45.4342C96.5637 45.4653 96.9286 45.4989 97.2962 45.5352C97.3091 45.5352 97.3221 45.5352 97.335 45.5378C97.599 45.5636 97.8604 45.5895 98.1245 45.6154C98.5464 45.6568 98.9657 45.7086 99.3876 45.7629C99.8069 45.8173 100.226 45.8794 100.646 45.9415C100.819 45.9674 100.995 45.9933 101.168 46.0218C101.689 46.1046 102.212 46.2004 102.729 46.3013C103.035 46.3609 103.337 46.423 103.643 46.4903C103.946 46.5576 104.249 46.6249 104.551 46.6999C105.01 46.8138 105.468 46.9329 105.918 47.0675C106.521 47.2461 107.117 47.4428 107.701 47.6758C107.849 47.7327 107.994 47.7948 108.139 47.857C108.359 47.9527 108.576 48.0563 108.791 48.1624C108.843 48.1883 108.897 48.2142 108.949 48.2426C108.99 48.2633 109.032 48.284 109.073 48.3047C109.128 48.3306 109.182 48.3591 109.236 48.3902C109.304 48.4264 109.371 48.4652 109.436 48.5092C109.679 48.6775 109.927 48.8354 110.153 49.0269C110.204 49.0709 110.256 49.1175 110.305 49.1641C110.365 49.2133 110.419 49.265 110.474 49.3194C110.562 49.4074 110.644 49.5032 110.717 49.6041C110.753 49.6533 110.787 49.7025 110.815 49.7568C110.841 49.8008 110.867 49.8474 110.89 49.894C110.914 49.9406 110.934 49.9898 110.955 50.039C110.976 50.0881 110.994 50.1373 111.009 50.1891C111.02 50.2253 111.033 50.2616 111.043 50.2978C111.043 50.2978 111.043 50.2978 111.043 50.303V50.2978C111.072 50.1477 111.053 49.995 111.056 49.8422L111.051 49.8345Z" fill="#333333" fill-opacity="0.1"/>
<path d="M111.059 47.3005C111.059 46.7362 111.059 46.1693 111.059 45.6051C111.059 45.3436 111.056 45.0822 111.053 44.8234C111.009 44.6758 110.978 44.5257 110.908 44.3833C110.738 44.0313 110.484 43.7466 110.189 43.4955C109.868 43.2186 109.511 42.9882 109.138 42.7837C108.597 42.4861 108.035 42.2324 107.458 42.0176C106.788 41.7691 106.107 41.5491 105.419 41.3627C104.89 41.2203 104.362 41.0883 103.829 40.9667C103.224 40.8295 102.613 40.7078 102.002 40.6017C101.365 40.4904 100.731 40.3843 100.089 40.2963C99.7862 40.2549 99.4834 40.2134 99.1805 40.1772C98.5024 40.0892 97.8216 40.0141 97.1409 39.9546C97.014 39.9443 96.8898 39.9235 96.763 39.9158C96.2479 39.877 95.7328 39.8381 95.2203 39.8019C95.1478 39.7967 95.0727 39.7915 95.0003 39.7864C94.656 39.7605 94.3143 39.7372 93.9701 39.7191C93.5223 39.6958 93.0771 39.6802 92.6293 39.6647C92.6241 39.6647 92.6215 39.6647 92.6164 39.6647C92.1505 39.6492 91.682 39.6311 91.216 39.6233C90.8045 39.6155 90.3929 39.6129 89.9814 39.6104C89.8002 39.6104 89.619 39.6104 89.4378 39.6104C88.7157 39.6104 87.9961 39.6207 87.2739 39.6414C87.2636 39.6414 87.2532 39.6414 87.2429 39.6414C86.3965 39.6673 85.5501 39.7009 84.7063 39.7553C84.0566 39.7967 83.4069 39.833 82.7572 39.8873C82.4958 39.9106 82.2318 39.9417 81.9703 39.9676C81.0566 40.0581 80.1455 40.1643 79.2344 40.2937C79.224 40.2937 79.2137 40.2963 79.2033 40.2989C78.841 41.2384 78.5122 42.1936 78.2249 43.1642C78.2172 43.1875 78.212 43.2134 78.2042 43.2367C78.2405 43.2315 78.2767 43.2237 78.3129 43.2186C79.8375 42.9778 81.3698 42.8018 82.9099 42.6724C83.9582 42.5844 85.0065 42.5197 86.0548 42.4731C86.1066 42.4731 86.1609 42.4679 86.2127 42.4653C87.1005 42.4291 87.9883 42.4084 88.8761 42.4006C88.8891 42.4006 88.9046 42.4006 88.9176 42.4006C89.7821 42.3929 90.644 42.4006 91.5059 42.4188C91.5448 42.4188 91.5836 42.4188 91.625 42.4213C92.1712 42.4343 92.7173 42.4524 93.2635 42.4783C93.6103 42.4938 93.9571 42.5119 94.304 42.5301C94.713 42.5533 95.1193 42.5792 95.5283 42.6077C96.2194 42.6569 96.9105 42.719 97.599 42.7863C97.8423 42.8096 98.0856 42.8355 98.3315 42.864C98.8803 42.9261 99.4264 42.9934 99.9726 43.0684C100.765 43.1771 101.554 43.304 102.341 43.4515C103.042 43.5835 103.739 43.7259 104.432 43.8967C105.514 44.1607 106.583 44.4662 107.621 44.87C107.704 44.901 107.787 44.9217 107.87 44.958C108.328 45.165 108.786 45.3721 109.226 45.6206C109.547 45.7992 109.842 46.0114 110.135 46.2366C110.412 46.4515 110.634 46.7155 110.82 47.008C110.937 47.1917 111.002 47.3936 111.048 47.6007C111.066 47.5023 111.056 47.404 111.056 47.3056L111.059 47.3005Z" fill="#333333" fill-opacity="0.5"/>
<path d="M95.0417 25.9411C95.417 26.5287 95.6888 27.1628 95.8959 27.828C95.9606 28.0351 96.0175 28.2422 96.0693 28.4492C96.1547 28.7961 96.222 29.1481 96.2764 29.5027C96.2919 29.6062 96.3074 29.7098 96.3204 29.8133C96.3463 30.0204 96.3696 30.23 96.3877 30.4397C96.3954 30.5432 96.4058 30.6494 96.411 30.7529C96.4498 31.3223 96.4653 31.8918 96.4498 32.4612C96.4343 33.0592 96.398 33.6545 96.3385 34.2498C96.279 34.8426 96.1961 35.4301 96.0978 36.0151C96.0382 36.3671 95.9735 36.7165 95.9037 37.066C95.3394 37.022 94.7751 36.9831 94.2108 36.9547C93.9391 36.9417 93.6673 36.9288 93.3955 36.9133C93.5793 36.1238 93.7346 35.3266 93.8562 34.5242C93.9908 33.6338 94.084 32.7408 94.1203 31.8452C94.1487 31.0816 94.1461 30.3181 94.084 29.5545C94.0322 28.9177 93.9468 28.2888 93.8096 27.665C93.6569 26.9635 93.4395 26.2828 93.1289 25.6331C93.0072 25.3742 92.8623 25.1283 92.7173 24.885C92.8364 24.8462 92.9607 24.8436 93.0797 24.8307C93.1444 24.8229 93.2066 24.8177 93.2713 24.8151C93.3256 24.8125 93.38 24.81 93.4343 24.8074C93.5223 24.8074 93.6103 24.8074 93.6983 24.8074C93.7605 24.8074 93.8226 24.8125 93.8847 24.8151C93.9313 24.8151 93.9805 24.8203 94.0271 24.8229C94.0348 24.8229 94.0426 24.8229 94.0504 24.8255C94.0659 24.8281 94.0788 24.8333 94.0918 24.8384C94.1047 24.8436 94.1177 24.8514 94.1306 24.8591C94.1487 24.8695 94.1668 24.885 94.1824 24.9006C94.2238 24.9394 94.2652 24.9782 94.304 25.017C94.3843 25.0973 94.4619 25.1775 94.537 25.2629C94.7233 25.4752 94.8916 25.7004 95.0443 25.9385L95.0417 25.9411Z" fill="#333333" fill-opacity="0.1"/>
<path d="M93.8044 27.6676C93.9416 28.2914 94.027 28.9204 94.0788 29.5571C94.1409 30.3207 94.1461 31.0843 94.115 31.8479C94.0814 32.746 93.9856 33.639 93.851 34.5269C93.7294 35.3318 93.574 36.1265 93.3903 36.9159C93.1832 36.9056 92.9787 36.8952 92.7716 36.8875C92.3006 36.8693 91.8295 36.859 91.3584 36.8486C91.1824 36.846 91.0064 36.8409 90.8329 36.8383C91.0038 36.1912 91.1565 35.5389 91.2859 34.8815C91.3843 34.3897 91.4697 33.8953 91.5448 33.3983C91.5939 33.067 91.6379 32.7331 91.6742 32.3992C91.713 32.0498 91.7441 31.7003 91.7674 31.3483C91.7907 30.973 91.8062 30.5977 91.8139 30.2224C91.8217 29.7202 91.8062 29.2181 91.7699 28.7159C91.7466 28.3846 91.713 28.0559 91.6716 27.7246C91.6146 27.2742 91.5318 26.8264 91.4257 26.3864C91.3403 26.0318 91.2419 25.6823 91.1125 25.3407C91.2031 25.2837 91.3066 25.2552 91.405 25.219C91.6069 25.1439 91.8114 25.0792 92.0158 25.0223C92.2229 24.9653 92.4326 24.9188 92.6448 24.8825C92.6603 24.8799 92.6733 24.8773 92.6888 24.8748C92.6966 24.8748 92.7069 24.8748 92.7147 24.8773C92.8597 25.1232 93.0046 25.3691 93.1263 25.6254C93.4369 26.2751 93.6543 26.9558 93.807 27.6573L93.8044 27.6676Z" fill="#333333" fill-opacity="0.5"/>
<path d="M99.7267 26.5131C99.7267 26.5131 99.7215 26.5079 99.7215 26.5053C99.7215 26.5053 99.7215 26.5027 99.7215 26.5001L99.7293 26.5053V26.5131H99.7267Z" fill="#333333"/>
<path d="M111.048 52.9769C111.048 52.9406 111.053 52.907 111.053 52.8707C111.053 52.2884 111.053 51.7034 111.053 51.121C111.053 50.8699 111.048 50.6163 111.048 50.3652C111.048 50.3497 111.056 50.3341 111.053 50.3186C111.053 50.3186 111.043 50.3005 111.041 50.2927C111.03 50.2565 111.017 50.2202 111.007 50.184C110.991 50.1322 110.973 50.0831 110.953 50.0339C110.932 49.9847 110.911 49.9355 110.888 49.8889C110.865 49.8423 110.839 49.7957 110.813 49.7517C110.782 49.7 110.748 49.6482 110.714 49.599C110.642 49.4981 110.562 49.4049 110.471 49.3143C110.417 49.2599 110.362 49.2082 110.303 49.159C110.254 49.1098 110.204 49.0658 110.15 49.0218C109.925 48.8303 109.676 48.6724 109.433 48.5041C109.368 48.4601 109.304 48.4213 109.234 48.3851C109.179 48.3566 109.128 48.3281 109.071 48.2997C109.029 48.2789 108.988 48.2582 108.947 48.2375C108.895 48.2116 108.84 48.1858 108.789 48.1573C108.574 48.0512 108.356 47.9476 108.136 47.8519C107.991 47.7897 107.846 47.7302 107.699 47.6707C107.114 47.4377 106.519 47.2384 105.916 47.0624C105.463 46.9278 105.007 46.8087 104.549 46.6949C104.246 46.6198 103.946 46.5499 103.64 46.4852C103.337 46.4205 103.032 46.3558 102.727 46.2962C102.209 46.1927 101.686 46.0995 101.166 46.0167C100.992 45.9882 100.819 45.9623 100.643 45.9365C100.224 45.8743 99.8043 45.8122 99.385 45.7579C98.9657 45.7009 98.5438 45.6517 98.1219 45.6103C97.8579 45.5844 97.5964 45.5586 97.3324 45.5327C97.3195 45.5327 97.3065 45.5327 97.2936 45.5301C96.926 45.4938 96.5611 45.4602 96.1935 45.4291C95.7949 45.3981 95.3963 45.3696 94.9977 45.3411C94.7311 45.323 94.4671 45.3075 94.2005 45.2919C93.8536 45.2738 93.5094 45.2557 93.1625 45.2402C93.1082 45.2402 93.0564 45.235 93.002 45.2324C92.6785 45.2195 92.3575 45.2065 92.034 45.1988C91.7104 45.1884 91.3895 45.1806 91.0659 45.1755C90.9469 45.1755 90.8278 45.1729 90.7087 45.1703C90.5974 45.1703 90.4887 45.1703 90.3774 45.1677C90.072 45.1677 89.7666 45.1651 89.4637 45.1651C89.2851 45.1651 89.1065 45.1651 88.9305 45.1677C88.4568 45.1703 87.9857 45.1781 87.5121 45.191C87.3827 45.1936 87.2532 45.1962 87.1238 45.2014C86.9219 45.2065 86.7226 45.2143 86.5207 45.2221C86.3861 45.2272 86.2515 45.2324 86.1169 45.2402C85.5915 45.2635 85.0686 45.2894 84.5432 45.3204C83.9867 45.3541 83.4276 45.3955 82.8711 45.4421C82.5035 45.4731 82.136 45.5068 81.7684 45.543C81.2171 45.5974 80.6684 45.6595 80.1196 45.7294C79.5709 45.7993 79.0222 45.8743 78.476 45.9597C78.3233 45.983 78.1732 46.0089 78.023 46.0322C77.9221 46.0478 77.8186 46.0659 77.7176 46.084L77.4847 46.1228C77.596 45.5663 77.7228 45.015 77.8626 44.4662C77.9143 44.2592 77.9661 44.0521 78.0179 43.845C78.0929 43.6431 78.1447 43.4335 78.2042 43.2264C78.212 43.2031 78.2172 43.1772 78.2249 43.1539C78.5122 42.1859 78.841 41.2308 79.2033 40.2886C79.4337 39.6907 79.6796 39.1005 79.9385 38.5155C80.1119 38.1221 80.2931 37.7339 80.4794 37.3456C81.098 36.0695 81.7814 34.8297 82.5424 33.6261C83.2516 32.5001 84.0255 31.4208 84.8719 30.3932C84.89 30.3725 84.903 30.3492 84.9185 30.3259C85.1722 30.0334 85.4232 29.7383 85.6847 29.4536C86.5337 28.514 87.4448 27.6469 88.4568 26.8833C88.7053 26.697 88.9642 26.5184 89.2178 26.3372C89.2411 26.3217 89.2696 26.3191 89.2981 26.3165C89.311 26.2802 89.3447 26.2647 89.3731 26.244C89.896 25.9101 90.437 25.6124 91.009 25.3743C91.0297 25.3665 91.0478 25.3562 91.0711 25.3484C91.0763 25.3484 91.084 25.3458 91.0918 25.3432C91.0996 25.3432 91.1048 25.3432 91.1125 25.3432C91.2031 25.2863 91.3067 25.2578 91.405 25.2216C91.6069 25.1465 91.8114 25.0818 92.0159 25.0249C92.2229 24.9679 92.4326 24.9213 92.6448 24.8851C92.6604 24.8825 92.6733 24.8799 92.6888 24.8773C92.6966 24.8773 92.707 24.8773 92.7147 24.8799C92.8338 24.8411 92.958 24.8385 93.0771 24.8256C93.1418 24.8178 93.2039 24.8126 93.2686 24.81C93.323 24.8074 93.3774 24.8049 93.4317 24.8023C93.5197 24.8023 93.6077 24.8023 93.6957 24.8023C93.7579 24.8023 93.82 24.8074 93.8821 24.81C93.9287 24.81 93.9779 24.8152 94.0245 24.8178C94.0322 24.8178 94.04 24.8178 94.0478 24.8204C94.0633 24.823 94.0762 24.8282 94.0892 24.8333C94.1021 24.8385 94.1151 24.8463 94.128 24.854C94.1461 24.8644 94.1642 24.8799 94.1798 24.8955C94.2212 24.9343 94.2626 24.9731 94.3014 25.0119C94.3817 25.0922 94.4593 25.1724 94.5344 25.2578C94.7207 25.4701 94.889 25.6953 95.0417 25.9334C95.417 26.521 95.6888 27.1551 95.8959 27.8203C95.9606 28.0274 96.0175 28.2345 96.0693 28.4415C96.1547 28.7884 96.222 29.1404 96.2764 29.495C96.2919 29.5986 96.3074 29.7021 96.3204 29.8056C96.3462 30.0127 96.3695 30.2224 96.3877 30.432C96.3954 30.5355 96.4058 30.6417 96.4109 30.7452C96.4498 31.3147 96.4653 31.8841 96.4498 32.4535C96.4342 33.0515 96.398 33.6468 96.3385 34.2421C96.2789 34.8349 96.1961 35.4224 96.0978 36.0074C96.0382 36.3594 95.9735 36.7089 95.9036 37.0583C95.9942 37.066 96.0848 37.0712 96.178 37.079C96.8329 37.1333 97.4877 37.1981 98.14 37.2602C98.1348 37.255 98.1296 37.2472 98.1219 37.2421C98.6654 37.3094 99.2064 37.3741 99.75 37.4414C99.7474 37.4465 99.7422 37.4517 99.737 37.4569C99.7707 37.4621 99.8017 37.4673 99.8354 37.4698C99.9441 36.934 100.042 36.3957 100.125 35.8547C100.2 35.3707 100.262 34.884 100.314 34.3948C100.363 33.9393 100.405 33.4811 100.426 33.023C100.436 32.803 100.449 32.5804 100.462 32.3604C100.462 32.3319 100.449 32.2931 100.493 32.2801C100.493 31.8686 100.493 31.457 100.49 31.0455C100.467 31.0377 100.467 31.017 100.464 30.9963C100.459 30.9135 100.449 30.8306 100.446 30.7478C100.431 30.1499 100.374 29.5571 100.294 28.9644C100.206 28.3095 100.074 27.6624 99.8923 27.0283C99.8483 26.8704 99.8095 26.7073 99.7396 26.5572L99.7241 26.5028C99.7241 26.5028 99.7189 26.4977 99.7189 26.4951C99.7189 26.4951 99.7189 26.4925 99.7189 26.4899C99.7137 26.4718 99.7111 26.4511 99.706 26.433C99.442 25.6746 99.1003 24.955 98.6266 24.3001C98.1711 23.6711 97.6223 23.1405 96.9467 22.7497C96.6931 22.6021 96.4187 22.4986 96.1573 22.3666C96.134 22.3562 96.1029 22.3562 96.077 22.3511C96.0538 22.32 96.0175 22.3122 95.9865 22.2993C95.373 22.0275 94.7596 21.7557 94.1435 21.484C94.0633 21.4503 93.9934 21.396 93.9028 21.3856C93.8873 21.3804 93.8743 21.3752 93.8588 21.3701C93.7553 21.3364 93.6466 21.3131 93.5456 21.2639C93.5378 21.2614 93.5275 21.2588 93.5197 21.2536C93.5145 21.2536 93.5094 21.251 93.5068 21.2484H93.5042C93.5042 21.2484 93.4861 21.251 93.4783 21.2406C93.2816 21.1915 93.0823 21.1526 92.883 21.1242C92.738 21.1035 92.5931 21.0879 92.4481 21.0802C92.399 21.0776 92.3498 21.075 92.3032 21.075C92.1582 21.0724 92.0133 21.075 91.8683 21.0802C91.6768 21.0879 91.4852 21.1061 91.2963 21.1319C90.9624 21.1785 90.6337 21.2484 90.3075 21.339C90.2609 21.3519 90.2144 21.3649 90.1678 21.3804C89.5543 21.5616 88.9667 21.8101 88.4025 22.1C88.2135 22.1984 88.0272 22.2993 87.8434 22.4054C87.6751 22.5012 87.5095 22.6021 87.3438 22.7057C87.2895 22.7393 87.2351 22.7756 87.1808 22.8092C87.1264 22.8454 87.072 22.8791 87.0203 22.9153C86.9116 22.9878 86.8054 23.0603 86.7019 23.1379C86.6501 23.1768 86.5984 23.213 86.544 23.2518C86.544 23.2544 86.544 23.2596 86.544 23.2622C86.544 23.2648 86.5414 23.2674 86.5388 23.2699C86.5363 23.2725 86.5285 23.2751 86.5207 23.2751V23.2829C86.5207 23.2829 86.5181 23.2907 86.5155 23.2932C86.5155 23.2932 86.5104 23.2932 86.5052 23.2932C86.5052 23.2932 86.5026 23.2932 86.5 23.2932C86.2696 23.4537 86.0445 23.6246 85.8244 23.8006C85.7261 23.8782 85.6303 23.9585 85.5345 24.0387C85.519 24.0516 85.5035 24.0646 85.4905 24.0775C85.3922 24.1603 85.2938 24.2458 85.1981 24.3312C85.1981 24.3312 85.1981 24.3364 85.1981 24.3389C85.1981 24.3441 85.1955 24.3493 85.1903 24.3545C85.1903 24.3545 85.1903 24.3545 85.1851 24.3545C85.1825 24.3545 85.1799 24.3545 85.1748 24.3545C85.1722 24.3597 85.167 24.3648 85.1644 24.37C85.1592 24.3752 85.1541 24.3804 85.1489 24.3855C85.1411 24.3907 85.1308 24.3959 85.1204 24.3985C85.1204 24.4114 85.1178 24.4166 85.1126 24.4218C85.1049 24.427 85.0893 24.4218 85.079 24.4244C85.0428 24.4632 85.0039 24.4994 84.9677 24.5383C84.9677 24.5408 84.9625 24.5434 84.9599 24.546C84.9599 24.546 84.9599 24.5486 84.9599 24.5512C84.9599 24.5564 84.9573 24.559 84.9547 24.5641C84.9547 24.5641 84.947 24.5693 84.9392 24.5667C84.9056 24.5926 84.8719 24.6185 84.8383 24.647C84.8357 24.647 84.8331 24.6521 84.8305 24.6547C84.7088 24.7686 84.5898 24.8825 84.4707 24.9964C84.463 25.0042 84.4552 25.0119 84.4474 25.0197C84.4112 25.0559 84.3724 25.0922 84.3335 25.1258C84.2378 25.2138 84.1394 25.2992 84.0488 25.3924C83.9996 25.4416 83.9505 25.4934 83.9013 25.5425C83.6166 25.8299 83.337 26.1198 83.0652 26.42C82.7184 26.8031 82.3819 27.1913 82.0558 27.59C82.0092 27.6469 81.9626 27.7039 81.916 27.7608C81.9082 27.7686 81.9004 27.7789 81.8953 27.7893C81.8849 27.8022 81.8772 27.8177 81.8668 27.8307C81.8539 27.8488 81.8435 27.8695 81.8306 27.885C81.8202 27.898 81.8124 27.9109 81.8021 27.9239C81.7995 27.9265 81.7969 27.9316 81.7917 27.9342C81.7762 27.9497 81.7607 27.9653 81.7426 27.9782C81.7426 27.9808 81.7426 27.9834 81.74 27.986C81.74 27.9886 81.74 27.9912 81.7374 27.9938C81.7374 27.9938 81.7348 27.9963 81.7322 27.9989C81.7322 27.9989 81.727 28.0015 81.7219 28.0041C81.7141 28.0429 81.683 28.061 81.6571 28.0869C81.6571 28.0869 81.6546 28.0895 81.652 28.0921C81.6442 28.0999 81.639 28.1076 81.6313 28.1154C81.6313 28.1206 81.6261 28.1232 81.6261 28.1283C81.6261 28.1335 81.6209 28.1387 81.6209 28.1439C81.6209 28.1439 81.6209 28.1491 81.6209 28.1516C81.6209 28.1594 81.6183 28.162 81.6131 28.1672H81.6054L81.6002 28.1723C81.5407 28.2474 81.4785 28.3225 81.419 28.3975C81.4164 28.4027 81.4138 28.4053 81.4087 28.4105C81.4087 28.4208 81.4087 28.4286 81.4087 28.4364C81.4087 28.4415 81.4061 28.4467 81.4009 28.4519V28.4571C81.4009 28.4571 81.3879 28.4674 81.3828 28.47C81.3776 28.4752 81.3672 28.4778 81.3595 28.4804C81.3491 28.4907 81.3414 28.5011 81.331 28.5114C81.3284 28.514 81.3232 28.5192 81.3206 28.5218C81.3129 28.5295 81.3051 28.5399 81.2974 28.5477C81.1421 28.7547 80.9893 28.9618 80.834 29.1689C80.834 29.1741 80.8314 29.1792 80.8263 29.1844H80.8237C80.8237 29.1844 80.8159 29.1922 80.8133 29.1922C80.7072 29.3423 80.5985 29.4898 80.4924 29.6426C80.4717 29.6736 80.451 29.7021 80.4302 29.7331C80.2724 29.9635 80.1274 30.1991 79.9669 30.4294C79.8893 30.5433 79.8142 30.6598 79.7366 30.7763C79.6615 30.8927 79.5838 31.0092 79.501 31.1205C79.369 31.3017 79.2551 31.4984 79.1386 31.6926C79.0895 31.7754 79.0377 31.8582 78.9885 31.941C78.4294 32.8703 77.8859 33.8099 77.4225 34.7909C77.3967 34.8478 77.3656 34.9022 77.3319 34.9539C77.3009 35.0083 77.2672 35.06 77.2414 35.117C77.0835 35.4354 76.9282 35.7537 76.7806 36.0747C76.7237 36.1938 76.6693 36.3154 76.615 36.4345C76.5425 36.5924 76.4726 36.7503 76.4027 36.9082C76.3147 37.1101 76.2267 37.3094 76.1387 37.5138C76.1025 37.5993 76.0662 37.6847 76.03 37.7701C75.9834 37.8762 75.9394 37.9823 75.8954 38.0911C75.7401 38.469 75.59 38.8494 75.445 39.2325C75.4036 39.3438 75.3596 39.4577 75.3182 39.569C75.2172 39.8408 75.1215 40.1152 75.0257 40.387C75.0024 40.4517 74.9791 40.5164 74.9558 40.5837C74.9377 40.6354 74.9222 40.6872 74.904 40.7364C74.86 40.8658 74.816 40.9978 74.7772 41.1272C74.728 41.2877 74.6788 41.4456 74.6297 41.6061C74.5934 41.72 74.5598 41.8339 74.521 41.9477C74.4381 42.2014 74.3398 42.4551 74.3087 42.7243C74.3087 42.7372 74.2906 42.7501 74.2828 42.7631C74.2414 42.8744 74.2181 42.9883 74.1896 43.1048C74.1767 43.1591 74.1586 43.2135 74.1431 43.2678C74.1275 43.3222 74.1094 43.3765 74.0939 43.4309C74.0318 43.6664 73.9696 43.902 73.9127 44.1375C73.8609 44.3498 73.8091 44.5646 73.76 44.7794C73.7056 45.0202 73.6538 45.2609 73.6047 45.5042C73.5607 45.7164 73.5192 45.9261 73.4804 46.1409C73.4494 46.3092 73.4183 46.4774 73.3898 46.6457C73.3639 46.7932 73.3407 46.9433 73.3174 47.0909C73.2863 47.2798 73.2578 47.4688 73.2319 47.6577C73.2086 47.8286 73.1853 47.9968 73.1646 48.1676C73.1077 48.6336 73.0611 49.1021 73.0249 49.5731C73.0145 49.7077 73.0067 49.8423 72.999 49.9769C72.9912 50.1115 72.9835 50.2461 72.9783 50.3807C72.9679 50.6499 72.9602 50.9191 72.9524 51.1883C72.9524 51.2504 72.9524 51.3099 72.9524 51.3721C72.9524 51.3902 72.9524 51.4083 72.9524 51.429C72.9524 51.7733 72.9653 52.1175 72.9757 52.4592C72.9757 52.4747 72.9757 52.4903 72.9757 52.5058C72.9757 52.5679 72.9809 52.6274 72.986 52.6896C72.999 52.938 73.0197 53.1865 73.0456 53.4324C73.0637 53.6007 73.0818 53.7689 73.1051 53.9372C73.1077 53.9605 73.1129 53.9863 73.1155 54.0096C73.1621 54.3487 73.2138 54.6878 73.2811 55.0269C73.4054 55.6558 73.571 56.2745 73.7962 56.875C73.7988 56.8853 73.804 56.8957 73.8091 56.906C73.9774 57.3512 74.1741 57.7835 74.4148 58.1951C74.8109 58.8732 75.2949 59.4711 75.9109 59.95C75.9834 60.0069 76.0585 60.0613 76.1361 60.1156C76.2112 60.1674 76.2888 60.2114 76.3665 60.258C76.3794 60.2658 76.3949 60.2735 76.4105 60.2813C76.4208 60.2865 76.4338 60.2917 76.4441 60.2968C76.4622 60.3072 76.4804 60.3175 76.4933 60.3357C76.4985 60.3408 76.5011 60.3486 76.5062 60.3564C76.527 60.3512 76.5451 60.3564 76.5554 60.3771C76.5761 60.3771 76.5917 60.3822 76.602 60.4004C76.6072 60.4004 76.6124 60.4004 76.615 60.4004C76.615 60.4004 76.6383 60.4081 76.646 60.4211C76.646 60.4211 76.6486 60.4211 76.6512 60.4211C76.6512 60.4211 76.6564 60.4211 76.659 60.4211C76.659 60.4211 76.6641 60.4211 76.6667 60.4211H76.6719C76.6719 60.4211 76.6771 60.4237 76.6797 60.4262H76.6823C76.6823 60.4262 76.6874 60.434 76.69 60.4366C76.7159 60.4651 76.7521 60.4728 76.7832 60.4858C77.464 60.7886 78.1447 61.0889 78.8254 61.3891C79.1619 61.5393 79.4958 61.6946 79.853 61.7929C80.2076 61.8913 80.57 61.956 80.9402 61.9715C81.0023 61.9715 81.0618 61.9715 81.1239 61.9715C81.3077 61.9715 81.4915 61.9715 81.6753 61.9715C81.8539 61.9663 82.0299 61.943 82.2059 61.9172C82.9203 61.811 83.6088 61.5988 84.2714 61.3141C85.4854 60.7912 86.5828 60.0794 87.613 59.2537C87.8382 59.0725 88.0608 58.8862 88.2782 58.6972C89.0418 58.7101 89.8054 58.7153 90.569 58.7076C91.2963 58.6998 92.0262 58.6869 92.7536 58.6584C92.7898 58.6377 92.826 58.6377 92.8649 58.6532H92.8985C92.9425 58.6325 92.9865 58.6351 93.0331 58.648H93.0668C93.0926 58.6325 93.1211 58.6299 93.147 58.6351H93.1522C93.1522 58.6351 93.1703 58.6403 93.1781 58.6428H93.2117C93.2298 58.6325 93.2479 58.6273 93.2661 58.6273C93.2842 58.6273 93.3049 58.6299 93.323 58.6377C93.3334 58.6377 93.3437 58.6377 93.3567 58.6377C93.3696 58.6299 93.3799 58.6273 93.3929 58.6247C93.4162 58.6196 93.4421 58.6247 93.468 58.6325C93.4783 58.6325 93.4887 58.6325 93.499 58.6325C93.499 58.6325 93.5016 58.6325 93.5042 58.6325C93.5404 58.6144 93.5767 58.6144 93.6129 58.6273C93.6233 58.6273 93.6336 58.6273 93.644 58.6273C93.6802 58.604 93.719 58.6066 93.7553 58.6195H93.7863C93.8226 58.5963 93.8614 58.5988 93.9002 58.6144C93.9106 58.6144 93.9209 58.6144 93.9313 58.6144C93.939 58.6092 93.9468 58.6066 93.952 58.604C93.9649 58.5988 93.9753 58.5988 93.9882 58.5988C93.9986 58.5988 94.0115 58.6014 94.0219 58.6066C94.1875 58.5988 94.3532 58.5937 94.5188 58.5833C95.7897 58.5083 97.0606 58.4073 98.3264 58.2675C100.25 58.0553 102.162 57.7654 104.049 57.3357C105.336 57.0432 106.604 56.6912 107.831 56.1968C108.488 55.9302 109.128 55.6274 109.718 55.2288C110.075 54.988 110.404 54.7189 110.668 54.3746C110.833 54.1546 110.968 53.919 111.022 53.6447C111.043 53.624 111.051 53.5955 111.053 53.5696C111.066 53.3729 111.074 53.1762 111.053 52.9795L111.048 52.9769ZM86.1143 55.2417C86.0574 55.2935 86.0005 55.3427 85.9435 55.3944C85.5423 55.7464 85.1282 56.0829 84.6959 56.3935C84.2636 56.7041 83.8159 56.9915 83.3474 57.2503C83.2801 57.2865 83.2128 57.3228 83.1455 57.359C82.9902 57.4418 82.8323 57.5195 82.6718 57.592C82.5113 57.6644 82.3508 57.7343 82.1852 57.7964C81.8564 57.9233 81.5225 58.0294 81.1783 58.1122C81.0282 58.1485 80.878 58.1769 80.7279 58.2002C80.6761 58.208 80.6218 58.2183 80.57 58.2235C80.3655 58.252 80.1611 58.2675 79.9566 58.2727C79.8867 58.2727 79.8194 58.2727 79.7495 58.2727C79.6796 58.2727 79.6123 58.2701 79.5424 58.2675C79.5114 58.2675 79.4829 58.2624 79.4544 58.2598C79.426 58.2572 79.3949 58.252 79.3664 58.2494C79.3302 58.2468 79.2991 58.2313 79.2706 58.2054C79.1904 58.1303 79.1102 58.0553 79.0351 57.9776C78.9212 57.8612 78.8151 57.7369 78.7141 57.6101C78.6468 57.5247 78.5821 57.4367 78.52 57.3487C78.489 57.3047 78.4579 57.2581 78.4294 57.2141C78.4268 57.2115 78.4268 57.2063 78.4242 57.2011C78.4242 57.1933 78.4217 57.1856 78.4191 57.1804C78.4061 57.1675 78.3906 57.1571 78.3802 57.1416C78.2405 56.9164 78.1136 56.686 77.9972 56.4531C77.9402 56.334 77.8859 56.2175 77.8341 56.0959C77.7823 55.9742 77.7331 55.8526 77.6891 55.7309C77.684 55.7154 77.684 55.6998 77.684 55.6843C77.6063 55.5368 77.5649 55.3763 77.5183 55.221C77.4096 54.8716 77.3242 54.5144 77.2517 54.1572C77.2388 54.0925 77.2258 54.0303 77.2155 53.9682C77.2103 53.9423 77.2077 53.919 77.2025 53.8932C77.1973 53.8621 77.1896 53.831 77.1844 53.8C77.1844 53.7922 77.1844 53.7844 77.1844 53.7767C77.1818 53.7482 77.1792 53.7223 77.1766 53.6939C77.1301 53.492 77.1093 53.2875 77.086 53.0856C77.0058 52.4333 76.9773 51.781 76.9747 51.1262C76.9747 50.8803 76.9773 50.6318 76.9851 50.3833C76.9903 50.2358 76.9955 50.0908 77.0032 49.9433C77.5416 49.8139 78.0826 49.7026 78.6287 49.599C79.558 49.423 80.4924 49.2807 81.4294 49.1642C81.4449 49.1642 81.4604 49.159 81.4734 49.159C81.4915 49.159 81.507 49.1538 81.5251 49.1564C81.5355 49.1564 81.5458 49.1564 81.5562 49.1616C81.7037 49.1305 81.8513 49.115 81.9988 49.0995C82.0661 49.0917 82.1334 49.0865 82.2007 49.0788C83.2309 48.9649 84.2611 48.8769 85.2938 48.8147C85.5837 48.7966 85.8736 48.7811 86.1635 48.7682C86.9038 48.7319 87.6467 48.7086 88.3869 48.6957C88.7933 48.6879 89.1997 48.6827 89.6035 48.6827C90.1833 48.6827 90.7605 48.6905 91.3403 48.7034C91.2161 48.9131 91.0866 49.1202 90.9572 49.3272C90.864 49.4774 90.7683 49.6275 90.6725 49.7776C90.4991 50.0442 90.3231 50.3057 90.1445 50.5671C89.8131 51.0485 89.4663 51.5222 89.1091 51.9855C88.9952 52.1331 88.8813 52.278 88.7649 52.423C88.7441 52.4488 88.7234 52.4747 88.7027 52.498C88.5345 52.7077 88.3611 52.9147 88.1851 53.1166C87.8926 53.4557 87.5923 53.787 87.2817 54.1106C87.1885 54.2089 87.0928 54.3073 86.997 54.4031C86.7511 54.6516 86.4974 54.8923 86.2412 55.1304C86.1998 55.1692 86.1583 55.2081 86.1143 55.2469V55.2417ZM107.303 51.9855C107.303 51.9855 107.282 52.0062 107.259 52.0243C107.23 52.0476 107.202 52.0683 107.173 52.0891C107.145 52.1098 107.114 52.1305 107.085 52.1512C107.029 52.19 106.972 52.2288 106.915 52.2651L106.894 52.278C106.847 52.3091 106.798 52.3375 106.749 52.366C106.676 52.41 106.607 52.4514 106.532 52.4903C106.032 52.7672 105.509 52.9924 104.973 53.1891C104.469 53.3755 103.956 53.536 103.441 53.6809C102.701 53.888 101.95 54.0588 101.197 54.2089C100.462 54.3565 99.7267 54.4807 98.9864 54.5894C98.2461 54.6981 97.5032 54.7861 96.7604 54.8638C96.5171 54.8897 96.2738 54.913 96.0279 54.9363C95.5387 54.9803 95.0495 55.0191 94.5603 55.0528C94.3144 55.0683 94.071 55.0838 93.8252 55.0993C93.2764 55.1304 92.7277 55.1537 92.1789 55.1718C92.0806 55.1744 91.9796 55.1796 91.8787 55.1822C91.7881 55.1848 91.6949 55.1873 91.6043 55.1899C91.8295 54.913 92.0547 54.636 92.2592 54.3435C92.2876 54.3073 92.3187 54.2711 92.3472 54.2322C92.7872 53.6395 93.2091 53.0364 93.6155 52.4204C93.6388 52.3867 93.7501 52.2133 93.7837 52.1615C94.04 51.7655 94.2911 51.3643 94.5344 50.9579C94.933 50.2927 95.3109 49.6171 95.6733 48.9338C96.3618 48.9933 97.0503 49.0632 97.7388 49.1486C97.7906 49.1538 97.8397 49.1642 97.8915 49.1719C98.1995 49.1952 98.505 49.2418 98.8078 49.2858C99.1986 49.3428 99.5895 49.4049 99.9803 49.4722C100.506 49.5602 101.031 49.6586 101.554 49.7724C101.836 49.8346 102.118 49.8967 102.4 49.9588C102.403 49.9588 102.406 49.9588 102.411 49.9588C102.413 49.9588 102.416 49.9588 102.419 49.9588C102.437 49.9614 102.457 49.9614 102.476 49.964C102.501 49.964 102.525 49.9718 102.543 49.995C103.146 50.1504 103.746 50.3108 104.337 50.5075C104.391 50.5257 104.453 50.5308 104.494 50.5774C104.647 50.6033 104.79 50.668 104.932 50.7224C105.059 50.769 105.186 50.8182 105.312 50.8673C105.67 51.0097 106.022 51.1676 106.363 51.3462C106.498 51.4161 106.63 51.4911 106.759 51.5714C106.933 51.6775 107.101 51.7862 107.259 51.913C107.305 51.9493 107.318 51.9648 107.3 51.9855H107.303Z" fill="#333333" fill-opacity="0.7"/>
<path d="M111.061 42.1651C111.046 41.8389 110.921 41.5516 110.733 41.2902C110.466 40.9175 110.122 40.6276 109.746 40.3713C109.11 39.9365 108.413 39.6155 107.702 39.3282C107.305 39.1703 106.902 39.0254 106.498 38.8959C105.879 38.6966 105.253 38.5258 104.621 38.3731C103.832 38.179 103.04 38.0107 102.24 37.8658C101.753 37.7778 101.267 37.6923 100.778 37.6199C100.762 37.6199 100.749 37.6199 100.734 37.6173C100.726 37.6173 100.715 37.6173 100.708 37.6173C100.69 37.6173 100.671 37.6147 100.653 37.6121C100.612 37.6069 100.571 37.5992 100.529 37.5888C100.384 37.5655 100.239 37.5422 100.094 37.5189C100.009 37.5086 99.926 37.4956 99.8406 37.4827C99.8069 37.4775 99.7759 37.4723 99.7422 37.4697C99.4057 37.4283 99.0667 37.3895 98.7302 37.3455C98.6318 37.3326 98.5334 37.3248 98.4351 37.3144C98.3367 37.3041 98.2384 37.2937 98.1426 37.273C97.4877 37.2135 96.8355 37.1462 96.1806 37.0918C96.09 37.0841 95.9968 37.0763 95.9062 37.0711C95.342 37.0271 94.7777 36.9883 94.2134 36.9598C93.9416 36.9469 93.6699 36.9339 93.3981 36.9184C93.191 36.9081 92.9865 36.8977 92.7795 36.8899C92.3084 36.8718 91.8373 36.8615 91.3662 36.8511C91.1902 36.8485 91.0142 36.8433 90.8408 36.8408C90.5457 36.8356 90.8408 36.8408 90.8408 36.8408C90.8408 36.8408 91.1643 35.5414 91.2937 34.8839C91.3921 34.3921 91.4775 33.8978 91.5526 33.4008C91.6017 33.0695 91.6457 32.7356 91.682 32.4017C91.7208 32.0522 91.7519 31.7028 91.7752 31.3508C91.7985 30.9755 91.814 30.6002 91.8218 30.2248C91.8295 29.7227 91.814 29.2205 91.7778 28.7184C91.7545 28.3871 91.7208 28.0584 91.6794 27.727C91.6224 27.2767 91.5396 26.8289 91.4335 26.3888C91.3481 26.0342 91.2497 25.6848 91.1203 25.3431C91.1125 25.3431 91.1074 25.3431 91.0996 25.3431C91.0918 25.3431 91.0867 25.3431 91.0789 25.3483C91.0582 25.3561 91.0375 25.3664 91.0168 25.3742C90.4447 25.6149 89.9038 25.9126 89.3809 26.2439C89.3524 26.262 89.3188 26.2775 89.3058 26.3164C89.4301 27.1084 89.4896 27.9031 89.4974 28.7055C89.5077 29.8521 89.4223 30.991 89.267 32.1247C89.148 32.9789 88.9926 33.8279 88.8011 34.6665C88.6354 35.3964 88.4439 36.1186 88.2317 36.8356C87.7166 36.8408 87.2041 36.8563 86.689 36.8744C86.0056 36.8977 85.3223 36.9288 84.639 36.9728C84.0359 37.0116 83.4328 37.0504 82.8323 37.1022C82.0506 37.1695 81.2689 37.2471 80.4924 37.3429C80.306 37.7286 80.1248 38.1194 79.9514 38.5129C79.6926 39.0978 79.4467 39.6906 79.2163 40.2859C79.2267 40.2859 79.237 40.2833 79.2474 40.2807C80.1559 40.1513 81.067 40.0452 81.9833 39.9546C82.2447 39.9287 82.5061 39.8976 82.7702 39.8743C83.4173 39.82 84.0695 39.7838 84.7192 39.7423C85.563 39.688 86.4094 39.6543 87.2558 39.6284C87.2662 39.6284 87.2765 39.6284 87.2869 39.6284C88.0091 39.6077 88.7286 39.5974 89.4508 39.5974C89.632 39.5974 89.8132 39.5974 89.9944 39.5974C90.4059 39.5974 90.8175 39.6026 91.229 39.6103C91.6949 39.6181 92.1634 39.6362 92.6293 39.6517C92.6319 39.6517 92.6371 39.6517 92.6423 39.6517C93.0901 39.6673 93.5353 39.6828 93.9831 39.7061C94.3273 39.7216 94.6716 39.7475 95.0132 39.7734C95.0857 39.7786 95.1608 39.7838 95.2332 39.7889C95.7483 39.8252 96.2634 39.864 96.7759 39.9028C96.9028 39.9132 97.027 39.9313 97.1538 39.9416C97.8346 40.0012 98.5153 40.0788 99.1935 40.1642C99.4963 40.2031 99.7992 40.2419 100.102 40.2833C100.741 40.3713 101.378 40.4774 102.015 40.5887C102.626 40.6949 103.237 40.8165 103.842 40.9537C104.375 41.0754 104.903 41.2074 105.431 41.3497C106.123 41.5361 106.801 41.7561 107.471 42.0046C108.051 42.2194 108.61 42.4731 109.151 42.7708C109.524 42.9752 109.878 43.2056 110.202 43.4826C110.494 43.7362 110.751 44.0184 110.921 44.3704C110.989 44.5101 111.02 44.6629 111.066 44.8104C111.066 44.5179 111.072 44.2254 111.072 43.9329C111.072 43.4981 111.072 43.0632 111.072 42.6284C111.072 42.4705 111.077 42.3126 111.072 42.1547L111.061 42.1651Z" fill="#333333" fill-opacity="0.7"/>
<path d="M93.8614 21.3829C93.7579 21.3492 93.6492 21.3259 93.5482 21.2768C93.5482 21.2638 93.5482 21.2483 93.5508 21.2354C93.675 21.2742 93.7941 21.3259 93.9054 21.3984C93.8899 21.3932 93.8769 21.3881 93.8614 21.3829Z" fill="#333333"/>
<path d="M93.4965 21.256C93.4965 21.256 93.5043 21.2612 93.5094 21.2637H93.5068C93.5068 21.2637 93.4887 21.2663 93.481 21.256C93.4861 21.256 93.4913 21.256 93.4965 21.256Z" fill="#333333"/>
<path d="M80.8289 29.1791C80.8289 29.1791 80.8263 29.1894 80.8211 29.1946H80.8185C80.8185 29.1946 80.8108 29.2024 80.8082 29.2024V29.1972C80.8082 29.1972 80.8133 29.1843 80.8185 29.1817C80.8185 29.1817 80.8237 29.1817 80.8263 29.1791H80.8289Z" fill="#333333"/>
<path d="M81.3906 28.4647C81.3906 28.4647 81.3802 28.475 81.375 28.4776C81.3699 28.4828 81.3595 28.4854 81.3517 28.488C81.3517 28.4828 81.3517 28.4802 81.3517 28.475C81.3517 28.4724 81.3517 28.4672 81.3517 28.4647C81.3517 28.4647 81.3569 28.4517 81.3621 28.4465C81.3673 28.4414 81.3725 28.4362 81.3776 28.431C81.3828 28.4258 81.3906 28.4232 81.3983 28.4207C81.3983 28.431 81.3983 28.4388 81.3983 28.4465C81.3983 28.4517 81.3957 28.4569 81.3906 28.4621V28.4672V28.4647Z" fill="#333333"/>
<path d="M81.6054 28.1746H81.5976L81.5925 28.1798C81.5925 28.1798 81.6054 28.1617 81.6132 28.1539C81.6132 28.1539 81.6132 28.1591 81.6132 28.1617C81.6132 28.1695 81.6106 28.172 81.6054 28.1772V28.1746Z" fill="#333333"/>
<path d="M81.7141 28.0091C81.7141 28.0091 81.7193 27.9961 81.7244 27.9936C81.727 27.9936 81.7296 27.9936 81.7322 27.991C81.7322 27.9936 81.7322 27.9961 81.7296 27.9987C81.7296 28.0013 81.7296 28.0039 81.727 28.0065C81.727 28.0065 81.7244 28.0091 81.7218 28.0117C81.7218 28.0117 81.7167 28.0143 81.7115 28.0169C81.7115 28.0169 81.7115 28.0117 81.7115 28.0091H81.7141Z" fill="#333333"/>
<path d="M91.3869 20.2906C91.4128 20.2802 91.4309 20.2906 91.4438 20.3113C91.4206 20.3164 91.3973 20.3216 91.3869 20.2906Z" fill="#333333" fill-opacity="0.5"/>
<path d="M84.9288 24.577C84.9288 24.577 84.9444 24.564 84.9521 24.5563C84.9521 24.5563 84.9521 24.5589 84.9521 24.5615C84.9521 24.5666 84.9495 24.5692 84.947 24.5744C84.947 24.5744 84.9392 24.5796 84.9314 24.577H84.9288Z" fill="#333333"/>
<path d="M85.0893 24.4166C85.0893 24.4166 85.1049 24.4114 85.1152 24.4088C85.1152 24.4218 85.1126 24.4269 85.1074 24.4321C85.0997 24.4373 85.0841 24.4321 85.0738 24.4347C85.079 24.4269 85.0841 24.4218 85.0919 24.4166H85.0893Z" fill="#333333"/>
<path d="M85.1903 24.3493C85.1903 24.3493 85.1877 24.3597 85.1825 24.3649C85.1825 24.3649 85.1825 24.3649 85.1773 24.3649C85.1748 24.3649 85.1722 24.3649 85.167 24.3649C85.1748 24.3571 85.1825 24.3468 85.1877 24.339C85.1877 24.339 85.1877 24.3442 85.1877 24.3468L85.1903 24.3493Z" fill="#333333"/>
<path d="M86.5414 23.2801C86.5414 23.2801 86.5388 23.2853 86.5362 23.2879C86.5337 23.2905 86.5259 23.2931 86.5181 23.2931C86.5259 23.2853 86.5337 23.2775 86.5414 23.2698C86.5414 23.2724 86.5414 23.2775 86.5414 23.2801Z" fill="#333333"/>
<path d="M86.5181 23.2931V23.2983C86.5181 23.2983 86.5156 23.306 86.513 23.3086C86.5104 23.3112 86.5078 23.3086 86.5026 23.3086C86.5026 23.3086 86.5 23.3086 86.4974 23.3086C86.5052 23.3034 86.513 23.3009 86.5207 23.2957L86.5181 23.2931Z" fill="#333333"/>
<path d="M93.543 21.2277C92.87 20.9275 92.1945 20.6298 91.5215 20.327C91.4956 20.314 91.4671 20.327 91.4438 20.3088C91.4205 20.314 91.3972 20.3192 91.3869 20.2881C91.3584 20.3011 91.3325 20.2881 91.3066 20.2804C90.7165 20.1018 90.1134 20.0474 89.4999 20.0811C88.6872 20.1225 87.9055 20.3218 87.1497 20.6143C86.9116 20.7049 86.6786 20.8058 86.4482 20.9145C86.3913 20.943 86.3343 20.9689 86.2774 20.9974C86.2101 21.031 86.1454 21.0647 86.0781 21.0983C85.9901 21.1423 85.9021 21.1889 85.8141 21.2381C85.3533 21.4891 84.9107 21.7687 84.4785 22.0689C84.3879 22.1311 84.2999 22.1958 84.2093 22.2579L84.1575 22.2967C83.9453 22.452 83.7382 22.6099 83.5311 22.773C83.0186 23.1794 82.5268 23.6142 82.0532 24.0672C80.7331 25.3277 79.5605 26.7177 78.4864 28.1931C78.4579 28.2319 78.432 28.2707 78.4035 28.3096C78.4035 28.3096 78.4035 28.3199 78.3984 28.3225C78.3958 28.3251 78.3906 28.3277 78.3854 28.3277C78.2896 28.4649 78.1939 28.602 78.0981 28.7392C77.9376 28.967 77.7797 29.1974 77.6244 29.4303C77.4769 29.6503 77.3319 29.8755 77.187 30.0981C77.0731 30.2767 76.9618 30.4553 76.8505 30.6339C76.7521 30.7944 76.6538 30.9549 76.558 31.1154C76.4208 31.3431 76.2862 31.5735 76.1542 31.8039C76.0869 31.9204 76.0222 32.0342 75.9575 32.1507C75.9497 32.1637 75.942 32.1766 75.9316 32.1895C75.9316 32.2051 75.9264 32.218 75.9213 32.2284C75.9161 32.2361 75.9109 32.2465 75.9057 32.2543C75.8436 32.363 75.7841 32.4743 75.7245 32.583C75.4994 32.9971 75.2768 33.4138 75.0645 33.8332C74.9739 34.0118 74.8859 34.1878 74.7979 34.3664C74.3268 35.3318 73.8894 36.3103 73.4882 37.3042C73.2733 37.8322 73.0715 38.3628 72.8773 38.8986C72.7764 39.1834 72.6754 39.4681 72.5771 39.7528C72.3985 40.2808 72.2354 40.8141 72.0749 41.3473C72.0102 41.5673 71.9455 41.7873 71.8834 42.0073C71.8834 42.0125 71.8808 42.0177 71.8782 42.0228C71.7824 42.3697 71.6918 42.7165 71.6064 43.0659C71.5288 43.3791 71.4537 43.6949 71.3838 44.0107C71.3243 44.2799 71.2699 44.5517 71.2156 44.8235C71.2026 44.8882 71.1897 44.9529 71.1793 45.0176C71.1742 45.0435 71.169 45.0694 71.1638 45.0952C71.1638 45.1056 71.1612 45.116 71.1586 45.1237C71.1483 45.1755 71.1379 45.2273 71.1276 45.279C71.0499 45.7035 70.98 46.128 70.9205 46.5551C70.861 46.9666 70.8092 47.3808 70.7678 47.7949C70.7574 47.8881 70.7497 47.9813 70.7419 48.0719C70.7419 48.0797 70.7419 48.0848 70.7419 48.0926C70.7341 48.1625 70.7315 48.2143 70.7264 48.2634C70.7083 48.4938 70.6901 48.7242 70.6772 48.9545C70.6643 49.1849 70.6539 49.4179 70.6461 49.6482C70.6461 49.6793 70.6461 49.7078 70.6435 49.7388C70.6306 50.184 70.628 50.6292 70.641 51.0718C70.6539 51.4911 70.6772 51.9105 70.716 52.3272C70.7548 52.7439 70.8066 53.1607 70.8791 53.5748C70.9127 53.7767 70.9541 53.9786 70.9956 54.1779C71.1405 54.8535 71.3346 55.5161 71.6012 56.1554C71.6194 56.1994 71.6375 56.2434 71.6582 56.29C71.6763 56.334 71.697 56.378 71.7177 56.422C71.7643 56.5256 71.8135 56.6291 71.8627 56.73C71.9481 56.8983 72.0361 57.0639 72.1319 57.2244C72.3933 57.6645 72.7013 58.076 73.0663 58.4461C73.162 58.5445 73.2604 58.6377 73.3639 58.7257C73.5555 58.8939 73.76 59.0467 73.9774 59.1838C74.0188 59.2097 74.0654 59.2253 74.0965 59.2641C74.1016 59.2693 74.1042 59.277 74.1068 59.2822C74.1275 59.277 74.143 59.2822 74.1482 59.3029C74.2336 59.3236 74.3009 59.3806 74.3786 59.4142C74.7927 59.598 75.2069 59.7818 75.6184 59.9655C75.854 60.0691 76.0921 60.1726 76.3276 60.2761L76.3587 60.2503C76.2811 60.2037 76.2034 60.1571 76.1283 60.1079C76.0507 60.0535 75.9756 59.9992 75.9031 59.9422C75.2871 59.4634 74.8031 58.8655 74.4071 58.1873C74.1663 57.7758 73.9696 57.3435 73.8014 56.8983C73.7962 56.8879 73.7936 56.8776 73.7884 56.8672C73.5632 56.2667 73.3976 55.6481 73.2733 55.0191C73.206 54.6826 73.1543 54.3436 73.1077 54.0019C73.1051 53.9786 73.0999 53.9527 73.0973 53.9294C73.074 53.7612 73.0559 53.5929 73.0378 53.4247C73.0119 53.1762 72.9912 52.9303 72.9783 52.6818C72.9757 52.6197 72.9705 52.5602 72.9679 52.498C72.9679 52.4825 72.9679 52.467 72.9679 52.4514C72.955 52.1072 72.942 51.7655 72.9446 51.4213C72.9446 51.4031 72.9446 51.3824 72.9446 51.3643C72.9446 51.3022 72.9446 51.2427 72.9446 51.1805C72.9524 50.9114 72.9601 50.6422 72.9705 50.373C72.9757 50.2384 72.9834 50.1038 72.9912 49.9692C72.999 49.8346 73.0067 49.7 73.0171 49.5654C73.0533 49.0969 73.0999 48.6284 73.1569 48.1599C73.1776 47.9891 73.2009 47.8208 73.2242 47.65C73.25 47.461 73.2785 47.2721 73.3096 47.0831C73.3329 46.933 73.3588 46.7855 73.3821 46.6379C73.4105 46.4697 73.4416 46.3014 73.4727 46.1332C73.5115 45.9209 73.5555 45.7087 73.5969 45.4964C73.6461 45.2557 73.6978 45.0124 73.7522 44.7717C73.8014 44.5569 73.8531 44.3446 73.9049 44.1298C73.9619 43.8942 74.024 43.6587 74.0861 43.4231C74.1016 43.3688 74.1172 43.3144 74.1353 43.2601C74.1508 43.2057 74.1689 43.1514 74.1819 43.097C74.2103 42.9831 74.2336 42.8666 74.2751 42.7553C74.2854 42.7424 74.2983 42.732 74.3009 42.7165C74.3346 42.4473 74.4304 42.1962 74.5132 41.94C74.5494 41.8261 74.5857 41.7122 74.6219 41.5983C74.6711 41.4379 74.7203 41.28 74.7694 41.1195C74.8108 40.9875 74.8523 40.8581 74.8963 40.7286C74.9144 40.6769 74.9299 40.6251 74.948 40.5759C74.9713 40.5112 74.9946 40.4439 75.0179 40.3792C75.1163 40.1074 75.212 39.8331 75.3104 39.5613C75.3518 39.45 75.3932 39.3361 75.4372 39.2248C75.5822 38.8417 75.7323 38.4612 75.8876 38.0833C75.9316 37.9746 75.9756 37.8685 76.0222 37.7623C76.0584 37.6769 76.0947 37.5915 76.1309 37.5061C76.2189 37.3042 76.3069 37.1023 76.3949 36.9004C76.4648 36.7425 76.5347 36.5846 76.6072 36.4267C76.6615 36.3051 76.7159 36.186 76.7728 36.0669C76.923 35.746 77.0757 35.425 77.2336 35.1092C77.262 35.0549 77.2931 35.0005 77.3242 34.9462C77.3552 34.8918 77.3863 34.8401 77.4148 34.7831C77.8781 33.8021 78.4216 32.8625 78.9807 31.9333C79.0299 31.8505 79.0817 31.7676 79.1309 31.6848C79.2473 31.4907 79.3586 31.294 79.4932 31.1128C79.5761 31.0015 79.6511 30.885 79.7288 30.7685C79.8038 30.652 79.8789 30.5356 79.9591 30.4217C80.117 30.1913 80.2646 29.9558 80.4225 29.7254C80.4432 29.6969 80.4639 29.6659 80.4846 29.6348C80.5907 29.4847 80.6994 29.3346 80.8056 29.1844V29.1792C80.8056 29.1792 80.8107 29.1663 80.8159 29.1637C80.8159 29.1637 80.8211 29.1637 80.8237 29.1611C80.9764 28.9541 81.1317 28.747 81.287 28.5399C81.2948 28.5296 81.3025 28.5218 81.3103 28.514C81.3129 28.5114 81.3181 28.5063 81.3206 28.5037C81.331 28.4933 81.3388 28.483 81.3491 28.4726C81.3491 28.4674 81.3491 28.4649 81.3491 28.4597C81.3491 28.4571 81.3491 28.4519 81.3491 28.4493C81.3491 28.4493 81.3543 28.4364 81.3595 28.4312C81.3646 28.426 81.3698 28.4209 81.375 28.4157C81.3802 28.4105 81.3879 28.4079 81.3957 28.4053C81.3983 28.4027 81.4035 28.3976 81.4061 28.3924C81.4656 28.3173 81.5277 28.2423 81.5872 28.1672C81.595 28.1594 81.6002 28.1491 81.608 28.1413C81.608 28.1361 81.6105 28.131 81.6131 28.1258C81.6131 28.1206 81.6183 28.118 81.6183 28.1128C81.6235 28.1051 81.6312 28.0973 81.639 28.0895C81.639 28.0895 81.6416 28.0869 81.6442 28.0844C81.6701 28.0611 81.7037 28.0404 81.7089 28.0015C81.7089 28.0015 81.7089 27.9964 81.7089 27.9938C81.7089 27.986 81.7141 27.9808 81.7193 27.9782C81.7218 27.9782 81.7244 27.9782 81.727 27.9756C81.7451 27.9627 81.7607 27.9472 81.7762 27.9316C81.7788 27.9291 81.7814 27.9239 81.7865 27.9213C81.7969 27.9084 81.8073 27.8954 81.815 27.8825C81.828 27.8643 81.8409 27.8462 81.8513 27.8281C81.8616 27.8152 81.8694 27.7996 81.8797 27.7867C81.8875 27.7763 81.8927 27.7686 81.9004 27.7582C81.947 27.7013 81.9936 27.6443 82.0402 27.5874C82.3663 27.1888 82.7028 26.7979 83.0497 26.4174C83.3215 26.1172 83.601 25.8273 83.8857 25.54C83.9349 25.4908 83.9841 25.439 84.0333 25.3898C84.1265 25.2967 84.2222 25.2112 84.318 25.1232C84.3568 25.0896 84.3931 25.0534 84.4319 25.0171C84.4396 25.0094 84.4474 25.0016 84.4552 24.9938C84.5742 24.8799 84.6959 24.766 84.815 24.6522C84.815 24.6522 84.8201 24.647 84.8227 24.6444C84.8538 24.6159 84.89 24.59 84.9237 24.5642C84.9314 24.5564 84.9392 24.5512 84.947 24.5434C84.947 24.5434 84.9521 24.5383 84.9547 24.5357C84.991 24.4969 85.0298 24.4606 85.066 24.4218C85.0712 24.414 85.0764 24.4088 85.0842 24.4037C85.0919 24.3985 85.0997 24.3985 85.11 24.3959C85.1204 24.3959 85.1307 24.3907 85.1385 24.383C85.1437 24.3778 85.1489 24.3726 85.154 24.3674C85.1592 24.3623 85.1618 24.3571 85.1644 24.3519C85.1722 24.3441 85.1799 24.3338 85.1851 24.326C85.2809 24.2406 85.3792 24.1552 85.4776 24.0724C85.4931 24.0594 85.5061 24.0465 85.5216 24.0335C85.6174 23.9533 85.7131 23.8731 85.8115 23.7954C86.0315 23.6194 86.2567 23.4486 86.4871 23.2881C86.4948 23.2829 86.5026 23.2803 86.5104 23.2751C86.5104 23.2751 86.5259 23.257 86.5337 23.2493C86.5854 23.2104 86.6372 23.1716 86.6915 23.1354C86.7977 23.0603 86.9038 22.9852 87.0099 22.9128C87.0643 22.8765 87.1186 22.8403 87.1704 22.8066C87.2248 22.7704 87.2791 22.7368 87.3335 22.7031C87.4991 22.5996 87.6648 22.4986 87.833 22.4028C88.0168 22.2967 88.2032 22.1932 88.3921 22.0974C88.959 21.8049 89.5439 21.559 90.1574 21.3778C90.204 21.3649 90.2506 21.352 90.2972 21.3364C90.6233 21.2458 90.952 21.176 91.2859 21.1294C91.4749 21.1035 91.6664 21.0854 91.858 21.0776C92.0029 21.0698 92.1479 21.0698 92.2928 21.0724C92.342 21.0724 92.3886 21.075 92.4378 21.0776C92.5827 21.0854 92.7277 21.1009 92.8726 21.1216C93.0719 21.1501 93.2712 21.1863 93.4679 21.2381C93.4731 21.2381 93.4783 21.2381 93.4835 21.2381C93.4886 21.2381 93.4912 21.2433 93.4964 21.2458C93.5016 21.2458 93.5042 21.2484 93.5094 21.251C93.5171 21.2536 93.5275 21.2562 93.5352 21.2614C93.5352 21.2484 93.5352 21.2329 93.5378 21.22C93.5352 21.2174 93.5326 21.2148 93.5275 21.2122L93.543 21.2277Z" fill="#333333" fill-opacity="0.1"/>
<path d="M91.3869 20.2906C91.3766 20.2492 91.3377 20.244 91.3067 20.2311C90.7269 19.9723 90.1445 19.716 89.5621 19.4598C89.4068 19.3925 89.2567 19.3122 89.0962 19.2579C89.0781 19.2682 89.06 19.2682 89.0393 19.2605C88.6406 19.1284 88.2265 19.0637 87.8072 19.0379C87.4241 19.0146 87.041 19.0379 86.6605 19.0896C86.3473 19.1336 86.0393 19.1983 85.7339 19.2786C85.1411 19.4365 84.5717 19.6539 84.023 19.9257C83.8107 20.0292 83.6062 20.1483 83.3992 20.2596C83.3293 20.2958 83.2568 20.3295 83.1895 20.3683C82.5916 20.7229 82.0144 21.106 81.4656 21.5331C81.3285 21.6392 81.1861 21.7427 81.0593 21.8592C80.9764 21.9343 80.8962 22.0093 80.8056 22.074C80.7875 22.087 80.7719 22.0973 80.7512 22.1103C80.7357 22.1232 80.7202 22.1362 80.7072 22.1491C80.7021 22.1698 80.6943 22.1853 80.6839 22.1957C80.6788 22.2009 80.671 22.2034 80.6632 22.206C80.6581 22.206 80.6555 22.206 80.6503 22.206H80.6477C80.6477 22.206 80.6399 22.206 80.6348 22.2034C80.6296 22.2034 80.627 22.2086 80.6244 22.2112C80.5778 22.2449 80.5493 22.3044 80.5079 22.338C80.5002 22.3432 80.495 22.3484 80.4872 22.351C80.3733 22.4105 80.3034 22.5192 80.2025 22.5917C80.1041 22.6616 80.0239 22.7574 79.9333 22.8402C79.4881 23.2492 79.0662 23.684 78.6495 24.124C78.5226 24.2586 78.4062 24.4036 78.2845 24.5434C78.2146 24.6236 78.1344 24.6935 78.0645 24.7737C77.8755 24.9911 77.6918 25.2112 77.5054 25.4312C77.3682 25.5942 77.2362 25.7599 77.112 25.9333C77.0136 26.0705 76.8971 26.1922 76.7936 26.3267C76.4752 26.7331 76.175 27.1524 75.8747 27.5718C75.5771 27.9859 75.3053 28.413 75.0231 28.8375C74.7695 29.218 74.5365 29.6114 74.2958 29.9997C74.2078 30.1446 74.1276 30.2947 74.0396 30.4371C73.8842 30.6856 73.7419 30.9393 73.6073 31.1981C73.5219 31.299 73.4727 31.4207 73.408 31.5346C73.2734 31.7701 73.1466 32.0108 73.0301 32.2567C72.9938 32.3344 72.9395 32.4043 72.9007 32.4819C72.7919 32.7019 72.6832 32.922 72.5719 33.1394C72.2898 33.6855 72.0413 34.2498 71.7851 34.8089C71.5055 35.4146 71.2596 36.0332 71.0137 36.6544C70.8481 37.0737 70.6798 37.4956 70.5478 37.9279C70.5271 37.9978 70.4857 38.0625 70.4598 38.1324C70.333 38.5051 70.2036 38.8778 70.0819 39.2532C69.968 39.5974 69.8619 39.9443 69.7609 40.2937C69.6626 40.6276 69.5694 40.9641 69.4788 41.3006C69.3028 41.9528 69.1423 42.6103 69.0051 43.2703C68.9689 43.4463 68.9353 43.6224 68.899 43.7984C68.7825 44.3963 68.679 44.9994 68.5936 45.6025C68.5133 46.1771 68.4486 46.7543 68.3969 47.3315C68.3917 47.3859 68.3891 47.4376 68.3839 47.492C68.3839 47.5412 68.3839 47.5904 68.3839 47.6395C68.3839 47.5904 68.3839 47.5412 68.3839 47.492C68.358 47.8078 68.3399 48.1262 68.327 48.4445C68.3115 48.8095 68.3089 49.1719 68.3063 49.5368C68.3063 49.7102 68.3244 49.8837 68.3218 50.0571C68.3218 50.3237 68.3425 50.5877 68.358 50.8517C68.3632 50.9501 68.3684 51.0458 68.3787 51.1442C68.3787 51.1623 68.3813 51.1779 68.3839 51.196C68.415 51.4496 68.4357 51.7059 68.4719 51.9595C68.5056 52.2054 68.5392 52.4513 68.5858 52.6972C68.6505 53.0363 68.7127 53.378 68.8188 53.7093C68.8524 53.8128 68.8705 53.9215 68.899 54.0277C68.9611 54.2606 69.0362 54.4884 69.119 54.7136C69.2381 55.0371 69.3727 55.3529 69.5228 55.6635C69.7506 56.1398 70.0327 56.585 70.364 56.9966C70.6772 57.3874 71.0344 57.7317 71.446 58.0216C71.4641 58.0319 71.4796 58.0448 71.4978 58.0552C71.5262 58.0759 71.5573 58.094 71.5883 58.1121C71.6039 58.1225 71.622 58.1329 71.6401 58.1432C71.6971 58.1794 71.754 58.2157 71.8084 58.2545C71.8239 58.27 71.842 58.2804 71.8575 58.2933C71.8575 58.2959 71.8601 58.2985 71.8627 58.3011C71.8731 58.314 71.8912 58.3166 71.9067 58.3218C72.6134 58.635 73.3226 58.9482 74.0318 59.2614C74.0603 59.2743 74.0861 59.2925 74.1224 59.2847C74.1198 59.2769 74.1146 59.2717 74.112 59.2666C74.081 59.2277 74.0344 59.2122 73.993 59.1863C73.7755 59.0491 73.5711 58.8938 73.3795 58.7282C73.276 58.6402 73.1776 58.547 73.0818 58.4486C72.7169 58.0785 72.4089 57.6669 72.1474 57.2269C72.0517 57.0664 71.9611 56.9008 71.8782 56.7325C71.8265 56.6316 71.7799 56.5306 71.7307 56.4271C71.71 56.3831 71.6919 56.3391 71.6712 56.2951C71.6531 56.2511 71.6324 56.2071 71.6142 56.1605C71.3476 55.5212 71.1535 54.8585 71.0086 54.183C70.9645 53.9837 70.9257 53.7818 70.8921 53.5799C70.8196 53.1657 70.7678 52.749 70.729 52.3323C70.6902 51.9155 70.6669 51.4962 70.6539 51.0769C70.641 50.6317 70.6436 50.1865 70.6565 49.7439C70.6565 49.7128 70.6565 49.6844 70.6591 49.6533C70.6669 49.4229 70.6772 49.19 70.6902 48.9596C70.7031 48.7292 70.7212 48.4989 70.7394 48.2685C70.7445 48.2193 70.7497 48.1676 70.7549 48.0977C70.7549 48.0899 70.7549 48.0847 70.7549 48.077C70.7627 47.9838 70.773 47.8906 70.7808 47.8C70.8248 47.3859 70.8765 46.9743 70.9335 46.5602C70.9956 46.1331 71.0629 45.7086 71.1406 45.2841C71.1509 45.2323 71.1613 45.1806 71.1716 45.1288C71.1716 45.1184 71.1742 45.1081 71.1768 45.1003C71.182 45.0744 71.1871 45.0486 71.1923 45.0227C71.2053 44.958 71.2156 44.8933 71.2286 44.8285C71.2829 44.5568 71.3373 44.2876 71.3968 44.0158C71.4667 43.7 71.5418 43.3842 71.6194 43.071C71.7048 42.7216 71.7954 42.3748 71.8912 42.0279C71.8912 42.0227 71.8912 42.0176 71.8964 42.0124C71.9585 41.7924 72.0206 41.5724 72.0879 41.3523C72.2484 40.8165 72.4115 40.2859 72.5901 39.7579C72.6858 39.4732 72.7868 39.1884 72.8903 38.9037C73.0844 38.3679 73.2863 37.8373 73.5012 37.3093C73.9024 36.3153 74.3398 35.3369 74.8109 34.3715C74.8989 34.1929 74.9869 34.0143 75.0775 33.8382C75.2897 33.4189 75.5098 33.0022 75.7375 32.5881C75.7971 32.4768 75.8592 32.368 75.9187 32.2593C75.9239 32.2516 75.9291 32.2412 75.9343 32.2334C75.942 32.2205 75.9472 32.2102 75.9446 32.1946C75.9524 32.1817 75.9627 32.1687 75.9705 32.1558C76.0352 32.0393 76.1025 31.9254 76.1672 31.809C76.2992 31.5786 76.4338 31.3482 76.571 31.1204C76.6668 30.96 76.7651 30.7995 76.8635 30.639C76.9748 30.4604 77.0861 30.2818 77.2 30.1032C77.3423 29.878 77.4899 29.6554 77.6374 29.4354C77.7927 29.2024 77.9506 28.9747 78.1111 28.7443C78.2069 28.6071 78.3026 28.4699 78.3984 28.3327C78.3984 28.3302 78.3984 28.3276 78.3984 28.325C78.3984 28.325 78.3984 28.3224 78.401 28.3198C78.4036 28.3172 78.4088 28.3146 78.4139 28.3146C78.4424 28.2758 78.4683 28.237 78.4968 28.1982C79.5709 26.7228 80.7435 25.3328 82.0636 24.0723C82.5372 23.6193 83.029 23.1844 83.5415 22.7781C83.746 22.615 83.9557 22.4571 84.1679 22.3018L84.2197 22.263C84.3077 22.1983 84.3983 22.1362 84.4889 22.074C84.9211 21.7738 85.3663 21.4942 85.8245 21.2432C85.9125 21.1966 86.0005 21.15 86.0885 21.1034C86.1558 21.0697 86.2205 21.0361 86.2878 21.0024C86.3447 20.974 86.4017 20.9481 86.4586 20.9196C86.689 20.8109 86.922 20.7099 87.1601 20.6194C87.9185 20.3269 88.6976 20.1276 89.5103 20.0861C90.1238 20.0525 90.7269 20.1069 91.317 20.2855C91.3429 20.2932 91.3688 20.3062 91.3973 20.2932L91.3869 20.2906ZM68.3684 50.3988C68.3684 50.3988 68.3684 50.4246 68.3684 50.4376C68.3684 50.4246 68.3684 50.4117 68.3684 50.3988Z" fill="#333333" fill-opacity="0.5"/>
<path d="M78.3854 28.3146C78.3854 28.3146 78.3932 28.3094 78.3984 28.3094C78.3984 28.3146 78.3984 28.3198 78.3932 28.3224C78.3906 28.325 78.3854 28.3276 78.3802 28.3276C78.3802 28.325 78.3802 28.3224 78.3802 28.3198C78.3802 28.3198 78.3802 28.3172 78.3828 28.3146H78.3854Z" fill="#333333"/>
<path d="M80.6451 22.1646C80.6451 22.1646 80.6632 22.149 80.6761 22.149C80.6839 22.149 80.6943 22.149 80.7046 22.1516C80.6994 22.1723 80.6917 22.1879 80.6813 22.1982C80.6761 22.2034 80.6684 22.206 80.6606 22.2086C80.6554 22.2086 80.6528 22.2086 80.6477 22.2086H80.6451C80.6451 22.2086 80.6373 22.2086 80.6321 22.206C80.6347 22.1905 80.6399 22.1775 80.6477 22.1672L80.6451 22.1646Z" fill="#333333"/>
<path d="M88.9693 19.2034C88.4439 18.9678 87.9133 18.74 87.3878 18.4993C86.7873 18.2249 86.1635 18.0567 85.5035 18.0256C85.3378 18.0256 85.1696 18.0256 85.0039 18.0256C84.9392 18.0256 84.8745 18.0256 84.8098 18.0256C84.4785 18.0438 84.1498 18.0929 83.8236 18.1628C82.8633 18.3673 81.9704 18.7426 81.1136 19.2137C80.2517 19.6874 79.4493 20.2542 78.6883 20.8754C78.5899 20.9557 78.4864 21.0282 78.4036 21.1213C78.3958 21.1239 78.3906 21.1291 78.3854 21.1369V21.1446H78.3751C78.3544 21.1628 78.3311 21.1783 78.3104 21.1964C77.4666 21.9186 76.6823 22.7029 75.942 23.5285C75.0619 24.5121 74.2492 25.5501 73.4908 26.6294C72.3597 28.2368 71.358 29.9245 70.4676 31.6742C69.8671 32.8545 69.3183 34.0581 68.8239 35.2902C68.3088 36.574 67.8403 37.8734 67.4599 39.2038C67.4184 39.3514 67.3667 39.4963 67.3227 39.6438C67.0121 40.7413 66.7429 41.8466 66.5332 42.9673C66.3546 43.9173 66.2097 44.8698 66.1165 45.8327C66.0466 46.5315 66 47.2304 66 47.9319C66 48.2502 66 48.5686 66.0026 48.8896C66.0078 48.9336 66.0078 48.9776 66.0104 49.0216C66.0104 49.0889 66.0104 49.1562 66.0078 49.2235C66.0104 49.6117 66.044 49.9974 66.0802 50.3831C66.1424 51.012 66.2381 51.6384 66.3753 52.2545C66.5487 53.0284 66.7869 53.779 67.1285 54.4986C67.4935 55.2673 67.9542 55.9662 68.578 56.5512C68.9404 56.8929 69.3416 57.1802 69.792 57.3898C70.1932 57.5788 70.5996 57.7548 71.0034 57.9334C71.2803 58.055 71.5547 58.1871 71.8394 58.2984C71.8239 58.2854 71.8058 58.2725 71.7902 58.2595C71.7359 58.2181 71.6789 58.1819 71.622 58.1456C71.6039 58.1353 71.5883 58.1249 71.5702 58.1146C71.5391 58.0965 71.5107 58.0783 71.4796 58.0576C71.4615 58.0473 71.446 58.0343 71.4278 58.024C71.0163 57.7341 70.6591 57.3898 70.3459 56.999C70.0146 56.5874 69.7325 56.1422 69.5047 55.666C69.3571 55.3554 69.22 55.0396 69.1009 54.716C69.0698 54.6876 69.0388 54.6565 69.0103 54.628C69.0414 54.6591 69.0698 54.6876 69.1009 54.716C69.0181 54.4908 68.943 54.2631 68.8809 54.0301C68.8524 53.924 68.8343 53.8153 68.8006 53.7117C68.6945 53.3804 68.635 53.0387 68.5677 52.6997C68.5211 52.4564 68.4874 52.2079 68.4538 51.962C68.4176 51.7083 68.3968 51.4521 68.3658 51.1984C68.3658 51.1803 68.3632 51.1648 68.3606 51.1466C68.3606 51.4728 68.3606 51.7989 68.3606 52.1225C68.3606 51.7963 68.3606 51.4702 68.3606 51.1466C68.3503 51.0509 68.3477 50.9525 68.3399 50.8542C68.327 50.5901 68.3037 50.3261 68.3037 50.0595C68.3037 49.8861 68.2855 49.7127 68.2881 49.5393C68.2907 49.1743 68.2933 48.8119 68.3088 48.447C68.3218 48.1286 68.3399 47.8128 68.3658 47.4944C68.371 47.4401 68.3736 47.3883 68.3787 47.3339C68.4305 46.7567 68.4952 46.1795 68.5754 45.6049C68.6583 44.9992 68.7644 44.3987 68.8809 43.8008C68.9145 43.6248 68.9508 43.4488 68.987 43.2728C69.1242 42.6101 69.2847 41.9553 69.4607 41.303C69.5513 40.9665 69.6444 40.63 69.7428 40.2961C69.8438 39.9467 69.9525 39.5998 70.0638 39.2556C70.1854 38.8803 70.3148 38.5075 70.4417 38.1348C70.465 38.0649 70.5064 38.0002 70.5297 37.9303C70.6643 37.4981 70.8299 37.0762 70.9956 36.6568C71.2415 36.0382 71.4874 35.417 71.7669 34.8113C72.0232 34.2522 72.2717 33.688 72.5538 33.1418C72.6651 32.9244 72.7764 32.7044 72.8825 32.4844C72.9213 32.4067 72.9757 32.3394 73.0119 32.2592C73.1284 32.0133 73.2552 31.7726 73.3898 31.537C73.4546 31.4231 73.5037 31.3015 73.5892 31.2005C73.7237 30.9417 73.8661 30.688 74.0214 30.4395C74.112 30.2972 74.1897 30.1445 74.2777 30.0021C74.5184 29.6138 74.7513 29.2204 75.005 28.8399C75.2871 28.4154 75.5589 27.9883 75.8566 27.5742C76.1568 27.1549 76.4597 26.7356 76.7755 26.3292C76.879 26.1972 76.9955 26.0755 77.0938 25.9357C77.2181 25.7623 77.3475 25.5941 77.4873 25.4336C77.6736 25.2136 77.8574 24.9936 78.0464 24.7761C78.1162 24.6959 78.1939 24.626 78.2664 24.5458C78.388 24.406 78.5045 24.2611 78.6313 24.1265C79.0481 23.6864 79.47 23.2516 79.9152 22.8426C80.0058 22.7598 80.086 22.6666 80.1844 22.5941C80.2853 22.5217 80.3552 22.413 80.4691 22.3534C80.4769 22.3482 80.4846 22.3457 80.4898 22.3405C80.5338 22.3068 80.5597 22.2473 80.6063 22.2136C80.6089 22.2111 80.614 22.2085 80.6166 22.2059C80.6192 22.1904 80.6244 22.1774 80.6322 22.1671C80.6399 22.1567 80.6503 22.1515 80.6632 22.1515C80.671 22.1515 80.6813 22.1515 80.6917 22.1541C80.7072 22.1412 80.7227 22.1282 80.7357 22.1153C80.7564 22.1023 80.7719 22.0894 80.79 22.079C80.8806 22.0143 80.9609 21.9393 81.0437 21.8642C81.1731 21.7477 81.3129 21.6442 81.4501 21.5381C81.9988 21.111 82.5786 20.7279 83.174 20.3733C83.2412 20.3319 83.3137 20.3008 83.3836 20.2646C83.5907 20.1533 83.7952 20.0342 84.0074 19.9307C84.5561 19.6589 85.1256 19.4415 85.7183 19.2836C86.0238 19.2034 86.3318 19.1386 86.645 19.0946C87.0255 19.0429 87.4086 19.0222 87.7916 19.0429C88.2084 19.0688 88.6225 19.1335 89.0237 19.2655C89.0444 19.2706 89.0625 19.2732 89.0807 19.2629C89.047 19.2266 88.9952 19.2266 88.9538 19.2059L88.9693 19.2034Z" fill="#333333" fill-opacity="0.7"/>
<path d="M80.6597 22.0111C80.6597 22.0111 80.6526 22.0064 80.6503 22.004C80.6526 22.004 80.6573 22.0087 80.6597 22.0111Z" fill="#333333" fill-opacity="0.7"/>
<path d="M80.5881 21.968C80.6037 21.9758 80.6166 21.9835 80.6295 21.9913C80.6166 21.9835 80.6011 21.9758 80.5881 21.968Z" fill="#333333" fill-opacity="0.7"/>
<path d="M85.5035 18.0258H85.0039C84.9392 18.0258 84.8745 18.0258 84.8098 18.0258C84.8072 18.018 84.802 18.0102 84.7994 17.9999C85.0376 17.9999 85.2757 17.9999 85.5112 17.9999C85.5112 18.0076 85.5061 18.0154 85.5035 18.0258Z" fill="#333333" fill-opacity="0.5"/>
<path d="M78.3772 21.1465H78.3725V21.1371H78.3819V21.1441H78.3772V21.1465Z" fill="#333333"/>
<path opacity="0.48" d="M107.285 52.0035C107.352 51.9517 107.352 51.9466 107.285 51.8922C107.127 51.7654 106.959 51.6541 106.785 51.5505C106.208 51.2011 105.592 50.9345 104.958 50.7015C104.813 50.6498 104.673 50.5851 104.52 50.5566C104.479 50.51 104.417 50.5048 104.363 50.4867C103.772 50.29 103.172 50.1295 102.569 49.9742C102.52 49.969 102.47 49.9587 102.426 49.9354C102.144 49.8733 101.862 49.8111 101.58 49.7516C101.057 49.6377 100.534 49.5394 100.006 49.4513C99.6154 49.3866 99.2246 49.3245 98.8337 49.2676C98.5283 49.2236 98.2229 49.177 97.9148 49.1537C97.8631 49.1459 97.8139 49.1356 97.7621 49.1304C96.6853 48.9984 95.606 48.8974 94.5215 48.825C93.8148 48.7758 93.1056 48.7395 92.399 48.7111C91.4723 48.6748 90.5483 48.6593 89.6216 48.6593C88.4724 48.6593 87.3257 48.6878 86.1791 48.7421C84.8538 48.8068 83.5338 48.9078 82.2163 49.0553C82.0014 49.0786 81.784 49.0942 81.5692 49.1382C81.5252 49.1278 81.4838 49.1382 81.4397 49.1433C80.5002 49.2598 79.5658 49.4022 78.6365 49.5782C78.0878 49.6817 77.5416 49.7956 76.9981 49.925L76.9877 49.9431C76.9877 49.9431 76.8479 51.9621 77.1586 53.9344C77.6944 54.0613 78.2327 54.1752 78.7711 54.2761C79.2526 54.3667 79.7366 54.4521 80.2232 54.522C80.904 54.6204 81.5873 54.7187 82.2732 54.7912C82.9384 54.8611 83.6036 54.9336 84.2714 54.9801C84.6675 55.0086 85.0609 55.0423 85.4569 55.0656C86.0419 55.0992 86.6269 55.1277 87.2118 55.1484C87.7451 55.1665 88.2809 55.182 88.8141 55.1898C89.6682 55.2002 90.5224 55.1976 91.3792 55.1795C92.2023 55.1613 93.0254 55.1303 93.8459 55.0837C94.8269 55.0293 95.8027 54.9517 96.7811 54.8507C98.2694 54.6954 99.75 54.4909 101.218 54.1959C102.499 53.9396 103.767 53.6264 104.997 53.1735C105.532 52.9767 106.055 52.7541 106.555 52.4746C106.809 52.3348 107.052 52.1821 107.282 52.0035H107.285Z" fill="url(#paint0_linear_7092_116231)"/>
<path d="M126.014 33.8356L132.485 50.3624L138.912 33.8356H142.891L134.191 55.7411H130.518L121.775 33.8356H126.017H126.014Z" fill="#333333" fill-opacity="0.7"/>
<path d="M151.241 51.5014C152.465 52.2882 153.951 52.7697 155.525 52.7697C159.94 52.7697 163.396 49.2287 163.396 44.769H167.157C167.157 51.1519 161.998 56.1812 155.439 56.1812C148.88 56.1812 143.939 51.1959 143.939 44.901C143.939 38.606 149.098 33.4008 155.657 33.4008C158.892 33.4008 162.565 34.6251 164.97 37.8165L151.241 51.5014ZM148.88 49.0527L159.811 38.078C158.543 37.2471 157.101 36.8097 155.527 36.8097C151.155 36.8097 147.7 40.3506 147.7 44.7664C147.7 46.3401 148.137 47.8258 148.88 49.0501V49.0527Z" fill="#333333" fill-opacity="0.7"/>
<path d="M171.355 23.8239H175.466V55.7413H171.355V23.8239Z" fill="#333333" fill-opacity="0.7"/>
<path d="M180.099 44.7665C180.099 38.2955 185.084 33.3983 191.684 33.3983C198.285 33.3983 203.314 38.2955 203.314 44.7665C203.314 51.2375 198.329 56.1787 191.684 56.1787C185.04 56.1787 180.099 51.2815 180.099 44.7665ZM191.684 52.5058C196.056 52.5058 199.336 49.1823 199.336 44.7665C199.336 40.3507 196.056 37.0272 191.684 37.0272C187.313 37.0272 184.077 40.3947 184.077 44.7665C184.077 49.1383 187.357 52.5058 191.684 52.5058Z" fill="#333333" fill-opacity="0.7"/>
<path d="M218.355 55.7413C211.273 55.7413 206.549 51.3695 206.549 44.7665C206.549 38.1635 211.271 33.8357 218.355 33.8357H222.028V23.8239H226.138V55.7413H218.355ZM218.355 52.0683H222.028V37.4647H218.355C213.719 37.4647 210.66 40.3947 210.66 44.7665C210.66 49.1383 213.719 52.0683 218.355 52.0683Z" fill="#333333" fill-opacity="0.7"/>
<path d="M232.172 33.8358H236.282V40.1747L243.059 33.3983L245.639 35.9789L236.282 45.292V55.7413H232.172V33.8358Z" fill="#333333" fill-opacity="0.7"/>
<path d="M245.901 44.7665C245.901 38.2955 250.886 33.3983 257.486 33.3983C264.087 33.3983 269.116 38.2955 269.116 44.7665C269.116 51.2375 264.131 56.1787 257.486 56.1787C250.842 56.1787 245.901 51.2815 245.901 44.7665ZM257.486 52.5058C261.858 52.5058 265.138 49.1823 265.138 44.7665C265.138 40.3507 261.858 37.0272 257.486 37.0272C253.114 37.0272 249.879 40.3947 249.879 44.7665C249.879 49.1383 253.158 52.5058 257.486 52.5058Z" fill="#333333" fill-opacity="0.7"/>
<path d="M273.752 33.8358H277.774V36.4578C281.315 33.7917 282.845 33.3983 284.856 33.3983C287.481 33.3983 289.753 34.7546 290.845 36.9392C294.868 33.8358 296.486 33.3983 298.585 33.3983C302.346 33.3983 305.317 36.1084 305.317 40.2187V55.7413H301.207V40.6562C301.207 38.645 299.765 37.1592 297.927 37.1592C296.527 37.1592 295.479 37.4647 291.588 40.7002V55.7413H287.478V40.6562C287.478 38.645 286.036 37.1592 284.198 37.1592C282.801 37.1592 281.75 37.4647 277.86 40.7002V55.7413H273.749V33.8358H273.752Z" fill="#333333" fill-opacity="0.7"/>
<path d="M317.037 51.5014C318.262 52.2882 319.747 52.7697 321.321 52.7697C325.737 52.7697 329.192 49.2287 329.192 44.769H332.953C332.953 51.1519 327.795 56.1812 321.236 56.1812C314.677 56.1812 309.735 51.1959 309.735 44.901C309.735 38.606 314.894 33.4008 321.453 33.4008C324.689 33.4008 328.362 34.6251 330.766 37.8165L317.037 51.5014ZM314.677 49.0527L325.607 38.078C324.339 37.2471 322.897 36.8097 321.324 36.8097C316.952 36.8097 313.496 40.3506 313.496 44.7664C313.496 46.3401 313.934 47.8258 314.677 49.0501V49.0527Z" fill="#333333" fill-opacity="0.7"/>
<defs>
<linearGradient id="paint0_linear_7092_116231" x1="92.2041" y1="49.4169" x2="92.0154" y2="54.3036" gradientUnits="userSpaceOnUse">
<stop offset="0.16" stop-color="#191919"/>
<stop offset="0.97" stop-color="#191919" stop-opacity="0"/>
</linearGradient>
</defs>
</svg>
