<svg width="210" height="202" viewBox="0 0 210 202" fill="none" xmlns="http://www.w3.org/2000/svg">
<g clip-path="url(#clip0_4867_101537)">
<g clip-path="url(#clip1_4867_101537)">
<path d="M165.543 235.677C217.802 235.677 260.167 193.313 260.167 141.054C260.167 88.7947 217.802 46.4305 165.543 46.4305C113.285 46.4305 70.9203 88.7947 70.9203 141.054C70.9203 193.313 113.285 235.677 165.543 235.677Z" fill="#001845"/>
<path d="M215.035 188.474C173.077 196.95 132.086 169.757 123.559 128.043C119.294 107.831 123.674 87.6434 134.096 71.3412C102.496 85.8639 83.8085 120.624 91.0559 156.317C99.5831 198.03 140.574 225.224 182.532 216.747C204.159 212.511 221.488 199.667 232.776 182.507C227.149 185.07 221.523 187.203 215.035 188.474Z" fill="url(#paint0_linear_4867_101537)"/>
<path d="M160.586 183.895C160.586 183.64 160.391 183.426 160.138 183.395C145.953 181.636 137.235 171.777 137.016 158.751C137.012 158.474 137.236 158.248 137.512 158.248H147.486C147.762 158.248 147.985 158.475 147.991 158.751C148.19 168.61 154.272 174.506 165.463 174.506C176.843 174.506 182.94 168.409 182.94 161.093C182.94 140.365 137.825 150.932 137.825 120.45C137.825 110.4 146.968 99.9537 160.144 98.1523C160.395 98.118 160.586 97.9052 160.586 97.6523V86.4022C160.586 86.1261 160.809 85.9022 161.086 85.9022H169.434C169.71 85.9022 169.934 86.1261 169.934 86.4022V97.6696C169.934 97.915 170.113 98.1238 170.355 98.1667C182.566 100.335 191.239 110.556 191.47 122.793C191.475 123.069 191.251 123.295 190.975 123.295L181.001 123.295C180.725 123.295 180.502 123.069 180.494 122.793C180.252 113.7 173.438 107.037 165.056 107.037C154.895 107.037 148.392 113.946 148.392 120.45C148.392 141.178 193.507 130.61 193.507 161.093C193.507 171.958 184.742 181.628 170.367 183.791C170.121 183.828 169.934 184.04 169.934 184.289V195.547C169.934 195.823 169.71 196.047 169.434 196.047H161.086C160.809 196.047 160.586 195.823 160.586 195.547V183.895Z" fill="white"/>
<path fill-rule="evenodd" clip-rule="evenodd" d="M238.376 175.046L243.342 178.573C244.46 179.368 244.344 181.064 243.127 181.698L227.052 190.073C225.775 190.738 224.265 189.742 224.373 188.307L225.788 169.519C225.896 168.095 227.517 167.333 228.682 168.16L233.134 171.323C244.501 145.491 240.3 114.271 219.957 92.201C192.77 62.7074 146.965 60.6267 117.223 87.3707C116.846 87.7096 116.262 87.6892 115.919 87.3164L112.888 84.0279C112.544 83.6552 112.57 83.0713 112.947 82.732C145.251 53.627 195.047 55.8703 224.595 87.9256C247.01 112.243 251.374 146.773 238.376 175.046Z" fill="#23DD00"/>
<path fill-rule="evenodd" clip-rule="evenodd" d="M94.9859 107.062L90.0204 103.535C88.9018 102.74 89.0184 101.044 90.2352 100.41L106.31 92.0351C107.587 91.37 109.097 92.3657 108.989 93.801L107.574 112.589C107.466 114.013 105.845 114.775 104.68 113.948L100.228 110.785C88.8611 136.617 93.0619 167.837 113.406 189.907C140.592 219.401 186.397 221.481 216.139 194.737C216.516 194.399 217.1 194.419 217.443 194.792L220.474 198.08C220.818 198.453 220.792 199.037 220.415 199.376C188.111 228.481 138.315 226.238 108.767 194.183C86.3525 169.866 81.9879 135.335 94.9859 107.062Z" fill="#23DD00"/>
</g>
<path fill-rule="evenodd" clip-rule="evenodd" d="M302.205 192.066L284.38 185.487C287.516 176.992 289.764 168.003 290.993 158.606C292.222 149.209 292.361 139.943 291.515 130.928L310.432 129.154C311.409 139.571 311.247 150.258 309.833 161.069C308.419 171.881 305.828 182.251 302.205 192.066ZM309.039 118.593L290.309 121.785C287.157 103.294 279.831 85.9916 269.2 71.0421L284.683 60.0305C296.936 77.2595 305.397 97.2251 309.039 118.593ZM278.188 51.5808L263.565 63.712C251.852 49.5935 237.015 38.0644 219.957 30.2632L227.859 12.9843C247.571 21.9991 264.689 35.3094 278.188 51.5808ZM218.011 8.9219L211.432 26.7465C202.937 23.6112 193.948 21.3625 184.551 20.1336C175.154 18.9047 165.888 18.766 156.873 19.6114L155.099 0.694402C165.516 -0.282443 176.203 -0.11993 187.015 1.29403C197.826 2.708 208.196 5.29922 218.011 8.9219ZM144.538 2.08769L147.731 20.8175C129.239 23.9696 111.937 31.2955 96.9872 41.9272L85.9756 26.4435C103.205 14.1907 123.17 5.7301 144.538 2.08769ZM77.5259 32.9387L89.6571 47.5617C75.5386 59.2745 64.0095 74.1114 56.2083 91.17L38.9294 83.268C47.9442 63.5558 61.2546 46.4374 77.5259 32.9387ZM34.867 93.116C31.2444 102.931 28.6531 113.3 27.2392 124.112C25.8252 134.924 25.6627 145.611 26.6395 156.028L45.5565 154.254C44.7111 145.239 44.8498 135.973 46.0787 126.576C47.3077 117.179 49.5563 108.189 52.6916 99.6951L34.867 93.116ZM28.0328 166.589L46.7626 163.396C49.9147 181.887 57.2406 199.19 67.8723 214.14L52.3886 225.151C40.1358 207.922 31.6752 187.957 28.0328 166.589ZM58.8838 233.601L73.5069 221.47C85.2196 235.588 100.057 247.117 117.115 254.919L109.213 272.197C89.501 263.183 72.3825 249.872 58.8838 233.601ZM119.061 276.26L125.64 258.435C134.135 261.571 143.124 263.819 152.521 265.048C161.918 266.277 171.184 266.416 180.199 265.57L181.973 284.487C171.556 285.464 160.869 285.302 150.057 283.888C139.245 282.474 128.876 279.882 119.061 276.26ZM192.534 283.094L189.341 264.364C207.832 261.212 225.135 253.886 240.085 243.255L251.096 258.738C233.867 270.991 213.902 279.452 192.534 283.094ZM259.546 252.243L247.415 237.62C261.533 225.907 273.062 211.07 280.864 194.012L298.143 201.914C289.128 221.626 275.817 238.744 259.546 252.243Z" fill="url(#paint1_linear_4867_101537)"/>
</g>
<defs>
<linearGradient id="paint0_linear_4867_101537" x1="85.3785" y1="234.94" x2="172.856" y2="133.346" gradientUnits="userSpaceOnUse">
<stop offset="0.0729167" stop-color="#FFD923"/>
<stop offset="0.4775" stop-color="#0466C8"/>
<stop offset="1" stop-color="#001845"/>
</linearGradient>
<linearGradient id="paint1_linear_4867_101537" x1="206.796" y1="3.88104" x2="206.107" y2="187.888" gradientUnits="userSpaceOnUse">
<stop stop-color="#1C81D4"/>
<stop offset="1" stop-color="#001375"/>
</linearGradient>
<clipPath id="clip0_4867_101537">
<rect width="210" height="202" rx="8" fill="white"/>
</clipPath>
<clipPath id="clip1_4867_101537">
<rect width="190" height="190" fill="white" transform="translate(70 46)"/>
</clipPath>
</defs>
</svg>
