<svg width="210" height="202" viewBox="0 0 210 202" fill="none" xmlns="http://www.w3.org/2000/svg">
<g clip-path="url(#clip0_6763_111449)">
<path d="M139.5 279C216.544 279 279 216.544 279 139.5C279 62.4562 216.544 0 139.5 0C62.4563 0 0 62.4562 0 139.5C0 216.544 62.4563 279 139.5 279Z" fill="#001845"/>
<path d="M189.882 195.174C166.546 191.285 106.674 168.547 94.3619 108.319C88.2033 79.1365 94.0181 36.4526 94.0181 36.4526C48.3941 57.4209 21.4119 107.608 31.876 159.142C44.1878 219.369 103.372 258.632 163.951 246.394C195.177 240.277 220.196 221.732 236.495 196.957C228.371 200.657 213.217 199.063 189.882 195.174Z" fill="url(#paint0_linear_6763_111449)"/>
<path fill-rule="evenodd" clip-rule="evenodd" d="M246.015 190.187L253.406 195.437C255.072 196.62 254.898 199.145 253.087 200.088L229.157 212.556C227.257 213.546 225.009 212.063 225.17 209.927L227.276 181.959C227.436 179.839 229.85 178.705 231.584 179.937L238.212 184.644C255.132 146.191 248.879 99.7169 218.595 66.8633C178.126 22.9591 109.94 19.8617 65.6657 59.6728C65.1045 60.1774 64.2363 60.1469 63.7248 59.592L59.2125 54.6967C58.701 54.1419 58.7403 53.2727 59.3009 52.7676C107.389 9.44194 181.515 12.7813 225.5 60.4988C258.866 96.6971 265.364 148.099 246.015 190.187Z" fill="url(#paint1_linear_6763_111449)"/>
<path fill-rule="evenodd" clip-rule="evenodd" d="M33.922 87.9522L26.6119 82.589C24.9651 81.3808 25.1775 78.8589 27.0031 77.9431L51.1212 65.845C53.0363 64.8844 55.2617 66.401 55.068 68.5347L52.5317 96.4668C52.3393 98.5846 49.9082 99.6809 48.1937 98.423L41.639 93.614C24.1295 131.803 29.6678 178.367 59.4428 211.683C99.2328 256.204 167.363 261.789 212.244 222.663C212.813 222.167 213.68 222.211 214.183 222.774L218.62 227.738C219.123 228.3 219.07 229.169 218.502 229.665C169.754 272.247 95.6871 266.328 52.4412 217.94C19.6349 181.233 13.9286 129.738 33.922 87.9522Z" fill="url(#paint2_linear_6763_111449)"/>
<path fill-rule="evenodd" clip-rule="evenodd" d="M138.866 85.0948L182.872 111.824V140.146C182.872 165.356 165.568 189.332 141.182 195.286L138.866 195.852L136.549 195.286C112.164 189.332 94.86 165.356 94.86 140.146V111.824L138.866 85.0948ZM138.866 185.8C119.234 181.006 104.625 161.261 104.625 140.146V117.318L138.866 96.5201L173.107 117.318V140.146C173.107 161.261 158.497 181.006 138.866 185.8Z" fill="white"/>
<path fill-rule="evenodd" clip-rule="evenodd" d="M138.436 95.404L138.866 95.125L173.107 117.318V140.145C173.107 161.233 158.536 180.955 138.943 185.781V95.404H138.436Z" fill="white"/>
</g>
<defs>
<linearGradient id="paint0_linear_6763_111449" x1="63.756" y1="212.773" x2="157.098" y2="133.321" gradientUnits="userSpaceOnUse">
<stop stop-color="#8247E5"/>
<stop offset="1" stop-color="#7E46DC" stop-opacity="0"/>
</linearGradient>
<linearGradient id="paint1_linear_6763_111449" x1="239.387" y1="205.386" x2="96.7953" y2="36.1483" gradientUnits="userSpaceOnUse">
<stop stop-color="white"/>
<stop offset="1" stop-color="white" stop-opacity="0"/>
</linearGradient>
<linearGradient id="paint2_linear_6763_111449" x1="45.2063" y1="206.777" x2="175.441" y2="262.077" gradientUnits="userSpaceOnUse">
<stop stop-color="white"/>
<stop offset="1" stop-color="white" stop-opacity="0"/>
</linearGradient>
<clipPath id="clip0_6763_111449">
<rect width="279" height="279" rx="139.5" fill="white"/>
</clipPath>
</defs>
</svg>
