<svg width="270" height="246" viewBox="0 0 270 246" fill="none" xmlns="http://www.w3.org/2000/svg">
<g clip-path="url(#clip0_8422_95087)">
<rect width="270" height="246" rx="8" fill="white"/>
<g filter="url(#filter0_d_8422_95087)">
<g clip-path="url(#clip1_8422_95087)">
<path d="M199.502 323C276.546 323 339.002 260.544 339.002 183.5C339.002 106.456 276.546 44 199.502 44C122.459 44 60.0024 106.456 60.0024 183.5C60.0024 260.544 122.459 323 199.502 323Z" fill="#001845"/>
<path d="M249.884 239.174C226.548 235.285 166.675 212.547 154.364 152.319C148.205 123.137 154.02 80.4526 154.02 80.4526C108.396 101.421 81.4136 151.608 91.8777 203.142C104.189 263.369 163.374 302.632 223.953 290.394C255.178 284.277 280.198 265.732 296.497 240.957C288.372 244.657 273.219 243.063 249.884 239.174Z" fill="url(#paint0_linear_8422_95087)"/>
<path fill-rule="evenodd" clip-rule="evenodd" d="M306.016 234.187L313.408 239.437C315.073 240.62 314.9 243.145 313.088 244.088L289.159 256.556C287.259 257.546 285.01 256.063 285.171 253.927L287.278 225.959C287.438 223.839 289.852 222.705 291.585 223.937L298.213 228.644C315.134 190.191 308.88 143.717 278.597 110.863C238.127 66.9591 169.941 63.8618 125.667 103.673C125.106 104.177 124.238 104.147 123.726 103.592L119.214 98.6968C118.703 98.1419 118.742 97.2727 119.302 96.7676C167.39 53.442 241.517 56.7814 285.501 104.499C318.868 140.697 325.365 192.099 306.016 234.187Z" fill="url(#paint1_linear_8422_95087)"/>
<path fill-rule="evenodd" clip-rule="evenodd" d="M93.925 131.953L86.6149 126.589C84.9681 125.381 85.1804 122.859 87.0061 121.943L111.124 109.845C113.039 108.885 115.265 110.401 115.071 112.535L112.535 140.467C112.342 142.585 109.911 143.681 108.197 142.423L101.642 137.614C84.1325 175.803 89.6708 222.368 119.446 255.683C159.236 300.204 227.366 305.789 272.247 266.663C272.816 266.167 273.683 266.211 274.186 266.774L278.623 271.738C279.126 272.301 279.073 273.169 278.505 273.666C229.757 316.247 155.69 310.328 112.444 261.94C79.6379 225.234 73.9316 173.738 93.925 131.953Z" fill="url(#paint2_linear_8422_95087)"/>
<path fill-rule="evenodd" clip-rule="evenodd" d="M198.868 129.095L242.874 155.824V184.146C242.874 209.357 225.57 233.332 201.185 239.286L198.868 239.852L196.552 239.286C172.166 233.332 154.862 209.357 154.862 184.146V155.824L198.868 129.095ZM198.868 229.8C179.237 225.006 164.627 205.261 164.627 184.146V161.318L198.868 140.52L233.109 161.318V184.146C233.109 205.261 218.5 225.006 198.868 229.8Z" fill="white"/>
<path fill-rule="evenodd" clip-rule="evenodd" d="M198.439 139.404L198.87 139.125L233.111 161.318V184.146C233.111 205.234 218.539 224.955 198.946 229.782V139.404H198.439Z" fill="white"/>
</g>
</g>
</g>
<defs>
<filter id="filter0_d_8422_95087" x="0.00244141" y="-16" width="399" height="399" filterUnits="userSpaceOnUse" color-interpolation-filters="sRGB">
<feFlood flood-opacity="0" result="BackgroundImageFix"/>
<feColorMatrix in="SourceAlpha" type="matrix" values="0 0 0 0 0 0 0 0 0 0 0 0 0 0 0 0 0 0 127 0" result="hardAlpha"/>
<feOffset/>
<feGaussianBlur stdDeviation="30"/>
<feComposite in2="hardAlpha" operator="out"/>
<feColorMatrix type="matrix" values="0 0 0 0 0 0 0 0 0 0.0941176 0 0 0 0 0.270588 0 0 0 0.4 0"/>
<feBlend mode="normal" in2="BackgroundImageFix" result="effect1_dropShadow_8422_95087"/>
<feBlend mode="normal" in="SourceGraphic" in2="effect1_dropShadow_8422_95087" result="shape"/>
</filter>
<linearGradient id="paint0_linear_8422_95087" x1="123.758" y1="256.773" x2="217.1" y2="177.321" gradientUnits="userSpaceOnUse">
<stop stop-color="#FF0420"/>
<stop offset="1" stop-color="#FF0420" stop-opacity="0"/>
</linearGradient>
<linearGradient id="paint1_linear_8422_95087" x1="299.388" y1="249.386" x2="156.797" y2="80.1484" gradientUnits="userSpaceOnUse">
<stop stop-color="white"/>
<stop offset="1" stop-color="white" stop-opacity="0"/>
</linearGradient>
<linearGradient id="paint2_linear_8422_95087" x1="105.209" y1="250.777" x2="235.444" y2="306.077" gradientUnits="userSpaceOnUse">
<stop stop-color="white"/>
<stop offset="1" stop-color="white" stop-opacity="0"/>
</linearGradient>
<clipPath id="clip0_8422_95087">
<rect width="270" height="246" rx="8" fill="white"/>
</clipPath>
<clipPath id="clip1_8422_95087">
<rect x="60.0024" y="44" width="279" height="279" rx="139.5" fill="white"/>
</clipPath>
</defs>
</svg>
