<svg width="210" height="200" viewBox="0 0 210 200" fill="none" xmlns="http://www.w3.org/2000/svg">
<g clip-path="url(#clip0_4867_101467)">
<g clip-path="url(#clip1_4867_101467)">
<path d="M157.672 278.089C234.34 278.089 296.492 215.937 296.492 139.269C296.492 62.601 234.34 0.449219 157.672 0.449219C81.004 0.449219 18.8522 62.601 18.8522 139.269C18.8522 215.937 81.004 278.089 157.672 278.089Z" fill="#001845"/>
<path d="M230.28 208.839C168.725 221.274 108.588 181.379 96.0776 120.182C89.8199 90.5291 96.2465 60.9123 111.536 36.9956C65.177 58.3017 37.7602 109.297 48.3928 161.661C60.903 222.859 121.04 262.754 182.595 250.318C214.324 244.103 239.747 225.26 256.308 200.086C248.053 203.845 239.799 206.974 230.28 208.839Z" fill="url(#paint0_linear_4867_101467)"/>
<path d="M150.399 201.91C150.399 201.655 150.204 201.441 149.951 201.411C128.932 198.891 116.037 184.287 115.817 164.996C115.814 164.72 116.038 164.493 116.314 164.493H131.414C131.69 164.493 131.914 164.721 131.917 164.997C132.117 179.602 141.047 188.344 157.554 188.344C174.25 188.344 183.194 179.4 183.194 168.667C183.194 138.257 117.007 153.76 117.007 109.039C117.007 94.2442 130.516 78.8616 149.957 76.2998C150.207 76.2668 150.399 76.0538 150.399 75.8009V58.8556C150.399 58.5794 150.622 58.3556 150.899 58.3556H163.613C163.889 58.3556 164.113 58.5794 164.113 58.8556V75.8181C164.113 76.0636 164.293 76.2726 164.535 76.3143C182.63 79.4331 195.479 94.5892 195.713 112.712C195.716 112.988 195.492 113.213 195.216 113.213H180.116C179.84 113.213 179.617 112.987 179.612 112.711C179.368 99.2521 169.326 89.3622 156.958 89.3622C142.051 89.3622 132.51 99.4988 132.51 109.039C132.51 139.45 198.697 123.946 198.697 168.667C198.697 184.658 185.756 198.884 164.547 201.997C164.3 202.033 164.113 202.245 164.113 202.494V219.447C164.113 219.723 163.889 219.947 163.613 219.947L150.899 219.947C150.622 219.947 150.399 219.723 150.399 219.447V201.91Z" fill="white"/>
<path fill-rule="evenodd" clip-rule="evenodd" d="M264.524 189.323L271.809 194.497C273.45 195.663 273.279 198.151 271.493 199.081L247.91 211.368C246.037 212.344 243.821 210.883 243.98 208.778L246.056 181.214C246.214 179.124 248.593 178.007 250.301 179.221L256.833 183.86C273.509 145.963 267.346 100.161 237.501 67.782C197.616 24.5125 130.416 21.4599 86.7815 60.6955C86.2285 61.1928 85.3728 61.1627 84.8688 60.6159L80.4216 55.7914C79.9176 55.2445 79.9562 54.3879 80.5088 53.8901C127.902 11.1907 200.957 14.4818 244.305 61.5095C277.19 97.1846 283.593 147.843 264.524 189.323Z" fill="#23DD00"/>
<path fill-rule="evenodd" clip-rule="evenodd" d="M54.1584 89.5046L46.8735 84.3303C45.2324 83.1646 45.4035 80.6762 47.1887 79.7461L70.7721 67.459C72.6448 66.4833 74.8607 67.9441 74.7021 70.0498L72.6258 97.6132C72.4684 99.7031 70.0893 100.82 68.3807 99.6066L61.8487 94.967C45.1728 132.865 51.3358 178.667 81.1815 211.045C121.066 254.315 188.266 257.368 231.901 218.132C232.454 217.635 233.309 217.665 233.813 218.211L238.26 223.036C238.764 223.583 238.726 224.439 238.173 224.937C190.781 267.637 117.726 264.346 74.3767 217.318C41.4925 181.643 35.0893 130.984 54.1584 89.5046Z" fill="#23DD00"/>
</g>
</g>
<defs>
<linearGradient id="paint0_linear_4867_101467" x1="40.0636" y1="277.008" x2="168.401" y2="127.961" gradientUnits="userSpaceOnUse">
<stop offset="0.0729167" stop-color="#FFD923"/>
<stop offset="0.4775" stop-color="#0466C8"/>
<stop offset="1" stop-color="#001845"/>
</linearGradient>
<clipPath id="clip0_4867_101467">
<rect width="210" height="200" rx="8" fill="white"/>
</clipPath>
<clipPath id="clip1_4867_101467">
<rect width="278.746" height="278.746" fill="white" transform="translate(17.502)"/>
</clipPath>
</defs>
</svg>
