<svg width="210" height="203" viewBox="0 0 210 203" fill="none" xmlns="http://www.w3.org/2000/svg">
<g clip-path="url(#clip0_4867_101494)">
<g clip-path="url(#clip1_4867_101494)">
<path d="M152.672 281.089C229.34 281.089 291.492 218.937 291.492 142.269C291.492 65.601 229.34 3.44922 152.672 3.44922C76.004 3.44922 13.8522 65.601 13.8522 142.269C13.8522 218.937 76.004 281.089 152.672 281.089Z" fill="#001845"/>
<path d="M225.28 211.838C163.725 224.274 103.588 184.379 91.0775 123.181C84.8198 93.5286 91.2464 63.9118 106.536 39.9951C60.1769 61.3012 32.7601 112.296 43.3927 164.661C55.9028 225.858 116.04 265.753 177.595 253.318C209.324 247.103 234.747 228.259 251.308 203.085C243.053 206.845 234.799 209.974 225.28 211.838Z" fill="url(#paint0_linear_4867_101494)"/>
<path d="M145.398 204.91C145.398 204.655 145.203 204.441 144.95 204.411C123.932 201.891 111.037 187.287 110.817 167.996C110.814 167.72 111.038 167.493 111.314 167.493H126.414C126.69 167.493 126.913 167.721 126.917 167.997C127.117 182.602 136.047 191.344 152.554 191.344C169.25 191.344 178.194 182.4 178.194 171.667C178.194 141.257 112.007 156.76 112.007 112.039C112.007 97.2442 125.516 81.8616 144.957 79.2998C145.207 79.2668 145.398 79.0538 145.398 78.8009V61.8556C145.398 61.5794 145.622 61.3556 145.898 61.3556H158.613C158.889 61.3556 159.113 61.5794 159.113 61.8556V78.8181C159.113 79.0636 159.293 79.2726 159.535 79.3143C177.63 82.4331 190.479 97.5892 190.712 115.712C190.716 115.988 190.492 116.213 190.216 116.213H175.116C174.84 116.213 174.617 115.987 174.612 115.711C174.367 102.252 164.326 92.3622 151.958 92.3622C137.051 92.3622 127.51 102.499 127.51 112.039C127.51 142.45 193.697 126.946 193.697 171.667C193.697 187.658 180.756 201.884 159.547 204.997C159.3 205.033 159.113 205.245 159.113 205.494V222.447C159.113 222.723 158.889 222.947 158.613 222.947L145.898 222.947C145.622 222.947 145.398 222.723 145.398 222.447V204.91Z" fill="white"/>
<path fill-rule="evenodd" clip-rule="evenodd" d="M259.524 192.323L266.809 197.497C268.45 198.663 268.279 201.151 266.493 202.081L242.91 214.368C241.037 215.344 238.821 213.883 238.98 211.778L241.056 184.214C241.214 182.124 243.593 181.007 245.301 182.221L251.833 186.86C268.509 148.963 262.346 103.161 232.501 70.782C192.616 27.5125 125.416 24.4599 81.7815 63.6955C81.2285 64.1928 80.3728 64.1627 79.8688 63.6159L75.4216 58.7914C74.9176 58.2445 74.9562 57.3879 75.5088 56.8901C122.902 14.1907 195.957 17.4818 239.305 64.5095C272.19 100.185 278.593 150.843 259.524 192.323Z" fill="#23DD00"/>
<path fill-rule="evenodd" clip-rule="evenodd" d="M49.1584 92.5046L41.8735 87.3303C40.2324 86.1646 40.4035 83.6762 42.1887 82.7461L65.7721 70.459C67.6448 69.4833 69.8607 70.9441 69.7021 73.0498L67.6258 100.613C67.4684 102.703 65.0893 103.82 63.3807 102.607L56.8487 97.967C40.1728 135.865 46.3358 181.667 76.1815 214.045C116.066 257.315 183.266 260.368 226.901 221.132C227.454 220.635 228.309 220.665 228.813 221.211L233.26 226.036C233.764 226.583 233.726 227.439 233.173 227.937C185.781 270.637 112.726 267.346 69.3767 220.318C36.4925 184.643 30.0893 133.984 49.1584 92.5046Z" fill="#23DD00"/>
</g>
<g clip-path="url(#clip2_4867_101494)">
<path d="M161.875 279.443C238.848 279.443 301.248 217.044 301.248 140.07C301.248 63.0965 238.848 0.697266 161.875 0.697266C84.9013 0.697266 22.502 63.0965 22.502 140.07C22.502 217.044 84.9013 279.443 161.875 279.443Z" fill="#001845"/>
<path d="M221.916 210.251C193.525 205.519 120.681 177.855 105.702 104.58C98.2095 69.0743 105.284 17.143 105.284 17.143C49.7757 42.6541 16.9479 103.714 29.6789 166.413C44.6581 239.688 116.664 287.457 190.368 272.567C228.359 265.126 258.799 242.563 278.629 212.42C268.744 216.922 250.308 214.983 221.916 210.251Z" fill="url(#paint1_linear_4867_101494)"/>
<path fill-rule="evenodd" clip-rule="evenodd" d="M62.1882 80.2296C62.0711 80.2943 61.9984 80.4174 61.9984 80.5512C61.9984 80.6783 62.064 80.7963 62.1719 80.8633L73.9235 88.1583C73.9439 88.1709 73.9702 88.1563 73.9702 88.1323C73.9702 88.1213 73.9761 88.1112 73.9856 88.1058L159.321 39.7659C159.626 39.5926 160.001 39.5926 160.306 39.7659L245.15 87.8273C245.463 88.0048 245.657 88.3372 245.657 88.6974V131.976C245.657 147.162 244.899 157.212 240.469 169.016L227.411 160.413C226.661 159.919 225.69 160.587 225.884 161.464L233.859 197.532C234.007 198.2 234.768 198.526 235.354 198.171L265.726 179.781C266.475 179.328 266.321 178.199 265.478 177.963L251.582 174.066C256.662 160.669 257.628 148.901 257.628 131.976V80.9249C257.628 80.5606 257.43 80.2251 257.111 80.0492L160.296 26.6521C159.996 26.4863 159.631 26.4863 159.33 26.6521L62.1882 80.2296Z" fill="url(#paint2_linear_4867_101494)"/>
<path fill-rule="evenodd" clip-rule="evenodd" d="M73.3575 78.4091C73.0402 77.8024 72.2207 77.6868 71.748 78.1821L46.2436 104.903C45.6236 105.552 46.1076 106.627 47.005 106.593L62.5958 105.999V132.092C62.5958 191.102 103.192 246.528 158.434 260.066L159.846 260.412L161.257 260.066C196.287 251.482 226.468 224.705 243.103 192.2L232.958 185.889C218.087 215.477 190.912 239.998 159.846 248.105C111.102 235.385 74.4984 185.576 74.4984 132.092L74.4931 107.362L88.6583 111.299C89.5017 111.533 90.2179 110.648 89.8122 109.872L73.3575 78.4091Z" fill="url(#paint3_linear_4867_101494)"/>
<path d="M153.103 204.479C132.178 202.154 119.25 187.833 118.811 168.814C118.799 168.261 119.248 167.81 119.8 167.81H133.769C134.321 167.81 134.767 168.261 134.782 168.813C135.178 182.996 144.018 191.468 160.2 191.468C176.76 191.468 185.632 182.596 185.632 171.95C185.632 141.787 119.983 157.164 119.983 112.807C119.983 98.021 133.586 82.6437 153.103 80.2779V63.5349C153.103 62.9826 153.551 62.5349 154.103 62.5349H165.706C166.258 62.5349 166.706 62.9826 166.706 63.5349V80.2779C184.706 83.1811 197.575 98.0547 198.039 115.945C198.053 116.497 197.604 116.947 197.052 116.947H183.083C182.531 116.947 182.085 116.497 182.065 115.945C181.585 102.853 171.722 93.2896 159.609 93.2896C144.823 93.2896 135.36 103.344 135.36 112.807C135.36 142.97 201.009 127.593 201.009 171.95C201.009 187.919 187.998 202.113 166.706 205.071L166.706 221.814C166.706 222.366 166.258 222.814 165.706 222.814L154.103 222.814C153.551 222.814 153.103 222.366 153.103 221.814L153.103 204.479Z" fill="white"/>
</g>
</g>
<defs>
<linearGradient id="paint0_linear_4867_101494" x1="35.0634" y1="280.008" x2="163.4" y2="130.961" gradientUnits="userSpaceOnUse">
<stop offset="0.0729167" stop-color="#FFD923"/>
<stop offset="0.4775" stop-color="#0466C8"/>
<stop offset="1" stop-color="#001845"/>
</linearGradient>
<linearGradient id="paint1_linear_4867_101494" x1="68.4657" y1="231.663" x2="182.03" y2="134.998" gradientUnits="userSpaceOnUse">
<stop stop-color="#8247E5"/>
<stop offset="1" stop-color="#8247E5" stop-opacity="0"/>
</linearGradient>
<linearGradient id="paint2_linear_4867_101494" x1="221.707" y1="13.0014" x2="90.9718" y2="74.1156" gradientUnits="userSpaceOnUse">
<stop offset="0.445694" stop-color="white"/>
<stop offset="1" stop-color="white" stop-opacity="0"/>
</linearGradient>
<linearGradient id="paint3_linear_4867_101494" x1="93.0387" y1="296.833" x2="235.304" y2="214.071" gradientUnits="userSpaceOnUse">
<stop offset="0.559619" stop-color="white"/>
<stop offset="0.918509" stop-color="white" stop-opacity="0"/>
</linearGradient>
<clipPath id="clip0_4867_101494">
<rect width="210" height="203" rx="8" fill="white"/>
</clipPath>
<clipPath id="clip1_4867_101494">
<rect width="278.746" height="278.746" fill="white" transform="translate(12.502 3)"/>
</clipPath>
<clipPath id="clip2_4867_101494">
<rect width="278.746" height="278.746" fill="white" transform="translate(22.502 0.697266)"/>
</clipPath>
</defs>
</svg>
