<svg width="244" height="246" viewBox="0 0 244 246" fill="none" xmlns="http://www.w3.org/2000/svg">
<g clip-path="url(#clip0_8422_94986)">
<rect width="244" height="246" rx="8" fill="white"/>
<g filter="url(#filter0_d_8422_94986)">
<path d="M191.672 324.089C268.34 324.089 330.492 261.937 330.492 185.269C330.492 108.601 268.34 46.4492 191.672 46.4492C115.003 46.4492 52.8516 108.601 52.8516 185.269C52.8516 261.937 115.003 324.089 191.672 324.089Z" fill="#001845"/>
<path d="M264.278 254.839C202.723 267.274 142.586 227.379 130.076 166.182C123.818 136.529 130.245 106.912 145.534 82.9956C99.1753 104.302 71.7585 155.297 82.3911 207.661C94.9013 268.859 155.039 308.754 216.594 296.318C248.322 290.103 273.745 271.26 290.307 246.086C282.051 249.845 273.797 252.974 264.278 254.839Z" fill="url(#paint0_linear_8422_94986)"/>
<path d="M184.397 247.91C184.397 247.655 184.202 247.441 183.949 247.411C162.93 244.891 150.035 230.287 149.815 210.996C149.812 210.72 150.036 210.493 150.312 210.493H165.412C165.688 210.493 165.912 210.721 165.916 210.997C166.116 225.601 175.045 234.344 191.552 234.344C208.248 234.344 217.192 225.4 217.192 214.667C217.192 184.257 151.005 199.76 151.005 155.039C151.005 140.244 164.515 124.862 183.955 122.3C184.206 122.267 184.397 122.054 184.397 121.801V104.855C184.397 104.579 184.621 104.355 184.897 104.355H197.611C197.887 104.355 198.111 104.579 198.111 104.855V121.818C198.111 122.063 198.291 122.273 198.533 122.314C216.628 125.433 229.478 140.589 229.711 158.711C229.714 158.988 229.49 159.213 229.214 159.213H214.114C213.838 159.213 213.615 158.987 213.61 158.711C213.366 145.252 203.324 135.362 190.956 135.362C176.049 135.362 166.508 145.499 166.508 155.039C166.508 185.449 232.695 169.946 232.695 214.667C232.695 230.658 219.754 244.884 198.545 247.997C198.298 248.033 198.111 248.245 198.111 248.494V265.447C198.111 265.723 197.887 265.947 197.611 265.947H184.897C184.621 265.947 184.397 265.723 184.397 265.447V247.91Z" fill="white"/>
<path fill-rule="evenodd" clip-rule="evenodd" d="M298.528 235.323L305.813 240.497C307.454 241.663 307.283 244.151 305.497 245.081L281.914 257.368C280.041 258.344 277.825 256.883 277.984 254.778L280.06 227.214C280.218 225.124 282.597 224.007 284.305 225.221L290.837 229.86C307.513 191.963 301.35 146.161 271.504 113.782C231.62 70.5124 164.42 67.4598 120.786 106.695C120.233 107.193 119.377 107.163 118.873 106.616L114.426 101.791C113.922 101.244 113.96 100.388 114.513 99.89C161.906 57.1906 234.96 60.4817 278.309 107.509C311.194 143.185 317.597 193.843 298.528 235.323Z" fill="#23DD00"/>
<path fill-rule="evenodd" clip-rule="evenodd" d="M88.1598 135.505L80.875 130.33C79.2339 129.164 79.405 126.676 81.1902 125.746L104.774 113.459C106.646 112.483 108.862 113.944 108.704 116.05L106.627 143.613C106.47 145.703 104.091 146.82 102.382 145.606L95.8502 140.967C79.1743 178.865 85.3372 224.667 115.183 257.045C155.068 300.315 222.268 303.367 265.902 264.132C266.455 263.635 267.311 263.665 267.815 264.211L272.262 269.036C272.766 269.583 272.727 270.439 272.175 270.937C224.782 313.637 151.727 310.345 108.378 263.318C75.4939 227.643 69.0907 176.984 88.1598 135.505Z" fill="#23DD00"/>
</g>
</g>
<defs>
<filter id="filter0_d_8422_94986" x="-8.5" y="-14" width="398.992" height="398.746" filterUnits="userSpaceOnUse" color-interpolation-filters="sRGB">
<feFlood flood-opacity="0" result="BackgroundImageFix"/>
<feColorMatrix in="SourceAlpha" type="matrix" values="0 0 0 0 0 0 0 0 0 0 0 0 0 0 0 0 0 0 127 0" result="hardAlpha"/>
<feOffset/>
<feGaussianBlur stdDeviation="30"/>
<feComposite in2="hardAlpha" operator="out"/>
<feColorMatrix type="matrix" values="0 0 0 0 0 0 0 0 0 0.0941176 0 0 0 0 0.270588 0 0 0 0.4 0"/>
<feBlend mode="normal" in2="BackgroundImageFix" result="effect1_dropShadow_8422_94986"/>
<feBlend mode="normal" in="SourceGraphic" in2="effect1_dropShadow_8422_94986" result="shape"/>
</filter>
<linearGradient id="paint0_linear_8422_94986" x1="74.0618" y1="323.008" x2="202.399" y2="173.961" gradientUnits="userSpaceOnUse">
<stop offset="0.0729167" stop-color="#FFD923"/>
<stop offset="0.4775" stop-color="#0466C8"/>
<stop offset="1" stop-color="#001845"/>
</linearGradient>
<clipPath id="clip0_8422_94986">
<rect width="244" height="246" rx="8" fill="white"/>
</clipPath>
</defs>
</svg>
