<svg width="197" height="80" viewBox="0 0 197 80" fill="none" xmlns="http://www.w3.org/2000/svg">
<path d="M114.61 39.0207C114.61 38.8271 114.61 38.6266 114.61 38.419C114.61 38.1978 114.589 37.9834 114.548 37.776C114.52 37.5684 114.499 37.361 114.485 37.1535C114.471 36.946 114.444 36.7524 114.402 36.5726H102.846L99.3401 42.0705H108.22C107.957 42.9972 107.577 43.8409 107.079 44.6016C106.595 45.3485 106.014 45.9985 105.336 46.5517V46.5725C104.631 47.1257 103.849 47.5614 102.992 47.8796C102.148 48.1839 101.249 48.3361 100.295 48.3361C100.267 48.3361 100.239 48.3361 100.211 48.3361C100.198 48.3361 100.191 48.3361 100.191 48.3361C98.9459 48.3361 97.7702 48.0871 96.6638 47.5891C95.5573 47.0913 94.6099 46.4273 93.8214 45.5974C93.0054 44.726 92.3623 43.7302 91.892 42.6099C91.4217 41.4895 91.1866 40.2932 91.1866 39.0207C91.1866 39.0069 91.1866 39 91.1866 39C91.1866 38.9861 91.1866 38.9654 91.1866 38.9377C91.1866 37.679 91.4217 36.4965 91.892 35.39C92.3623 34.2697 93.0123 33.2946 93.8422 32.4647C94.6582 31.6348 95.6196 30.9709 96.726 30.473C97.8325 29.9751 99.0082 29.7261 100.253 29.7261C100.253 29.7261 100.26 29.7261 100.274 29.7261C100.288 29.7261 100.295 29.7261 100.295 29.7261C100.295 29.7261 100.302 29.7261 100.315 29.7261C100.343 29.7261 100.357 29.7261 100.357 29.7261C100.882 29.7261 101.401 29.7746 101.913 29.8714C102.438 29.9543 102.943 30.0788 103.427 30.2448L103.324 30.2033C103.822 30.3831 104.285 30.5905 104.714 30.8257C105.142 31.0608 105.543 31.3167 105.917 31.5933V31.5725L107.473 29.1037L109.029 26.614C108.448 26.2129 107.826 25.8533 107.162 25.5352C106.512 25.2171 105.834 24.9474 105.128 24.7261L105.025 24.6846C104.333 24.4909 103.593 24.3388 102.805 24.2281C102.016 24.1036 101.221 24.0414 100.419 24.0414C100.391 24.0414 100.371 24.0414 100.357 24.0414C100.357 24.0414 100.343 24.0414 100.315 24.0414C100.301 24.0414 100.281 24.0414 100.253 24.0414C100.239 24.0414 100.218 24.0414 100.191 24.0414C99.1258 24.0414 98.0884 24.1382 97.0787 24.3319C96.0828 24.5255 95.1147 24.816 94.1742 25.2032L94.2986 25.1617C93.3857 25.5628 92.5352 26.0262 91.7468 26.5517C90.9585 27.0773 90.2392 27.6652 89.5891 28.3152C88.8146 29.1313 88.1575 29.9335 87.6181 30.7219C87.0926 31.5379 86.6569 32.3332 86.3112 33.1077C85.9653 33.8823 85.6818 34.6638 85.4606 35.4521C85.253 36.2128 85.0663 36.9666 84.9004 37.7135C84.5822 39.1797 84.2503 40.5766 83.9045 41.9043C83.5587 43.2322 82.8464 44.4287 81.7676 45.4936C81.3527 45.9224 80.8962 46.3165 80.3982 46.6762C79.9142 47.0219 79.4093 47.3124 78.8837 47.5475L78.8214 47.589C78.2959 47.7965 77.7427 47.9625 77.1617 48.087C76.5947 48.2115 75.9931 48.2736 75.3568 48.2736C75.3568 48.2736 75.3429 48.2736 75.3153 48.2736C75.3014 48.2736 75.2945 48.2736 75.2945 48.2736C74.0083 48.2736 72.798 48.0247 71.6638 47.5268C70.5297 47.0288 69.5338 46.3511 68.6763 45.4936C67.8464 44.6776 67.1826 43.7025 66.6846 42.5683C66.1867 41.4203 65.9378 40.2031 65.9378 38.9168C65.9378 37.672 66.1798 36.4964 66.6638 35.3899C67.148 34.2696 67.8118 33.2945 68.6555 32.4646C69.4992 31.6209 70.4881 30.9501 71.6223 30.4521C72.7565 29.9404 73.9668 29.6845 75.2531 29.6845C75.7925 29.6845 76.318 29.733 76.8299 29.8297C77.3416 29.9127 77.8464 30.0303 78.3444 30.1824H78.2613C78.7593 30.3346 79.2157 30.5282 79.6307 30.7634C80.0456 30.9846 80.4467 31.2336 80.8339 31.5102H80.7925L82.3691 29.0414L83.9667 26.531C83.3996 26.1437 82.7841 25.791 82.1202 25.4729C81.4702 25.1548 80.7856 24.8851 80.0663 24.6638H79.9833C79.2917 24.4425 78.5517 24.2765 77.7634 24.1658C76.9888 24.0552 76.1935 23.9999 75.3775 23.9999C75.3637 23.9999 75.3429 23.9999 75.3152 23.9999C75.3014 23.9999 75.2875 23.9999 75.2738 23.9999C75.2738 23.9999 75.2667 23.9999 75.253 23.9999C75.2392 23.9999 75.2323 23.9999 75.2323 23.9999C73.9459 23.9999 72.7012 24.1589 71.4978 24.4771C70.3084 24.7813 69.188 25.2101 68.1368 25.7634L68.1991 25.7426C67.1617 26.2682 66.2074 26.9113 65.336 27.672C64.4646 28.4327 63.6902 29.2695 63.0123 30.1824L62.9709 30.2032C62.6943 29.3733 62.2931 28.6195 61.7675 27.9418C61.242 27.2502 60.6195 26.6762 59.9003 26.2198H59.8795C59.1189 25.7218 58.2821 25.3346 57.3692 25.058C56.4564 24.7675 55.5019 24.6223 54.5061 24.6223C54.4646 24.6223 54.4301 24.6223 54.4024 24.6223C54.3747 24.6223 54.3539 24.6223 54.3402 24.6223H41V53.3774H55.7303C55.758 53.3774 55.7855 53.3774 55.8132 53.3774C55.8409 53.3774 55.8617 53.3774 55.8755 53.3774C56.7608 53.3774 57.6045 53.2667 58.4066 53.0455C59.2088 52.838 59.9696 52.5406 60.6888 52.1533L60.6265 52.1741C61.3042 51.8006 61.9128 51.3581 62.4522 50.8463C63.0055 50.3207 63.4688 49.7398 63.8422 49.1035L63.8838 49.0413C64.5476 49.802 65.2876 50.4797 66.1036 51.0745C66.9198 51.6691 67.7842 52.1879 68.697 52.6305L68.8007 52.6512C69.7137 53.0661 70.6957 53.3912 71.7469 53.6263C72.798 53.8753 73.8906 53.9998 75.0248 53.9998C75.0248 53.9998 75.0319 53.9998 75.0456 53.9998C75.0594 53.9998 75.0732 53.9998 75.0871 53.9998C75.1148 53.9998 75.1355 53.9998 75.1493 53.9998C75.1631 53.9998 75.1839 53.9998 75.2116 53.9998C76.4979 53.9998 77.7496 53.8407 78.9667 53.5226C80.1839 53.2183 81.3181 52.7757 82.3692 52.1949L82.307 52.2571C83.3858 51.69 84.3609 51.0192 85.2323 50.2446C86.1036 49.4563 86.8783 48.5849 87.556 47.6306L87.5767 47.5683C88.2406 48.5364 89.0012 49.4147 89.8588 50.2032C90.7302 50.9777 91.6708 51.6415 92.6803 52.1949L92.7426 52.2363C93.7939 52.7896 94.928 53.2183 96.1451 53.5227C97.3622 53.8408 98.6278 53.9999 99.9418 53.9999C99.9418 53.9999 99.9489 53.9999 99.9625 53.9999C99.9764 53.9999 99.9971 53.9999 100.025 53.9999C100.039 53.9999 100.052 53.9999 100.066 53.9999C100.08 53.9999 100.087 53.9999 100.087 53.9999C101.097 53.9999 102.079 53.8962 103.033 53.6887C103.988 53.4811 104.9 53.1839 105.772 52.7965C106.657 52.4231 107.487 51.9666 108.261 51.4272C109.036 50.874 109.748 50.2585 110.398 49.5808C111.062 48.9169 111.65 48.1838 112.162 47.3817C112.673 46.5932 113.109 45.7564 113.469 44.8712C113.828 43.9861 114.105 43.0593 114.299 42.0912C114.506 41.1368 114.61 40.141 114.61 39.1036C114.61 39.0898 114.61 39.0759 114.61 39.0621C114.61 39.0483 114.61 39.0345 114.61 39.0206L114.61 39.0207ZM47.2034 36.3029V29.9336H54.2781C54.2919 29.9336 54.2988 29.9336 54.2988 29.9336C54.7415 29.9336 55.1495 30.0166 55.5229 30.1826C55.8964 30.3347 56.2352 30.556 56.5395 30.8465H56.5187C56.8092 31.1369 57.0306 31.4689 57.1827 31.8423C57.3486 32.2157 57.4316 32.6169 57.4316 33.0456C57.4316 33.0456 57.4316 33.0527 57.4316 33.0664C57.4316 33.0802 57.4316 33.0872 57.4316 33.0872C57.4316 33.1148 57.4316 33.1287 57.4316 33.1287C57.4316 33.1287 57.4316 33.1425 57.4316 33.1702C57.4316 33.5852 57.3486 33.9863 57.1827 34.3735C57.0306 34.747 56.8161 35.0789 56.5395 35.3694H56.5187C56.2283 35.6598 55.8964 35.8881 55.5229 36.054C55.1495 36.22 54.7415 36.303 54.2988 36.303C54.2988 36.303 54.2917 36.303 54.2781 36.303L47.2034 36.3029ZM47.2034 48.0664V41.5311H55.6473C55.6612 41.5311 55.6681 41.5311 55.6681 41.5311C56.1245 41.5311 56.5533 41.614 56.9544 41.78C57.3693 41.946 57.7359 42.1674 58.0539 42.444C58.3583 42.7343 58.6004 43.0802 58.7801 43.4812C58.9599 43.8823 59.0498 44.3042 59.0498 44.7468C59.0498 44.7468 59.0498 44.7539 59.0498 44.7676C59.0498 45.2379 58.9599 45.6736 58.7801 46.0746C58.6004 46.4757 58.3513 46.8285 58.0333 47.1327C57.729 47.437 57.3693 47.6722 56.9544 47.8381C56.5533 48.0041 56.1176 48.0871 55.6473 48.0871H47.2034V48.0664Z" fill="#00522E"/>
</svg>
