<svg width="179" height="36" viewBox="0 0 179 36" fill="none" xmlns="http://www.w3.org/2000/svg">
<path d="M18.7192 0H8.26348V0.871307H11.6147V18.1634C11.6147 23.3242 10.1401 24.7987 6.923 24.7987C5.71658 24.9328 4.6442 24.0615 4.51016 22.855C4.51016 22.721 4.51016 22.5869 4.51016 22.4529C4.51016 20.5762 4.37611 19.4368 2.70052 19.4368C1.02493 19.4368 0.756836 21.1794 0.756836 21.7156C0.756836 24.1285 1.82921 25.9381 6.58789 25.9381C12.2849 25.9381 15.301 24.0615 15.301 17.6942V0.871307H18.7862L18.7192 0Z" fill="#9B9B9B"/>
<path d="M20.0595 21.8501C19.5234 21.8501 18.9872 22.0512 18.585 22.4533C18.1829 22.8555 17.9818 23.3916 17.9818 23.9278C17.9818 24.464 18.1829 25.0002 18.585 25.3353C18.9872 25.7375 19.5234 25.9385 20.0595 25.9385C20.5957 25.9385 21.1319 25.7375 21.5341 25.3353C21.9362 24.9332 22.1373 24.464 22.1373 23.9278C22.1373 22.7884 21.266 21.9171 20.1266 21.9171H20.0595" fill="#9B9B9B"/>
<path d="M43.3169 21.8492C42.2445 21.8492 41.3062 22.7206 41.2391 23.7929V23.86C41.2391 24.3961 41.5072 24.9323 41.9094 25.2675C42.3115 25.6696 42.8477 25.8707 43.3839 25.8707C43.9201 25.8707 44.4563 25.6696 44.8584 25.2675C45.2606 24.9323 45.4616 24.3961 45.4616 23.86C45.4616 23.3238 45.2606 22.7876 44.8584 22.3854C44.4563 21.9833 43.9871 21.7822 43.4509 21.7822" fill="#9B9B9B"/>
<path d="M36.0784 0H25.7568V0.871307H28.7728V20.5762C28.8398 21.3805 28.7728 22.1848 28.5047 22.9891C28.2366 23.5253 27.7675 23.9944 27.2313 24.1285C26.6281 24.3296 25.9578 24.4636 25.2876 24.4636V25.2679H36.2124V24.4636C35.4752 24.4636 34.8049 24.3966 34.1347 24.1955C33.5315 23.9944 33.0623 23.5923 32.8613 23.0561C32.6602 22.5199 32.5261 21.9837 32.5932 21.4475V14.6111H35.3411C43.2499 14.6111 45.4617 11.461 45.4617 7.23855C45.4617 3.01606 44.0542 0 36.0784 0ZM34.6039 13.6058H32.5261V1.00535H34.4028C40.502 1.00535 41.9765 3.48523 41.9765 7.50664C41.9765 11.5281 39.5636 13.7398 34.7379 13.7398" fill="#9B9B9B"/>
<path d="M78.102 22.9219C77.9009 22.3857 77.8339 21.7825 77.9009 21.1793V0.871177H80.6489V0.0668945H74.1476L66.2388 19.3027C66.2388 19.3697 66.1718 19.4367 66.1048 19.4367C66.0378 19.4367 65.9707 19.3697 65.9037 19.3027C65.9037 19.3027 57.7268 0.267965 57.6598 0.0668945H50.4213V0.871177H53.5714V22.2517C53.5714 22.7209 53.3703 23.123 53.1692 23.5251C52.9011 23.9273 52.499 24.1954 52.0298 24.3294C51.5607 24.4635 51.0245 24.4635 50.5553 24.4635V25.2678H57.7268V24.4635C57.2577 24.4635 56.8555 24.3965 56.4534 24.2624C55.9172 24.1284 55.5151 23.8603 55.1799 23.4581C54.9118 23.056 54.7778 22.6538 54.7108 22.1847L54.6438 20.375V3.4851H55.0459C55.0459 3.4851 64.3622 24.9997 64.3622 25.2678H65.2335L74.0136 3.68617H74.2146V21.0453C74.2146 21.6485 74.1476 22.2517 74.0136 22.8549C73.8125 23.3911 73.4103 23.7932 72.9412 23.9943C72.338 24.1954 71.7348 24.3294 71.1315 24.3294V25.1337H81.1181V24.3294C80.5148 24.3294 79.8446 24.1954 79.2414 23.9943C78.7052 23.7262 78.3031 23.2571 78.102 22.7209" fill="#9B9B9B"/>
<path d="M91.5737 6.76953C86.2118 6.76953 82.8606 10.2548 82.8606 16.4209C82.8606 25.4691 89.8981 26.0053 91.4396 26.0053C94.4557 26.0053 100.153 24.1286 100.153 16.2199C100.086 10.0537 96.4664 6.76953 91.5737 6.76953ZM91.5066 24.8659C87.4852 24.8659 86.882 22.8552 86.882 16.4879C86.882 11.5282 87.2171 7.77488 91.5066 7.77488C96.1313 7.77488 96.1983 11.6623 96.1983 16.0858C96.1983 22.5871 95.0589 24.8659 91.5066 24.8659Z" fill="#9B9B9B"/>
<path d="M114.094 7.0376C110.877 7.0376 109.938 8.91426 109 10.8579H108.732C108.732 10.8579 108.263 8.10997 108.129 7.23867H101.895V8.177H105.247V20.7104C105.314 21.5817 105.18 22.453 104.844 23.2573C104.509 23.8605 103.705 24.1956 102.499 24.1956H101.962V25.335H112.284V24.1956H111.815C110.474 24.1956 109.871 23.9275 109.536 23.3243C109.201 22.52 109 21.5817 109.134 20.7104V14.2091C109.134 12.0644 110.81 9.51747 112.753 9.51747C114.764 9.51747 114.764 12.6676 117.11 11.3941C118.316 10.6569 118.048 7.0376 114.094 7.0376Z" fill="#9B9B9B"/>
<path d="M155.313 23.3915C154.174 23.3915 153.839 22.7883 153.772 21.7829V11.8635C153.906 10.523 153.436 9.11549 152.498 8.11014C151.56 7.17181 149.683 6.63562 147.002 6.63562C144.991 6.50158 143.048 6.97074 141.305 8.04312C140.3 8.64633 139.697 9.78573 139.697 10.9251C139.63 11.3943 139.831 11.8635 140.166 12.1986C140.501 12.4667 140.903 12.6007 141.305 12.6007C142.311 12.6007 142.914 12.0645 143.115 10.7241C143.115 9.91978 143.45 9.18252 143.919 8.57931C144.589 7.97609 145.528 7.64098 146.399 7.77502C147.404 7.64098 148.477 8.04312 149.147 8.8474C149.683 9.65168 149.884 10.523 149.884 11.4613V14.6114C146.6 14.8795 138.758 15.5498 139.093 21.4478C139.362 23.9277 141.506 25.8044 143.986 25.7373C146.332 25.6703 148.544 24.5979 150.018 22.7213C150.353 24.3969 151.828 25.5363 153.503 25.4692C155.916 25.4692 157.391 24.2628 157.525 21.3808H156.922C156.788 22.7213 155.983 23.3915 155.313 23.3915ZM149.884 21.4478C149.884 21.5149 149.884 21.5149 149.884 21.5819V21.6489C148.812 22.8553 147.337 23.5926 145.729 23.7937C144.187 23.8607 142.847 22.6543 142.78 21.0457C142.78 20.9116 142.78 20.7776 142.78 20.6435C142.78 17.2924 147.404 15.6168 149.951 15.6168L149.884 21.4478Z" fill="#9B9B9B"/>
<path d="M176.493 23.2574C176.023 22.4531 175.822 21.5148 175.822 20.5764V12.3996C175.889 11.3272 175.688 10.3218 175.219 9.38351C174.817 8.64625 174.147 7.97602 173.41 7.57387C172.538 7.17173 171.6 6.97066 170.662 6.97066C168.182 6.90364 165.903 8.24411 164.764 10.4559H164.361L163.691 7.17173H158.128V8.11006H160.943V20.5764C160.943 21.3137 160.876 21.9839 160.742 22.7212C160.608 23.2574 160.206 23.7266 159.67 23.8606C159.201 24.0617 158.664 24.1287 158.128 24.1287V25.2681H167.042V24.1287C166.372 24.1957 165.702 23.8606 165.233 23.3914C164.831 22.5872 164.629 21.7158 164.764 20.8445V16.0859C164.562 14.3433 164.831 12.6006 165.434 10.9251C166.171 9.65161 167.578 8.84732 169.053 8.91435C170.058 8.7803 171.064 9.31649 171.533 10.1878C172.002 11.5283 172.203 13.0028 172.136 14.4103V20.3084C172.203 21.0456 172.203 21.7829 172.136 22.5201C172.069 23.0563 171.801 23.5255 171.332 23.7936C170.863 24.0617 170.393 24.1957 169.924 24.1957V25.3351H178.57V24.1957C177.498 24.0617 176.828 23.7936 176.493 23.2574Z" fill="#9B9B9B"/>
<path d="M136.078 6.03214C135.474 6.30024 135.072 6.83643 135.005 7.43964C134.871 8.1769 134.603 8.57904 134.201 8.71309C133.799 8.84713 133.33 8.78011 132.927 8.64606C131.319 7.23857 129.174 6.56833 127.096 6.70238C123.41 6.43429 120.126 9.18225 119.858 12.8685C119.858 13.1366 119.858 13.4047 119.858 13.6728C119.858 17.5602 121.332 19.3028 124.549 20.0401C124.751 20.0401 124.751 20.3082 124.549 20.3082C121.801 20.7773 119.389 21.5816 119.389 24.2626C119.389 25.536 120.193 26.6754 121.399 27.0775C123.142 27.6808 124.952 27.9489 126.761 27.8818C128.169 27.8818 129.643 27.9489 131.051 28.0829C131.855 28.1499 132.659 28.418 133.397 28.8872C134 29.4234 134.335 30.1606 134.268 30.9649C134.268 32.2384 133.464 33.3778 132.324 33.8469C130.783 34.5842 129.107 34.9193 127.431 34.8523C125.89 34.9863 124.281 34.6512 122.941 33.8469C122.137 33.2437 121.734 32.2384 122.003 31.3C122.271 30.5628 121.869 29.6915 121.064 29.4234H120.863C120.26 29.3563 119.657 29.6244 119.322 30.0936C119.054 30.5628 118.852 31.166 118.919 31.7692C118.987 33.5118 120.193 34.9193 121.936 35.2544C123.544 35.7906 125.22 35.9917 126.895 35.9917C128.839 36.0587 130.783 35.7236 132.592 34.9193C134.737 33.981 136.212 31.9032 136.212 29.5574C136.279 28.418 135.943 27.3456 135.34 26.4073C133.531 23.9274 130.984 24.2626 125.22 23.9945C122.472 23.9945 121.936 23.5253 121.936 22.721C121.936 21.4476 122.941 20.9784 126.895 20.3752C130.85 19.772 134.536 18.2975 134.536 13.5388C134.536 12.3994 134.335 11.193 133.799 10.1206C134.536 10.3217 135.34 10.3217 136.078 10.1206C136.748 9.91951 137.351 9.45035 137.686 8.84713C138.021 8.37797 138.155 7.70773 138.021 7.17154C137.686 6.16619 137.016 5.76405 136.078 6.03214ZM127.163 19.2358C124.818 19.2358 123.41 18.3645 123.41 13.6058C123.41 10.2546 124.549 7.77476 127.163 7.77476C130.112 7.77476 130.917 10.0536 130.917 13.5388C130.85 18.4985 129.308 19.2358 127.163 19.2358Z" fill="#9B9B9B"/>
</svg>
