<svg width="197" height="80" viewBox="0 0 197 80" fill="none" xmlns="http://www.w3.org/2000/svg">
<path d="M55.9686 28H47.2555V28.7261H50.0482V43.1362C50.0482 47.4368 48.8194 48.6656 46.1385 48.6656C45.1331 48.7773 44.2395 48.0512 44.1278 47.0459C44.1278 46.9342 44.1278 46.8225 44.1278 46.7107C44.1278 45.1469 44.0161 44.1974 42.6197 44.1974C41.2234 44.1974 41 45.6495 41 46.0964C41 48.1071 41.8936 49.6151 45.8592 49.6151C50.6067 49.6151 53.1201 48.0512 53.1201 42.7452V28.7261H56.0244L55.9686 28Z" fill="#333333" fill-opacity="0.7"/>
<path d="M57.0857 46.2085C56.6389 46.2085 56.192 46.3761 55.8569 46.7112C55.5218 47.0463 55.3542 47.4931 55.3542 47.9399C55.3542 48.3868 55.5218 48.8336 55.8569 49.1129C56.192 49.448 56.6389 49.6155 57.0857 49.6155C57.5325 49.6155 57.9793 49.448 58.3145 49.1129C58.6496 48.7777 58.8171 48.3868 58.8171 47.9399C58.8171 46.9904 58.091 46.2644 57.1415 46.2644H57.0857" fill="#333333" fill-opacity="0.7"/>
<path d="M76.4668 46.2077C75.5731 46.2077 74.7912 46.9338 74.7354 47.8274V47.8833C74.7354 48.3301 74.9588 48.7769 75.2939 49.0562C75.629 49.3913 76.0758 49.5589 76.5226 49.5589C76.9695 49.5589 77.4163 49.3913 77.7514 49.0562C78.0865 48.7769 78.2541 48.3301 78.2541 47.8833C78.2541 47.4365 78.0865 46.9896 77.7514 46.6545C77.4163 46.3194 77.0253 46.1519 76.5785 46.1519" fill="#333333" fill-opacity="0.7"/>
<path d="M70.4346 28H61.8333V28.7261H64.3466V45.1469C64.4025 45.8171 64.3466 46.4873 64.1232 47.1576C63.8998 47.6044 63.5089 47.9954 63.062 48.1071C62.5594 48.2746 62.0008 48.3863 61.4423 48.3863V49.0566H70.5463V48.3863C69.9319 48.3863 69.3734 48.3305 68.8149 48.1629C68.3122 47.9954 67.9212 47.6602 67.7537 47.2134C67.5861 46.7666 67.4744 46.3198 67.5303 45.873V40.1759H69.8202C76.4109 40.1759 78.254 37.5509 78.254 34.0321C78.254 30.5134 77.0811 28 70.4346 28ZM69.2059 39.3382H67.4744V28.8378H69.0383C74.1209 28.8378 75.3497 30.9044 75.3497 34.2555C75.3497 37.6067 73.339 39.4499 69.3176 39.4499" fill="#333333" fill-opacity="0.7"/>
<path d="M105.454 47.1015C105.287 46.6547 105.231 46.152 105.287 45.6494V28.7259H107.577V28.0557H102.159L95.5684 44.0855C95.5684 44.1413 95.5126 44.1972 95.4567 44.1972C95.4009 44.1972 95.345 44.1413 95.2892 44.0855C95.2892 44.0855 88.4751 28.2232 88.4192 28.0557H82.3871V28.7259H85.0122V46.543C85.0122 46.934 84.8446 47.2691 84.6771 47.6042C84.4537 47.9393 84.1186 48.1627 83.7276 48.2744C83.3366 48.3861 82.8898 48.3862 82.4988 48.3862V49.0564H88.4751V48.3862C88.0841 48.3862 87.749 48.3303 87.4139 48.2186C86.9671 48.1069 86.6319 47.8835 86.3527 47.5484C86.1293 47.2132 86.0176 46.8781 85.9617 46.4871L85.9059 44.9791V30.9042H86.241C86.241 30.9042 94.0045 48.833 94.0045 49.0564H94.7306L102.047 31.0717H102.215V45.5376C102.215 46.0403 102.159 46.543 102.047 47.0457C101.88 47.4925 101.545 47.8276 101.154 47.9952C100.651 48.1627 100.148 48.2744 99.6457 48.2744V48.9447H107.968V48.2744C107.465 48.2744 106.907 48.1627 106.404 47.9952C105.957 47.7718 105.622 47.3808 105.454 46.934" fill="#333333" fill-opacity="0.7"/>
<path d="M116.681 33.6411C112.212 33.6411 109.42 36.5455 109.42 41.6839C109.42 49.2241 115.284 49.6709 116.569 49.6709C119.082 49.6709 123.83 48.107 123.83 41.5164C123.774 36.3779 120.758 33.6411 116.681 33.6411ZM116.625 48.7214C113.274 48.7214 112.771 47.0458 112.771 41.7398C112.771 37.6067 113.05 34.4789 116.625 34.4789C120.479 34.4789 120.535 37.7184 120.535 41.4047C120.535 46.8224 119.585 48.7214 116.625 48.7214Z" fill="#333333" fill-opacity="0.7"/>
<path d="M135.447 33.8643C132.767 33.8643 131.985 35.4281 131.203 37.0479H130.979C130.979 37.0479 130.588 34.7579 130.477 34.0318H125.282V34.8138H128.075V45.2583C128.131 45.9844 128.019 46.7104 127.74 47.3807C127.46 47.8834 126.79 48.1626 125.785 48.1626H125.338V49.1121H133.939V48.1626H133.548C132.431 48.1626 131.929 47.9392 131.649 47.4365C131.37 46.7663 131.203 45.9844 131.314 45.2583V39.8405C131.314 38.0532 132.711 35.9308 134.33 35.9308C136.006 35.9308 136.006 38.5559 137.961 37.4947C138.966 36.8803 138.743 33.8643 135.447 33.8643Z" fill="#333333" fill-opacity="0.7"/>
<path d="M169.797 47.4931C168.847 47.4931 168.568 46.9904 168.512 46.1526V37.8864C168.624 36.7693 168.233 35.5964 167.451 34.7586C166.669 33.9767 165.105 33.5298 162.871 33.5298C161.196 33.4181 159.576 33.8091 158.124 34.7028C157.286 35.2054 156.783 36.1549 156.783 37.1044C156.727 37.4954 156.895 37.8864 157.174 38.1656C157.453 38.3891 157.789 38.5008 158.124 38.5008C158.961 38.5008 159.464 38.0539 159.632 36.9369C159.632 36.2666 159.911 35.6523 160.302 35.1496C160.86 34.6469 161.642 34.3676 162.368 34.4793C163.206 34.3676 164.1 34.7028 164.658 35.373C165.105 36.0432 165.273 36.7693 165.273 37.5513V40.1764C162.536 40.3998 156.001 40.9583 156.28 45.8734C156.504 47.9399 158.291 49.5038 160.358 49.4479C162.313 49.3921 164.156 48.4984 165.385 46.9346C165.664 48.3309 166.893 49.2804 168.289 49.2245C170.3 49.2245 171.528 48.2192 171.64 45.8175H171.137C171.026 46.9346 170.355 47.4931 169.797 47.4931ZM165.273 45.8734C165.273 45.9292 165.273 45.9292 165.273 45.9851V46.0409C164.379 47.0463 163.15 47.6607 161.81 47.8282C160.525 47.8841 159.408 46.8787 159.352 45.5382C159.352 45.4265 159.352 45.3148 159.352 45.2031C159.352 42.4105 163.206 41.0141 165.329 41.0141L165.273 45.8734Z" fill="#333333" fill-opacity="0.7"/>
<path d="M187.446 47.3814C187.056 46.7112 186.888 45.9292 186.888 45.1473V38.3332C186.944 37.4396 186.776 36.6018 186.385 35.8198C186.05 35.2055 185.492 34.6469 184.877 34.3118C184.151 33.9767 183.369 33.8091 182.587 33.8091C180.521 33.7533 178.622 34.8703 177.672 36.7135H177.337L176.779 33.9767H172.143V34.7586H174.489V45.1473C174.489 45.7617 174.433 46.3202 174.321 46.9346C174.209 47.3814 173.874 47.7724 173.427 47.8841C173.036 48.0516 172.59 48.1075 172.143 48.1075V49.057H179.571V48.1075C179.013 48.1633 178.454 47.8841 178.063 47.4931C177.728 46.8229 177.56 46.0968 177.672 45.3707V41.4051C177.505 39.953 177.728 38.5008 178.231 37.1045C178.845 36.0432 180.018 35.373 181.247 35.4289C182.085 35.3172 182.922 35.764 183.313 36.4901C183.704 37.6071 183.872 38.8359 183.816 40.0088V44.9239C183.872 45.5383 183.872 46.1526 183.816 46.767C183.76 47.2138 183.537 47.6048 183.146 47.8282C182.755 48.0516 182.364 48.1633 181.973 48.1633V49.1128H189.178V48.1633C188.284 48.0516 187.726 47.8282 187.446 47.3814Z" fill="#333333" fill-opacity="0.7"/>
<path d="M153.767 33.0269C153.265 33.2504 152.929 33.6972 152.874 34.1999C152.762 34.8142 152.538 35.1494 152.203 35.2611C151.868 35.3728 151.477 35.3169 151.142 35.2052C149.802 34.0323 148.014 33.4738 146.283 33.5855C143.211 33.3621 140.474 35.652 140.251 38.724C140.251 38.9474 140.251 39.1708 140.251 39.3942C140.251 42.6337 141.48 44.0858 144.161 44.7002C144.328 44.7002 144.328 44.9236 144.161 44.9236C141.871 45.3146 139.86 45.9848 139.86 48.219C139.86 49.2802 140.53 50.2297 141.535 50.5648C142.988 51.0675 144.496 51.2909 146.004 51.235C147.177 51.235 148.405 51.2909 149.578 51.4026C150.248 51.4584 150.919 51.6818 151.533 52.0728C152.036 52.5196 152.315 53.134 152.259 53.8043C152.259 54.8655 151.589 55.815 150.639 56.2059C149.355 56.8203 147.959 57.0996 146.562 57.0437C145.278 57.1554 143.937 56.8762 142.82 56.2059C142.15 55.7033 141.815 54.8655 142.038 54.0835C142.262 53.4691 141.926 52.743 141.256 52.5196H141.089C140.586 52.4638 140.083 52.6872 139.804 53.0782C139.581 53.4691 139.413 53.9718 139.469 54.4745C139.525 55.9267 140.53 57.0996 141.982 57.3788C143.323 57.8257 144.719 57.9932 146.115 57.9932C147.735 58.0491 149.355 57.7698 150.863 57.0996C152.65 56.3176 153.879 54.5862 153.879 52.6313C153.935 51.6818 153.656 50.7882 153.153 50.0063C151.645 47.9397 149.522 48.219 144.719 47.9955C142.429 47.9955 141.982 47.6046 141.982 46.9343C141.982 45.8731 142.82 45.4822 146.115 44.9795C149.411 44.4768 152.483 43.248 152.483 39.2825C152.483 38.333 152.315 37.3276 151.868 36.434C152.483 36.6015 153.153 36.6015 153.767 36.434C154.326 36.2664 154.828 35.8755 155.108 35.3728C155.387 34.9818 155.499 34.4233 155.387 33.9764C155.108 33.1387 154.549 32.8035 153.767 33.0269ZM146.339 44.03C144.384 44.03 143.211 43.3039 143.211 39.3383C143.211 36.5457 144.161 34.4791 146.339 34.4791C148.796 34.4791 149.467 36.3781 149.467 39.2825C149.411 43.4156 148.126 44.03 146.339 44.03Z" fill="#333333" fill-opacity="0.7"/>
</svg>
