<svg width="197" height="80" viewBox="0 0 197 80" fill="none" xmlns="http://www.w3.org/2000/svg">
<path d="M55.9686 28.0001H47.2555V28.7262H50.0482V43.1363C50.0482 47.437 48.8194 48.6657 46.1385 48.6657C45.1331 48.7774 44.2395 48.0513 44.1278 47.046C44.1278 46.9343 44.1278 46.8226 44.1278 46.7109C44.1278 45.147 44.0161 44.1975 42.6197 44.1975C41.2234 44.1975 41 45.6497 41 46.0965C41 48.1072 41.8936 49.6152 45.8592 49.6152C50.6067 49.6152 53.1201 48.0513 53.1201 42.7453V28.7262H56.0244L55.9686 28.0001Z" fill="black"/>
<path d="M57.0857 46.2085C56.6389 46.2085 56.192 46.3761 55.8569 46.7112C55.5218 47.0463 55.3542 47.4931 55.3542 47.9399C55.3542 48.3868 55.5218 48.8336 55.8569 49.1129C56.192 49.448 56.6389 49.6155 57.0857 49.6155C57.5325 49.6155 57.9793 49.448 58.3145 49.1129C58.6496 48.7777 58.8171 48.3868 58.8171 47.9399C58.8171 46.9904 58.091 46.2644 57.1415 46.2644H57.0857" fill="black"/>
<path d="M76.4668 46.2081C75.5731 46.2081 74.7912 46.9342 74.7354 47.8278V47.8837C74.7354 48.3305 74.9588 48.7773 75.2939 49.0566C75.629 49.3917 76.0758 49.5593 76.5226 49.5593C76.9695 49.5593 77.4163 49.3917 77.7514 49.0566C78.0865 48.7773 78.2541 48.3305 78.2541 47.8837C78.2541 47.4368 78.0865 46.99 77.7514 46.6549C77.4163 46.3198 77.0253 46.1522 76.5785 46.1522" fill="black"/>
<path d="M70.4347 28.0001H61.8334V28.7262H64.3467V45.147C64.4026 45.8172 64.3467 46.4875 64.1233 47.1577C63.8999 47.6045 63.5089 47.9955 63.0621 48.1072C62.5594 48.2748 62.0009 48.3865 61.4424 48.3865V49.0567H70.5464V48.3865C69.932 48.3865 69.3735 48.3306 68.815 48.163C68.3123 47.9955 67.9213 47.6604 67.7538 47.2135C67.5862 46.7667 67.4745 46.3199 67.5304 45.8731V40.1761H69.8203C76.411 40.1761 78.2541 37.551 78.2541 34.0322C78.2541 30.5135 77.0812 28.0001 70.4347 28.0001ZM69.2059 39.3383H67.4745V28.8379H69.0384C74.121 28.8379 75.3498 30.9045 75.3498 34.2557C75.3498 37.6068 73.3391 39.45 69.3177 39.45" fill="black"/>
<path d="M105.454 47.1018C105.287 46.655 105.231 46.1523 105.287 45.6496V28.7261H107.577V28.0559H102.159L95.5685 44.0857C95.5685 44.1416 95.5127 44.1974 95.4568 44.1974C95.401 44.1974 95.3451 44.1416 95.2892 44.0857C95.2892 44.0857 88.4752 28.2235 88.4193 28.0559H82.3872V28.7261H85.0123V46.5432C85.0123 46.9342 84.8447 47.2693 84.6772 47.6045C84.4538 47.9396 84.1187 48.163 83.7277 48.2747C83.3367 48.3864 82.8899 48.3864 82.4989 48.3864V49.0566H88.4752V48.3864C88.0842 48.3864 87.7491 48.3305 87.414 48.2188C86.9672 48.1071 86.632 47.8837 86.3528 47.5486C86.1294 47.2135 86.0177 46.8784 85.9618 46.4874L85.9059 44.9794V30.9044H86.2411C86.2411 30.9044 94.0046 48.8332 94.0046 49.0566H94.7307L102.047 31.072H102.215V45.5379C102.215 46.0406 102.159 46.5432 102.047 47.0459C101.88 47.4927 101.545 47.8279 101.154 47.9954C100.651 48.163 100.148 48.2747 99.6458 48.2747V48.9449H107.968V48.2747C107.465 48.2747 106.907 48.163 106.404 47.9954C105.957 47.772 105.622 47.381 105.454 46.9342" fill="black"/>
<path d="M116.681 33.6412C112.213 33.6412 109.42 36.5456 109.42 41.6841C109.42 49.2242 115.284 49.671 116.569 49.671C119.082 49.671 123.83 48.1072 123.83 41.5165C123.774 36.378 120.758 33.6412 116.681 33.6412ZM116.625 48.7215C113.274 48.7215 112.771 47.0459 112.771 41.7399C112.771 37.6068 113.05 34.479 116.625 34.479C120.479 34.479 120.535 37.7185 120.535 41.4048C120.535 46.8225 119.585 48.7215 116.625 48.7215Z" fill="black"/>
<path d="M135.447 33.8646C132.767 33.8646 131.985 35.4285 131.203 37.0482H130.979C130.979 37.0482 130.588 34.7583 130.477 34.0322H125.282V34.8141H128.075V45.2586C128.131 45.9847 128.019 46.7108 127.74 47.381C127.46 47.8837 126.79 48.163 125.785 48.163H125.338V49.1125H133.939V48.163H133.548C132.431 48.163 131.929 47.9396 131.649 47.4369C131.37 46.7667 131.203 45.9847 131.314 45.2586V39.8409C131.314 38.0536 132.711 35.9312 134.33 35.9312C136.006 35.9312 136.006 38.5563 137.961 37.4951C138.966 36.8807 138.743 33.8646 135.447 33.8646Z" fill="black"/>
<path d="M169.797 47.4931C168.847 47.4931 168.568 46.9904 168.512 46.1526V37.8864C168.624 36.7693 168.233 35.5964 167.451 34.7586C166.669 33.9767 165.105 33.5298 162.871 33.5298C161.195 33.4181 159.576 33.8091 158.124 34.7028C157.286 35.2054 156.783 36.1549 156.783 37.1044C156.727 37.4954 156.895 37.8864 157.174 38.1656C157.453 38.3891 157.788 38.5008 158.124 38.5008C158.961 38.5008 159.464 38.0539 159.632 36.9369C159.632 36.2666 159.911 35.6523 160.302 35.1496C160.86 34.6469 161.642 34.3676 162.368 34.4793C163.206 34.3676 164.1 34.7028 164.658 35.373C165.105 36.0432 165.273 36.7693 165.273 37.5513V40.1764C162.536 40.3998 156.001 40.9583 156.28 45.8734C156.504 47.9399 158.291 49.5038 160.358 49.4479C162.313 49.3921 164.156 48.4984 165.384 46.9346C165.664 48.3309 166.892 49.2804 168.289 49.2245C170.3 49.2245 171.528 48.2192 171.64 45.8175H171.137C171.026 46.9346 170.355 47.4931 169.797 47.4931ZM165.273 45.8734C165.273 45.9292 165.273 45.9292 165.273 45.9851V46.0409C164.379 47.0463 163.15 47.6607 161.81 47.8282C160.525 47.8841 159.408 46.8787 159.352 45.5382C159.352 45.4265 159.352 45.3148 159.352 45.2031C159.352 42.4105 163.206 41.0141 165.329 41.0141L165.273 45.8734Z" fill="black"/>
<path d="M187.447 47.3815C187.056 46.7113 186.888 45.9293 186.888 45.1474V38.3333C186.944 37.4397 186.776 36.6019 186.385 35.82C186.05 35.2056 185.492 34.647 184.877 34.3119C184.151 33.9768 183.369 33.8093 182.587 33.8093C180.521 33.7534 178.622 34.8705 177.672 36.7136H177.337L176.779 33.9768H172.143V34.7588H174.489V45.1474C174.489 45.7618 174.433 46.3203 174.321 46.9347C174.209 47.3815 173.874 47.7725 173.427 47.8842C173.036 48.0518 172.59 48.1076 172.143 48.1076V49.0571H179.571V48.1076C179.013 48.1635 178.454 47.8842 178.063 47.4932C177.728 46.823 177.561 46.0969 177.672 45.3708V41.4053C177.505 39.9531 177.728 38.5009 178.231 37.1046C178.845 36.0434 180.018 35.3731 181.247 35.429C182.085 35.3173 182.922 35.7641 183.313 36.4902C183.704 37.6073 183.872 38.836 183.816 40.0089V44.924C183.872 45.5384 183.872 46.1528 183.816 46.7671C183.76 47.214 183.537 47.6049 183.146 47.8283C182.755 48.0518 182.364 48.1635 181.973 48.1635V49.113H189.178V48.1635C188.284 48.0518 187.726 47.8284 187.447 47.3815Z" fill="black"/>
<path d="M153.767 33.0269C153.265 33.2504 152.929 33.6972 152.874 34.1999C152.762 34.8142 152.538 35.1494 152.203 35.2611C151.868 35.3728 151.477 35.3169 151.142 35.2052C149.802 34.0323 148.014 33.4738 146.283 33.5855C143.211 33.3621 140.474 35.652 140.251 38.724C140.251 38.9474 140.251 39.1708 140.251 39.3942C140.251 42.6337 141.48 44.0858 144.16 44.7002C144.328 44.7002 144.328 44.9236 144.16 44.9236C141.871 45.3146 139.86 45.9848 139.86 48.219C139.86 49.2802 140.53 50.2297 141.535 50.5648C142.988 51.0675 144.496 51.2909 146.004 51.235C147.177 51.235 148.405 51.2909 149.578 51.4026C150.248 51.4584 150.919 51.6818 151.533 52.0728C152.036 52.5196 152.315 53.134 152.259 53.8043C152.259 54.8655 151.589 55.815 150.639 56.2059C149.355 56.8203 147.958 57.0996 146.562 57.0437C145.278 57.1554 143.937 56.8762 142.82 56.2059C142.15 55.7033 141.815 54.8655 142.038 54.0835C142.261 53.4691 141.926 52.743 141.256 52.5196H141.089C140.586 52.4638 140.083 52.6872 139.804 53.0782C139.581 53.4691 139.413 53.9718 139.469 54.4745C139.525 55.9267 140.53 57.0996 141.982 57.3788C143.323 57.8257 144.719 57.9932 146.115 57.9932C147.735 58.0491 149.355 57.7698 150.863 57.0996C152.65 56.3176 153.879 54.5862 153.879 52.6313C153.935 51.6818 153.655 50.7882 153.153 50.0063C151.645 47.9397 149.522 48.219 144.719 47.9955C142.429 47.9955 141.982 47.6046 141.982 46.9343C141.982 45.8731 142.82 45.4822 146.115 44.9795C149.411 44.4768 152.483 43.248 152.483 39.2825C152.483 38.333 152.315 37.3276 151.868 36.434C152.483 36.6015 153.153 36.6015 153.767 36.434C154.326 36.2664 154.828 35.8755 155.108 35.3728C155.387 34.9818 155.499 34.4233 155.387 33.9765C155.108 33.1387 154.549 32.8035 153.767 33.0269ZM146.339 44.03C144.384 44.03 143.211 43.3039 143.211 39.3383C143.211 36.5457 144.16 34.4791 146.339 34.4791C148.796 34.4791 149.467 36.3781 149.467 39.2825C149.411 43.4156 148.126 44.03 146.339 44.03Z" fill="black"/>
</svg>
