<svg width="45" height="44" viewBox="0 0 45 44" fill="none" xmlns="http://www.w3.org/2000/svg">
<circle cx="22.5" cy="22" r="22" fill="#E5E7EA"/>
<g clip-path="url(#clip0_1519_148652)">
<path d="M27.4447 15.1116C27.4447 15.1116 25.979 15.865 25.4956 15.5973C25.4956 15.5973 25.737 16.0835 26.307 15.9621" fill="url(#paint0_linear_1519_148652)"/>
<path d="M26.396 15.884C26.396 15.884 25.8744 16.3749 25.6162 16.2318C25.6589 16.297 25.7172 16.3506 25.7858 16.3878C25.8544 16.425 25.9311 16.4446 26.0092 16.4448" fill="url(#paint1_linear_1519_148652)"/>
<path d="M13.2056 11.1027C13.2056 11.1027 12.9187 10.4072 12.2377 10.0461C12.2377 10.0461 12.0291 14.5088 14.1213 16.0189C16 17.3759 13.2056 11.1027 13.2056 11.1027Z" fill="url(#paint2_linear_1519_148652)"/>
<path d="M14.2212 16.1047C14.2212 16.1047 13.5973 15.5411 13.0415 15.6332C13.0415 15.6332 14.2554 18.7235 15.9831 19.6679C17.7108 20.6123 14.2212 16.1047 14.2212 16.1047Z" fill="url(#paint3_linear_1519_148652)"/>
<path d="M16.0746 19.6885C16.0746 19.6885 15.4389 19.3466 14.9946 19.5379C14.9946 19.5379 16.4876 21.52 18.4318 22.3777C18.6424 22.4705 20.14 23.2106 20.14 23.2106L16.0746 19.6885Z" fill="url(#paint4_linear_1519_148652)"/>
<path d="M33.5907 21.788C33.5907 21.788 33.9442 21.6472 34.3151 21.7672C34.3151 21.7672 32.7668 23.4169 31.4793 23.1894C30.3239 22.9851 33.5907 21.788 33.5907 21.788Z" fill="url(#paint5_linear_1519_148652)"/>
<path d="M31.4038 23.1494C31.4038 23.1494 31.8295 23.1633 31.9993 23.3926C31.9993 23.3926 30.4698 24.0921 29.5072 23.8272C28.5445 23.5624 31.4038 23.1494 31.4038 23.1494Z" fill="url(#paint6_linear_1519_148652)"/>
<path d="M29.6479 23.8105C29.6479 23.8105 30.007 23.8798 30.1205 24.0968C30.1205 24.0968 28.8788 24.3982 27.7475 24.4822C27.3056 24.5153 26.4536 24.5359 26.4536 24.5359L29.6479 23.8105Z" fill="url(#paint7_linear_1519_148652)"/>
<path d="M23.5748 24.6099C23.279 24.8276 22.9721 25.0298 22.6553 25.2155C22.9518 25.0009 23.2583 24.799 23.5748 24.6099Z" fill="url(#paint8_linear_1519_148652)"/>
<path d="M18.6714 18.6182C19.1024 19.1536 19.5599 19.667 20.0424 20.1566C19.5366 19.6894 19.0774 19.1742 18.6714 18.6182Z" fill="url(#paint9_linear_1519_148652)"/>
<path d="M23.5835 22.3293C23.7139 22.3776 23.8452 22.4232 23.9773 22.4661C23.842 22.4331 23.7102 22.3872 23.5835 22.3293Z" fill="url(#paint10_linear_1519_148652)"/>
<path d="M26.505 19.2266C26.5424 19.2969 26.5758 19.3693 26.6052 19.4433C26.5579 19.3697 26.5139 19.2938 26.4734 19.2156C26.4392 19.1501 26.407 19.0828 26.3774 19.0142C26.424 19.0825 26.4666 19.1534 26.505 19.2266Z" fill="url(#paint11_linear_1519_148652)"/>
<path d="M26.5355 21.2683C26.4864 21.3691 26.4296 21.466 26.3657 21.5581C26.4237 21.4625 26.4802 21.3657 26.5355 21.2683Z" fill="url(#paint12_linear_1519_148652)"/>
<path d="M26.4656 24.5205C26.4532 24.5359 26.441 24.5495 26.4282 24.5657L26.3413 24.5269C26.3825 24.5251 26.4239 24.5231 26.4656 24.5205Z" fill="url(#paint13_linear_1519_148652)"/>
<path d="M23.5748 24.6099C23.279 24.8276 22.9721 25.0298 22.6553 25.2155C22.9518 25.0009 23.2583 24.799 23.5748 24.6099Z" fill="url(#paint14_linear_1519_148652)"/>
<path d="M21.7442 28.9761C21.45 30.6161 20.7749 32.1641 19.7734 33.4957C18.7718 34.8272 17.4716 35.9051 15.9775 36.6426C16.3389 34.627 17.274 32.7585 18.6708 31.261C19.5477 30.3188 20.5893 29.5445 21.7442 28.9761Z" fill="url(#paint15_linear_1519_148652)"/>
<path d="M26.505 19.2266C26.5424 19.2969 26.5758 19.3693 26.6052 19.4433C26.5579 19.3697 26.5139 19.2938 26.4734 19.2156C26.4392 19.1501 26.407 19.0828 26.3774 19.0142C26.424 19.0825 26.4666 19.1534 26.505 19.2266Z" fill="url(#paint16_linear_1519_148652)"/>
<path d="M25.7881 22.4124C25.4377 22.9906 24.2099 24.1456 23.8564 24.3949C22.5637 24.196 21.31 23.796 20.141 23.2094C20.0098 23.1157 19.7125 22.9842 19.7125 22.9839C16.4124 21.1681 13.9591 17.8996 13.3317 13.8914C12.9826 11.6846 13.2297 9.42462 14.0475 7.34546C14.1112 7.50696 14.1771 7.66731 14.2451 7.8265C14.2826 8.18718 14.3295 8.54893 14.386 8.91174C14.937 12.4675 16.4151 15.8152 18.6716 18.618C19.0776 19.1741 19.5368 19.6893 20.0425 20.1565C21.4103 21.5448 24.0899 21.4611 25.7881 22.4124Z" fill="url(#paint17_linear_1519_148652)"/>
<path d="M18.6714 18.6182C19.1024 19.1536 19.5599 19.667 20.0424 20.1566C19.5366 19.6894 19.0774 19.1742 18.6714 18.6182Z" fill="url(#paint18_linear_1519_148652)"/>
<path d="M23.9773 22.4661C23.842 22.4331 23.7102 22.3872 23.5835 22.3293C23.7139 22.3778 23.8452 22.4234 23.9773 22.4661Z" fill="url(#paint19_linear_1519_148652)"/>
<path d="M23.5748 24.6099C23.279 24.8276 22.9721 25.0298 22.6553 25.2155C22.9518 25.0009 23.2583 24.799 23.5748 24.6099Z" fill="url(#paint20_linear_1519_148652)"/>
<path d="M26.505 19.2266C26.5424 19.2969 26.5758 19.3693 26.6052 19.4433C26.5579 19.3697 26.5139 19.2938 26.4734 19.2156C26.4392 19.1501 26.407 19.0828 26.3774 19.0142C26.424 19.0825 26.4666 19.1534 26.505 19.2266Z" fill="url(#paint21_linear_1519_148652)"/>
<path d="M27.9572 14.9336C27.9219 14.9493 27.8871 14.9655 27.8526 14.9829C27.8526 14.9762 27.8526 14.9698 27.8506 14.9632C27.8859 14.9525 27.9216 14.9426 27.9572 14.9336Z" fill="url(#paint22_linear_1519_148652)"/>
<path d="M23.9773 22.4661C23.842 22.4331 23.7102 22.3872 23.5835 22.3293C23.7139 22.3778 23.8452 22.4234 23.9773 22.4661Z" fill="url(#paint23_linear_1519_148652)"/>
<path d="M26.5355 21.2683C26.4864 21.3691 26.4296 21.466 26.3657 21.5581C26.4237 21.4625 26.4802 21.3657 26.5355 21.2683Z" fill="url(#paint24_linear_1519_148652)"/>
<path d="M28.9176 19.893C28.8276 20.2083 28.7256 20.5189 28.6116 20.8249C28.2016 20.7408 27.8126 20.5751 27.4679 20.3376C27.1232 20.1 26.8298 19.7956 26.6052 19.4424C26.5758 19.3683 26.5423 19.296 26.5049 19.2256C26.7792 19.3199 27.0557 19.4084 27.3343 19.491C27.8547 19.6464 28.3825 19.7803 28.9176 19.893Z" fill="url(#paint25_linear_1519_148652)"/>
<path d="M26.7385 19.9295C26.7604 20.0676 26.7692 20.2073 26.7649 20.3471C26.7558 20.6665 26.6776 20.9802 26.5357 21.2665V21.268C26.4809 21.3662 26.4247 21.4622 26.3662 21.5578L26.3641 21.5604C26.1921 21.8574 25.9997 22.1422 25.7883 22.4127C25.1925 23.1884 23.6677 23.087 22.854 22.543C21.6885 21.7636 21.0284 21.1588 20.0431 20.1582C19.5602 19.6685 19.1026 19.1544 18.6721 18.618C16.415 15.8159 14.9367 12.468 14.3865 8.91223C14.3286 8.54884 14.2814 8.1869 14.2451 7.82642C14.8753 9.3091 15.6789 10.7119 16.6393 12.0054C18.3727 14.3408 20.5798 16.2837 23.1163 17.7069C23.223 17.7822 23.3378 17.8456 23.4585 17.8958C23.5979 17.9705 23.7381 18.0439 23.8778 18.1152C24.5042 18.4335 25.1466 18.7194 25.8025 18.9715C26.0225 19.0564 26.2456 19.1375 26.469 19.2152C26.5099 19.294 26.554 19.3697 26.6012 19.443C26.665 19.5995 26.7111 19.7627 26.7385 19.9295Z" fill="url(#paint26_linear_1519_148652)"/>
<path d="M27.8506 14.9634C27.8506 14.97 27.8506 14.9764 27.8526 14.9831C27.137 15.3381 26.5849 15.9542 26.3104 16.7044C26.036 17.4546 26.06 18.2815 26.3776 19.0145C26.4066 19.0832 26.4393 19.1505 26.4735 19.2159C26.2492 19.1387 26.027 19.0575 25.807 18.9722C25.1511 18.72 24.5086 18.4343 23.882 18.1162C23.7412 18.0446 23.3088 17.8163 23.1694 17.7418C23.4653 17.8644 23.8539 18.0177 24.4413 17.9259C25.2074 17.8059 25.6462 17.0692 25.8403 16.6945C26.315 15.7762 26.9476 15.2332 27.8506 14.9634Z" fill="url(#paint27_linear_1519_148652)"/>
<path d="M35.262 20.2288C34.3028 21.3301 33.1591 22.256 31.8823 22.9649C30.5904 23.6795 29.1828 24.1611 27.7239 24.3874C27.3029 24.4531 26.8839 24.4976 26.4668 24.5207C26.8452 24.068 27.1913 23.5891 27.5025 23.0878C27.5251 23.0518 27.5474 23.0153 27.5697 22.9791C28.0153 22.9655 28.4597 22.9241 28.9001 22.8551C30.9115 22.5436 32.7902 21.6581 34.3107 20.305C34.6265 20.2868 34.9436 20.2614 35.262 20.2288Z" fill="url(#paint28_linear_1519_148652)"/>
<path d="M34.3098 20.3046C32.7893 21.6577 30.9106 22.5432 28.8992 22.8547C28.4588 22.9237 28.0145 22.9651 27.5688 22.9787C27.9419 22.3652 28.2618 21.7209 28.5251 21.0528C28.5553 20.9775 28.5843 20.9019 28.6121 20.826C28.7261 20.5199 28.8281 20.2093 28.9181 19.894C28.9352 19.8343 28.9517 19.774 28.9679 19.7138C28.9969 19.6085 29.0893 19.0307 29.1143 18.9247L29.2087 18.8957C29.2583 18.7572 29.105 19.2217 29.1856 19.1003C29.1504 19.2173 29.1439 19.341 29.1664 19.4611C29.209 19.7335 29.3924 19.9618 29.6397 20.0334C29.8529 20.096 30.5513 20.1742 30.8825 20.2119C30.9681 20.2217 31.0536 20.2307 31.139 20.2388C31.5957 20.2841 32.0555 20.3139 32.5184 20.3284C33.1115 20.3462 33.7086 20.3382 34.3098 20.3046Z" fill="url(#paint29_linear_1519_148652)"/>
<path d="M29.3831 16.2998C29.3895 16.3396 29.3941 16.3789 29.3976 16.4181C29.3976 16.5407 29.3963 16.6632 29.3935 16.7852C29.3709 17.6652 29.2553 18.5403 29.0487 19.3959V19.3976C29.0234 19.5035 28.9965 19.6091 28.9682 19.7144C28.9519 19.7746 28.9354 19.8349 28.9183 19.8946C28.3834 19.7816 27.8556 19.6476 27.3349 19.4927C27.0561 19.4098 26.7797 19.3213 26.5056 19.2272C26.4672 19.154 26.4246 19.0831 26.378 19.0148C26.273 18.7722 26.1994 18.5172 26.159 18.2559C26.0558 17.601 26.1646 16.9302 26.4695 16.3415C26.7743 15.7527 27.2593 15.2768 27.8536 14.9831C27.8881 14.9657 27.9229 14.9495 27.9582 14.9338C28.0397 14.9124 28.1226 14.8941 28.2069 14.8796C28.5127 14.9885 28.7834 15.1779 28.9904 15.4278C29.1975 15.6778 29.3332 15.9791 29.3831 16.2998Z" fill="url(#paint30_linear_1519_148652)"/>
<path d="M23.8564 24.3951C23.7645 24.4673 23.6712 24.5386 23.5771 24.6081C23.2055 24.9208 22.9853 25.0104 22.6576 25.2138C20.8324 26.5367 19.3933 28.3228 18.4888 30.3876L19.177 28.814C19.6021 27.905 20.0405 27.0365 20.3993 26.2046C20.4862 25.9996 20.5709 25.7971 20.6477 25.596C20.7346 25.3723 20.8125 25.1506 20.8809 24.9315C20.9241 24.7556 20.905 24.5809 20.8766 24.4004C20.8397 24.1628 20.7556 23.9351 20.6292 23.7307C20.5028 23.5263 20.3366 23.3492 20.1405 23.2102C21.3098 23.7964 22.5636 24.1963 23.8564 24.3951Z" fill="url(#paint31_linear_1519_148652)"/>
<path d="M25.4572 22.832C25.4572 22.832 23.3357 24.613 20.1411 23.2087C20.1411 23.2087 22.2684 24.7782 24.8692 24.3059C27.47 23.8335 25.4572 22.832 25.4572 22.832Z" fill="url(#paint32_linear_1519_148652)"/>
<path d="M14.2451 7.82642C14.2451 7.82642 15.0838 18.0752 22.8537 22.5428C22.8537 22.5428 16.1545 18.2444 15.2779 9.91488L14.2451 7.82642Z" fill="url(#paint33_linear_1519_148652)"/>
<path d="M34.3095 20.3044C34.3095 20.3044 32.5708 22.246 28.8989 22.8546C28.8989 22.8546 32.8536 21.7745 33.6436 20.3308L34.3095 20.3044Z" fill="url(#paint34_linear_1519_148652)"/>
<path d="M21.7441 28.9761C21.7441 28.9761 17.5341 34.0055 15.9766 36.6426C15.9766 36.6426 16.1374 35.7225 16.3822 35.0778C16.6271 34.433 21.7441 28.9761 21.7441 28.9761Z" fill="url(#paint35_linear_1519_148652)"/>
<path d="M22.8501 28.2988C22.9786 28.989 22.9433 29.6998 22.747 30.3739C22.5507 31.048 22.1989 31.6666 21.7199 32.1799C21.5619 31.3321 21.6518 30.4568 21.9787 29.6588C22.184 29.1562 22.4793 28.6954 22.8501 28.2988Z" fill="url(#paint36_linear_1519_148652)"/>
<path d="M22.85 28.2988C22.85 28.2988 21.9413 30.9086 21.7199 32.1799C21.7199 32.1799 21.646 31.7933 21.646 31.5027C21.646 31.212 22.85 28.2988 22.85 28.2988Z" fill="url(#paint37_linear_1519_148652)"/>
<path d="M18.1463 30.6353C17.8885 31.451 17.4427 32.1948 16.8449 32.8068C16.2471 33.4189 15.514 33.882 14.7046 34.159C15.0214 33.1565 15.6207 32.2666 16.4305 31.5962C16.9393 31.1743 17.5208 30.8486 18.1463 30.6353Z" fill="url(#paint38_linear_1519_148652)"/>
<path d="M18.1463 30.6353C18.1463 30.6353 15.6713 32.9191 14.7046 34.159C14.7046 34.159 14.8472 33.7012 15.0138 33.3888C15.1804 33.0764 18.1463 30.6353 18.1463 30.6353Z" fill="url(#paint39_linear_1519_148652)"/>
<path d="M30.9619 17.2456C30.9619 17.2456 30.9306 17.4009 30.9237 17.4531C30.7147 19.0304 29.7437 19.0127 29.185 19.1002C29.2786 18.6351 29.154 18.0738 29.0847 17.5252C29.0772 17.4641 29.0696 17.4033 29.063 17.3421C29.3026 17.2842 29.6857 17.2175 29.9613 17.2694C30.5702 17.3841 30.8159 17.055 30.9619 17.2456Z" fill="url(#paint40_linear_1519_148652)"/>
<path d="M28.651 20.8726C27.9779 22.762 27.2832 23.5531 26.4661 24.5213C26.4533 24.536 26.4409 24.5503 26.4284 24.5662C25.2726 25.9389 23.8363 27.0482 22.2161 27.8196C22.2138 27.8196 22.2141 27.821 22.2117 27.8213C22.0234 27.9106 21.831 27.9952 21.6368 28.0769H21.6345C20.4491 28.6489 19.3805 29.4367 18.4834 30.3998L18.4857 30.3926C18.4857 30.3899 18.4874 30.3888 18.4883 30.3865C18.7307 29.8317 19.0132 29.2953 19.3336 28.7816C20.1979 27.3891 21.3252 26.1782 22.6525 25.2168C22.6525 25.2168 22.6525 25.2168 22.6545 25.2153C23.0147 24.9774 23.2787 24.827 23.5734 24.6096C23.6685 24.5407 23.7618 24.4685 23.8528 24.3969C24.4404 23.9341 24.9772 23.4101 25.4541 22.8339C25.7866 22.4327 26.0896 22.008 26.3609 21.5631C26.3609 21.5631 26.3609 21.5608 26.3626 21.5594C26.4266 21.4674 26.4833 21.3705 26.5321 21.2696C26.6729 20.9829 26.7505 20.6694 26.7596 20.3501C26.7642 20.2104 26.7553 20.0706 26.7332 19.9326C26.7072 19.7661 26.6628 19.603 26.6008 19.4463C26.7003 19.6045 26.8148 19.7529 26.9424 19.8894C26.9439 19.8894 26.9439 19.8914 26.9454 19.8926C26.9538 19.9027 26.9633 19.9125 26.9743 19.9216C27.0149 19.9667 27.0575 20.0108 27.0995 20.0525C27.149 20.103 27.201 20.1509 27.2554 20.1959C27.2737 20.2113 27.2882 20.2229 27.296 20.2284C27.5037 20.3999 27.7333 20.5429 27.9787 20.6538C28.1768 20.7445 28.3837 20.8143 28.5962 20.8619C28.6165 20.8656 28.6342 20.8685 28.651 20.8726Z" fill="url(#paint41_linear_1519_148652)"/>
<path d="M29.4627 17.4965C29.4499 17.6501 29.4305 17.8129 29.4047 17.9857C29.3178 18.5797 29.1578 19.2865 28.8976 20.1283C28.815 20.394 28.733 20.6412 28.651 20.8725C28.633 20.8684 28.6153 20.8655 28.5974 20.8603C28.3848 20.8127 28.1779 20.743 27.9799 20.6523C27.7344 20.5414 27.5048 20.3983 27.2971 20.2268C27.2893 20.2213 27.2748 20.2098 27.2565 20.1944C27.2021 20.1493 27.1501 20.1014 27.1006 20.0509C27.0586 20.0092 27.016 19.964 26.9754 19.92C26.9659 19.9098 26.9563 19.8999 26.9465 19.891C26.9465 19.891 26.9465 19.8889 26.9436 19.8878C26.8159 19.7513 26.7015 19.6029 26.6019 19.4447C26.5536 19.3709 26.5095 19.2946 26.4695 19.2161C26.4376 19.1512 26.404 19.0839 26.3747 19.015C26.2706 18.772 26.1981 18.5166 26.1591 18.2552C26.055 17.6002 26.1633 16.9291 26.4682 16.3401C26.7731 15.7512 27.2586 15.2754 27.8535 14.9823C27.8877 14.9652 27.9228 14.9484 27.9584 14.9325C28.0401 14.9116 28.1221 14.8931 28.2073 14.8786C28.2073 14.8786 28.2073 14.8786 28.2096 14.8786C28.2296 14.8742 28.2487 14.8711 28.2676 14.8682C28.2679 14.869 29.691 14.8632 29.4627 17.4965Z" fill="url(#paint42_linear_1519_148652)"/>
<path d="M31.7995 17.2995C31.8681 17.7388 31.754 18.221 31.6152 18.4942C31.5123 18.0428 31.2141 17.3557 30.7238 17.4325C30.2819 17.5017 30.2117 17.5527 29.8933 17.5533C29.7477 17.5547 29.6027 17.5352 29.4626 17.4954C29.6907 14.8621 28.2676 14.8679 28.2676 14.8679C28.6103 14.8139 28.9596 14.8174 29.3013 14.8783C30.5702 15.1084 31.5885 15.952 31.7995 17.2995Z" fill="url(#paint43_linear_1519_148652)"/>
</g>
<defs>
<linearGradient id="paint0_linear_1519_148652" x1="25.5745" y1="15.8728" x2="27.5045" y2="15.3198" gradientUnits="userSpaceOnUse">
<stop stop-color="#1CBBED"/>
<stop offset="1" stop-color="#474C9F"/>
</linearGradient>
<linearGradient id="paint1_linear_1519_148652" x1="25.6425" y1="16.3244" x2="26.4556" y2="16.0914" gradientUnits="userSpaceOnUse">
<stop stop-color="#1CBBED"/>
<stop offset="1" stop-color="#474C9F"/>
</linearGradient>
<linearGradient id="paint2_linear_1519_148652" x1="13.051" y1="12.9776" x2="21.7672" y2="17.4529" gradientUnits="userSpaceOnUse">
<stop stop-color="#1CBBED"/>
<stop offset="1" stop-color="#474C9F"/>
</linearGradient>
<linearGradient id="paint3_linear_1519_148652" x1="11.529" y1="16.013" x2="20.1129" y2="20.4205" gradientUnits="userSpaceOnUse">
<stop stop-color="#1CBBED"/>
<stop offset="1" stop-color="#474C9F"/>
</linearGradient>
<linearGradient id="paint4_linear_1519_148652" x1="10.6822" y1="17.6631" x2="19.2661" y2="22.0705" gradientUnits="userSpaceOnUse">
<stop stop-color="#1CBBED"/>
<stop offset="1" stop-color="#474C9F"/>
</linearGradient>
<linearGradient id="paint5_linear_1519_148652" x1="32.8592" y1="22.4172" x2="28.1355" y2="20.8229" gradientUnits="userSpaceOnUse">
<stop stop-color="#1CBBED"/>
<stop offset="1" stop-color="#474C9F"/>
</linearGradient>
<linearGradient id="paint6_linear_1519_148652" x1="32.5058" y1="23.9659" x2="27.8323" y2="22.5324" gradientUnits="userSpaceOnUse">
<stop stop-color="#1CBBED"/>
<stop offset="1" stop-color="#474C9F"/>
</linearGradient>
<linearGradient id="paint7_linear_1519_148652" x1="32.5634" y1="25.2394" x2="27.2921" y2="24.1415" gradientUnits="userSpaceOnUse">
<stop stop-color="#1CBBED"/>
<stop offset="1" stop-color="#474C9F"/>
</linearGradient>
<linearGradient id="paint8_linear_1519_148652" x1="22.6201" y1="24.9887" x2="23.6098" y2="24.8338" gradientUnits="userSpaceOnUse">
<stop stop-color="#1CBBED"/>
<stop offset="1" stop-color="#474C9F"/>
</linearGradient>
<linearGradient id="paint9_linear_1519_148652" x1="18.8048" y1="19.4739" x2="19.9079" y2="19.3011" gradientUnits="userSpaceOnUse">
<stop stop-color="#1CBBED"/>
<stop offset="1" stop-color="#474C9F"/>
</linearGradient>
<linearGradient id="paint10_linear_1519_148652" x1="23.5987" y1="22.4248" x2="23.962" y2="22.3679" gradientUnits="userSpaceOnUse">
<stop stop-color="#1CBBED"/>
<stop offset="1" stop-color="#474C9F"/>
</linearGradient>
<linearGradient id="paint11_linear_1519_148652" x1="26.4125" y1="19.2398" x2="26.5691" y2="19.2153" gradientUnits="userSpaceOnUse">
<stop stop-color="#1CBBED"/>
<stop offset="1" stop-color="#474C9F"/>
</linearGradient>
<linearGradient id="paint12_linear_1519_148652" x1="26.3449" y1="21.4279" x2="26.5551" y2="21.395" gradientUnits="userSpaceOnUse">
<stop stop-color="#1CBBED"/>
<stop offset="1" stop-color="#474C9F"/>
</linearGradient>
<linearGradient id="paint13_linear_1519_148652" x1="26.3449" y1="24.5507" x2="26.4675" y2="24.5316" gradientUnits="userSpaceOnUse">
<stop stop-color="#1CBBED"/>
<stop offset="1" stop-color="#474C9F"/>
</linearGradient>
<linearGradient id="paint14_linear_1519_148652" x1="22.6201" y1="24.9887" x2="23.6098" y2="24.8338" gradientUnits="userSpaceOnUse">
<stop stop-color="#1CBBED"/>
<stop offset="1" stop-color="#474C9F"/>
</linearGradient>
<linearGradient id="paint15_linear_1519_148652" x1="15.6345" y1="33.7549" x2="21.6382" y2="31.9932" gradientUnits="userSpaceOnUse">
<stop stop-color="#1CBBED"/>
<stop offset="1" stop-color="#474C9F"/>
</linearGradient>
<linearGradient id="paint16_linear_1519_148652" x1="26.4125" y1="19.2398" x2="26.5691" y2="19.2153" gradientUnits="userSpaceOnUse">
<stop stop-color="#1CBBED"/>
<stop offset="1" stop-color="#474C9F"/>
</linearGradient>
<linearGradient id="paint17_linear_1519_148652" x1="13.9133" y1="15.122" x2="24.3078" y2="16.6635" gradientUnits="userSpaceOnUse">
<stop stop-color="#1CBBED"/>
<stop offset="1" stop-color="#474C9F"/>
</linearGradient>
<linearGradient id="paint18_linear_1519_148652" x1="18.8048" y1="19.4739" x2="19.9079" y2="19.3011" gradientUnits="userSpaceOnUse">
<stop stop-color="#1CBBED"/>
<stop offset="1" stop-color="#474C9F"/>
</linearGradient>
<linearGradient id="paint19_linear_1519_148652" x1="23.5987" y1="22.4248" x2="23.962" y2="22.3679" gradientUnits="userSpaceOnUse">
<stop stop-color="#1CBBED"/>
<stop offset="1" stop-color="#474C9F"/>
</linearGradient>
<linearGradient id="paint20_linear_1519_148652" x1="22.6201" y1="24.9887" x2="23.6098" y2="24.8338" gradientUnits="userSpaceOnUse">
<stop stop-color="#1CBBED"/>
<stop offset="1" stop-color="#474C9F"/>
</linearGradient>
<linearGradient id="paint21_linear_1519_148652" x1="26.4125" y1="19.2398" x2="26.5691" y2="19.2153" gradientUnits="userSpaceOnUse">
<stop stop-color="#1CBBED"/>
<stop offset="1" stop-color="#474C9F"/>
</linearGradient>
<linearGradient id="paint22_linear_1519_148652" x1="27.8492" y1="14.965" x2="27.9589" y2="14.9478" gradientUnits="userSpaceOnUse">
<stop stop-color="#1CBBED"/>
<stop offset="1" stop-color="#474C9F"/>
</linearGradient>
<linearGradient id="paint23_linear_1519_148652" x1="23.5987" y1="22.4248" x2="23.962" y2="22.3679" gradientUnits="userSpaceOnUse">
<stop stop-color="#1CBBED"/>
<stop offset="1" stop-color="#474C9F"/>
</linearGradient>
<linearGradient id="paint24_linear_1519_148652" x1="26.3449" y1="21.4279" x2="26.5551" y2="21.395" gradientUnits="userSpaceOnUse">
<stop stop-color="#1CBBED"/>
<stop offset="1" stop-color="#474C9F"/>
</linearGradient>
<linearGradient id="paint25_linear_1519_148652" x1="25.606" y1="20.2861" x2="29.8541" y2="19.7171" gradientUnits="userSpaceOnUse">
<stop stop-color="#CFD1D2"/>
<stop offset="0.11" stop-color="#E1E3E3"/>
<stop offset="0.26" stop-color="#F2F3F3"/>
<stop offset="0.42" stop-color="#FCFCFC"/>
<stop offset="0.63" stop-color="white"/>
</linearGradient>
<linearGradient id="paint26_linear_1519_148652" x1="13.5849" y1="9.3402" x2="26.9803" y2="23.6752" gradientUnits="userSpaceOnUse">
<stop stop-color="#1CBBED"/>
<stop offset="1" stop-color="#474C9F"/>
</linearGradient>
<linearGradient id="paint27_linear_1519_148652" x1="23.1637" y1="17.714" x2="28.1583" y2="16.9318" gradientUnits="userSpaceOnUse">
<stop stop-color="#1CBBED"/>
<stop offset="1" stop-color="#474C9F"/>
</linearGradient>
<linearGradient id="paint28_linear_1519_148652" x1="36.7262" y1="21.5541" x2="28.0714" y2="22.7528" gradientUnits="userSpaceOnUse">
<stop stop-color="#1CBBED"/>
<stop offset="1" stop-color="#474C9F"/>
</linearGradient>
<linearGradient id="paint29_linear_1519_148652" x1="35.3619" y1="19.9888" x2="26.7454" y2="21.1814" gradientUnits="userSpaceOnUse">
<stop stop-color="#1CBBED"/>
<stop offset="1" stop-color="#474C9F"/>
</linearGradient>
<linearGradient id="paint30_linear_1519_148652" x1="25.2763" y1="17.8248" x2="29.5245" y2="17.2561" gradientUnits="userSpaceOnUse">
<stop offset="0.08" stop-color="#CFD1D2"/>
<stop offset="0.25" stop-color="#E1E3E3"/>
<stop offset="0.46" stop-color="#F2F3F3"/>
<stop offset="0.7" stop-color="#FCFCFC"/>
<stop offset="1" stop-color="white"/>
</linearGradient>
<linearGradient id="paint31_linear_1519_148652" x1="17.9604" y1="27.0096" x2="24.1152" y2="26.0458" gradientUnits="userSpaceOnUse">
<stop stop-color="#1CBBED"/>
<stop offset="1" stop-color="#474C9F"/>
</linearGradient>
<linearGradient id="paint32_linear_1519_148652" x1="19.128" y1="23.4445" x2="24.6246" y2="23.6121" gradientUnits="userSpaceOnUse">
<stop stop-color="#1CBBED"/>
<stop offset="1" stop-color="#474C9F"/>
</linearGradient>
<linearGradient id="paint33_linear_1519_148652" x1="15.4477" y1="15.6692" x2="21.6256" y2="14.7018" gradientUnits="userSpaceOnUse">
<stop stop-color="#1CBBED"/>
<stop offset="1" stop-color="#474C9F"/>
</linearGradient>
<linearGradient id="paint34_linear_1519_148652" x1="34.1165" y1="20.2325" x2="29.4327" y2="22.9908" gradientUnits="userSpaceOnUse">
<stop stop-color="#1CBBED"/>
<stop offset="1" stop-color="#474C9F"/>
</linearGradient>
<linearGradient id="paint35_linear_1519_148652" x1="15.8619" y1="34.7788" x2="22.5846" y2="30.3614" gradientUnits="userSpaceOnUse">
<stop stop-color="#1CBBED"/>
<stop offset="1" stop-color="#474C9F"/>
</linearGradient>
<linearGradient id="paint36_linear_1519_148652" x1="21.1576" y1="31.0952" x2="23.2607" y2="29.5058" gradientUnits="userSpaceOnUse">
<stop stop-color="#1CBBED"/>
<stop offset="1" stop-color="#474C9F"/>
</linearGradient>
<linearGradient id="paint37_linear_1519_148652" x1="21.3998" y1="31.4644" x2="23.3905" y2="28.7216" gradientUnits="userSpaceOnUse">
<stop stop-color="#1CBBED"/>
<stop offset="1" stop-color="#474C9F"/>
</linearGradient>
<linearGradient id="paint38_linear_1519_148652" x1="14.7189" y1="32.6666" x2="17.8923" y2="32.1655" gradientUnits="userSpaceOnUse">
<stop stop-color="#1CBBED"/>
<stop offset="1" stop-color="#474C9F"/>
</linearGradient>
<linearGradient id="paint39_linear_1519_148652" x1="14.7674" y1="33.203" x2="18.4818" y2="31.397" gradientUnits="userSpaceOnUse">
<stop stop-color="#1CBBED"/>
<stop offset="1" stop-color="#474C9F"/>
</linearGradient>
<linearGradient id="paint40_linear_1519_148652" x1="28.8978" y1="18.798" x2="30.7579" y2="17.0291" gradientUnits="userSpaceOnUse">
<stop stop-color="#1CBBED"/>
<stop offset="1" stop-color="#474C9F"/>
</linearGradient>
<linearGradient id="paint41_linear_1519_148652" x1="17.1047" y1="27.6988" x2="29.0291" y2="21.6096" gradientUnits="userSpaceOnUse">
<stop offset="0.08" stop-color="#CFD1D2"/>
<stop offset="0.25" stop-color="#E1E3E3"/>
<stop offset="0.46" stop-color="#F2F3F3"/>
<stop offset="0.7" stop-color="#FCFCFC"/>
<stop offset="1" stop-color="white"/>
</linearGradient>
<linearGradient id="paint42_linear_1519_148652" x1="26.3183" y1="18.9128" x2="29.9726" y2="17.0465" gradientUnits="userSpaceOnUse">
<stop offset="0.08" stop-color="#CFD1D2"/>
<stop offset="0.25" stop-color="#E1E3E3"/>
<stop offset="0.46" stop-color="#F2F3F3"/>
<stop offset="0.7" stop-color="#FCFCFC"/>
<stop offset="1" stop-color="white"/>
</linearGradient>
<linearGradient id="paint43_linear_1519_148652" x1="28.5839" y1="16.8923" x2="31.6599" y2="16.4106" gradientUnits="userSpaceOnUse">
<stop stop-color="#1CBBED"/>
<stop offset="1" stop-color="#474C9F"/>
</linearGradient>
<clipPath id="clip0_1519_148652">
<rect width="25.4838" height="29.3333" fill="white" transform="translate(12.2334 7.33325)"/>
</clipPath>
</defs>
</svg>
