<svg width="45" height="44" viewBox="0 0 45 44" fill="none" xmlns="http://www.w3.org/2000/svg">
<g clip-path="url(#clip0_1519_148636)">
<path d="M22.5 44C34.6503 44 44.5 34.1503 44.5 22C44.5 9.84974 34.6503 0 22.5 0C10.3497 0 0.5 9.84974 0.5 22C0.5 34.1503 10.3497 44 22.5 44Z" fill="#1B184E"/>
<path d="M22.5001 18.6305C25.3461 18.6305 27.6532 16.3234 27.6532 13.4774C27.6532 10.6314 25.3461 8.32422 22.5001 8.32422C19.6541 8.32422 17.3469 10.6314 17.3469 13.4774C17.3469 16.3234 19.6541 18.6305 22.5001 18.6305Z" fill="#04A8F0"/>
<path fill-rule="evenodd" clip-rule="evenodd" d="M22.5 21.6035C17.2458 21.6035 12.9865 17.3442 12.9865 12.0901C13.2005 9.51444 11.0059 9.51353 10.4105 10.2124C10.365 10.2537 10.3217 10.3007 10.2807 10.3536C8.2497 12.9723 7.04053 16.2613 7.04053 19.833C7.04053 22.9744 10.0168 24.977 13.1582 24.977H31.8419C34.9831 24.977 37.9594 22.9744 37.9594 19.833C37.9594 16.2613 36.7502 12.9723 34.7193 10.3536C34.6775 10.2996 34.6331 10.2517 34.5865 10.2097C33.987 9.5143 31.7998 9.51948 32.0135 12.0908C32.0131 17.3446 27.7538 21.6035 22.5 21.6035Z" fill="#686DF1"/>
<path d="M24.1277 37.0994L28.4629 30.8609C29.3762 29.5466 28.4358 27.7478 26.8353 27.7478H22.5001H18.1649C16.5645 27.7478 15.624 29.5466 16.5373 30.8609L20.8725 37.0994C21.661 38.2339 23.3393 38.2339 24.1277 37.0994Z" fill="#04A8F0"/>
</g>
<defs>
<clipPath id="clip0_1519_148636">
<rect width="44" height="44" fill="white" transform="translate(0.5)"/>
</clipPath>
</defs>
</svg>
