<svg width="32" height="33" viewBox="0 0 32 33" fill="none" xmlns="http://www.w3.org/2000/svg">
<rect x="0.5" y="1" width="31" height="31" stroke="#1C95E7"/>
<g clip-path="url(#clip0_3977_89889)">
<path d="M23.2053 10.3561C25.5748 13.84 26.7451 17.7698 26.3076 22.2938C26.3058 22.313 26.2958 22.3306 26.2801 22.3421C24.4856 23.6597 22.7471 24.4594 21.0329 24.9897C21.0196 24.9937 21.0053 24.9935 20.9921 24.989C20.9789 24.9846 20.9674 24.9761 20.9592 24.9648C20.5632 24.4137 20.2034 23.8328 19.8881 23.2228C19.87 23.1869 19.8866 23.1436 19.9238 23.1294C20.4953 22.9141 21.0387 22.656 21.5614 22.3505C21.6026 22.3264 21.6052 22.2674 21.5672 22.239C21.4562 22.1567 21.3463 22.0701 21.2412 21.9836C21.2215 21.9676 21.195 21.9644 21.1727 21.9752C17.7793 23.5422 14.0619 23.5422 10.6283 21.9752C10.606 21.9652 10.5795 21.9686 10.5604 21.9844C10.4555 22.0709 10.3453 22.1567 10.2355 22.239C10.1974 22.2674 10.2006 22.3264 10.242 22.3505C10.7647 22.6503 11.3081 22.9141 11.8788 23.1305C11.9158 23.1446 11.9334 23.1869 11.915 23.2228C11.6066 23.8336 11.2468 24.4145 10.8434 24.9655C10.8258 24.9878 10.797 24.9981 10.7697 24.9897C9.06366 24.4594 7.3251 23.6597 5.53068 22.3421C5.51573 22.3306 5.50498 22.3122 5.5034 22.2931C5.13781 18.3798 5.8829 14.4175 8.60286 10.3553C8.60941 10.3445 8.61938 10.3361 8.63092 10.3311C9.96926 9.71692 11.4031 9.26503 12.9016 9.00696C12.9289 9.00277 12.9562 9.01536 12.9704 9.03949C13.1555 9.36732 13.3672 9.78773 13.5104 10.1313C15.09 9.89001 16.6943 9.89001 18.3069 10.1313C18.4501 9.79507 18.6544 9.36732 18.8388 9.03949C18.8454 9.02752 18.8556 9.01793 18.8679 9.01209C18.8802 9.00625 18.8941 9.00445 18.9075 9.00696C20.4069 9.26582 21.8407 9.7177 23.178 10.3311C23.1898 10.3361 23.1995 10.3445 23.2053 10.3561ZM14.3134 17.7965C14.3299 16.6397 13.4865 15.6824 12.4277 15.6824C11.3776 15.6824 10.5423 16.6313 10.5423 17.7965C10.5423 18.9615 11.3941 19.9104 12.4277 19.9104C13.4781 19.9104 14.3134 18.9615 14.3134 17.7965ZM21.285 17.7965C21.3015 16.6397 20.458 15.6824 19.3995 15.6824C18.3492 15.6824 17.5138 16.6313 17.5138 17.7965C17.5138 18.9615 18.3657 19.9104 19.3995 19.9104C20.458 19.9104 21.285 18.9615 21.285 17.7965Z" fill="#1C95E7"/>
</g>
<defs>
<clipPath id="clip0_3977_89889">
<rect width="21.8818" height="16" fill="white" transform="translate(5 9)"/>
</clipPath>
</defs>
</svg>
