<svg width="77" height="56" viewBox="0 0 77 56" fill="none" xmlns="http://www.w3.org/2000/svg">
<path d="M63.7167 4.74376C72.0102 16.9375 76.106 30.6917 74.5749 46.526C74.5685 46.593 74.5336 46.6545 74.4785 46.6949C68.198 51.3066 62.1131 54.1053 56.1135 55.9614C56.0668 55.9756 56.0168 55.9748 55.9706 55.9591C55.9243 55.9435 55.8841 55.9138 55.8556 55.8742C54.4695 53.9456 53.2101 51.9124 52.1067 49.7773C52.0434 49.6515 52.1012 49.5001 52.2316 49.4505C54.2318 48.6969 56.1337 47.7937 57.9631 46.7243C58.1072 46.6398 58.1164 46.4333 57.9833 46.3342C57.595 46.0459 57.2104 45.743 56.8423 45.4401C56.7735 45.3841 56.6808 45.3731 56.6028 45.4107C44.7257 50.8953 31.715 50.8953 19.6974 45.4107C19.6194 45.3758 19.5267 45.3878 19.4597 45.4428C19.0925 45.7458 18.707 46.0459 18.3224 46.3342C18.1893 46.4333 18.2003 46.6398 18.3453 46.7243C20.1748 47.7735 22.0767 48.6969 24.0741 49.4542C24.2036 49.5038 24.2651 49.6515 24.2008 49.7773C23.1213 51.9152 21.8619 53.9484 20.4501 55.8769C20.3886 55.955 20.2877 55.9908 20.1922 55.9614C14.2211 54.1053 8.13613 51.3066 1.85566 46.6949C1.80334 46.6545 1.7657 46.5903 1.7602 46.5232C0.480604 32.8268 3.08844 18.9588 12.6083 4.741C12.6312 4.70337 12.6661 4.67399 12.7065 4.65655C17.3907 2.50677 22.409 0.925177 27.654 0.0219359C27.7495 0.0072491 27.845 0.0513096 27.8945 0.135759C28.5426 1.28317 29.2834 2.75461 29.7846 3.95709C35.3132 3.1126 40.9282 3.1126 46.5726 3.95709C47.0737 2.78031 47.7888 1.28317 48.4341 0.135759C48.4571 0.0938646 48.4927 0.060301 48.5359 0.0398601C48.5791 0.0194192 48.6276 0.0131459 48.6746 0.0219359C53.9224 0.927931 58.9407 2.50952 63.6212 4.65655C63.6625 4.67399 63.6965 4.70337 63.7167 4.74376ZM32.5953 30.7854C32.6531 26.7364 29.701 23.386 25.9953 23.386C22.32 23.386 19.3964 26.707 19.3964 30.7854C19.3964 34.8628 22.3778 38.1839 25.9953 38.1839C29.6717 38.1839 32.5953 34.8628 32.5953 30.7854ZM56.9956 30.7854C57.0535 26.7364 54.1014 23.386 50.3966 23.386C46.7203 23.386 43.7967 26.707 43.7967 30.7854C43.7967 34.8628 46.7782 38.1839 50.3966 38.1839C54.1014 38.1839 56.9956 34.8628 56.9956 30.7854Z" fill="#5865F2"/>
</svg>
