<svg width="49" height="48" viewBox="0 0 49 48" fill="none" xmlns="http://www.w3.org/2000/svg">
<g clip-path="url(#clip0_214_6287)">
<path d="M32.8543 16.0265C35.6978 20.2072 37.1021 24.9229 36.5771 30.3518C36.5749 30.3748 36.5629 30.3959 36.5441 30.4097C34.3908 31.9909 32.3045 32.9505 30.2475 33.5868C30.2315 33.5917 30.2143 33.5914 30.1985 33.5861C30.1826 33.5807 30.1688 33.5705 30.1591 33.5569C29.6838 32.8957 29.252 32.1986 28.8737 31.4666C28.852 31.4234 28.8719 31.3715 28.9166 31.3545C29.6023 31.0961 30.2544 30.7865 30.8817 30.4198C30.9311 30.3909 30.9342 30.32 30.8886 30.2861C30.7554 30.1872 30.6236 30.0834 30.4974 29.9795C30.4738 29.9603 30.442 29.9565 30.4152 29.9694C26.3431 31.8499 21.8823 31.8499 17.762 29.9694C17.7352 29.9575 17.7034 29.9616 17.6805 29.9805C17.5546 30.0843 17.4224 30.1872 17.2905 30.2861C17.2449 30.32 17.2487 30.3909 17.2984 30.4198C17.9256 30.7795 18.5777 31.0961 19.2626 31.3558C19.3069 31.3728 19.328 31.4234 19.306 31.4666C18.9359 32.1995 18.5041 32.8966 18.0201 33.5579C17.999 33.5846 17.9644 33.5969 17.9316 33.5868C15.8844 32.9505 13.7981 31.9909 11.6448 30.4097C11.6269 30.3959 11.614 30.3739 11.6121 30.3509C11.1734 25.655 12.0675 20.9002 15.3314 16.0255C15.3393 16.0126 15.3512 16.0026 15.3651 15.9966C16.9711 15.2595 18.6917 14.7173 20.49 14.4076C20.5227 14.4025 20.5554 14.4176 20.5724 14.4466C20.7946 14.84 21.0486 15.3445 21.2204 15.7568C23.116 15.4672 25.0411 15.4672 26.9763 15.7568C27.1481 15.3533 27.3933 14.84 27.6146 14.4466C27.6224 14.4322 27.6347 14.4207 27.6495 14.4137C27.6643 14.4067 27.6809 14.4046 27.697 14.4076C29.4963 14.7182 31.2168 15.2605 32.8216 15.9966C32.8357 16.0026 32.8474 16.0126 32.8543 16.0265ZM22.1841 24.955C22.2039 23.5668 21.1918 22.4181 19.9213 22.4181C18.6611 22.4181 17.6588 23.5567 17.6588 24.955C17.6588 26.353 18.681 27.4917 19.9213 27.4917C21.1817 27.4917 22.1841 26.353 22.1841 24.955ZM30.5499 24.955C30.5698 23.5668 29.5576 22.4181 28.2874 22.4181C27.027 22.4181 26.0246 23.5567 26.0246 24.955C26.0246 26.353 27.0468 27.4917 28.2874 27.4917C29.5576 27.4917 30.5499 26.353 30.5499 24.955Z" fill="white"/>
</g>
<defs>
<clipPath id="clip0_214_6287">
<rect width="26.2582" height="19.2" fill="white" transform="translate(11.0086 14.3999)"/>
</clipPath>
</defs>
</svg>
