<svg width="48" height="48" viewBox="0 0 48 48" fill="none" xmlns="http://www.w3.org/2000/svg">
<rect x="0.5" y="0.5" width="46.8" height="46.8" stroke="#7289DA"/>
<g clip-path="url(#clip0_2522_149772)">
<path d="M32.4069 16.0275C35.2503 20.2082 36.6546 24.9239 36.1297 30.3528C36.1275 30.3758 36.1155 30.3969 36.0966 30.4107C33.9433 31.9919 31.857 32.9514 29.8 33.5878C29.784 33.5927 29.7669 33.5924 29.751 33.587C29.7352 33.5817 29.7214 33.5715 29.7116 33.5579C29.2364 32.8967 28.8046 32.1996 28.4263 31.4675C28.4046 31.4244 28.4244 31.3725 28.4691 31.3555C29.1549 31.0971 29.807 30.7874 30.4342 30.4208C30.4836 30.3918 30.4868 30.321 30.4411 30.287C30.308 30.1882 30.1761 30.0844 30.0499 29.9805C30.0263 29.9613 29.9945 29.9575 29.9678 29.9704C25.8956 31.8509 21.4348 31.8509 17.3145 29.9704C17.2878 29.9585 17.256 29.9626 17.233 29.9814C17.1071 30.0853 16.975 30.1882 16.8431 30.287C16.7975 30.321 16.8012 30.3918 16.851 30.4208C17.4782 30.7805 18.1303 31.0971 18.8151 31.3568C18.8595 31.3738 18.8806 31.4244 18.8585 31.4675C18.4884 32.2005 18.0566 32.8976 17.5726 33.5588C17.5515 33.5856 17.5169 33.5979 17.4842 33.5878C15.4369 32.9514 13.3507 31.9919 11.1974 30.4107C11.1794 30.3969 11.1665 30.3748 11.1646 30.3519C10.7259 25.656 11.62 20.9012 14.884 16.0265C14.8918 16.0136 14.9038 16.0035 14.9176 15.9976C16.5237 15.2605 18.2442 14.7182 20.0425 14.4086C20.0752 14.4035 20.108 14.4186 20.125 14.4476C20.3472 14.841 20.6011 15.3455 20.773 15.7578C22.6685 15.4682 24.5937 15.4682 26.5289 15.7578C26.7007 15.3543 26.9459 14.841 27.1671 14.4476C27.175 14.4332 27.1872 14.4217 27.202 14.4147C27.2168 14.4077 27.2335 14.4055 27.2496 14.4086C29.0488 14.7192 30.7694 15.2614 32.3741 15.9976C32.3883 16.0035 32.3999 16.0136 32.4069 16.0275ZM21.7366 24.956C21.7565 23.5678 20.7443 22.4191 19.4738 22.4191C18.2137 22.4191 17.2113 23.5577 17.2113 24.956C17.2113 26.354 18.2335 27.4926 19.4738 27.4926C20.7343 27.4926 21.7366 26.354 21.7366 24.956ZM30.1025 24.956C30.1223 23.5678 29.1102 22.4191 27.84 22.4191C26.5795 22.4191 25.5772 23.5577 25.5772 24.956C25.5772 26.354 26.5994 27.4926 27.84 27.4926C29.1102 27.4926 30.1025 26.354 30.1025 24.956Z" fill="#7289DA"/>
</g>
<defs>
<clipPath id="clip0_2522_149772">
<rect width="26.2582" height="19.2" fill="#7289DA" transform="translate(10.5605 14.4004)"/>
</clipPath>
</defs>
</svg>
