<svg width="72" height="70" viewBox="0 0 72 70" fill="none" xmlns="http://www.w3.org/2000/svg">
<path fill-rule="evenodd" clip-rule="evenodd" d="M35.8913 0C16.0441 0 0 16.0441 0 35.8913C0 51.7572 10.2801 65.1867 24.5416 69.9406C26.3243 70.2971 26.9779 69.1681 26.9779 68.2173C26.9779 67.3854 26.9185 64.5331 26.9185 61.562C16.9355 63.7012 14.8557 57.2835 14.8557 57.2835C13.2513 53.1239 10.8744 52.0543 10.8744 52.0543C7.60611 49.8557 11.1121 49.8557 11.1121 49.8557C14.7368 50.0934 16.6384 53.5399 16.6384 53.5399C19.8472 59.0068 25.017 57.4618 27.0968 56.511C27.3939 54.1935 28.3447 52.5891 29.3548 51.6978C21.3922 50.8659 13.0136 47.7759 13.0136 33.9898C13.0136 30.0679 14.4397 26.8591 16.6978 24.3633C16.3413 23.472 15.0934 19.7878 17.0543 14.8557C17.0543 14.8557 20.0849 13.9049 26.9185 18.5399C29.7708 17.7674 32.8608 17.3514 35.8913 17.3514C38.9219 17.3514 42.0119 17.7674 44.8642 18.5399C51.6978 13.9049 54.7283 14.8557 54.7283 14.8557C56.6893 19.7878 55.4414 23.472 55.0849 24.3633C57.4024 26.8591 58.7691 30.0679 58.7691 33.9898C58.7691 47.7759 50.3905 50.8064 42.3684 51.6978C43.6757 52.8268 44.8047 54.966 44.8047 58.3531C44.8047 63.1664 44.7453 67.0289 44.7453 68.2173C44.7453 69.1681 45.399 70.2971 47.1817 69.9406C61.4431 65.1867 71.7233 51.7572 71.7233 35.8913C71.7827 16.0441 55.6791 0 35.8913 0Z" fill="#4078C0"/>
<path d="M13.6078 51.5195C13.5484 51.6978 13.2513 51.7572 13.0136 51.6383C12.7759 51.5195 12.5976 51.2818 12.7165 51.1035C12.7759 50.9253 13.073 50.8658 13.3107 50.9847C13.5484 51.1035 13.6672 51.3412 13.6078 51.5195Z" fill="#4078C0"/>
<path d="M15.034 53.124C14.8557 53.3023 14.4992 53.1834 14.3209 52.9457C14.0832 52.708 14.0238 52.3515 14.202 52.1732C14.3803 51.995 14.6774 52.1138 14.9151 52.3515C15.1528 52.6486 15.2122 53.0051 15.034 53.124Z" fill="#4078C0"/>
<path d="M16.4601 55.2036C16.2224 55.3819 15.8659 55.2036 15.6876 54.9065C15.4499 54.6094 15.4499 54.1934 15.6876 54.0745C15.9253 53.8963 16.2818 54.0745 16.4601 54.3717C16.6978 54.6688 16.6978 55.0253 16.4601 55.2036Z" fill="#4078C0"/>
<path d="M18.421 57.2242C18.2428 57.4619 17.8268 57.4025 17.4703 57.1054C17.1732 56.8083 17.0543 56.3923 17.292 56.214C17.4703 55.9764 17.8862 56.0358 18.2428 56.3329C18.5399 56.5706 18.5993 56.9866 18.421 57.2242Z" fill="#4078C0"/>
<path d="M21.0951 58.3533C21.0356 58.6505 20.6197 58.7693 20.2037 58.6505C19.7878 58.5316 19.5501 58.1751 19.6095 57.9374C19.6689 57.6403 20.0849 57.5214 20.5008 57.6403C20.9168 57.7591 21.1545 58.0562 21.0951 58.3533Z" fill="#4078C0"/>
<path d="M24.0068 58.591C24.0068 58.8881 23.6502 59.1258 23.2343 59.1258C22.8183 59.1258 22.4618 58.8881 22.4618 58.591C22.4618 58.2938 22.8183 58.0562 23.2343 58.0562C23.6502 58.0562 24.0068 58.2938 24.0068 58.591Z" fill="#4078C0"/>
<path d="M26.7402 58.1153C26.7997 58.4124 26.5025 58.7096 26.0866 58.769C25.6706 58.8284 25.3141 58.6501 25.2547 58.353C25.1952 58.0559 25.4924 57.7588 25.9083 57.6994C26.3243 57.64 26.6808 57.8182 26.7402 58.1153Z" fill="#4078C0"/>
</svg>
