<svg width="32" height="32" viewBox="0 0 32 32" fill="none" xmlns="http://www.w3.org/2000/svg">
<rect x="0.5" y="0.5" width="31" height="31" stroke="#1C95E7"/>
<path d="M12.0844 12.4224H8.77637V23.1565H12.0844V12.4224Z" fill="#1C95E7"/>
<path d="M10.3968 11.0719C11.4769 11.0719 12.3546 10.1942 12.3546 9.11406C12.3546 8.03389 11.4769 7.15625 10.3968 7.15625C9.3166 7.15625 8.43896 8.03389 8.43896 9.11406C8.43896 10.1942 9.3166 11.0719 10.3968 11.0719Z" fill="#1C95E7"/>
<path d="M17.3502 17.5527C17.3502 16.0675 18.0253 15.1223 19.3756 15.1223C20.5907 15.1223 21.1983 16 21.1983 17.5527C21.1983 19.1054 21.1983 23.1561 21.1983 23.1561H24.5064C24.5064 23.1561 24.5064 19.2405 24.5064 16.405C24.5064 13.5696 22.8861 12.1519 20.5907 12.1519C18.2954 12.1519 17.3502 13.9071 17.3502 13.9071V12.4894H14.1772V23.2236H17.3502C17.3502 23.1561 17.3502 19.173 17.3502 17.5527Z" fill="#1C95E7"/>
</svg>
