<svg width="60" height="60" viewBox="0 0 60 60" fill="none" xmlns="http://www.w3.org/2000/svg">
<path d="M31.25 30C31.25 35.8586 26.7641 40.625 21.25 40.625C15.7359 40.625 11.25 35.8586 11.25 30C11.25 24.1414 15.7359 19.375 21.25 19.375C26.7641 19.375 31.25 24.1414 31.25 30ZM47.5 20C47.1685 20 46.8506 20.1317 46.6161 20.3661C46.3817 20.6006 46.25 20.9185 46.25 21.25V38.75C46.25 39.0815 46.3817 39.3995 46.6161 39.6339C46.8505 39.8683 47.1685 40 47.5 40C47.8315 40 48.1495 39.8683 48.3839 39.6339C48.6183 39.3995 48.75 39.0815 48.75 38.75V21.25C48.75 20.9185 48.6183 20.6006 48.3839 20.3661C48.1495 20.1317 47.8315 20 47.5 20ZM38.75 20C37.8621 20 36.1876 20.4314 34.9494 23.3205C34.176 25.1251 33.75 27.4974 33.75 30C33.75 32.5026 34.176 34.8749 34.9494 36.6795C36.1876 39.5686 37.8621 40 38.75 40C39.6379 40 41.3124 39.5686 42.5506 36.6795C43.3241 34.8749 43.75 32.5026 43.75 30C43.75 27.4974 43.3241 25.1251 42.5506 23.3205C41.3124 20.4314 39.6379 20 38.75 20Z" fill="#1C95E7"/>
<rect x="0.5" y="0.5" width="59" height="59" rx="29.5" stroke="#1C95E7"/>
</svg>
