<svg width="32" height="32" viewBox="0 0 32 32" fill="none" xmlns="http://www.w3.org/2000/svg">
<rect x="0.5" y="0.5" width="31" height="31" stroke="#CED2D8"/>
<path d="M24.2476 8.76191L21.3935 23.3341C21.3935 23.3341 21.2709 24 20.445 24C20.0061 24 19.7798 23.7912 19.7798 23.7912L13.5977 18.6613L10.573 17.1368L6.69105 16.1044C6.69105 16.1044 6 15.9048 6 15.3333C6 14.8571 6.71086 14.6301 6.71086 14.6301L22.9516 8.17829C22.9509 8.17753 23.4476 7.99924 23.8095 8C24.032 8 24.2857 8.09524 24.2857 8.38095C24.2857 8.57143 24.2476 8.76191 24.2476 8.76191Z" fill="#CED2D8"/>
<path d="M15.9048 20.5751L13.2945 23.1458C13.2945 23.1458 13.181 23.2334 13.0294 23.2372C12.9768 23.2387 12.9205 23.2303 12.8625 23.2044L13.597 18.6597L15.9048 20.5751Z" fill="#CED2D8"/>
<path d="M21.1602 11.1966C21.0314 11.029 20.7937 10.9985 20.6261 11.1258L10.572 17.1425C10.572 17.1425 12.1766 21.6317 12.4212 22.4088C12.6665 23.1867 12.8631 23.205 12.8631 23.205L13.5975 18.6602L21.0886 11.7299C21.2562 11.6027 21.2874 11.3642 21.1602 11.1966Z" fill="white"/>
</svg>
