<svg width="69" height="60" viewBox="0 0 69 60" fill="none" xmlns="http://www.w3.org/2000/svg">
<path d="M68.4286 2.85715L57.7257 57.5029C57.7257 57.5029 57.2657 60 54.1686 60C52.5229 60 51.6743 59.2172 51.6743 59.2172L28.4914 39.98L17.1486 34.2629L2.59143 30.3914C2.59143 30.3914 0 29.6429 0 27.5C0 25.7143 2.66571 24.8629 2.66571 24.8629L63.5686 0.668581C63.5657 0.665724 65.4286 -0.00284801 66.7857 9.13145e-06C67.62 9.13145e-06 68.5715 0.357152 68.5715 1.42858C68.5715 2.14287 68.4286 2.85715 68.4286 2.85715Z" fill="#3BBBF7"/>
<path d="M37.1435 47.156L27.3549 56.796C27.3549 56.796 26.9292 57.1246 26.3606 57.1388C26.1634 57.1446 25.952 57.1131 25.7349 57.016L28.4892 39.9731L37.1435 47.156Z" fill="#AAC6DE"/>
<path d="M56.8505 11.9879C56.3676 11.3593 55.4762 11.2451 54.8476 11.7222L17.1448 34.2851C17.1448 34.2851 23.1619 51.1193 24.0791 54.0336C24.9991 56.9508 25.7362 57.0193 25.7362 57.0193L28.4905 39.9765L56.5819 13.9879C57.2105 13.5108 57.3276 12.6165 56.8505 11.9879Z" fill="#C8D9ED"/>
</svg>
