<svg width="49" height="48" viewBox="0 0 49 48" fill="none" xmlns="http://www.w3.org/2000/svg">
<path d="M34.8258 15.3142L31.4009 32.8008C31.4009 32.8008 31.2537 33.5999 30.2626 33.5999C29.7359 33.5999 29.4644 33.3494 29.4644 33.3494L22.0459 27.1935L18.4162 25.364L13.7579 24.1252C13.7579 24.1252 12.9286 23.8856 12.9286 23.1999C12.9286 22.6285 13.7816 22.356 13.7816 22.356L33.2706 14.6138C33.2697 14.6129 33.8658 14.399 34.3001 14.3999C34.567 14.3999 34.8715 14.5142 34.8715 14.857C34.8715 15.0856 34.8258 15.3142 34.8258 15.3142Z" fill="white"/>
<path d="M24.8144 29.4904L21.6821 32.5752C21.6821 32.5752 21.5459 32.6803 21.3639 32.6849C21.3008 32.6867 21.2332 32.6767 21.1637 32.6456L22.0451 27.1919L24.8144 29.4904Z" fill="#B0BEC5"/>
<path d="M31.1208 18.2357C30.9663 18.0346 30.6811 17.998 30.4799 18.1507L18.415 25.3708C18.415 25.3708 20.3405 30.7578 20.634 31.6904C20.9284 32.6239 21.1643 32.6458 21.1643 32.6458L22.0456 27.1921L31.0349 18.8757C31.236 18.7231 31.2735 18.4369 31.1208 18.2357Z" fill="url(#paint0_linear_214_6290)"/>
<defs>
<linearGradient id="paint0_linear_214_6290" x1="18.415" y1="18.0566" x2="35.1733" y2="27.2804" gradientUnits="userSpaceOnUse">
<stop stop-color="#011845"/>
<stop offset="1" stop-color="#15141D"/>
</linearGradient>
</defs>
</svg>
