<svg width="32" height="32" viewBox="0 0 32 32" fill="none" xmlns="http://www.w3.org/2000/svg">
<rect x="0.5" y="0.5" width="31" height="31" stroke="#1C95E7"/>
<path d="M12.9513 22.4001C18.8927 22.4001 22.1419 17.4761 22.1419 13.2061C22.1419 13.0663 22.139 12.9271 22.1327 12.7884C22.7649 12.3308 23.3106 11.7642 23.744 11.1152C23.1652 11.3726 22.5424 11.5458 21.889 11.6239C22.5559 11.2239 23.0679 10.591 23.3095 9.83667C22.6754 10.213 21.9817 10.4782 21.2583 10.621C20.6689 9.99293 19.8297 9.6001 18.9005 9.6001C17.1167 9.6001 15.6702 11.0472 15.6702 12.831C15.6702 13.0846 15.6986 13.3312 15.754 13.5678C13.0693 13.4326 10.6888 12.1468 9.09562 10.1916C8.80867 10.6848 8.65774 11.2452 8.65824 11.8158C8.65824 12.9369 9.22848 13.9265 10.0957 14.5055C9.58272 14.4899 9.08102 14.3513 8.63277 14.1014C8.63229 14.1149 8.63229 14.1282 8.63229 14.1427C8.63229 15.7076 9.7457 17.0141 11.2237 17.3102C10.9461 17.3858 10.6597 17.4241 10.372 17.4239C10.1642 17.4239 9.9617 17.4035 9.7649 17.3657C10.1761 18.6496 11.3686 19.5839 12.7824 19.61C11.6768 20.4768 10.2841 20.9932 8.7705 20.9932C8.51301 20.9934 8.25573 20.9784 8 20.9484C9.42957 21.865 11.127 22.3999 12.9515 22.3999" fill="#1C95E7"/>
</svg>
