<svg width="74" height="60" viewBox="0 0 74 60" fill="none" xmlns="http://www.w3.org/2000/svg">
<path d="M23.2093 60C51.0597 60 66.2901 36.9186 66.2901 16.9032C66.2901 16.2477 66.2767 15.5952 66.2472 14.9454C69.2107 12.8003 71.7683 10.1443 73.8 7.1019C71.0869 8.3085 68.1675 9.1206 65.1048 9.48675C68.2309 7.6116 70.6308 4.64505 71.7631 1.10895C68.7909 2.87279 65.5392 4.11621 62.1484 4.7856C59.3854 1.8414 55.4518 0 51.0961 0C42.7345 0 35.9539 6.7833 35.9539 15.1447C35.9539 16.3335 36.087 17.4894 36.3468 18.5985C23.7625 17.965 12.6037 11.9377 5.1357 2.7729C3.79063 5.08446 3.08315 7.71159 3.0855 10.386C3.0855 15.6411 5.7585 20.2802 9.8235 22.9943C7.419 22.9208 5.06729 22.2711 2.9661 21.0998C2.96385 21.1633 2.96385 21.2253 2.96385 21.2933C2.96385 28.6287 8.18295 34.7533 15.1111 36.1412C13.8099 36.4957 12.4672 36.6749 11.1186 36.6741C10.1446 36.6741 9.19545 36.5783 8.27295 36.4011C10.2006 42.4194 15.7902 46.799 22.4173 46.9213C17.235 50.9847 10.7068 53.4049 3.6117 53.4049C2.40472 53.406 1.19874 53.3359 0 53.1951C6.7011 57.4919 14.658 59.999 23.2101 59.999" fill="#1DA1F2"/>
</svg>
