<svg width="49" height="48" viewBox="0 0 49 48" fill="none" xmlns="http://www.w3.org/2000/svg">
<rect x="0.948608" y="0.5" width="47" height="47" stroke="#29323E"/>
<path d="M20.3556 33.5999C29.2677 33.5999 34.1414 26.2139 34.1414 19.8089C34.1414 19.5992 34.1372 19.3904 34.1277 19.1824C35.076 18.496 35.8945 17.6461 36.5446 16.6725C35.6764 17.0586 34.7422 17.3185 33.7622 17.4357C34.7625 16.8356 35.5305 15.8863 35.8928 14.7548C34.9417 15.3192 33.9012 15.7171 32.8161 15.9313C31.932 14.9892 30.6732 14.3999 29.2794 14.3999C26.6037 14.3999 24.4339 16.5706 24.4339 19.2462C24.4339 19.6266 24.4765 19.9965 24.5596 20.3514C20.5326 20.1487 16.9618 18.22 14.572 15.2872C14.1416 16.0269 13.9152 16.8676 13.916 17.7234C13.916 19.4051 14.7713 20.8896 16.0721 21.7581C15.3027 21.7346 14.5502 21.5266 13.8778 21.1518C13.8771 21.1722 13.8771 21.192 13.8771 21.2137C13.8771 23.5611 15.5472 25.521 17.7642 25.9651C17.3478 26.0785 16.9181 26.1359 16.4866 26.1356C16.1749 26.1356 15.8712 26.1049 15.576 26.0483C16.1928 27.9741 17.9815 29.3756 20.1022 29.4147C18.4438 30.715 16.3548 31.4895 14.0844 31.4895C13.6981 31.4898 13.3122 31.4674 12.9286 31.4223C15.073 32.7973 17.6192 33.5996 20.3559 33.5996" fill="white"/>
</svg>
