<svg width="32" height="32" viewBox="0 0 32 32" fill="none" xmlns="http://www.w3.org/2000/svg">
<rect x="0.5" y="0.5" width="31" height="31" stroke="#CED2D8"/>
<mask id="path-2-inside-1_223_6019" fill="white">
<path d="M13.7355 23.6001C20.2339 23.6001 23.7877 18.2144 23.7877 13.5442C23.7877 13.3912 23.7845 13.239 23.7776 13.0874C24.4691 12.5868 25.0659 11.9671 25.54 11.2572C24.9069 11.5387 24.2257 11.7282 23.5111 11.8137C24.2405 11.3761 24.8005 10.6839 25.0647 9.85885C24.3712 10.2704 23.6125 10.5605 22.8213 10.7167C22.1766 10.0298 21.2587 9.6001 20.2424 9.6001C18.2914 9.6001 16.7092 11.1829 16.7092 13.1339C16.7092 13.4112 16.7403 13.681 16.8009 13.9397C13.8645 13.7919 11.2608 12.3856 9.51828 10.2471C9.20443 10.7865 9.03935 11.3995 9.0399 12.0235C9.0399 13.2497 9.6636 14.3321 10.6121 14.9654C10.051 14.9483 9.50232 14.7967 9.01204 14.5234C9.01151 14.5382 9.01151 14.5527 9.01151 14.5685C9.01151 16.2801 10.2293 17.7092 11.8459 18.033C11.5423 18.1157 11.229 18.1576 10.9143 18.1574C10.687 18.1574 10.4656 18.135 10.2503 18.0937C10.7001 19.498 12.0043 20.5199 13.5507 20.5484C12.3415 21.4965 10.8182 22.0613 9.16268 22.0613C8.88105 22.0615 8.59965 22.0451 8.31995 22.0123C9.88354 23.0149 11.7401 23.5999 13.7356 23.5999"/>
</mask>
<path d="M13.7355 23.6001C20.2339 23.6001 23.7877 18.2144 23.7877 13.5442C23.7877 13.3912 23.7845 13.239 23.7776 13.0874C24.4691 12.5868 25.0659 11.9671 25.54 11.2572C24.9069 11.5387 24.2257 11.7282 23.5111 11.8137C24.2405 11.3761 24.8005 10.6839 25.0647 9.85885C24.3712 10.2704 23.6125 10.5605 22.8213 10.7167C22.1766 10.0298 21.2587 9.6001 20.2424 9.6001C18.2914 9.6001 16.7092 11.1829 16.7092 13.1339C16.7092 13.4112 16.7403 13.681 16.8009 13.9397C13.8645 13.7919 11.2608 12.3856 9.51828 10.2471C9.20443 10.7865 9.03935 11.3995 9.0399 12.0235C9.0399 13.2497 9.6636 14.3321 10.6121 14.9654C10.051 14.9483 9.50232 14.7967 9.01204 14.5234C9.01151 14.5382 9.01151 14.5527 9.01151 14.5685C9.01151 16.2801 10.2293 17.7092 11.8459 18.033C11.5423 18.1157 11.229 18.1576 10.9143 18.1574C10.687 18.1574 10.4656 18.135 10.2503 18.0937C10.7001 19.498 12.0043 20.5199 13.5507 20.5484C12.3415 21.4965 10.8182 22.0613 9.16268 22.0613C8.88105 22.0615 8.59965 22.0451 8.31995 22.0123C9.88354 23.0149 11.7401 23.5999 13.7356 23.5999" fill="white"/>
<path d="M23.7776 13.0874L21.5681 10.0348L19.9208 11.2272L20.0132 13.2585L23.7776 13.0874ZM25.54 11.2572L28.6737 13.35L35.9035 2.52398L24.0087 7.81405L25.54 11.2572ZM23.5111 11.8137L21.5727 8.58212L23.9584 15.5553L23.5111 11.8137ZM25.0647 9.85885L28.6535 11.0081L31.6822 1.54992L23.1416 6.61819L25.0647 9.85885ZM22.8213 10.7167L20.0735 13.2954L21.5024 14.8181L23.5511 14.4137L22.8213 10.7167ZM16.8009 13.9397L16.6114 17.7033L21.6117 17.955L20.4699 13.0803L16.8009 13.9397ZM9.51828 10.2471L12.4395 7.86669L8.99984 3.64547L6.26124 8.35188L9.51828 10.2471ZM9.0399 12.0235H12.8082L12.8082 12.0202L9.0399 12.0235ZM10.6121 14.9654L10.497 18.732L23.6412 19.1336L12.7046 11.8315L10.6121 14.9654ZM9.01204 14.5234L10.8469 11.2319L5.46397 8.23119L5.24608 14.3901L9.01204 14.5234ZM11.8459 18.033L12.8364 21.6688L12.586 14.3381L11.8459 18.033ZM10.9143 18.1574L10.9165 14.3891H10.9143V18.1574ZM10.2503 18.0937L10.961 14.393L4.72449 13.1954L6.66158 19.2431L10.2503 18.0937ZM13.5507 20.5484L15.8758 23.5139L24.2136 16.9764L13.6203 16.7807L13.5507 20.5484ZM9.16268 22.0613V18.2929L9.15947 18.2929L9.16268 22.0613ZM8.31995 22.0123L8.75956 18.2697L6.28592 25.1845L8.31995 22.0123ZM13.7355 27.3684C22.7491 27.3684 27.556 19.8333 27.556 13.5442H20.0193C20.0193 16.5955 17.7187 19.8318 13.7355 19.8318V27.3684ZM27.556 13.5442C27.556 13.3402 27.5518 13.1306 27.5421 12.9162L20.0132 13.2585C20.0173 13.3474 20.0193 13.4422 20.0193 13.5442H27.556ZM25.9872 16.1399C27.0413 15.3769 27.9511 14.4321 28.6737 13.35L22.4062 9.16444C22.1807 9.50205 21.8969 9.79678 21.5681 10.0348L25.9872 16.1399ZM24.0087 7.81405C23.7206 7.94218 23.4048 8.03123 23.0638 8.072L23.9584 15.5553C25.0466 15.4252 26.0933 15.1353 27.0713 14.7004L24.0087 7.81405ZM25.4495 15.0452C26.9469 14.147 28.1043 12.723 28.6535 11.0081L21.4759 8.70963C21.4966 8.64489 21.5341 8.60528 21.5727 8.58212L25.4495 15.0452ZM23.1416 6.61819C22.817 6.81085 22.4618 6.94666 22.0914 7.01977L23.5511 14.4137C24.7631 14.1744 25.9254 13.73 26.9878 13.0995L23.1416 6.61819ZM25.5691 8.13803C24.2415 6.72341 22.3419 5.83178 20.2424 5.83178V13.3684C20.2151 13.3684 20.1803 13.3618 20.1472 13.3472C20.1168 13.3338 20.0926 13.3159 20.0735 13.2954L25.5691 8.13803ZM20.2424 5.83178C16.2093 5.83178 12.9409 9.10253 12.9409 13.1339H20.4775C20.4775 13.2632 20.3734 13.3684 20.2424 13.3684V5.83178ZM12.9409 13.1339C12.9409 13.6932 13.0036 14.2516 13.1319 14.7992L20.4699 13.0803C20.4769 13.1103 20.4775 13.1293 20.4775 13.1339H12.9409ZM16.9903 10.1762C15.1602 10.0841 13.5346 9.2105 12.4395 7.86669L6.59701 12.6275C8.98709 15.5606 12.5689 17.4998 16.6114 17.7033L16.9903 10.1762ZM6.26124 8.35188C5.61196 9.46769 5.27045 10.7358 5.27158 12.0268L12.8082 12.0202C12.8082 12.0631 12.7969 12.1053 12.7753 12.1423L6.26124 8.35188ZM5.27158 12.0235C5.27158 14.5565 6.56441 16.7939 8.51963 18.0994L12.7046 11.8315C12.7361 11.8525 12.7604 11.8792 12.7782 11.9118C12.7984 11.9488 12.8082 11.9905 12.8082 12.0235H5.27158ZM10.7272 11.1989C10.7691 11.2001 10.8102 11.2115 10.8469 11.2319L7.1772 17.8148C8.19443 18.3819 9.33295 18.6964 10.497 18.732L10.7272 11.1989ZM5.24608 14.3901C5.2428 14.4828 5.2432 14.564 5.2432 14.5685H12.7798C12.7798 14.5574 12.7799 14.5667 12.7797 14.5788C12.7796 14.5934 12.7793 14.6211 12.778 14.6566L5.24608 14.3901ZM5.2432 14.5685C5.2432 18.1088 7.76065 21.0579 11.1058 21.7279L12.586 14.3381C12.6507 14.3511 12.6969 14.384 12.7249 14.4178C12.7571 14.4568 12.7798 14.5146 12.7798 14.5685H5.2432ZM10.8553 14.3972C10.8753 14.3918 10.8958 14.3891 10.9165 14.3891L10.9121 21.9257C11.5621 21.9261 12.2093 21.8397 12.8364 21.6688L10.8553 14.3972ZM10.9143 14.3891C10.9357 14.3891 10.9522 14.3913 10.961 14.393L9.53965 21.7944C9.97893 21.8787 10.4384 21.9257 10.9143 21.9257V14.3891ZM6.66158 19.2431C7.58991 22.1415 10.2788 24.2569 13.4811 24.3161L13.6203 16.7807C13.6694 16.7816 13.7222 16.8011 13.7599 16.8296C13.7924 16.8541 13.822 16.8911 13.839 16.9442L6.66158 19.2431ZM11.2255 17.583C10.6566 18.0291 9.94619 18.2929 9.16268 18.2929V25.8296C11.6902 25.8296 14.0264 24.964 15.8758 23.5139L11.2255 17.583ZM9.15947 18.2929C9.02582 18.2931 8.89229 18.2853 8.75956 18.2697L7.88034 25.7549C8.30702 25.805 8.73628 25.8299 9.16588 25.8296L9.15947 18.2929ZM6.28592 25.1845C8.43331 26.5614 10.992 27.3682 13.7356 27.3682V19.8315C12.4883 19.8315 11.3338 19.4683 10.354 18.8401L6.28592 25.1845Z" fill="#CED2D8" mask="url(#path-2-inside-1_223_6019)"/>
</svg>
