<svg width="60" height="60" viewBox="0 0 60 60" fill="none" xmlns="http://www.w3.org/2000/svg">
<rect x="0.5" y="0.5" width="59" height="59" rx="29.5" fill="white"/>
<path d="M49.1173 20.3868C48.8878 19.5389 48.4403 18.7659 47.8192 18.1448C47.1981 17.5236 46.4251 17.0761 45.5772 16.8466C42.4731 16 29.9801 16 29.9801 16C29.9801 16 17.4864 16.0256 14.3823 16.8722C13.5344 17.1017 12.7614 17.5493 12.1403 18.1705C11.5192 18.7916 11.0716 19.5646 10.8422 20.4126C9.90331 25.928 9.53908 34.3322 10.868 39.627C11.0975 40.4749 11.545 41.2479 12.1661 41.869C12.7872 42.4901 13.5602 42.9377 14.4081 43.1672C17.5122 44.0138 30.0055 44.0138 30.0055 44.0138C30.0055 44.0138 42.4987 44.0138 45.6027 43.1672C46.4506 42.9377 47.2236 42.4902 47.8447 41.869C48.4659 41.2479 48.9134 40.4749 49.1429 39.627C50.1332 34.1037 50.4384 25.7049 49.1173 20.3869V20.3868Z" fill="#1C95E7"/>
<path d="M26.0037 36.0097L36.3676 30.0068L26.0037 24.0039V36.0097Z" fill="white"/>
<rect x="0.5" y="0.5" width="59" height="59" rx="29.5" stroke="#1C95E7"/>
</svg>
