<svg width="310" height="28" viewBox="0 0 310 28" fill="none" xmlns="http://www.w3.org/2000/svg">
<g clip-path="url(#clip0_221_6139)">
<path fill-rule="evenodd" clip-rule="evenodd" d="M28.1154 7.19916C27.765 7.19916 27.4802 7.48427 27.4802 7.83431V20.1312C27.4802 20.4816 27.765 20.7663 28.1154 20.7663H39.8957C40.2458 20.7663 40.5309 20.4816 40.5309 20.1312V7.83431C40.5309 7.48427 40.2458 7.19916 39.8957 7.19916H28.1154ZM39.8957 22.8161H28.1154C26.6349 22.8161 25.4305 21.6117 25.4305 20.1312V7.83431C25.4305 6.35381 26.6349 5.14941 28.1154 5.14941H39.8957C41.3759 5.14941 42.5806 6.35381 42.5806 7.83431V20.1312C42.5806 21.6117 41.3759 22.8161 39.8957 22.8161Z" fill="#333333" fill-opacity="0.7"/>
<path fill-rule="evenodd" clip-rule="evenodd" d="M144.201 22.8473H131.822V20.7976H144.201C144.551 20.7976 144.836 20.5125 144.836 20.1621V15.5474C144.836 15.1973 144.551 14.9122 143.52 14.9122H133.793C132.994 14.9122 131.789 13.7078 131.789 12.2273V7.86556C131.789 6.38506 132.994 5.18066 134.474 5.18066H146.346V7.23041H134.474C134.124 7.23041 133.839 7.5152 133.839 7.86556V12.2273C133.839 12.5777 134.124 12.8625 134.474 12.8625H144.201C145.681 12.8625 146.886 14.0669 146.886 15.5474V20.1621C146.886 21.6426 145.681 22.8473 144.201 22.8473Z" fill="#333333" fill-opacity="0.7"/>
<path fill-rule="evenodd" clip-rule="evenodd" d="M108.476 22.8434H94.9635V5.17993H97.0132V20.7936H108.476V22.8434Z" fill="#333333" fill-opacity="0.7"/>
<path fill-rule="evenodd" clip-rule="evenodd" d="M81.8164 22.8405L69.1052 8.27559V22.8588H67.0555V5.17798H69.1222L82.1552 20.1093L82.1536 5.17991H84.2034L84.2053 22.8405H81.8164Z" fill="#333333" fill-opacity="0.7"/>
<path fill-rule="evenodd" clip-rule="evenodd" d="M53.7904 22.8466H55.8485V5.17993H53.7904V22.8466Z" fill="#333333" fill-opacity="0.7"/>
<path fill-rule="evenodd" clip-rule="evenodd" d="M118.321 22.845H120.379V5.17798H118.321V22.845Z" fill="#333333" fill-opacity="0.7"/>
<path fill-rule="evenodd" clip-rule="evenodd" d="M172.095 5.18087H164.878V5.17798H162.82V5.18087H155.603V7.23898H162.82V22.8466H164.878V7.23898H172.095V5.18087Z" fill="#333333" fill-opacity="0.7"/>
<path fill-rule="evenodd" clip-rule="evenodd" d="M15.246 22.8161H2.81957C1.33939 22.8161 0.134678 21.6117 0.134678 20.1312V7.83431C0.134678 6.35381 1.33939 5.14941 2.81957 5.14941H15.246V7.19916H2.81957C2.46953 7.19916 2.18443 7.48427 2.18443 7.83431V20.1312C2.18443 20.4816 2.46953 20.7663 2.81957 20.7663H15.246V22.8161Z" fill="#333333" fill-opacity="0.7"/>
</g>
<defs>
<clipPath id="clip0_221_6139">
<rect width="172.2" height="18" fill="white" transform="translate(0 5)"/>
</clipPath>
</defs>
</svg>
