<svg width="133" height="28" viewBox="0 0 133 28" fill="none" xmlns="http://www.w3.org/2000/svg">
<path d="M47.5737 12.9792H37.1064V4.91943H35.0653V23.0802H37.1064V14.9157H47.5737V23.0802H49.6148V4.91943H47.5737V12.9792Z" fill="#333333" fill-opacity="0.7"/>
<path d="M58.5645 9.4729C57.5701 9.4729 56.6804 9.57757 55.9477 9.78692C55.1627 9.99627 54.4299 10.2579 53.6972 10.6243L54.2729 12.2467C54.901 11.9327 55.529 11.7234 56.1571 11.5664C56.7851 11.4093 57.5178 11.3047 58.3028 11.3047C59.5589 11.3047 60.5533 11.6187 61.2337 12.2467C61.9141 12.8748 62.2804 13.7645 62.2804 14.9682V15.3869C61.6524 15.2299 61.0767 15.0729 60.4486 14.9682C59.8206 14.8636 59.0879 14.8112 58.1982 14.8112C57.3608 14.8112 56.5757 14.9159 55.8954 15.0729C55.215 15.2822 54.587 15.5439 54.0636 15.9103C53.5402 16.2766 53.1739 16.7477 52.8599 17.271C52.5982 17.7944 52.4412 18.4748 52.4412 19.1551V19.2075C52.4412 19.8879 52.5982 20.5159 52.8599 21.0393C53.1215 21.5626 53.5402 21.9813 54.0113 22.3477C54.4823 22.714 55.0056 22.9757 55.6337 23.1327C56.2617 23.2897 56.8374 23.3944 57.4655 23.3944C58.6169 23.3944 59.6113 23.1851 60.3963 22.714C61.1814 22.243 61.8094 21.7196 62.2804 21.0916V23.0804H64.2692V14.8636C64.2692 13.1888 63.7982 11.828 62.8561 10.9383C61.9141 9.94393 60.501 9.4729 58.5645 9.4729ZM62.3851 18.1607C62.3851 18.6841 62.2804 19.2075 62.0187 19.6262C61.8094 20.0449 61.443 20.4636 61.0767 20.7776C60.658 21.0916 60.187 21.3533 59.6636 21.5103C59.1402 21.6673 58.5645 21.772 57.9365 21.772C57.4655 21.772 57.0468 21.7196 56.6804 21.615C56.2617 21.5103 55.8954 21.3009 55.5814 21.0916C55.2673 20.8822 55.0056 20.5682 54.8486 20.2542C54.6916 19.9402 54.587 19.5215 54.587 19.1551V19.1028C54.587 18.3178 54.9533 17.6374 55.6337 17.1664C56.3141 16.6953 57.2561 16.4336 58.5122 16.4336C59.3496 16.4336 60.0823 16.486 60.7103 16.5907C61.3384 16.6953 61.9141 16.8523 62.4374 16.957V18.1607H62.3851Z" fill="#333333" fill-opacity="0.7"/>
<path d="M76.0972 21.0394C75.4168 21.4057 74.6841 21.6151 73.7944 21.6151C73.0617 21.6151 72.4337 21.4581 71.858 21.1964C71.2823 20.9347 70.7589 20.5683 70.2879 20.0973C69.8692 19.6263 69.5028 19.0506 69.2412 18.4225C68.9795 17.7945 68.8748 17.1141 68.8748 16.3814V16.3291C68.8748 15.5964 68.9795 14.916 69.2412 14.288C69.5028 13.6599 69.8169 13.0842 70.2355 12.6132C70.6542 12.1422 71.1776 11.7758 71.7533 11.5141C72.329 11.2525 72.957 11.0954 73.6374 11.0954C74.5795 11.0954 75.3122 11.3048 75.9402 11.6711C76.5682 12.0898 77.144 12.5609 77.6673 13.0842L78.9757 11.6711C78.6617 11.3571 78.3477 11.0431 77.9813 10.7291C77.615 10.4151 77.1963 10.1534 76.7776 9.94405C76.3589 9.7347 75.8879 9.57769 75.3645 9.42068C74.8412 9.31601 74.2654 9.26367 73.6374 9.26367C72.643 9.26367 71.7533 9.47302 70.9159 9.83937C70.0785 10.2057 69.3458 10.7291 68.7178 11.3571C68.0898 11.9852 67.6187 12.7179 67.2524 13.6076C66.886 14.445 66.729 15.3347 66.729 16.3291V16.3814C66.729 17.3235 66.886 18.2132 67.2524 19.0506C67.6187 19.888 68.0898 20.6207 68.7178 21.2487C69.3458 21.8768 70.0785 22.4001 70.9159 22.7665C71.7533 23.1328 72.643 23.3422 73.6374 23.3422C74.8935 23.3422 75.9402 23.0805 76.8299 22.6095C77.6673 22.1384 78.4524 21.5104 79.1327 20.7254L77.8767 19.5216C77.3533 20.1497 76.7253 20.673 76.0972 21.0394Z" fill="#333333" fill-opacity="0.7"/>
<path d="M93.2635 9.62985H90.7514L83.5289 17.2186V4.13452H81.5402V23.0803H83.5289V19.5738L86.2504 16.7999L91.0654 23.0803H93.4729L87.6112 15.4392L93.2635 9.62985Z" fill="#333333" fill-opacity="0.7"/>
<path d="M114.722 4.91943L107.551 21.6148L100.434 4.91943H98.9683L106.923 23.1849H108.127L116.135 4.91943H114.722Z" fill="#333333" fill-opacity="0.7"/>
<path d="M131.469 19.3646C130.527 20.3067 129.585 20.987 128.643 21.4581C127.648 21.9291 126.549 22.1908 125.189 22.1908C124.09 22.1908 123.095 21.9814 122.153 21.5627C121.211 21.144 120.426 20.5683 119.746 19.8356C119.065 19.1029 118.542 18.2132 118.123 17.2188C117.705 16.2244 117.548 15.1777 117.548 14.0263V13.9739C117.548 12.8225 117.757 11.7758 118.123 10.7814C118.49 9.78702 119.065 8.94964 119.746 8.21693C120.426 7.48422 121.263 6.90852 122.153 6.48983C123.095 6.07113 124.09 5.86179 125.189 5.86179C125.869 5.86179 126.497 5.91412 127.073 6.07113C127.648 6.22814 128.172 6.38515 128.695 6.64684C129.166 6.85618 129.637 7.1702 130.108 7.48422C130.527 7.79824 130.946 8.16459 131.364 8.53095L132.306 7.53656C131.835 7.11786 131.364 6.69917 130.841 6.33282C130.37 5.96646 129.794 5.65244 129.271 5.39076C128.695 5.12908 128.119 4.91973 127.439 4.81506C126.759 4.65805 126.026 4.60571 125.241 4.60571C123.933 4.60571 122.729 4.8674 121.63 5.33842C120.531 5.80945 119.589 6.48983 118.751 7.37954C117.966 8.21693 117.338 9.21132 116.867 10.3627C116.396 11.5141 116.187 12.7179 116.187 13.9739V14.0263C116.187 15.3347 116.396 16.5384 116.867 17.6898C117.338 18.8412 117.966 19.8356 118.751 20.673C119.536 21.5104 120.531 22.1908 121.63 22.6618C122.729 23.1328 123.933 23.3945 125.241 23.3945C126.026 23.3945 126.759 23.3422 127.439 23.1852C128.119 23.0281 128.748 22.8188 129.323 22.5571C129.899 22.2954 130.422 21.9291 130.946 21.5627C131.469 21.1964 131.94 20.7253 132.463 20.2543L131.469 19.3646Z" fill="#333333" fill-opacity="0.7"/>
<path d="M18.2131 3.24486L12.5607 8.8972H6.90841L0 15.8056H6.54206V21.4579H12.1944V28L19.1028 21.0916V15.4393L24.7028 9.83925L27.9477 0L18.2131 3.24486ZM2.98318 14.5495L7.37944 10.1533H11.3047L6.90841 14.5495H2.98318ZM26.0112 1.98878L23.6037 9.15888L12.5607 20.2019H7.79813V15.4393L18.8411 4.39626L26.0112 1.98878ZM13.4505 25.0168V21.0916L17.8467 16.6953V20.6206L13.4505 25.0168Z" fill="#333333" fill-opacity="0.7"/>
<path d="M1.04676 24.4935L5.28601 20.2543C5.39068 20.1496 5.39068 19.9926 5.28601 19.8356C5.18134 19.7309 5.02433 19.7309 4.86732 19.8356L0.628065 24.0748C0.523392 24.1795 0.523392 24.3365 0.628065 24.4935C0.785075 24.5982 0.942083 24.5982 1.04676 24.4935Z" fill="#333333" fill-opacity="0.7"/>
<path d="M7.74574 22.7139L3.50648 26.9532C3.40181 27.0579 3.40181 27.2149 3.50648 27.3719C3.61116 27.4766 3.76816 27.4766 3.92517 27.3719L8.16443 23.1326C8.2691 23.028 8.2691 22.871 8.16443 22.7139C8.00742 22.5569 7.85041 22.5569 7.74574 22.7139Z" fill="#333333" fill-opacity="0.7"/>
<path d="M5.65236 22.3475C5.54769 22.2429 5.39068 22.2429 5.23367 22.3475L0.628065 26.9532C0.523392 27.0578 0.523392 27.2148 0.628065 27.3718C0.732738 27.4765 0.889747 27.4765 1.04676 27.3718L5.65236 22.7662C5.75704 22.6092 5.75704 22.4522 5.65236 22.3475Z" fill="#333333" fill-opacity="0.7"/>
<path d="M21.7204 8.45982C22.3336 7.84667 22.3336 6.85255 21.7204 6.2394C21.1073 5.62624 20.1131 5.62624 19.5 6.2394C18.8868 6.85255 18.8868 7.84667 19.5 8.45982C20.1131 9.07298 21.1073 9.07298 21.7204 8.45982Z" fill="#333333" fill-opacity="0.7"/>
</svg>
