<svg width="310" height="28" viewBox="0 0 310 28" fill="none" xmlns="http://www.w3.org/2000/svg">
<path d="M6.77855 7.49698C7.66794 7.49698 8.50925 7.65322 9.30248 7.9657C10.1077 8.26617 10.8229 8.71687 11.4478 9.31781C12.0728 9.90673 12.5656 10.6279 12.9261 11.4812C13.2867 12.3225 13.467 13.284 13.467 14.3657C13.467 14.57 13.4489 14.8464 13.4129 15.195C13.3888 15.5435 13.3288 15.9161 13.2326 16.3127C13.1365 16.7093 12.9862 17.0879 12.7819 17.4485C12.5896 17.797 12.3252 18.0855 11.9887 18.3138C11.6521 18.5422 11.2315 18.6564 10.7267 18.6564C10.306 18.6564 9.98154 18.5782 9.75319 18.422C9.52483 18.2658 9.36258 18.0734 9.26643 17.8451C9.1823 17.6047 9.1222 17.3583 9.08615 17.1059C8.73761 17.4785 8.29291 17.785 7.75207 18.0254C7.22325 18.2537 6.64635 18.3679 6.02138 18.3679C5.14401 18.3679 4.46495 18.1335 3.9842 17.6648C3.51547 17.1961 3.28111 16.6012 3.28111 15.88C3.28111 15.231 3.44336 14.7202 3.76787 14.3476C4.10439 13.9751 4.53105 13.7107 5.04786 13.5544C5.57668 13.3982 6.10551 13.32 6.63433 13.32C7.13912 13.32 7.5778 13.3681 7.95038 13.4643C8.32296 13.5604 8.59939 13.6445 8.77967 13.7167C8.77967 13.2359 8.71958 12.8092 8.59939 12.4367C8.4792 12.0641 8.26287 11.7756 7.95038 11.5713C7.64991 11.367 7.21724 11.2648 6.65236 11.2648C6.17161 11.2648 5.72091 11.337 5.30025 11.4812C4.89162 11.6254 4.52505 11.8237 4.20054 12.0761L3.80392 10.9944C4.2366 10.706 4.71134 10.4836 5.22814 10.3274C5.74495 10.1711 6.27978 10.093 6.83264 10.093C7.5778 10.093 8.16071 10.2072 8.58136 10.4356C9.01404 10.6519 9.32652 10.9524 9.51882 11.337C9.72314 11.7095 9.85535 12.1182 9.91544 12.5629C9.97553 12.9955 10.0056 13.4162 10.0056 13.8248V15.7719C10.0056 16.1204 10.0176 16.4449 10.0416 16.7454C10.0777 17.0458 10.1618 17.2862 10.294 17.4665C10.4262 17.6348 10.6306 17.7189 10.907 17.7189C11.2555 17.7189 11.538 17.5987 11.7543 17.3583C11.9706 17.118 12.1389 16.8175 12.2591 16.4569C12.3793 16.0844 12.4634 15.7058 12.5115 15.3212C12.5596 14.9366 12.5836 14.606 12.5836 14.3296C12.5836 13.4763 12.4394 12.6891 12.1509 11.9679C11.8625 11.2348 11.4538 10.5978 10.925 10.057C10.4082 9.51612 9.79525 9.09546 9.08615 8.79499C8.37704 8.48251 7.58982 8.32627 6.72447 8.32627C5.89518 8.32627 5.11997 8.4765 4.39885 8.77697C3.68975 9.06542 3.07078 9.47405 2.54196 10.0029C2.02515 10.5317 1.61652 11.1567 1.31605 11.8778C1.0276 12.5989 0.883375 13.3801 0.883375 14.2214C0.883375 15.0507 1.02159 15.8259 1.29802 16.5471C1.57445 17.2562 1.96506 17.8812 2.46985 18.422C2.97463 18.9628 3.56956 19.3895 4.25462 19.702C4.95171 20.0145 5.72091 20.1707 6.56222 20.1707C7.11508 20.1707 7.60785 20.1046 8.04052 19.9724C8.47319 19.8402 8.91188 19.678 9.35657 19.4857L9.64502 20.2789C9.15225 20.5193 8.64146 20.6995 8.11263 20.8197C7.58381 20.9399 7.06099 21 6.54419 21C5.64279 21 4.79547 20.8317 4.00223 20.4952C3.22101 20.1707 2.52994 19.708 1.929 19.107C1.32807 18.5061 0.853329 17.791 0.504786 16.9617C0.168262 16.1324 0 15.219 0 14.2214C0 13.1638 0.180281 12.2203 0.540842 11.391C0.913422 10.5617 1.41821 9.85865 2.0552 9.28176C2.69219 8.70486 3.41331 8.26617 4.21857 7.9657C5.03584 7.65322 5.88917 7.49698 6.77855 7.49698ZM7.75207 16.9076C8.01648 16.7754 8.2208 16.6312 8.36502 16.475C8.50925 16.3067 8.61141 16.1324 8.6715 15.9521C8.7316 15.7598 8.76164 15.5675 8.76164 15.3752V14.6902C8.59338 14.6541 8.32296 14.582 7.95038 14.4738C7.5778 14.3657 7.13912 14.3116 6.63433 14.3116C6.24973 14.3116 5.89518 14.3597 5.57067 14.4558C5.24617 14.552 4.98777 14.7142 4.79547 14.9426C4.60317 15.1589 4.50702 15.4534 4.50702 15.8259C4.50702 16.1024 4.57312 16.3548 4.70533 16.5831C4.83753 16.7995 5.02382 16.9737 5.2642 17.1059C5.50457 17.2261 5.79302 17.2862 6.12954 17.2862C6.39396 17.2862 6.67039 17.2502 6.95883 17.178C7.2593 17.1059 7.52372 17.0158 7.75207 16.9076Z" fill="#333333" fill-opacity="0.7"/>
<path d="M15.8426 19.8901V7.09014H21.215C21.7919 7.09014 22.3207 7.21033 22.8014 7.4507C23.2822 7.69108 23.7028 8.00957 24.0634 8.40619C24.4239 8.80281 24.7004 9.2475 24.8927 9.74027C25.085 10.233 25.1811 10.7378 25.1811 11.2546C25.1811 11.9637 25.0189 12.6428 24.6944 13.2918C24.3819 13.9288 23.9312 14.4456 23.3423 14.8422C22.7654 15.2388 22.0923 15.4371 21.3231 15.4371H17.8617V19.8901H15.8426ZM17.8617 13.6524H21.1969C21.5815 13.6524 21.918 13.5502 22.2065 13.3459C22.4949 13.1295 22.7173 12.8411 22.8735 12.4805C23.0418 12.12 23.1259 11.7113 23.1259 11.2546C23.1259 10.7859 23.0298 10.3713 22.8375 10.0107C22.6452 9.65013 22.3928 9.3737 22.0803 9.1814C21.7798 8.97708 21.4493 8.87492 21.0888 8.87492H17.8617V13.6524Z" fill="#333333" fill-opacity="0.7"/>
<path d="M29.8552 7.09014H31.7662L36.7419 19.8901H34.6146L33.2625 16.4107H28.3228L26.9887 19.8901H24.8434L29.8552 7.09014ZM32.8659 14.9143L30.8107 9.3076L28.6834 14.9143H32.8659Z" fill="#333333" fill-opacity="0.7"/>
<path d="M43.133 19.9802C42.1114 19.9802 41.2461 19.8059 40.537 19.4574C39.8399 19.1089 39.275 18.6341 38.8423 18.0332C38.4217 17.4322 38.1092 16.7472 37.9049 15.978C37.7126 15.2088 37.6164 14.4095 37.6164 13.5802V7.09014H39.6356V13.5802C39.6356 14.1692 39.6957 14.7401 39.8158 15.2929C39.936 15.8338 40.1283 16.3205 40.3927 16.7532C40.6571 17.1859 41.0117 17.5284 41.4564 17.7808C41.9131 18.0332 42.472 18.1594 43.133 18.1594C43.806 18.1594 44.3649 18.0332 44.8096 17.7808C45.2663 17.5164 45.6209 17.1678 45.8733 16.7352C46.1377 16.2905 46.33 15.7977 46.4502 15.2569C46.5704 14.716 46.6304 14.1571 46.6304 13.5802V7.09014H48.6676V13.5802C48.6676 14.4576 48.5594 15.2869 48.3431 16.0681C48.1388 16.8373 47.8143 17.5164 47.3696 18.1053C46.9369 18.6822 46.372 19.1389 45.675 19.4754C44.9779 19.8119 44.1306 19.9802 43.133 19.9802Z" fill="#333333" fill-opacity="0.7"/>
<path d="M51.353 19.8901V7.09014H53.3721V18.1053H60.2408V19.8901H51.353Z" fill="#333333" fill-opacity="0.7"/>
<path d="M61.8811 19.8901V7.09014H67.4517C68.0286 7.09014 68.5575 7.21033 69.0382 7.4507C69.519 7.69108 69.9336 8.00957 70.2822 8.40619C70.6427 8.80281 70.9191 9.2475 71.1114 9.74027C71.3158 10.233 71.4179 10.7378 71.4179 11.2546C71.4179 11.8195 71.3158 12.3604 71.1114 12.8772C70.9071 13.394 70.6127 13.8387 70.2281 14.2112C69.8555 14.5838 69.4168 14.8542 68.912 15.0225L71.9227 19.8901H69.6512L66.8748 15.4371H63.9002V19.8901H61.8811ZM63.9002 13.6524H67.4337C67.8063 13.6524 68.1368 13.5442 68.4253 13.3279C68.7137 13.1115 68.9421 12.8231 69.1103 12.4625C69.2786 12.0899 69.3627 11.6873 69.3627 11.2546C69.3627 10.8099 69.2666 10.4133 69.0743 10.0648C68.882 9.70421 68.6296 9.41576 68.3171 9.19942C68.0166 8.98309 67.6861 8.87492 67.3255 8.87492H63.9002V13.6524Z" fill="#333333" fill-opacity="0.7"/>
<path d="M84.3104 7.09014V19.8901H82.2732V14.2473H75.8192V19.8901H73.8V7.09014H75.8192V12.4445H82.2732V7.09014H84.3104Z" fill="#333333" fill-opacity="0.7"/>
<path d="M92.5161 19.9802C91.5907 19.9802 90.7554 19.7999 90.0102 19.4394C89.265 19.0788 88.622 18.5921 88.0812 17.9791C87.5404 17.3541 87.1197 16.657 86.8192 15.8878C86.5308 15.1066 86.3866 14.3074 86.3866 13.4901C86.3866 12.6368 86.5428 11.8255 86.8553 11.0563C87.1678 10.2751 87.6005 9.58402 88.1533 8.98309C88.7062 8.37013 89.3552 7.88939 90.1003 7.54085C90.8575 7.18028 91.6748 7 92.5522 7C93.4656 7 94.2949 7.1863 95.04 7.55888C95.7972 7.93146 96.4402 8.43023 96.969 9.0552C97.5099 9.68017 97.9245 10.3773 98.213 11.1465C98.5134 11.9157 98.6637 12.7029 98.6637 13.5081C98.6637 14.3615 98.5074 15.1787 98.195 15.96C97.8945 16.7292 97.4678 17.4202 96.915 18.0332C96.3621 18.6341 95.7071 19.1089 94.9499 19.4574C94.2047 19.8059 93.3935 19.9802 92.5161 19.9802ZM88.4418 13.4901C88.4418 14.091 88.5379 14.674 88.7302 15.2388C88.9225 15.8037 89.1929 16.3085 89.5415 16.7532C89.902 17.1859 90.3347 17.5284 90.8395 17.7808C91.3443 18.0332 91.9092 18.1594 92.5341 18.1594C93.1831 18.1594 93.76 18.0272 94.2648 17.7628C94.7696 17.4983 95.1903 17.1438 95.5268 16.6991C95.8753 16.2424 96.1397 15.7376 96.32 15.1847C96.5003 14.6199 96.5904 14.055 96.5904 13.4901C96.5904 12.8892 96.4943 12.3123 96.302 11.7594C96.1217 11.1945 95.8513 10.6958 95.4907 10.2631C95.1302 9.81839 94.6975 9.46985 94.1927 9.21745C93.7 8.96506 93.1471 8.83887 92.5341 8.83887C91.8851 8.83887 91.3082 8.97107 90.8034 9.23548C90.2987 9.4999 89.872 9.85445 89.5234 10.2991C89.1749 10.7438 88.9045 11.2426 88.7122 11.7955C88.5319 12.3483 88.4418 12.9132 88.4418 13.4901Z" fill="#333333" fill-opacity="0.7"/>
<path d="M100.754 19.8901V7.09014H102.773V18.1053H109.642V19.8901H100.754Z" fill="#333333" fill-opacity="0.7"/>
<path d="M111.282 19.8901V7.09014H113.301V18.1053H120.17V19.8901H111.282Z" fill="#333333" fill-opacity="0.7"/>
<path d="M125.506 7.09014H127.417L132.393 19.8901H130.265L128.913 16.4107H123.974L122.64 19.8901H120.494L125.506 7.09014ZM128.517 14.9143L126.462 9.3076L124.334 14.9143H128.517Z" fill="#333333" fill-opacity="0.7"/>
<path d="M135.995 10.84V19.8901H133.976V7.09014H135.634L142.882 16.3385V7.10817H144.919V19.8901H143.152L135.995 10.84Z" fill="#333333" fill-opacity="0.7"/>
<path d="M147.796 19.8901V7.09014H152.339C153.721 7.09014 154.875 7.37859 155.801 7.95549C156.726 8.52037 157.417 9.28957 157.874 10.2631C158.343 11.2246 158.577 12.2942 158.577 13.4721C158.577 14.7701 158.318 15.8999 157.802 16.8614C157.297 17.8229 156.576 18.568 155.638 19.0968C154.701 19.6257 153.601 19.8901 152.339 19.8901H147.796ZM156.522 13.4721C156.522 12.5707 156.353 11.7774 156.017 11.0924C155.692 10.3953 155.218 9.85444 154.593 9.46985C153.98 9.07323 153.229 8.87492 152.339 8.87492H149.815V18.1053H152.339C153.241 18.1053 153.998 17.901 154.611 17.4923C155.236 17.0837 155.71 16.5308 156.035 15.8338C156.359 15.1367 156.522 14.3494 156.522 13.4721Z" fill="#333333" fill-opacity="0.7"/>
</svg>
