<svg width="293" height="28" viewBox="0 0 293 28" fill="none" xmlns="http://www.w3.org/2000/svg">
<path d="M7.98 9.543C8.91733 9.543 9.804 9.70767 10.64 10.037C11.4887 10.3537 12.2423 10.8287 12.901 11.462C13.5597 12.0827 14.079 12.8427 14.459 13.742C14.839 14.6287 15.029 15.642 15.029 16.782C15.029 16.9973 15.01 17.2887 14.972 17.656C14.9467 18.0233 14.8833 18.416 14.782 18.834C14.6807 19.252 14.5223 19.651 14.307 20.031C14.1043 20.3983 13.8257 20.7023 13.471 20.943C13.1163 21.1837 12.673 21.304 12.141 21.304C11.6977 21.304 11.3557 21.2217 11.115 21.057C10.8743 20.8923 10.7033 20.6897 10.602 20.449C10.5133 20.1957 10.45 19.936 10.412 19.67C10.0447 20.0627 9.576 20.3857 9.006 20.639C8.44867 20.8797 7.84067 21 7.182 21C6.25733 21 5.54167 20.753 5.035 20.259C4.541 19.765 4.294 19.138 4.294 18.378C4.294 17.694 4.465 17.1557 4.807 16.763C5.16167 16.3703 5.61133 16.0917 6.156 15.927C6.71333 15.7623 7.27067 15.68 7.828 15.68C8.36 15.68 8.82233 15.7307 9.215 15.832C9.60767 15.9333 9.899 16.022 10.089 16.098C10.089 15.5913 10.0257 15.1417 9.899 14.749C9.77233 14.3563 9.54433 14.0523 9.215 13.837C8.89833 13.6217 8.44233 13.514 7.847 13.514C7.34033 13.514 6.86533 13.59 6.422 13.742C5.99133 13.894 5.605 14.103 5.263 14.369L4.845 13.229C5.301 12.925 5.80133 12.6907 6.346 12.526C6.89067 12.3613 7.45433 12.279 8.037 12.279C8.82233 12.279 9.43667 12.3993 9.88 12.64C10.336 12.868 10.6653 13.1847 10.868 13.59C11.0833 13.9827 11.2227 14.4133 11.286 14.882C11.3493 15.338 11.381 15.7813 11.381 16.212V18.264C11.381 18.6313 11.3937 18.9733 11.419 19.29C11.457 19.6067 11.5457 19.86 11.685 20.05C11.8243 20.2273 12.0397 20.316 12.331 20.316C12.6983 20.316 12.996 20.1893 13.224 19.936C13.452 19.6827 13.6293 19.366 13.756 18.986C13.8827 18.5933 13.9713 18.1943 14.022 17.789C14.0727 17.3837 14.098 17.0353 14.098 16.744C14.098 15.8447 13.946 15.015 13.642 14.255C13.338 13.4823 12.9073 12.811 12.35 12.241C11.8053 11.671 11.1593 11.2277 10.412 10.911C9.66467 10.5817 8.835 10.417 7.923 10.417C7.049 10.417 6.232 10.5753 5.472 10.892C4.72467 11.196 4.07233 11.6267 3.515 12.184C2.97033 12.7413 2.53967 13.4 2.223 14.16C1.919 14.92 1.767 15.7433 1.767 16.63C1.767 17.504 1.91267 18.321 2.204 19.081C2.49533 19.8283 2.907 20.487 3.439 21.057C3.971 21.627 4.598 22.0767 5.32 22.406C6.05467 22.7353 6.86533 22.9 7.752 22.9C8.33467 22.9 8.854 22.8303 9.31 22.691C9.766 22.5517 10.2283 22.3807 10.697 22.178L11.001 23.014C10.4817 23.2673 9.94333 23.4573 9.386 23.584C8.82867 23.7107 8.27767 23.774 7.733 23.774C6.783 23.774 5.89 23.5967 5.054 23.242C4.23067 22.9 3.50233 22.4123 2.869 21.779C2.23567 21.1457 1.73533 20.392 1.368 19.518C1.01333 18.644 0.836 17.6813 0.836 16.63C0.836 15.5153 1.026 14.521 1.406 13.647C1.79867 12.773 2.33067 12.032 3.002 11.424C3.67333 10.816 4.43333 10.3537 5.282 10.037C6.14333 9.70767 7.04267 9.543 7.98 9.543ZM9.006 19.461C9.28467 19.3217 9.5 19.1697 9.652 19.005C9.804 18.8277 9.91167 18.644 9.975 18.454C10.0383 18.2513 10.07 18.0487 10.07 17.846V17.124C9.89267 17.086 9.60767 17.01 9.215 16.896C8.82233 16.782 8.36 16.725 7.828 16.725C7.42267 16.725 7.049 16.7757 6.707 16.877C6.365 16.9783 6.09267 17.1493 5.89 17.39C5.68733 17.618 5.586 17.9283 5.586 18.321C5.586 18.6123 5.65567 18.8783 5.795 19.119C5.93433 19.347 6.13067 19.5307 6.384 19.67C6.63733 19.7967 6.94133 19.86 7.296 19.86C7.57467 19.86 7.866 19.822 8.17 19.746C8.48667 19.67 8.76533 19.575 9.006 19.461ZM26.2071 9.391H21.7231V21H19.5761V9.391H15.0731V7.51H26.2071V9.391ZM32.8041 7.567H34.7991L36.4711 12.146L38.1621 7.567H40.1571L37.8391 13.571L39.8531 18.53L44.0521 7.51H46.3891L40.8601 21H39.0171L36.4901 14.958L33.9441 21H32.0821L26.5721 7.51H28.8901L33.1081 18.53L35.1221 13.571L32.8041 7.567ZM53.085 21.095C52.1096 21.095 51.2293 20.905 50.444 20.525C49.6586 20.145 48.981 19.632 48.411 18.986C47.841 18.3273 47.3976 17.5927 47.081 16.782C46.777 15.9587 46.625 15.1163 46.625 14.255C46.625 13.3557 46.7896 12.5007 47.119 11.69C47.4483 10.8667 47.9043 10.1383 48.487 9.505C49.0696 8.859 49.7536 8.35233 50.539 7.985C51.337 7.605 52.1983 7.415 53.123 7.415C54.0856 7.415 54.9596 7.61133 55.745 8.004C56.543 8.39667 57.2206 8.92233 57.778 9.581C58.348 10.2397 58.785 10.9743 59.089 11.785C59.4056 12.5957 59.564 13.4253 59.564 14.274C59.564 15.1733 59.3993 16.0347 59.07 16.858C58.7533 17.6687 58.3036 18.397 57.721 19.043C57.1383 19.6763 56.448 20.1767 55.65 20.544C54.8646 20.9113 54.0096 21.095 53.085 21.095ZM48.791 14.255C48.791 14.8883 48.8923 15.5027 49.095 16.098C49.2976 16.6933 49.5826 17.2253 49.95 17.694C50.33 18.15 50.786 18.511 51.318 18.777C51.85 19.043 52.4453 19.176 53.104 19.176C53.788 19.176 54.396 19.0367 54.928 18.758C55.46 18.4793 55.9033 18.1057 56.258 17.637C56.6253 17.1557 56.904 16.6237 57.094 16.041C57.284 15.4457 57.379 14.8503 57.379 14.255C57.379 13.6217 57.2776 13.0137 57.075 12.431C56.885 11.8357 56.6 11.31 56.22 10.854C55.84 10.3853 55.384 10.018 54.852 9.752C54.3326 9.486 53.75 9.353 53.104 9.353C52.42 9.353 51.812 9.49233 51.28 9.771C50.748 10.0497 50.2983 10.4233 49.931 10.892C49.5636 11.3607 49.2786 11.8863 49.076 12.469C48.886 13.0517 48.791 13.647 48.791 14.255ZM72.3691 17.523C72.3691 18.245 72.1791 18.8657 71.7991 19.385C71.4317 19.9043 70.9314 20.3033 70.2981 20.582C69.6647 20.8607 68.9681 21 68.2081 21H61.7671V7.51H68.7211C69.3544 7.51 69.8991 7.681 70.3551 8.023C70.8237 8.35233 71.1784 8.783 71.4191 9.315C71.6724 9.83433 71.7991 10.379 71.7991 10.949C71.7991 11.6077 71.6281 12.2283 71.2861 12.811C70.9567 13.381 70.4817 13.8053 69.8611 14.084C70.6337 14.312 71.2417 14.73 71.6851 15.338C72.1411 15.9333 72.3691 16.6617 72.3691 17.523ZM70.1841 17.124C70.1841 16.744 70.1017 16.402 69.9371 16.098C69.7851 15.7813 69.5697 15.528 69.2911 15.338C69.0251 15.1353 68.7084 15.034 68.3411 15.034H63.8951V19.157H68.2081C68.5881 19.157 68.9237 19.0683 69.2151 18.891C69.5191 18.701 69.7534 18.454 69.9181 18.15C70.0954 17.8333 70.1841 17.4913 70.1841 17.124ZM63.8951 9.353V13.324H67.8091C68.1637 13.324 68.4804 13.2417 68.7591 13.077C69.0377 12.8997 69.2594 12.6653 69.4241 12.374C69.5887 12.07 69.6711 11.728 69.6711 11.348C69.6711 10.9553 69.5951 10.6133 69.4431 10.322C69.2911 10.018 69.0821 9.78367 68.8161 9.619C68.5627 9.44167 68.2651 9.353 67.9231 9.353H63.8951ZM74.5884 21V7.51H76.7164V21H74.5884ZM89.6641 9.391H85.1801V21H83.0331V9.391H78.5301V7.51H89.6641V9.391ZM91.4731 21V7.51H93.6011V21H91.4731ZM96.6499 21V7.51H101.438C102.895 7.51 104.111 7.814 105.086 8.422C106.061 9.01733 106.79 9.828 107.271 10.854C107.765 11.8673 108.012 12.9947 108.012 14.236C108.012 15.604 107.74 16.7947 107.195 17.808C106.663 18.8213 105.903 19.6067 104.915 20.164C103.927 20.7213 102.768 21 101.438 21H96.6499ZM105.846 14.236C105.846 13.286 105.669 12.45 105.314 11.728C104.972 10.9933 104.472 10.4233 103.813 10.018C103.167 9.6 102.375 9.391 101.438 9.391H98.7779V19.119H101.438C102.388 19.119 103.186 18.9037 103.832 18.473C104.491 18.0423 104.991 17.4597 105.333 16.725C105.675 15.9903 105.846 15.1607 105.846 14.236ZM110.25 21V7.51H112.378V21H110.25ZM121.032 21.095C120.057 21.095 119.177 20.905 118.391 20.525C117.606 20.145 116.928 19.632 116.358 18.986C115.788 18.3273 115.345 17.5927 115.028 16.782C114.724 15.9587 114.572 15.1163 114.572 14.255C114.572 13.3557 114.737 12.5007 115.066 11.69C115.396 10.8667 115.852 10.1383 116.434 9.505C117.017 8.859 117.701 8.35233 118.486 7.985C119.284 7.605 120.146 7.415 121.07 7.415C122.033 7.415 122.907 7.61133 123.692 8.004C124.49 8.39667 125.168 8.92233 125.725 9.581C126.295 10.2397 126.732 10.9743 127.036 11.785C127.353 12.5957 127.511 13.4253 127.511 14.274C127.511 15.1733 127.347 16.0347 127.017 16.858C126.701 17.6687 126.251 18.397 125.668 19.043C125.086 19.6763 124.395 20.1767 123.597 20.544C122.812 20.9113 121.957 21.095 121.032 21.095ZM116.738 14.255C116.738 14.8883 116.84 15.5027 117.042 16.098C117.245 16.6933 117.53 17.2253 117.897 17.694C118.277 18.15 118.733 18.511 119.265 18.777C119.797 19.043 120.393 19.176 121.051 19.176C121.735 19.176 122.343 19.0367 122.875 18.758C123.407 18.4793 123.851 18.1057 124.205 17.637C124.573 17.1557 124.851 16.6237 125.041 16.041C125.231 15.4457 125.326 14.8503 125.326 14.255C125.326 13.6217 125.225 13.0137 125.022 12.431C124.832 11.8357 124.547 11.31 124.167 10.854C123.787 10.3853 123.331 10.018 122.799 9.752C122.28 9.486 121.697 9.353 121.051 9.353C120.367 9.353 119.759 9.49233 119.227 9.771C118.695 10.0497 118.246 10.4233 117.878 10.892C117.511 11.3607 117.226 11.8863 117.023 12.469C116.833 13.0517 116.738 13.647 116.738 14.255ZM139.242 9.391H134.758V21H132.611V9.391H128.108V7.51H139.242V9.391Z" fill="#333333" fill-opacity="0.7"/>
</svg>
