<svg width="310" height="28" viewBox="0 0 310 28" fill="none" xmlns="http://www.w3.org/2000/svg">
<path d="M7.98 9.543C8.91733 9.543 9.804 9.70767 10.64 10.037C11.4887 10.3537 12.2423 10.8287 12.901 11.462C13.5597 12.0827 14.079 12.8427 14.459 13.742C14.839 14.6287 15.029 15.642 15.029 16.782C15.029 16.9973 15.01 17.2887 14.972 17.656C14.9467 18.0233 14.8833 18.416 14.782 18.834C14.6807 19.252 14.5223 19.651 14.307 20.031C14.1043 20.3983 13.8257 20.7023 13.471 20.943C13.1163 21.1837 12.673 21.304 12.141 21.304C11.6977 21.304 11.3557 21.2217 11.115 21.057C10.8743 20.8923 10.7033 20.6897 10.602 20.449C10.5133 20.1957 10.45 19.936 10.412 19.67C10.0447 20.0627 9.576 20.3857 9.006 20.639C8.44867 20.8797 7.84067 21 7.182 21C6.25733 21 5.54167 20.753 5.035 20.259C4.541 19.765 4.294 19.138 4.294 18.378C4.294 17.694 4.465 17.1557 4.807 16.763C5.16167 16.3703 5.61133 16.0917 6.156 15.927C6.71333 15.7623 7.27067 15.68 7.828 15.68C8.36 15.68 8.82233 15.7307 9.215 15.832C9.60767 15.9333 9.899 16.022 10.089 16.098C10.089 15.5913 10.0257 15.1417 9.899 14.749C9.77233 14.3563 9.54433 14.0523 9.215 13.837C8.89833 13.6217 8.44233 13.514 7.847 13.514C7.34033 13.514 6.86533 13.59 6.422 13.742C5.99133 13.894 5.605 14.103 5.263 14.369L4.845 13.229C5.301 12.925 5.80133 12.6907 6.346 12.526C6.89067 12.3613 7.45433 12.279 8.037 12.279C8.82233 12.279 9.43667 12.3993 9.88 12.64C10.336 12.868 10.6653 13.1847 10.868 13.59C11.0833 13.9827 11.2227 14.4133 11.286 14.882C11.3493 15.338 11.381 15.7813 11.381 16.212V18.264C11.381 18.6313 11.3937 18.9733 11.419 19.29C11.457 19.6067 11.5457 19.86 11.685 20.05C11.8243 20.2273 12.0397 20.316 12.331 20.316C12.6983 20.316 12.996 20.1893 13.224 19.936C13.452 19.6827 13.6293 19.366 13.756 18.986C13.8827 18.5933 13.9713 18.1943 14.022 17.789C14.0727 17.3837 14.098 17.0353 14.098 16.744C14.098 15.8447 13.946 15.015 13.642 14.255C13.338 13.4823 12.9073 12.811 12.35 12.241C11.8053 11.671 11.1593 11.2277 10.412 10.911C9.66467 10.5817 8.835 10.417 7.923 10.417C7.049 10.417 6.232 10.5753 5.472 10.892C4.72467 11.196 4.07233 11.6267 3.515 12.184C2.97033 12.7413 2.53967 13.4 2.223 14.16C1.919 14.92 1.767 15.7433 1.767 16.63C1.767 17.504 1.91267 18.321 2.204 19.081C2.49533 19.8283 2.907 20.487 3.439 21.057C3.971 21.627 4.598 22.0767 5.32 22.406C6.05467 22.7353 6.86533 22.9 7.752 22.9C8.33467 22.9 8.854 22.8303 9.31 22.691C9.766 22.5517 10.2283 22.3807 10.697 22.178L11.001 23.014C10.4817 23.2673 9.94333 23.4573 9.386 23.584C8.82867 23.7107 8.27767 23.774 7.733 23.774C6.783 23.774 5.89 23.5967 5.054 23.242C4.23067 22.9 3.50233 22.4123 2.869 21.779C2.23567 21.1457 1.73533 20.392 1.368 19.518C1.01333 18.644 0.836 17.6813 0.836 16.63C0.836 15.5153 1.026 14.521 1.406 13.647C1.79867 12.773 2.33067 12.032 3.002 11.424C3.67333 10.816 4.43333 10.3537 5.282 10.037C6.14333 9.70767 7.04267 9.543 7.98 9.543ZM9.006 19.461C9.28467 19.3217 9.5 19.1697 9.652 19.005C9.804 18.8277 9.91167 18.644 9.975 18.454C10.0383 18.2513 10.07 18.0487 10.07 17.846V17.124C9.89267 17.086 9.60767 17.01 9.215 16.896C8.82233 16.782 8.36 16.725 7.828 16.725C7.42267 16.725 7.049 16.7757 6.707 16.877C6.365 16.9783 6.09267 17.1493 5.89 17.39C5.68733 17.618 5.586 17.9283 5.586 18.321C5.586 18.6123 5.65567 18.8783 5.795 19.119C5.93433 19.347 6.13067 19.5307 6.384 19.67C6.63733 19.7967 6.94133 19.86 7.296 19.86C7.57467 19.86 7.866 19.822 8.17 19.746C8.48667 19.67 8.76533 19.575 9.006 19.461ZM17.5327 21V7.51H23.4037C24.0117 7.51 24.569 7.63667 25.0757 7.89C25.5824 8.14333 26.0194 8.479 26.3867 8.897C26.7667 9.315 27.058 9.78367 27.2607 10.303C27.476 10.8223 27.5837 11.3543 27.5837 11.899C27.5837 12.4943 27.476 13.0643 27.2607 13.609C27.0454 14.1537 26.735 14.6223 26.3297 15.015C25.937 15.4077 25.4747 15.6927 24.9427 15.87L28.1157 21H25.7217L22.7957 16.307H19.6607V21H17.5327ZM19.6607 14.426H23.3847C23.7774 14.426 24.1257 14.312 24.4297 14.084C24.7337 13.856 24.9744 13.552 25.1517 13.172C25.329 12.7793 25.4177 12.355 25.4177 11.899C25.4177 11.4303 25.3164 11.0123 25.1137 10.645C24.911 10.265 24.645 9.961 24.3157 9.733C23.999 9.505 23.6507 9.391 23.2707 9.391H19.6607V14.426ZM30.4328 7.51L34.1568 14.217L37.9188 7.51H40.2558L35.2208 16.174V21H33.0928V16.136L28.0958 7.51H30.4328ZM44.3613 7.51H46.3753L51.6193 21H49.3773L47.9523 17.333H42.7463L41.3403 21H39.0793L44.3613 7.51ZM47.5343 15.756L45.3683 9.847L43.1263 15.756H47.5343ZM55.4156 11.462V21H53.2876V7.51H55.0356L62.6736 17.257V7.529H64.8206V21H62.9586L55.4156 11.462ZM75.833 10.683C75.7063 10.5437 75.5227 10.398 75.282 10.246C75.0413 10.0813 74.7563 9.92933 74.427 9.79C74.0977 9.65067 73.743 9.53667 73.363 9.448C72.983 9.35933 72.5903 9.315 72.185 9.315C71.2983 9.315 70.6397 9.47967 70.209 9.809C69.7783 10.1383 69.563 10.5943 69.563 11.177C69.563 11.6077 69.6833 11.9497 69.924 12.203C70.1647 12.4437 70.532 12.6463 71.026 12.811C71.52 12.9757 72.1407 13.153 72.888 13.343C73.8 13.5583 74.5917 13.818 75.263 14.122C75.9343 14.4133 76.4473 14.806 76.802 15.3C77.1567 15.794 77.334 16.4463 77.334 17.257C77.334 17.941 77.2073 18.53 76.954 19.024C76.7007 19.518 76.346 19.9233 75.89 20.24C75.434 20.544 74.9083 20.772 74.313 20.924C73.7177 21.0633 73.078 21.133 72.394 21.133C71.7227 21.133 71.0513 21.0633 70.38 20.924C69.7213 20.7847 69.088 20.582 68.48 20.316C67.8847 20.0373 67.3337 19.7017 66.827 19.309L67.796 17.485C67.9607 17.6497 68.195 17.8333 68.499 18.036C68.8157 18.226 69.1767 18.4097 69.582 18.587C70 18.7643 70.4497 18.9163 70.931 19.043C71.425 19.157 71.9253 19.214 72.432 19.214C73.2807 19.214 73.9267 19.0683 74.37 18.777C74.826 18.473 75.054 18.0423 75.054 17.485C75.054 17.029 74.9083 16.668 74.617 16.402C74.3257 16.1233 73.9013 15.889 73.344 15.699C72.7867 15.509 72.1217 15.319 71.349 15.129C70.4623 14.8883 69.7213 14.6287 69.126 14.35C68.5307 14.0587 68.081 13.6913 67.777 13.248C67.4857 12.792 67.34 12.2157 67.34 11.519C67.34 10.6323 67.5553 9.885 67.986 9.277C68.4167 8.65633 68.9993 8.194 69.734 7.89C70.4813 7.57333 71.3173 7.415 72.242 7.415C72.85 7.415 73.4263 7.48467 73.971 7.624C74.5157 7.75067 75.0223 7.928 75.491 8.156C75.9723 8.384 76.4093 8.64367 76.802 8.935L75.833 10.683ZM88.7212 19.119V21H79.4682V7.51H88.5502V9.391H81.5962V13.229H87.6192V14.996H81.5962V19.119H88.7212ZM90.9165 21V7.51H93.0445V19.119H100.283V21H90.9165ZM102.012 21V7.529H104.14V14.464L110.486 7.51H112.842L107.522 13.476L113.146 21H110.733L106.173 14.825L104.14 16.934V21H102.012ZM114.555 21V7.51H116.683V21H114.555ZM127.712 10.683C127.585 10.5437 127.402 10.398 127.161 10.246C126.92 10.0813 126.635 9.92933 126.306 9.79C125.977 9.65067 125.622 9.53667 125.242 9.448C124.862 9.35933 124.469 9.315 124.064 9.315C123.177 9.315 122.519 9.47967 122.088 9.809C121.657 10.1383 121.442 10.5943 121.442 11.177C121.442 11.6077 121.562 11.9497 121.803 12.203C122.044 12.4437 122.411 12.6463 122.905 12.811C123.399 12.9757 124.02 13.153 124.767 13.343C125.679 13.5583 126.471 13.818 127.142 14.122C127.813 14.4133 128.326 14.806 128.681 15.3C129.036 15.794 129.213 16.4463 129.213 17.257C129.213 17.941 129.086 18.53 128.833 19.024C128.58 19.518 128.225 19.9233 127.769 20.24C127.313 20.544 126.787 20.772 126.192 20.924C125.597 21.0633 124.957 21.133 124.273 21.133C123.602 21.133 122.93 21.0633 122.259 20.924C121.6 20.7847 120.967 20.582 120.359 20.316C119.764 20.0373 119.213 19.7017 118.706 19.309L119.675 17.485C119.84 17.6497 120.074 17.8333 120.378 18.036C120.695 18.226 121.056 18.4097 121.461 18.587C121.879 18.7643 122.329 18.9163 122.81 19.043C123.304 19.157 123.804 19.214 124.311 19.214C125.16 19.214 125.806 19.0683 126.249 18.777C126.705 18.473 126.933 18.0423 126.933 17.485C126.933 17.029 126.787 16.668 126.496 16.402C126.205 16.1233 125.78 15.889 125.223 15.699C124.666 15.509 124.001 15.319 123.228 15.129C122.341 14.8883 121.6 14.6287 121.005 14.35C120.41 14.0587 119.96 13.6913 119.656 13.248C119.365 12.792 119.219 12.2157 119.219 11.519C119.219 10.6323 119.434 9.885 119.865 9.277C120.296 8.65633 120.878 8.194 121.613 7.89C122.36 7.57333 123.196 7.415 124.121 7.415C124.729 7.415 125.305 7.48467 125.85 7.624C126.395 7.75067 126.901 7.928 127.37 8.156C127.851 8.384 128.288 8.64367 128.681 8.935L127.712 10.683Z" fill="#333333" fill-opacity="0.7"/>
</svg>
